<?xml version="1.0" encoding="utf-8"?>
<svg xmlns="http://www.w3.org/2000/svg" width="32px" zoomAndPan="magnify" viewBox="20.22 36.079 300.076 113.673" height="32px" preserveAspectRatio="xMidYMid meet" version="1.0" id="Maroon_logo" class="logo trademark maroon digital marketing agency company Branding Trademark Marketing Creative Design Brand Identity" role="graphics-symbol">
  <desc>Business Essentials and E-Commerce Services
•	Brochure
•	Visiting Card
•	ID Card
•	Menu Card
•	QR Code
•	Presentation/Slides
•	Stationery Design
•	Envelope Design
•	Analyzing Competitors
•	E-Commerce Listing
•	Product Marketing
•	Product Insert/Description
Digital Marketing Services
•	Google My Business Optimization
•	Google Maps Integration
•	Search Engine Optimization (SEO)
•	Search Engine Marketing (SEM)
•	Pay-Per-Click Advertising (PPC)
•	Conversion Rate Optimization (CRO)
•	Customer Relationship Management (CRM) Integration
•	Online Reputation Management (ORM)
•	Email Marketing
•	Bulk Messaging Campaigns
•	Blog Writing and Content Marketing
Social Media Marketing
•	Instagram Management
•	Facebook Management
•	LinkedIn Management
•	Twitter Management
•	YouTube Channel Management
•	WhatsApp Management
•	Digital Community Management
Branding Services
•	Logo Design
•	Brand Strategy Development
•	Brand Identity Package
•	Rebranding Solutions
•	Tagline and Messaging Creation
•	Brand Storytelling
•	Corporate Branding
•	Packaging Design
•	Merchandise Design
Design &amp; Editing Services
•	Graphic Posters
•	Social Media Content Creation
•	Video and Animation Design
•	YouTube and Media Thumbnails
•	Invitation Card Designs
•	Infographic Creation
•	E-Book and Digital Content Design
•	Reports and Document Layouts
•	Digital Banners
•	Event-Specific Design Templates
•	Marketing Collateral
Website &amp; Application Services
•	Web Design (UI/UX Mockups)
•	Website Development
•	E-Commerce Graphics
•	Advanced Content Creation
•	Application Building
Corporate and Legal Services
•	Letterhead Design
•	Invoice/Billing Templates
•	Reports and Certificate Designs
•	Licensing and E-Signature Services
•	Contract and Agreement Templates
•	Non-Disclosure Agreement (NDA) Drafting
•	Stamp Design
Advanced Marketing Tools
•	White Label Link Building
•	Programmatic Advertising
•	Global Affiliate Marketing
</desc>
  <title>Maroondigitalrise-Logo-trademark</title>
  <defs>
    <g/>
    <clipPath id="60c413eacb">
      <path d="M 0.65625 81 L 246 81 L 246 160.503906 L 0.65625 160.503906 Z M 0.65625 81 " clip-rule="nonzero"/>
    </clipPath>
    <clipPath id="000d1fff13">
      <path d="M 0.65625 0 L 237 0 L 237 160.503906 L 0.65625 160.503906 Z M 0.65625 0 " clip-rule="nonzero"/>
    </clipPath>
    <clipPath id="40c2c775d5">
      <path d="M 105 0 L 334 0 L 334 160.503906 L 105 160.503906 Z M 105 0 " clip-rule="nonzero"/>
    </clipPath>
    <clipPath id="56e0a7b3da">
      <path d="M 206 0 L 335.847656 0 L 335.847656 160.503906 L 206 160.503906 Z M 206 0 " clip-rule="nonzero"/>
    </clipPath>
    <clipPath id="f26f69a3f3">
      <path d="M 208.097656 121.851562 L 231.242188 121.851562 L 231.242188 144.992188 L 208.097656 144.992188 Z M 208.097656 121.851562 " clip-rule="nonzero"/>
    </clipPath>
  </defs>
  <g clip-path="url(#60c413eacb)">
    <path stroke-linecap="butt" transform="matrix(0.746528, 0, 0, 0.746528, 21.513224, 113.639875)" fill="none" stroke-linejoin="miter" d="M 3.509031 36.001007 L 3.509031 10.445191 L 20.535777 10.445191 C 23.309033 10.445191 25.721242 10.774843 27.756707 11.44461 C 29.802638 12.103913 31.492754 13.024843 32.827057 14.207401 C 34.171824 15.389959 35.176475 16.750425 35.846243 18.288797 C 36.510778 19.821936 36.845662 21.470192 36.845662 23.233565 C 36.845662 24.907983 36.531708 26.514379 35.914266 28.052751 C 35.296824 29.591123 34.328801 30.951588 33.004964 32.144612 C 31.691591 33.337635 30.006708 34.279496 27.950312 34.964961 C 25.893917 35.655659 23.424149 36.001007 20.535777 36.001007 Z M 10.075892 31.223681 L 19.332288 31.223681 C 21.535195 31.223681 23.450312 30.941123 25.077637 30.38124 C 26.704963 29.816123 27.96601 28.947519 28.855545 27.775425 C 29.750312 26.608565 30.200312 25.091123 30.200312 23.233565 C 30.200312 20.528332 29.242754 18.519029 27.327638 17.205657 C 25.412521 15.88182 22.749149 15.222517 19.332288 15.222517 L 10.075892 15.222517 Z M 41.544499 36.001007 L 41.544499 15.69868 L 47.3945 15.69868 L 47.3945 36.001007 Z M 40.995081 10.576005 C 40.995081 9.157982 42.167174 8.446354 44.506127 8.446354 C 46.771825 8.446354 47.90729 9.157982 47.90729 10.576005 C 47.90729 11.999261 46.771825 12.710889 44.506127 12.710889 C 42.167174 12.710889 40.995081 11.999261 40.995081 10.576005 Z M 66.001478 42.745775 C 63.798571 42.745775 61.716012 42.594031 59.753803 42.290543 C 57.796826 41.992287 55.981128 41.54752 54.30671 40.95624 L 54.782872 36.963798 C 55.818919 37.351008 56.949152 37.670194 58.178803 37.921356 C 59.403222 38.177752 60.622408 38.355659 61.836361 38.470775 C 63.055547 38.585891 64.14392 38.64345 65.10671 38.64345 C 67.832873 38.64345 69.99392 38.135891 71.58985 37.115542 C 73.185781 36.100426 74.028223 34.556821 74.117176 32.489961 L 74.148572 31.631821 L 74.117176 30.46496 L 74.117176 30.4231 C 73.086362 32.097519 71.746827 33.342868 70.093339 34.159147 C 68.43985 34.970193 66.493338 35.378333 64.248571 35.378333 C 61.700315 35.378333 59.513105 34.933565 57.692175 34.044031 C 55.871245 33.149263 54.479384 31.940542 53.516593 30.412635 C 52.553802 28.884728 52.072407 27.184146 52.072407 25.300425 C 52.072407 23.28589 52.559035 21.512053 53.532291 19.973681 C 54.505547 18.435308 55.90264 17.237052 57.72357 16.378913 C 59.549733 15.520773 61.71078 15.086471 64.217175 15.086471 C 66.41485 15.086471 68.387525 15.515541 70.129967 16.363215 C 71.867176 17.21089 73.175316 18.419611 74.049153 19.999843 L 74.148572 19.999843 L 74.017758 17.566704 L 74.017758 15.69868 L 79.862525 15.69868 L 79.862525 30.768449 C 79.862525 34.828914 78.66427 37.837635 76.267758 39.794612 C 73.871246 41.762054 70.449153 42.745775 66.001478 42.745775 Z M 57.917175 25.201007 C 57.917175 26.294611 58.189268 27.304495 58.738687 28.225425 C 59.293338 29.141123 60.151477 29.878914 61.318338 30.433565 C 62.490431 30.982984 63.992175 31.255077 65.828803 31.255077 C 67.27299 31.255077 68.513106 31.061472 69.554385 30.66903 C 70.606129 30.276588 71.453804 29.774263 72.102641 29.172519 C 72.756711 28.560309 73.243339 27.911472 73.562525 27.215542 C 73.886944 26.514379 74.049153 25.844611 74.049153 25.201007 C 74.049153 24.578332 73.886944 23.924262 73.562525 23.24403 C 73.243339 22.553332 72.746246 21.904495 72.066013 21.292285 C 71.396246 20.685309 70.543339 20.188215 69.507292 19.801006 C 68.476478 19.408564 67.236362 19.209727 65.792176 19.209727 C 64.028803 19.209727 62.563687 19.507983 61.391594 20.094029 C 60.224733 20.674843 59.350896 21.417867 58.775315 22.328332 C 58.199733 23.233565 57.917175 24.191123 57.917175 25.201007 Z M 86.214852 36.001007 L 86.214852 15.69868 L 92.070085 15.69868 L 92.070085 36.001007 Z M 85.670665 10.576005 C 85.670665 9.157982 86.837526 8.446354 89.181712 8.446354 C 91.44741 8.446354 92.582875 9.157982 92.582875 10.576005 C 92.582875 11.999261 91.44741 12.710889 89.181712 12.710889 C 86.837526 12.710889 85.670665 11.999261 85.670665 10.576005 Z M 108.992179 36.623682 C 107.176481 36.623682 105.706132 36.382984 104.581132 35.901589 C 103.461365 35.420193 102.597992 34.771356 101.985783 33.96031 C 101.378806 33.14403 100.965434 32.233565 100.735202 31.239379 C 100.504969 30.23996 100.389853 29.224844 100.389853 28.188798 L 100.389853 19.832402 L 95.910783 19.832402 L 95.910783 15.69868 L 100.389853 15.69868 L 100.389853 11.167285 L 106.234621 11.167285 L 106.234621 15.69868 L 114.078226 15.69868 L 114.078226 19.832402 L 106.234621 19.832402 L 106.234621 27.330658 C 106.234621 28.251588 106.334039 29.099263 106.527644 29.878914 C 106.726481 30.653333 107.134621 31.276007 107.762528 31.73124 C 108.395667 32.191705 109.34276 32.421937 110.603807 32.421937 C 111.336365 32.421937 112.058458 32.380077 112.770086 32.285891 C 113.481714 32.191705 114.052063 32.102751 114.491598 32.008565 L 114.732296 35.901589 C 113.999737 36.105659 113.162528 36.278333 112.220668 36.409147 C 111.28404 36.550426 110.206133 36.623682 108.992179 36.623682 Z M 127.520669 36.587054 C 125.41718 36.587054 123.711366 36.362054 122.413692 35.917287 C 121.12125 35.467286 120.127064 34.886472 119.441598 34.180077 C 118.750901 33.468449 118.27997 32.709728 118.028808 31.909147 C 117.777645 31.103333 117.652063 30.344612 117.652063 29.632984 C 117.652063 28.738216 117.819505 27.890542 118.149156 27.08996 C 118.48404 26.289379 119.059622 25.567286 119.870668 24.923681 C 120.686947 24.280076 121.785785 23.772518 123.16718 23.411472 C 124.559041 23.03996 126.31718 22.85682 128.452064 22.85682 C 129.87532 22.85682 131.22532 22.945774 132.507297 23.118448 C 133.794506 23.291123 134.945669 23.484727 135.950321 23.704495 C 136.960204 23.924262 137.729391 24.112634 138.252646 24.269611 L 138.252646 23.992286 C 138.252646 22.16089 137.64567 20.826588 136.431716 19.994611 C 135.217762 19.152169 133.360204 18.733564 130.864274 18.733564 C 129.320669 18.733564 128.080553 18.890541 127.143925 19.209727 C 126.202064 19.528913 125.500901 19.963215 125.040436 20.507402 C 124.590436 21.041123 124.31311 21.621937 124.218924 22.244611 L 118.510203 22.244611 C 118.646249 21.412634 118.939273 20.580657 119.373575 19.748681 C 119.807877 18.911471 120.482878 18.137053 121.398575 17.441122 C 122.314273 16.739959 123.554389 16.174843 125.108459 15.740541 C 126.672994 15.306238 128.656134 15.086471 131.063111 15.086471 C 133.820669 15.086471 136.054972 15.363797 137.776484 15.913215 C 139.492763 16.457401 140.811367 17.216122 141.732298 18.178913 C 142.647996 19.141704 143.27067 20.261471 143.605554 21.538216 C 143.940438 22.809727 144.107879 24.16496 144.107879 25.609146 L 144.107879 36.001007 L 138.294507 36.001007 L 138.294507 32.934728 L 138.529972 30.532984 L 138.430553 30.532984 C 137.828809 31.79403 136.981135 32.87717 135.877065 33.782403 C 134.778227 34.687635 133.517181 35.383566 132.099158 35.864961 C 130.675902 36.346356 129.147994 36.587054 127.520669 36.587054 Z M 123.397413 29.465542 C 123.397413 29.946937 123.564855 30.428333 123.910203 30.909728 C 124.255552 31.391123 124.852064 31.79403 125.699738 32.113216 C 126.547413 32.432403 127.709041 32.589379 129.174157 32.589379 C 130.869506 32.589379 132.30846 32.332984 133.491018 31.820193 C 134.673576 31.30217 135.625902 30.6481 136.347995 29.863216 C 137.070088 29.0731 137.577646 28.282984 137.875902 27.503332 C 137.164274 27.226007 136.347995 27.001007 135.432297 26.8231 C 134.5166 26.634728 133.585204 26.498681 132.632878 26.409728 C 131.680553 26.315542 130.801483 26.268449 129.995669 26.268449 C 128.25846 26.268449 126.903227 26.41496 125.940436 26.713216 C 124.977645 27.006239 124.31311 27.398681 123.941599 27.880077 C 123.580552 28.361472 123.397413 28.88996 123.397413 29.465542 Z M 150.078229 36.001007 L 150.078229 9.68647 L 155.933462 9.68647 L 155.933462 36.001007 Z M 178.695091 36.001007 L 178.695091 10.445191 L 196.344511 10.445191 C 199.274744 10.445191 201.629396 10.76961 203.403233 11.42368 C 205.187535 12.07775 206.474745 12.962052 207.275326 14.087052 C 208.08114 15.212052 208.48928 16.509727 208.48928 17.974843 C 208.48928 19.832402 207.892768 21.334146 206.699745 22.495774 C 205.506721 23.652169 203.889861 24.43182 201.84393 24.824262 L 201.84393 24.855658 C 202.806721 25.06496 203.612535 25.347518 204.25614 25.703332 C 204.899745 26.053914 205.428233 26.577169 205.85207 27.267867 C 206.275908 27.9481 206.626489 28.921356 206.909047 30.187635 L 207.317187 31.909147 C 207.573582 32.939961 207.79335 33.745775 207.981722 34.321356 C 208.180559 34.891705 208.416024 35.451589 208.688117 36.001007 L 201.875326 36.001007 C 201.718349 35.681821 201.55614 35.268449 201.383465 34.766124 C 201.205558 34.253333 200.996256 33.442286 200.745093 32.322519 L 200.300326 30.4231 C 200.159047 29.763798 199.871256 29.219612 199.431721 28.795774 C 199.002651 28.366705 198.343349 28.057984 197.459046 27.864379 C 196.574744 27.665542 195.366023 27.566123 193.832883 27.566123 L 185.267185 27.566123 L 185.267185 36.001007 Z M 185.267185 22.998099 L 195.831721 22.998099 C 197.736372 22.998099 199.217186 22.657983 200.279395 21.982983 C 201.346837 21.307983 201.875326 20.266704 201.875326 18.869611 C 201.875326 17.739378 201.435791 16.855076 200.551488 16.206238 C 199.672419 15.552169 198.223 15.222517 196.208465 15.222517 L 185.267185 15.222517 Z M 213.700908 36.001007 L 213.700908 15.69868 L 219.556141 15.69868 L 219.556141 36.001007 Z M 213.156722 10.576005 C 213.156722 9.157982 214.328815 8.446354 216.667769 8.446354 C 218.933467 8.446354 220.068932 9.157982 220.068932 10.576005 C 220.068932 11.999261 218.933467 12.710889 216.667769 12.710889 C 214.328815 12.710889 213.156722 11.999261 213.156722 10.576005 Z M 237.645096 36.623682 C 234.6887 36.623682 232.281724 36.278333 230.418933 35.587635 C 228.561374 34.90217 227.206142 33.986472 226.358467 32.851007 C 225.510793 31.715542 225.086956 30.470193 225.086956 29.120193 L 230.633468 29.120193 C 230.696258 29.967867 231.04684 30.653333 231.674747 31.187054 C 232.307886 31.715542 233.139863 32.097519 234.186375 32.338216 C 235.232887 32.578914 236.40498 32.699263 237.713119 32.699263 C 239.272422 32.699263 240.481143 32.599844 241.339282 32.40624 C 242.202655 32.207402 242.804399 31.940542 243.144515 31.600426 C 243.489864 31.249844 243.667771 30.862635 243.667771 30.4231 C 243.667771 29.575426 243.123585 28.973681 242.045678 28.607402 C 240.967771 28.241123 239.157305 27.92717 236.609049 27.676007 C 234.039863 27.403914 231.952072 27.032402 230.345677 26.561472 C 228.744514 26.090542 227.567188 25.441704 226.808467 24.620193 C 226.054979 23.793448 225.678235 22.720774 225.678235 21.412634 C 225.678235 20.591123 225.840444 19.801006 226.170095 19.042285 C 226.499746 18.288797 227.08056 17.613797 227.902072 17.017285 C 228.728816 16.420773 229.853816 15.949843 231.277072 15.609727 C 232.700328 15.259145 234.489863 15.086471 236.645677 15.086471 C 238.874747 15.086471 240.774166 15.295773 242.354399 15.709145 C 243.939864 16.117285 245.232306 16.661471 246.226492 17.336471 C 247.225911 18.016704 247.958469 18.770192 248.429399 19.596936 C 248.90033 20.418448 249.14626 21.234727 249.16719 22.035309 L 243.322422 22.035309 C 243.160213 21.093448 242.495678 20.355657 241.339282 19.816704 C 240.18812 19.27775 238.518933 19.01089 236.331724 19.01089 C 234.547421 19.01089 233.307305 19.204494 232.606142 19.596936 C 231.904979 19.984146 231.554398 20.512634 231.554398 21.177169 C 231.554398 22.087634 232.041026 22.726006 233.014282 23.08182 C 233.99277 23.437634 235.625328 23.704495 237.922422 23.887634 C 240.742771 24.076007 243.003236 24.416123 244.698585 24.923681 C 246.393934 25.426007 247.628818 26.106239 248.392771 26.953914 C 249.161957 27.801588 249.543934 28.842867 249.543934 30.077751 C 249.543934 32.144612 248.586376 33.751007 246.67126 34.90217 C 244.756143 36.0481 241.747422 36.623682 237.645096 36.623682 Z M 237.645096 36.623682 " stroke="#a00000" stroke-width="9.03" stroke-opacity="1" stroke-miterlimit="4"/>
  </g>
  <g fill="#ffffff" fill-opacity="1">
    <g transform="translate(21.513224, 140.514873)">
      <g>
        <path d="M 2.625 0 L 2.625 -19.078125 L 15.328125 -19.078125 C 17.398438 -19.078125 19.195312 -18.828125 20.71875 -18.328125 C 22.25 -17.835938 23.515625 -17.148438 24.515625 -16.265625 C 25.515625 -15.390625 26.265625 -14.378906 26.765625 -13.234375 C 27.265625 -12.085938 27.515625 -10.851562 27.515625 -9.53125 C 27.515625 -8.28125 27.28125 -7.082031 26.8125 -5.9375 C 26.351562 -4.789062 25.628906 -3.769531 24.640625 -2.875 C 23.660156 -1.988281 22.40625 -1.285156 20.875 -0.765625 C 19.34375 -0.253906 17.492188 0 15.328125 0 Z M 7.53125 -3.578125 L 14.4375 -3.578125 C 16.082031 -3.578125 17.507812 -3.785156 18.71875 -4.203125 C 19.9375 -4.617188 20.878906 -5.265625 21.546875 -6.140625 C 22.210938 -7.015625 22.546875 -8.144531 22.546875 -9.53125 C 22.546875 -11.550781 21.832031 -13.050781 20.40625 -14.03125 C 18.976562 -15.019531 16.988281 -15.515625 14.4375 -15.515625 L 7.53125 -15.515625 Z M 7.53125 -3.578125 "/>
      </g>
    </g>
  </g>
  <g fill="#ffffff" fill-opacity="1">
    <g transform="translate(50.293404, 140.514873)">
      <g>
        <path d="M 2.234375 0 L 2.234375 -15.15625 L 6.609375 -15.15625 L 6.609375 0 Z M 1.828125 -18.984375 C 1.828125 -20.046875 2.695312 -20.578125 4.4375 -20.578125 C 6.132812 -20.578125 6.984375 -20.046875 6.984375 -18.984375 C 6.984375 -17.921875 6.132812 -17.390625 4.4375 -17.390625 C 2.695312 -17.390625 1.828125 -17.921875 1.828125 -18.984375 Z M 1.828125 -18.984375 "/>
      </g>
    </g>
  </g>
  <g fill="#ffffff" fill-opacity="1">
    <g transform="translate(59.40761, 140.514873)">
      <g>
        <path d="M 11.375 5.03125 C 9.726562 5.03125 8.171875 4.914062 6.703125 4.6875 C 5.242188 4.46875 3.890625 4.140625 2.640625 3.703125 L 3 0.71875 C 3.769531 1.007812 4.613281 1.25 5.53125 1.4375 C 6.445312 1.625 7.359375 1.757812 8.265625 1.84375 C 9.171875 1.9375 9.988281 1.984375 10.71875 1.984375 C 12.75 1.984375 14.359375 1.597656 15.546875 0.828125 C 16.742188 0.0664062 17.375 -1.082031 17.4375 -2.625 L 17.46875 -3.265625 L 17.4375 -4.140625 L 17.4375 -4.15625 C 16.664062 -2.90625 15.664062 -1.976562 14.4375 -1.375 C 13.207031 -0.769531 11.75 -0.46875 10.0625 -0.46875 C 8.164062 -0.46875 6.535156 -0.800781 5.171875 -1.46875 C 3.816406 -2.132812 2.773438 -3.035156 2.046875 -4.171875 C 1.328125 -5.304688 0.96875 -6.578125 0.96875 -7.984375 C 0.96875 -9.492188 1.332031 -10.820312 2.0625 -11.96875 C 2.789062 -13.113281 3.835938 -14.007812 5.203125 -14.65625 C 6.566406 -15.300781 8.179688 -15.625 10.046875 -15.625 C 11.691406 -15.625 13.164062 -15.304688 14.46875 -14.671875 C 15.769531 -14.035156 16.742188 -13.125 17.390625 -11.9375 L 17.46875 -11.9375 L 17.359375 -13.765625 L 17.359375 -15.15625 L 21.734375 -15.15625 L 21.734375 -3.90625 C 21.734375 -0.875 20.835938 1.367188 19.046875 2.828125 C 17.253906 4.296875 14.695312 5.03125 11.375 5.03125 Z M 5.34375 -8.0625 C 5.34375 -7.238281 5.546875 -6.484375 5.953125 -5.796875 C 6.367188 -5.117188 7.015625 -4.570312 7.890625 -4.15625 C 8.765625 -3.75 9.882812 -3.546875 11.25 -3.546875 C 12.332031 -3.546875 13.257812 -3.691406 14.03125 -3.984375 C 14.8125 -4.273438 15.445312 -4.644531 15.9375 -5.09375 C 16.425781 -5.550781 16.789062 -6.039062 17.03125 -6.5625 C 17.269531 -7.082031 17.390625 -7.582031 17.390625 -8.0625 C 17.390625 -8.53125 17.269531 -9.019531 17.03125 -9.53125 C 16.789062 -10.039062 16.414062 -10.519531 15.90625 -10.96875 C 15.40625 -11.425781 14.769531 -11.800781 14 -12.09375 C 13.226562 -12.382812 12.300781 -12.53125 11.21875 -12.53125 C 9.90625 -12.53125 8.8125 -12.3125 7.9375 -11.875 C 7.0625 -11.4375 6.410156 -10.878906 5.984375 -10.203125 C 5.554688 -9.535156 5.34375 -8.820312 5.34375 -8.0625 Z M 5.34375 -8.0625 "/>
      </g>
    </g>
  </g>
  <g fill="#ffffff" fill-opacity="1">
    <g transform="translate(83.643567, 140.514873)">
      <g>
        <path d="M 2.234375 0 L 2.234375 -15.15625 L 6.609375 -15.15625 L 6.609375 0 Z M 1.828125 -18.984375 C 1.828125 -20.046875 2.695312 -20.578125 4.4375 -20.578125 C 6.132812 -20.578125 6.984375 -20.046875 6.984375 -18.984375 C 6.984375 -17.921875 6.132812 -17.390625 4.4375 -17.390625 C 2.695312 -17.390625 1.828125 -17.921875 1.828125 -18.984375 Z M 1.828125 -18.984375 "/>
      </g>
    </g>
  </g>
  <g fill="#ffffff" fill-opacity="1">
    <g transform="translate(92.757775, 140.514873)">
      <g>
        <path d="M 10.125 0.46875 C 8.769531 0.46875 7.671875 0.289062 6.828125 -0.0625 C 5.992188 -0.425781 5.347656 -0.910156 4.890625 -1.515625 C 4.441406 -2.128906 4.128906 -2.804688 3.953125 -3.546875 C 3.785156 -4.296875 3.703125 -5.054688 3.703125 -5.828125 L 3.703125 -12.078125 L 0.359375 -12.078125 L 0.359375 -15.15625 L 3.703125 -15.15625 L 3.703125 -18.546875 L 8.0625 -18.546875 L 8.0625 -15.15625 L 13.921875 -15.15625 L 13.921875 -12.078125 L 8.0625 -12.078125 L 8.0625 -6.46875 C 8.0625 -5.789062 8.132812 -5.160156 8.28125 -4.578125 C 8.425781 -3.992188 8.734375 -3.53125 9.203125 -3.1875 C 9.679688 -2.84375 10.390625 -2.671875 11.328125 -2.671875 C 11.878906 -2.671875 12.421875 -2.703125 12.953125 -2.765625 C 13.484375 -2.835938 13.910156 -2.910156 14.234375 -2.984375 L 14.40625 -0.078125 C 13.863281 0.078125 13.238281 0.207031 12.53125 0.3125 C 11.832031 0.414062 11.03125 0.46875 10.125 0.46875 Z M 10.125 0.46875 "/>
      </g>
    </g>
  </g>
  <g fill="#ffffff" fill-opacity="1">
    <g transform="translate(108.290384, 140.514873)">
      <g>
        <path d="M 8.421875 0.4375 C 6.847656 0.4375 5.578125 0.269531 4.609375 -0.0625 C 3.640625 -0.394531 2.898438 -0.828125 2.390625 -1.359375 C 1.878906 -1.890625 1.523438 -2.453125 1.328125 -3.046875 C 1.140625 -3.648438 1.046875 -4.21875 1.046875 -4.75 C 1.046875 -5.414062 1.171875 -6.046875 1.421875 -6.640625 C 1.671875 -7.242188 2.097656 -7.785156 2.703125 -8.265625 C 3.316406 -8.742188 4.140625 -9.117188 5.171875 -9.390625 C 6.210938 -9.671875 7.53125 -9.8125 9.125 -9.8125 C 10.1875 -9.8125 11.195312 -9.742188 12.15625 -9.609375 C 13.113281 -9.484375 13.96875 -9.335938 14.71875 -9.171875 C 15.46875 -9.015625 16.039062 -8.878906 16.4375 -8.765625 L 16.4375 -8.96875 C 16.4375 -10.332031 15.984375 -11.328125 15.078125 -11.953125 C 14.171875 -12.578125 12.785156 -12.890625 10.921875 -12.890625 C 9.773438 -12.890625 8.847656 -12.769531 8.140625 -12.53125 C 7.441406 -12.289062 6.921875 -11.96875 6.578125 -11.5625 C 6.234375 -11.164062 6.023438 -10.738281 5.953125 -10.28125 L 1.703125 -10.28125 C 1.796875 -10.894531 2.003906 -11.515625 2.328125 -12.140625 C 2.660156 -12.765625 3.164062 -13.335938 3.84375 -13.859375 C 4.53125 -14.378906 5.457031 -14.800781 6.625 -15.125 C 7.789062 -15.457031 9.273438 -15.625 11.078125 -15.625 C 13.128906 -15.625 14.796875 -15.414062 16.078125 -15 C 17.359375 -14.59375 18.34375 -14.03125 19.03125 -13.3125 C 19.71875 -12.59375 20.1875 -11.753906 20.4375 -10.796875 C 20.6875 -9.847656 20.8125 -8.832031 20.8125 -7.75 L 20.8125 0 L 16.46875 0 L 16.46875 -2.28125 L 16.640625 -4.078125 L 16.5625 -4.078125 C 16.125 -3.140625 15.492188 -2.332031 14.671875 -1.65625 C 13.847656 -0.976562 12.90625 -0.457031 11.84375 -0.09375 C 10.78125 0.257812 9.640625 0.4375 8.421875 0.4375 Z M 5.34375 -4.875 C 5.34375 -4.519531 5.46875 -4.160156 5.71875 -3.796875 C 5.976562 -3.441406 6.425781 -3.144531 7.0625 -2.90625 C 7.695312 -2.664062 8.5625 -2.546875 9.65625 -2.546875 C 10.925781 -2.546875 12 -2.738281 12.875 -3.125 C 13.757812 -3.507812 14.472656 -3.992188 15.015625 -4.578125 C 15.554688 -5.171875 15.9375 -5.757812 16.15625 -6.34375 C 15.625 -6.550781 15.015625 -6.722656 14.328125 -6.859375 C 13.648438 -6.992188 12.953125 -7.09375 12.234375 -7.15625 C 11.523438 -7.226562 10.875 -7.265625 10.28125 -7.265625 C 8.976562 -7.265625 7.96875 -7.15625 7.25 -6.9375 C 6.53125 -6.71875 6.03125 -6.425781 5.75 -6.0625 C 5.476562 -5.695312 5.34375 -5.300781 5.34375 -4.875 Z M 5.34375 -4.875 "/>
      </g>
    </g>
  </g>
  <g fill="#ffffff" fill-opacity="1">
    <g transform="translate(131.319687, 140.514873)">
      <g>
        <path d="M 2.234375 0 L 2.234375 -19.65625 L 6.609375 -19.65625 L 6.609375 0 Z M 2.234375 0 "/>
      </g>
    </g>
  </g>
  <g fill="#ffffff" fill-opacity="1">
    <g transform="translate(140.433896, 140.514873)">
      <g/>
    </g>
  </g>
  <g fill="#ffffff" fill-opacity="1">
    <g transform="translate(152.295173, 140.514873)">
      <g>
        <path d="M 2.625 0 L 2.625 -19.078125 L 15.796875 -19.078125 C 17.984375 -19.078125 19.738281 -18.832031 21.0625 -18.34375 C 22.394531 -17.863281 23.359375 -17.203125 23.953125 -16.359375 C 24.554688 -15.523438 24.859375 -14.554688 24.859375 -13.453125 C 24.859375 -12.066406 24.410156 -10.941406 23.515625 -10.078125 C 22.628906 -9.210938 21.425781 -8.632812 19.90625 -8.34375 L 19.90625 -8.328125 C 20.625 -8.171875 21.222656 -7.957031 21.703125 -7.6875 C 22.179688 -7.425781 22.578125 -7.035156 22.890625 -6.515625 C 23.210938 -6.003906 23.476562 -5.28125 23.6875 -4.34375 L 23.984375 -3.0625 C 24.179688 -2.289062 24.351562 -1.6875 24.5 -1.25 C 24.644531 -0.820312 24.816406 -0.40625 25.015625 0 L 19.9375 0 C 19.8125 -0.238281 19.6875 -0.546875 19.5625 -0.921875 C 19.4375 -1.296875 19.273438 -1.90625 19.078125 -2.75 L 18.75 -4.15625 C 18.644531 -4.65625 18.429688 -5.0625 18.109375 -5.375 C 17.785156 -5.695312 17.289062 -5.929688 16.625 -6.078125 C 15.96875 -6.222656 15.066406 -6.296875 13.921875 -6.296875 L 7.53125 -6.296875 L 7.53125 0 Z M 7.53125 -9.703125 L 15.40625 -9.703125 C 16.832031 -9.703125 17.941406 -9.953125 18.734375 -10.453125 C 19.535156 -10.960938 19.9375 -11.742188 19.9375 -12.796875 C 19.9375 -13.628906 19.601562 -14.289062 18.9375 -14.78125 C 18.28125 -15.269531 17.195312 -15.515625 15.6875 -15.515625 L 7.53125 -15.515625 Z M 7.53125 -9.703125 "/>
      </g>
    </g>
  </g>
  <g fill="#ffffff" fill-opacity="1">
    <g transform="translate(178.816078, 140.514873)">
      <g>
        <path d="M 2.234375 0 L 2.234375 -15.15625 L 6.609375 -15.15625 L 6.609375 0 Z M 1.828125 -18.984375 C 1.828125 -20.046875 2.695312 -20.578125 4.4375 -20.578125 C 6.132812 -20.578125 6.984375 -20.046875 6.984375 -18.984375 C 6.984375 -17.921875 6.132812 -17.390625 4.4375 -17.390625 C 2.695312 -17.390625 1.828125 -17.921875 1.828125 -18.984375 Z M 1.828125 -18.984375 "/>
      </g>
    </g>
  </g>
  <g fill="#ffffff" fill-opacity="1">
    <g transform="translate(187.930287, 140.514873)">
      <g>
        <path d="M 11 0.46875 C 8.789062 0.46875 6.988281 0.210938 5.59375 -0.296875 C 4.207031 -0.816406 3.195312 -1.5 2.5625 -2.34375 C 1.9375 -3.195312 1.625 -4.128906 1.625 -5.140625 L 5.75 -5.140625 C 5.800781 -4.503906 6.0625 -3.988281 6.53125 -3.59375 C 7.007812 -3.195312 7.632812 -2.910156 8.40625 -2.734375 C 9.1875 -2.554688 10.066406 -2.46875 11.046875 -2.46875 C 12.210938 -2.46875 13.113281 -2.539062 13.75 -2.6875 C 14.394531 -2.832031 14.84375 -3.03125 15.09375 -3.28125 C 15.351562 -3.539062 15.484375 -3.832031 15.484375 -4.15625 C 15.484375 -4.789062 15.082031 -5.242188 14.28125 -5.515625 C 13.476562 -5.796875 12.125 -6.03125 10.21875 -6.21875 C 8.300781 -6.425781 6.742188 -6.703125 5.546875 -7.046875 C 4.347656 -7.398438 3.46875 -7.882812 2.90625 -8.5 C 2.34375 -9.113281 2.0625 -9.910156 2.0625 -10.890625 C 2.0625 -11.503906 2.179688 -12.09375 2.421875 -12.65625 C 2.671875 -13.226562 3.101562 -13.734375 3.71875 -14.171875 C 4.34375 -14.617188 5.179688 -14.972656 6.234375 -15.234375 C 7.296875 -15.492188 8.632812 -15.625 10.25 -15.625 C 11.90625 -15.625 13.320312 -15.46875 14.5 -15.15625 C 15.6875 -14.84375 16.648438 -14.429688 17.390625 -13.921875 C 18.140625 -13.421875 18.691406 -12.863281 19.046875 -12.25 C 19.398438 -11.632812 19.582031 -11.023438 19.59375 -10.421875 L 15.234375 -10.421875 C 15.109375 -11.128906 14.613281 -11.679688 13.75 -12.078125 C 12.882812 -12.484375 11.640625 -12.6875 10.015625 -12.6875 C 8.679688 -12.6875 7.753906 -12.539062 7.234375 -12.25 C 6.710938 -11.957031 6.453125 -11.566406 6.453125 -11.078125 C 6.453125 -10.390625 6.8125 -9.910156 7.53125 -9.640625 C 8.257812 -9.378906 9.484375 -9.179688 11.203125 -9.046875 C 13.304688 -8.910156 14.988281 -8.648438 16.25 -8.265625 C 17.519531 -7.890625 18.441406 -7.382812 19.015625 -6.75 C 19.585938 -6.125 19.875 -5.347656 19.875 -4.421875 C 19.875 -2.878906 19.160156 -1.675781 17.734375 -0.8125 C 16.304688 0.0390625 14.0625 0.46875 11 0.46875 Z M 11 0.46875 "/>
      </g>
    </g>
  </g>
  <g clip-path="url(#000d1fff13)">
    <path stroke-linecap="butt" transform="matrix(0.746528, 0, 0, 0.746528, 21.513224, 12.379212)" fill="none" stroke-linejoin="miter" d="M 49.853802 114.315297 L 22.377637 61.524014 L 22.377637 119.997855 L 7.156124 119.997855 L 7.156124 40.504826 L 28.279963 40.504826 L 50.07357 83.207736 L 71.898571 40.504826 L 93.02241 40.504826 L 93.02241 119.997855 L 77.439851 119.997855 L 77.439851 61.633897 Z M 121.058459 121.023437 C 114.7009 121.023437 109.515435 119.343786 105.502062 115.979251 C 101.493923 112.599018 99.48462 108.224599 99.48462 102.866459 C 99.48462 97.246691 101.640434 92.846109 105.94683 89.664714 C 110.274156 86.488551 116.21311 84.897853 123.774157 84.897853 C 126.196831 84.897853 128.619506 85.091457 131.042181 85.478667 C 133.480553 85.850178 135.871832 86.415295 138.221251 87.168783 L 138.221251 82.982736 C 138.221251 79.565876 137.159042 76.986224 135.034623 75.249015 C 132.904972 73.511805 129.802064 72.643201 125.715436 72.643201 C 123.219506 72.643201 120.514273 73.040875 117.594505 73.836224 C 114.669505 74.631573 111.362528 75.855992 107.668342 77.519945 L 101.98055 66.044944 C 106.6009 63.936223 111.085202 62.35599 115.428226 61.304246 C 119.79218 60.231572 124.08811 59.692618 128.32125 59.692618 C 136.269507 59.692618 142.454391 61.607735 146.87067 65.432735 C 151.30788 69.257735 153.526485 74.657736 153.526485 81.627504 L 153.526485 119.997855 L 138.221251 119.997855 L 138.221251 115.921692 C 135.709623 117.664134 133.061948 118.946111 130.288692 119.778088 C 127.536366 120.610065 124.459622 121.023437 121.058459 121.023437 Z M 114.350319 102.505412 C 114.350319 104.776343 115.328807 106.581575 117.285784 107.910645 C 119.263691 109.224017 121.879971 109.878087 125.134622 109.878087 C 127.719506 109.878087 130.089855 109.564134 132.229971 108.936227 C 134.396251 108.287389 136.389856 107.355994 138.221251 106.136808 L 138.221251 97.293784 C 136.3166 96.535063 134.322995 95.990877 132.229971 95.655993 C 130.163111 95.305412 127.991599 95.127505 125.715436 95.127505 C 122.146831 95.127505 119.357877 95.79204 117.343342 97.126342 C 115.344505 98.439714 114.350319 100.229249 114.350319 102.505412 Z M 161.364857 119.997855 L 161.364857 60.828083 L 176.921254 60.828083 L 176.921254 67.290293 C 178.825905 64.721107 181.117766 62.779828 183.796836 61.466456 C 186.496836 60.137386 189.474162 59.472851 192.723581 59.472851 C 194.241023 59.546107 195.507302 59.676921 196.522418 59.86006 C 197.542767 60.0432 198.42707 60.367618 199.185791 60.828083 L 199.185791 74.474596 C 198.060791 73.935643 196.810209 73.537968 195.444511 73.281573 C 194.073581 73.004247 192.671255 72.862968 191.227069 72.862968 C 188.213115 72.862968 185.434627 73.621689 182.881138 75.139131 C 180.34858 76.65134 178.36544 78.854248 176.921254 81.737387 L 176.921254 119.997855 Z M 161.364857 119.997855 " stroke="#a00000" stroke-width="15.616975" stroke-opacity="1" stroke-miterlimit="4"/>
  </g>
  <g clip-path="url(#40c2c775d5)">
    <path stroke-linecap="butt" transform="matrix(0.746528, 0, 0, 0.746528, 21.513224, 12.379212)" fill="none" stroke-linejoin="miter" d="M 200.896837 90.470528 C 200.896837 86.164132 201.707884 82.135062 203.33521 78.383317 C 204.962535 74.631573 207.186373 71.376921 210.017187 68.619363 C 212.863699 65.85134 216.217769 63.669363 220.079397 62.078665 C 223.946258 60.487967 228.074746 59.692618 232.475328 59.692618 C 236.85498 59.692618 240.978236 60.487967 244.839864 62.078665 C 248.706725 63.669363 252.05033 65.85134 254.881144 68.619363 C 257.727656 71.376921 259.961958 74.631573 261.589284 78.383317 C 263.21661 82.135062 264.027656 86.164132 264.027656 90.470528 C 264.027656 94.797854 263.21661 98.837389 261.589284 102.589133 C 259.961958 106.319947 257.727656 109.553669 254.881144 112.290297 C 252.05033 115.011227 248.706725 117.161809 244.839864 118.752507 C 240.978236 120.343204 236.85498 121.138553 232.475328 121.138553 C 228.074746 121.138553 223.946258 120.343204 220.079397 118.752507 C 216.217769 117.161809 212.863699 115.011227 210.017187 112.290297 C 207.186373 109.553669 204.962535 106.319947 203.33521 102.589133 C 201.707884 98.837389 200.896837 94.797854 200.896837 90.470528 Z M 232.475328 107.63332 C 237.006724 107.63332 240.857887 105.969366 244.039283 102.641459 C 247.215446 99.297854 248.806143 95.237388 248.806143 90.470528 C 248.806143 85.625178 247.215446 81.543783 244.039283 78.215875 C 240.857887 74.867038 237.006724 73.197852 232.475328 73.197852 C 227.928235 73.197852 224.066607 74.867038 220.885211 78.215875 C 217.709048 81.543783 216.11835 85.625178 216.11835 90.470528 C 216.11835 95.237388 217.709048 99.297854 220.885211 102.641459 C 224.066607 105.969366 227.928235 107.63332 232.475328 107.63332 Z M 266.874168 90.470528 C 266.874168 86.164132 267.685215 82.135062 269.31254 78.383317 C 270.939866 74.631573 273.168936 71.376921 275.994518 68.619363 C 278.84103 65.85134 282.200332 63.669363 286.06196 62.078665 C 289.923589 60.487967 294.05731 59.692618 298.452659 59.692618 C 302.837543 59.692618 306.960799 60.487967 310.822427 62.078665 C 314.684056 63.669363 318.032893 65.85134 320.858475 68.619363 C 323.704987 71.376921 325.944522 74.631573 327.566615 78.383317 C 329.19394 82.135062 330.01022 86.164132 330.01022 90.470528 C 330.01022 94.797854 329.19394 98.837389 327.566615 102.589133 C 325.944522 106.319947 323.704987 109.553669 320.858475 112.290297 C 318.032893 115.011227 314.684056 117.161809 310.822427 118.752507 C 306.960799 120.343204 302.837543 121.138553 298.452659 121.138553 C 294.05731 121.138553 289.923589 120.343204 286.06196 118.752507 C 282.200332 117.161809 278.84103 115.011227 275.994518 112.290297 C 273.168936 109.553669 270.939866 106.319947 269.31254 102.589133 C 267.685215 98.837389 266.874168 94.797854 266.874168 90.470528 Z M 298.452659 107.63332 C 302.984055 107.63332 306.84045 105.969366 310.016613 102.641459 C 313.198009 99.297854 314.788707 95.237388 314.788707 90.470528 C 314.788707 85.625178 313.198009 81.543783 310.016613 78.215875 C 306.84045 74.867038 302.984055 73.197852 298.452659 73.197852 C 293.905566 73.197852 290.043937 74.867038 286.867774 78.215875 C 283.686379 81.543783 282.095681 85.625178 282.095681 90.470528 C 282.095681 95.237388 283.686379 99.297854 286.867774 102.641459 C 290.043937 105.969366 293.905566 107.63332 298.452659 107.63332 Z M 298.452659 107.63332 " stroke="#a00000" stroke-width="15.616975" stroke-opacity="1" stroke-miterlimit="4"/>
  </g>
  <g clip-path="url(#56e0a7b3da)">
    <path stroke-linecap="butt" transform="matrix(0.746528, 0, 0, 0.746528, 21.513224, 12.379212)" fill="none" stroke-linejoin="miter" d="M 335.582894 119.997855 L 335.582894 60.828083 L 351.134059 60.828083 L 351.134059 65.490293 C 353.410221 63.601339 355.92185 62.172851 358.679408 61.18913 C 361.452664 60.194944 364.461385 59.692618 367.716037 59.692618 C 374.539293 59.692618 380.138131 61.895525 384.517782 66.290875 C 388.918364 70.675759 391.116038 76.311224 391.116038 83.207736 L 391.116038 119.997855 L 375.564874 119.997855 L 375.564874 85.478667 C 375.564874 81.76355 374.445107 78.770527 372.210804 76.494364 C 369.971269 74.223433 367.004409 73.087968 363.310222 73.087968 C 360.720106 73.087968 358.381152 73.605991 356.293361 74.636805 C 354.221268 75.657154 352.504989 77.106573 351.134059 78.990294 L 351.134059 119.997855 Z M 335.582894 119.997855 " stroke="#a00000" stroke-width="15.616975" stroke-opacity="1" stroke-miterlimit="4"/>
  </g>
  <g fill="#ffffff" fill-opacity="1">
    <g transform="translate(21.513224, 101.962538)">
      <g>
        <path d="M 37.21875 -4.234375 L 16.703125 -43.65625 L 16.703125 0 L 5.34375 0 L 5.34375 -59.34375 L 21.109375 -59.34375 L 37.390625 -27.46875 L 53.671875 -59.34375 L 69.4375 -59.34375 L 69.4375 0 L 57.828125 0 L 57.828125 -43.578125 Z M 37.21875 -4.234375 "/>
      </g>
    </g>
  </g>
  <g fill="#ffffff" fill-opacity="1">
    <g transform="translate(93.319466, 101.962538)">
      <g>
        <path d="M 18.5625 0.765625 C 13.820312 0.765625 9.953125 -0.488281 6.953125 -3 C 3.953125 -5.519531 2.453125 -8.785156 2.453125 -12.796875 C 2.453125 -16.984375 4.0625 -20.265625 7.28125 -22.640625 C 10.507812 -25.015625 14.953125 -26.203125 20.609375 -26.203125 C 22.410156 -26.203125 24.210938 -26.054688 26.015625 -25.765625 C 27.828125 -25.484375 29.613281 -25.0625 31.375 -24.5 L 31.375 -27.640625 C 31.375 -30.179688 30.582031 -32.101562 29 -33.40625 C 27.414062 -34.707031 25.097656 -35.359375 22.046875 -35.359375 C 20.179688 -35.359375 18.160156 -35.0625 15.984375 -34.46875 C 13.804688 -33.875 11.332031 -32.953125 8.5625 -31.703125 L 4.328125 -40.265625 C 7.773438 -41.847656 11.125 -43.035156 14.375 -43.828125 C 17.625 -44.617188 20.832031 -45.015625 24 -45.015625 C 29.925781 -45.015625 34.539062 -43.585938 37.84375 -40.734375 C 41.15625 -37.878906 42.8125 -33.851562 42.8125 -28.65625 L 42.8125 0 L 31.375 0 L 31.375 -3.046875 C 29.507812 -1.753906 27.539062 -0.796875 25.46875 -0.171875 C 23.40625 0.453125 21.101562 0.765625 18.5625 0.765625 Z M 13.5625 -13.0625 C 13.5625 -11.363281 14.296875 -10.019531 15.765625 -9.03125 C 17.234375 -8.039062 19.1875 -7.546875 21.625 -7.546875 C 23.539062 -7.546875 25.300781 -7.785156 26.90625 -8.265625 C 28.519531 -8.742188 30.007812 -9.4375 31.375 -10.34375 L 31.375 -16.953125 C 29.957031 -17.515625 28.472656 -17.921875 26.921875 -18.171875 C 25.367188 -18.429688 23.742188 -18.5625 22.046875 -18.5625 C 19.390625 -18.5625 17.3125 -18.066406 15.8125 -17.078125 C 14.3125 -16.085938 13.5625 -14.75 13.5625 -13.0625 Z M 13.5625 -13.0625 "/>
      </g>
    </g>
  </g>
  <g fill="#ffffff" fill-opacity="1">
    <g transform="translate(137.403428, 101.962538)">
      <g>
        <path d="M 4.578125 0 L 4.578125 -44.171875 L 16.1875 -44.171875 L 16.1875 -39.34375 C 17.601562 -41.257812 19.3125 -42.710938 21.3125 -43.703125 C 23.320312 -44.691406 25.546875 -45.1875 27.984375 -45.1875 C 29.109375 -45.132812 30.050781 -45.035156 30.8125 -44.890625 C 31.582031 -44.742188 32.25 -44.503906 32.8125 -44.171875 L 32.8125 -34 C 31.957031 -34.394531 31.019531 -34.691406 30 -34.890625 C 28.988281 -35.085938 27.945312 -35.1875 26.875 -35.1875 C 24.613281 -35.1875 22.535156 -34.617188 20.640625 -33.484375 C 18.742188 -32.359375 17.257812 -30.722656 16.1875 -28.578125 L 16.1875 0 Z M 4.578125 0 "/>
      </g>
    </g>
  </g>
  <g fill="#ffb800" fill-opacity="1">
    <g transform="translate(168.940787, 101.962538)">
      <g>
        <path d="M 2.546875 -22.046875 C 2.546875 -25.265625 3.148438 -28.269531 4.359375 -31.0625 C 5.578125 -33.863281 7.242188 -36.296875 9.359375 -38.359375 C 11.484375 -40.421875 13.984375 -42.046875 16.859375 -43.234375 C 19.742188 -44.421875 22.828125 -45.015625 26.109375 -45.015625 C 29.390625 -45.015625 32.46875 -44.421875 35.34375 -43.234375 C 38.226562 -42.046875 40.726562 -40.421875 42.84375 -38.359375 C 44.96875 -36.296875 46.640625 -33.863281 47.859375 -31.0625 C 49.078125 -28.269531 49.6875 -25.265625 49.6875 -22.046875 C 49.6875 -18.816406 49.078125 -15.800781 47.859375 -13 C 46.640625 -10.207031 44.96875 -7.796875 42.84375 -5.765625 C 40.726562 -3.734375 38.226562 -2.125 35.34375 -0.9375 C 32.46875 0.25 29.390625 0.84375 26.109375 0.84375 C 22.828125 0.84375 19.742188 0.25 16.859375 -0.9375 C 13.984375 -2.125 11.484375 -3.734375 9.359375 -5.765625 C 7.242188 -7.796875 5.578125 -10.207031 4.359375 -13 C 3.148438 -15.800781 2.546875 -18.816406 2.546875 -22.046875 Z M 26.109375 -9.234375 C 29.503906 -9.234375 32.390625 -10.476562 34.765625 -12.96875 C 37.140625 -15.457031 38.328125 -18.484375 38.328125 -22.046875 C 38.328125 -25.660156 37.140625 -28.710938 34.765625 -31.203125 C 32.390625 -33.691406 29.503906 -34.9375 26.109375 -34.9375 C 22.722656 -34.9375 19.84375 -33.691406 17.46875 -31.203125 C 15.09375 -28.710938 13.90625 -25.660156 13.90625 -22.046875 C 13.90625 -18.484375 15.09375 -15.457031 17.46875 -12.96875 C 19.84375 -10.476562 22.722656 -9.234375 26.109375 -9.234375 Z M 26.109375 -9.234375 "/>
      </g>
    </g>
  </g>
  <g fill="#ffb800" fill-opacity="1">
    <g transform="translate(218.196187, 101.962538)">
      <g>
        <path d="M 2.546875 -22.046875 C 2.546875 -25.265625 3.148438 -28.269531 4.359375 -31.0625 C 5.578125 -33.863281 7.242188 -36.296875 9.359375 -38.359375 C 11.484375 -40.421875 13.984375 -42.046875 16.859375 -43.234375 C 19.742188 -44.421875 22.828125 -45.015625 26.109375 -45.015625 C 29.390625 -45.015625 32.46875 -44.421875 35.34375 -43.234375 C 38.226562 -42.046875 40.726562 -40.421875 42.84375 -38.359375 C 44.96875 -36.296875 46.640625 -33.863281 47.859375 -31.0625 C 49.078125 -28.269531 49.6875 -25.265625 49.6875 -22.046875 C 49.6875 -18.816406 49.078125 -15.800781 47.859375 -13 C 46.640625 -10.207031 44.96875 -7.796875 42.84375 -5.765625 C 40.726562 -3.734375 38.226562 -2.125 35.34375 -0.9375 C 32.46875 0.25 29.390625 0.84375 26.109375 0.84375 C 22.828125 0.84375 19.742188 0.25 16.859375 -0.9375 C 13.984375 -2.125 11.484375 -3.734375 9.359375 -5.765625 C 7.242188 -7.796875 5.578125 -10.207031 4.359375 -13 C 3.148438 -15.800781 2.546875 -18.816406 2.546875 -22.046875 Z M 26.109375 -9.234375 C 29.503906 -9.234375 32.390625 -10.476562 34.765625 -12.96875 C 37.140625 -15.457031 38.328125 -18.484375 38.328125 -22.046875 C 38.328125 -25.660156 37.140625 -28.710938 34.765625 -31.203125 C 32.390625 -33.691406 29.503906 -34.9375 26.109375 -34.9375 C 22.722656 -34.9375 19.84375 -33.691406 17.46875 -31.203125 C 15.09375 -28.710938 13.90625 -25.660156 13.90625 -22.046875 C 13.90625 -18.484375 15.09375 -15.457031 17.46875 -12.96875 C 19.84375 -10.476562 22.722656 -9.234375 26.109375 -9.234375 Z M 26.109375 -9.234375 "/>
      </g>
    </g>
  </g>
  <g fill="#ffffff" fill-opacity="1">
    <g transform="translate(267.459117, 101.962538)">
      <g>
        <path d="M 4.578125 0 L 4.578125 -44.171875 L 16.1875 -44.171875 L 16.1875 -40.6875 C 17.882812 -42.101562 19.765625 -43.175781 21.828125 -43.90625 C 23.890625 -44.644531 26.140625 -45.015625 28.578125 -45.015625 C 33.660156 -45.015625 37.835938 -43.375 41.109375 -40.09375 C 44.390625 -36.820312 46.03125 -32.613281 46.03125 -27.46875 L 46.03125 0 L 34.421875 0 L 34.421875 -25.78125 C 34.421875 -28.539062 33.585938 -30.769531 31.921875 -32.46875 C 30.253906 -34.164062 28.035156 -35.015625 25.265625 -35.015625 C 23.335938 -35.015625 21.597656 -34.628906 20.046875 -33.859375 C 18.492188 -33.097656 17.207031 -32.015625 16.1875 -30.609375 L 16.1875 0 Z M 4.578125 0 "/>
      </g>
    </g>
  </g>
  <g clip-path="url(#f26f69a3f3)">
    <path fill="#a00000" d="M 219.574219 121.851562 C 218.820312 121.851562 218.074219 121.921875 217.335938 122.070312 C 216.597656 122.21875 215.878906 122.433594 215.183594 122.722656 C 214.488281 123.011719 213.824219 123.367188 213.199219 123.785156 C 212.574219 124.203125 211.992188 124.679688 211.460938 125.210938 C 210.925781 125.746094 210.449219 126.324219 210.03125 126.949219 C 209.613281 127.578125 209.261719 128.238281 208.972656 128.933594 C 208.683594 129.632812 208.464844 130.347656 208.320312 131.089844 C 208.171875 131.828125 208.097656 132.574219 208.097656 133.328125 C 208.097656 134.082031 208.171875 134.828125 208.320312 135.566406 C 208.464844 136.304688 208.683594 137.023438 208.972656 137.71875 C 209.261719 138.417969 209.613281 139.078125 210.03125 139.703125 C 210.449219 140.332031 210.925781 140.910156 211.460938 141.445312 C 211.992188 141.976562 212.574219 142.453125 213.199219 142.871094 C 213.824219 143.289062 214.488281 143.644531 215.183594 143.933594 C 215.878906 144.21875 216.597656 144.4375 217.335938 144.585938 C 218.074219 144.730469 218.820312 144.804688 219.574219 144.804688 C 220.328125 144.804688 221.074219 144.730469 221.816406 144.585938 C 222.554688 144.4375 223.273438 144.21875 223.96875 143.933594 C 224.664062 143.644531 225.324219 143.289062 225.953125 142.871094 C 226.578125 142.453125 227.160156 141.976562 227.691406 141.445312 C 228.226562 140.910156 228.699219 140.332031 229.121094 139.703125 C 229.539062 139.078125 229.890625 138.417969 230.179688 137.71875 C 230.46875 137.023438 230.6875 136.304688 230.832031 135.566406 C 230.980469 134.828125 231.054688 134.082031 231.054688 133.328125 C 231.054688 132.574219 230.980469 131.828125 230.832031 131.089844 C 230.683594 130.351562 230.464844 129.632812 230.175781 128.9375 C 229.886719 128.242188 229.535156 127.578125 229.117188 126.953125 C 228.695312 126.328125 228.222656 125.746094 227.6875 125.214844 C 227.15625 124.683594 226.578125 124.207031 225.949219 123.789062 C 225.324219 123.367188 224.664062 123.015625 223.964844 122.726562 C 223.269531 122.4375 222.554688 122.21875 221.8125 122.070312 C 221.074219 121.925781 220.328125 121.851562 219.574219 121.851562 Z M 225.292969 133.808594 L 216.546875 138.410156 C 216.46875 138.445312 216.382812 138.464844 216.296875 138.464844 C 216.195312 138.46875 216.097656 138.441406 216.011719 138.390625 C 215.835938 138.28125 215.75 138.125 215.75 137.917969 L 215.75 128.738281 C 215.75 128.53125 215.835938 128.375 216.011719 128.265625 C 216.191406 128.167969 216.371094 128.167969 216.546875 128.265625 L 225.292969 132.867188 C 225.492188 132.964844 225.59375 133.125 225.59375 133.347656 C 225.59375 133.570312 225.492188 133.734375 225.292969 133.832031 Z M 225.292969 133.808594 " fill-opacity="1" fill-rule="nonzero"/>
  </g>
</svg>