<?xml version="1.0" encoding="utf-8"?>
<svg width="132" height="132" viewBox="0 0 132 132" fill="none" xmlns="http://www.w3.org/2000/svg" role="contentinfo" id="logo_design_maroon_digital_rise" class="logo professional branding creative Maroon Digital custom design solutions">
  <desc>A modern and creative logo design crafted by Maroon Digital Rise for impactful branding.     A showcase of Maroon Digital Rise's expertise in creating professional and custom logo designs that enhance brand identity and establish a strong visual presence.</desc>
  <title>Professional Logo Design Services by Maroon Digital Rise</title>
  <mask id="mask0_145_175" style="mask-type:luminance" maskUnits="userSpaceOnUse" x="0" y="0" width="132" height="132">
    <path d="M0 0H131.782V132H0V0Z" fill="white"/>
  </mask>
  <g mask="url(#mask0_145_175)">
    <path d="M57.3864 62.2584H61.9888V70.7229H57.3864V62.2584ZM90.3664 62.2584H85.764V70.7229H90.3664V62.2584ZM65.7648 104.753L33.0145 85.7925V47.8602L65.7648 28.8997L98.4923 47.8602V85.7925L65.7648 104.753ZM82.7569 71.7271C82.7569 72.8118 83.6579 73.7185 84.7654 73.7185H91.3477C92.4495 73.7185 93.3504 72.8118 93.3504 71.7271V61.2542C93.3504 60.1466 92.4495 59.2399 91.3477 59.2399H84.7654C83.6866 59.2399 82.7569 60.1466 82.7569 61.2542V71.7271ZM53.1972 51.9633H80.341C82.2978 51.9633 82.2978 48.9735 80.341 48.9735H53.1972C51.2404 49.0251 51.2691 51.9404 53.1972 51.9633ZM71.5781 70.7229V62.2871C71.601 62.2871 77.6668 62.3388 77.6668 62.3388C79.6236 62.3388 79.6236 59.3719 77.6955 59.3432L70.6255 59.2686C69.5466 59.2686 68.571 60.1696 68.594 61.2771V71.7271C68.594 72.8118 69.4949 73.7185 70.5968 73.7185H77.179C78.2865 73.7185 79.1875 72.8118 79.1875 71.7271V67.01C79.1875 65.8967 78.2865 64.9957 77.179 64.9957H73.8907C71.9339 64.9957 71.9339 67.9856 73.8907 67.9856H76.1805V70.7229H71.5781ZM62.9873 59.2686H56.4109C55.3033 59.2686 54.4024 60.1696 54.4024 61.2771V71.7558C54.4024 72.8404 55.3033 73.7414 56.4109 73.7414H62.9873C64.0949 73.7414 64.9959 72.8404 64.9959 71.7558V61.2771C64.9672 60.1696 64.0719 59.2686 62.9873 59.2686ZM49.2892 70.7229H43.1948V60.7664C43.1718 58.8038 40.2394 58.8038 40.2107 60.7664V71.7271C40.2107 72.8118 41.1117 73.7185 42.2192 73.7185H49.3122C51.2691 73.6898 51.2691 70.7745 49.2892 70.7229ZM53.1972 84.0078H80.341C82.2978 84.0078 82.2978 81.018 80.341 81.018H53.1972C51.2404 81.041 51.2691 83.9849 53.1972 84.0078ZM130.038 122.973H114.428V130.502C114.428 131.329 113.763 132 112.942 132C112.116 132 111.45 131.329 111.45 130.502V122.973H20.1083V130.502C20.1083 131.329 19.4426 132 18.6162 132C17.7956 132 17.1299 131.329 17.1299 130.502V122.973H1.4979C0.677279 122.973 0.00585938 122.302 0.00585938 121.475C0.00585938 120.649 0.677279 119.978 1.4979 119.978H17.1012V13.7039H1.4979C0.677279 13.7039 0.00585938 13.0324 0.00585938 12.2061C0.00585938 11.3797 0.677279 10.7083 1.4979 10.7083H17.1012V1.49778C17.1012 0.67142 17.7727 0 18.5933 0C19.4139 0 20.0853 0.67142 20.0853 1.49778V10.6853H111.398V1.49778C111.398 0.67142 112.064 0 112.89 0C113.711 0 114.377 0.67142 114.377 1.49778V10.6853H130.038C130.858 10.6853 131.524 11.3568 131.524 12.1774C131.524 13.0037 130.858 13.6752 130.038 13.6752H114.428V119.949H130.038C131.989 120.001 131.989 122.944 130.038 122.973ZM111.421 93.2987L65.7648 119.748L20.1083 93.2987V119.978H111.45V93.2987H111.421ZM30.7764 87.956L65.0188 107.8C65.4837 108.058 66.0518 108.058 66.5109 107.8L100.73 87.956C101.189 87.6978 101.476 87.1813 101.476 86.6705V47.0109C101.476 46.4714 101.189 45.9779 100.73 45.7197L66.5109 25.9042C66.0518 25.6459 65.4837 25.6459 65.0188 25.9042L30.7764 45.7197C30.3173 45.9779 30.0304 46.4944 30.0304 47.0109V86.6705C30.0304 87.21 30.3173 87.6978 30.7764 87.956ZM111.421 13.7039H20.0853V40.3541L65.7648 13.9104L111.421 40.3541V13.7039Z" fill="black"/>
  </g>
</svg>