<?xml version="1.0" encoding="utf-8"?>
<svg width="134" height="132" viewBox="0 0 134 132" fill="none" xmlns="http://www.w3.org/2000/svg" id="rebranding_maroon_digital_rise" class="brand creative Maroon Digital rebranding strategy identity Rise transformation branding" role="contentinfo">
  <desc> A revitalized brand identity created by Maroon Digital Rise showcasing innovative rebranding solutions.  A dynamic visual showcasing Maroon Digital Rise's expertise in rebranding, helping businesses refresh their brand identity with innovative designs and strategic messaging to stay competitive and relevant.</desc>
  <title>Transformative Rebranding Services by Maroon Digital Rise</title>
  <mask id="mask0_145_209" style="mask-type:luminance" maskUnits="userSpaceOnUse" x="0" y="0" width="134" height="132">
    <path d="M0 0H133.102V132H0V0Z" fill="white"/>
  </mask>
  <g mask="url(#mask0_145_209)">
    <path fill-rule="evenodd" clip-rule="evenodd" d="M55.7845 94.7333L51.1592 104.592L47.2684 97.8896L39.6418 99.2267L44.9385 87.8011C45.5009 88.3061 45.8165 89.1037 46.9011 90.7679C48.881 93.7922 52.3012 95.2957 55.7845 94.7333ZM66.5387 94.8481C69.5228 94.8711 72.3348 93.3905 74.0506 90.7679L74.0563 90.7622C75.1639 89.0636 75.4623 88.2659 76.0534 87.7666C76.3174 87.5428 76.6273 87.3936 77.0519 87.2215L81.31 97.178L73.7292 95.6228L69.6433 102.211L66.5387 94.8481ZM63.2677 47.688C67.652 50.9705 66.6592 50.609 72.1167 50.9131C74.2228 51.0336 75.9271 52.4626 76.3977 54.5113C77.6487 59.8482 77.1208 58.93 81.1091 62.6831C82.6356 64.1177 83.0258 66.3156 82.0789 68.1979C79.6113 73.0872 79.795 72.0428 80.4492 77.483C80.6902 79.5776 79.5826 81.5058 77.6487 82.3264C72.6217 84.4899 73.4251 83.807 70.4353 88.3979C69.2875 90.1539 67.1929 90.9229 65.1844 90.3088C59.945 88.725 61.001 88.725 55.7731 90.3088C53.7531 90.9229 51.6642 90.1539 50.5165 88.3979C47.5209 83.807 48.3358 84.4899 43.303 82.3264C41.3691 81.5058 40.2558 79.5776 40.5083 77.483C41.1568 72.0428 41.3404 73.0872 38.8728 68.1979C37.9259 66.3156 38.3104 64.1177 39.8484 62.6831C43.831 58.93 43.303 59.8482 44.5483 54.5113C45.0303 52.4626 46.7347 51.0336 48.8351 50.9131C54.2982 50.609 53.2997 50.9705 57.684 47.688C59.3654 46.4255 61.5863 46.4255 63.2677 47.688ZM60.473 81.7009C67.6692 81.7009 73.5227 75.8245 73.5227 68.6283C73.5227 61.4263 67.6692 55.5557 60.473 55.5557C53.2882 55.5557 47.4234 61.4263 47.4234 68.6283C47.4234 75.8245 53.2882 81.7009 60.473 81.7009ZM22.6956 65.6959H31.338C31.1658 66.9813 30.0583 67.9913 28.7269 67.9913H25.3067C23.9753 67.9913 22.862 66.9813 22.6956 65.6959ZM19.9984 59.0677H34.0409C33.8744 60.3589 32.7611 61.3632 31.4298 61.3632H22.6095C21.2724 61.3632 20.1649 60.3589 19.9984 59.0677ZM17.3644 52.4396H36.6692C36.5027 53.7308 35.3894 54.7351 34.0638 54.7351H19.9755C18.6384 54.7351 17.5308 53.7308 17.3644 52.4396ZM22.0643 48.1069H17.3414C16.5667 34.8278 10.8166 36.7158 10.8166 27.7061C10.8166 18.7424 18.0702 11.4773 27.0168 11.4773C35.969 11.4773 43.2227 18.7424 43.2227 27.7061C43.2227 36.7158 37.4726 34.8278 36.6921 48.1069H31.975V33.7604H33.5818C36.8413 33.7604 39.504 31.0862 39.504 27.8266C39.504 24.5556 36.8413 21.8871 33.5818 21.8871C30.3222 21.8871 27.6538 24.5556 27.6538 27.8266V29.4277H26.3798V27.8266C26.3798 24.5556 23.7171 21.8871 20.4518 21.8871C17.198 21.8871 14.5295 24.5556 14.5295 27.8266C14.5295 31.0862 17.198 33.7604 20.4518 33.7604H22.0643V48.1069ZM27.6538 48.1069H26.3798V33.7604H27.6538V48.1069ZM22.0643 29.4277H20.4518C19.5738 29.4277 18.8507 28.7104 18.8507 27.8266C18.8507 26.9371 19.5738 26.2141 20.4518 26.2141C21.3413 26.2141 22.0643 26.9371 22.0643 27.8266V29.4277ZM31.975 29.4277V27.8266C31.975 26.9371 32.698 26.2141 33.5818 26.2141C34.4655 26.2141 35.1886 26.9371 35.1886 27.8266C35.1886 28.7104 34.4655 29.4277 33.5818 29.4277H31.975ZM29.1802 5.98539C29.1802 7.17903 28.2104 8.14886 27.0168 8.14886C25.8289 8.14886 24.859 7.17903 24.859 5.98539V2.16346C24.859 0.969828 25.8289 0 27.0168 0C28.2104 0 29.1802 0.969828 29.1802 2.16346V5.98539ZM16.67 8.18903C17.2611 9.22198 16.9053 10.5476 15.8724 11.1444C14.8394 11.7412 13.5195 11.3797 12.9227 10.3468L11.0175 7.03556C10.4207 6.00261 10.7764 4.67698 11.8094 4.08017C12.8424 3.48335 14.168 3.83914 14.7591 4.8721L16.67 8.18903ZM6.93156 16.3551C7.96452 16.9577 8.32031 18.2775 7.7235 19.3162C7.12668 20.3492 5.80679 20.6992 4.77384 20.1024L1.46265 18.1915C0.435434 17.5946 0.0796385 16.269 0.676456 15.2361C1.27327 14.1974 2.59316 13.8473 3.62611 14.4441L6.93156 16.3551ZM41.1051 10.3525C40.5083 11.3854 39.1884 11.7412 38.1555 11.1387C37.1225 10.5419 36.7667 9.21624 37.3635 8.18329L39.2745 4.8721C39.8713 3.83914 41.1969 3.48335 42.2299 4.08017C43.2628 4.67698 43.6129 6.00261 43.0161 7.03556L41.1051 10.3525ZM49.2655 20.1024C48.2325 20.6992 46.9126 20.3492 46.3158 19.3162C45.719 18.2833 46.069 16.9577 47.102 16.3551L50.4017 14.4441C51.4347 13.8473 52.7603 14.1974 53.3571 15.2303C53.9539 16.2633 53.5981 17.5889 52.5652 18.1915L49.2655 20.1024ZM87.479 59.1882L90.2335 48.8989L97.7512 56.428L87.479 59.1882ZM118.404 20.6763L122.071 17.0036C123.787 15.2705 126.611 15.2705 128.327 17.0036L129.589 18.2546C131.311 19.9877 131.311 22.8168 129.589 24.5384L125.928 28.2054L118.404 20.6763ZM122.869 31.2641L100.804 53.3693L93.2865 45.8344L115.352 23.735L122.869 31.2641ZM27.8087 94.0504L31.8717 104.759C31.9922 105.086 32.2734 105.287 32.6177 105.304L44.049 105.866C44.8295 105.901 45.1451 106.888 44.5368 107.37L35.619 114.555C35.3493 114.767 35.2402 115.1 35.3321 115.433L38.3334 126.497C38.54 127.243 37.7078 127.851 37.0594 127.426L27.4816 121.148C27.1889 120.959 26.8389 120.959 26.5519 121.148L16.9799 127.426C16.3314 127.851 15.4993 127.243 15.7002 126.497L18.7015 115.433C18.7876 115.1 18.6843 114.767 18.4146 114.555L9.49099 107.37C8.88844 106.888 9.20406 105.901 9.98452 105.866L21.4159 105.304C21.7602 105.287 22.0356 105.086 22.1619 104.759L26.2248 94.0504C26.5003 93.3216 27.5333 93.3216 27.8087 94.0504ZM125.136 123.65C125.136 124.609 124.648 125.429 123.81 125.888C122.972 126.347 122.026 126.319 121.216 125.808C120.247 125.194 119.265 124.574 118.272 123.966V91.996C119.317 91.3877 120.344 90.8024 121.331 90.24C122.146 89.7809 123.064 89.7866 123.873 90.2629C124.677 90.7335 125.136 91.5369 125.136 92.4666V123.65ZM129.457 112.833V103.278C131.523 103.881 133.038 105.792 133.038 108.058C133.038 110.325 131.523 112.236 129.457 112.833ZM113.951 123.002C109.527 120.402 104.821 118.095 99.599 116.953V99.4218C104.66 98.0847 109.515 95.4736 113.951 92.9257V123.002ZM95.2778 116.643H86.4518C81.8264 116.643 78.0447 112.85 78.0447 108.225C78.0447 103.6 81.8264 99.8063 86.4518 99.8063H95.2778V116.643ZM91.7485 120.97H97.9807V132H96.3624C93.8202 132 91.7485 129.917 91.7485 127.375V120.97ZM16.7791 94.1193C17.2611 95.2096 16.7676 96.4893 15.6772 96.9714C14.5869 97.4534 13.3072 96.9599 12.8251 95.8696C9.98452 89.4308 8.40639 82.3092 8.40639 74.8203C8.40639 70.5163 8.92861 66.3328 9.90991 62.333C10.1968 61.1738 11.3675 60.4622 12.5267 60.7492C13.6859 61.0361 14.3918 62.2068 14.1049 63.366C13.2039 67.0387 12.7276 70.8721 12.7276 74.8203C12.7276 81.6894 14.1737 88.2142 16.7791 94.1193ZM76.5986 119.851C77.7233 119.444 78.9629 120.029 79.3646 121.154C79.7663 122.279 79.1809 123.518 78.0619 123.92C72.5643 125.9 66.642 126.979 60.473 126.979C55.7616 126.979 51.1994 126.347 46.8552 125.171C45.7075 124.861 45.0246 123.673 45.3345 122.52C45.6501 121.366 46.838 120.683 47.9857 120.993C51.9683 122.072 56.1518 122.652 60.473 122.652C66.1313 122.652 71.56 121.665 76.5986 119.851ZM105.837 59.8654C105.464 58.7292 106.078 57.5068 107.214 57.1338C108.345 56.7608 109.567 57.3748 109.94 58.5111C111.627 63.6414 112.54 69.1276 112.54 74.8203C112.54 77.2535 112.373 79.6522 112.052 81.9936C111.891 83.1815 110.795 84.0078 109.619 83.8471C108.436 83.6807 107.61 82.5904 107.771 81.4025C108.069 79.2505 108.218 77.0583 108.218 74.8203C108.218 69.5981 107.381 64.5711 105.837 59.8654ZM55.6066 27.2413C54.4187 27.3618 53.3571 26.4953 53.2366 25.3074C53.1161 24.1195 53.9826 23.0578 55.1705 22.9373C56.9151 22.7594 58.6825 22.6676 60.473 22.6676C72.2257 22.6676 83.0717 26.5756 91.7887 33.1636C92.7356 33.8809 92.9307 35.2409 92.2076 36.1935C91.4903 37.1462 90.136 37.3355 89.1834 36.6182C81.1895 30.5754 71.2444 26.9945 60.473 26.9945C58.8318 26.9945 57.2077 27.0806 55.6066 27.2413Z" fill="black"/>
  </g>
</svg>