<?xml version="1.0" encoding="utf-8"?>
<svg width="135" height="132" viewBox="0 0 135 132" fill="none" xmlns="http://www.w3.org/2000/svg" id="brand-storytelling-maroon-digital-rise" class="brand digital Maroon Digital creative impactful audience connection marketing storytelling" role="contentinfo">
  <desc> A creative digital marketing team crafting a brand storytelling strategy with vibrant visuals and content.   Maroon Digital Rise empowers brands through innovative storytelling strategies, blending creativity and technology to craft impactful connections with audiences.</desc>
  <title>brand-storytelling-maroon-digital-rise</title>
  <mask id="mask0_145_232" style="mask-type:luminance" maskUnits="userSpaceOnUse" x="0" y="0" width="135" height="132">
    <path d="M0 0H135V132H0V0Z" fill="white"/>
  </mask>
  <g mask="url(#mask0_145_232)">
    <path d="M52.3876 7.40835L50.697 14.3923L6.02784 27.6772C1.91766 28.8938 -0.532936 33.5937 0.568283 38.1502L21.4966 124.643C22.5978 129.188 26.8527 131.908 30.9629 130.686L78.2222 116.62L88.2728 119.604C92.3829 120.827 96.6224 118.107 97.7288 113.562L104.362 86.458C115.157 78.3321 127.027 54.5512 134.72 34.4717C135.098 32.9108 134.157 32.0328 132.89 32.446C125.849 35.9236 121.511 38.0985 115.1 41.8746L118.667 27.0689C119.758 22.5239 117.313 17.8182 113.203 16.5959L61.8436 1.36557C57.2112 -0.0518746 53.4164 3.1675 52.3876 7.40835ZM61.1197 4.3554L112.484 19.5972C115.136 20.3777 116.672 23.3216 115.958 26.2712L111.703 43.906C93.4945 55.0849 77.9896 67.6869 78.1137 92.9197L73.4399 98.1017L41.365 88.587C39.5762 88.0591 38.78 90.9513 40.6412 91.5826L73.471 101.321C74.1741 101.528 74.7169 101.258 75.0737 100.678L80.0989 95.1176C82.5599 95.1922 91.473 95.0258 100.836 89.0117L95.0248 112.752C94.3062 115.696 91.6591 117.395 89.0017 116.615C71.8786 111.519 54.7813 106.463 37.6374 101.373C34.9852 100.592 33.4497 97.6426 34.1632 94.6987C41.1427 65.885 48.1274 36.991 55.0967 8.20602C55.7946 5.30227 58.4055 3.55199 61.1197 4.3554ZM65.0645 16.3032L54.285 29.7546C52.9873 31.3097 55.1535 33.433 56.3892 31.8147L65.3023 20.6875L66.2122 25.6055L64.2528 25.0259C62.2933 24.4406 61.7763 27.505 63.5238 28.0158L66.8378 28.9971L67.9959 35.2637C68.1355 36.1245 68.8851 36.6868 69.6555 36.5089C70.4258 36.3368 70.9221 35.4932 70.7412 34.6382C69.671 28.7274 68.5749 22.9313 67.4841 17.0263C67.1532 15.6662 65.809 15.4023 65.0645 16.3032ZM49.8646 17.8527L31.4541 93.901C30.3529 98.4517 32.8086 103.152 36.9188 104.374L72.8247 115.025L30.234 127.684C27.5714 128.476 24.9192 126.778 24.2057 123.834L3.27738 37.3411C2.56392 34.3971 4.09942 31.459 6.75165 30.667L49.8646 17.8527ZM79.2976 23.6429L108.756 32.3829C109.516 32.6354 110.307 32.1476 110.514 31.2983C110.716 30.4547 110.251 29.5939 109.48 29.3873L80.0266 20.6474C78.2067 20.1079 77.4674 23.1092 79.2976 23.6429ZM77.5036 31.0515L106.962 39.7914C107.722 40.0439 108.513 39.5562 108.72 38.7068C108.927 37.8633 108.457 37.0025 107.686 36.7959L78.2326 28.0559C76.4541 27.5337 75.632 30.4145 77.5036 31.0515ZM41.6494 30.9999L9.75027 40.4629C7.9149 40.9851 8.65939 44.0266 10.4741 43.4642L42.3784 33.9954C44.1982 33.456 43.4848 30.4604 41.6494 30.9999ZM75.7199 38.4658L102.868 46.5171C103.617 46.7352 104.383 46.2474 104.589 45.421C104.791 44.5947 104.341 43.7454 103.597 43.5158L76.4386 35.4645C74.6911 34.948 73.7967 37.8059 75.7199 38.4658ZM53.1837 39.7226L94.6164 52.009C95.3712 52.2328 96.1312 51.745 96.3329 50.9129C96.5345 50.0923 96.0899 49.2372 95.3454 49.0134L53.9179 36.727C52.1084 36.1876 51.3122 39.1602 53.1941 39.7226H53.1837ZM130.688 36.9049C129.68 39.4184 128.242 42.9305 126.159 47.5099L120.353 51.2285C118.735 52.2672 120.136 54.9472 121.754 53.9085L123.786 52.6115C121.909 56.5196 119.81 60.6399 117.556 64.611L111.217 66.4933C110.452 66.6884 109.982 67.5492 110.189 68.3985C110.385 69.2421 111.186 69.7356 111.946 69.4889L115.276 68.5018C112.184 73.437 109.832 76.9147 106.797 80.1226H100.252C98.4009 80.157 98.4009 83.2042 100.252 83.2271H103.602C97.8063 88.3345 90.6303 91.5711 82.9373 91.9728L113.011 58.6773C113.926 57.6902 113.27 55.9629 111.988 56.0146C111.626 56.0203 111.279 56.1925 111.031 56.4794L80.9572 89.7749C81.1433 85.184 82.3944 75.9965 88.8518 66.895V70.6022C88.8518 71.463 89.4774 72.1631 90.2581 72.1631C91.0284 72.1631 91.6591 71.463 91.6591 70.6022V63.3543C94.9266 59.8537 98.6594 56.6229 102.159 53.9716L101.265 57.6673C101.032 58.5051 101.472 59.3889 102.237 59.6184C103.013 59.8422 103.788 59.32 103.969 58.465L105.67 51.4409C109.253 48.956 112.975 46.6262 116.501 44.5545L115.328 46.7983C114.392 48.5945 116.827 50.1554 117.757 48.3477L121.108 41.9205C125.249 39.6193 128.418 38.0239 130.688 36.9049ZM40.3982 39.3209L11.5391 47.8772C9.73993 48.4051 10.4689 51.4007 12.2681 50.8727L41.122 42.305C42.885 41.7885 42.2646 38.7642 40.3982 39.3209ZM51.4001 47.1312L88.4796 58.1321C89.2292 58.3617 90.0099 57.8739 90.2064 57.0303C90.408 56.2039 89.9582 55.3489 89.1982 55.1365L52.1187 44.1356C50.3919 43.6191 49.4768 46.477 51.4001 47.1312ZM39.2091 47.6075L13.3331 55.2858C12.5679 55.4809 12.0975 56.3474 12.3043 57.191C12.5059 58.0403 13.3073 58.5281 14.0621 58.2756L39.9329 50.603C41.8045 50.0521 41.0186 47.068 39.2091 47.6075ZM49.6061 54.534L83.1648 64.4905C83.9196 64.7258 84.6951 64.238 84.8967 63.4002C85.0984 62.5681 84.6486 61.713 83.8886 61.5007L50.3247 51.5442C48.5979 51.0334 47.7345 53.9027 49.6061 54.534ZM36.7534 56.2728L15.1271 62.6886C14.3619 62.8952 13.8915 63.756 14.0983 64.5996C14.2999 65.4489 15.1013 65.9367 15.8561 65.6842L37.4823 59.2684C39.204 58.7576 38.7335 55.6875 36.7534 56.2728ZM54.8071 64.0257L79.0753 71.2219C79.8198 71.4343 80.5798 70.9465 80.7814 70.1201C80.9779 69.2995 80.5436 68.4502 79.7991 68.2206L55.5361 61.0244C53.7318 60.4907 52.9873 63.4002 54.8071 64.0257ZM34.4268 64.9037L16.9211 70.0972C15.0547 70.5964 15.8095 73.6953 17.6501 73.0927L35.1558 67.8993C36.8671 67.3943 36.4173 64.3184 34.4268 64.9037ZM46.0181 69.3569L76.8211 78.487C77.576 78.7338 78.3618 78.2518 78.5686 77.4024C78.7754 76.5646 78.3153 75.6981 77.5398 75.4972L46.747 66.3556C44.9169 65.8219 44.1569 68.8002 46.0181 69.3569ZM32.7259 73.3452L18.7151 77.5057C16.8797 78.0222 17.6139 81.0752 19.4389 80.507L33.4549 76.3465C35.1662 75.8415 34.7371 72.7542 32.7259 73.3452ZM44.2241 76.7654L75.2236 85.9645C75.9681 86.1825 76.7384 85.6948 76.9401 84.8627C77.1417 84.0306 76.6971 83.187 75.9474 82.9632L44.953 73.7699C43.2004 73.2477 42.337 76.117 44.2241 76.7654ZM42.4301 84.174L73.9001 93.505C74.6549 93.7288 75.4201 93.2353 75.6165 92.409C75.8182 91.5826 75.3735 90.7275 74.6291 90.5095L43.159 81.1785C41.3909 80.6448 40.512 83.5198 42.4301 84.174ZM30.3477 81.9991L20.5091 84.9201C18.7048 85.448 19.4234 88.4436 21.2329 87.9099L31.0767 84.9889C32.85 84.4667 32.3847 81.3908 30.3477 81.9991ZM28.595 90.4521L22.2979 92.3171C20.535 92.8795 21.2381 95.8177 23.0269 95.3184L29.324 93.4534C31.0405 92.9369 30.5855 89.8667 28.595 90.4521ZM27.7678 98.6469L24.0919 99.7315C23.3268 99.938 22.8563 100.799 23.0631 101.642C23.2699 102.492 24.0661 102.98 24.8209 102.727L28.4865 101.637C30.3994 101.074 29.5463 98.1189 27.7678 98.6469ZM32.4054 105.212L25.886 107.14C25.1208 107.335 24.6503 108.207 24.8571 109.057C25.0587 109.9 25.8601 110.388 26.6149 110.136L33.1343 108.202C34.8715 107.685 34.3596 104.627 32.4054 105.212ZM44.7152 109.499L27.68 114.549C26.9096 114.749 26.4443 115.616 26.6459 116.465C26.8527 117.309 27.6541 117.802 28.4089 117.55L45.439 112.494C47.1762 111.978 46.6953 108.913 44.7152 109.499Z" fill="black"/>
  </g>
</svg>