<?xml version="1.0" encoding="utf-8"?>
<svg width="132" height="134" viewBox="0 0 132 134" fill="none" xmlns="http://www.w3.org/2000/svg" id="packaging_design_maroon_digital_rise" class="packaging creative product Maroon Digital custom branding solutions design Rise" role="contentinfo">
  <desc>A creative and functional packaging design by Maroon Digital Rise, tailored to elevate product branding.   A showcase of Maroon Digital Rise's innovative packaging design services, combining creativity and functionality to enhance product visibility and reflect brand identity.</desc>
  <title>Innovative Packaging Design by Maroon Digital Rise</title>
  <mask id="mask0_146_337" style="mask-type:luminance" maskUnits="userSpaceOnUse" x="95" y="39" width="37" height="88">
    <path d="M95.502 39.873H131.351V126.101H95.502V39.873Z" fill="white"/>
  </mask>
  <g mask="url(#mask0_146_337)">
    <path d="M97.6572 124.138C101.409 124.138 105.16 124.138 108.912 124.138C110.573 124.138 110.933 123.813 111.339 122.14C111.461 121.612 111.624 121.095 111.763 120.572C112.199 118.859 113.79 117.756 115.463 118.168C116.932 118.528 118.314 118.011 119.737 117.947C121.839 117.86 123.918 117.425 126.009 117.146C127.345 116.966 129.081 116.553 129.273 115.409C129.488 114.149 130.028 112.802 129.714 111.437C127.949 103.83 126.177 96.2218 124.447 88.6084C121.717 76.6219 119.011 64.6355 116.316 52.6491C115.672 49.7977 115.016 46.9462 114.324 44.089C114.04 42.9508 113.279 42.0913 112.327 41.377" stroke="black" stroke-width="2.55728" stroke-linecap="round" stroke-linejoin="round"/>
  </g>
  <path d="M91.5294 105.305C91.9302 101.007 88.6432 95.1072 82.2608 93.8063C75.6288 92.4532 69.2987 96.1177 67.9805 103.464C66.8422 109.916 70.5938 115.509 77.1445 117.129C83.6953 118.755 90.2925 113.993 91.4133 107.872C91.5643 107.053 91.4481 106.252 91.5294 105.444" stroke="black" stroke-width="2.55728" stroke-linecap="round" stroke-linejoin="round"/>
  <path d="M45.6631 28.9668C46.7375 29.2107 47.8351 29.3036 48.9385 29.2514C53.2127 29.2514 57.4869 29.4024 61.7612 29.1991C65.3327 29.0307 68.881 29.3501 72.4468 29.263C75.908 29.1817 79.375 29.2456 82.8478 29.2456C85.5018 29.2456 88.179 29.4372 90.8214 29.1991C93.8819 28.9145 96.9017 29.4082 99.939 29.2746C102.878 29.1468 105.828 29.2456 108.772 29.2456C110.625 29.2456 111.014 29.6637 111.205 31.5279C111.49 34.4315 111.873 37.3294 112.181 40.2331C112.251 40.8777 112.262 41.534 111.769 42.0915C111.06 42.8987 110.915 43.886 110.915 44.9487C110.927 62.8296 110.927 80.7105 110.915 98.5973C110.915 99.6891 111.664 100.653 111.554 101.582C111.443 102.511 110.915 103.412 110.921 104.434C110.956 108.191 110.967 111.948 110.921 115.706C110.903 117.059 111.188 118.249 112.076 119.272" stroke="black" stroke-width="2.55728" stroke-linecap="round" stroke-linejoin="round"/>
  <path d="M38.6826 124.139C41.8593 124.139 45.0417 124.139 48.2242 124.139C48.7004 124.139 49.194 124.232 49.647 123.994C51.1743 123.186 52.3532 123.796 53.5089 124.853C55.1292 126.322 56.8307 127.704 58.4742 129.151C59.1537 129.743 59.8331 130.347 60.7565 130.405C61.2211 130.434 61.2908 130.753 61.4592 131.003C61.6915 131.357 62.0051 131.624 62.3884 131.799C62.7775 131.979 63.1782 132.037 63.6021 131.979C65.838 131.793 68.0738 131.59 70.2923 131.259C71.5292 131.073 72.772 131.067 73.9974 130.91C78.1555 130.382 82.3542 130.155 86.5355 129.691C89.3347 129.383 92.1281 129.023 94.9446 128.837C96.3675 128.75 96.9366 128.105 96.9366 126.711C96.9133 125.98 97.0063 125.271 97.2211 124.568C97.285 124.383 97.4418 124.284 97.3895 123.999C96.4952 119.121 97.0121 114.214 97.0759 109.307C97.1108 106.455 97.1515 103.604 97.1921 100.747C97.2792 93.046 97.1921 85.3396 97.2502 77.6333C97.2676 75.5019 96.4836 73.6378 95.4673 71.9536C93.7948 69.1661 92.1164 66.3669 90.1187 63.7827C89.8632 63.5504 89.7586 63.2658 89.8051 62.9232C90.4729 59.6652 89.9387 56.3608 90.0897 53.0855C90.0955 52.8357 90.049 52.5976 89.9561 52.3712C89.869 52.1389 89.7354 51.9414 89.5612 51.7614C89.387 51.5872 89.1837 51.4536 88.9572 51.3607C88.7307 51.2736 88.4926 51.2271 88.2429 51.2329C85.014 51.2968 81.7851 51.14 78.5562 51.4768C76.4423 51.6917 74.2819 51.4768 72.1506 51.5233C67.6847 51.6104 63.2305 51.9066 58.7588 51.8078C58.4161 51.7962 58.0851 51.8543 57.7657 51.9821C57.4463 52.104 57.1675 52.2898 56.9236 52.528C56.6855 52.7719 56.4997 53.0506 56.3719 53.37C56.2442 53.6894 56.1861 54.0204 56.1919 54.3631C56.1629 57.2145 56.1919 60.0717 56.1803 62.9232C56.1803 63.7768 56.6275 64.4563 56.9004 65.2055" stroke="black" stroke-width="2.55728" stroke-linecap="round" stroke-linejoin="round"/>
  <path d="M62.615 76.9072C62.5221 78.481 62.3537 80.049 62.3305 81.617C62.255 91.3676 62.2259 101.118 62.1737 110.869C62.1446 114.771 62.1504 118.668 61.9995 122.565C61.9298 124.423 61.9065 126.276 61.9007 128.134C61.8601 128.959 61.622 129.72 61.1748 130.416" stroke="black" stroke-width="2.55728" stroke-linecap="round" stroke-linejoin="round"/>
  <path d="M68.8805 64.6354C68.0732 64.287 67.266 64.6529 66.4588 64.6354C64.6527 64.6122 62.8466 64.7051 61.0463 64.6064C59.0369 64.4961 57.1844 64.8329 55.7906 66.3544C53.9903 68.2941 52.7127 70.5241 51.9461 73.0561C50.6452 77.4001 51.0924 81.8834 51.0924 86.3202C51.0924 96.9245 50.622 107.529 50.7614 118.139C50.7846 119.904 50.4768 121.67 50.9298 123.418" stroke="black" stroke-width="2.55728" stroke-linecap="round" stroke-linejoin="round"/>
  <mask id="mask1_146_337" style="mask-type:luminance" maskUnits="userSpaceOnUse" x="0" y="19" width="42" height="59">
    <path d="M0 19.0596H41.9816V77.0405H0V19.0596Z" fill="white"/>
  </mask>
  <g mask="url(#mask1_146_337)">
    <path d="M1.49902 20.7607C2.46305 20.8014 2.92183 21.1382 2.96249 22.259C3.07283 24.402 3.57807 26.452 4.4666 28.4091C4.64663 28.804 5.14026 29.2453 4.89635 29.6635C4.21108 30.8482 4.82085 32.0154 4.97765 33.0898C5.67454 37.8925 6.37143 42.6894 6.92894 47.5095C7.32384 50.9301 7.90458 54.3564 8.32271 57.7828C8.59566 60.007 8.68277 62.2545 8.92087 64.4845C9.13575 66.5287 9.36804 68.5613 9.52484 70.6171C9.62357 71.9296 10.3495 73.4511 11.2729 74.0376C12.202 74.63 13.6074 75.5534 14.8676 74.9784C16.273 74.3338 17.6784 74.4209 19.0141 74.6474C23.4335 75.3966 27.5626 74.3628 31.5523 72.7077C33.5674 71.8482 35.3794 70.681 36.9996 69.2001C37.6094 68.6484 38.3237 68.1083 39.2587 68.1838" stroke="black" stroke-width="2.55728" stroke-linecap="round" stroke-linejoin="round"/>
  </g>
  <path d="M46.5168 21.5449C46.6156 22.4567 46.5691 23.3626 46.3717 24.257C46.0639 25.4765 46.0348 26.8587 45.576 27.933C44.6585 30.0411 44.8153 32.2537 44.403 34.3966C43.9674 36.6557 43.7293 38.9612 43.3808 41.2435C42.9743 43.9033 42.742 46.5805 42.2833 49.2345C41.8187 51.964 41.7896 54.7631 41.3599 57.51C40.8372 60.8957 41.1276 64.415 39.6699 67.6381C39.4899 67.911 39.4609 68.1956 39.5828 68.4976C40.4133 70.6463 39.9313 72.8008 39.3505 74.8973C39.1705 75.4606 39.1298 76.0356 39.2286 76.6221C39.4841 78.0914 39.2983 79.5606 39.1763 81.0473C39.0079 83.0799 38.9034 85.1357 38.8569 87.1799C38.7524 91.3612 38.7988 95.5483 38.8395 99.7355C38.8395 101.112 39.2169 102.477 39.124 103.87C39.0427 105.072 38.189 105.827 37.1321 105.415C36.5746 105.218 36.0055 105.136 35.4189 105.16C28.392 105.16 21.365 105.16 14.3381 105.148C13.4728 105.148 12.6481 105.328 11.8583 105.688C10.2206 104.608 10.4878 104.55 10.5633 102.302C10.691 98.783 11.1324 95.2696 10.9175 91.7445C10.842 90.554 10.6039 89.3577 10.6562 88.173C10.8014 85.1647 10.482 82.1681 10.2497 79.1948C10.1045 77.4061 10.3194 75.9368 11.2021 74.4792" stroke="black" stroke-width="2.55728" stroke-linecap="round" stroke-linejoin="round"/>
  <path d="M11.8985 105.874C11.7475 109.393 11.4398 112.93 12.0844 116.432C12.2296 117.233 11.7243 117.738 11.7359 118.429C11.7824 120.665 11.7592 122.901 11.7359 125.137C11.7359 126.292 12.5432 126.757 13.4491 126.972C17.7059 127.971 21.9976 128.819 26.4112 128.546C29.9131 128.366 33.3394 127.756 36.6845 126.705C37.573 126.42 38.7113 124.626 38.3686 123.871C37.846 122.727 38.0086 121.589 37.9737 120.433C37.9389 119.329 38.1538 118.185 37.6601 117.163C37.3407 116.484 37.9795 116.124 37.9679 115.584C37.8924 112.297 38.1363 109.016 37.8285 105.734" stroke="black" stroke-width="2.55728" stroke-linecap="round" stroke-linejoin="round"/>
  <mask id="mask2_146_337" style="mask-type:luminance" maskUnits="userSpaceOnUse" x="73" y="0" width="23" height="31">
    <path d="M73.2012 0H95.5015V30.9534H73.2012V0Z" fill="white"/>
  </mask>
  <g mask="url(#mask2_146_337)">
    <path d="M93.0975 28.6828C93.1323 24.0717 93.0684 19.4723 91.8082 14.9832C90.4899 10.2734 88.5154 5.94108 83.9799 3.44391C81.8253 2.26501 79.5314 1.53909 76.9994 2.39858C76.4302 2.58442 76.1166 2.94447 75.7275 3.2813" stroke="black" stroke-width="2.55728" stroke-linecap="round" stroke-linejoin="round"/>
  </g>
  <path d="M96.3741 74.4852C94.1383 75.1356 91.8153 75.0659 89.5388 75.153C84.9335 75.3156 80.3341 75.6757 75.723 75.8209C72.1166 75.9312 68.516 76.3609 64.898 76.3319C64.1489 76.3319 63.4752 76.5874 62.6912 76.7849C61.704 76.0996 61.1465 75.3272 60.7864 73.9451C60.2173 71.7266 58.8351 69.7173 57.7666 67.6382C57.482 67.0865 57.1103 66.5871 56.7793 66.0645" stroke="black" stroke-width="2.55728" stroke-linecap="round" stroke-linejoin="round"/>
  <mask id="mask3_146_337" style="mask-type:luminance" maskUnits="userSpaceOnUse" x="53" y="0" width="34" height="39">
    <path d="M53.875 0H86.5822V38.3868H53.875V0Z" fill="white"/>
  </mask>
  <g mask="url(#mask3_146_337)">
    <path d="M82.8419 35.9591C83.3762 35.6339 83.6782 35.1577 83.7421 34.5305C84.4157 30.3028 84.3286 26.0518 84.0673 21.8298C83.835 18.1653 82.9987 14.6461 81.5469 11.272C80.8674 9.7098 79.9673 8.28118 78.8523 6.99194C77.8766 5.83047 76.5119 5.02324 75.844 3.56559C75.6582 3.15907 75.1588 3.10681 74.7232 3.13004C73.8695 3.1823 73.01 3.01389 72.1563 3.2578C71.8485 3.34491 71.3782 3.4146 71.1807 3.2578C69.5895 1.94533 67.8937 2.40411 66.1747 2.85128C62.2257 3.86757 59.8331 6.66673 58.2418 10.1512C56.8713 13.1303 56.3254 16.3651 56.1337 19.6927C56.035 21.4059 55.8085 23.1365 55.9711 24.8264C56.1105 26.255 56.1802 27.6836 56.2034 29.1122" stroke="black" stroke-width="2.55728" stroke-linecap="round" stroke-linejoin="round"/>
  </g>
  <path d="M79.99 99.7356C78.0794 101.547 76.5579 103.679 75.7623 106.17C74.9086 108.836 76.2501 111.85 79.5777 112.529C81.4826 112.918 83.2306 111.501 84.1365 109.597C85.1993 107.378 84.3514 105.508 83.219 103.754C82.3827 102.459 81.709 100.99 80.4082 100.02C79.8681 99.6194 80.1991 98.9574 79.9784 98.4521" stroke="black" stroke-width="2.55728" stroke-linecap="round" stroke-linejoin="round"/>
  <path d="M14.3213 75.3389C14.4723 75.9486 14.7685 76.4829 15.1982 76.9417C15.628 77.3947 16.1448 77.7199 16.743 77.9057C20.3494 79.1775 23.9848 79.7989 27.8525 79.253C30.913 78.8407 33.8051 77.9115 36.5404 76.4829C37.2489 76.0764 38.0096 75.8383 38.8227 75.7686" stroke="black" stroke-width="2.55728" stroke-linecap="round" stroke-linejoin="round"/>
  <path d="M71.3025 3.57129C71.018 4.11718 70.7915 4.68631 70.3153 5.1509C67.1561 8.28688 65.9133 12.2533 65.2919 16.5508C64.7692 20.2152 64.9202 23.8739 65.0422 27.5383C65.0422 27.9216 65.1293 28.2991 65.1757 28.6824" stroke="black" stroke-width="2.55728" stroke-linecap="round" stroke-linejoin="round"/>
  <path d="M18.8798 116.577C20.6162 117.053 22.3932 116.844 24.1529 116.844C26.2377 116.844 28.3574 117.094 30.4191 116.676C31.4295 116.467 31.4295 116.896 31.4237 117.576C31.3889 118.238 31.3947 118.906 31.4353 119.574C31.5921 120.915 30.9766 121.647 29.7164 121.856C26.3829 122.379 23.0669 122.576 19.7451 121.734C18.6765 121.467 18.3571 120.898 18.299 119.864C18.2003 118.151 18.5545 116.513 18.8972 114.87C19.2108 113.395 20.3432 112.645 21.6092 112.175C22.7126 111.739 23.8567 111.536 25.0414 111.559C26.2261 111.583 27.3644 111.832 28.4445 112.309C30.2797 113.116 31.296 114.475 31.0114 116.594" stroke="black" stroke-width="2.55728" stroke-linecap="round" stroke-linejoin="round"/>
  <path d="M82.2727 63.3523C83.2948 60.1815 82.3192 59.6414 79.6884 58.5438C78.4108 57.9805 77.0693 57.6727 75.6697 57.6146C74.2759 57.5624 72.9112 57.7598 71.5929 58.2186C70.7334 58.5206 69.961 58.8923 69.8449 60.0595C69.7055 61.4417 69.8449 61.7669 71.1573 62.2141C71.6974 62.3883 72.1969 62.6903 72.7253 62.911C75.5768 64.0899 78.4805 63.9505 81.419 63.3523C81.7733 63.242 82.1043 63.2884 82.4121 63.4859" stroke="black" stroke-width="2.55728" stroke-linecap="round" stroke-linejoin="round"/>
  <path d="M21.8694 56.3605C22.1075 55.5533 22.334 54.7403 22.5837 53.9388C22.8682 53.0445 23.4374 52.4405 24.4304 52.667C27.1831 53.3 28.1472 51.1745 29.4074 49.502C29.5758 49.2407 29.6223 48.9619 29.5409 48.6657C29.1925 47.6843 29.3377 46.6506 29.1228 45.6633C28.995 44.9781 28.664 44.4089 28.1414 43.9502C26.7011 42.7074 23.0599 42.8642 21.7242 44.2347C21.1318 44.8445 21.0505 45.5995 20.8299 46.3718C20.1736 48.6716 20.9344 50.4196 22.5721 51.9585C22.7928 52.2199 22.9844 52.5044 23.1412 52.8122" stroke="black" stroke-width="2.55728" stroke-linecap="round" stroke-linejoin="round"/>
  <path d="M20.302 49.0841C19.5412 48.9448 18.7804 48.7996 18.0255 48.6544C15.8593 48.2072 14.814 48.6254 13.7512 50.3676C12.4039 52.5802 12.613 55.0309 14.4829 56.1808C16.1497 57.1971 17.9035 58.1785 20.0406 56.9648C21.0743 56.3666 22.2358 56.2214 23.1882 57.47C23.5947 58.0043 24.402 58.2308 25.0059 58.585C25.0059 59.8801 25.0059 61.2622 25.0059 62.6386C24.9653 63.0509 25.1047 63.3877 25.4241 63.6491C26.0803 64.224 26.6552 64.8918 27.2941 65.49C28.4323 66.576 29.8377 66.756 31.2837 65.9081C32.724 65.0602 34.1003 64.224 34.2745 62.354C34.3965 61.4364 34.1584 60.6292 33.5544 59.9323C33.026 59.34 32.7995 58.6373 32.5672 57.9346" stroke="black" stroke-width="2.55728" stroke-linecap="round" stroke-linejoin="round"/>
  <path d="M57.3414 35.8143C54.9777 36.3892 53.3923 38.2418 53.6653 40.3847C54.0079 43.0909 55.5294 45.2339 58.6248 45.35C61.4994 45.4545 63.5495 43.3523 63.8747 40.8086C64.1941 38.2708 62.0511 35.5936 59.9082 35.4717C59.0545 35.4194 58.3867 35.733 57.6317 35.8201" stroke="black" stroke-width="2.55728" stroke-linecap="round" stroke-linejoin="round"/>
  <path d="M17.5962 57.7891C17.2362 58.5847 16.818 59.3571 16.3534 60.1004C15.3836 61.5116 15.4707 63.2945 16.7251 64.3804C17.4568 65.0018 18.1537 65.6581 19.0248 66.0588C20.1457 66.5698 21.795 66.5698 22.7299 65.5129C23.421 64.7405 24.2341 64.0843 25.0122 63.3641" stroke="black" stroke-width="2.55728" stroke-linecap="round" stroke-linejoin="round"/>
  <path d="M83.8411 35.2451C85.7169 35.5587 87.1746 36.4472 87.9702 38.2417C88.9168 40.3788 88.4115 42.4346 87.1107 43.7936C85.7401 45.2222 83.8121 45.8262 81.4311 44.9376C79.4856 44.2059 78.5041 42.5276 78.4112 40.3846C78.3706 39.6761 78.4867 38.9967 78.7655 38.3404C79.0442 37.69 79.4565 37.1325 79.9966 36.6737C80.7051 36.0291 81.4369 35.5819 82.4241 35.971C83.4695 36.3834 82.8306 37.2951 82.9816 37.9688C83.0397 38.1314 83.0397 38.294 82.9816 38.4508C82.9236 38.6134 82.8132 38.7412 82.668 38.8225H81.2743" stroke="black" stroke-width="2.55728" stroke-linecap="round" stroke-linejoin="round"/>
  <path d="M29.7044 49.0836C30.802 49.2985 31.7602 48.6539 32.8404 48.6074C33.9206 48.561 34.8672 48.6307 35.5408 49.5192C37.6373 52.2835 38.0787 55.3208 34.2923 56.9817C32.7649 57.6495 31.3886 57.6902 30.018 57.0456C28.6997 56.4358 27.6834 56.4416 26.702 57.6147C26.3245 58.0735 25.6799 58.2999 25.1572 58.6368" stroke="black" stroke-width="2.55728" stroke-linecap="round" stroke-linejoin="round"/>
  <path d="M119.028 107.727C117.355 110.241 116.316 113.075 114.928 115.735C114.614 116.333 114.707 117.146 114.608 117.86" stroke="black" stroke-width="2.55728" stroke-linecap="round" stroke-linejoin="round"/>
  <path d="M111.763 101.594C112.582 101.692 113.296 102.018 113.911 102.575C115.148 103.673 116.438 104.712 117.756 105.717C118.232 106.065 118.615 106.495 118.894 107.018C118.993 107.204 119.045 107.523 119.179 107.57C122.123 108.505 123.859 111.095 126.275 112.761C127.17 113.423 128.122 113.981 129.138 114.434" stroke="black" stroke-width="2.55728" stroke-linecap="round" stroke-linejoin="round"/>
  <path d="M52.0684 73.7705C54.3507 74.3629 56.5633 75.1643 58.9095 75.5185C59.6412 75.6289 60.251 75.4605 60.9014 75.3385" stroke="black" stroke-width="2.55728" stroke-linecap="round" stroke-linejoin="round"/>
  <path d="M89.6765 63.2129C87.3245 63.6426 84.9609 63.9504 82.5566 63.6368" stroke="black" stroke-width="2.55728" stroke-linecap="round" stroke-linejoin="round"/>
  <path d="M34.2635 21.5449C34.0718 23.8795 33.886 26.2082 33.6943 28.537" stroke="black" stroke-width="2.55728" stroke-linecap="round" stroke-linejoin="round"/>
  <path d="M27.9975 21.5449C28.0671 23.8853 27.5213 26.1966 27.7129 28.537" stroke="black" stroke-width="2.55728" stroke-linecap="round" stroke-linejoin="round"/>
  <path d="M21.7256 21.5449V28.537" stroke="black" stroke-width="2.55728" stroke-linecap="round" stroke-linejoin="round"/>
  <path d="M15.459 21.5449L15.8887 28.537" stroke="black" stroke-width="2.55728" stroke-linecap="round" stroke-linejoin="round"/>
  <path d="M9.19278 21.5449C9.05921 23.9376 9.9942 26.2199 9.90128 28.6125" stroke="black" stroke-width="2.55728" stroke-linecap="round" stroke-linejoin="round"/>
  <path d="M40.3898 21.6904C40.4246 24.0018 39.5187 26.2144 39.6755 28.5373" stroke="black" stroke-width="2.55728" stroke-linecap="round" stroke-linejoin="round"/>
  <path d="M47.0855 21.0458C46.801 21.1213 46.6906 21.4291 46.2318 21.3014C44.3909 20.8135 42.5267 20.6684 40.6916 21.4175C40.3257 21.5685 40.0876 21.3594 39.8379 21.2491C39.2397 20.9878 38.6242 20.9007 37.9795 20.9878C35.4127 21.2723 32.8342 20.8019 30.2847 21.04C28.4031 21.2143 26.568 20.831 24.7271 20.9994C22.4506 21.2201 20.145 20.7729 17.8918 21.0284C15.7721 21.2781 13.6814 20.7148 11.6198 21.0284C9.45361 21.3478 7.34553 20.889 5.2026 20.9761C4.45345 20.9994 3.73333 21.04 3.07129 21.4175" stroke="black" stroke-width="2.55728" stroke-linecap="round" stroke-linejoin="round"/>
  <path d="M56.6279 29.6816C56.6918 32.8176 57.3655 35.8491 58.3411 38.8108C58.5908 39.56 58.9277 40.2801 58.9102 41.0931" stroke="black" stroke-width="2.55728" stroke-linecap="round" stroke-linejoin="round"/>
  <path d="M5.05762 29.2517C6.60238 28.8568 8.19361 29.2169 9.79064 28.7872C10.7082 28.5316 11.9103 29.2459 13.037 29.1066C15.1276 28.851 17.2299 29.1821 19.3032 29.0427C21.3241 28.9033 23.3219 29.3272 25.2906 29.0659C27.3115 28.8104 29.3035 29.3214 31.2722 29.0659C33.5719 28.7813 35.8542 29.3911 38.1075 29.0659C40.3666 28.7407 42.585 29.1879 44.8092 29.3911" stroke="black" stroke-width="2.55728" stroke-linecap="round" stroke-linejoin="round"/>
  <path d="M70.1646 62.2139C69.1077 63.6367 69.0264 65.2395 69.3109 66.9178C69.4735 67.9167 70.1007 68.5381 70.8789 69.0608C73.5155 70.8146 76.4482 70.8611 79.4274 70.4894C81.3148 70.2455 82.2788 69.0608 82.4008 67.214C82.4879 65.9829 82.4182 64.7401 82.4182 63.5031" stroke="black" stroke-width="2.55728" stroke-linecap="round" stroke-linejoin="round"/>
</svg>