<?xml version="1.0" encoding="utf-8"?>
<svg width="134" height="132" viewBox="0 0 134 132" fill="none" xmlns="http://www.w3.org/2000/svg" id="tagline_messaging_maroon_digital_rise" class="tagline brand creative taglines, Maroon Digital communication storytelling creation Rise messaging" role="contentinfo">
  <desc>A creative tagline and messaging example developed by Maroon Digital Rise for a compelling brand narrative.       An example of Maroon Digital Rise's expertise in crafting powerful taglines and messaging strategies to create compelling and consistent brand narratives that resonate with audiences.   </desc>
  <title>Crafting Powerful Taglines and Messaging with Maroon Digital Rise</title>
  <mask id="mask0_146_336" style="mask-type:luminance" maskUnits="userSpaceOnUse" x="16" y="62" width="92" height="70">
    <path d="M16.4473 62.686H107.535V132H16.4473V62.686Z" fill="white"/>
  </mask>
  <g mask="url(#mask0_146_336)">
    <path d="M65.0383 64.4934C63.1617 64.8664 61.2162 65.2567 60.0168 66.1347C58.8346 66.9898 57.9163 68.6254 56.9465 70.3528C55.5691 72.8033 54.1459 75.3399 51.6208 76.1548C51.0986 76.327 50.5419 76.4073 49.9565 76.4073C48.0397 76.4073 46.0426 75.5006 44.1086 74.6225C42.3295 73.8076 40.4874 72.9697 38.9206 72.9697C37.3539 72.9697 35.5175 73.8076 33.7327 74.6225C31.8044 75.5006 29.8073 76.4073 27.8848 76.4073C27.2994 76.4073 26.7427 76.327 26.2262 76.1548C23.7011 75.3399 22.2779 72.8033 20.9006 70.3528C20.5333 69.6986 20.1775 69.0616 19.8102 68.4762C17.8877 70.7029 16.7227 73.5953 16.7227 76.7574V105.503C16.7227 112.516 22.4443 118.227 29.4744 118.227C29.8475 118.227 30.1975 118.422 30.3927 118.743C30.5878 119.064 30.605 119.46 30.4328 119.793L24.0971 131.96L49.4515 118.353C49.6064 118.267 49.7843 118.227 49.9623 118.227H94.3755C101.406 118.227 107.127 112.516 107.127 105.503V76.7574C107.127 72.6082 105.124 68.9181 102.031 66.5938L74.5361 94.0372C74.4328 94.1347 74.3123 94.2151 74.1803 94.2725L65.7786 97.6871H90.6968C91.2937 97.6871 91.7757 98.1692 91.7757 98.7603C91.7757 99.3571 91.2937 99.8392 90.6968 99.8392H31.8618C31.265 99.8392 30.7829 99.3571 30.7829 98.7603C30.7829 98.1692 31.265 97.6871 31.8618 97.6871H59.5519L64.7743 84.8837C64.8317 84.7517 64.912 84.6311 65.0096 84.5278L85.549 64.04H67.1445C66.4501 64.2065 65.7442 64.3499 65.0383 64.4934ZM60.275 81.974H31.8618C31.265 81.974 30.7829 81.492 30.7829 80.9009C30.7829 80.304 31.265 79.822 31.8618 79.822H60.275C60.8719 79.822 61.3539 80.304 61.3539 80.9009C61.3539 81.492 60.8719 81.974 60.275 81.974Z" fill="black"/>
  </g>
  <path d="M73.779 91.7531L67.2998 85.2911L118.009 34.6914L124.482 41.1534L73.779 91.7531Z" fill="black"/>
  <mask id="mask1_146_336" style="mask-type:luminance" maskUnits="userSpaceOnUse" x="119" y="25" width="15" height="16">
    <path d="M119.288 25.957H133.107V40.6486H119.288V25.957Z" fill="white"/>
  </mask>
  <g mask="url(#mask1_146_336)">
    <path d="M132.093 29.0903L130.096 27.0932C129.47 26.4676 128.621 26.1118 127.771 26.1118C127.02 26.1118 126.331 26.3873 125.826 26.8866L119.53 33.1706L126.004 39.6326L132.305 33.3485C132.833 32.8206 133.108 32.0917 133.08 31.2998C133.051 30.4791 132.701 29.6929 132.093 29.0903Z" fill="black"/>
  </g>
  <path d="M71.8624 92.8893L66.1637 87.1963L62.2383 96.8032L71.8624 92.8893Z" fill="black"/>
  <mask id="mask2_146_336" style="mask-type:luminance" maskUnits="userSpaceOnUse" x="0" y="0" width="79" height="75">
    <path d="M0 0H78.1521V74.439H0V0Z" fill="white"/>
  </mask>
  <g mask="url(#mask2_146_336)">
    <path d="M6.83501 47.5637C7.44907 49.4518 7.19656 51.667 6.94978 53.8076C6.66858 56.2639 6.40459 58.5824 7.43185 59.9941C8.47633 61.4288 10.7891 61.888 13.2281 62.3815C15.3343 62.8062 17.5151 63.2423 19.099 64.3958C20.6657 65.5321 21.7389 67.4432 22.7776 69.2968C24.0057 71.4891 25.1707 73.5494 26.8924 74.1118C27.1966 74.2093 27.5237 74.2552 27.8852 74.2552C29.3372 74.2552 31.0359 73.4805 32.8379 72.6656C34.8293 71.7531 36.8895 70.8176 38.9211 70.8176C40.9584 70.8176 43.0129 71.7531 45.0043 72.6656C46.8063 73.4805 48.505 74.2552 49.957 74.2552C50.3185 74.2552 50.6456 74.2093 50.9498 74.1118C52.6772 73.5494 53.8364 71.4834 55.0646 69.2968C56.1033 67.4432 57.1822 65.5264 58.7432 64.3958C60.3329 63.2423 62.5079 62.8062 64.6141 62.3815C67.0588 61.888 69.3659 61.4288 70.4103 59.9941C71.4433 58.5824 71.1736 56.2639 70.8924 53.8076C70.6456 51.667 70.3931 49.4518 71.0072 47.5637C71.5925 45.7674 73.0674 44.172 74.4964 42.634C76.1435 40.855 77.8422 39.0185 77.8422 37.1591C77.8422 35.2997 76.1435 33.4633 74.4964 31.69C73.0674 30.1462 71.5925 28.5565 71.0072 26.7545C70.3931 24.8722 70.6456 22.657 70.8924 20.5106C71.1736 18.0601 71.4433 15.7359 70.4103 14.3298C69.3659 12.8951 67.0588 12.4303 64.6141 11.9367C62.5079 11.5178 60.3329 11.0816 58.7432 9.92812C57.1822 8.79183 56.1033 6.87504 55.0646 5.02138C53.8364 2.83487 52.6772 0.768872 50.9498 0.212199C50.6456 0.1089 50.3185 0.0629883 49.957 0.0629883C48.505 0.0629883 46.8063 0.837737 45.0043 1.6584C43.0129 2.56514 40.9584 3.50632 38.9211 3.50632C36.8895 3.50632 34.8293 2.56514 32.8379 1.6584C31.0359 0.837737 29.3372 0.0629883 27.8852 0.0629883C27.5237 0.0629883 27.1966 0.1089 26.8924 0.212199C25.1707 0.768872 24.0057 2.83487 22.7776 5.02138C21.7389 6.87504 20.6657 8.79183 19.099 9.92812C17.5151 11.0816 15.3343 11.5178 13.2339 11.9367C10.7891 12.4303 8.47633 12.8951 7.43185 14.3298C6.40459 15.7416 6.66858 18.0601 6.94978 20.5106C7.19656 22.657 7.44907 24.8722 6.83501 26.7545C6.24964 28.5565 4.77475 30.1462 3.34577 31.69C1.70445 33.4633 0 35.2997 0 37.1591C0 39.0185 1.70445 40.855 3.34577 42.634C4.77475 44.172 6.24964 45.7674 6.83501 47.5637ZM38.9211 6.54792C55.8393 6.54792 69.6012 20.2811 69.6012 37.1591C69.6012 54.0429 55.8393 67.776 38.9211 67.776C22.0029 67.776 8.24103 54.0429 8.24103 37.1591C8.24103 20.2811 22.0029 6.54792 38.9211 6.54792Z" fill="black"/>
  </g>
  <path d="M38.9207 65.6237C54.6452 65.6237 67.4429 52.8547 67.4429 37.1588C67.4429 21.4687 54.6452 8.69971 38.9207 8.69971C23.1961 8.69971 10.3984 21.4687 10.3984 37.1588C10.3984 52.8547 23.1961 65.6237 38.9207 65.6237ZM21.5778 26.5935H56.2636C56.8604 26.5935 57.3425 27.0699 57.3425 27.6667C57.3425 28.2636 56.8604 28.7399 56.2636 28.7399H21.5778C20.9809 28.7399 20.4989 28.2636 20.4989 27.6667C20.4989 27.0699 20.9809 26.5935 21.5778 26.5935ZM21.5778 36.0856H56.2636C56.8604 36.0856 57.3425 36.5677 57.3425 37.1588C57.3425 37.7557 56.8604 38.2377 56.2636 38.2377H21.5778C20.9809 38.2377 20.4989 37.7557 20.4989 37.1588C20.4989 36.5677 20.9809 36.0856 21.5778 36.0856ZM21.5778 45.5778H56.2636C56.8604 45.5778 57.3425 46.0598 57.3425 46.6567C57.3425 47.2478 56.8604 47.7298 56.2636 47.7298H21.5778C20.9809 47.7298 20.4989 47.2478 20.4989 46.6567C20.4989 46.0598 20.9809 45.5778 21.5778 45.5778Z" fill="black"/>
</svg>