<?xml version="1.0" encoding="utf-8"?>
<svg width="115" height="132" viewBox="0 0 115 132" fill="none" xmlns="http://www.w3.org/2000/svg" id="brand_strategy_maroon_digital_rise" class="brand strategic market Maroon Digital branding solutions strategy positioning development" role="contentinfo">
  <desc>A detailed plan for brand strategy development by Maroon Digital Rise to boost visibility and market positioning.  A depiction of Maroon Digital Rise's comprehensive brand strategy services, designed to help businesses define their vision, mission, and unique value proposition while creating a roadmap for long-term success.</desc>
  <title>Strategic Brand Development by Maroon Digital Rise</title>
  <mask id="mask0_146_334" style="mask-type:luminance" maskUnits="userSpaceOnUse" x="31" y="0" width="52" height="69">
    <path d="M31.5225 0H82.9406V68.9037H31.5225V0Z" fill="white"/>
  </mask>
  <g mask="url(#mask0_146_334)">
    <path d="M70.0455 68.6623H44.3364C43.8946 68.6623 43.4814 68.4672 43.2002 68.1343C36.4343 60.1576 32.71 50.006 32.71 39.5387C32.71 23.0115 41.8229 7.97627 56.4966 0.309457C56.927 0.0856498 57.4435 0.0856498 57.8796 0.309457C72.5475 7.97627 81.6662 23.0115 81.6662 39.5387C81.6662 50.006 77.9419 60.1634 71.176 68.1343C70.8948 68.4672 70.4816 68.6623 70.0455 68.6623ZM45.0308 65.6782H69.3454C75.3709 58.327 78.6821 49.0706 78.6821 39.5387C78.6821 24.3888 70.4644 10.5816 57.191 3.32224C43.9118 10.5816 35.694 24.3888 35.694 39.5387C35.694 49.0706 39.0052 58.327 45.0308 65.6782Z" fill="black"/>
  </g>
  <path d="M57.1918 20.4808C51.4991 20.4808 46.1966 17.9328 42.6386 13.4796C42.1279 12.8369 42.2312 11.8958 42.8739 11.385C43.5224 10.8686 44.4578 10.9719 44.9743 11.6203C47.9584 15.3562 52.4115 17.5024 57.1918 17.5024C61.9664 17.5024 66.4195 15.3562 69.4036 11.6203C69.9201 10.9719 70.8612 10.8686 71.504 11.385C72.1467 11.8958 72.25 12.8369 71.7392 13.4796C68.187 17.9328 62.8788 20.4808 57.1918 20.4808Z" fill="black"/>
  <path d="M65.1398 78.1256H49.2381C48.6814 78.1256 48.1707 77.8157 47.9124 77.3164L43.0059 67.8534C42.6271 67.1246 42.9141 66.2237 43.6486 65.8449C44.3774 65.4662 45.2784 65.7531 45.6571 66.4819L50.1448 75.1415H64.2331L68.7207 66.4819C69.0995 65.7531 70.0004 65.4662 70.7292 65.8449C71.4638 66.2237 71.7507 67.1246 71.372 67.8534L66.4654 77.3164C66.2072 77.8157 65.6964 78.1256 65.1398 78.1256Z" fill="black"/>
  <path d="M44.337 68.6625H29.9388C26.903 68.6625 24.4297 66.1891 24.4297 63.1534V51.7852C24.4297 46.2244 28.5845 41.513 34.0993 40.8187C34.9199 40.7154 35.6659 41.2892 35.7692 42.1098C35.8725 42.9247 35.2929 43.6708 34.478 43.7741C30.4495 44.2848 27.4138 47.728 27.4138 51.7852V63.1534C27.4138 64.5479 28.5443 65.6784 29.9388 65.6784H44.337C45.1576 65.6784 45.829 66.3498 45.829 67.1705C45.829 67.9911 45.1576 68.6625 44.337 68.6625Z" fill="black"/>
  <path d="M84.4382 68.6625H70.0458C69.2194 68.6625 68.5537 67.9911 68.5537 67.1705C68.5537 66.3498 69.2194 65.6784 70.0458 65.6784H84.4382C85.8327 65.6784 86.969 64.5479 86.969 63.1534V51.7852C86.969 47.728 83.9332 44.2848 79.9047 43.7741C79.0841 43.6708 78.5045 42.9247 78.6078 42.1098C78.7168 41.2892 79.4571 40.7154 80.2777 40.8187C85.7926 41.513 89.9531 46.2302 89.9531 51.7852V63.1534C89.9531 66.1891 87.4797 68.6625 84.4382 68.6625Z" fill="black"/>
  <path d="M57.3178 58.9297C48.5721 58.9297 41.4619 51.8195 41.4619 43.0796C41.4619 34.3397 48.5721 27.2295 57.3178 27.2295C66.0634 27.2295 73.1793 34.3397 73.1793 43.0796C73.1793 51.8195 66.0634 58.9297 57.3178 58.9297ZM57.3178 30.2136C50.2191 30.2136 44.4403 35.9866 44.4403 43.0796C44.4403 50.1783 50.2191 55.9513 57.3178 55.9513C64.4164 55.9513 70.1952 50.1783 70.1952 43.0796C70.1952 35.9866 64.4164 30.2136 57.3178 30.2136Z" fill="black"/>
  <path d="M57.3178 52.3361C52.2104 52.3361 48.0557 48.187 48.0557 43.0797C48.0557 37.978 52.2104 33.8232 57.3178 33.8232C62.4252 33.8232 66.58 37.978 66.58 43.0797C66.5742 48.187 62.4252 52.3361 57.3178 52.3361ZM57.3178 36.8073C53.8574 36.8073 51.0398 39.625 51.0398 43.0854C51.0398 46.5458 53.8574 49.3577 57.3178 49.3577C60.7782 49.3577 63.5959 46.5458 63.5959 43.0854C63.5959 39.6193 60.7782 36.8073 57.3178 36.8073Z" fill="black"/>
  <path d="M16.6769 117.2H11.6786C10.8579 117.2 10.1865 116.534 10.1865 115.708V108.288C10.1865 107.462 10.8579 106.796 11.6786 106.796H16.6712C19.5405 106.796 21.8761 109.132 21.8761 111.995C21.8761 114.864 19.5462 117.2 16.6769 117.2ZM13.1706 114.216H16.6712C17.8935 114.216 18.892 113.223 18.892 112.001C18.892 110.779 17.8935 109.78 16.6712 109.78H13.1706V114.216Z" fill="black"/>
  <path d="M16.6769 124.62H11.6786C10.8579 124.62 10.1865 123.954 10.1865 123.128V115.708C10.1865 114.887 10.8579 114.216 11.6786 114.216C12.5049 114.216 13.1706 114.887 13.1706 115.708V121.642H16.6712C17.8935 121.642 18.892 120.643 18.892 119.421C18.892 118.198 17.8935 117.2 16.6712 117.2C15.8506 117.2 15.1791 116.534 15.1791 115.714C15.1791 114.887 15.8506 114.222 16.6712 114.222C19.5405 114.222 21.8761 116.557 21.8761 119.421C21.8761 122.284 19.5462 124.62 16.6769 124.62Z" fill="black"/>
  <path d="M31.8211 124.62C31.0005 124.62 30.3291 123.954 30.3291 123.128V108.288C30.3291 107.467 31.0005 106.796 31.8211 106.796C32.6475 106.796 33.3132 107.467 33.3132 108.288V123.128C33.3132 123.954 32.6475 124.62 31.8211 124.62Z" fill="black"/>
  <path d="M36.8138 117.2H31.8211C31.0005 117.2 30.3291 116.534 30.3291 115.708C30.3291 114.887 31.0005 114.216 31.8211 114.216H36.8138C38.0361 114.216 39.0346 113.223 39.0346 112.001C39.0346 110.779 38.0361 109.78 36.8138 109.78H31.8211C31.0005 109.78 30.3291 109.114 30.3291 108.288C30.3291 107.467 31.0005 106.796 31.8211 106.796H36.8138C39.6831 106.796 42.0187 109.132 42.0187 112.001C42.0187 114.87 39.6831 117.2 36.8138 117.2Z" fill="black"/>
  <path d="M40.194 124.62C39.6258 124.62 39.0864 124.299 38.8339 123.748L35.4596 116.328C35.121 115.576 35.4481 114.692 36.1999 114.354C36.9459 114.009 37.8354 114.342 38.174 115.094L41.554 122.514C41.8926 123.26 41.5598 124.15 40.8137 124.488C40.6129 124.58 40.4006 124.62 40.194 124.62Z" fill="black"/>
  <path d="M62.4188 124.62C61.5982 124.62 60.9268 123.954 60.9268 123.128V114.388C60.9268 111.846 58.8551 109.78 56.3129 109.78C53.7707 109.78 51.7048 111.852 51.7048 114.388V123.128C51.7048 123.954 51.0334 124.62 50.2127 124.62C49.3864 124.62 48.7207 123.954 48.7207 123.128V114.388C48.7207 110.205 52.1237 106.796 56.3129 106.796C60.5021 106.796 63.9109 110.205 63.9109 114.388V123.128C63.9109 123.954 63.2452 124.62 62.4188 124.62Z" fill="black"/>
  <path d="M62.4188 120.247H50.2127C49.3864 120.247 48.7207 119.581 48.7207 118.761C48.7207 117.934 49.3864 117.269 50.2127 117.269H62.4188C63.2452 117.269 63.9109 117.934 63.9109 118.761C63.9109 119.581 63.2452 120.247 62.4188 120.247Z" fill="black"/>
  <path d="M82.5565 124.62C81.7359 124.62 81.0645 123.954 81.0645 123.128V108.288C81.0645 107.467 81.7359 106.796 82.5565 106.796C83.3829 106.796 84.0486 107.467 84.0486 108.288V123.128C84.0486 123.954 83.3829 124.62 82.5565 124.62ZM70.3504 124.62C69.5241 124.62 68.8584 123.954 68.8584 123.128V108.288C68.8584 107.467 69.5241 106.796 70.3504 106.796C71.1711 106.796 71.8425 107.467 71.8425 108.288V123.128C71.8425 123.954 71.1711 124.62 70.3504 124.62Z" fill="black"/>
  <path d="M82.5564 124.62C82.126 124.62 81.7013 124.436 81.4029 124.081L69.1911 109.235C68.6689 108.604 68.7607 107.662 69.3977 107.14C70.0347 106.618 70.9758 106.704 71.4981 107.347L83.7099 122.181C84.2321 122.818 84.1403 123.759 83.5033 124.282C83.2278 124.511 82.895 124.62 82.5564 124.62Z" fill="black"/>
  <path d="M96.5931 124.62H90.4872C89.6665 124.62 88.9951 123.954 88.9951 123.128V108.288C88.9951 107.467 89.6665 106.796 90.4872 106.796H96.5931C100.782 106.796 104.191 110.205 104.191 114.388V117.028C104.191 121.217 100.782 124.62 96.5931 124.62ZM91.9792 121.642H96.5931C99.141 121.642 101.207 119.57 101.207 117.028V114.388C101.207 111.852 99.1353 109.78 96.5931 109.78H91.9792V121.642Z" fill="black"/>
  <mask id="mask1_146_334" style="mask-type:luminance" maskUnits="userSpaceOnUse" x="0" y="98" width="115" height="34">
    <path d="M0 98.2852H114.4V132H0V98.2852Z" fill="white"/>
  </mask>
  <g mask="url(#mask1_146_334)">
    <path d="M109.08 131.948H5.29652C2.36981 131.948 -0.0117188 129.566 -0.0117188 126.639V104.775C-0.0117188 101.848 2.36981 99.4727 5.29652 99.4727H109.085C112.012 99.4727 114.394 101.848 114.394 104.775V126.639C114.388 129.566 112.006 131.948 109.08 131.948ZM5.29652 102.457C4.0168 102.457 2.97237 103.495 2.97237 104.781V126.645C2.97237 127.925 4.0168 128.963 5.29652 128.963H109.085C110.365 128.963 111.41 127.925 111.41 126.645V104.781C111.41 103.501 110.365 102.457 109.085 102.457H5.29652Z" fill="black"/>
  </g>
  <path d="M98.1363 102.457C97.3099 102.457 96.6442 101.786 96.6442 100.965C96.6442 100.145 97.3099 99.4733 98.1363 99.4733C100.638 99.4733 102.676 97.4361 102.676 94.9398C102.676 92.5238 100.788 90.5325 98.3773 90.4062C97.6428 90.3718 97.0459 89.8037 96.9713 89.0749C96.7303 86.7565 94.7907 85.0119 92.4608 85.0119C91.0261 85.0119 89.712 85.6661 88.8397 86.8081C88.5929 87.1295 88.2257 87.3418 87.824 87.3877C87.4165 87.4279 87.0148 87.3131 86.7049 87.0491C85.89 86.3777 84.8628 86.0047 83.8012 86.0047C83.5315 86.0047 83.2675 86.0277 83.0035 86.0736C82.2632 86.2056 81.5459 85.7694 81.3221 85.0578C80.7195 83.1641 78.9807 81.8901 76.9894 81.8901C75.8646 81.8901 74.7858 82.309 73.9479 83.0608C73.3683 83.5887 72.4789 83.5715 71.9107 83.0264C71.0614 82.2 69.9366 81.7466 68.7602 81.7466C67.7674 81.7466 66.8263 82.0623 66.0344 82.6533C65.5868 82.9977 64.9785 83.0493 64.4735 82.7968C63.9685 82.5443 63.6471 82.0278 63.6471 81.4655V76.6335C63.6471 75.8129 64.3185 75.1415 65.1391 75.1415C65.9655 75.1415 66.6312 75.8129 66.6312 76.6335V79.0724C67.3141 78.8716 68.0314 78.7683 68.7602 78.7683C70.281 78.7683 71.7443 79.2216 72.9839 80.0652C74.1775 79.3135 75.5605 78.9118 76.9894 78.9118C79.8702 78.9118 82.4354 80.5243 83.6979 83.0264C85.0063 83.0149 86.2975 83.3362 87.428 83.956C88.7995 82.7222 90.567 82.0336 92.4608 82.0336C95.9212 82.0336 98.8593 84.3577 99.7259 87.5943C103.135 88.3231 105.66 91.3531 105.66 94.9455C105.66 99.0831 102.285 102.457 98.1363 102.457ZM16.246 102.457C12.097 102.457 8.72266 99.0831 8.72266 94.9398C8.72266 91.3474 11.2477 88.3174 14.6564 87.5886C15.5229 84.352 18.4611 82.0278 21.9215 82.0278C23.8153 82.0278 25.5828 82.7165 26.9543 83.9503C28.0905 83.3305 29.376 83.0091 30.6787 83.0206C31.9469 80.5186 34.5121 78.906 37.3929 78.906C38.8218 78.906 40.2048 79.3077 41.3984 80.0595C42.638 79.2216 44.1013 78.7626 45.6221 78.7626C46.3509 78.7626 47.0682 78.8659 47.7511 79.0667V76.6278C47.7511 75.8072 48.4168 75.1357 49.2431 75.1357C50.0638 75.1357 50.7352 75.8072 50.7352 76.6278V81.4597C50.7352 82.0221 50.4138 82.5386 49.9088 82.7911C49.4038 83.0436 48.8013 82.9862 48.3479 82.6476C47.556 82.0565 46.6148 81.7409 45.6221 81.7409C44.4399 81.7409 43.3209 82.1943 42.4715 83.0206C41.9092 83.5658 41.0197 83.583 40.4343 83.0551C39.6022 82.3033 38.5176 81.8844 37.3929 81.8844C35.4073 81.8844 33.6628 83.1583 33.0659 85.0521C32.8364 85.7637 32.1191 86.2056 31.3845 86.0678C31.1205 86.0219 30.8508 85.999 30.5811 85.999C29.5252 85.999 28.4922 86.372 27.6831 87.0434C27.3675 87.3074 26.9658 87.4279 26.5583 87.382C26.1566 87.3361 25.7893 87.1237 25.5426 86.8024C24.6761 85.6604 23.3562 85.0062 21.9272 85.0062C19.5916 85.0062 17.652 86.7507 17.4109 89.0691C17.3363 89.7979 16.7395 90.3661 16.005 90.4005C13.6005 90.5268 11.7125 92.5181 11.7125 94.934C11.7125 97.4361 13.7497 99.4675 16.246 99.4675C17.0724 99.4675 17.738 100.139 17.738 100.96C17.738 101.78 17.0666 102.457 16.246 102.457Z" fill="black"/>
  <path d="M55.3377 90.8077C54.5114 90.8077 53.8457 90.142 53.8457 89.3156V81.0233C53.8457 80.1969 54.5114 79.5312 55.3377 79.5312C56.1584 79.5312 56.8298 80.1969 56.8298 81.0233V89.3156C56.8298 90.142 56.1584 90.8077 55.3377 90.8077Z" fill="black"/>
  <path d="M61.8514 94.3836C61.0251 94.3836 60.3594 93.7179 60.3594 92.8915V86.7684C60.3594 85.9478 61.0251 85.2764 61.8514 85.2764C62.672 85.2764 63.3435 85.9478 63.3435 86.7684V92.8915C63.3435 93.7179 62.672 94.3836 61.8514 94.3836Z" fill="black"/>
</svg>