<?xml version="1.0" encoding="utf-8"?>
<svg xmlns="http://www.w3.org/2000/svg" width="132" height="132" fill="none" id="corporate-branding" class="corporate brand digital Maroon Digital branding business creative identity marketing Rise solutions growth" role="contentinfo">
  <desc>Elevate your business with professional corporate branding services by Maroon Digital Rise       howcase your business’s professionalism with expert corporate branding solutions by Maroon Digital Rise. From logo design to cohesive brand identity strategies, we help you leave a lasting impact.</desc>
  <title>Professional Corporate Branding Solutions by Maroon Digital Rise</title>
  <path fill="#000" d="M66 68.13q1.259.002 2.491-.247c.827-.161 1.624-.402 2.4-.723q1.16-.485 2.208-1.182a12.5 12.5 0 0 0 1.934-1.59 12.5 12.5 0 0 0 1.59-1.934q.698-1.049 1.182-2.21a12.5 12.5 0 0 0 .723-2.392q.249-1.24.247-2.497.002-1.259-.247-2.49a12.6 12.6 0 0 0-1.905-4.603c-.465-.7-.993-1.343-1.59-1.94a13 13 0 0 0-1.934-1.589 13 13 0 0 0-4.608-1.905c-.82-.16-1.652-.247-2.49-.247s-1.67.086-2.49.247a12.95 12.95 0 0 0-4.608 1.905q-1.041.704-1.935 1.59a13.3 13.3 0 0 0-1.59 1.94 12.7 12.7 0 0 0-1.176 2.203 12.6 12.6 0 0 0-.729 2.399q-.247 1.231-.246 2.49-.002 1.257.246 2.497c.161.82.408 1.618.73 2.393q.479 1.16 1.175 2.209c.471.694 1 1.343 1.59 1.934a12.8 12.8 0 0 0 4.143 2.772c.775.321 1.579.562 2.4.723q1.231.248 2.49.246m0-21.29a8.667 8.667 0 0 1 3.26.648 9 9 0 0 1 1.475.786 8.5 8.5 0 0 1 2.347 2.353 8.6 8.6 0 0 1 1.274 3.07c.11.545.16 1.102.16 1.658 0 .563-.05 1.114-.16 1.665a8.7 8.7 0 0 1-1.274 3.07c-.31.464-.665.895-1.056 1.29a8.45 8.45 0 0 1-2.766 1.842 8.3 8.3 0 0 1-1.595.489 8.5 8.5 0 0 1-1.664.16 8.5 8.5 0 0 1-1.659-.16 8 8 0 0 1-1.6-.488 8.4 8.4 0 0 1-1.47-.786 8.478 8.478 0 0 1-3.621-5.417 8.5 8.5 0 0 1-.166-1.665c0-.556.057-1.113.166-1.658q.165-.827.482-1.601a8.478 8.478 0 0 1 1.848-2.76 8.5 8.5 0 0 1 4.361-2.33 8.5 8.5 0 0 1 1.659-.167"/>
  <mask id="a" width="132" height="132" x="0" y="0" maskUnits="userSpaceOnUse" style="mask-type:luminance">
    <path fill="#fff" d="M0 0h132v132H0z"/>
  </mask>
  <g mask="url(#a)">
    <path fill="#000" d="M112.839 108.581c.281 0 .556-.052.815-.161q.396-.165.688-.459a2.1 2.1 0 0 0 .626-1.509V88.358l13.199-9.9a6.1 6.1 0 0 0 1.79-2.151q.637-1.29.637-2.726a5.9 5.9 0 0 0-.367-2.06 6 6 0 0 0-1.045-1.814 6 6 0 0 0-3.569-2.066q-2.46-.507-4.534.913l-1.939 1.28V25.76a2.05 2.05 0 0 0-.488-1.389 2.1 2.1 0 0 0-1.28-.74l-23.695-4.126v-4.603a2.1 2.1 0 0 0-.625-1.503 1.9 1.9 0 0 0-.689-.46 2.1 2.1 0 0 0-.815-.166h-8.516V2.13a2.1 2.1 0 0 0-.625-1.503 1.9 1.9 0 0 0-.689-.46A2.1 2.1 0 0 0 80.903 0H51.097q-.42.001-.815.166a2.147 2.147 0 0 0-1.154 1.148c-.103.264-.16.534-.16.815v10.645h-8.516q-.421.002-.815.167a2.146 2.146 0 0 0-1.153 1.148c-.104.263-.161.533-.161.814v4.603l-23.781 4.149a2.05 2.05 0 0 0-1.274.74c-.339.402-.5.867-.494 1.389v44.05l-1.916-1.28a5.7 5.7 0 0 0-1.033-.586A5.6 5.6 0 0 0 8.7 67.59a6 6 0 0 0-1.182-.15 6.4 6.4 0 0 0-1.188.08 6.2 6.2 0 0 0-2.21.844c-.338.213-.654.46-.94.73q-.438.411-.781.9c-.236.322-.43.671-.591 1.033q-.25.544-.38 1.13c-.085.385-.137.781-.148 1.177q-.016.603.08 1.188a6.1 6.1 0 0 0 .85 2.215 6.152 6.152 0 0 0 1.624 1.722l13.198 9.899v18.094a2.114 2.114 0 0 0 1.314 1.968q.395.162.815.161v19.161H0V132h132v-4.258h-19.161zM97.936 51.097a8.643 8.643 0 0 1 3.26.648q.775.321 1.474.786.699.467 1.285 1.062a8.5 8.5 0 0 1 1.848 2.76 8.6 8.6 0 0 1 .488 1.601c.109.546.161 1.102.161 1.659 0 .562-.052 1.113-.161 1.664a8.7 8.7 0 0 1-1.274 3.07q-.466.698-1.062 1.291a8.4 8.4 0 0 1-2.76 1.843 8.3 8.3 0 0 1-1.595.487c-.551.11-1.102.161-1.664.161a8.5 8.5 0 0 1-1.659-.16 8.2 8.2 0 0 1-1.601-.488 8.4 8.4 0 0 1-1.47-.787 8.473 8.473 0 0 1-3.621-5.417 8.5 8.5 0 0 1-.166-1.664c0-.557.058-1.113.167-1.659a8.407 8.407 0 0 1 1.268-3.07q.467-.698 1.062-1.29a8.47 8.47 0 0 1 4.361-2.33 8.5 8.5 0 0 1 1.659-.167M53.226 4.258h25.548v8.516H53.226zM42.58 59.613c0 .562-.052 1.113-.161 1.664a8.3 8.3 0 0 1-.488 1.595 8.5 8.5 0 0 1-.786 1.475c-.31.465-.666.896-1.056 1.291-.396.39-.826.746-1.291 1.056a8.5 8.5 0 0 1-1.475.787 8.3 8.3 0 0 1-1.595.487c-.551.11-1.102.161-1.664.161a8.5 8.5 0 0 1-1.659-.16 8.2 8.2 0 0 1-1.601-.488 8.4 8.4 0 0 1-1.47-.787 8.473 8.473 0 0 1-3.621-5.417 8.5 8.5 0 0 1-.166-1.664c0-.557.058-1.113.167-1.659q.164-.825.482-1.6a8.463 8.463 0 0 1 1.848-2.76 8.47 8.47 0 0 1 4.361-2.33 8.5 8.5 0 0 1 1.659-.167 8.658 8.658 0 0 1 3.26.648 8.46 8.46 0 0 1 3.821 3.14q.466.695.786 1.468.326.775.488 1.601c.109.546.16 1.102.16 1.659M17.032 27.55l21.29-3.724v23.758a12.812 12.812 0 0 0-6.18-.597q-.774.12-1.532.333-.758.209-1.48.51a12.7 12.7 0 0 0-2.72 1.55q-.628.466-1.195 1.01a12.7 12.7 0 0 0-2.731 3.799c-.224.476-.419.958-.58 1.458q-.24.749-.396 1.514a14 14 0 0 0-.206 1.556q-.053.783-.012 1.566c.023.523.086 1.045.172 1.556.092.516.219 1.027.368 1.526.155.5.338.987.55 1.47a12.8 12.8 0 0 0 2.663 3.844c.368.373.764.717 1.177 1.039q.62.482 1.291.878.68.406 1.395.717a12.6 12.6 0 0 0 2.995.9 13 13 0 0 0 3.128.144 13 13 0 0 0 3.064-.62 12.718 12.718 0 0 0 5.24-3.346c.355-.378.694-.78 1.004-1.198.31-.425.59-.861.849-1.32.252-.454.482-.924.677-1.412q.3-.724.505-1.48a12.6 12.6 0 0 0 .448-3.1 13 13 0 0 0-.063-1.566 12 12 0 0 0-.259-1.544c-.114-.51-.264-1.01-.441-1.503-.178-.494-.385-.97-.62-1.44a13.2 13.2 0 0 0-1.75-2.595 13 13 0 0 0-1.102-1.113V17.032h46.838v33.09c-.39.35-.757.717-1.096 1.112a12.6 12.6 0 0 0-1.75 2.594c-.241.47-.448.947-.625 1.44-.178.494-.328.993-.442 1.504-.115.511-.201 1.022-.259 1.544a13 13 0 0 0-.063 1.567q.02.784.132 1.56.11.783.316 1.538.205.758.505 1.481.293.731.683 1.412a12.477 12.477 0 0 0 1.853 2.52c.356.383.74.74 1.142 1.072.408.333.827.643 1.269.924s.895.534 1.371.758q.704.343 1.452.59.74.249 1.515.402.765.157 1.55.218a13 13 0 0 0 3.127-.143 13 13 0 0 0 1.526-.356c.5-.15.993-.333 1.47-.545q.722-.312 1.394-.717a12.2 12.2 0 0 0 2.473-1.917q.558-.551 1.039-1.17c.327-.408.62-.839.895-1.286q.405-.673.723-1.389.319-.722.551-1.469a12.6 12.6 0 0 0 .545-3.082 13 13 0 0 0-.223-3.121q-.147-.767-.396-1.515a13 13 0 0 0-.574-1.458q-.336-.706-.758-1.377a12 12 0 0 0-.912-1.269 13 13 0 0 0-1.062-1.153q-.57-.544-1.199-1.01a12.2 12.2 0 0 0-2.72-1.55c-.482-.2-.976-.373-1.481-.51a12.3 12.3 0 0 0-3.093-.47 13 13 0 0 0-4.62.734V23.827l21.291 3.724v45.112l-2.766 1.853h-27.04a10.55 10.55 0 0 0-3.754-3.133 10.55 10.55 0 0 0-4.763-1.125h-21.29c-1.676 0-3.26.379-4.757 1.125a10.5 10.5 0 0 0-3.76 3.133H19.805l-2.772-1.853zM68.13 86.78 66 89.844l-2.129-3.064 1.854-12.264h.55zm-35.597 40.962 1.533-6.129 1.532 6.129zm12.178 0h-4.723l-3.794-15.414a2.05 2.05 0 0 0-.751-1.159 2.1 2.1 0 0 0-1.314-.454 2.08 2.08 0 0 0-1.309.454 2.1 2.1 0 0 0-.757 1.159l-3.914 15.414h-4.729v-19.161h21.29zm6.387 0h-2.13v-19.161h2.13zm0-23.419H21.29V87.29c0-.706-.28-1.274-.849-1.704L6.387 74.94c-.476-.368-.717-.861-.723-1.47q-.001-.534.298-.975a1.78 1.78 0 0 1 1.171-.786q.74-.138 1.366.275l9.492 6.388a2.1 2.1 0 0 0 1.17.401h25.761a12 12 0 0 0-.212 2.13v14.902q.008 1.414.465 2.75.465 1.332 1.325 2.45a8.6 8.6 0 0 0 2.049 1.893q1.179.774 2.548 1.125zm13.244 23.419L66 119.438l1.664 8.304zm12.304 0h-4.642l-3.874-19.586a2.09 2.09 0 0 0-.626-1.504 2 2 0 0 0-.688-.464 2.1 2.1 0 0 0-.815-.161 2.1 2.1 0 0 0-1.504.625 2.1 2.1 0 0 0-.625 1.504l-3.874 19.586h-4.642v-23.419h21.29zm0-27.677h-21.29v-21.29h-4.258v20.693a4.17 4.17 0 0 1-1.55-1.544 4.17 4.17 0 0 1-.58-2.118V80.903q-.002-.627.127-1.245a6.3 6.3 0 0 1 .953-2.301q.344-.524.792-.97c.298-.293.62-.562.97-.792q.525-.351 1.101-.591c.39-.16.786-.281 1.2-.362a6 6 0 0 1 1.245-.126h6.071l-1.813 12.476c-.069.534.04 1.021.344 1.469l4.258 6.387c.092.15.207.276.339.396q.191.17.424.299c.156.08.316.143.488.183.167.046.339.063.511.063.178 0 .35-.017.516-.063.173-.04.333-.103.488-.183.155-.087.293-.184.425-.299.132-.12.241-.247.338-.396l4.259-6.387c.298-.448.413-.935.344-1.47l-1.768-12.475h6.066c.42 0 .838.04 1.245.126q.622.12 1.2.362.585.24 1.102.591c.35.23.671.5.97.792q.446.446.797.97.345.525.585 1.102c.161.39.282.786.368 1.199q.12.618.12 1.245v14.903a4.224 4.224 0 0 1-2.13 3.661V78.775h-4.257zm6.387 27.677h-2.129v-19.161h2.13zm13.371 0 1.532-6.129 1.533 6.129zm12.178 0h-4.723l-3.793-15.414a2.06 2.06 0 0 0-.758-1.159 2.08 2.08 0 0 0-1.308-.454 2.08 2.08 0 0 0-1.309.454 2.1 2.1 0 0 0-.757 1.159l-3.914 15.414H87.29v-19.161h21.291zm2.129-40.452v17.033H80.903v-.299a8.4 8.4 0 0 0 2.548-1.125 8.6 8.6 0 0 0 2.049-1.893 8.4 8.4 0 0 0 1.326-2.45q.465-1.336.464-2.75V80.903a11.5 11.5 0 0 0-.212-2.129h25.761q.637 0 1.17-.361l9.521-6.387a1.68 1.68 0 0 1 1.337-.276q.748.156 1.171.786c.2.299.304.626.298.982q0 .91-.723 1.469l-14.048 10.645c-.557.413-.838.97-.855 1.658"/>
  </g>
  <path fill="#000" d="M46.839 21.29h4.258v4.258h-4.258zM55.355 21.29h4.258v4.258h-4.258zM46.839 29.807h4.258v4.258h-4.258zM55.355 29.807h4.258v4.258h-4.258zM72.388 21.29h4.258v4.258h-4.258zM80.903 21.29h4.258v4.258h-4.258zM72.388 29.807h4.258v4.258h-4.258zM80.903 29.807h4.258v4.258h-4.258zM21.291 29.807h4.258v4.258h-4.258zM29.806 29.807h4.258v4.258h-4.258zM21.291 38.322h4.258v4.258h-4.258zM29.806 38.322h4.258v4.258h-4.258zM97.936 29.807h4.258v4.258h-4.258zM106.451 29.807h4.258v4.258h-4.258zM97.936 38.322h4.258v4.258h-4.258zM106.451 38.322h4.258v4.258h-4.258z"/>
</svg>