<?xml version="1.0" encoding="utf-8"?>
<svg width="132" height="132" viewBox="0 0 132 132" fill="none" xmlns="http://www.w3.org/2000/svg" id="merchandise_design_maroon_digital_rise" class="merchandise custom promotional Maroon Digital creative corporate design branding" role="contentinfo">
  <desc>Custom-designed merchandise by Maroon Digital Rise, showcasing innovative branding concepts for promotional success.     A visual representation of Maroon Digital Rise's expertise in merchandise design, delivering custom, eye-catching solutions that align with brand identity and enhance promotional efforts.</desc>
  <title>Unique Merchandise Design by Maroon Digital Rise</title>
  <path d="M96.8624 69.5808C95.0318 69.5808 93.4996 68.1404 93.4078 66.2925L91.2673 24.7564C91.1697 22.8454 92.6388 21.2214 94.5498 21.1238C96.5066 21.0148 98.0848 22.4954 98.1823 24.4006L100.317 65.9367C100.42 67.8477 98.9513 69.4775 97.0403 69.575C96.9772 69.575 96.9198 69.5808 96.8624 69.5808Z" fill="black"/>
  <path d="M69.735 118.038H54.3383C52.4274 118.038 50.8779 116.489 50.8779 114.578C50.8779 112.667 52.4274 111.117 54.3383 111.117H69.735C71.646 111.117 73.1954 112.667 73.1954 114.578C73.1954 116.489 71.646 118.038 69.735 118.038Z" fill="black"/>
  <path d="M22.4093 88.2315C22.3462 88.2315 22.2888 88.2315 22.2257 88.2258C20.3205 88.1282 18.8514 86.5042 18.9489 84.5932L22.0363 24.4008C22.1339 22.4898 23.8095 21.0035 25.6689 21.124C27.5798 21.2216 29.0489 22.8456 28.9513 24.7566L25.864 84.949C25.7664 86.7968 24.2399 88.2315 22.4093 88.2315Z" fill="black"/>
  <mask id="mask0_146_338" style="mask-type:luminance" maskUnits="userSpaceOnUse" x="0" y="0" width="121" height="59">
    <path d="M0 0H120.465V58.5971H0V0Z" fill="white"/>
  </mask>
  <g mask="url(#mask0_146_338)">
    <path d="M23.9709 57.536C23.6036 57.536 23.2364 57.4786 22.8748 57.3523L6.33037 51.8375C3.60452 50.9193 1.45254 48.7501 0.557315 46.0358C-0.0968875 43.9641 -0.0222865 41.7892 0.752428 39.8725L11.9083 11.3401C14.5194 4.66029 20.8491 0.350586 28.0338 0.350586H92.1859C99.3707 0.350586 105.695 4.66603 108.306 11.3401L119.479 39.9127C120.236 41.7949 120.311 43.9699 119.668 46.0013C118.767 48.7501 116.615 50.9193 113.895 51.8375L108.047 53.7829C106.24 54.3969 104.271 53.4099 103.669 51.5965C103.066 49.7831 104.042 47.8205 105.855 47.2179L111.697 45.2725C112.351 45.0487 112.862 44.5437 113.075 43.878C113.224 43.4132 113.218 42.8967 113.046 42.4663L101.861 13.865C100.295 9.85949 96.4956 7.27137 92.1859 7.27137H28.0338C23.7184 7.27137 19.9194 9.85949 18.3528 13.865L7.18543 42.4319C6.99605 42.8967 6.99031 43.4132 7.14526 43.9182C7.35185 44.538 7.86258 45.0487 8.52826 45.2783L25.0612 50.7873C26.8746 51.3899 27.8559 53.3525 27.2534 55.1659C26.7713 56.6178 25.417 57.536 23.9709 57.536Z" fill="black"/>
  </g>
  <mask id="mask1_146_338" style="mask-type:luminance" maskUnits="userSpaceOnUse" x="39" y="0" width="42" height="22">
    <path d="M39.666 0H80.8005V21.8699H39.666V0Z" fill="white"/>
  </mask>
  <g mask="url(#mask1_146_338)">
    <path d="M60.1069 21.118C46.8392 21.118 41.5023 10.1687 40.5382 4.37845C40.2226 2.49044 41.4966 0.711465 43.3846 0.39584C45.2611 0.0802172 47.0458 1.34845 47.3672 3.22498C47.5681 4.36123 49.6225 14.1915 60.1069 14.1915C70.5972 14.1915 72.6516 4.34401 72.8467 3.22498C73.1795 1.34845 74.9642 0.091693 76.8465 0.407318C78.723 0.728681 79.9855 2.50192 79.6757 4.37845C78.7116 10.1687 73.3746 21.118 60.1069 21.118Z" fill="black"/>
  </g>
  <path d="M76.26 51.1138C70.5328 51.1138 65.873 46.4598 65.873 40.7326C65.873 35.0055 70.5328 30.3457 76.26 30.3457C81.9871 30.3457 86.6411 35.0055 86.6411 40.7326C86.6411 46.4598 81.9871 51.1138 76.26 51.1138ZM76.26 37.2722C74.349 37.2722 72.7996 38.8216 72.7996 40.7326C72.7996 42.6436 74.349 44.193 76.26 44.193C78.1652 44.193 79.7203 42.6436 79.7203 40.7326C79.7203 38.8216 78.1652 37.2722 76.26 37.2722Z" fill="black"/>
  <path d="M39.6995 113.779C37.9263 113.779 36.417 112.419 36.2564 110.623C35.9063 106.606 34.4889 97.2694 28.9568 97.2694C23.4248 97.2694 22.0073 106.606 21.6573 110.623C21.4909 112.528 19.8152 113.946 17.9042 113.768C15.999 113.602 14.593 111.92 14.7595 110.015C15.8555 97.5162 21.0318 90.3486 28.9568 90.3486C36.8819 90.3486 42.0581 97.5162 43.1542 110.015C43.3206 111.92 41.9146 113.602 40.0094 113.768C39.9061 113.774 39.8028 113.779 39.6995 113.779Z" fill="black"/>
  <mask id="mask2_146_338" style="mask-type:luminance" maskUnits="userSpaceOnUse" x="0" y="79" width="59" height="53">
    <path d="M0 79.1641H58.7635V132H0V79.1641Z" fill="white"/>
  </mask>
  <g mask="url(#mask2_146_338)">
    <path d="M46.5463 131.89C45.6798 131.89 44.8133 131.747 43.9697 131.454C31.052 127.007 24.9232 126.938 14.1805 131.127C12.172 131.907 9.91095 131.827 7.96555 130.92C6.01442 130.002 4.56829 128.378 3.88539 126.335L0.287272 115.547C0.172501 115.191 0.109375 114.824 0.109375 114.451C0.109375 102.721 6.14067 80.541 28.9574 80.541C40.8479 80.541 49.6337 86.5379 54.3623 97.8946C57.7653 106.049 57.8055 114.112 57.8055 114.451C57.8055 114.824 57.7424 115.191 57.6276 115.547L53.9549 126.553C53.2892 128.539 51.889 130.146 50.0067 131.075C48.9106 131.615 47.7342 131.89 46.5463 131.89ZM27.9073 121.119C33.2671 121.119 38.8795 122.381 46.225 124.906C46.5463 125.021 46.816 124.929 46.948 124.866C47.0972 124.792 47.2923 124.642 47.3899 124.361L50.8675 113.923C50.7413 110.043 49.1115 87.4618 28.9574 87.4618C8.72305 87.4618 7.16214 110.02 7.04163 113.917L10.4561 124.149C10.5537 124.436 10.7545 124.579 10.9037 124.654C11.0472 124.717 11.3284 124.803 11.667 124.671C17.7442 122.307 22.7081 121.119 27.9073 121.119Z" fill="black"/>
  </g>
  <path d="M54.3396 117.911C53.9149 117.911 53.4788 117.837 53.0541 117.665C37.0663 111.272 20.849 111.272 4.86116 117.665C3.08219 118.382 1.06793 117.51 0.362078 115.737C-0.349511 113.963 0.511282 111.949 2.28452 111.237C19.9824 104.162 37.9271 104.162 55.625 111.237C57.404 111.949 58.2648 113.963 57.5532 115.737C57.0138 117.091 55.7169 117.911 54.3396 117.911Z" fill="black"/>
  <mask id="mask3_146_338" style="mask-type:luminance" maskUnits="userSpaceOnUse" x="64" y="61" width="68" height="71">
    <path d="M64.6396 61.5352H131.65V132H64.6396V61.5352Z" fill="white"/>
  </mask>
  <g mask="url(#mask3_146_338)">
    <path d="M131.627 128.04L124.706 65.7359C124.511 63.9799 123.03 62.6543 121.263 62.6543H75.1072C73.3454 62.6543 71.8649 63.9799 71.664 65.7359L64.749 128.04C64.6399 129.021 64.9498 129.997 65.6098 130.732C66.264 131.466 67.2051 131.885 68.1864 131.885H128.189C129.171 131.885 130.112 131.466 130.766 130.732C131.42 129.997 131.736 129.021 131.627 128.04ZM98.1879 96.3458C88.6446 96.3458 80.8802 88.5814 80.8802 79.0381C80.8802 77.1271 82.4297 75.5777 84.3406 75.5777C86.2516 75.5777 87.801 77.1271 87.801 79.0381C87.801 84.7652 92.4608 89.425 98.1879 89.425C103.915 89.425 108.569 84.7652 108.569 79.0381C108.569 77.1271 110.124 75.5777 112.035 75.5777C113.946 75.5777 115.496 77.1271 115.496 79.0381C115.496 88.5814 107.731 96.3458 98.1879 96.3458Z" fill="black"/>
  </g>
</svg>