<?xml version="1.0" encoding="utf-8"?>
<svg xmlns="http://www.w3.org/2000/svg" width="152" height="132" fill="none" id="ppc-icon-image" class="PPC pay-per-click digital advertising symbol logo icon">
  <desc>The PPC icon represents cost-per-click advertising, ideal for agencies running online ad campaigns.</desc>
  <title>PPC Icon - Pay-Per-Click Advertising Logo</title>
  <mask id="a" width="152" height="132" x="0" y="0" maskUnits="userSpaceOnUse" style="mask-type:luminance">
    <path fill="#fff" d="M0 0h151.224v132H0z"/>
  </mask>
  <g mask="url(#a)">
    <path fill="#000" d="M149.453 106.934h-9.01l-5.104-6.994h6.465c.976 0 1.77-.875 1.77-1.948V11.91c0-6.334-4.732-11.497-10.541-11.497H18.178C12.375.413 7.662 5.576 7.662 11.91v86.082c0 1.073.794 1.948 1.77 1.948h94.219l1.298 6.994H93.242c-.977 0-1.77.868-1.77 1.942v8.337H59.715v-8.337c0-1.074-.795-1.942-1.777-1.942H1.777c-.983 0-1.777.868-1.777 1.942v9.507c0 7.18 5.33 13.025 11.89 13.025h127.475c6.541 0 11.859-5.845 11.859-13.025v-9.507c0-1.074-.794-1.942-1.771-1.942m-9.426-10.884h-7.53l-1.67-2.285 9.2-3.05zm-128.824 0V11.91c0-4.193 3.125-7.614 6.975-7.614h114.855c3.856 0 7 3.421 7 7.614v73.187l-7.284-3.573V14.223c0-1.074-.794-1.941-1.77-1.941H20.251c-.976 0-1.795.895-1.795 1.969v71.886c0 1.074.794 1.941 1.77 1.941h81.226l1.475 7.972zm86.462-28.39 3.069 16.535h-78.73v-68.03h107.198v63.61l-29.067-14.291c-1.323-.647-2.753.633-2.47 2.175m6.976 18.119c0-.014.006-.021 0-.028l-2.804-15.16 34.907 17.15-9.445 3.139c-1.204.4-1.651 2.003-.87 3.07l12.42 17.012-9.2 8.075-12.425-17.018c-.782-1.067-2.307-.936-2.924.261l-2.905 5.625c-.006.007-.012.007-.012.014l-1.941 3.759zm11.625 21.155h-.296l.126-.241zm31.417 11.449c0 5.039-3.731 9.135-8.318 9.135H11.89c-4.6 0-8.343-4.096-8.343-9.135v-7.566h52.62v8.337c0 1.074.794 1.948 1.77 1.948h35.305c.977 0 1.77-.874 1.77-1.948v-8.337h10.649l1.248 6.733c.321 1.742 2.476 2.148 3.283.571l3.768-7.304h5.129l8.897 12.171c.611.84 1.726.971 2.489.303l11.978-10.512c.472-.413.775-1.239.624-1.962h4.606z"/>
  </g>
  <path fill="#000" d="M47.39 32.9h-9.471v30.236h4.656V54.27h4.89q6.085.001 9.023-2.547c1.96-1.707 2.943-4.385 2.943-8.048 0-3.662-.964-6.375-2.88-8.137-1.928-1.756-4.978-2.637-9.162-2.637m5.86 15.118q-1.401 1.62-5.268 1.618h-5.413v-12.11h4.738q3.792 0 5.57 1.301c1.185.861 1.771 2.341 1.771 4.434s-.46 3.676-1.399 4.757M74.389 32.9h-9.477v30.236h4.663V54.27h4.89c4.05 0 7.063-.847 9.022-2.547 1.96-1.707 2.937-4.385 2.937-8.048q.002-5.494-2.88-8.137Q80.663 32.9 74.39 32.9m5.86 15.118q-1.4 1.62-5.268 1.618h-5.406v-12.11h4.732q3.791 0 5.57 1.301 1.768 1.293 1.77 4.434c.007 2.093-.466 3.676-1.398 4.757m35.032 10.148-2.999-3.374q-1.899 1.941-3.636 2.83c-1.153.592-2.539.888-4.14.888q-3.875-.002-6.691-3.091-2.828-3.098-2.83-7.704c-.002-4.606.952-5.597 2.849-7.573q2.837-2.961 7.025-2.96c1.575 0 2.955.276 4.127.82s2.407 1.514 3.731 2.898l2.961-3.546q-4.31-5.195-10.718-5.197-6.418 0-10.623 4.502c-2.798 3.002-4.203 6.747-4.203 11.249 0 4.495 1.373 8.22 4.127 11.16q4.119 4.41 10.384 4.412c4.171.007 7.712-1.769 10.636-5.314M15.76 113.674H9.274c-.976 0-1.77.874-1.77 1.948v7.098c0 1.074.794 1.941 1.77 1.941h6.484c.977 0 1.77-.867 1.77-1.941v-7.098c0-1.074-.793-1.948-1.77-1.948m-1.778 7.105h-2.93v-3.215h2.93zm14.525-7.105h-6.478c-.976 0-1.77.874-1.77 1.948v7.098c0 1.074.794 1.941 1.77 1.941h6.478c.977 0 1.77-.867 1.77-1.941v-7.098c0-1.074-.793-1.948-1.77-1.948m-1.77 7.105h-2.937v-3.215h2.936z"/>
</svg>