<?xml version="1.0" encoding="utf-8"?>
<svg xmlns="http://www.w3.org/2000/svg" width="137" height="132" fill="none" class="blog writing content creation symbol icon logo" id="blog-writing-icon-image">
  <title>Blog Writing Icon - Pen and Document Graphic</title>
  <desc>The blog writing icon showcases content creation services, perfect for sharing expertise and engaging audiences.</desc>
  <path fill="#000" d="M11.482 26.796c2.608 0 4.72-2.126 4.72-4.74s-2.113-4.74-4.72-4.74c-2.6 0-4.72 2.126-4.72 4.74s2.12 4.74 4.72 4.74m0-5.31a.57.57 0 0 1 .571.57.568.568 0 1 1-1.135 0c0-.316.255-.57.564-.57m11.992 5.31c2.6 0 4.72-2.126 4.72-4.74s-2.12-4.74-4.72-4.74c-2.607 0-4.726 2.126-4.726 4.74s2.119 4.74 4.726 4.74m0-5.31c.31 0 .564.254.564.57a.568.568 0 1 1-1.135 0 .57.57 0 0 1 .571-.57m11.985 5.31c2.607 0 4.726-2.126 4.726-4.74s-2.119-4.74-4.726-4.74c-2.6 0-4.72 2.126-4.72 4.74s2.12 4.74 4.72 4.74m0-5.31a.57.57 0 0 1 .57.57.568.568 0 1 1-1.135 0c0-.316.255-.57.565-.57m-20 51.644h80.994c3.31 0 5.999-2.703 5.999-6.02V45.88c0-3.316-2.69-6.02-5.999-6.02H15.46c-3.302 0-5.992 2.704-5.992 6.02v21.23c0 3.317 2.69 6.02 5.992 6.02m-1.837-27.25c0-1.018.826-1.85 1.837-1.85h80.994a1.85 1.85 0 0 1 1.844 1.85v21.23a1.85 1.85 0 0 1-1.844 1.852H15.46a1.85 1.85 0 0 1-1.837-1.851z"/>
  <path fill="#000" d="M29.713 66.272c1.06-.117 1.947-.427 2.67-.936a5.3 5.3 0 0 0 1.705-2.036 5.9 5.9 0 0 0 .626-2.628q0-1.715-.97-2.986c-.64-.846-1.568-1.445-2.765-1.796A4.6 4.6 0 0 0 33 54.15a4.65 4.65 0 0 0 .743-2.553q.001-1.28-.605-2.311a4.95 4.95 0 0 0-1.507-1.658 5.2 5.2 0 0 0-2.057-.819q-1.153-.194-3.495-.192h-7.877v19.792h6.715c2.531-.02 4.134-.062 4.795-.137m-7.527-16.36h2.285c1.87 0 3.006.02 3.405.069.66.075 1.163.31 1.493.694.337.379.509.881.509 1.493 0 .633-.2 1.15-.585 1.541q-.588.586-1.61.709-.567.07-2.89.069h-2.607zm0 7.87H25.4c1.81 0 2.986.097 3.53.282.543.193.956.489 1.245.908q.424.62.426 1.507 0 1.055-.557 1.685t-1.445.785q-.576.123-2.73.124h-3.682zm29.873 5.291h-9.893V46.782h-3.983v19.627h13.876zm11.62 3.673q4.334.002 6.935-2.71c1.727-1.803 2.594-4.3 2.594-7.5 0-3.219-.874-5.737-2.615-7.546-1.747-1.81-4.066-2.71-6.969-2.71-1.61 0-3.02.26-4.251.784-.922.385-1.776.977-2.546 1.781a9.3 9.3 0 0 0-1.837 2.711c-.598 1.369-.901 3.061-.901 5.077 0 3.151.867 5.62 2.593 7.416 1.734 1.796 4.06 2.697 6.997 2.697m-3.983-15.355c1.004-1.128 2.325-1.7 3.97-1.7 1.637 0 2.95.565 3.941 1.68q1.486 1.671 1.486 5.076 0 3.436-1.527 5.16c-1.018 1.15-2.318 1.72-3.9 1.72-1.59 0-2.897-.578-3.929-1.734q-1.548-1.733-1.548-5.097c0-2.27.502-3.977 1.507-5.105m20.543 14.055q2.3 1.3 5.394 1.3c1.623 0 3.22-.31 4.802-.922q2.375-.93 3.626-2.14v-7.89h-8.58v3.337h4.562v2.51c-.606.468-1.321.867-2.16 1.198s-1.672.488-2.505.488q-2.528.002-4.086-1.761c-1.046-1.17-1.562-2.93-1.562-5.284 0-2.18.51-3.818 1.541-4.925q1.54-1.663 4.142-1.665 1.722 0 2.875.846c.764.564 1.287 1.328 1.562 2.305l3.956-.744c-.392-1.816-1.28-3.247-2.656-4.272q-2.064-1.548-5.737-1.548c-1.878 0-3.454.33-4.713.984q-2.485 1.282-3.784 3.688-1.288 2.401-1.286 5.496c0 1.9.385 3.653 1.156 5.27s1.92 2.855 3.453 3.729M50.312 79.095H11.27a2.08 2.08 0 0 0-2.078 2.085v40.163c0 1.156.936 2.085 2.078 2.085h39.042a2.08 2.08 0 0 0 2.078-2.085V81.18a2.08 2.08 0 0 0-2.078-2.085m-2.078 40.164H13.348V83.264h34.886z"/>
  <path fill="#000" d="M19.786 116.122h22.008a2.086 2.086 0 0 0 2.077-2.085v-2.256c0-4.514-2.29-8.634-5.978-11.029a8.9 8.9 0 0 0 1.81-5.4c0-4.933-3.998-8.95-8.917-8.95-4.912 0-8.909 4.017-8.909 8.95 0 2.03.674 3.9 1.81 5.4a13.15 13.15 0 0 0-5.979 11.029v2.256c0 1.149.936 2.085 2.078 2.085m11-25.545c2.628 0 4.761 2.14 4.761 4.775s-2.133 4.781-4.76 4.781c-2.622 0-4.755-2.146-4.755-4.781s2.133-4.775 4.754-4.775m-8.923 21.204a8.96 8.96 0 0 1 5.367-8.222 8.8 8.8 0 0 0 3.556.743 8.75 8.75 0 0 0 3.557-.743 8.95 8.95 0 0 1 5.373 8.222v.165H21.863z"/>
  <mask id="a" width="137" height="132" x="0" y="0" maskUnits="userSpaceOnUse" style="mask-type:luminance">
    <path fill="#fff" d="M0 0h136.444v132H0z"/>
  </mask>
  <g mask="url(#a)">
    <path fill="#000" d="M131.168 54.04a10.62 10.62 0 0 0-8.05-1.645 10.62 10.62 0 0 0-6.845 4.548l-3.048 4.527-1.307 1.947V36.93l.33-.138a2.08 2.08 0 0 0 1.28-2.03l-.165-3.301 1.245-1.252 3.282.172a2.09 2.09 0 0 0 2.029-1.287l1.748-4.245a2.1 2.1 0 0 0-.523-2.352l-2.442-2.209V18.52l2.442-2.215c.653-.592.86-1.534.523-2.346l-1.748-4.252a2.09 2.09 0 0 0-2.029-1.286l-3.282.172-1.245-1.252.165-3.303a2.08 2.08 0 0 0-1.28-2.03l-4.23-1.76a2.07 2.07 0 0 0-2.333.53l-2.208 2.455h-1.761L99.514.777a2.08 2.08 0 0 0-2.339-.53l-4.23 1.762a2.09 2.09 0 0 0-1.28 2.03l.165 3.302-1.239 1.252-3.288-.172a2.09 2.09 0 0 0-2.03 1.286l-.715 1.734H8.448C3.791 11.44 0 15.252 0 19.93v103.586C0 128.196 3.79 132 8.448 132h95.015c4.665 0 8.455-3.804 8.455-8.483v-21.602l19.091-28.385 3.041-4.527c3.316-4.926 2.016-11.634-2.882-14.963m-27.732 53.021-10.898-7.389 22.965-34.143 8.95 6.068 1.947 1.327zm-3.667 2.553-8.91 4.354.696-9.927zm-9.804-93.57-2.043-1.851.633-1.528 2.745.138a2.06 2.06 0 0 0 1.575-.605l2.546-2.56c.42-.42.64-.997.612-1.582l-.144-2.759 1.52-.633 1.844 2.05c.392.44.956.688 1.541.688h3.605c.591 0 1.149-.247 1.541-.687l1.844-2.05 1.52.632-.138 2.76a2.07 2.07 0 0 0 .606 1.581l2.552 2.56c.413.42.984.64 1.576.605l2.738-.138.633 1.528-2.044 1.85a2.1 2.1 0 0 0-.681 1.548v3.619c0 .592.248 1.156.681 1.548l2.044 1.85-.633 1.528-2.738-.138a2.04 2.04 0 0 0-1.576.606l-2.552 2.559c-.42.42-.64.997-.606 1.582l.138 2.759-1.52.633-1.844-2.05a2.06 2.06 0 0 0-1.541-.688h-3.605c-.585 0-1.149.247-1.541.688l-1.844 2.05-1.52-.633.144-2.759a2.1 2.1 0 0 0-.612-1.582l-2.546-2.56c-.42-.419-.99-.64-1.575-.605l-2.745.138-.633-1.527 2.043-1.851c.434-.392.681-.956.681-1.548v-3.619a2.1 2.1 0 0 0-.68-1.548m-81.517-.427h75.105c.117.254.282.488.496.688l2.449 2.215v1.768l-2.45 2.209a2.11 2.11 0 0 0-.522 2.352l1.06 2.566-80.43.847V19.93c0-2.38 1.926-4.313 4.292-4.313m99.315 107.9c0 2.374-1.926 4.314-4.3 4.314H8.448c-2.366 0-4.293-1.94-4.293-4.314V32.431l87.66-.922h.015l-.165 3.254a2.09 2.09 0 0 0 1.28 2.03l4.23 1.76a2.08 2.08 0 0 0 2.34-.53l2.201-2.455h1.761l2.208 2.456c.399.447.963.688 1.541.688.179 0 .358-.02.537-.069v30.608q0 .154.021.31L87.936 99.066a2.08 2.08 0 0 0-.31 1.61l-1.163 16.601a2.1 2.1 0 0 0 .909 1.878 2.1 2.1 0 0 0 1.162.357c.31 0 .62-.068.908-.213l14.902-7.285c.014 0 .034-.007.048-.007a2.07 2.07 0 0 0 1.328-.881l2.043-3.034zm22.847-56.853-1.885 2.8-10.897-7.389 1.885-2.8a6.56 6.56 0 0 1 4.197-2.786 6.5 6.5 0 0 1 4.932 1.011c3 2.036 3.798 6.15 1.768 9.164"/>
  </g>
  <path fill="#000" d="M57.913 84.214h32.362v4.169H57.913zm0 9.019H86.43v4.176H57.913zm0 9.026h25.634v4.176H57.913zm0 9.026h25.634v4.169H57.913zm44.684-82.893c4.94 0 8.95-4.031 8.95-8.991 0-4.954-4.01-8.992-8.95-8.992-4.933 0-8.95 4.038-8.95 8.992 0 4.953 4.017 8.991 8.95 8.991m0-13.807c2.649 0 4.795 2.16 4.795 4.816s-2.146 4.815-4.795 4.815c-2.642 0-4.795-2.16-4.795-4.815s2.153-4.816 4.795-4.816"/>
</svg>