<?xml version="1.0" encoding="utf-8"?>
<svg xmlns="http://www.w3.org/2000/svg" width="96" height="132" fill="none" class="bulk messages SMS marketing mass messaging symbol icon logo" id="bulk-messages-icon-image">
  <title>Bulk Messages Icon - Message Bubble with Multiple Arrows</title>
  <desc>This bulk messages icon represents efficient mass communication for marketing and customer engagement.









</desc>
  <mask id="a" width="72" height="132" x="0" y="0" maskUnits="userSpaceOnUse" style="mask-type:luminance">
    <path fill="#fff" d="M0 0h71.63v132H0z"/>
  </mask>
  <g mask="url(#a)">
    <path fill="#000" d="M65.629 113.561H4.819v-92.77h60.81v8.93h4.75V12.884c0-8.573-4.372-12.939-12.96-12.939H13.352C4.757-.055.385 4.311.385 12.884v106.102c0 8.573 4.38 12.938 12.966 12.938H57.42c8.587 0 12.96-4.365 12.96-12.938V80.981h-4.751zM23.519 7.701h23.733a2.673 2.673 0 0 1 2.674 2.673 2.673 2.673 0 0 1-2.674 2.675H23.519a2.68 2.68 0 0 1-2.681-2.675A2.68 2.68 0 0 1 23.519 7.7"/>
  </g>
  <mask id="b" width="65" height="54" x="31" y="33" maskUnits="userSpaceOnUse" style="mask-type:luminance">
    <path fill="#fff" d="M31.15 33.44h63.89v52.8H31.15z"/>
  </mask>
  <g mask="url(#b)">
    <path fill="#000" d="M88.247 34.12h-49.54c-3.603 0-6.532 2.923-6.532 6.525v28.8c0 3.602 2.929 6.524 6.531 6.524h1.396l1.272 1.787 2.289 3.232 2.667 3.753a1.29 1.29 0 0 0 1.589.18c.089-.056.185-.097.26-.18l2.668-3.753 3.555-5.02h33.845a6.527 6.527 0 0 0 6.532-6.523v-28.8c0-3.602-2.93-6.524-6.532-6.524M37.634 61.29c-.53-.824-.798-1.65-.798-2.454 0-.55.2-1.03.584-1.423.385-.398.88-.598 1.472-.598.488 0 .928.165 1.272.481.302.282.563.688.77 1.21.192.475.398.887.618 1.21.193.268.475.51.832.695.365.185.866.282 1.499.282.873 0 1.574-.2 2.097-.585.474-.357.708-.777.708-1.292 0-.399-.11-.715-.344-.949-.275-.282-.632-.495-1.086-.653a25 25 0 0 0-2.07-.557c-1.223-.282-2.268-.626-3.1-1.01-.887-.413-1.595-.984-2.124-1.699-.537-.729-.805-1.65-.805-2.715 0-1.025.282-1.946.846-2.743.55-.791 1.361-1.403 2.4-1.822 1.003-.406 2.192-.612 3.526-.612 1.073 0 2.014.137 2.812.412.804.275 1.485.64 2.028 1.1.543.468.949.97 1.21 1.492q.392.804.392 1.588c0 .53-.186 1.018-.557 1.437-.742.839-2.09.839-2.73.227-.24-.24-.487-.591-.749-1.08q-.423-.855-.948-1.299c-.317-.254-.901-.392-1.685-.392-.75 0-1.34.159-1.774.461-.508.364-.563.701-.563.928 0 .206.048.378.158.523.13.178.323.336.57.467.282.158.571.275.853.364.316.097.846.234 1.581.427.942.22 1.815.467 2.578.729.805.281 1.506.625 2.077 1.03a4.6 4.6 0 0 1 1.409 1.623q.507.982.509 2.365c0 1.1-.29 2.11-.867 2.99-.57.888-1.409 1.582-2.495 2.077-1.059.481-2.324.729-3.768.729-1.718 0-3.17-.337-4.317-1.004a5.9 5.9 0 0 1-2.021-1.96m33.756.516c0 .77-.193 1.369-.564 1.788a2 2 0 0 1-.447.357 2.15 2.15 0 0 1-1.1.296q-.908-.002-1.505-.653c-.379-.42-.571-1.025-.571-1.788v-6.97l-1.568 6.221c0 .02-.006.027-.013.041-.172.68-.317 1.19-.42 1.506a2.64 2.64 0 0 1-.763 1.107q-.6.536-1.581.536c-.495 0-.928-.117-1.286-.337a2.3 2.3 0 0 1-.825-.845 4.3 4.3 0 0 1-.405-1.004c-.09-.316-.18-.653-.268-.997l-1.575-6.236v6.978c0 .777-.185 1.362-.564 1.788-.749.839-2.248.866-3.045.007-.378-.413-.57-1.018-.57-1.795V48.73c0-.914.267-1.56.81-1.918q.704-.474 1.83-.474h1.037c.702 0 1.217.068 1.568.213.405.158.729.467.921.887.151.323.31.818.495 1.519l1.87 7.047 1.877-7.047c.179-.694.344-1.196.495-1.52a1.65 1.65 0 0 1 .399-.556 1.8 1.8 0 0 1 .515-.337c.358-.138.873-.206 1.575-.206h1.038c.653 0 1.19.144 1.63.385.061.034.144.048.199.089.536.358.81.997.81 1.911zm16.789-.357c-.571.88-1.417 1.581-2.503 2.076-1.059.481-2.324.722-3.76.722-1.726 0-3.177-.337-4.325-.997a5.9 5.9 0 0 1-2.021-1.96c-.523-.824-.79-1.65-.79-2.447 0-.557.199-1.038.584-1.43.385-.398.88-.598 1.47-.598.489 0 .922.165 1.273.481q.464.436.763 1.21c.2.482.405.894.625 1.203.2.29.475.516.832.702.365.185.867.282 1.5.282.865 0 1.573-.193 2.096-.585.474-.357.708-.777.708-1.292 0-.399-.11-.715-.344-.949-.275-.275-.64-.495-1.086-.653-.509-.172-1.21-.358-2.07-.557-1.223-.282-2.268-.619-3.1-1.01-.88-.413-1.595-.984-2.124-1.699-.537-.729-.805-1.643-.805-2.715 0-1.025.282-1.946.846-2.743.55-.791 1.361-1.403 2.4-1.822 1.003-.406 2.186-.612 3.52-.612 1.072 0 2.02.137 2.818.405.804.275 1.485.654 2.028 1.107.543.468.949.97 1.203 1.492q.401.796.4 1.581 0 .805-.558 1.444c-.75.839-2.097.832-2.73.22-.24-.227-.487-.577-.755-1.08q-.403-.846-.95-1.292c-.309-.261-.893-.398-1.677-.398-.75 0-1.347.158-1.773.467-.51.364-.564.701-.564.921 0 .213.048.385.158.53.137.178.323.33.57.467q.421.229.853.364c.316.09.846.234 1.581.42.95.22 1.822.467 2.578.736.798.275 1.5.625 2.07 1.03.598.42 1.072.963 1.41 1.623.336.646.508 1.444.508 2.365 0 1.1-.289 2.11-.86 2.99"/>
  </g>
</svg>