<?xml version="1.0" encoding="utf-8"?>
<svg xmlns="http://www.w3.org/2000/svg" width="141" height="132" fill="none" id="online-reputation-management-icon-image" class="Online reputation ORM brand symbol icon logo">
  <desc>This icon reflects managing online brand reputation and trust, symbolized by a shield and star design. Ideal for branding and ORM agencies.
</desc>
  <title>Online Reputation Management Icon - Brand Reputation Tool Logo</title>
  <mask id="a" width="140" height="34" x="1" y="98" maskUnits="userSpaceOnUse" style="mask-type:luminance">
    <path fill="#fff" d="M1.132 98.594h139.04V132H1.132z"/>
  </mask>
  <g mask="url(#a)">
    <path fill="#000" d="M133.083 119.941c-.88 0-1.98.22-2.64.66l-13.186-13.159c.44-.88.66-1.753.66-2.853 0-3.286-2.64-5.92-5.94-5.92a5.905 5.905 0 0 0-5.933 5.92c0 1.1.22 1.973.66 2.853l-13.193 13.159c-1.973-1.1-4.173-.88-5.713.22l-11.433-8.992c.44-.66.44-1.533.44-2.413a5.9 5.9 0 0 0-5.934-5.92 5.905 5.905 0 0 0-5.933 5.92c0 .88.22 1.973.66 2.633l-11.433 8.985c-.88-.653-2.2-1.093-3.513-1.093-.88 0-1.76.22-2.42.66L35.26 107.442c.44-.88.88-1.753.88-2.853a5.9 5.9 0 0 0-5.933-5.92 5.9 5.9 0 0 0-5.933 5.92c0 1.1.44 2.193.88 3.293L11.96 121.034c-.88-.653-1.98-.873-3.293-.873-3.3 0-5.94 2.633-5.94 5.92A5.906 5.906 0 0 0 8.667 132a5.905 5.905 0 0 0 5.933-5.919c0-.88-.22-1.754-.44-2.414l13.406-13.371c.66.433 1.54.433 2.42.433s1.98-.213 2.64-.653l12.966 12.931c-.66.88-.88 1.98-.88 3.074a5.906 5.906 0 0 0 5.94 5.919 5.905 5.905 0 0 0 5.933-5.919c0-.66-.22-1.534-.44-2.194l11.653-9.205c.873.433 1.754.873 2.853.873s2.2-.44 3.3-.873l11.647 8.985c-.44.66-.66 1.534-.66 2.414a5.906 5.906 0 0 0 5.94 5.919 5.905 5.905 0 0 0 5.933-5.919c0-1.094-.22-1.974-.88-2.854l13.193-13.151c.88.44 1.753.653 2.853.653s1.98-.213 2.86-.653l13.186 13.151c-.44.88-.88 1.76-.88 2.854a5.906 5.906 0 0 0 5.94 5.919 5.905 5.905 0 0 0 5.933-5.919c0-3.507-2.64-6.14-5.933-6.14M8.88 128.274c-1.313 0-2.413-1.1-2.413-2.633 0-1.314 1.1-2.634 2.633-2.634 1.32 0 2.64 1.1 2.64 2.634-.22 1.533-1.32 2.633-2.86 2.633m18.686-23.685c0-1.313 1.1-2.626 2.64-2.626 1.32 0 2.64 1.093 2.64 2.626 0 1.32-1.1 2.633-2.64 2.633-1.32 0-2.64-1.313-2.64-2.633m23.306 23.685c-1.32 0-2.64-1.1-2.64-2.633 0-1.314 1.1-2.634 2.64-2.634 1.313 0 2.633 1.1 2.633 2.634s-1.32 2.633-2.633 2.633m17.58-18.858c0-1.314 1.1-2.634 2.64-2.634 1.32 0 2.64 1.1 2.64 2.634 0 .66-.22 1.313-.66 1.753s-1.1.66-1.76.66c-1.76.22-2.86-1.1-2.86-2.413m22.646 18.858c-1.32 0-2.64-1.1-2.64-2.633 0-3.507 5.273-3.507 5.273 0 0 1.533-1.313 2.633-2.633 2.633m18.466-23.685c0-1.313 1.093-2.626 2.633-2.626 1.32 0 2.64 1.093 2.64 2.626 0 1.32-1.1 2.633-2.64 2.633s-2.633-1.313-2.633-2.633m23.519 23.685c-1.32 0-2.64-1.1-2.64-2.633 0-1.314 1.1-2.634 2.64-2.634 1.32 0 2.633 1.1 2.633 2.634s-1.093 2.633-2.633 2.633"/>
  </g>
  <path fill="#000" d="M.967 62.714v26.75c0 4.167 3.52 7.453 7.7 7.453h121.556c4.18 0 7.693-3.286 7.693-7.453v-26.75c0-4.166-3.513-7.46-7.693-7.46h-13.846l2.2-4.819c4.613-.66 14.066-2.413 20.219-7.9 4.84-4.159-1.54-11.838-6.593-7.232-4.4 3.946-13.846 5.92-15.606 5.046l-9.013-4.166c-1.98-.88-3.74-5.706-4.18-7.9-.22-.652-.66-1.092-1.1-1.092-.653-.22-1.093 0-1.533.44-1.54 1.533-3.3 3.066-5.06 4.599-.66.44-.66 1.32-.44 1.98 1.54 3.726 2.64 5.48 3.74 7.012l-6.593 13.812h-5.94V37.716a84 84 0 0 0 9.673-7.02c1.98-1.752 3.96-3.505 5.5-5.259 3.733-3.946 6.373-7.892 8.133-12.058 1.533-3.293.22-7.24-2.86-8.773-3.52-1.753-7.913-.44-9.453 3.287-3.52 7.892-12.313 14.471-17.366 17.765-.44.22-1.1.433-1.54.433H61.638c-.66 0-1.1-.213-1.54-.434-3.953-2.633-13.626-9.432-17.366-17.764-1.533-3.507-5.933-5.04-9.446-3.287-3.08 1.533-4.4 5.48-2.86 8.773 1.76 3.946 4.613 8.112 8.133 12.059 1.76 1.753 3.52 3.506 5.493 5.259 2.86 2.413 6.38 4.826 9.673 7.02v17.317h-5.933L41.2 41.222s0-.22.22-.22c1.1-1.533 2.413-3.286 3.953-6.792.22-.66 0-1.32-.44-1.98-1.76-1.533-3.513-3.066-5.053-4.6-.44-.44-1.1-.66-1.54-.44-.66.22-1.1.66-1.1 1.094-.66 2.413-3.08 7.02-4.613 7.68l-9.013 4.165c-.44.22-.88.22-1.32.22-3.52-.44-10.113-1.76-14.066-5.266-5.06-4.606-11.214 3.073-6.6 7.24 6.16 5.479 15.606 7.232 20.226 7.892l2.2 4.82H8.667c-4.18 0-7.7 3.513-7.7 7.679m133.656 0v26.75c0 2.413-1.98 4.167-4.4 4.167H8.667c-2.42 0-4.4-1.974-4.4-4.167v-26.75c0-2.413 1.98-4.166 4.4-4.166h121.556c2.42-.22 4.4 1.753 4.4 4.166m-32.319-21.051c.66-1.534-1.093-1.534-3.513-7.673.88-.66 1.76-1.54 2.64-2.193.873 2.413 2.633 6.14 5.273 7.232l9.013 4.167c4.173 1.973 15.166-1.974 19.126-5.48 1.753-1.533 3.733 1.093 2.193 2.413-5.933 5.26-15.386 6.793-19.339 7.233-.66 0-1.1.44-1.32.88l-3.3 7.012H96.371zm-45.719-6.14c-3.52-2.193-7.033-4.606-10.113-7.24-1.98-1.532-3.74-3.286-5.273-5.039-3.52-3.726-5.94-7.459-7.693-10.965-.66-1.753 0-3.726 1.533-4.606 1.76-.874 4.18-.214 4.84 1.76 3.733 8.765 13.186 15.785 18.466 19.07 1.1.66 2.193.88 3.293.88h16.927c1.1 0 2.42-.44 3.3-.88 5.273-3.285 14.726-10.305 18.466-19.07.88-1.76 3.073-2.634 4.833-1.76 1.54.88 2.2 2.853 1.32 4.606-1.54 3.726-4.18 7.46-7.693 10.965-1.54 1.753-3.3 3.287-5.28 5.04-3.073 2.633-6.373 5.046-10.106 7.24-.44.22-.88.872-.88 1.312v18.198h-25.28V36.836c0-.44-.22-1.093-.66-1.313M24.273 48.242c-.22-.44-.66-.88-1.32-.88-3.74-.44-13.413-1.973-19.346-7.233-1.54-1.32.44-3.946 2.2-2.413 4.613 3.947 11.866 5.48 15.826 6.14 1.1.22 2.2 0 3.3-.44 8.353-4.167 10.106-3.947 11.646-6.36.88-1.533 1.98-2.846 2.86-5.04.88.874 1.76 1.534 2.64 2.194-2.42 5.26-4.84 5.7-3.96 7.453l6.153 13.371H27.566z"/>
  <path fill="#000" d="M31.085 72.8h-5.933l-1.76-5.487c-.22-.653-.88-1.093-1.54-1.093s-1.32.44-1.54 1.093l-1.76 5.486h-6.153c-.66 0-1.32.44-1.54 1.093-.22.66 0 1.54.66 1.754l4.84 3.293-1.76 5.48c-.22.66 0 1.32.66 1.752q.99.66 1.98 0l4.833-3.506 4.833 3.506c.22.22.66.22.88.22.44 0 .66 0 .88-.22.66-.433.88-1.093.66-1.753l-1.76-5.48 4.84-3.292c.66-.433.88-1.094.66-1.754-.66-.653-1.1-1.093-1.98-1.093m-7.253 6.359.66 1.753-1.76-1.1c-.22-.213-.66-.213-.88-.213-.44 0-.66 0-.88.213l-1.76 1.1.66-1.753c.22-.66 0-1.54-.66-1.973l-1.76-1.1h1.98c.66 0 1.32-.44 1.54-1.093l.66-1.974.66 1.974c.22.653.88 1.093 1.54 1.093h1.973l-1.533 1.1c-.44.433-.66 1.093-.44 1.973M63.178 72.8h-6.153l-1.76-5.487c-.22-.653-.88-1.093-1.54-1.093s-1.32.44-1.54 1.093L50.432 72.8h-5.94c-.66 0-1.32.44-1.54 1.093-.22.66 0 1.54.66 1.754l4.84 3.293-1.76 5.48c-.22.66 0 1.32.66 1.752q.99.66 1.98 0l4.833-3.506 4.84 3.506c.22.22.653.22.873.22.44 0 .66 0 .88-.22.66-.433.88-1.093.66-1.753l-2.193-5.26 4.833-3.292c.66-.433.88-1.094.66-1.754-.22-.873-.88-1.313-1.54-1.313m-7.473 6.359.66 1.753-1.76-1.1c-.22-.213-.66-.213-.88-.213s-.66 0-.88.213l-1.76 1.1.66-1.753c.22-.66 0-1.54-.66-1.973l-1.533-1.1h1.973c.66 0 1.32-.44 1.54-1.093l.66-1.974.66 1.974c.22.653.88 1.093 1.54 1.093h1.98l-1.54 1.1q-.99.651-.66 1.973M95.052 72.8h-5.934l-1.76-5.487c-.22-.653-.88-1.093-1.54-1.093s-1.313.44-1.533 1.093l-1.76 5.486h-5.94c-.653 0-1.313.44-1.533 1.093-.22.66 0 1.54.66 1.754l4.833 3.293-1.76 5.48c-.22.66 0 1.32.66 1.752q.99.66 1.98 0l4.834-3.506 4.84 3.506c.22.22.66.22.88.22.44 0 .66 0 .88-.22.653-.433.873-1.093.653-1.753l-1.754-5.48 4.834-3.292c.66-.433.88-1.094.66-1.754-.88-.653-1.54-1.093-2.2-1.093m-7.474 6.359.66 1.753-1.76-1.1c-.22-.213-.66-.213-.88-.213-.44 0-.66 0-.873.213l-1.76 1.1.66-1.753c.22-.66 0-1.54-.66-1.973l-1.54-1.1h1.98c.66 0 1.32-.44 1.534-1.093l.66-1.974.66 1.974c.22.653.88 1.093 1.54 1.093h1.98l-1.54 1.1q-.99.651-.66 1.973m18.905-5.265c-.22.66 0 1.54.66 1.753l4.833 3.293-1.76 5.48c-.213.66 0 1.32.66 1.752q.99.66 1.98 0l4.84-3.506 4.833 3.506c.22.22.66.22.88.22.44 0 .66 0 .88-.22.66-.433.88-1.093.66-1.753l-1.98-5.26 4.833-3.292c.66-.433.88-1.093.66-1.753-.22-.654-.88-1.094-1.533-1.094h-5.94l-1.76-5.486c-.22-.653-.873-1.093-1.533-1.093s-1.32.44-1.54 1.093l-1.98 5.266h-5.933c-.88 0-1.54.44-1.76 1.094m8.793 2.193c.66 0 1.32-.44 1.54-1.093l.66-1.974.66 1.974c.22.653.873 1.093 1.533 1.093h1.98l-1.54 1.1q-.99.651-.66 1.973l.66 1.753-1.753-1.1q-.99-.65-1.98 0l-1.76 1.1.66-1.753c.22-.66 0-1.54-.66-1.973l-1.54-1.1z"/>
  <mask id="b" width="26" height="25" x="57" y="0" maskUnits="userSpaceOnUse" style="mask-type:luminance">
    <path fill="#fff" d="M57.45 0h24.64v24.674H57.45z"/>
  </mask>
  <g mask="url(#b)">
    <path fill="#000" d="M69.551 24.118c6.6 0 12.093-5.48 12.093-12.06C81.644 5.48 76.151 0 69.551 0c-6.593 0-12.086 5.48-12.086 12.059 0 6.8 5.273 12.059 12.086 12.059m0-20.825c4.84 0 8.793 3.946 8.793 8.766 0 4.826-3.953 8.772-8.793 8.772-4.833 0-8.793-3.946-8.793-8.772 0-4.82 3.96-8.766 8.793-8.766"/>
  </g>
  <path fill="#000" d="M113.737 36.836c4.18 1.973 9.233 0 10.993-3.946 2.633-5.48-1.54-11.839-7.473-11.839-3.3 0-6.16 1.973-7.474 4.826-1.98 3.947-.22 8.986 3.954 10.96m-1.1-9.645a5.14 5.14 0 0 1 4.62-2.854c3.733 0 6.153 3.733 4.613 7.24-1.1 2.413-4.173 3.506-6.593 2.413-2.64-1.32-3.74-4.386-2.64-6.8M23.172 37.496c5.933 0 10.113-6.36 7.473-11.839-1.32-2.853-4.4-4.826-7.473-4.826-3.3 0-6.593 1.973-7.913 5.48-1.76 5.486 2.193 11.185 7.913 11.185m-4.62-10.085c.66-1.974 2.64-3.294 4.62-3.294s3.733 1.1 4.613 2.854c1.54 3.286-.88 7.239-4.613 7.239-3.3 0-5.933-3.513-4.62-6.8"/>
</svg>