<?xml version="1.0" encoding="utf-8"?>
<svg xmlns="http://www.w3.org/2000/svg" width="126" height="132" fill="none" id="crm-icon-image" class="CRM customer relationship management business tool symbol icon logo">
  <desc>The CRM icon symbolizes managing customer relationships and interactions, ideal for CRM software providers and business branding.</desc>
  <title>Customer Relationship Management Tool Logo</title>
  <mask id="a" width="126" height="132" x="0" y="0" maskUnits="userSpaceOnUse" style="mask-type:luminance">
    <path fill="#fff" d="M0 0h125.4v132H0z"/>
  </mask>
  <g mask="url(#a)">
    <path fill="#000" d="m64.742 37.256-4.448.062c-.495.013-.887.405-.887.948h-.013c.02 1.561.22 2.785-.73 4.043a3.73 3.73 0 0 1-2.02 1.375 23.4 23.4 0 0 0-5.521 2.372 3.764 3.764 0 0 1-4.6-.55l-1.258-1.217v-.007c-.357-.344-.907-.337-1.292.048v-.007l-3.108 3.19h-.006c-.337.372-.337.915.048 1.293l-.007.014c1.114 1.079 2.117 1.815 2.344 3.375a3.74 3.74 0 0 1-.454 2.406 23 23 0 0 0-2.227 5.576 3.76 3.76 0 0 1-3.644 2.86l-1.732.028a.926.926 0 0 0-.908.934l.055 4.47h-.007c.02.487.413.88.963.88v.013c1.547-.02 2.777-.22 4.042.729a3.75 3.75 0 0 1 1.375 2.021 23 23 0 0 0 2.365 5.52 3.78 3.78 0 0 1-.543 4.6l-1.21 1.237a.923.923 0 0 0 .007 1.307l3.21 3.114c.358.344.908.344 1.293-.041 1.093-1.114 1.829-2.11 3.39-2.345a3.76 3.76 0 0 1 2.399.461 23 23 0 0 0 5.569 2.228 3.78 3.78 0 0 1 2.873 3.643l.028 1.733c0 .509.42.914.935.907l4.448-.055c.502 0 .914-.426.914-.935-.027-1.56-.213-2.798.73-4.056a3.76 3.76 0 0 1 2.02-1.382 23 23 0 0 0 5.514-2.365 3.77 3.77 0 0 1 4.6.55l1.237 1.203a.923.923 0 0 0 1.306-.007l3.122-3.203c.343-.371.343-.915-.042-1.3v-.007c-1.113-1.086-2.124-1.821-2.344-3.382a3.76 3.76 0 0 1 .46-2.4 23 23 0 0 0 2.221-5.582 3.774 3.774 0 0 1 3.65-2.86l1.747-.027c.488-.014.887-.406.887-.95h.007l-.062-4.434a.935.935 0 0 0-.928-.914c-1.568.02-2.798.213-4.063-.729a3.82 3.82 0 0 1-1.382-2.028 23 23 0 0 0-2.365-5.507 3.77 3.77 0 0 1 .543-4.599l1.217-1.237a.923.923 0 0 0-.02-1.307l-3.184-3.114a.92.92 0 0 0-1.3.014c-1.1 1.127-1.842 2.13-3.396 2.365a3.77 3.77 0 0 1-2.406-.461 22.3 22.3 0 0 0-5.575-2.22 3.786 3.786 0 0 1-2.867-3.651l-.028-1.746h.007c-.014-.495-.412-.887-.949-.887zm10.14 16.314c-6.792-6.627-17.668-6.497-24.295.303-6.62 6.785-6.49 17.661.302 24.296 6.793 6.62 17.669 6.497 24.29-.303 6.634-6.792 6.503-17.668-.296-24.296m-12.25-7.769c11.09-.13 20.185 8.738 20.315 19.821.138 11.082-8.724 20.171-19.813 20.309-11.09.13-20.172-8.731-20.316-19.814-.138-11.083 8.738-20.178 19.814-20.316M54.21 58.857c1.863-.385 2.44 2.44.577 2.819-3.712.756-5.568 4.207-3.128 6.751.756.777 1.843 1.368 3.128 1.63 1.857.377 1.286 3.203-.577 2.832-6.057-1.245-8.615-7.425-4.634-11.578 1.148-1.189 2.757-2.076 4.634-2.454m5.624 2.853v2.716h1.595c.501-.11 1.354-1.238.611-2.235a1.6 1.6 0 0 0-.611-.48zm0 9.756c0 1.911-2.888 1.911-2.888 0v-11.2c0-.804.646-1.45 1.444-1.45h3.286c.9 0 2.118.914 2.668 1.65 1.519 2.035.99 4.833-1.073 6.222l2.262 3.843c.956 1.63-1.526 3.093-2.489 1.464l-2.75-4.689h-.467v4.16zm9.597 0c0 1.911-2.894 1.911-2.894 0v-11.2c0-1.47 2.035-2.076 2.77-.577l2.455 4.476 2.51-4.586c.714-1.313 2.7-.798 2.7.687v11.2c0 1.911-2.887 1.911-2.887 0V65.91l-1.065 1.932c-.536 1.01-1.98 1.017-2.53.007l-1.059-1.94zm35.441 51.548v3.149c7.762-.694 13.935-6.868 14.623-14.623h-3.142c-.674 6.023-5.452 10.801-11.481 11.474m0-6.854v3.939a10.11 10.11 0 0 0 8.559-8.559h-3.939a6.24 6.24 0 0 1-4.62 4.62m-11.454-7.521h3.932a6.23 6.23 0 0 1 4.627-4.62v-3.94a10.11 10.11 0 0 0-8.56 8.56m-6.07 0h3.155c.66-6.023 5.452-10.808 11.481-11.481v-3.142c-7.762.694-13.942 6.868-14.637 14.623m3.148 2.894h-3.149c.688 7.762 6.868 13.936 14.63 14.63v-3.149c-6.03-.673-10.814-5.451-11.48-11.481m6.854 0h-3.932a10.11 10.11 0 0 0 8.559 8.56v-3.933a6.24 6.24 0 0 1-4.627-4.627m14.19-11.612 2.221-2.22a16.04 16.04 0 0 0-8.889-3.685v3.142a13.03 13.03 0 0 1 6.668 2.763m-4.846 4.847 2.791-2.777a10.14 10.14 0 0 0-4.606-1.912v3.94a6.2 6.2 0 0 1 1.815.749m-.104 4.208-2.145 2.131c-1.34 1.347-3.396-.694-2.041-2.042l2.131-2.138c-3.335-1.176-5.995 3.018-3.486 5.527 2.523 2.517 6.71-.137 5.541-3.478m4.93-4.943-2.778 2.791c.344.55.598 1.162.757 1.815h3.939a10 10 0 0 0-1.918-4.606m4.29-4.29-2.221 2.227a12.94 12.94 0 0 1 2.764 6.669h3.142a16.1 16.1 0 0 0-3.685-8.896m-74.78 7.782H20.172a.59.59 0 0 0-.592.584v14.472c0 .165.07.303.18.406v.014a.6.6 0 0 0 .419.172h10.223c.694 0 1.32.508 1.43 1.23.172 1.128 1.162 2.262 2.152 3.08-.193-1.127-.193-2.262.378-3.437a1.46 1.46 0 0 1 1.34-.873h5.328c.33 0 .592-.275.592-.592v-14.472a.6.6 0 0 0-.592-.584m-20.858-2.894H31.13V94.085c0-.73-.598-1.32-1.32-1.32H1.417a1.32 1.32 0 0 0-1.32 1.32v19.696c0 .722.59 1.32 1.32 1.32h2.757c.59 0 1.106.365 1.326.873.963 1.912.674 3.809.18 5.727 1.862-1.251 3.952-3.272 4.275-5.369a1.436 1.436 0 0 1 1.424-1.231h5.307v-6.992a3.497 3.497 0 0 1 3.486-3.478m4.207-74.67a7.5 7.5 0 0 1-3.527.867 7.6 7.6 0 0 1-3.527-.867c-.048 0-.089.007-.137.007-3.149 0-5.74 2.585-5.74 5.727v4.799a17.69 17.69 0 0 0 18.81 0v-4.799c0-3.149-2.579-5.727-5.734-5.727-.049 0-.097-.007-.145-.007m-3.52-15.675c4.187 0 7.61 3.424 7.61 7.604 0 2.159.008 3.644-1.312 5.59 3.513 1.134 6.002 4.434 6.002 8.215v2.537c7.129-6.889 7.239-18.274.226-25.28-6.923-6.923-18.136-6.923-25.059 0-7.006 7.013-6.896 18.412.227 25.28v-2.537c0-3.788 2.496-7.081 6.009-8.215-1.327-1.953-1.313-3.431-1.313-5.59.006-4.18 3.423-7.604 7.61-7.604m0 2.902c-2.585 0-4.71 2.117-4.71 4.702 0 1.794-.089 3.19 1.383 4.661 2.99 2.991 8.037.812 8.037-3.32 0-1.795.089-3.183-1.382-4.661a4.7 4.7 0 0 0-3.328-1.382m87.464 4.214h-3.726v15.936h3.726zm12.856-7.026h-3.74v22.962h3.74zM95.474 28.339h-3.727v9h3.727zm20.79-22.949L89.802 20.673c-1.65.949-3.094-1.553-1.45-2.502L114.805 2.9h-1.588c-1.904 0-1.904-2.894 0-2.894h6.985c1.059 0 1.891 1.162 1.176 2.282l-3.424 5.934c-.942 1.636-3.445.199-2.496-1.444zM74.388 37.16c0 1.904-2.901 1.904-2.901 0v-8.8c0-.798.653-1.444 1.443-1.444h5.583c1.897 0 1.897 2.887 0 2.887h-4.125zm-20.103 0c0 1.904-2.894 1.904-2.894 0v-7.357h-4.125c-1.904 0-1.904-2.887 0-2.887h5.569c.804 0 1.45.646 1.45 1.444zm17.202 57.42c0-1.905 2.9-1.905 2.9 0v7.356h4.126c1.897 0 1.897 2.894 0 2.894H72.93a1.45 1.45 0 0 1-1.443-1.451zm-20.096 0c0-1.905 2.894-1.905 2.894 0v8.799c0 .805-.646 1.451-1.45 1.451h-5.569c-1.904 0-1.904-2.894 0-2.894h4.125zm50.614 33.57c0-.797.646-1.444 1.444-1.444.804 0 1.45.647 1.45 1.444v2.406c0 .798-.646 1.444-1.45 1.444a1.443 1.443 0 0 1-1.444-1.444zM85.36 108.666a1.447 1.447 0 1 1 0 2.895h-2.406a1.447 1.447 0 1 1 0-2.895zm19.491-16.644a1.446 1.446 0 1 1-2.894 0v-2.406a1.446 1.446 0 1 1 2.894 0zm16.638 19.491a1.444 1.444 0 0 1-1.444-1.444c0-.805.646-1.451 1.444-1.451h2.406c.797 0 1.444.646 1.444 1.451 0 .797-.647 1.444-1.444 1.444z"/>
  </g>
</svg>