<?xml version="1.0" encoding="utf-8"?>
<svg xmlns="http://www.w3.org/2000/svg" width="133" height="132" fill="none" id="sem-icon-image" class="SEM search engine marketing PPC advertising symbol logo icon">
  <desc>The SEM icon represents paid search strategies and advertising campaigns. Ideal for agencies specializing in digital marketing.
</desc>
  <title>Search Engine Marketing and PPC Advertising Symbol</title>
  <path fill="#000" d="M42.22 16.355a2.195 2.195 0 1 0-1.029-4.268c-17.791 4.31-30.21 20.098-30.21 38.408C10.981 72.278 28.704 90 50.487 90a39.41 39.41 0 0 0 38.401-30.21 2.19 2.19 0 0 0-1.616-2.652 2.19 2.19 0 0 0-2.645 1.616 35.03 35.03 0 0 1-34.14 26.853c-19.366 0-35.12-15.754-35.12-35.113 0-16.28 11.044-30.314 26.853-34.14"/>
  <mask id="a" width="133" height="132" x="0" y="0" maskUnits="userSpaceOnUse" style="mask-type:luminance">
    <path fill="#fff" d="M0 0h132.608v132H0z"/>
  </mask>
  <g mask="url(#a)">
    <path fill="#000" d="M101.14 87.625c1.941-5.394-1.692-10.595-5.802-14.007 2.224-4.31 3.882-8.979 4.801-13.951a2.205 2.205 0 0 0-1.762-2.556c-1.188-.214-2.341.573-2.555 1.761-4.02 21.853-23.082 37.71-45.335 37.71-25.417 0-46.095-20.678-46.095-46.094 0-22.89 17.073-42.518 39.713-45.653a2.195 2.195 0 0 0 1.879-2.473A2.21 2.21 0 0 0 43.504.49C18.702 3.916.006 25.416.006 50.495c0 27.833 22.647 50.48 50.48 50.48 8.289 0 16.148-2.051 23.117-5.642 3.44 4.074 8.544 7.839 14.014 5.808l27.758 27.758c3.729 3.729 9.793 3.729 13.523 0 3.729-3.723 3.729-9.794 0-13.523zm-21.328 7.714-2.265-2.265a50.5 50.5 0 0 0 15.526-15.512l2.265 2.258a6.6 6.6 0 0 1 0 9.31l-6.209 6.21a6.594 6.594 0 0 1-9.317 0m45.985 30.459c-2.024 2.017-5.305 2.017-7.321 0L91.623 98.945c.842-.663 6.658-6.472 7.314-7.314l26.86 26.853a5.19 5.19 0 0 1 0 7.314"/>
  </g>
  <path fill="#000" d="M65.82 17.653a3.254 3.254 0 0 1 3.253 3.254c0 1.208.981 2.189 2.197 2.189a2.19 2.19 0 0 0 2.19-2.19c0-4.213-3.426-7.638-7.64-7.638-4.206 0-7.638 3.425-7.638 7.639 0 4.206 3.432 7.638 7.638 7.638a3.253 3.253 0 0 1 3.253 3.246 3.253 3.253 0 0 1-3.253 3.247 3.25 3.25 0 0 1-3.246-3.247 2.196 2.196 0 0 0-4.392 0c0 4.213 3.432 7.64 7.638 7.64 4.214 0 7.64-3.427 7.64-7.64s-3.426-7.638-7.64-7.638a3.25 3.25 0 0 1-3.246-3.246 3.253 3.253 0 0 1 3.246-3.254m27.931 0c1.209 0 2.19-.98 2.19-2.196a2.19 2.19 0 0 0-2.19-2.19H83.046a2.196 2.196 0 0 0-2.196 2.19v21.777c0 1.215.987 2.196 2.196 2.196H93.75a2.197 2.197 0 0 0 0-4.393h-8.509v-6.492h8.51a2.196 2.196 0 0 0 2.189-2.196 2.19 2.19 0 0 0-2.19-2.196h-8.509v-6.5zm26.473-4.303a2.2 2.2 0 0 0-2.465.933l-5.035 7.956-5.035-7.956a2.194 2.194 0 0 0-4.047 1.174v21.777a2.192 2.192 0 1 0 4.385 0v-14.2l2.839 4.489a2.21 2.21 0 0 0 1.858 1.022c.753 0 1.45-.387 1.851-1.022l2.845-4.49v14.2a2.192 2.192 0 1 0 4.386 0V15.458c0-.974-.642-1.83-1.582-2.107"/>
  <mask id="b" width="87" height="55" x="46" y="0" maskUnits="userSpaceOnUse" style="mask-type:luminance">
    <path fill="#fff" d="M46.807 0h85.801v54.203H46.807z"/>
  </mask>
  <g mask="url(#b)">
    <path fill="#000" d="M120.722.007H59.267c-6.05 0-10.975 4.924-10.975 10.975v30.727c0 6.05 4.924 10.975 10.975 10.975h61.455c6.057 0 10.975-4.924 10.975-10.975V10.982c0-6.05-4.918-10.975-10.975-10.975m6.589 41.702a6.597 6.597 0 0 1-6.589 6.59H59.267c-3.633 0-6.582-2.957-6.582-6.59V10.982A6.585 6.585 0 0 1 59.267 4.4h61.455c3.633 0 6.589 2.949 6.589 6.582z"/>
  </g>
</svg>