<?xml version="1.0" encoding="utf-8"?>
<svg width="112" height="112" viewBox="0 0 112 112" fill="none" xmlns="http://www.w3.org/2000/svg" id="back-arrow-icon-image" class="Back arrow navigation arrow, return symbol icon">
  <desc>A clean back arrow icon used for navigation or return actions on digital interfaces.
</desc>
  <title>Back Arrow Icon - Simple Navigation Design</title>
  <path d="M4.375 34.0629C16.3 5.73793 48.95 -7.56207 77.275 4.38793C105.6 16.3379 118.875 48.9629 106.95 77.2879C95.025 105.613 62.375 118.888 34.05 106.938C13.425 98.2629 0 78.0379 0 55.6629C0 48.2379 1.475 40.8879 4.375 34.0629ZM55.5 103.663C82 103.663 103.5 82.1629 103.5 55.6629C103.5 29.1629 82 7.66293 55.5 7.66293C29 7.66293 7.5 29.1629 7.5 55.6629C7.5 82.1629 29 103.663 55.5 103.663ZM48.5 26.8379L19.675 55.6629L48.5 84.4879L53.8 79.1879L34 59.4129H86.05V51.9129H34L53.775 32.1379L48.5 26.8379Z" fill="black"/>
</svg>