<?xml version="1.0" encoding="utf-8"?>
<svg xmlns="http://www.w3.org/2000/svg" width="132" height="132" fill="none" id="google-my-business-icon-image" class="Google My Business GMB local business tool management icon logo">
  <desc>The Google My Business icon features a storefront symbol, representing tools for managing local business profiles on Google. Ideal for websites focusing on local SEO and online business presence.</desc>
  <title>Google My Business Icon - Blue and White Business Tool Logo</title>
  <path fill="#000" d="M22.518 69.884c0 4.276 3.484 7.76 7.767 7.76s7.76-3.484 7.76-7.76V63.67H22.518zm37.274 0c0 4.276 3.484 7.76 7.76 7.76 4.283 0 7.767-3.484 7.767-7.76V63.67H59.792zM75.32 29.507H59.791v31.055h15.527zM48.922 77.644c4.276 0 7.76-3.484 7.76-7.76V63.67H41.154v6.213c0 4.276 3.484 7.76 7.767 7.76M22.826 60.562h15.355l2.822-31.055H28.47c-.497 2.728-4.874 26.8-5.644 31.055m33.855-31.055H44.127l-2.83 31.055h15.384zm-39.6-12.425a4.66 4.66 0 0 0 4.658-4.657 4.66 4.66 0 0 0-4.658-4.658 4.66 4.66 0 0 0-4.657 4.658 4.66 4.66 0 0 0 4.657 4.657m73.901 12.425H78.421v31.055h15.383zM124.233 0c-4.276 0-7.76 3.484-7.76 7.767 0 4.276 3.484 7.76 7.76 7.76 4.283 0 7.767-3.484 7.767-7.76C132 3.484 128.516 0 124.233 0m6.327 60.562-11.295-31.055h-9.473l5.644 31.055zm-33.502 9.322c0 4.276 3.484 7.76 7.767 7.76s7.76-3.484 7.76-7.76V63.67H97.058zm15.224-9.322-5.651-31.055H94.099l2.822 31.055zM86.188 77.644c4.283 0 7.767-3.484 7.767-7.76V63.67H78.421v6.213c0 4.276 3.484 7.76 7.767 7.76m13.202 42.314c-7.06 0-12.805-5.745-12.805-12.806 0-7.055 5.744-12.8 12.806-12.8 2.332 0 4.557.612 6.529 1.786l1.641-2.196a15.4 15.4 0 0 0-8.17-2.318c-8.566 0-15.535 6.968-15.535 15.528 0 8.566 6.969 15.534 15.535 15.534 9.049 0 16.261-7.774 15.47-16.895h-9.754v2.728h5.118c1.029 0 1.771.979 1.49 1.973-1.562 5.571-6.63 9.466-12.324 9.466"/>
  <path fill="#000" d="M114.14 75.477a10.86 10.86 0 0 1-9.315 5.276c-3.952 0-7.415-2.116-9.322-5.276a10.86 10.86 0 0 1-9.315 5.276 10.86 10.86 0 0 1-9.315-5.276c-1.908 3.16-5.37 5.276-9.322 5.276a10.87 10.87 0 0 1-9.315-5.276c-1.908 3.16-5.37 5.276-9.315 5.276-3.952 0-7.415-2.116-9.322-5.276a10.86 10.86 0 0 1-9.315 5.276c-3.952 0-7.415-2.116-9.322-5.276a10.85 10.85 0 0 1-10.87 5.161v42.047h10.87V93.178c0-.856.698-1.555 1.555-1.555h29.506c.857 0 1.555.698 1.555 1.555v29.507h35.525c-5.024-3.347-8.35-9.056-8.35-15.534 0-10.273 8.357-18.638 18.637-18.638 4.132 0 8.048 1.332 11.323 3.844.677.519.814 1.483.303 2.16l-3.506 4.672a1.554 1.554 0 0 1-2.189.295 9.57 9.57 0 0 0-5.931-2.03c-5.349 0-9.697 4.348-9.697 9.697s4.348 9.696 9.697 9.696c3.599 0 6.874-2.066 8.545-5.226h-4.377a1.55 1.55 0 0 1-1.555-1.555v-5.831c0-.857.691-1.555 1.555-1.555h12.662c.756 0 1.404.547 1.533 1.289.18 1.044.274 2.116.274 3.182 0 6.478-3.326 12.187-8.35 15.534h15.333V80.638a10.85 10.85 0 0 1-10.87-5.161m10.87 50.311H53.58V132h71.43zm-9.316-55.904c0 4.276 3.484 7.76 7.768 7.76 4.276 0 7.76-3.484 7.76-7.76V63.67h-15.528zm-96.279 0V63.67H3.881v6.213c0 4.276 3.484 7.76 7.767 7.76s7.767-3.484 7.767-7.76M4.55 60.562h15.117c.496-2.729 4.873-26.8 5.65-31.055h-9.473z"/>
  <path fill="#000" d="M24.072 132H50.47v-29.125l-12.935 11.647a1.55 1.55 0 0 1-1.037.396c-1.418 0-2.095-1.757-1.044-2.707L50.47 98.699v-3.973H24.072zm3.621-21.344 8.624-7.767a1.564 1.564 0 0 1 2.196.115c.576.641.518 1.62-.116 2.196l-8.63 7.767a1.55 1.55 0 0 1-2.189-.115 1.55 1.55 0 0 1 .115-2.196m-6.731 15.132h-10.87V132h10.87zM100.167 9.315a2.328 2.328 0 1 0-.006-4.656 2.328 2.328 0 0 0 .006 4.656M59.791 4.657A2.329 2.329 0 1 0 59.784 0a2.329 2.329 0 0 0 .007 4.658M38.044 17.082a2.33 2.33 0 0 0 2.332-2.332 2.329 2.329 0 1 0-2.332 2.332"/>
  <mask id="a" width="5" height="7" x="0" y="36" maskUnits="userSpaceOnUse" style="mask-type:luminance">
    <path fill="#fff" d="M0 36.835h4.859v5.529H0z"/>
  </mask>
  <g mask="url(#a)">
    <path fill="#000" d="M2.332 41.932a2.33 2.33 0 0 0 2.325-2.333 2.33 2.33 0 0 0-2.325-2.332 2.332 2.332 0 1 0 0 4.665"/>
  </g>
</svg>