<?xml version="1.0" encoding="utf-8"?>
<svg width="40" height="40" viewBox="0 0 40 40" fill="none" xmlns="http://www.w3.org/2000/svg" id="scroll-down-arrow-icon-image" class="Scroll down downward arrow navigation symbol icon">
  <desc>A scroll down arrow icon used for navigation and guiding users to view more content on a page.</desc>
  <title>Scroll Down Arrow Icon - Smooth Navigation Design</title>
  <path d="M29.792 20C29.792 14.592 25.408 10.208 20 10.208C14.592 10.208 10.208 14.592 10.208 20C10.208 25.408 14.592 29.792 20 29.792C25.408 29.792 29.792 25.408 29.792 20Z" fill="white"/>
  <path d="M20 0C16.0444 0 12.1776 1.17298 8.8886 3.37061C5.59962 5.56823 3.03617 8.69181 1.52242 12.3463C0.00866568 16.0008 -0.387401 20.0222 0.384303 23.9018C1.15601 27.7814 3.06082 31.3451 5.85787 34.1421C8.65492 36.9392 12.2186 38.844 16.0982 39.6157C19.9778 40.3874 23.9991 39.9913 27.6537 38.4776C31.3082 36.9638 34.4318 34.4004 36.6294 31.1114C38.827 27.8224 40 23.9556 40 20C40 17.3736 39.4827 14.7728 38.4776 12.3463C37.4725 9.91982 35.9993 7.71503 34.1421 5.85786C32.285 4.00069 30.0802 2.5275 27.6537 1.52241C25.2272 0.517315 22.6264 0 20 0ZM27.42 19.42L21.42 25.42C21.2341 25.6074 21.0129 25.7562 20.7692 25.8578C20.5254 25.9593 20.264 26.0116 20 26.0116C19.736 26.0116 19.4746 25.9593 19.2309 25.8578C18.9871 25.7562 18.7659 25.6074 18.58 25.42L12.58 19.42C12.2034 19.0434 11.9918 18.5326 11.9918 18C11.9918 17.4674 12.2034 16.9566 12.58 16.58C12.9566 16.2034 13.4674 15.9918 14 15.9918C14.5326 15.9918 15.0434 16.2034 15.42 16.58L20 21.18L24.58 16.58C24.9566 16.2034 25.4674 15.9918 26 15.9918C26.5326 15.9918 27.0434 16.2034 27.42 16.58C27.7966 16.9566 28.0082 17.4674 28.0082 18C28.0082 18.5326 27.7966 19.0434 27.42 19.42Z" fill="#D8A25E"/>
</svg>