<?xml version="1.0" encoding="utf-8"?>
<svg xmlns="http://www.w3.org/2000/svg" width="132" height="132" fill="none" id="seo-icon-image" class="SEO search engine optimization digital marketing icon logo">
  <desc>The SEO icon represents strategies for enhancing website visibility and search rankings. Perfect for SEO agencies and digital marketing branding.</desc>
  <title>SEO Icon - Search Engine Optimization Symbol</title>
  <mask id="a" width="132" height="132" x="0" y="0" maskUnits="userSpaceOnUse" style="mask-type:luminance">
    <path fill="#fff" d="M0 0h131.632v132H0z"/>
  </mask>
  <g mask="url(#a)">
    <path fill="#000" d="m128.367 111.325-16.348-18.349c-1.167-1.308-2.771-2.036-4.524-2.184a6.47 6.47 0 0 0-4.821 1.605l-2.77 2.473-6.136-6.99c13.727-13.253 18.689-32.91 12.85-51.11l12.405-12.377 3.365 3.35c.579.58 1.456.728 2.184.58.735-.29 1.315-.87 1.463-1.746l3.647-22.718c.149-.728-.141-1.456-.579-1.894-.439-.431-1.174-.728-1.902-.58l-22.625 3.64c-.877.149-1.463.729-1.753 1.457s0 1.604.579 2.184l3.365 3.35-8.765 8.588c-.438-.58-1.018-1.16-1.456-1.746C78.296-1.675 46.616-3.71 25.885 14.49a51 51 0 0 0-7.154 7.867l-.148.141c-2.77 3.789-4.962 8.009-6.566 12.377-.149.587-.29.876-.29 1.166C7.055 49.874 8.51 65.452 16.54 78.415H2.234c-1.166-.148-2.191.87-2.191 2.036v43.392c0 1.166 1.025 2.184 2.191 2.184h74.16c1.174 0 2.192-1.018 2.192-2.184v-26.06c4.234-1.746 8.326-4.227 11.973-7.14l6.129 6.991-2.771 2.474c-1.315 1.166-2.043 2.771-2.192 4.517a6.48 6.48 0 0 0 1.605 4.806l16.356 18.349c2.481 2.764 5.838 4.22 9.337 4.22 2.926 0 5.846-1.018 8.178-3.061 2.481-2.184 3.944-5.237 4.086-8.439.297-3.499-.728-6.701-2.92-9.175M111.432 10.56l-1.894-1.894 15.62-2.474-2.48 15.578-1.902-1.894c-.876-.87-2.184-.87-3.06 0l-15.042 14.71-23.65 23.586-11.825-11.79c-.877-.876-2.192-.876-3.06 0L45.59 64.724 16.399 35.751c1.018-2.912 2.48-5.683 4.085-8.156L43.986 51.04c.877.877 2.192.877 3.068 0l18.54-18.35L77.42 44.489c.877.87 2.192.87 3.068 0l30.804-30.578c.438-.438.579-1.024.579-1.604s-.141-1.308-.438-1.746M28.805 17.99C47.64 1.385 76.543 3.13 93.189 21.919c.58.58 1.166 1.307 1.604 2.035l-15.77 15.727L67.2 27.884c-.877-.87-2.192-.87-3.06 0l-18.55 18.35-22.477-22.28c1.753-2.184 3.647-4.22 5.69-5.965m45.406 103.67H4.425V82.635H74.21zm2.185-43.392H21.798c-8.03-11.21-10.22-25.191-6.863-37.858l29.05 28.98c.439.431 1.025.58 1.605.58.587 0 1.173-.149 1.611-.58l18.54-18.349 11.826 11.797c.876.87 2.191.87 3.06 0l22.633-22.428c4.375 16.604-.877 34.218-13.868 45.725-3.216 2.912-6.863 5.238-10.659 6.99V80.6c-.148-1.315-1.166-2.333-2.34-2.333m48.035 47.329c-3.357 2.912-8.467 2.615-11.387-.728L96.687 106.37c-.438-.438-.58-1.017-.58-1.597 0-.587.29-1.166.729-1.456l8.757-7.719c.439-.29.877-.586 1.464-.586h.148c.58 0 1.166.297 1.456.728l16.349 18.497c1.463 1.598 2.043 3.641 2.043 5.825-.142 2.184-1.166 4.078-2.623 5.534"/>
  </g>
  <path fill="#000" d="M10.263 97.054c0 4.079 3.357 7.281 7.301 7.281h1.166a2.923 2.923 0 0 1 2.92 2.912 2.93 2.93 0 0 1-2.92 2.912h-6.276c-1.166 0-2.191 1.018-2.191 2.184s1.025 2.184 2.19 2.184h6.278c4.085 0 7.301-3.202 7.301-7.28s-3.357-7.28-7.302-7.28h-1.166a2.93 2.93 0 0 1-2.919-2.913 2.923 2.923 0 0 1 2.92-2.912h6.276c1.166 0 2.191-1.018 2.191-2.184s-1.025-2.184-2.191-2.184h-6.277c-3.944 0-7.301 3.202-7.301 7.28m23.361 17.473H45.01c1.166 0 2.19-1.018 2.19-2.184s-1.024-2.184-2.19-2.184h-9.196v-5.824h9.196c1.166 0 2.19-1.018 2.19-2.184s-1.024-2.184-2.19-2.184h-9.196v-5.825h9.196c1.166 0 2.19-1.018 2.19-2.184s-1.024-2.184-2.19-2.184H33.624c-1.166 0-2.191 1.018-2.191 2.184v20.385c0 1.166 1.025 2.184 2.19 2.184m26.86 0a7.847 7.847 0 0 0 7.888-7.867v-9.167a7.846 7.846 0 0 0-7.888-7.867 7.845 7.845 0 0 0-7.881 7.867v9.167a7.845 7.845 0 0 0 7.88 7.867m-3.506-16.893c0-1.894 1.611-3.492 3.506-3.492 1.901 0 3.506 1.598 3.506 3.492v9.175c0 1.894-1.605 3.491-3.506 3.491-1.895 0-3.506-1.597-3.506-3.491z"/>
</svg>