<?xml version="1.0" encoding="utf-8"?>
<svg xmlns="http://www.w3.org/2000/svg" width="126" height="113" fill="none" id="website-development-icon-image" class="Website development coding web design symbol, programming icon logo">
  <desc>This icon symbolizes website development with a focus on modern web design and programming. Ideal for web development companies and tech-related branding.</desc>
  <title>Website Development Icon - Web Design and Coding Symbol</title>
  <path fill="#000" d="M97.814 40.698c-3.698-.106-7.297 0-10.995 0H27.123c-5.6-.106-10.3 4.543-10.399 10.2-.1 4.543 2.903 8.68 7.198 9.993 1.603.406 3.3.506 4.898.406h68.995c5.6 0 10.199-4.644 10.199-10.3s-4.599-10.3-10.2-10.3m7.602 11.106c-.398 3.937-3.698 6.968-7.602 7.068h-69.59c-2.002.2-3.998-.3-5.7-1.313a7.96 7.96 0 0 1-1.902-11.005c.602-.913 1.503-1.719 2.399-2.325 1.603-.806 3.505-1.212 5.302-1.006h66.993c1 0 2.1-.106 3.101 0 4.301.5 7.397 4.337 6.999 8.58"/>
  <path fill="#000" d="M95.715 52.21c1.1-1.419 1.205-3.337.205-4.95-.1-.2-.205-.306-.305-.406-.497-.506-1.1-1.007-1.796-1.213-.802-.3-1.604-.3-2.4-.1-.801.2-1.503.707-2.1 1.313-.603.706-.901 1.518-1.001 2.525-.1 1.718.802 3.33 2.3 4.037.802.406 1.703.506 2.598.406.1 0 .304-.1.404-.1l1.299 1.919.298.406c.2.3.398.5.802.606.299.1.697.1 1-.106.3-.2.498-.4.598-.706.1-.3.1-.706-.1-1.007zm-1.896-1.519c-.2.206-.1.1 0 0m-1.1.506h-.603l-.199-.1s-.1-.1-.1 0c0 0-.099 0-.099-.1l-.199-.1c-.199-.206-.199-.206-.298-.306 0-.1-.106-.1-.106-.2l-.1-.1c0-.106-.099-.206-.099-.406v-.506c0-.1 0-.2.1-.3 0-.1.1-.1.1-.206l.105-.2c-.205.2 0 0 0-.1s.1-.1.198-.2l.1-.107c.1-.1.199-.1.298-.2.1 0 .1 0 .2-.1h.702l.199.1c.199 0 .298.1.398.2l.099.106c.105.1.105.1.205.2s.1.2.199.3c0 .106.1.106.1.206s0 .4.099.4v.407l-.1.2v.1c-.1.206-.1.206-.199.306l-.1.1-.099.1-.105.1h-.1l-.198.106h-.2c.1.3 0 .3-.198.3M39.325 47.46c-.1.1-.304.306-.304.506-.1.2-.2.406-.2.706l-.696 2.225-.503-2.024c-.1-.4-.199-.707-.298-.807-.1-.2-.299-.506-.503-.606-.597-.506-1.4-.506-1.996 0-.199.2-.404.406-.503.606-.1.2-.2.406-.299.912l-.497 1.92-.603-2.226c-.1-.3-.199-.706-.398-1.012-.199-.4-.702-.6-1.1-.5-.404 0-.702.1-1 .4-.3.206-.399.606-.399.912 0 .3.1.707.2 1.007l1.497 4.343.2.506c.099.2.198.406.298.606.105.2.304.4.503.507.2.1.498.2.802.2.497.1 1.1-.2 1.398-.606.2-.406.398-.807.498-1.213l.503-1.718.498 1.718c.099.306.198.606.298.806.1.306.304.507.503.707a1.8 1.8 0 0 0 2.002 0c.199-.2.398-.4.497-.6.1-.207.199-.407.299-.813l1.503-4.343c.1-.3.2-.706.2-1.007 0-.406-.2-.706-.504-1.012-.497-.606-1.299-.606-1.896-.1m12.898 0c-.2.1-.299.306-.404.606 0 .1-.1.406-.2.706l-.696 2.225-.503-2.019a7 7 0 0 0-.298-.812c-.1-.2-.299-.506-.498-.606-.602-.4-1.404-.4-2.001 0-.199.206-.404.406-.503.606 0 .206-.2.406-.299.912l-.497 1.92-.603-2.226c-.1-.3-.199-.706-.398-1.006-.199-.406-.702-.606-1.1-.506-.404 0-.702.1-1 .4-.2.106-.3.406-.3.712 0 .3.1.706.2 1.007l1.498 4.343.199.506c.1.2.205.4.304.606.299.5.796.707 1.3.707.497 0 1-.206 1.298-.607.2-.406.398-.806.498-1.212l.503-1.718.498 1.718c.099.3.199.606.298.806.105.306.304.507.503.707a1.8 1.8 0 0 0 2.002 0c.199-.2.398-.4.497-.607.1-.2.199-.4.298-.806l1.504-4.343c.1-.3.2-.707.2-1.007 0-.306-.1-.606-.404-.912-.597-.5-1.3-.5-1.896-.1m14.7.1c-.503-.5-1.404-.5-1.902 0-.1.1-.298.306-.298.506 0 .1-.1.406-.205.706l-.697 2.225-.602-2.019a7 7 0 0 0-.299-.812c-.1-.2-.298-.506-.497-.606-.603-.4-1.405-.4-2.001 0-.2.206-.398.406-.504.606-.1.206-.1.406-.298.912l-.597 1.92-.603-2.226c-.1-.3-.199-.706-.398-1.006-.199-.406-.702-.606-1.1-.506-.398 0-.702.1-1 .4-.3.206-.399.606-.399.912 0 .3.1.707.2 1.007l1.498 4.343.199.506c.099.2.198.406.304.607.298.506.796.706 1.299.706.497 0 1-.2 1.299-.606.199-.4.398-.807.497-1.213l.504-1.712.497 1.712c.1.306.2.606.299.812.1.3.304.5.503.707.298.2.597.4 1 .3.398 0 .697-.1 1.001-.3.2-.206.398-.407.498-.607.1-.206.199-.506.298-.812l1.504-4.337c.1-.306.199-.707.199-1.013.199-.606.1-.906-.199-1.112m.697 5.456c-.3.3-.498.706-.399 1.112 0 .4.2.906.498 1.206.298.307.702.407 1.1.407.404 0 .802-.1 1.1-.407.298-.3.503-.706.503-1.206 0-.406-.205-.812-.503-1.112-.802-.606-1.697-.606-2.3 0"/>
  <mask id="a" width="126" height="113" x="0" y="0" maskUnits="userSpaceOnUse" style="mask-type:luminance">
    <path fill="#fff" d="M0 0h125.84v113H0z"/>
  </mask>
  <g mask="url(#a)">
    <path fill="#000" d="M120.415.3c-1.199-.2-2.498-.3-3.698-.2H9.123C7.824 0 6.624.1 5.325.4 1.726 1.412.03 4.744.03 8.28v74.528c0 3.431 1.399 6.562 4.799 7.774 1.498.4 3.096.607 4.699.4h79.89l1.903 16.362.397 3.737c.1 1.113 1.803 1.919 2.3.607l5.8-12.725 13.4 1.313c.299.2.597.1.896 0 .603-.2.801-.807.702-1.413 0-.306-.199-.606-.497-.912l-9.404-7.068h12.002c1.398.1 2.897-.1 4.196-.507 3.3-1.312 4.705-4.443 4.705-7.774V8.18c0-3.637-1.803-6.969-5.402-7.88M2.528 7.37c0-2.525 1.896-4.644 4.4-4.844 2.798-.206 5.595 0 8.299 0h94.59c2.897 0 5.8-.1 8.796 0 2.604 0 4.699 2.119 4.798 4.844v9.293H16.426c-4.6 0-9.298-.2-13.898 0V7.369m95.486 89.576-4.295 9.387-2.499-21.711-.105-1.007 9.099 6.868s.1.1.205.1l8.895 6.663-10.3-1.007c-.397.1-.795.3-1 .707m25.298-13.537c0 2.125-1.399 4.043-3.4 4.75-1.2.2-2.399.3-3.599.2h-14.794l-8.403-6.262-2.996-2.22c-.603-.305-1.405-.1-1.703.507-.1.2-.2.4-.2.606l.803 7.469H7.327c-2.599 0-4.7-2.119-4.799-4.844V19.186h106.886c4.599 0 9.298.2 13.898 0z"/>
  </g>
  <path fill="#000" d="M15.823 12.924c.703-.806 1-1.718 1-2.725 0-1.818-1.1-3.437-2.796-4.043-1.604-.6-3.5-.1-4.6 1.212-1.504 1.82-1.3 4.444.398 6.062 1.802 1.513 4.4 1.313 5.998-.506m-4.997-2.93v-.2c0-.1.1-.3.1-.4 0-.107.099-.107.099-.207s.1-.1.1-.2q.148-.148.298-.306h.105c-.105.106 0 0 .1 0 .099-.1.298-.1.397-.2 0 0-.298.1-.1 0l.2-.1h.702l.498.1.198.1.404.406.1.2c0 .1.1.1.1.206 0 .2.099.2.099.3s-.1.2-.1.3v.206s-.1.3-.1.4v.107l-.099.1c-.105.1-.205.3-.205.4l-.1.106-.099.1c-.1 0-.198.2-.298.2l-.1.1-.397.1h-.803l-.198-.1c-.2-.1.1 0 .1 0-.1-.1-.2-.1-.3-.2l-.204-.1c-.199-.206-.199-.206-.298-.306l-.1-.2v-.2c-.1-.106 0-.106 0 .1 0-.1-.1-.306-.1-.406v-.407"/>
  <path fill="#000" d="M10.826 9.993c0-.1.1-.3 0 0m1.796 1.919h.105c0-.1-.105-.1-.105 0m8.305-2.019c0-.1.1-.3 0 0"/>
  <path fill="#000" d="M25.924 12.924c.702-.806 1-1.718 1-2.725 0-1.818-1.2-3.437-2.803-4.043-1.597-.6-3.499-.1-4.6 1.212-1.497 1.82-1.298 4.444.405 6.062 1.796 1.513 4.5 1.313 5.998-.506m-1.498-3.03v.1zm-3.5 0v-.2c0-.1.1-.301.1-.407l.199-.4c.1-.1.199-.206.298-.306h.1c.1-.1.304-.1.403-.2 0 0-.304.1-.1 0l.2-.1h.796l.503.1.199.1.1.1h.099l.298.306.106.2.1.2c.099.206.099.306.099.406s-.1.2-.1.3v.206c0 .1-.1.3-.1.4v.107l-.105.1c-.1.2-.198.3-.198.4l-.1.106-.1.1c-.099 0-.298.2-.298.2h-.1l-.403.2h-.597l-.2-.1h-.198c-.205-.1.1 0 .1 0-.1-.1-.205-.1-.404-.2 0 0-.1-.1-.2-.1l-.298-.306-.199-.2s-.1-.306-.1-.407v-.2c.1-.1.1-.306.1-.406m15.198 3.031c.696-.806 1-1.718 1-2.725 0-1.818-1.1-3.437-2.802-4.043-1.598-.6-3.5-.1-4.6 1.212-1.498 1.82-1.3 4.444.404 6.062 1.796 1.513 4.395 1.313 5.998-.506m-5.003-3.03v-.2c0-.1.105-.301.105-.407l.1-.2c0-.1.099-.1.099-.2.1-.1.199-.206.298-.306l.1-.1c-.1.1 0 0 .1 0 .099-.1.298-.1.403-.2 0 0-.304.1-.105 0l.205-.1h.696l.503.1c.1 0 .2.1.2.1l.099.3.298.306.1.2.1.206c.099.2.099.3.099.4s-.1.2-.1.306v.2c0 .1-.1.3-.1.407v.1l-.198.4-.1.106-.1.1c-.099 0-.198.2-.298.2l-.205.1-.398.1h-.596l-.205-.1h-.1c-.199-.1.1 0 .1 0-.1-.1-.2-.1-.299-.2l-.199-.1c-.199-.206-.199-.206-.298-.306l-.1-.2-.1-.1v-.1q0-.159 0 0c0-.106-.104-.207-.104-.306zm.304-.907q0-.15 0 0"/>
  <path fill="#000" d="M32.923 11.912q.15 0 0 0h.1c0-.1-.1-.1-.1 0"/>
</svg>