<?xml version="1.0" encoding="utf-8"?>
<svg width="118" height="120" viewBox="0 0 118 120" fill="none" xmlns="http://www.w3.org/2000/svg" id="website-design-development-maroon" class="website custom responsive web business professional digital branding design development websites" role="contentinfo">
  <desc>Responsive website designed by Maroon Digital Rise, showcasing modern design and functionality       Transform your online presence with custom website design and development services by Maroon Digital Rise. We create responsive, visually appealing, and functional websites tailored to your business goals.  </desc>
  <title>Custom Website Design and Development Services by Maroon Digital Rise</title>
  <mask id="mask0_301_334" style="mask-type:luminance" maskUnits="userSpaceOnUse" x="0" y="0" width="118" height="120">
    <path d="M0 0H117.715V120H0V0Z" fill="white"/>
  </mask>
  <g mask="url(#mask0_301_334)">
    <path d="M107.014 12.0728H98.0248L98.8181 10.2714C99.1402 9.53773 98.9851 8.68476 98.4185 8.1181L94.7203 4.39606C94.1596 3.83537 93.3066 3.67432 92.5789 3.99642L90.3302 4.99851C89.2148 4.39606 88.0457 3.90695 86.8348 3.5431L85.952 1.24068C85.6657 0.495079 84.9499 0 84.1566 0H78.9195C78.1262 0 77.4104 0.495079 77.1241 1.24068L76.2413 3.5431C75.0305 3.90695 73.8554 4.39606 72.74 4.99851L70.4972 3.99642C69.7695 3.67432 68.9165 3.82941 68.3558 4.39606L64.6517 8.1181C64.091 8.68476 63.93 9.53773 64.258 10.2714L65.0513 12.0728H59.0686V8.10617C59.0686 4.66448 56.2831 1.86698 52.8593 1.86698H51.1474C47.7236 1.86698 44.944 4.66448 44.944 8.10617V12.0728H10.6702C4.78291 12.0728 -0.00683594 16.8864 -0.00683594 22.8094V83.3105C-0.00683594 89.2276 4.78291 94.0412 10.6702 94.0412H39.0269V104.146H27.6341C22.4566 104.146 18.2395 107.701 18.2395 112.073V118.067C18.2395 119.135 19.1044 120 20.1661 120H97.5178C98.5795 120 99.4444 119.135 99.4444 118.067V112.073C99.4444 107.701 95.2333 104.146 90.0558 104.146H78.6571V94.0412H107.014C112.901 94.0412 117.691 89.2276 117.691 83.3105V22.8094C117.691 16.8923 112.901 12.0728 107.014 12.0728ZM67.2822 17.9481C67.6401 16.4271 68.2365 14.9836 69.0478 13.6534C69.3818 13.1106 69.4295 12.4366 69.1671 11.858L68.3141 9.91351L70.1453 8.07635L72.0719 8.93528C72.6565 9.19773 73.3245 9.15002 73.8673 8.81599C75.1915 7.99881 76.6231 7.39636 78.1322 7.03847C78.7525 6.88935 79.2595 6.44796 79.4862 5.85148L80.2437 3.87116H82.8324L83.59 5.85148C83.8166 6.44796 84.3236 6.88935 84.944 7.03847C86.4471 7.39636 87.8846 7.99881 89.2088 8.81599C89.7516 9.15002 90.4197 9.19773 90.9983 8.93528L92.9309 8.07635L94.7621 9.91351L93.9031 11.858C93.6466 12.4366 93.6944 13.1106 94.0284 13.6534C94.8396 14.9896 95.4361 16.4271 95.794 17.9481C95.9431 18.5684 96.3845 19.0755 96.975 19.3021L98.9493 20.0656V22.6663L96.975 23.4298C96.3845 23.6564 95.9431 24.1634 95.794 24.7838C95.4361 26.3048 94.8396 27.7483 94.0284 29.0784C93.6944 29.6212 93.6466 30.2953 93.9031 30.8798L94.7621 32.8184L92.9309 34.6555L90.9983 33.7966C90.4197 33.5341 89.7516 33.5819 89.2088 33.9159C87.8846 34.7331 86.4471 35.3355 84.944 35.6934C84.3236 35.8425 83.8166 36.2839 83.59 36.8804L82.8324 38.8607H80.2437L79.4862 36.8804C79.2595 36.2839 78.7525 35.8425 78.1322 35.6934C76.6231 35.3355 75.1915 34.7331 73.8673 33.9159C73.3245 33.5819 72.6565 33.5341 72.0719 33.7966L70.1453 34.6555L68.3141 32.8184L69.173 30.8738C69.4295 30.2953 69.3818 29.6212 69.0478 29.0784C68.2365 27.7483 67.6401 26.3048 67.2822 24.7897C67.1331 24.1634 66.6917 23.6564 66.1011 23.4298L64.1268 22.6663V20.0656L66.1011 19.3021C66.6917 19.0755 67.1331 18.5684 67.2822 17.9481ZM45.2005 52.7826L50.3362 61.7238C50.6821 62.3263 51.3144 62.6901 52.0063 62.6901C52.6923 62.6901 53.3305 62.3263 53.6705 61.7238L58.8121 52.7826C58.9792 52.4903 59.0686 52.1563 59.0686 51.8163V23.3045H60.2795V23.9964C60.2795 24.7957 60.7686 25.5174 61.5082 25.8038L63.7987 26.6866C64.1626 27.9093 64.6457 29.0844 65.2541 30.2058L64.2521 32.4605C63.93 33.1942 64.091 34.0471 64.6517 34.6138L68.3558 38.3358C68.9165 38.9025 69.7695 39.0576 70.4972 38.7355L72.74 37.7334C73.8554 38.3418 75.0305 38.8249 76.2413 39.1888L77.1241 41.4912C77.4104 42.2368 78.1262 42.7319 78.9195 42.7319H84.1507C84.9499 42.7319 85.6657 42.2368 85.952 41.4912L86.8348 39.1888C88.0457 38.8249 89.2148 38.3358 90.3302 37.7334L92.5789 38.7355C93.3066 39.0576 94.1596 38.9025 94.7203 38.3358L98.4185 34.6138C98.9851 34.0471 99.1402 33.1942 98.8181 32.4605L97.822 30.2058C98.4244 29.0844 98.9136 27.9093 99.2774 26.6866L101.562 25.8038C102.308 25.5174 102.797 24.7957 102.797 23.9964V23.3045H106.519V75.3594H11.1653V23.3045H44.944V51.8163C44.944 52.1563 45.0275 52.4903 45.2005 52.7826ZM50.2049 53.7489H53.8077L52.0063 56.8864L50.2049 53.7489ZM63.8345 15.9439C63.8226 15.9797 63.8107 16.0095 63.7987 16.0453L61.5082 16.9281C60.7686 17.2144 60.2795 17.9362 60.2795 18.7355V19.4333H59.0686V15.9439H63.8345ZM51.1474 5.73814H52.8593C54.1596 5.73814 55.2154 6.79988 55.2154 8.10617V49.8777H48.7913V8.10617C48.7913 6.79988 49.847 5.73814 51.1474 5.73814ZM95.5912 112.073V116.129H22.0928V112.073C22.0928 109.872 24.6278 108.017 27.6341 108.017H90.0558C93.0561 108.017 95.5912 109.872 95.5912 112.073ZM74.8038 104.146H42.8801V94.0412H74.8038V104.146ZM113.838 83.3105C113.838 87.0981 110.778 90.17 107.014 90.17H10.6702C6.90638 90.17 3.84643 87.0981 3.84643 83.3105V22.8094C3.84643 19.0218 6.90638 15.9439 10.6702 15.9439H44.944V19.4333H10.4554C8.71968 19.4333 7.31199 20.847 7.31199 22.5828V77.292C7.31199 78.3597 8.17688 79.2305 9.23862 79.2305H108.445C109.507 79.2305 110.372 78.3597 110.372 77.292V22.5887C110.372 20.847 108.964 19.4333 107.229 19.4333H102.797V18.7355C102.797 17.9362 102.308 17.2204 101.562 16.9281L99.2714 16.0453C99.2655 16.0095 99.2536 15.9797 99.2416 15.9499H107.014C110.778 15.9499 113.838 19.0218 113.838 22.8094V83.3105ZM81.5381 32.4724C87.6341 32.4724 92.5909 27.4918 92.5909 21.3659C92.5909 15.2401 87.6341 10.2595 81.5381 10.2595C75.442 10.2595 70.4853 15.2401 70.4853 21.3659C70.4853 27.4918 75.442 32.4724 81.5381 32.4724ZM81.5381 14.1306C85.5106 14.1306 88.7376 17.3755 88.7376 21.3659C88.7376 25.3564 85.5106 28.6013 81.5381 28.6013C77.5655 28.6013 74.3385 25.3564 74.3385 21.3659C74.3385 17.3755 77.5655 14.1306 81.5381 14.1306ZM78.3708 68.5416L83.3335 49.9374C83.6079 48.9055 84.6636 48.2911 85.6896 48.5714C86.7155 48.8458 87.3299 49.9075 87.0496 50.9395L82.0928 69.5437C81.8602 70.4086 81.0847 70.9753 80.2318 70.9753C80.0707 70.9753 79.8977 70.9574 79.7367 70.9096C78.7048 70.6353 78.0964 69.5735 78.3708 68.5416ZM65.3675 59.7375C65.3675 59.1709 65.618 58.6281 66.0534 58.2583L74.1357 51.4166C74.947 50.7247 76.1638 50.8321 76.8497 51.6493C77.5357 52.4664 77.4343 53.6892 76.6171 54.3752L70.2825 59.7375L76.6171 65.1059C77.4343 65.7918 77.5357 67.0146 76.8497 67.8318C76.468 68.2851 75.9252 68.5177 75.3764 68.5177C74.941 68.5177 74.4996 68.3686 74.1357 68.0644L66.0534 61.2228C65.618 60.853 65.3675 60.3102 65.3675 59.7375ZM88.8032 65.1059L95.1378 59.7375L88.8032 54.3752C87.992 53.6892 87.8906 52.4664 88.5765 51.6493C89.2625 50.8321 90.4734 50.7247 91.2905 51.4166L99.3669 58.2583C99.8023 58.6281 100.053 59.1709 100.053 59.7375C100.053 60.3102 99.8023 60.853 99.3669 61.2228L91.2905 68.0644C90.9267 68.3686 90.4853 68.5177 90.0499 68.5177C89.5011 68.5177 88.9523 68.2851 88.5765 67.8318C87.8906 67.0146 87.992 65.7918 88.8032 65.1059ZM17.7027 66.6925H57.8041C58.8658 66.6925 59.7248 67.5574 59.7248 68.6251C59.7248 69.6928 58.8658 70.5637 57.8041 70.5637H17.7027C16.6409 70.5637 15.776 69.6928 15.776 68.6251C15.776 67.5574 16.6409 66.6925 17.7027 66.6925ZM15.6389 53.0152C15.6389 51.9475 16.5038 51.0826 17.5655 51.0826H38.4065C39.4683 51.0826 40.3272 51.9475 40.3272 53.0152C40.3272 54.0829 39.4683 54.9538 38.4065 54.9538H17.5655C16.5038 54.9538 15.6389 54.0829 15.6389 53.0152ZM15.7104 60.8231C15.7104 59.7495 16.5694 58.8846 17.6371 58.8846H38.4721C39.5339 58.8846 40.3988 59.7495 40.3988 60.8231C40.3988 61.8908 39.5339 62.7557 38.4721 62.7557H17.6371C16.5694 62.7557 15.7104 61.8908 15.7104 60.8231ZM15.776 29.5974C15.776 28.5297 16.6409 27.6648 17.7027 27.6648H38.5378C39.6055 27.6648 40.4644 28.5297 40.4644 29.5974C40.4644 30.671 39.6055 31.5359 38.5378 31.5359H17.7027C16.6409 31.5359 15.776 30.671 15.776 29.5974ZM15.7104 37.4053C15.7104 36.3376 16.5694 35.4667 17.6371 35.4667H38.4721C39.5339 35.4667 40.3988 36.3376 40.3988 37.4053C40.3988 38.473 39.5339 39.3379 38.4721 39.3379H17.6371C16.5694 39.3379 15.7104 38.473 15.7104 37.4053ZM15.6389 45.2132C15.6389 44.1396 16.5038 43.2747 17.5655 43.2747H38.4065C39.4683 43.2747 40.3272 44.1396 40.3272 45.2132C40.3272 46.2809 39.4683 47.1458 38.4065 47.1458H17.5655C16.5038 47.1458 15.6389 46.2809 15.6389 45.2132Z" fill="black"/>
  </g>
</svg>