<?xml version="1.0" encoding="utf-8"?>
<svg width="127" height="107" viewBox="0 0 127 107" fill="none" xmlns="http://www.w3.org/2000/svg" id="web-application-design-maroon" class="web application custom SaaS responsive business professional cloud-based apps developmen solutions" role="contentinfo">
  <desc> Modern web application interface designed by Maroon Digital Rise for enhanced functionality and user experience     Empower your business with innovative web application development by Maroon Digital Rise. We deliver custom, user-friendly, and scalable solutions tailored to your specific needs.</desc>
  <title>Innovative Web Application Development by Maroon Digital Rise</title>
  <mask id="mask0_301_513" style="mask-type:luminance" maskUnits="userSpaceOnUse" x="0" y="89" width="127" height="18">
    <path d="M0 89.0991H126.817V107H0V89.0991Z" fill="white"/>
  </mask>
  <g mask="url(#mask0_301_513)">
    <path fill-rule="evenodd" clip-rule="evenodd" d="M112.866 107.02H13.9812C6.28713 107.02 0.0253906 100.784 0.0253906 93.1106V91.1612C0.0253906 90.0702 0.914755 89.186 2.01095 89.186H51.1018C51.836 89.186 52.503 89.5842 52.8495 90.2305L54.6075 93.5088C54.7265 93.7259 54.954 93.8604 55.2022 93.8604H71.6451C71.8932 93.8604 72.1208 93.7259 72.2397 93.5088L73.9977 90.2305C74.3442 89.5842 75.0112 89.186 75.7454 89.186H124.836C125.932 89.186 126.817 90.0702 126.817 91.1612V93.1106C126.817 100.784 120.56 107.02 112.866 107.02ZM3.99133 93.1365C4.00167 98.6174 8.47952 103.069 13.9812 103.069H112.866C118.368 103.069 122.846 98.6174 122.856 93.1365H76.9295L75.7351 95.3702C74.9233 96.8749 73.3566 97.8108 71.6451 97.8108H55.2022C53.4907 97.8108 51.9239 96.8749 51.1121 95.3702L49.9177 93.1365H3.99133Z" fill="#212121"/>
  </g>
  <path fill-rule="evenodd" clip-rule="evenodd" d="M119.591 93.1326C118.495 93.1326 117.611 92.2484 117.611 91.1574V16.1561C117.611 15.1168 116.758 14.2688 115.713 14.2688H97.5693C96.4731 14.2688 95.5889 13.3846 95.5889 12.2936C95.5889 11.2026 96.4731 10.3184 97.5693 10.3184H115.713C118.945 10.3184 121.572 12.9399 121.572 16.1561V91.1574C121.572 92.2484 120.682 93.1326 119.591 93.1326Z" fill="#212121"/>
  <path fill-rule="evenodd" clip-rule="evenodd" d="M7.25675 93.1326C6.16573 93.1326 5.27637 92.2484 5.27637 91.1574V16.1561C5.27637 12.9399 7.90309 10.3184 11.1348 10.3184H29.2788C30.375 10.3184 31.2592 11.2026 31.2592 12.2936C31.2592 13.3846 30.375 14.2688 29.2788 14.2688H11.1348C10.0903 14.2688 9.23714 15.1168 9.23714 16.1561V91.1574C9.23714 92.2484 8.35295 93.1326 7.25675 93.1326Z" fill="#212121"/>
  <path fill-rule="evenodd" clip-rule="evenodd" d="M107.236 82.8907H19.6125C18.5163 82.8907 17.627 82.0065 17.627 80.9155V23.1276C17.627 22.0365 18.5163 21.1523 19.6125 21.1523H29.2818C30.3728 21.1523 31.2621 22.0365 31.2621 23.1276C31.2621 24.2186 30.3728 25.1028 29.2818 25.1028H21.5929V78.9403H105.255V25.1028H97.5663C96.4701 25.1028 95.5859 24.2186 95.5859 23.1276C95.5859 22.0365 96.4701 21.1523 97.5663 21.1523H107.236C108.332 21.1523 109.221 22.0365 109.221 23.1276V80.9155C109.221 82.0065 108.332 82.8907 107.236 82.8907Z" fill="#212121"/>
  <mask id="mask1_301_513" style="mask-type:luminance" maskUnits="userSpaceOnUse" x="26" y="0" width="75" height="84">
    <path d="M26.4121 0H100.54V83.8018H26.4121V0Z" fill="white"/>
  </mask>
  <g mask="url(#mask1_301_513)">
    <path fill-rule="evenodd" clip-rule="evenodd" d="M97.5618 82.8929C96.4656 82.8929 95.5814 82.0088 95.5814 80.9177V3.95678H31.2576V80.9177C31.2576 82.0088 30.3683 82.8929 29.2773 82.8929C28.1811 82.8929 27.2969 82.0088 27.2969 80.9177V1.98156C27.2969 0.890541 28.1811 0.00634766 29.2773 0.00634766H97.5618C98.658 0.00634766 99.5422 0.890541 99.5422 1.98156V80.9177C99.5422 82.0088 98.658 82.8929 97.5618 82.8929Z" fill="#212121"/>
  </g>
  <path fill-rule="evenodd" clip-rule="evenodd" d="M52.1331 53.2141C51.0369 53.2141 50.1527 52.3299 50.1527 51.2389V42.5935C50.1527 41.1457 48.9738 39.9719 47.526 39.9719C46.0782 39.9719 44.8992 41.1457 44.8992 42.5935V51.2389C44.8992 52.3299 44.0151 53.2141 42.9189 53.2141C41.8278 53.2141 40.9385 52.3299 40.9385 51.2389V42.5935C40.9385 38.9688 43.8961 36.0215 47.526 36.0215C51.161 36.0215 54.1135 38.9688 54.1135 42.5935V51.2389C54.1135 52.3299 53.2293 53.2141 52.1331 53.2141Z" fill="#212121"/>
  <path fill-rule="evenodd" clip-rule="evenodd" d="M52.1331 47.0037H42.9189C41.8278 47.0037 40.9385 46.1195 40.9385 45.0284C40.9385 43.9374 41.8278 43.0532 42.9189 43.0532H52.1331C53.2293 43.0532 54.1135 43.9374 54.1135 45.0284C54.1135 46.1195 53.2293 47.0037 52.1331 47.0037Z" fill="#212121"/>
  <path fill-rule="evenodd" clip-rule="evenodd" d="M64.9353 47.0041H59.5888C58.4978 47.0041 57.6084 46.1199 57.6084 45.0289V37.9967C57.6084 36.9057 58.4978 36.0215 59.5888 36.0215H64.9353C67.9705 36.0215 70.4421 38.4879 70.4421 41.5128C70.4421 44.5428 67.9705 47.0041 64.9353 47.0041ZM61.5743 43.0537H64.9353C65.7833 43.0537 66.4762 42.366 66.4762 41.5128C66.4762 40.6648 65.7833 39.9719 64.9353 39.9719H61.5743V43.0537Z" fill="#212121"/>
  <path fill-rule="evenodd" clip-rule="evenodd" d="M59.5888 53.2137C58.4978 53.2137 57.6084 52.3295 57.6084 51.2385V45.0284C57.6084 43.9374 58.4978 43.0532 59.5888 43.0532C60.685 43.0532 61.5743 43.9374 61.5743 45.0284V51.2385C61.5743 52.3295 60.685 53.2137 59.5888 53.2137Z" fill="#212121"/>
  <path fill-rule="evenodd" clip-rule="evenodd" d="M80.4138 47.0041H75.0725C73.9763 47.0041 73.0869 46.1199 73.0869 45.0289V37.9967C73.0869 36.9057 73.9763 36.0215 75.0725 36.0215H80.4138C83.449 36.0215 85.9206 38.4879 85.9206 41.5128C85.9206 44.5428 83.449 47.0041 80.4138 47.0041ZM77.0529 43.0537H80.4138C81.267 43.0537 81.9599 42.366 81.9599 41.5128C81.9599 40.6648 81.267 39.9719 80.4138 39.9719H77.0529V43.0537Z" fill="#212121"/>
  <path fill-rule="evenodd" clip-rule="evenodd" d="M75.0725 53.2137C73.9763 53.2137 73.0869 52.3295 73.0869 51.2385V45.0284C73.0869 43.9374 73.9763 43.0532 75.0725 43.0532C76.1635 43.0532 77.0529 43.9374 77.0529 45.0284V51.2385C77.0529 52.3295 76.1635 53.2137 75.0725 53.2137Z" fill="#212121"/>
  <path fill-rule="evenodd" clip-rule="evenodd" d="M97.5803 19.4748H29.2958C28.1996 19.4748 27.3154 18.5907 27.3154 17.4996C27.3154 16.4086 28.1996 15.5244 29.2958 15.5244H97.5803C98.6765 15.5244 99.5607 16.4086 99.5607 17.4996C99.5607 18.5907 98.6765 19.4748 97.5803 19.4748Z" fill="#212121"/>
  <path fill-rule="evenodd" clip-rule="evenodd" d="M72.5497 11.7712H70.9364C69.8454 11.7712 68.9561 10.887 68.9561 9.79602C68.9561 8.70499 69.8454 7.8208 70.9364 7.8208H72.5497C73.6407 7.8208 74.5301 8.70499 74.5301 9.79602C74.5301 10.887 73.6407 11.7712 72.5497 11.7712Z" fill="#212121"/>
  <path fill-rule="evenodd" clip-rule="evenodd" d="M80.6158 11.7712H79.0077C77.9115 11.7712 77.0273 10.887 77.0273 9.79602C77.0273 8.70499 77.9115 7.8208 79.0077 7.8208H80.6158C81.712 7.8208 82.5962 8.70499 82.5962 9.79602C82.5962 10.887 81.712 11.7712 80.6158 11.7712Z" fill="#212121"/>
  <path fill-rule="evenodd" clip-rule="evenodd" d="M88.6786 11.7712H87.0653C85.9743 11.7712 85.085 10.887 85.085 9.79602C85.085 8.70499 85.9743 7.8208 87.0653 7.8208H88.6786C89.7696 7.8208 90.659 8.70499 90.659 9.79602C90.659 10.887 89.7696 11.7712 88.6786 11.7712Z" fill="#212121"/>
  <path fill-rule="evenodd" clip-rule="evenodd" d="M84.1981 64.843H42.6669C41.5707 64.843 40.6865 63.9588 40.6865 62.8678C40.6865 61.7768 41.5707 60.8926 42.6669 60.8926H84.1981C85.2943 60.8926 86.1785 61.7768 86.1785 62.8678C86.1785 63.9588 85.2943 64.843 84.1981 64.843Z" fill="#212121"/>
</svg>