<?xml version="1.0" encoding="utf-8"?>
<svg width="131" height="113" viewBox="0 0 131 113" fill="none" xmlns="http://www.w3.org/2000/svg" id="custom-features-functionality-maroon" class="custom advanced tailored business-specific website customization, unique web professional development functionality features customization tools" role="contentinfo">
  <desc>Custom feature integration by Maroon Digital Rise showcasing advanced business-specific functionality      Elevate your digital platforms with advanced custom features and functionality by Maroon Digital Rise. We design and implement solutions tailored to your unique business requirements.   </desc>
  <title>Advanced Custom Features and Functionality by Maroon Digital Rise</title>
  <mask id="mask0_301_418" style="mask-type:luminance" maskUnits="userSpaceOnUse" x="0" y="0" width="131" height="113">
    <path d="M0 0H130.347V113H0V0Z" fill="white"/>
  </mask>
  <g mask="url(#mask0_301_418)">
    <path fill-rule="evenodd" clip-rule="evenodd" d="M41.7815 109.194H58.205V105.51C58.205 103.096 59.8549 101.12 61.8704 101.12H65.0333V96.0129H40.1976C37.4459 96.0129 34.9481 94.6632 33.1357 92.4927C31.3284 90.3161 30.2013 87.3187 30.2013 84.0174V62.0874H32.7803V74.3991H127.767V23.9424H49.2901V11.953H120.35C123.102 11.953 125.6 13.3027 127.412 15.4793C129.224 17.6498 130.346 20.6472 130.346 23.9424V84.0174C130.346 87.3187 129.224 90.3161 127.412 92.4927C125.6 94.6632 123.102 96.0129 120.35 96.0129H95.5093V101.12H98.6773C100.693 101.12 102.338 103.096 102.338 105.51V109.194H118.766C119.639 109.194 120.35 110.045 120.35 111.091C120.35 112.137 119.639 112.994 118.766 112.994H41.7815C40.9134 112.994 40.1976 112.137 40.1976 111.091C40.1976 110.045 40.9134 109.194 41.7815 109.194ZM50.3613 65.4374C50.011 65.4374 49.7166 65.0847 49.7166 64.6592C49.7166 64.2396 50.011 63.887 50.3613 63.887H77.0704C77.4308 63.887 77.7151 64.2396 77.7151 64.6592C77.7151 65.0847 77.4308 65.4374 77.0704 65.4374H50.3613ZM50.3613 59.9716C50.011 59.9716 49.7166 59.625 49.7166 59.1995C49.7166 58.7739 50.011 58.4273 50.3613 58.4273H77.0704C77.4308 58.4273 77.7151 58.7739 77.7151 59.1995C77.7151 59.625 77.4308 59.9716 77.0704 59.9716H50.3613ZM23.4695 29.925C25.9216 29.925 27.9117 32.3083 27.9117 35.2509C27.9117 38.1936 25.9216 40.5769 23.4695 40.5769C21.0225 40.5769 19.0324 38.1936 19.0324 35.2509C19.0324 32.3083 21.0225 29.925 23.4695 29.925ZM24.5305 20.6593H22.4135C21.2966 20.6593 20.3879 21.7537 20.3879 23.0973V24.0336C19.9208 24.216 19.474 24.441 19.0425 24.6963L18.4891 24.0336C17.7022 23.0913 16.4127 23.0913 15.6207 24.0336L14.1282 25.8333C13.3362 26.7817 13.3362 28.3321 14.1282 29.2745L14.6815 29.9372C14.4632 30.4539 14.2754 30.989 14.1231 31.5422H13.3413C12.2244 31.5422 11.3156 32.6427 11.3156 33.9803V36.5156C11.3156 37.8592 12.2244 38.9536 13.3413 38.9536H14.1231C14.2754 39.5129 14.4632 40.0419 14.6815 40.5587L14.1282 41.2214C13.3362 42.1698 13.3362 43.7141 14.1282 44.6625L15.6258 46.4622C16.4127 47.4106 17.7022 47.4106 18.4942 46.4622L19.0425 45.7995C19.474 46.0609 19.9208 46.2798 20.3879 46.4622V47.4046C20.3879 48.7421 21.2966 49.8365 22.4135 49.8365H24.5305C25.6474 49.8365 26.5613 48.7421 26.5613 47.4046V46.4622C27.0232 46.2798 27.4649 46.0609 27.8965 45.7995L28.4498 46.4622C29.2418 47.4106 30.5313 47.4106 31.3182 46.4622L32.8159 44.6625C33.6079 43.7141 33.6079 42.1698 32.8159 41.2214L32.2625 40.5587C32.4808 40.0419 32.6686 39.5129 32.8159 38.9536H33.5977C34.7146 38.9536 35.6335 37.8592 35.6335 36.5156V33.9803C35.6335 32.6427 34.7146 31.5422 33.5977 31.5422H32.821C32.6686 30.989 32.4808 30.4539 32.2625 29.9372L32.8159 29.2745C33.6079 28.3321 33.6079 26.7817 32.8159 25.8333L31.3182 24.0336C30.5313 23.0913 29.2418 23.0913 28.4498 24.0336L27.8965 24.6963C27.4649 24.441 27.0232 24.216 26.5613 24.0336V23.0973C26.5613 21.7537 25.6474 20.6593 24.5305 20.6593ZM41.2688 0H5.67528C4.11671 0 2.70535 0.766061 1.67476 1.99419C0.649249 3.2284 0.0146484 4.92467 0.0146484 6.79727V52.4569C0.0146484 54.3234 0.649249 56.0258 1.67476 57.26C2.70535 58.4881 4.11671 59.2542 5.67528 59.2542H41.2688C42.8273 59.2542 44.2438 58.4881 45.2642 57.26C46.2948 56.0258 46.9294 54.3234 46.9294 52.4569V6.79727C46.9294 4.92467 46.2948 3.2284 45.2642 1.99419C44.2438 0.766061 42.8273 0 41.2688 0ZM1.294 13.0534H45.6551V52.4569C45.6551 53.9039 45.1576 55.2232 44.3605 56.1778C43.5685 57.1262 42.472 57.716 41.2688 57.716H5.67528C4.47208 57.716 3.37549 57.1262 2.58351 56.1778C1.78645 55.2232 1.294 53.9039 1.294 52.4569V13.0534ZM39.7863 6.9067C39.7863 6.26224 40.2229 5.74545 40.756 5.74545C41.2941 5.74545 41.7307 6.26224 41.7307 6.9067C41.7307 7.55117 41.2941 8.08011 40.756 8.08011C40.2229 8.08011 39.7863 7.55117 39.7863 6.9067ZM32.1864 6.9067C32.1864 6.26224 32.6179 5.74545 33.156 5.74545C33.6942 5.74545 34.1308 6.26224 34.1308 6.9067C34.1308 7.55117 33.6942 8.08011 33.156 8.08011C32.6179 8.08011 32.1864 7.55117 32.1864 6.9067ZM35.9838 6.9067C35.9838 6.26224 36.4204 5.74545 36.9535 5.74545C37.4916 5.74545 37.9282 6.26224 37.9282 6.9067C37.9282 7.55117 37.4916 8.08011 36.9535 8.08011C36.4204 8.08011 35.9838 7.55117 35.9838 6.9067ZM58.1542 46.1643C58.6162 46.7115 58.6162 47.6113 58.1542 48.1645C57.6922 48.7178 56.951 48.7178 56.489 48.1645L51.9757 42.7535C51.5137 42.2002 51.5137 41.3004 51.9757 40.7471L56.489 35.3361C56.951 34.7767 57.6922 34.7767 58.1542 35.3361C58.6162 35.8893 58.6162 36.7831 58.1542 37.3363L54.4786 41.7503L58.1542 46.1643ZM61.4795 52.4751C61.2409 53.2047 60.5606 53.5695 59.9565 53.2838C59.3473 52.998 59.0477 52.1772 59.2863 51.4477L65.9522 31.0194C66.1908 30.2959 66.8762 29.9311 67.4803 30.2168C68.0844 30.5026 68.384 31.3234 68.1504 32.0469L61.4795 52.4751ZM70.9478 48.1645C70.4908 48.7178 69.7395 48.7178 69.2775 48.1645C68.8206 47.6113 68.8206 46.7115 69.2775 46.1643L72.9582 41.7503L69.2775 37.3363C68.8206 36.7831 68.8206 35.8893 69.2775 35.3361C69.7395 34.7767 70.4908 34.7767 70.9478 35.3361L75.461 40.7471C75.923 41.3004 75.923 42.2002 75.461 42.7535L70.9478 48.1645ZM89.6405 28.4962H117.472C119.005 28.4962 120.406 29.2501 121.416 30.4661C122.427 31.676 123.056 33.348 123.056 35.1962V62.5434C123.056 64.3856 122.427 66.0636 121.416 67.2796C120.406 68.4955 119.005 69.2494 117.472 69.2494H89.6405C88.1023 69.2494 86.7061 68.4955 85.6959 67.2796C84.6754 66.0636 84.051 64.3856 84.051 62.5434V35.1962C84.051 33.348 84.6754 31.676 85.6959 30.4661C86.7061 29.2501 88.1023 28.4962 89.6405 28.4962ZM113.476 35.0078C115.339 35.0078 116.847 36.8195 116.847 39.0569C116.847 41.2943 115.339 43.1 113.476 43.1C111.613 43.1 110.105 41.2943 110.105 39.0569C110.105 36.8195 111.613 35.0078 113.476 35.0078ZM118.167 62.4461C118.639 63.1757 118.695 63.5161 118.324 63.4736H88.2393C88.0921 63.4432 87.9652 63.3155 87.9144 63.1392C87.8687 62.9629 87.9043 62.7683 88.0109 62.6406C94.8849 49.3075 98.3219 42.638 98.3219 42.638C98.7737 41.6469 99.2662 41.6469 99.7942 42.638C103.724 49.9581 105.688 53.6121 105.688 53.6121C107.912 49.3379 109.024 47.1978 109.024 47.1978C109.379 46.4561 109.74 46.4561 110.105 47.1978C115.481 57.3633 118.167 62.4461 118.167 62.4461ZM117.472 30.5512H89.6405C88.5744 30.5512 87.6098 31.0802 86.9041 31.9192C86.2035 32.7582 85.7669 33.9195 85.7669 35.1962V62.5434C85.7669 63.8201 86.2035 64.9814 86.9041 65.8204C87.6098 66.6655 88.5744 67.1823 89.6405 67.1823H117.472C118.533 67.1823 119.502 66.6655 120.203 65.8204C120.903 64.9814 121.34 63.8201 121.34 62.5434V35.1962C121.34 33.9195 120.903 32.7582 120.203 31.9192C119.502 31.0802 118.533 30.5512 117.472 30.5512ZM80.2738 81.3483C81.6953 81.3483 82.8478 82.7285 82.8478 84.4369C82.8478 86.1393 81.6953 87.5194 80.2738 87.5194C78.8523 87.5194 77.6999 86.1393 77.6999 84.4369C77.6999 82.7285 78.8523 81.3483 80.2738 81.3483ZM119.69 17.3397C120.492 17.3397 121.142 18.1179 121.142 19.0786C121.142 20.0392 120.492 20.8174 119.69 20.8174C118.888 20.8174 118.238 20.0392 118.238 19.0786C118.238 18.1179 118.888 17.3397 119.69 17.3397ZM111.313 17.3397C112.11 17.3397 112.76 18.1179 112.76 19.0786C112.76 20.0392 112.11 20.8174 111.313 20.8174C110.511 20.8174 109.861 20.0392 109.861 19.0786C109.861 18.1179 110.511 17.3397 111.313 17.3397ZM115.502 17.3397C116.304 17.3397 116.954 18.1179 116.954 19.0786C116.954 20.0392 116.304 20.8174 115.502 20.8174C114.7 20.8174 114.05 20.0392 114.05 19.0786C114.05 18.1179 114.7 17.3397 115.502 17.3397Z" fill="black"/>
  </g>
</svg>