<?xml version="1.0" encoding="utf-8"?>
<svg width="130" height="101" viewBox="0 0 130 101" fill="none" xmlns="http://www.w3.org/2000/svg" id="web-security-solutions-maroon" class="web security website cybersecurity secure malware data professional solutions protection services encryption applications" role="contentinfo">
  <desc>Secure website with advanced protection features by Maroon Digital Rise ensuring safe online operations    Safeguard your digital assets with robust web security solutions by Maroon Digital Rise. We offer advanced protection against cyber threats to ensure safe and secure online operations. </desc>
  <title>Robust Web Security Solutions by Maroon Digital Rise</title>
  <mask id="mask0_301_517" style="mask-type:luminance" maskUnits="userSpaceOnUse" x="0" y="0" width="130" height="101">
    <path d="M0 0H129.524V101H0V0Z" fill="white"/>
  </mask>
  <g mask="url(#mask0_301_517)">
    <path d="M123.991 0H5.53325C2.512 0 0.0471584 2.69876 0.0471584 6.01061C0.0991586 9.44279 0.0107574 89.3398 0.0471584 94.9894C0.0471584 98.307 2.512 101 5.53325 101H123.991C127.013 101 129.472 98.307 129.472 94.9894V6.01061C129.472 2.69876 127.013 0 123.991 0ZM34.0506 6.01061C36.895 5.96477 36.895 10.8638 34.0506 10.8179C31.2061 10.8638 31.2061 5.96477 34.0506 6.01061ZM23.0836 6.01061C25.928 5.96477 25.928 10.8638 23.0836 10.8179C20.2339 10.8638 20.2339 5.96477 23.0836 6.01061ZM12.1166 6.01061C14.961 5.96477 14.961 10.8638 12.1166 10.8179C9.26692 10.8638 9.26692 5.96477 12.1166 6.01061ZM127.278 94.9894C127.278 96.9776 125.801 98.5992 123.991 98.5992H5.53325C3.71842 98.5992 2.2416 96.9776 2.2416 94.9894V16.8343H127.278V94.9894Z" fill="black"/>
  </g>
  <path d="M40.6338 50.5028C38.6837 50.5028 37.0509 51.9066 36.4789 53.8319L33.7644 53.087L31.778 47.6494C31.2216 46.194 29.23 47.0592 29.7396 48.5432L31.934 54.5538C32.0692 54.9148 32.3448 55.1784 32.688 55.2758L36.2449 56.2499V60.1175H31.0344L27.1031 57.8542C25.8135 57.138 24.8151 59.2237 26.0787 59.98L30.2492 62.3865C30.3324 62.673 35.9745 62.4667 36.2449 62.524C36.2449 62.5813 36.2449 66.0823 36.2449 66.1339H30.7588C30.5404 66.1339 30.3272 66.2026 30.1504 66.3401L25.9799 69.4113C25.4755 69.778 25.3403 70.5286 25.6783 71.0787C26.0215 71.6345 26.7079 71.772 27.2019 71.4053L31.0968 68.5404H36.3853C36.5413 69.864 36.8325 71.1532 37.2329 72.3966L32.74 73.3706C32.4436 73.4337 32.1888 73.6285 32.0276 73.9093L28.2055 80.5501C27.4463 81.8795 29.282 83.163 30.0568 81.8336L33.6292 75.6282L38.1221 74.6541C40.1138 78.8083 43.7954 82.9681 48.3091 83.5239V50.5028H40.6338Z" fill="black"/>
  <path d="M54.6734 63.2743V50.5024H50.5029V83.5235C54.1326 83.1282 57.2578 80.1659 59.3379 77.0947C56.3686 73.2786 54.6734 68.3738 54.6734 63.2743Z" fill="black"/>
  <path d="M54.6786 45.6899H43.4412C41.928 45.6899 40.6176 46.813 40.2484 48.4231L40.0352 49.3628C40.2328 49.3399 40.4252 49.2997 40.6332 49.2997H54.6786V45.6899Z" fill="black"/>
  <path d="M102.264 33.5365C94.6094 33.5365 87.1525 31.1529 80.7044 26.6378C80.3456 26.3857 79.8828 26.3857 79.524 26.6378C73.0759 31.1529 65.6241 33.5365 57.9644 33.5365C57.3612 33.5365 56.8672 34.0752 56.8672 34.7398V63.2744C56.8672 69.2908 59.5192 74.992 63.9549 78.5273L79.472 90.898C79.8568 91.2074 80.3768 91.2074 80.7616 90.898L96.2787 78.5273C100.714 74.992 103.361 69.2908 103.361 63.2744V34.7398C103.361 34.0752 102.872 33.5365 102.264 33.5365ZM90.3506 50.7318L77.6311 64.6725C77.5063 64.8158 77.2931 64.8158 77.1683 64.6725L69.8778 56.6794C69.7478 56.5419 69.7478 56.3127 69.8778 56.1694L72.5143 53.2816C72.6443 53.1384 72.8523 53.1384 72.9771 53.2816L77.1683 57.8712C77.2931 58.0145 77.5011 58.0145 77.6311 57.8712L87.2461 47.3283C87.3761 47.1908 87.5841 47.1908 87.7141 47.3283L90.3506 50.2219C90.4806 50.3594 90.4806 50.5886 90.3506 50.7318Z" fill="black"/>
  <path d="M54.6783 39.9773V44.4867H43.4357C43.3733 44.4867 43.3057 44.4982 43.2433 44.5097C43.4045 43.3809 43.6957 42.149 44.4237 41.3124C43.5813 40.1149 41.5273 34.6772 43.9193 34.4824C44.5225 34.4824 45.0166 35.0268 45.0166 35.6857C45.0166 37.2156 45.469 38.6939 46.2594 39.9544C47.2058 39.4846 50.0554 39.7367 51.0955 39.6794C51.6987 39.6794 52.2811 39.8341 52.8063 40.0748C52.8479 39.9945 53.0975 39.3184 53.3107 39.1752C53.8723 38.7569 54.6991 39.2325 54.6783 39.9773Z" fill="black"/>
</svg>