<?xml version="1.0" encoding="utf-8"?>
<svg width="132" height="132" viewBox="0 0 132 132" fill="none" xmlns="http://www.w3.org/2000/svg" id="landing-page-design-maroon" class="landing page high-conversion custom lead digital responsive web optimization design generation" role="contentinfo">
  <desc>Engaging landing page design by Maroon Digital Rise, optimized for lead generation and conversions     Drive conversions with expertly crafted landing pages by Maroon Digital Rise. Our designs are tailored to captivate your audience and maximize your marketing efforts.</desc>
  <title>High-Conversion Landing Page Design Services by Maroon Digital Rise</title>
  <path d="M41.9406 15.3998C43.1165 15.3998 44.144 14.3724 44.144 13.1964C44.144 12.0265 43.1165 10.999 41.9406 10.999C40.7706 10.999 39.7432 12.0265 39.7432 13.1964C39.7432 14.5208 40.7706 15.3998 41.9406 15.3998Z" fill="black"/>
  <path d="M29.6232 15.3998C30.7991 15.3998 31.8206 14.3724 31.8206 13.1964C31.8206 12.0265 30.7991 10.999 29.6232 10.999C28.4473 10.999 27.4258 12.0265 27.4258 13.1964C27.4258 14.5208 28.4473 15.3998 29.6232 15.3998Z" fill="black"/>
  <path d="M17.4484 15.3998C18.6243 15.3998 19.6518 14.3724 19.6518 13.1964C19.6518 12.0265 18.6243 10.999 17.4484 10.999C16.2784 10.999 15.251 12.0265 15.251 13.1964C15.251 14.5208 16.1299 15.3998 17.4484 15.3998Z" fill="black"/>
  <mask id="mask0_301_515" style="mask-type:luminance" maskUnits="userSpaceOnUse" x="0" y="0" width="132" height="132">
    <path d="M0 0H131.994V132H0V0Z" fill="white"/>
  </mask>
  <g mask="url(#mask0_301_515)">
    <path d="M123.638 0H8.35616C3.81283 0 0 3.81283 0 8.35616V123.638C0 128.187 3.81283 132 8.35616 132H123.638C128.181 132 131.994 128.187 131.994 123.638V8.35616C131.994 3.81283 128.181 0 123.638 0ZM8.35616 4.40079H123.638C125.835 4.40079 127.599 6.15873 127.599 8.35616V22.1465H4.39485V8.35616C4.39485 6.15873 6.15873 4.40079 8.35616 4.40079ZM123.638 127.599H8.35616C6.15873 127.599 4.39485 125.841 4.39485 123.638V26.5473H127.599V123.638C127.599 125.841 125.835 127.599 123.638 127.599Z" fill="black"/>
  </g>
  <path d="M72.5989 15.3998H114.688C115.864 15.3998 116.892 14.3724 116.892 13.1964C116.892 12.0265 115.864 10.999 114.688 10.999H72.5989C71.423 10.999 70.3955 12.0265 70.3955 13.1964C70.3955 14.3724 71.423 15.3998 72.5989 15.3998Z" fill="black"/>
  <path d="M118.358 33.585H13.6359C12.4659 33.585 11.4385 34.6124 11.4385 35.7883V80.9603C11.4385 82.1303 12.4659 83.1577 13.6359 83.1577H118.358C119.528 83.1577 120.556 82.1303 120.556 80.9603V35.7883C120.556 34.4639 119.528 33.585 118.358 33.585ZM94.3052 78.7569L89.168 72.5982L98.8485 60.8627L113.666 78.7569H94.3052ZM88.586 78.7569H41.9411L65.2635 50.6002L88.586 78.7569ZM15.8393 37.9858H116.155V74.8016L100.612 55.8799C100.173 55.4404 99.585 55.1435 98.8485 55.1435C98.118 55.1435 97.5301 55.4404 97.0906 55.8799L86.2341 69.0764L66.879 45.6114C66.4395 45.1719 65.8515 44.8809 65.1151 44.8809C64.3846 44.8809 63.7966 45.1719 63.3571 45.6114L36.2219 78.7569H15.8393V37.9858Z" fill="black"/>
  <path d="M118.358 116.161H93.5685C92.3985 116.161 91.3711 117.189 91.3711 118.359C91.3711 119.534 92.3985 120.562 93.5685 120.562H118.358C119.528 120.562 120.555 119.534 120.555 118.359C120.555 117.189 119.528 116.161 118.358 116.161Z" fill="black"/>
  <path d="M78.3169 116.161H53.5275C52.3575 116.161 51.3301 117.189 51.3301 118.359C51.3301 119.534 52.3575 120.562 53.5275 120.562H78.3169C79.4868 120.562 80.5143 119.534 80.5143 118.359C80.5143 117.189 79.6353 116.161 78.3169 116.161Z" fill="black"/>
  <path d="M38.4252 116.161H13.6359C12.4659 116.161 11.4385 117.189 11.4385 118.359C11.4385 119.534 12.4659 120.562 13.6359 120.562H38.4252C39.5952 120.562 40.6227 119.534 40.6227 118.359C40.6227 117.189 39.5952 116.161 38.4252 116.161Z" fill="black"/>
  <path d="M38.4252 90.2017H13.6359C12.4659 90.2017 11.4385 91.2232 11.4385 92.3991V105.601C11.4385 106.771 12.4659 107.799 13.6359 107.799H38.4252C39.5952 107.799 40.6227 106.771 40.6227 105.601V92.3991C40.6227 91.0806 39.5952 90.2017 38.4252 90.2017ZM36.2219 103.25H15.8393V94.454H36.2219V103.25Z" fill="black"/>
  <path d="M78.3169 90.2017H53.5275C52.3575 90.2017 51.3301 91.2232 51.3301 92.3991V105.601C51.3301 106.771 52.3575 107.799 53.5275 107.799H78.3169C79.4868 107.799 80.5143 106.771 80.5143 105.601V92.3991C80.5143 91.0806 79.6353 90.2017 78.3169 90.2017ZM76.1135 103.25H55.7309V94.454H76.1135V103.25Z" fill="black"/>
  <path d="M118.358 90.2017H93.5685C92.3985 90.2017 91.3711 91.2232 91.3711 92.3991V105.601C91.3711 106.771 92.3985 107.799 93.5685 107.799H118.358C119.528 107.799 120.555 106.771 120.555 105.601V92.3991C120.555 91.0806 119.528 90.2017 118.358 90.2017ZM116.155 103.25H95.7719V94.454H116.155V103.25Z" fill="black"/>
  <path d="M42.0905 54.1165C42.0905 48.9852 37.9867 44.7329 32.8494 44.7329C27.7181 44.7329 23.4658 48.8368 23.4658 54.1165C23.4658 59.2537 27.5697 63.3576 32.8494 63.3576C37.8382 63.5061 42.0905 59.2537 42.0905 54.1165ZM27.8666 54.1165C27.8666 51.4796 30.064 49.1337 32.8494 49.1337C35.4923 49.1337 37.6897 51.3311 37.6897 54.1165C37.6897 56.7594 35.4923 58.9568 32.8494 58.9568C30.064 59.1053 27.8666 56.9078 27.8666 54.1165Z" fill="black"/>
</svg>