<?xml version="1.0" encoding="utf-8"?>
<svg width="132" height="132" viewBox="0 0 132 132" fill="none" xmlns="http://www.w3.org/2000/svg" id="custom-web-development-maroon" class="custom web bespoke website tailored advanced responsive business unique features development design solutions" role="contentinfo">
  <desc>Custom-built website developed by Maroon Digital Rise with unique features and design elements   Stand out online with custom web development services by Maroon Digital Rise. We create feature-rich, tailor-made websites designed to align with your business goals and brand identity.</desc>
  <title>Tailored Web Development Solutions by Maroon Digital Rise</title>
  <mask id="mask0_301_413" style="mask-type:luminance" maskUnits="userSpaceOnUse" x="0" y="0" width="132" height="132">
    <path d="M0 0H132V132H0V0Z" fill="white"/>
  </mask>
  <g mask="url(#mask0_301_413)">
    <path d="M123.365 2.5894H101.806C100.666 1.02151 98.8189 0 96.7343 0H35.2657C33.1811 0 31.3341 1.02151 30.1938 2.5894H11.0762C4.97093 2.5894 0 7.56034 0 13.6716V87.2913C0 93.4025 4.97093 98.3734 11.0762 98.3734H47.5119C47.4407 105.53 45.7005 112.775 43.7585 117.046H36.02C31.8983 117.046 28.5487 120.401 28.5487 124.523C28.5487 128.644 31.8983 132 36.02 132H95.98C100.102 132 103.457 128.644 103.457 124.523C103.457 120.401 100.102 117.046 95.98 117.046H88.2178C86.1926 112.698 84.3396 105.429 84.203 98.3734H120.924C127.029 98.3734 132 93.4025 132 87.2913V11.2247C132 6.46162 128.128 2.5894 123.365 2.5894ZM32.7417 16.6826H99.2583V62.3891C99.2583 63.7788 98.1299 64.9132 96.7343 64.9132H35.2657C33.876 64.9132 32.7417 63.7788 32.7417 62.3891V16.6826ZM35.2657 3.74156H96.7343C98.1299 3.74156 99.2583 4.86997 99.2583 6.2597V12.9411H32.7417V6.2597C32.7417 4.86997 33.876 3.74156 35.2657 3.74156ZM11.0762 6.33096H29.0001V62.3891C29.0001 65.8396 31.8092 68.6488 35.2657 68.6488H96.7343C100.191 68.6488 103 65.8396 103 62.3891V6.33096H123.365C126.067 6.33096 128.258 8.52839 128.258 11.2247V76.316H3.74156V13.6716C3.74156 9.62116 7.03176 6.33096 11.0762 6.33096ZM99.7157 124.523C99.7157 126.584 98.0409 128.258 95.98 128.258H36.02C33.9651 128.258 32.2844 126.584 32.2844 124.523C32.2844 122.462 33.9651 120.787 36.02 120.787H95.98C98.0409 120.787 99.7157 122.462 99.7157 124.523ZM84.1377 117.046H47.8267C49.8756 111.837 51.1822 104.764 51.2535 98.3734H80.4674C80.5862 104.687 81.9878 111.76 84.1377 117.046ZM120.924 94.6319H11.0762C7.03176 94.6319 3.74156 91.3417 3.74156 87.2913V80.0576H128.258V87.2913C128.258 91.3417 124.968 94.6319 120.924 94.6319ZM72.9308 87.3447C72.9308 88.3781 72.0934 89.2155 71.06 89.2155H60.94C59.9066 89.2155 59.0692 88.3781 59.0692 87.3447C59.0692 86.3113 59.9066 85.474 60.94 85.474H71.06C72.0934 85.474 72.9308 86.3113 72.9308 87.3447ZM38.0808 8.33834C38.0808 7.30496 38.9182 6.46756 39.9516 6.46756H58.6178C59.6512 6.46756 60.4886 7.30496 60.4886 8.33834C60.4886 9.37173 59.6512 10.2091 58.6178 10.2091H39.9516C38.9182 10.2091 38.0808 9.37173 38.0808 8.33834ZM76.8624 8.33834C76.8624 7.34059 77.6761 6.53289 78.6738 6.53289C79.6716 6.53289 80.4793 7.34059 80.4793 8.33834C80.4793 9.34203 79.6716 10.1497 78.6738 10.1497C77.6761 10.1497 76.8624 9.34203 76.8624 8.33834ZM83.5735 8.33834C83.5735 7.34059 84.3871 6.53289 85.3849 6.53289C86.3826 6.53289 87.1903 7.34059 87.1903 8.33834C87.1903 9.34203 86.3826 10.1497 85.3849 10.1497C84.3871 10.1497 83.5735 9.34203 83.5735 8.33834ZM90.2845 8.33834C90.2845 7.34059 91.0922 6.53289 92.0959 6.53289C93.0937 6.53289 93.9014 7.34059 93.9014 8.33834C93.9014 9.34203 93.0937 10.1497 92.0959 10.1497C91.0922 10.1497 90.2845 9.34203 90.2845 8.33834ZM50.8793 54.704C50.9625 54.8109 51.0516 54.9119 51.1585 54.9951C54.9 58.9088 60.1679 61.3557 66 61.3557C71.838 61.3557 77.1059 58.9088 80.8534 54.9891C80.9603 54.8941 81.0613 54.7931 81.1504 54.6743C84.5059 51.01 86.5548 46.14 86.5548 40.7949C86.5548 35.5449 84.5772 30.7462 81.3226 27.1115C81.2335 26.9868 81.1325 26.8799 81.0197 26.7848C77.2663 22.7582 71.9212 20.2401 66 20.2401C60.0788 20.2401 54.7337 22.7582 50.9803 26.7789C50.8675 26.8799 50.7665 26.9868 50.6774 27.1115C47.4228 30.7462 45.4452 35.5449 45.4452 40.7949C45.4452 46.1578 47.506 51.0397 50.8793 54.704ZM52.7323 30.4789C53.7479 30.8887 54.8288 31.251 55.9631 31.5539C55.3158 33.7869 54.8941 36.2694 54.7634 38.9241H49.2877C49.644 35.7646 50.8734 32.8664 52.7323 30.4789ZM82.7123 38.9241H77.2366C77.1059 36.2754 76.6842 33.7869 76.0369 31.5539C77.1712 31.251 78.2521 30.8887 79.2677 30.4789C81.1266 32.8664 82.356 35.7646 82.7123 38.9241ZM79.1252 51.2951C78.1334 50.9031 77.0762 50.5586 75.9716 50.2617C76.6605 47.9752 77.1 45.4095 77.2366 42.6657H82.7123C82.35 45.9084 81.0613 48.872 79.1252 51.2951ZM67.8708 52.7976C68.8626 52.8451 69.8425 52.9342 70.7928 53.053C69.9197 54.609 68.9101 55.7493 67.8708 56.3907V52.7976ZM67.8708 49.0561V42.6657H73.495C73.3525 45.2135 72.9189 47.5179 72.3013 49.4955C70.87 49.2699 69.3852 49.1214 67.8708 49.0561ZM67.8708 38.9241V32.7773C69.409 32.706 70.9175 32.5575 72.3725 32.3319C72.9546 34.2561 73.3584 36.4773 73.495 38.9241H67.8708ZM67.8708 29.0298V25.2051C68.9576 25.8702 70.0148 27.0937 70.9175 28.7625C69.9257 28.8932 68.9101 28.9823 67.8708 29.0298ZM64.1292 29.0298C63.0899 28.9823 62.0743 28.8932 61.0825 28.7625C61.9852 27.0937 63.0424 25.8702 64.1292 25.2051V29.0298ZM64.1292 32.7773V38.9241H58.505C58.6475 36.4773 59.0454 34.2561 59.6334 32.3319C61.0825 32.5575 62.591 32.706 64.1292 32.7773ZM64.1292 42.6657V49.0561C62.6148 49.1214 61.13 49.2699 59.6987 49.4955C59.0811 47.5179 58.6475 45.2135 58.505 42.6657H64.1292ZM64.1292 52.7976V56.3907C63.0899 55.7493 62.0803 54.609 61.2072 53.053C62.1575 52.9342 63.1374 52.8451 64.1292 52.7976ZM58.5525 55.8681C57.5963 55.393 56.6995 54.8347 55.8562 54.1992C56.3491 54.0448 56.854 53.9023 57.3766 53.7716C57.7329 54.5199 58.1308 55.2207 58.5525 55.8681ZM74.6234 53.7716C75.146 53.9023 75.6509 54.0448 76.1438 54.1992C75.3005 54.8347 74.4037 55.393 73.4534 55.8681C73.8692 55.2207 74.2671 54.5199 74.6234 53.7716ZM74.7303 28.038C74.3383 27.2065 73.9107 26.4344 73.4534 25.7277C74.4868 26.2385 75.4549 26.8561 76.3576 27.5629C75.829 27.7351 75.2886 27.8954 74.7303 28.038ZM57.2697 28.038C56.7114 27.8954 56.171 27.7351 55.6424 27.5629C56.5451 26.8561 57.5132 26.2385 58.5525 25.7277C58.0893 26.4344 57.6617 27.2065 57.2697 28.038ZM54.7634 42.6657C54.9 45.4095 55.3395 47.9752 56.0284 50.2617C54.9238 50.5586 53.8666 50.9031 52.8748 51.2951C50.9387 48.872 49.65 45.9084 49.2877 42.6657H54.7634Z" fill="black"/>
  </g>
</svg>