<?xml version="1.0" encoding="utf-8"?>
<svg width="132" height="132" viewBox="0 0 132 132" fill="none" xmlns="http://www.w3.org/2000/svg" id="third-party-integrations-maroon" class="third-party API CRM e-commerce software business professional web solutions integrations plugins connectivity automation" role="contentinfo">
  <desc>Third-party application integration by Maroon Digital Rise for enhanced business operations Streamline your operations with seamless third-party integrations by Maroon Digital Rise. We connect your platforms to essential tools, enhancing functionality and efficiency.</desc>
  <title>Seamless Third-Party Integrations by Maroon Digital Rise</title>
  <mask id="mask0_301_502" style="mask-type:luminance" maskUnits="userSpaceOnUse" x="0" y="0" width="132" height="132">
    <path d="M0 0H132V132H0V0Z" fill="white"/>
  </mask>
  <g mask="url(#mask0_301_502)">
    <path fill-rule="evenodd" clip-rule="evenodd" d="M0.0439453 107.656V71.5029C0.0439453 69.1132 2.00309 67.1594 4.3982 67.1594H51.1109C53.5113 67.1594 55.4651 69.1132 55.4651 71.5029V87.1707H76.5367V71.5029C76.5367 69.1132 78.4958 67.1594 80.8909 67.1594H127.609C130.004 67.1594 131.958 69.1132 131.958 71.5029V107.656C131.958 110.035 130.004 111.988 127.609 111.988H94.9817V127.667C94.9817 130.046 93.0225 132 90.6274 132H43.9148C41.5143 132 39.5551 130.046 39.5551 127.667V111.988H4.3982C2.00309 111.988 0.0439453 110.035 0.0439453 107.656ZM51.2131 75.0821V71.5029C51.2131 71.4437 51.1701 71.4006 51.1109 71.4006H4.3982C4.34437 71.4006 4.29593 71.4437 4.29593 71.5029V75.0821H51.2131ZM51.2131 87.1707V79.3233H4.29593V107.656C4.29593 107.709 4.34437 107.752 4.3982 107.752H39.5551V91.5141C39.5551 89.1244 41.5197 87.1707 43.9148 87.1707H51.2131ZM90.6274 91.4119H43.9148C43.8556 91.4119 43.8125 91.4549 43.8125 91.5141V95.0933H90.7243V91.5141C90.7243 91.4603 90.6812 91.4119 90.6274 91.4119ZM80.794 79.3233V87.1707H90.6274C93.0225 87.1707 94.9817 89.1244 94.9817 91.5141V107.752H127.609C127.663 107.752 127.706 107.704 127.706 107.656V79.3233H80.794ZM127.706 75.0821V71.5029C127.706 71.4437 127.663 71.4006 127.609 71.4006H80.8909C80.8371 71.4006 80.794 71.4437 80.794 71.5029V75.0821H127.706ZM43.8125 99.3346V127.667C43.8125 127.721 43.8609 127.764 43.9148 127.764H90.6274C90.6812 127.764 90.7243 127.721 90.7243 127.667V99.3346H43.8125ZM89.7124 74.5385C88.9966 74.5385 88.4153 73.9572 88.4153 73.2414C88.4153 72.5309 88.9966 71.9442 89.7124 71.9442C90.4337 71.9442 91.0149 72.5309 91.0149 73.2414C91.0149 73.9572 90.4337 74.5385 89.7124 74.5385ZM94.7072 74.5385C93.9913 74.5385 93.4047 73.9572 93.4047 73.2414C93.4047 72.5309 93.9913 71.9442 94.7072 71.9442C95.423 71.9442 96.0097 72.5309 96.0097 73.2414C96.0097 73.9572 95.423 74.5385 94.7072 74.5385ZM84.7177 74.5385C84.0019 74.5385 83.4206 73.9572 83.4206 73.2414C83.4206 72.5309 84.0019 71.9442 84.7177 71.9442C85.4389 71.9442 86.0202 72.5309 86.0202 73.2414C86.0202 73.9572 85.4389 74.5385 84.7177 74.5385ZM13.2197 74.5385C12.5039 74.5385 11.9226 73.9572 11.9226 73.2414C11.9226 72.5309 12.5039 71.9442 13.2197 71.9442C13.9356 71.9442 14.5222 72.5309 14.5222 73.2414C14.5222 73.9572 13.9356 74.5385 13.2197 74.5385ZM8.22498 74.5385C7.50914 74.5385 6.92786 73.9572 6.92786 73.2414C6.92786 72.5309 7.50914 71.9442 8.22498 71.9442C8.94083 71.9442 9.52749 72.5309 9.52749 73.2414C9.52749 73.9572 8.94083 74.5385 8.22498 74.5385ZM18.2145 74.5385C17.4986 74.5385 16.912 73.9572 16.912 73.2414C16.912 72.5309 17.4986 71.9442 18.2145 71.9442C18.9303 71.9442 19.5116 72.5309 19.5116 73.2414C19.5116 73.9572 18.9303 74.5385 18.2145 74.5385ZM57.7257 94.5497C57.0098 94.5497 56.4231 93.9685 56.4231 93.2526C56.4231 92.5422 57.0098 91.9609 57.7257 91.9609C58.4415 91.9609 59.0282 92.5422 59.0282 93.2526C59.0282 93.9685 58.4415 94.5497 57.7257 94.5497ZM47.7416 94.5497C47.0257 94.5497 46.439 93.9685 46.439 93.2526C46.439 92.5422 47.0257 91.9609 47.7416 91.9609C48.4574 91.9609 49.0441 92.5422 49.0441 93.2526C49.0441 93.9685 48.4574 94.5497 47.7416 94.5497ZM52.7363 94.5497C52.0205 94.5497 51.4338 93.9685 51.4338 93.2526C51.4338 92.5422 52.0205 91.9609 52.7363 91.9609C53.4521 91.9609 54.0334 92.5422 54.0334 93.2526C54.0334 93.9685 53.4521 94.5497 52.7363 94.5497ZM46.5036 41.2653C39.792 41.1254 34.3505 35.6193 34.3505 28.9077C34.3505 24.2789 36.9394 20.2261 40.7392 18.1108C40.9384 8.06754 49.1679 -0.00585938 59.2919 -0.00585938C63.8399 -0.00585938 68.0058 1.63035 71.2298 4.33224C72.6614 3.94472 74.1631 3.73481 75.7132 3.73481C83.9803 3.73481 90.8696 9.62839 92.3713 17.4273C96.9354 19.2573 100.186 23.7192 100.186 28.9077C100.186 35.7055 94.6049 41.2653 87.7748 41.2653H85.5035V41.4914C85.5035 42.3687 84.9599 43.1545 84.1364 43.4667L82.2634 44.1879C81.9566 45.1675 81.5583 46.1255 81.0739 47.0351L81.892 48.8705C82.2472 49.6724 82.075 50.6089 81.4507 51.2279L78.1298 54.538C77.5055 55.157 76.5636 55.3292 75.7616 54.974L73.9209 54.1666C73.0059 54.6456 72.0479 55.0385 71.0629 55.3453L70.3417 57.213C70.0241 58.0311 69.2329 58.5747 68.3556 58.5747H63.6515C62.7742 58.5747 61.983 58.0311 61.6655 57.213L60.9442 55.3453C59.9593 55.0385 59.0013 54.6456 58.0809 54.1612L56.2402 54.974C55.4382 55.3292 54.4963 55.157 53.8773 54.538L50.5511 51.2279C49.9268 50.6089 49.7545 49.667 50.1098 48.8651L50.9279 47.0351C50.4488 46.1255 50.0505 45.1729 49.7438 44.1879L47.8653 43.4667C47.0419 43.1545 46.5036 42.3687 46.5036 41.4914V41.2653ZM85.5035 37.0241H87.7748C92.2636 37.0241 95.929 33.3749 95.929 28.9077C95.929 25.1724 93.3616 22.0076 89.9008 21.0711C89.0558 20.8396 88.4422 20.1184 88.3453 19.2519C87.6564 12.9116 82.2634 7.97065 75.7132 7.97065C74.2115 7.97065 72.7637 8.23977 71.4235 8.71341C70.6592 8.98252 69.8088 8.79952 69.2275 8.23977C66.6602 5.76393 63.1564 4.23536 59.2919 4.23536C51.3907 4.23536 44.9912 10.608 44.9912 18.4768C44.9912 18.7621 45.002 19.0366 45.0181 19.3111C45.0612 20.2099 44.5337 21.0442 43.6995 21.3833C40.7231 22.5996 38.6079 25.5168 38.6079 28.9077C38.6079 33.2888 42.1332 36.8842 46.5036 37.0241V36.8088C46.5036 35.9315 47.0419 35.1457 47.8653 34.8281L49.7438 34.1069C50.0505 33.122 50.4488 32.1693 50.9279 31.2543L50.1098 29.4244C49.7545 28.6224 49.9268 27.6859 50.5511 27.0669L53.8773 23.7568C54.4963 23.1325 55.4382 22.9603 56.2455 23.3155L58.0809 24.1336C58.9959 23.6492 59.9539 23.2563 60.9442 22.9495L61.6709 21.0765C61.983 20.2584 62.7742 19.7201 63.6515 19.7201H68.3556C69.2329 19.7201 70.0241 20.2584 70.3417 21.0765L71.0629 22.9495C72.0479 23.2563 73.0059 23.6492 73.9209 24.1336L75.7616 23.3155C76.5636 22.9603 77.5055 23.1325 78.1298 23.7568L81.4507 27.0669C82.075 27.6859 82.2472 28.6224 81.892 29.4244L81.0793 31.2543C81.5583 32.1693 81.9566 33.122 82.2634 34.1123L84.1364 34.8281C84.9599 35.1457 85.5035 35.9315 85.5035 36.8088V37.0241ZM67.4783 25.4738L66.8916 23.9614H65.1155L64.5288 25.4738C64.2759 26.125 63.7161 26.6094 63.0326 26.7709C61.7193 27.0831 60.4652 27.5998 59.3188 28.3048C58.7214 28.6762 57.9786 28.7247 57.3381 28.4394L55.8526 27.7828L54.5932 29.0315L55.2552 30.5116C55.5405 31.1521 55.492 31.8894 55.1206 32.4869C54.4102 33.6333 53.8935 34.882 53.5759 36.2006C53.4145 36.8788 52.9247 37.4332 52.2734 37.6807L50.7556 38.262V40.0328L52.2734 40.6141C52.9247 40.867 53.4145 41.4214 53.5759 42.0996C53.8935 43.4075 54.4102 44.6615 55.1206 45.8026C55.492 46.4 55.5405 47.1374 55.2552 47.7779L54.5932 49.258L55.8526 50.5121L57.3381 49.8554C57.9786 49.5756 58.716 49.624 59.3134 49.9846C60.4652 50.6897 61.7193 51.2118 63.0379 51.5239C63.7215 51.6854 64.2812 52.1698 64.5288 52.8264L65.1155 54.3335H66.8916L67.4783 52.8264C67.7259 52.1698 68.2857 51.6854 68.9692 51.5239C70.2825 51.2118 71.5365 50.6951 72.683 49.99C73.2804 49.624 74.0231 49.5702 74.6636 49.8554L76.1491 50.5121L77.4086 49.258L76.752 47.7779C76.4667 47.1374 76.5151 46.4054 76.8811 45.808C77.5862 44.6615 78.1137 43.4129 78.4258 42.105C78.5873 41.4214 79.0771 40.867 79.7337 40.6141L81.2461 40.0328V38.262L79.7337 37.6807C79.0771 37.4278 78.5873 36.8734 78.4258 36.1899C78.1137 34.882 77.597 33.6333 76.8865 32.4869C76.5205 31.8894 76.4667 31.1521 76.752 30.517L77.4086 29.0368L76.1545 27.7828L74.669 28.4394C74.0231 28.7247 73.2858 28.6762 72.6883 28.3048C71.5365 27.5998 70.2825 27.0831 68.9692 26.7709C68.2857 26.6094 67.7259 26.125 67.4783 25.4738ZM66.0036 28.8592C71.7088 28.8592 76.3321 33.4611 76.3321 39.1447C76.3321 44.8284 71.7088 49.4356 66.0036 49.4356C60.2984 49.4356 55.675 44.8284 55.675 39.1447C55.675 33.4611 60.2984 28.8592 66.0036 28.8592ZM66.0036 33.1004C62.645 33.1004 59.9324 35.8023 59.9324 39.1447C59.9324 42.4871 62.645 45.1998 66.0036 45.1998C69.3567 45.1998 72.0748 42.4871 72.0748 39.1447C72.0748 35.8023 69.3567 33.1004 66.0036 33.1004ZM61.095 67.0302L64.1575 61.7395C64.3458 61.4165 64.615 61.1528 64.9271 60.9698C65.2393 60.7868 65.6107 60.6792 66.0036 60.6792C66.3911 60.6792 66.7625 60.7868 67.0746 60.9698C67.3922 61.1528 67.6559 61.4165 67.8443 61.7395L70.9068 67.0302C71.4935 68.0421 71.149 69.3392 70.1318 69.9259C69.4913 70.2919 68.7431 70.2919 68.1296 69.9905V83.1501C68.1296 84.3234 67.1769 85.2707 66.0036 85.2707C64.8249 85.2707 63.8722 84.3234 63.8722 83.1501V69.9905C63.2586 70.2919 62.5105 70.2919 61.8754 69.9259C60.8581 69.3392 60.5083 68.0421 61.095 67.0302ZM86.9675 46.5615C87.1505 46.2493 87.4142 45.9856 87.7372 45.7972L93.0494 42.7455C94.0667 42.1588 95.3692 42.5086 95.9559 43.5205C96.3219 44.1556 96.3219 44.9037 96.0205 45.5119H104.25C105.423 45.5119 106.376 46.4646 106.376 47.6326V61.3304C106.376 62.5037 105.423 63.451 104.25 63.451C103.071 63.451 102.119 62.5037 102.119 61.3304V49.7532H96.0205C96.3219 50.3667 96.3219 51.1149 95.9559 51.7446C95.3692 52.7618 94.0667 53.1063 93.0494 52.525L87.7372 49.4679C87.4142 49.2849 87.1505 49.0158 86.9675 48.7036C86.7845 48.3915 86.6768 48.0255 86.6768 47.6326C86.6768 47.245 86.7845 46.879 86.9675 46.5615ZM34.4689 45.5119C34.1675 44.9037 34.1675 44.1556 34.5335 43.5205C35.1202 42.5086 36.4227 42.1588 37.4399 42.7455L42.7468 45.7972C43.0751 45.9856 43.3389 46.2493 43.5219 46.5615C43.7049 46.879 43.8125 47.245 43.8125 47.6326C43.8125 48.0255 43.7049 48.3915 43.5219 48.7036C43.3389 49.0158 43.0751 49.2849 42.7468 49.4679L37.4399 52.525C36.4227 53.1063 35.1202 52.7618 34.5335 51.7446C34.1675 51.1149 34.1675 50.3667 34.4689 49.7532H28.3654V61.3304C28.3654 62.5037 27.4128 63.451 26.2394 63.451C25.0661 63.451 24.1134 62.5037 24.1134 61.3304V47.6326C24.1134 46.4646 25.0661 45.5119 26.2394 45.5119H34.4689Z" fill="black"/>
  </g>
</svg>