<?xml version="1.0" encoding="utf-8"?>
<svg width="133" height="132" viewBox="0 0 133 132" fill="none" xmlns="http://www.w3.org/2000/svg" id="maintenance-support-maroon" class="maintenance and website technical system business professional IT ongoing assistance support updates continuity" role="contentinfo">
  <desc>Professional maintenance and support team at Maroon Digital Rise ensuring seamless business operations    Keep your systems running smoothly with maintenance and support services by Maroon Digital Rise. From regular updates to technical troubleshooting, we ensure your business stays operational</desc>
  <title>Reliable Maintenance and Support Services by Maroon Digital Rise</title>
  <path d="M49.8587 42.0117C47.4446 42.0117 45.4941 43.9679 45.4941 46.3763C45.4941 48.7847 47.4446 50.7408 49.8587 50.7408C52.2671 50.7408 54.2176 48.7847 54.2176 46.3763C54.2176 43.9679 52.2671 42.0117 49.8587 42.0117ZM49.8587 47.2639C49.3668 47.2639 48.9711 46.8681 48.9711 46.3763C48.9711 45.8901 49.3668 45.4943 49.8587 45.4943C50.3449 45.4943 50.7407 45.8901 50.7407 46.3763C50.7407 46.8681 50.3449 47.2639 49.8587 47.2639Z" fill="#010101"/>
  <path d="M59.5032 42.0117C57.0948 42.0117 55.1387 43.9679 55.1387 46.3763C55.1387 48.7847 57.0948 50.7408 59.5032 50.7408C61.9117 50.7408 63.8678 48.7847 63.8678 46.3763C63.8678 43.9679 61.9117 42.0117 59.5032 42.0117ZM59.5032 47.2639C59.0114 47.2639 58.6156 46.8681 58.6156 46.3763C58.6156 45.8901 59.0114 45.4943 59.5032 45.4943C59.9894 45.4943 60.3852 45.8901 60.3852 46.3763C60.3852 46.8681 59.9894 47.2639 59.5032 47.2639Z" fill="#010101"/>
  <path d="M69.1489 42.0117C66.7405 42.0117 64.79 43.9679 64.79 46.3763C64.79 48.7847 66.7405 50.7408 69.1489 50.7408C71.563 50.7408 73.5135 48.7847 73.5135 46.3763C73.5135 43.9679 71.563 42.0117 69.1489 42.0117ZM69.1489 47.2639C68.6627 47.2639 68.267 46.8681 68.267 46.3763C68.267 45.8901 68.6627 45.4943 69.1489 45.4943C69.6408 45.4943 70.0366 45.8901 70.0366 46.3763C70.0366 46.8681 69.6408 47.2639 69.1489 47.2639Z" fill="#010101"/>
  <path d="M75.4753 79.9141C70.6245 79.9141 66.6953 83.8433 66.6953 88.6941C66.6953 93.5392 70.6245 97.4741 75.4753 97.4741C80.3261 97.4741 84.2553 93.5392 84.2553 88.6941C84.2553 83.8433 80.3261 79.9141 75.4753 79.9141ZM75.4753 93.9915C72.5468 93.9915 70.1723 91.6226 70.1723 88.6941C70.1723 85.7655 72.5468 83.391 75.4753 83.391C78.4039 83.391 80.7727 85.7655 80.7727 88.6941C80.7727 91.6226 78.4039 93.9915 75.4753 93.9915Z" fill="#010101"/>
  <path d="M19.3353 111.788C20.0138 112.472 21.1106 112.484 21.7946 111.805L26.555 107.113C27.239 106.44 27.2447 105.337 26.5663 104.653L21.8738 99.8987C21.201 99.2146 20.0986 99.2089 19.4145 99.8817C18.7361 100.555 18.7248 101.657 19.4032 102.341L22.8745 105.858L19.3523 109.329C18.6682 110.007 18.6626 111.104 19.3353 111.788Z" fill="#010101"/>
  <path d="M29.9981 107.548H40.1576C41.1187 107.548 41.8933 106.774 41.8933 105.813C41.8933 104.851 41.1187 104.071 40.1576 104.071H29.9981C29.037 104.071 28.2568 104.851 28.2568 105.813C28.2568 106.774 29.037 107.548 29.9981 107.548Z" fill="#010101"/>
  <path d="M98.7441 51.7638C99.4112 52.4536 100.514 52.4705 101.203 51.7978C101.893 51.1306 101.91 50.0282 101.237 49.3385L98.3935 46.4156L101.322 43.5662C102.012 42.899 102.029 41.7966 101.356 41.1069C100.689 40.4228 99.5864 40.4058 98.8967 41.0729L94.7244 45.1322C94.0346 45.7993 94.0177 46.9018 94.6904 47.5858L98.7441 51.7638Z" fill="#010101"/>
  <path d="M117.334 46.4722L114.49 49.4008C113.823 50.0849 113.84 51.1873 114.529 51.8601C115.219 52.5272 116.316 52.5103 116.989 51.8205L121.042 47.6482C121.709 46.9585 121.698 45.856 121.008 45.1889L116.83 41.1353C116.141 40.4625 115.044 40.4795 114.371 41.1692C113.704 41.8589 113.721 42.9557 114.411 43.6285L117.334 46.4722Z" fill="#010101"/>
  <path d="M105.293 53.2058C106.192 53.545 107.198 53.0927 107.531 52.1938L111.455 41.7856C111.794 40.8867 111.336 39.886 110.437 39.5468C109.538 39.2076 108.538 39.6598 108.199 40.5588L104.281 50.967C103.941 51.8659 104.394 52.8722 105.293 53.2058Z" fill="#010101"/>
  <mask id="mask0_301_519" style="mask-type:luminance" maskUnits="userSpaceOnUse" x="9" y="8" width="124" height="124">
    <path d="M9.66113 8.97803H132.152V132H9.66113V8.97803Z" fill="white"/>
  </mask>
  <g mask="url(#mask0_301_519)">
    <path d="M125.219 12.1505C121.301 12.1505 118.13 15.3278 118.13 19.2457C118.13 19.9015 118.248 20.5291 118.412 21.134L115.648 22.5926C115.077 22.8923 114.72 23.4859 114.72 24.1304V30.9486H109.926V23.1297C112.996 22.3495 115.274 19.5906 115.274 16.2776C115.274 12.3653 112.103 9.18799 108.185 9.18799C104.267 9.18799 101.095 12.3653 101.095 16.2776C101.095 19.5906 103.374 22.3552 106.444 23.1297V30.9486H101.011V24.1304C101.011 23.4859 100.654 22.8923 100.083 22.5926L97.3131 21.134C97.4827 20.5291 97.6014 19.9015 97.6014 19.2457C97.6014 15.3278 94.4297 12.1505 90.5118 12.1505C86.5939 12.1505 83.4222 15.3278 83.4222 19.2457C83.4222 23.158 86.5939 26.3353 90.5118 26.3353C92.5132 26.3353 94.3167 25.4986 95.6057 24.1587L97.5336 25.1763V30.9486H92.2757C90.3535 30.9486 88.7988 32.5033 88.7988 34.4256V37.0997H43.6324C40.749 37.0997 38.4141 39.4346 38.4141 42.3179V79.9142H18.7284C17.7899 79.9142 16.891 80.293 16.2351 80.9658L11.3165 86.0144C10.6833 86.6646 10.3271 87.5352 10.3271 88.4455V128.292C10.3271 130.214 11.8875 131.769 13.8041 131.769H45.4924C47.4146 131.769 48.9693 130.214 48.9693 128.292V91.4023H56.4999C56.3586 94.3026 58.4052 97.2764 61.9782 97.3612C63.3068 97.3894 64.2905 98.6163 64.0248 99.9222C62.8545 105.638 70.0911 109.121 73.8338 104.649C74.6875 103.625 76.2592 103.625 77.1128 104.649C80.8555 109.121 88.0921 105.638 86.9218 99.9222C86.6561 98.6163 87.6342 97.3894 88.9684 97.3612C92.5415 97.2764 94.5881 94.3026 94.4467 91.4023H107.314C110.198 91.4023 112.533 89.0674 112.533 86.1897V61.8115H123.455C125.372 61.8115 126.932 60.2511 126.932 58.3289V34.4256C126.932 32.5033 125.372 30.9486 123.455 30.9486H118.197V25.1763L120.125 24.1587C121.414 25.4986 123.212 26.3353 125.219 26.3353C129.137 26.3353 132.309 23.158 132.309 19.2457C132.309 15.3278 129.137 12.1505 125.219 12.1505ZM90.5118 22.8583C88.5161 22.8583 86.8992 21.2414 86.8992 19.2457C86.8992 17.25 88.5161 15.6331 90.5118 15.6331C92.5075 15.6331 94.1245 17.25 94.1245 19.2457C94.1245 21.2414 92.5075 22.8583 90.5118 22.8583ZM104.572 16.2776C104.572 14.2875 106.189 12.6649 108.185 12.6649C110.181 12.6649 111.798 14.2875 111.798 16.2776C111.798 18.2733 110.181 19.8902 108.185 19.8902C106.189 19.8902 104.572 18.2733 104.572 16.2776ZM41.8911 42.3179C41.8911 41.3568 42.6713 40.5766 43.6324 40.5766H88.7988V52.3417H41.8911V42.3179ZM45.4924 128.292H13.8041V88.4455L18.7284 83.3912H45.4924V128.292ZM88.8892 93.8842C85.3897 93.9634 82.8173 97.1916 83.5183 100.618C83.9593 102.794 81.206 104.123 79.7813 102.415C77.5369 99.73 73.4098 99.73 71.1653 102.415C69.7406 104.123 66.9873 102.794 67.4283 100.618C68.1293 97.1916 65.5569 93.9634 62.0574 93.8842C59.8355 93.8333 59.1571 90.8482 61.1358 89.8419C64.251 88.2533 65.1725 84.2279 63.0524 81.4407C61.7069 79.6711 63.6178 77.2797 65.6361 78.2012C68.8247 79.6429 72.5448 77.8563 73.3984 74.4585C73.9468 72.3102 76.9998 72.3102 77.5482 74.4585C78.4019 77.8563 82.1219 79.6429 85.3105 78.2012C87.3289 77.2797 89.2398 79.6711 87.8942 81.4407C85.7741 84.2279 86.6957 88.2533 89.8108 89.8419C91.7895 90.8482 91.1054 93.8333 88.8892 93.8842ZM109.056 86.1897C109.056 87.1508 108.275 87.9253 107.314 87.9253H92.9881C92.5584 87.4731 92.027 87.066 91.3938 86.7438C90.2065 86.1388 89.856 84.6067 90.6645 83.5438C94.1923 78.9022 89.1832 72.6211 83.8745 75.0295C82.659 75.5779 81.2456 74.8995 80.9177 73.6048C79.4874 67.9513 71.4536 67.9513 70.0289 73.6048C69.701 74.8995 68.2876 75.5779 67.0721 75.0295C61.7634 72.6211 56.7543 78.9022 60.2822 83.5438C61.0906 84.6067 60.7401 86.1388 59.5528 86.7438C58.9196 87.066 58.3882 87.4731 57.9585 87.9253H48.9693V83.3912C48.9693 81.4746 47.4146 79.9142 45.4924 79.9142H41.8911V55.8187H88.7988V58.3289C88.7988 60.2511 90.3535 61.8115 92.2757 61.8115H109.056V86.1897ZM123.455 34.4256V58.3289H92.2757V34.4256H123.455ZM125.219 22.8583C123.223 22.8583 121.606 21.2414 121.606 19.2457C121.606 17.25 123.223 15.6331 125.219 15.6331C127.215 15.6331 128.832 17.25 128.832 19.2457C128.832 21.2414 127.215 22.8583 125.219 22.8583Z" fill="#010101"/>
  </g>
  <path d="M37.6467 6.16273L34.7859 9.93367C34.2093 10.6969 34.3563 11.788 35.1252 12.3704C35.8884 12.947 36.9795 12.8 37.5618 12.0311L40.4169 8.26021C40.9936 7.49698 40.8466 6.40584 40.0833 5.82352C39.3145 5.2412 38.2233 5.39385 37.6467 6.16273Z" fill="#010101"/>
  <path d="M14.3944 39.4281C15.7456 40.5023 16.5484 41.8309 16.5484 43.1312V45.9071C16.5484 48.0611 17.8544 49.9098 19.7201 50.707V51.278C19.7201 53.6582 21.6479 55.586 24.0281 55.586C26.5044 55.586 28.4718 53.4999 28.3248 51.0236L28.3135 50.7635C30.2696 50.0116 31.6604 48.129 31.6604 45.9071V43.1312C31.6604 41.8309 32.4632 40.5023 33.8201 39.4281C37.7098 36.3413 40.203 31.4453 40.203 25.9726C40.203 16.7403 33.0795 9.09668 24.1072 9.09668C15.1294 9.09668 8.00586 16.7403 8.00586 25.9726C8.00586 31.4453 10.4991 36.3413 14.3944 39.4281ZM24.0281 52.1091C23.5702 52.1091 23.197 51.736 23.197 51.278V51.1254H24.8479L24.8535 51.2328C24.8818 51.7077 24.503 52.1091 24.0281 52.1091ZM28.1835 45.9071C28.1835 46.8682 27.4033 47.6484 26.4422 47.6484H21.7667C20.8056 47.6484 20.0254 46.8682 20.0254 45.9071V43.5383H28.1835V45.9071ZM24.1072 12.5736C30.9876 12.5736 36.726 18.4873 36.726 25.9726C36.726 30.3824 34.719 34.2721 31.6548 36.7031C30.5749 37.5624 29.5629 38.7045 28.9071 40.0613H19.3017C18.6459 38.7045 17.6339 37.5624 16.5541 36.7031C13.4898 34.2721 11.4828 30.3824 11.4828 25.9726C11.4828 18.4873 17.2212 12.5736 24.1072 12.5736Z" fill="#010101"/>
  <mask id="mask1_301_519" style="mask-type:luminance" maskUnits="userSpaceOnUse" x="21" y="0" width="7" height="9">
    <path d="M21.2393 0H27.0285V8.97788H21.2393V0Z" fill="white"/>
  </mask>
  <g mask="url(#mask1_301_519)">
    <path d="M22.3643 1.95126V6.67765C22.3643 7.63876 23.1445 8.41895 24.1056 8.41895C25.061 8.41895 25.8412 7.63876 25.8412 6.67765V1.95126C25.8412 0.990155 25.061 0.209961 24.1056 0.209961C23.1445 0.209961 22.3643 0.990155 22.3643 1.95126Z" fill="#010101"/>
  </g>
  <path d="M8.23708 5.67657C7.47385 6.25889 7.32686 7.35002 7.90352 8.11326L10.7586 11.8842C11.3409 12.6531 12.432 12.8001 13.1953 12.2234C13.9642 11.6411 14.1111 10.5499 13.5345 9.78672L10.6738 6.01578C10.0971 5.24689 9.00597 5.0999 8.23708 5.67657Z" fill="#010101"/>
  <path d="M43.0345 20.438C42.079 20.5567 41.4006 21.4274 41.5193 22.3772C41.6381 23.3326 42.5031 24.0111 43.4585 23.8923L48.151 23.3157C49.1064 23.197 49.7849 22.332 49.6661 21.3765C49.5531 20.4267 48.6824 19.7483 47.7326 19.867L43.0345 20.438Z" fill="#010101"/>
  <mask id="mask2_301_519" style="mask-type:luminance" maskUnits="userSpaceOnUse" x="0" y="19" width="10" height="6">
    <path d="M0 19.1094H9.66196V24.8986H0V19.1094Z" fill="white"/>
  </mask>
  <g mask="url(#mask2_301_519)">
    <path d="M6.83516 20.1551L2.13703 19.5784C1.18723 19.4597 0.316583 20.1381 0.197859 21.0879C0.0847856 22.0434 0.763215 22.914 1.71302 23.0271L6.41114 23.6038C7.36659 23.7225 8.23159 23.0441 8.35032 22.0886C8.46904 21.1388 7.79061 20.2682 6.83516 20.1551Z" fill="#010101"/>
  </g>
  <path d="M121.653 118.166H117.374C117.221 118.166 117.074 118.194 116.921 118.211C117.204 117.713 117.374 117.142 117.374 116.526V112.252C117.374 110.33 115.819 108.775 113.897 108.775H109.617C109.436 108.775 109.261 108.798 109.091 108.826C109.374 108.323 109.549 107.752 109.549 107.136V102.856C109.549 100.939 107.989 99.3789 106.066 99.3789H101.792C99.8702 99.3789 98.3154 100.939 98.3154 102.856V107.136C98.3154 108.153 98.7564 109.058 99.4518 109.691C98.7564 110.33 98.3154 111.234 98.3154 112.252V116.526C98.3154 117.544 98.7564 118.448 99.4518 119.087C98.7564 119.72 98.3154 120.631 98.3154 121.643V125.922C98.3154 127.845 99.8702 129.399 101.792 129.399H106.066C106.722 129.399 107.322 129.213 107.842 128.896C108.367 129.213 108.967 129.399 109.617 129.399H113.897C114.536 129.399 115.124 129.218 115.638 128.919C116.147 129.218 116.74 129.399 117.374 129.399H121.653C123.57 129.399 125.13 127.845 125.13 125.922V121.643C125.13 119.726 123.57 118.166 121.653 118.166ZM106.066 125.922H101.792V121.643H106.066V125.922ZM106.066 116.526H101.792V112.252H106.066V116.526ZM106.066 107.136H101.792V102.856H106.066V107.136ZM113.897 125.922H109.617V121.643H113.897V125.922ZM113.897 116.526H109.617V112.252H113.897V116.526ZM121.653 125.922H117.374V121.643H121.653V125.922Z" fill="#010101"/>
</svg>