<svg width="200" height="110" viewBox="0 0 200 110" fill="none" xmlns="http://www.w3.org/2000/svg">
<path d="M190.505 0H9.49495C4.25939 0 0 4.25939 0 9.49495V61.2121C0 66.4477 4.25939 70.7071 9.49495 70.7071H90.5051V90.5051H80.6061C75.3705 90.5051 71.1111 94.7644 71.1111 100V103.232C71.1111 106.686 73.9204 109.495 77.3737 109.495H122.626C126.08 109.495 128.889 106.686 128.889 103.232V100C128.889 94.7644 124.629 90.5051 119.394 90.5051H109.495V70.7071H190.505C195.741 70.7071 200 66.4477 200 61.2121V9.49495C200 4.25939 195.741 0 190.505 0ZM119.394 96.5657C121.288 96.5657 122.828 98.1063 122.828 100V103.232C122.828 103.343 122.738 103.434 122.626 103.434H77.3737C77.2622 103.434 77.1717 103.343 77.1717 103.232V100C77.1717 98.1063 78.7123 96.5657 80.6061 96.5657H119.394ZM96.5657 90.5051V70.7071H103.434V90.5051H96.5657ZM193.939 61.2121C193.939 63.1059 192.399 64.6465 190.505 64.6465H9.49495C7.60121 64.6465 6.06061 63.1059 6.06061 61.2121V9.49495C6.06061 7.60121 7.60121 6.06061 9.49495 6.06061H190.505C192.399 6.06061 193.939 7.60121 193.939 9.49495V61.2121Z" fill="black"/>
<path d="M31.9192 30.5052C31.9192 24.3787 26.935 19.394 20.8081 19.394H15.9596C14.2861 19.394 12.9293 20.7504 12.9293 22.4243V48.2829C12.9293 49.9569 14.2861 51.3132 15.9596 51.3132C17.6332 51.3132 18.9899 49.9569 18.9899 48.2829V41.6163H20.8025L26.3673 49.9637C26.9511 50.8397 27.9119 51.3136 28.8913 51.3136C29.4691 51.3136 30.053 51.1488 30.5693 50.8041C31.962 49.8757 32.3382 47.9944 31.4097 46.6021L26.8784 39.8046C29.9107 37.8183 31.9192 34.3928 31.9192 30.5052ZM20.8081 35.5557H18.9899V25.4546H20.8081C23.5932 25.4546 25.8586 27.7201 25.8586 30.5052C25.8586 33.2902 23.5932 35.5557 20.8081 35.5557Z" fill="black"/>
<path d="M122.424 30.5052C122.424 24.3787 117.44 19.394 111.313 19.394H106.465C104.791 19.394 103.434 20.7504 103.434 22.4243V48.2829C103.434 49.9569 104.791 51.3132 106.465 51.3132C108.138 51.3132 109.495 49.9569 109.495 48.2829V41.6163H111.307L116.872 49.9637C117.456 50.8397 118.417 51.3136 119.396 51.3136C119.974 51.3136 120.558 51.1488 121.074 50.8041C122.467 49.8757 122.843 47.9944 121.915 46.6021L117.383 39.8046C120.416 37.8183 122.424 34.3928 122.424 30.5052ZM111.313 35.5557H109.495V25.4546H111.313C114.098 25.4546 116.364 27.7201 116.364 30.5052C116.364 33.2902 114.098 35.5557 111.313 35.5557Z" fill="black"/>
<path d="M51.5151 25.4546C53.1887 25.4546 54.5454 24.0983 54.5454 22.4243C54.5454 20.7504 53.1887 19.394 51.5151 19.394H38.5858C36.9123 19.394 35.5555 20.7504 35.5555 22.4243V48.2829C35.5555 49.9569 36.9123 51.3132 38.5858 51.3132H51.5151C53.1887 51.3132 54.5454 49.9569 54.5454 48.2829C54.5454 46.609 53.1887 45.2526 51.5151 45.2526H41.6161V38.3839H48.2828C49.9564 38.3839 51.3131 37.0276 51.3131 35.3536C51.3131 33.6797 49.9564 32.3233 48.2828 32.3233H41.6161V25.4546H51.5151Z" fill="black"/>
<path d="M164.646 25.4546C166.32 25.4546 167.677 24.0983 167.677 22.4243C167.677 20.7504 166.32 19.394 164.646 19.394H151.717C150.044 19.394 148.687 20.7504 148.687 22.4243V48.2829C148.687 49.9569 150.044 51.3132 151.717 51.3132H164.646C166.32 51.3132 167.677 49.9569 167.677 48.2829C167.677 46.609 166.32 45.2526 164.646 45.2526H154.747V38.3839H161.414C163.088 38.3839 164.444 37.0276 164.444 35.3536C164.444 33.6797 163.088 32.3233 161.414 32.3233H154.747V25.4546H164.646Z" fill="black"/>
<path d="M96.7677 25.4546C98.4412 25.4546 99.798 24.0983 99.798 22.4243C99.798 20.7504 98.4412 19.394 96.7677 19.394H83.8384C82.1649 19.394 80.8081 20.7504 80.8081 22.4243V48.2829C80.8081 49.9569 82.1649 51.3132 83.8384 51.3132H96.7677C98.4412 51.3132 99.798 49.9569 99.798 48.2829C99.798 46.609 98.4412 45.2526 96.7677 45.2526H86.8687V38.3839H93.5354C95.2089 38.3839 96.5657 37.0276 96.5657 35.3536C96.5657 33.6797 95.2089 32.3233 93.5354 32.3233H86.8687V25.4546H96.7677Z" fill="black"/>
<path d="M68.1616 19.394H67.1919C62.2238 19.394 58.1818 23.4361 58.1818 28.426C58.1818 31.8607 60.0905 34.9492 63.1624 36.4845L69.4808 39.6433C70.4865 40.1464 71.1111 41.1569 71.1111 42.3031C71.1111 43.9294 69.7879 45.2526 68.1616 45.2526H67.1919C65.5657 45.2526 64.2424 43.9298 64.2424 42.3031V41.8183C64.2424 40.1443 62.8857 38.788 61.2121 38.788C59.5386 38.788 58.1818 40.1443 58.1818 41.8183V42.3031C58.1818 47.2712 62.2234 51.3132 67.1919 51.3132H68.1616C73.1297 51.3132 77.1717 47.2712 77.1717 42.2813C77.1717 38.8466 75.263 35.7581 72.1911 34.2227L65.8727 31.0639C64.8671 30.5609 64.2424 29.5504 64.2424 28.4041C64.2424 26.7779 65.5657 25.4546 67.1919 25.4546H68.1616C69.7879 25.4546 71.1111 26.7775 71.1111 28.4041V28.889C71.1111 30.5629 72.4679 31.9193 74.1414 31.9193C75.815 31.9193 77.1717 30.5629 77.1717 28.889V28.4041C77.1717 23.4361 73.1301 19.394 68.1616 19.394Z" fill="black"/>
<path d="M142.755 19.4843C141.133 19.0811 139.486 20.0657 139.08 21.6892L135.556 35.7885L132.031 21.6892C131.625 20.0657 129.979 19.0782 128.356 19.4843C126.732 19.8904 125.745 21.5356 126.151 23.1595L132.616 49.018C132.953 50.3671 134.165 51.3134 135.556 51.3134C136.946 51.3134 138.158 50.3671 138.495 49.018L144.96 23.1595C145.366 21.5356 144.379 19.8904 142.755 19.4843Z" fill="black"/>
<path d="M177.576 19.394H174.343C172.67 19.394 171.313 20.7504 171.313 22.4243V48.2829C171.313 49.9569 172.67 51.3132 174.343 51.3132H177.576C184.594 51.3132 190.303 45.6037 190.303 38.586V32.1213C190.303 25.1035 184.594 19.394 177.576 19.394ZM184.242 38.586C184.242 42.2619 181.252 45.2526 177.576 45.2526H177.374V25.4546H177.576C181.252 25.4546 184.242 28.4454 184.242 32.1213V38.586Z" fill="black"/>
</svg>
