<svg xmlns="http://www.w3.org/2000/svg" xmlns:xlink="http://www.w3.org/1999/xlink" width="604" zoomAndPan="magnify" viewBox="0 0 452.88 195.000001" height="260" preserveAspectRatio="xMidYMid meet" version="1.0"><defs><g/></defs><g fill="#393be5" fill-opacity="1"><g transform="translate(32.161096, 88.217698)"><g><path d="M 7.234375 -1.109375 L 7.234375 -53.4375 C 7.234375 -53.707031 7.351562 -53.960938 7.59375 -54.203125 C 7.832031 -54.441406 8.082031 -54.5625 8.34375 -54.5625 L 36.578125 -54.5625 C 38.171875 -54.5625 39.671875 -54.253906 41.078125 -53.640625 C 42.484375 -53.035156 43.710938 -52.203125 44.765625 -51.140625 C 45.828125 -50.078125 46.664062 -48.84375 47.28125 -47.4375 C 47.894531 -46.03125 48.203125 -44.535156 48.203125 -42.953125 L 48.203125 -11.609375 C 48.203125 -10.015625 47.894531 -8.503906 47.28125 -7.078125 C 46.664062 -5.648438 45.828125 -4.414062 44.765625 -3.375 C 43.710938 -2.34375 42.484375 -1.519531 41.078125 -0.90625 C 39.671875 -0.300781 38.171875 0 36.578125 0 L 8.34375 0 C 8.082031 0 7.832031 -0.101562 7.59375 -0.3125 C 7.351562 -0.53125 7.234375 -0.796875 7.234375 -1.109375 Z M 13.28125 -6.046875 L 36.578125 -6.046875 C 38.117188 -6.046875 39.429688 -6.585938 40.515625 -7.671875 C 41.609375 -8.765625 42.15625 -10.078125 42.15625 -11.609375 L 42.15625 -42.953125 C 42.15625 -44.484375 41.609375 -45.789062 40.515625 -46.875 C 39.429688 -47.96875 38.117188 -48.515625 36.578125 -48.515625 L 13.28125 -48.515625 Z M 13.28125 -6.046875 "/></g></g></g><g fill="#393be5" fill-opacity="1"><g transform="translate(87.577685, 88.217698)"><g><path d="M 8.34375 -1.109375 L 8.34375 -4.9375 C 8.34375 -5.195312 8.445312 -5.445312 8.65625 -5.6875 C 8.875 -5.925781 9.144531 -6.046875 9.46875 -6.046875 L 24.734375 -6.046875 L 24.734375 -48.515625 L 9.46875 -48.515625 C 8.71875 -48.515625 8.34375 -48.882812 8.34375 -49.625 L 8.34375 -53.4375 C 8.34375 -54.1875 8.71875 -54.5625 9.46875 -54.5625 L 45.96875 -54.5625 C 46.707031 -54.5625 47.078125 -54.1875 47.078125 -53.4375 L 47.078125 -49.625 C 47.078125 -48.882812 46.707031 -48.515625 45.96875 -48.515625 L 30.78125 -48.515625 L 30.78125 -6.046875 L 45.96875 -6.046875 C 46.289062 -6.046875 46.554688 -5.925781 46.765625 -5.6875 C 46.972656 -5.445312 47.078125 -5.195312 47.078125 -4.9375 L 47.078125 -1.109375 C 47.078125 -0.367188 46.707031 0 45.96875 0 L 9.46875 0 C 8.71875 0 8.34375 -0.367188 8.34375 -1.109375 Z M 8.34375 -1.109375 "/></g></g></g><g fill="#393be5" fill-opacity="1"><g transform="translate(142.994274, 88.217698)"><g><path d="M 47.078125 -30.296875 C 47.398438 -30.296875 47.664062 -30.175781 47.875 -29.9375 C 48.09375 -29.695312 48.203125 -29.445312 48.203125 -29.1875 L 48.203125 -11.609375 C 48.203125 -10.015625 47.894531 -8.503906 47.28125 -7.078125 C 46.664062 -5.648438 45.828125 -4.414062 44.765625 -3.375 C 43.710938 -2.34375 42.484375 -1.519531 41.078125 -0.90625 C 39.671875 -0.300781 38.171875 0 36.578125 0 L 18.84375 0 C 17.257812 0 15.765625 -0.300781 14.359375 -0.90625 C 12.953125 -1.519531 11.71875 -2.34375 10.65625 -3.375 C 9.59375 -4.414062 8.753906 -5.648438 8.140625 -7.078125 C 7.535156 -8.503906 7.234375 -10.015625 7.234375 -11.609375 L 7.234375 -42.953125 C 7.234375 -44.535156 7.535156 -46.03125 8.140625 -47.4375 C 8.753906 -48.84375 9.59375 -50.078125 10.65625 -51.140625 C 11.71875 -52.203125 12.953125 -53.035156 14.359375 -53.640625 C 15.765625 -54.253906 17.257812 -54.5625 18.84375 -54.5625 L 36.578125 -54.5625 C 38.171875 -54.5625 39.671875 -54.253906 41.078125 -53.640625 C 42.484375 -53.035156 43.703125 -52.210938 44.734375 -51.171875 C 45.765625 -50.140625 46.597656 -48.921875 47.234375 -47.515625 C 47.878906 -46.109375 48.203125 -44.613281 48.203125 -43.03125 L 48.203125 -39.28125 C 48.203125 -38.539062 47.828125 -38.171875 47.078125 -38.171875 L 43.265625 -38.171875 C 42.523438 -38.171875 42.15625 -38.539062 42.15625 -39.28125 L 42.15625 -43.03125 C 42.101562 -44.5625 41.546875 -45.859375 40.484375 -46.921875 C 39.421875 -47.984375 38.117188 -48.515625 36.578125 -48.515625 L 18.84375 -48.515625 C 17.3125 -48.515625 16 -47.96875 14.90625 -46.875 C 13.820312 -45.789062 13.28125 -44.484375 13.28125 -42.953125 L 13.28125 -11.609375 C 13.28125 -10.078125 13.820312 -8.765625 14.90625 -7.671875 C 16 -6.585938 17.3125 -6.046875 18.84375 -6.046875 L 36.578125 -6.046875 C 38.117188 -6.046875 39.429688 -6.585938 40.515625 -7.671875 C 41.609375 -8.765625 42.15625 -10.078125 42.15625 -11.609375 L 42.15625 -24.25 L 29.109375 -24.25 C 28.835938 -24.25 28.582031 -24.351562 28.34375 -24.5625 C 28.113281 -24.78125 28 -25.050781 28 -25.375 L 28 -29.1875 C 28 -29.445312 28.113281 -29.695312 28.34375 -29.9375 C 28.582031 -30.175781 28.835938 -30.296875 29.109375 -30.296875 Z M 47.078125 -30.296875 "/></g></g></g><g fill="#393be5" fill-opacity="1"><g transform="translate(198.331368, 88.217698)"><g><path d="M 8.34375 -1.109375 L 8.34375 -4.9375 C 8.34375 -5.195312 8.445312 -5.445312 8.65625 -5.6875 C 8.875 -5.925781 9.144531 -6.046875 9.46875 -6.046875 L 24.734375 -6.046875 L 24.734375 -48.515625 L 9.46875 -48.515625 C 8.71875 -48.515625 8.34375 -48.882812 8.34375 -49.625 L 8.34375 -53.4375 C 8.34375 -54.1875 8.71875 -54.5625 9.46875 -54.5625 L 45.96875 -54.5625 C 46.707031 -54.5625 47.078125 -54.1875 47.078125 -53.4375 L 47.078125 -49.625 C 47.078125 -48.882812 46.707031 -48.515625 45.96875 -48.515625 L 30.78125 -48.515625 L 30.78125 -6.046875 L 45.96875 -6.046875 C 46.289062 -6.046875 46.554688 -5.925781 46.765625 -5.6875 C 46.972656 -5.445312 47.078125 -5.195312 47.078125 -4.9375 L 47.078125 -1.109375 C 47.078125 -0.367188 46.707031 0 45.96875 0 L 9.46875 0 C 8.71875 0 8.34375 -0.367188 8.34375 -1.109375 Z M 8.34375 -1.109375 "/></g></g></g><g fill="#393be5" fill-opacity="1"><g transform="translate(253.747957, 88.217698)"><g><path d="M 24.734375 -1.109375 L 24.734375 -48.515625 L 8.4375 -48.515625 C 7.6875 -48.515625 7.3125 -48.882812 7.3125 -49.625 L 7.3125 -53.4375 C 7.3125 -54.1875 7.6875 -54.5625 8.4375 -54.5625 L 47.078125 -54.5625 C 47.828125 -54.5625 48.203125 -54.1875 48.203125 -53.4375 L 48.203125 -49.625 C 48.203125 -48.882812 47.828125 -48.515625 47.078125 -48.515625 L 30.78125 -48.515625 L 30.78125 -1.109375 C 30.78125 -0.796875 30.660156 -0.53125 30.421875 -0.3125 C 30.179688 -0.101562 29.929688 0 29.671875 0 L 25.84375 0 C 25.101562 0 24.734375 -0.367188 24.734375 -1.109375 Z M 24.734375 -1.109375 "/></g></g></g><g fill="#393be5" fill-opacity="1"><g transform="translate(309.164546, 88.217698)"><g><path d="M 35.15625 -54.5625 C 35.46875 -54.5625 35.769531 -54.453125 36.0625 -54.234375 C 36.351562 -54.023438 36.550781 -53.789062 36.65625 -53.53125 L 47.71875 -25.84375 C 47.820312 -25.582031 47.910156 -25.238281 47.984375 -24.8125 C 48.066406 -24.382812 48.109375 -24.015625 48.109375 -23.703125 L 48.109375 -1.109375 C 48.109375 -0.367188 47.738281 0 47 0 L 43.265625 0 C 42.523438 0 42.15625 -0.367188 42.15625 -1.109375 L 42.15625 -15.828125 L 13.28125 -15.828125 L 13.28125 -1.109375 C 13.28125 -0.367188 12.910156 0 12.171875 0 L 8.34375 0 C 7.601562 0 7.234375 -0.367188 7.234375 -1.109375 L 7.234375 -23.703125 C 7.234375 -24.015625 7.269531 -24.382812 7.34375 -24.8125 C 7.425781 -25.238281 7.523438 -25.582031 7.640625 -25.84375 L 18.6875 -53.53125 C 18.789062 -53.789062 19 -54.023438 19.3125 -54.234375 C 19.632812 -54.453125 19.929688 -54.5625 20.203125 -54.5625 Z M 42.15625 -21.796875 L 42.15625 -23.703125 L 32.203125 -48.515625 L 23.21875 -48.515625 L 13.28125 -23.703125 L 13.28125 -21.796875 Z M 42.15625 -21.796875 "/></g></g></g><g fill="#393be5" fill-opacity="1"><g transform="translate(364.581135, 88.217698)"><g><path d="M 10.5 -54.5625 L 14.3125 -54.5625 C 15.050781 -54.5625 15.421875 -54.1875 15.421875 -53.4375 L 15.421875 -6.046875 L 46.53125 -6.046875 C 46.84375 -6.046875 47.101562 -5.925781 47.3125 -5.6875 C 47.53125 -5.445312 47.640625 -5.195312 47.640625 -4.9375 L 47.640625 -1.109375 C 47.640625 -0.367188 47.269531 0 46.53125 0 L 10.5 0 C 10.226562 0 9.972656 -0.101562 9.734375 -0.3125 C 9.503906 -0.53125 9.390625 -0.796875 9.390625 -1.109375 L 9.390625 -53.4375 C 9.390625 -53.757812 9.503906 -54.023438 9.734375 -54.234375 C 9.972656 -54.453125 10.226562 -54.5625 10.5 -54.5625 Z M 10.5 -54.5625 "/></g></g></g><path fill="#321c79" d="M 39.511719 95.9375 L 412.820312 95.9375 L 412.820312 168.289062 L 39.511719 168.289062 L 39.511719 95.9375 " fill-opacity="1" fill-rule="nonzero"/><g fill="#ffffff" fill-opacity="1"><g transform="translate(63.223444, 147.890057)"><g><path d="M 23.65625 0 L 23.65625 -26.28125 L 18.390625 -26.28125 L 18.390625 -31.53125 L 23.65625 -31.53125 L 23.65625 -36.796875 L 28.90625 -36.796875 L 28.90625 0 Z M 2.625 0 L 2.625 -36.796875 L 7.890625 -36.796875 L 7.890625 -31.53125 L 13.140625 -31.53125 L 13.140625 -26.28125 L 7.890625 -26.28125 L 7.890625 0 Z M 13.140625 -21.03125 L 13.140625 -26.28125 L 18.390625 -26.28125 L 18.390625 -21.03125 Z M 13.140625 -21.03125 "/></g></g></g><g fill="#ffffff" fill-opacity="1"><g transform="translate(102.645013, 147.890057)"><g><path d="M 2.625 0 L 2.625 -31.53125 L 7.890625 -31.53125 L 7.890625 -15.765625 L 23.65625 -15.765625 L 23.65625 -31.53125 L 28.90625 -31.53125 L 28.90625 0 L 23.65625 0 L 23.65625 -10.515625 L 7.890625 -10.515625 L 7.890625 0 Z M 7.890625 -31.53125 L 7.890625 -36.796875 L 23.65625 -36.796875 L 23.65625 -31.53125 Z M 7.890625 -31.53125 "/></g></g></g><g fill="#ffffff" fill-opacity="1"><g transform="translate(142.066582, 147.890057)"><g><path d="M 2.625 0 L 2.625 -36.796875 L 23.65625 -36.796875 L 23.65625 -31.53125 L 7.890625 -31.53125 L 7.890625 -21.03125 L 23.65625 -21.03125 L 23.65625 -15.765625 L 18.390625 -15.765625 L 18.390625 -10.515625 L 13.140625 -10.515625 L 13.140625 -15.765625 L 7.890625 -15.765625 L 7.890625 0 Z M 18.390625 -5.25 L 18.390625 -10.515625 L 23.65625 -10.515625 L 23.65625 -5.25 Z M 23.65625 0 L 23.65625 -5.25 L 28.90625 -5.25 L 28.90625 0 Z M 23.65625 -21.03125 L 23.65625 -31.53125 L 28.90625 -31.53125 L 28.90625 -21.03125 Z M 23.65625 -21.03125 "/></g></g></g><g fill="#ffffff" fill-opacity="1"><g transform="translate(181.488153, 147.890057)"><g><path d="M 2.625 0 L 2.625 -36.796875 L 7.890625 -36.796875 L 7.890625 -21.03125 L 18.390625 -21.03125 L 18.390625 -15.765625 L 7.890625 -15.765625 L 7.890625 0 Z M 18.390625 -10.515625 L 18.390625 -15.765625 L 23.65625 -15.765625 L 23.65625 -10.515625 Z M 18.390625 -21.03125 L 18.390625 -26.28125 L 23.65625 -26.28125 L 23.65625 -21.03125 Z M 23.65625 0 L 23.65625 -10.515625 L 28.90625 -10.515625 L 28.90625 0 Z M 23.65625 -26.28125 L 23.65625 -36.796875 L 28.90625 -36.796875 L 28.90625 -26.28125 Z M 23.65625 -26.28125 "/></g></g></g><g fill="#ffffff" fill-opacity="1"><g transform="translate(220.909719, 147.890057)"><g><path d="M 2.625 0 L 2.625 -36.796875 L 28.90625 -36.796875 L 28.90625 -31.53125 L 7.890625 -31.53125 L 7.890625 -21.03125 L 23.65625 -21.03125 L 23.65625 -15.765625 L 7.890625 -15.765625 L 7.890625 -5.25 L 28.859375 -5.25 L 28.859375 0 Z M 2.625 0 "/></g></g></g><g fill="#ffffff" fill-opacity="1"><g transform="translate(260.331285, 147.890057)"><g><path d="M 13.140625 0 L 13.140625 -31.53125 L 2.625 -31.53125 L 2.625 -36.796875 L 28.90625 -36.796875 L 28.90625 -31.53125 L 18.390625 -31.53125 L 18.390625 0 Z M 13.140625 0 "/></g></g></g><g fill="#ffffff" fill-opacity="1"><g transform="translate(299.752863, 147.890057)"><g><path d="M 2.625 0 L 2.625 -36.796875 L 7.890625 -36.796875 L 7.890625 0 Z M 2.625 0 "/></g></g></g><g fill="#ffffff" fill-opacity="1"><g transform="translate(318.150718, 147.890057)"><g><path d="M 23.65625 0 L 23.65625 -15.765625 L 18.390625 -15.765625 L 18.390625 -21.03125 L 23.65625 -21.03125 L 23.65625 -36.796875 L 28.90625 -36.796875 L 28.90625 0 Z M 2.625 0 L 2.625 -36.796875 L 7.890625 -36.796875 L 7.890625 -31.53125 L 13.140625 -31.53125 L 13.140625 -26.28125 L 7.890625 -26.28125 L 7.890625 0 Z M 13.140625 -21.03125 L 13.140625 -26.28125 L 18.390625 -26.28125 L 18.390625 -21.03125 Z M 13.140625 -21.03125 "/></g></g></g><g fill="#ffffff" fill-opacity="1"><g transform="translate(357.572296, 147.890057)"><g><path d="M 23.65625 -5.25 L 23.65625 0 L 7.890625 0 L 7.890625 -5.25 Z M 2.625 -5.25 L 2.625 -31.53125 L 7.890625 -31.53125 L 7.890625 -5.25 Z M 7.890625 -31.53125 L 7.890625 -36.796875 L 23.65625 -36.796875 L 23.65625 -31.53125 Z M 18.390625 -15.765625 L 18.390625 -21.03125 L 28.90625 -21.03125 L 28.90625 -5.25 L 23.65625 -5.25 L 23.65625 -15.765625 Z M 23.65625 -26.28125 L 23.65625 -31.53125 L 28.90625 -31.53125 L 28.90625 -26.28125 Z M 23.65625 -26.28125 "/></g></g></g></svg>