<svg xmlns="http://www.w3.org/2000/svg" xmlns:xlink="http://www.w3.org/1999/xlink" width="522" zoomAndPan="magnify" viewBox="0 0 391.5 175.5" height="234" preserveAspectRatio="xMidYMid meet" version="1.0"><defs><g/></defs><g fill="#597cff" fill-opacity="1"><g transform="translate(35.336649, 76.140564)"><g><path d="M 21.796875 -49.359375 C 21.984375 -49.410156 22.21875 -49.4375 22.5 -49.4375 C 22.726562 -49.476562 22.984375 -49.5 23.265625 -49.5 L 24.1875 -49.5 C 25.3125 -49.5 26.675781 -49.382812 28.28125 -49.15625 C 29.832031 -48.914062 31.335938 -48.421875 32.796875 -47.671875 C 34.203125 -46.921875 35.421875 -45.816406 36.453125 -44.359375 C 37.492188 -42.898438 38.035156 -40.945312 38.078125 -38.5 C 38.078125 -38.363281 38.101562 -37.941406 38.15625 -37.234375 C 38.195312 -36.484375 38.195312 -35.632812 38.15625 -34.6875 C 38.101562 -33.707031 37.957031 -32.648438 37.71875 -31.515625 C 37.4375 -30.390625 36.992188 -29.332031 36.390625 -28.34375 C 35.734375 -27.351562 34.863281 -26.507812 33.78125 -25.8125 C 32.695312 -25.101562 31.304688 -24.65625 29.609375 -24.46875 L 29.609375 -24.390625 C 31.066406 -24.390625 32.335938 -24.226562 33.421875 -23.90625 C 34.453125 -23.53125 35.347656 -23.0625 36.109375 -22.5 C 36.859375 -21.925781 37.46875 -21.289062 37.9375 -20.59375 C 38.363281 -19.882812 38.691406 -19.15625 38.921875 -18.40625 C 39.535156 -16.613281 39.75 -14.59375 39.5625 -12.34375 C 39.5625 -9.894531 39.09375 -7.875 38.15625 -6.28125 C 37.207031 -4.675781 35.957031 -3.40625 34.40625 -2.46875 C 32.851562 -1.53125 31.09375 -0.894531 29.125 -0.5625 C 27.144531 -0.1875 25.125 0 23.0625 0 L 2.96875 0 L 2.109375 -48.296875 Z M 24.828125 -13.828125 C 24.867188 -14.671875 24.773438 -15.421875 24.546875 -16.078125 C 24.347656 -16.640625 24.015625 -17.15625 23.546875 -17.625 C 23.035156 -18.09375 22.285156 -18.328125 21.296875 -18.328125 L 20.796875 -18.328125 L 15.4375 -18.046875 L 15.859375 -8.46875 L 20.796875 -8.671875 C 22.253906 -8.671875 23.289062 -9.164062 23.90625 -10.15625 C 24.519531 -11.144531 24.847656 -12.296875 24.890625 -13.609375 Z M 24.109375 -34.265625 C 24.160156 -35.117188 24.066406 -35.875 23.828125 -36.53125 C 23.640625 -37.09375 23.3125 -37.609375 22.84375 -38.078125 C 22.332031 -38.546875 21.582031 -38.78125 20.59375 -38.78125 L 20.09375 -38.78125 L 14.734375 -38.5 L 15.15625 -28.90625 L 20.09375 -29.125 C 21.507812 -29.125 22.519531 -29.640625 23.125 -30.671875 C 23.738281 -31.660156 24.09375 -32.789062 24.1875 -34.0625 Z M 24.109375 -34.265625 "/></g></g></g><g fill="#597cff" fill-opacity="1"><g transform="translate(77.643857, 76.140564)"><g><path d="M 1.484375 -48.65625 L 15.515625 -49.359375 L 15.15625 -18.265625 C 15.15625 -16.898438 15.179688 -15.675781 15.234375 -14.59375 C 15.234375 -13.507812 15.347656 -12.59375 15.578125 -11.84375 C 15.816406 -11.09375 16.195312 -10.53125 16.71875 -10.15625 C 17.1875 -9.726562 17.890625 -9.515625 18.828125 -9.515625 C 18.921875 -9.515625 19.039062 -9.539062 19.1875 -9.59375 C 19.28125 -9.59375 19.394531 -9.59375 19.53125 -9.59375 C 20.707031 -9.6875 21.601562 -9.921875 22.21875 -10.296875 C 22.820312 -10.671875 23.265625 -11.210938 23.546875 -11.921875 C 23.828125 -12.578125 23.992188 -13.445312 24.046875 -14.53125 C 24.046875 -15.5625 24.046875 -16.804688 24.046875 -18.265625 L 23.96875 -48.65625 L 37.9375 -49.359375 L 38.015625 -18.40625 C 38.015625 -16.101562 37.867188 -13.867188 37.578125 -11.703125 C 37.296875 -9.492188 36.546875 -7.519531 35.328125 -5.78125 C 34.109375 -4.039062 32.25 -2.65625 29.75 -1.625 C 27.257812 -0.539062 23.804688 0 19.390625 0 C 15.296875 0 12.078125 -0.539062 9.734375 -1.625 C 7.335938 -2.707031 5.523438 -4.117188 4.296875 -5.859375 C 3.078125 -7.546875 2.300781 -9.492188 1.96875 -11.703125 C 1.59375 -13.867188 1.40625 -16.054688 1.40625 -18.265625 Z M 1.484375 -48.65625 "/></g></g></g><g fill="#597cff" fill-opacity="1"><g transform="translate(118.329295, 76.140564)"><g><path d="M 16.4375 -49.359375 L 14.59375 0 L 1.625 0 L 1.40625 -48.65625 Z M 16.4375 -49.359375 "/></g></g></g><g fill="#597cff" fill-opacity="1"><g transform="translate(137.438115, 76.140564)"><g><path d="M 20.375 -4.859375 C 21.414062 -4.859375 22.3125 -4.929688 23.0625 -5.078125 C 23.757812 -5.210938 24.347656 -5.632812 24.828125 -6.34375 C 25.296875 -7 25.625 -8.007812 25.8125 -9.375 C 25.945312 -10.738281 25.945312 -12.617188 25.8125 -15.015625 L 19.53125 -15.015625 C 18.03125 -15.015625 16.710938 -15.039062 15.578125 -15.09375 C 14.453125 -15.09375 13.421875 -15.160156 12.484375 -15.296875 C 11.492188 -15.390625 10.597656 -15.554688 9.796875 -15.796875 C 8.953125 -15.984375 8.0625 -16.265625 7.125 -16.640625 C 4.820312 -17.484375 3.195312 -18.914062 2.25 -20.9375 C 1.269531 -22.957031 0.78125 -25.847656 0.78125 -29.609375 C 0.78125 -30.503906 0.753906 -31.613281 0.703125 -32.9375 C 0.660156 -34.25 0.753906 -35.632812 0.984375 -37.09375 C 1.171875 -38.550781 1.570312 -40.03125 2.1875 -41.53125 C 2.800781 -42.988281 3.765625 -44.351562 5.078125 -45.625 C 6.578125 -47.082031 8.550781 -48.28125 11 -49.21875 C 13.445312 -50.113281 16.785156 -50.5625 21.015625 -50.5625 C 23.265625 -50.5625 25.257812 -50.347656 27 -49.921875 C 28.695312 -49.453125 30.203125 -48.84375 31.515625 -48.09375 C 32.835938 -47.289062 33.96875 -46.394531 34.90625 -45.40625 C 35.800781 -44.375 36.550781 -43.269531 37.15625 -42.09375 C 38.144531 -40.21875 38.804688 -38.269531 39.140625 -36.25 C 39.421875 -34.226562 39.5625 -32.367188 39.5625 -30.671875 C 39.507812 -28.703125 39.320312 -26.773438 39 -24.890625 L 25.109375 -24.890625 L 25.109375 -31.09375 C 25.109375 -32.976562 24.894531 -34.4375 24.46875 -35.46875 C 24 -36.5 22.941406 -37.015625 21.296875 -37.015625 C 20.921875 -37.015625 20.519531 -36.992188 20.09375 -36.953125 C 19.675781 -36.859375 19.207031 -36.765625 18.6875 -36.671875 C 17.507812 -36.390625 16.6875 -35.894531 16.21875 -35.1875 C 15.695312 -34.476562 15.390625 -33.632812 15.296875 -32.65625 C 15.160156 -31.664062 15.140625 -30.601562 15.234375 -29.46875 C 15.328125 -28.300781 15.375 -27.175781 15.375 -26.09375 C 15.375 -24.675781 15.773438 -23.59375 16.578125 -22.84375 C 17.328125 -22.039062 18.382812 -21.640625 19.75 -21.640625 C 20.820312 -21.640625 21.851562 -21.664062 22.84375 -21.71875 C 23.78125 -21.71875 24.722656 -21.71875 25.671875 -21.71875 C 27.785156 -21.71875 29.710938 -21.625 31.453125 -21.4375 C 33.191406 -21.195312 34.695312 -20.726562 35.96875 -20.03125 C 37.226562 -19.269531 38.210938 -18.164062 38.921875 -16.71875 C 39.578125 -15.257812 39.90625 -13.257812 39.90625 -10.71875 C 39.90625 -8.738281 39.554688 -7.070312 38.859375 -5.71875 C 38.097656 -4.351562 37.132812 -3.222656 35.96875 -2.328125 C 34.738281 -1.390625 33.375 -0.660156 31.875 -0.140625 C 30.363281 0.378906 28.859375 0.753906 27.359375 0.984375 C 25.804688 1.222656 24.328125 1.363281 22.921875 1.40625 C 21.460938 1.5 20.238281 1.546875 19.25 1.546875 C 16.851562 1.546875 14.785156 1.335938 13.046875 0.921875 C 11.253906 0.492188 9.726562 -0.046875 8.46875 -0.703125 C 7.195312 -1.359375 6.160156 -2.132812 5.359375 -3.03125 C 4.515625 -3.875 3.859375 -4.742188 3.390625 -5.640625 C 2.210938 -7.753906 1.691406 -10.148438 1.828125 -12.828125 L 16.140625 -11.703125 C 16.140625 -10.617188 16.191406 -9.65625 16.296875 -8.8125 C 16.335938 -7.96875 16.5 -7.265625 16.78125 -6.703125 C 17.0625 -6.085938 17.484375 -5.640625 18.046875 -5.359375 C 18.566406 -5.023438 19.296875 -4.859375 20.234375 -4.859375 Z M 20.375 -4.859375 "/></g></g></g><g fill="#597cff" fill-opacity="1"><g transform="translate(179.322261, 76.140564)"><g><path d="M 16.4375 -49.359375 L 14.59375 0 L 1.625 0 L 1.40625 -48.65625 Z M 16.4375 -49.359375 "/></g></g></g><g fill="#597cff" fill-opacity="1"><g transform="translate(198.431081, 76.140564)"><g><path d="M 1.625 0 L 2.25 -48.65625 L 16.078125 -49.359375 L 23.484375 -23.625 L 23.484375 -48.65625 L 37.796875 -49.359375 L 36.3125 0 L 23.6875 0 L 16.078125 -22.28125 L 16.078125 0 Z M 1.625 0 "/></g></g></g><g fill="#597cff" fill-opacity="1"><g transform="translate(239.257543, 76.140564)"><g><path d="M 1.40625 0 L 1.40625 -48.65625 L 34.265625 -49.359375 L 34.265625 -35.546875 L 14.171875 -34.828125 L 14.171875 -28.765625 L 30.109375 -30.1875 L 30.109375 -17.140625 L 14.109375 -16.4375 L 14.109375 -10.296875 L 34.265625 -11.703125 L 34.265625 0 Z M 1.40625 0 "/></g></g></g><g fill="#597cff" fill-opacity="1"><g transform="translate(276.205866, 76.140564)"><g><path d="M 20.375 -4.859375 C 21.414062 -4.859375 22.3125 -4.929688 23.0625 -5.078125 C 23.757812 -5.210938 24.347656 -5.632812 24.828125 -6.34375 C 25.296875 -7 25.625 -8.007812 25.8125 -9.375 C 25.945312 -10.738281 25.945312 -12.617188 25.8125 -15.015625 L 19.53125 -15.015625 C 18.03125 -15.015625 16.710938 -15.039062 15.578125 -15.09375 C 14.453125 -15.09375 13.421875 -15.160156 12.484375 -15.296875 C 11.492188 -15.390625 10.597656 -15.554688 9.796875 -15.796875 C 8.953125 -15.984375 8.0625 -16.265625 7.125 -16.640625 C 4.820312 -17.484375 3.195312 -18.914062 2.25 -20.9375 C 1.269531 -22.957031 0.78125 -25.847656 0.78125 -29.609375 C 0.78125 -30.503906 0.753906 -31.613281 0.703125 -32.9375 C 0.660156 -34.25 0.753906 -35.632812 0.984375 -37.09375 C 1.171875 -38.550781 1.570312 -40.03125 2.1875 -41.53125 C 2.800781 -42.988281 3.765625 -44.351562 5.078125 -45.625 C 6.578125 -47.082031 8.550781 -48.28125 11 -49.21875 C 13.445312 -50.113281 16.785156 -50.5625 21.015625 -50.5625 C 23.265625 -50.5625 25.257812 -50.347656 27 -49.921875 C 28.695312 -49.453125 30.203125 -48.84375 31.515625 -48.09375 C 32.835938 -47.289062 33.96875 -46.394531 34.90625 -45.40625 C 35.800781 -44.375 36.550781 -43.269531 37.15625 -42.09375 C 38.144531 -40.21875 38.804688 -38.269531 39.140625 -36.25 C 39.421875 -34.226562 39.5625 -32.367188 39.5625 -30.671875 C 39.507812 -28.703125 39.320312 -26.773438 39 -24.890625 L 25.109375 -24.890625 L 25.109375 -31.09375 C 25.109375 -32.976562 24.894531 -34.4375 24.46875 -35.46875 C 24 -36.5 22.941406 -37.015625 21.296875 -37.015625 C 20.921875 -37.015625 20.519531 -36.992188 20.09375 -36.953125 C 19.675781 -36.859375 19.207031 -36.765625 18.6875 -36.671875 C 17.507812 -36.390625 16.6875 -35.894531 16.21875 -35.1875 C 15.695312 -34.476562 15.390625 -33.632812 15.296875 -32.65625 C 15.160156 -31.664062 15.140625 -30.601562 15.234375 -29.46875 C 15.328125 -28.300781 15.375 -27.175781 15.375 -26.09375 C 15.375 -24.675781 15.773438 -23.59375 16.578125 -22.84375 C 17.328125 -22.039062 18.382812 -21.640625 19.75 -21.640625 C 20.820312 -21.640625 21.851562 -21.664062 22.84375 -21.71875 C 23.78125 -21.71875 24.722656 -21.71875 25.671875 -21.71875 C 27.785156 -21.71875 29.710938 -21.625 31.453125 -21.4375 C 33.191406 -21.195312 34.695312 -20.726562 35.96875 -20.03125 C 37.226562 -19.269531 38.210938 -18.164062 38.921875 -16.71875 C 39.578125 -15.257812 39.90625 -13.257812 39.90625 -10.71875 C 39.90625 -8.738281 39.554688 -7.070312 38.859375 -5.71875 C 38.097656 -4.351562 37.132812 -3.222656 35.96875 -2.328125 C 34.738281 -1.390625 33.375 -0.660156 31.875 -0.140625 C 30.363281 0.378906 28.859375 0.753906 27.359375 0.984375 C 25.804688 1.222656 24.328125 1.363281 22.921875 1.40625 C 21.460938 1.5 20.238281 1.546875 19.25 1.546875 C 16.851562 1.546875 14.785156 1.335938 13.046875 0.921875 C 11.253906 0.492188 9.726562 -0.046875 8.46875 -0.703125 C 7.195312 -1.359375 6.160156 -2.132812 5.359375 -3.03125 C 4.515625 -3.875 3.859375 -4.742188 3.390625 -5.640625 C 2.210938 -7.753906 1.691406 -10.148438 1.828125 -12.828125 L 16.140625 -11.703125 C 16.140625 -10.617188 16.191406 -9.65625 16.296875 -8.8125 C 16.335938 -7.96875 16.5 -7.265625 16.78125 -6.703125 C 17.0625 -6.085938 17.484375 -5.640625 18.046875 -5.359375 C 18.566406 -5.023438 19.296875 -4.859375 20.234375 -4.859375 Z M 20.375 -4.859375 "/></g></g></g><g fill="#597cff" fill-opacity="1"><g transform="translate(318.090001, 76.140564)"><g><path d="M 20.375 -4.859375 C 21.414062 -4.859375 22.3125 -4.929688 23.0625 -5.078125 C 23.757812 -5.210938 24.347656 -5.632812 24.828125 -6.34375 C 25.296875 -7 25.625 -8.007812 25.8125 -9.375 C 25.945312 -10.738281 25.945312 -12.617188 25.8125 -15.015625 L 19.53125 -15.015625 C 18.03125 -15.015625 16.710938 -15.039062 15.578125 -15.09375 C 14.453125 -15.09375 13.421875 -15.160156 12.484375 -15.296875 C 11.492188 -15.390625 10.597656 -15.554688 9.796875 -15.796875 C 8.953125 -15.984375 8.0625 -16.265625 7.125 -16.640625 C 4.820312 -17.484375 3.195312 -18.914062 2.25 -20.9375 C 1.269531 -22.957031 0.78125 -25.847656 0.78125 -29.609375 C 0.78125 -30.503906 0.753906 -31.613281 0.703125 -32.9375 C 0.660156 -34.25 0.753906 -35.632812 0.984375 -37.09375 C 1.171875 -38.550781 1.570312 -40.03125 2.1875 -41.53125 C 2.800781 -42.988281 3.765625 -44.351562 5.078125 -45.625 C 6.578125 -47.082031 8.550781 -48.28125 11 -49.21875 C 13.445312 -50.113281 16.785156 -50.5625 21.015625 -50.5625 C 23.265625 -50.5625 25.257812 -50.347656 27 -49.921875 C 28.695312 -49.453125 30.203125 -48.84375 31.515625 -48.09375 C 32.835938 -47.289062 33.96875 -46.394531 34.90625 -45.40625 C 35.800781 -44.375 36.550781 -43.269531 37.15625 -42.09375 C 38.144531 -40.21875 38.804688 -38.269531 39.140625 -36.25 C 39.421875 -34.226562 39.5625 -32.367188 39.5625 -30.671875 C 39.507812 -28.703125 39.320312 -26.773438 39 -24.890625 L 25.109375 -24.890625 L 25.109375 -31.09375 C 25.109375 -32.976562 24.894531 -34.4375 24.46875 -35.46875 C 24 -36.5 22.941406 -37.015625 21.296875 -37.015625 C 20.921875 -37.015625 20.519531 -36.992188 20.09375 -36.953125 C 19.675781 -36.859375 19.207031 -36.765625 18.6875 -36.671875 C 17.507812 -36.390625 16.6875 -35.894531 16.21875 -35.1875 C 15.695312 -34.476562 15.390625 -33.632812 15.296875 -32.65625 C 15.160156 -31.664062 15.140625 -30.601562 15.234375 -29.46875 C 15.328125 -28.300781 15.375 -27.175781 15.375 -26.09375 C 15.375 -24.675781 15.773438 -23.59375 16.578125 -22.84375 C 17.328125 -22.039062 18.382812 -21.640625 19.75 -21.640625 C 20.820312 -21.640625 21.851562 -21.664062 22.84375 -21.71875 C 23.78125 -21.71875 24.722656 -21.71875 25.671875 -21.71875 C 27.785156 -21.71875 29.710938 -21.625 31.453125 -21.4375 C 33.191406 -21.195312 34.695312 -20.726562 35.96875 -20.03125 C 37.226562 -19.269531 38.210938 -18.164062 38.921875 -16.71875 C 39.578125 -15.257812 39.90625 -13.257812 39.90625 -10.71875 C 39.90625 -8.738281 39.554688 -7.070312 38.859375 -5.71875 C 38.097656 -4.351562 37.132812 -3.222656 35.96875 -2.328125 C 34.738281 -1.390625 33.375 -0.660156 31.875 -0.140625 C 30.363281 0.378906 28.859375 0.753906 27.359375 0.984375 C 25.804688 1.222656 24.328125 1.363281 22.921875 1.40625 C 21.460938 1.5 20.238281 1.546875 19.25 1.546875 C 16.851562 1.546875 14.785156 1.335938 13.046875 0.921875 C 11.253906 0.492188 9.726562 -0.046875 8.46875 -0.703125 C 7.195312 -1.359375 6.160156 -2.132812 5.359375 -3.03125 C 4.515625 -3.875 3.859375 -4.742188 3.390625 -5.640625 C 2.210938 -7.753906 1.691406 -10.148438 1.828125 -12.828125 L 16.140625 -11.703125 C 16.140625 -10.617188 16.191406 -9.65625 16.296875 -8.8125 C 16.335938 -7.96875 16.5 -7.265625 16.78125 -6.703125 C 17.0625 -6.085938 17.484375 -5.640625 18.046875 -5.359375 C 18.566406 -5.023438 19.296875 -4.859375 20.234375 -4.859375 Z M 20.375 -4.859375 "/></g></g></g><g fill="#ffef00" fill-opacity="1"><g transform="translate(32.282453, 73.086367)"><g><path d="M 21.796875 -49.359375 C 21.984375 -49.410156 22.21875 -49.4375 22.5 -49.4375 C 22.726562 -49.476562 22.984375 -49.5 23.265625 -49.5 L 24.1875 -49.5 C 25.3125 -49.5 26.675781 -49.382812 28.28125 -49.15625 C 29.832031 -48.914062 31.335938 -48.421875 32.796875 -47.671875 C 34.203125 -46.921875 35.421875 -45.816406 36.453125 -44.359375 C 37.492188 -42.898438 38.035156 -40.945312 38.078125 -38.5 C 38.078125 -38.363281 38.101562 -37.941406 38.15625 -37.234375 C 38.195312 -36.484375 38.195312 -35.632812 38.15625 -34.6875 C 38.101562 -33.707031 37.957031 -32.648438 37.71875 -31.515625 C 37.4375 -30.390625 36.992188 -29.332031 36.390625 -28.34375 C 35.734375 -27.351562 34.863281 -26.507812 33.78125 -25.8125 C 32.695312 -25.101562 31.304688 -24.65625 29.609375 -24.46875 L 29.609375 -24.390625 C 31.066406 -24.390625 32.335938 -24.226562 33.421875 -23.90625 C 34.453125 -23.53125 35.347656 -23.0625 36.109375 -22.5 C 36.859375 -21.925781 37.46875 -21.289062 37.9375 -20.59375 C 38.363281 -19.882812 38.691406 -19.15625 38.921875 -18.40625 C 39.535156 -16.613281 39.75 -14.59375 39.5625 -12.34375 C 39.5625 -9.894531 39.09375 -7.875 38.15625 -6.28125 C 37.207031 -4.675781 35.957031 -3.40625 34.40625 -2.46875 C 32.851562 -1.53125 31.09375 -0.894531 29.125 -0.5625 C 27.144531 -0.1875 25.125 0 23.0625 0 L 2.96875 0 L 2.109375 -48.296875 Z M 24.828125 -13.828125 C 24.867188 -14.671875 24.773438 -15.421875 24.546875 -16.078125 C 24.347656 -16.640625 24.015625 -17.15625 23.546875 -17.625 C 23.035156 -18.09375 22.285156 -18.328125 21.296875 -18.328125 L 20.796875 -18.328125 L 15.4375 -18.046875 L 15.859375 -8.46875 L 20.796875 -8.671875 C 22.253906 -8.671875 23.289062 -9.164062 23.90625 -10.15625 C 24.519531 -11.144531 24.847656 -12.296875 24.890625 -13.609375 Z M 24.109375 -34.265625 C 24.160156 -35.117188 24.066406 -35.875 23.828125 -36.53125 C 23.640625 -37.09375 23.3125 -37.609375 22.84375 -38.078125 C 22.332031 -38.546875 21.582031 -38.78125 20.59375 -38.78125 L 20.09375 -38.78125 L 14.734375 -38.5 L 15.15625 -28.90625 L 20.09375 -29.125 C 21.507812 -29.125 22.519531 -29.640625 23.125 -30.671875 C 23.738281 -31.660156 24.09375 -32.789062 24.1875 -34.0625 Z M 24.109375 -34.265625 "/></g></g></g><g fill="#ffef00" fill-opacity="1"><g transform="translate(74.589661, 73.086367)"><g><path d="M 1.484375 -48.65625 L 15.515625 -49.359375 L 15.15625 -18.265625 C 15.15625 -16.898438 15.179688 -15.675781 15.234375 -14.59375 C 15.234375 -13.507812 15.347656 -12.59375 15.578125 -11.84375 C 15.816406 -11.09375 16.195312 -10.53125 16.71875 -10.15625 C 17.1875 -9.726562 17.890625 -9.515625 18.828125 -9.515625 C 18.921875 -9.515625 19.039062 -9.539062 19.1875 -9.59375 C 19.28125 -9.59375 19.394531 -9.59375 19.53125 -9.59375 C 20.707031 -9.6875 21.601562 -9.921875 22.21875 -10.296875 C 22.820312 -10.671875 23.265625 -11.210938 23.546875 -11.921875 C 23.828125 -12.578125 23.992188 -13.445312 24.046875 -14.53125 C 24.046875 -15.5625 24.046875 -16.804688 24.046875 -18.265625 L 23.96875 -48.65625 L 37.9375 -49.359375 L 38.015625 -18.40625 C 38.015625 -16.101562 37.867188 -13.867188 37.578125 -11.703125 C 37.296875 -9.492188 36.546875 -7.519531 35.328125 -5.78125 C 34.109375 -4.039062 32.25 -2.65625 29.75 -1.625 C 27.257812 -0.539062 23.804688 0 19.390625 0 C 15.296875 0 12.078125 -0.539062 9.734375 -1.625 C 7.335938 -2.707031 5.523438 -4.117188 4.296875 -5.859375 C 3.078125 -7.546875 2.300781 -9.492188 1.96875 -11.703125 C 1.59375 -13.867188 1.40625 -16.054688 1.40625 -18.265625 Z M 1.484375 -48.65625 "/></g></g></g><g fill="#ffef00" fill-opacity="1"><g transform="translate(115.275099, 73.086367)"><g><path d="M 16.4375 -49.359375 L 14.59375 0 L 1.625 0 L 1.40625 -48.65625 Z M 16.4375 -49.359375 "/></g></g></g><g fill="#ffef00" fill-opacity="1"><g transform="translate(134.383919, 73.086367)"><g><path d="M 20.375 -4.859375 C 21.414062 -4.859375 22.3125 -4.929688 23.0625 -5.078125 C 23.757812 -5.210938 24.347656 -5.632812 24.828125 -6.34375 C 25.296875 -7 25.625 -8.007812 25.8125 -9.375 C 25.945312 -10.738281 25.945312 -12.617188 25.8125 -15.015625 L 19.53125 -15.015625 C 18.03125 -15.015625 16.710938 -15.039062 15.578125 -15.09375 C 14.453125 -15.09375 13.421875 -15.160156 12.484375 -15.296875 C 11.492188 -15.390625 10.597656 -15.554688 9.796875 -15.796875 C 8.953125 -15.984375 8.0625 -16.265625 7.125 -16.640625 C 4.820312 -17.484375 3.195312 -18.914062 2.25 -20.9375 C 1.269531 -22.957031 0.78125 -25.847656 0.78125 -29.609375 C 0.78125 -30.503906 0.753906 -31.613281 0.703125 -32.9375 C 0.660156 -34.25 0.753906 -35.632812 0.984375 -37.09375 C 1.171875 -38.550781 1.570312 -40.03125 2.1875 -41.53125 C 2.800781 -42.988281 3.765625 -44.351562 5.078125 -45.625 C 6.578125 -47.082031 8.550781 -48.28125 11 -49.21875 C 13.445312 -50.113281 16.785156 -50.5625 21.015625 -50.5625 C 23.265625 -50.5625 25.257812 -50.347656 27 -49.921875 C 28.695312 -49.453125 30.203125 -48.84375 31.515625 -48.09375 C 32.835938 -47.289062 33.96875 -46.394531 34.90625 -45.40625 C 35.800781 -44.375 36.550781 -43.269531 37.15625 -42.09375 C 38.144531 -40.21875 38.804688 -38.269531 39.140625 -36.25 C 39.421875 -34.226562 39.5625 -32.367188 39.5625 -30.671875 C 39.507812 -28.703125 39.320312 -26.773438 39 -24.890625 L 25.109375 -24.890625 L 25.109375 -31.09375 C 25.109375 -32.976562 24.894531 -34.4375 24.46875 -35.46875 C 24 -36.5 22.941406 -37.015625 21.296875 -37.015625 C 20.921875 -37.015625 20.519531 -36.992188 20.09375 -36.953125 C 19.675781 -36.859375 19.207031 -36.765625 18.6875 -36.671875 C 17.507812 -36.390625 16.6875 -35.894531 16.21875 -35.1875 C 15.695312 -34.476562 15.390625 -33.632812 15.296875 -32.65625 C 15.160156 -31.664062 15.140625 -30.601562 15.234375 -29.46875 C 15.328125 -28.300781 15.375 -27.175781 15.375 -26.09375 C 15.375 -24.675781 15.773438 -23.59375 16.578125 -22.84375 C 17.328125 -22.039062 18.382812 -21.640625 19.75 -21.640625 C 20.820312 -21.640625 21.851562 -21.664062 22.84375 -21.71875 C 23.78125 -21.71875 24.722656 -21.71875 25.671875 -21.71875 C 27.785156 -21.71875 29.710938 -21.625 31.453125 -21.4375 C 33.191406 -21.195312 34.695312 -20.726562 35.96875 -20.03125 C 37.226562 -19.269531 38.210938 -18.164062 38.921875 -16.71875 C 39.578125 -15.257812 39.90625 -13.257812 39.90625 -10.71875 C 39.90625 -8.738281 39.554688 -7.070312 38.859375 -5.71875 C 38.097656 -4.351562 37.132812 -3.222656 35.96875 -2.328125 C 34.738281 -1.390625 33.375 -0.660156 31.875 -0.140625 C 30.363281 0.378906 28.859375 0.753906 27.359375 0.984375 C 25.804688 1.222656 24.328125 1.363281 22.921875 1.40625 C 21.460938 1.5 20.238281 1.546875 19.25 1.546875 C 16.851562 1.546875 14.785156 1.335938 13.046875 0.921875 C 11.253906 0.492188 9.726562 -0.046875 8.46875 -0.703125 C 7.195312 -1.359375 6.160156 -2.132812 5.359375 -3.03125 C 4.515625 -3.875 3.859375 -4.742188 3.390625 -5.640625 C 2.210938 -7.753906 1.691406 -10.148438 1.828125 -12.828125 L 16.140625 -11.703125 C 16.140625 -10.617188 16.191406 -9.65625 16.296875 -8.8125 C 16.335938 -7.96875 16.5 -7.265625 16.78125 -6.703125 C 17.0625 -6.085938 17.484375 -5.640625 18.046875 -5.359375 C 18.566406 -5.023438 19.296875 -4.859375 20.234375 -4.859375 Z M 20.375 -4.859375 "/></g></g></g><g fill="#ffef00" fill-opacity="1"><g transform="translate(176.268065, 73.086367)"><g><path d="M 16.4375 -49.359375 L 14.59375 0 L 1.625 0 L 1.40625 -48.65625 Z M 16.4375 -49.359375 "/></g></g></g><g fill="#ffef00" fill-opacity="1"><g transform="translate(195.376885, 73.086367)"><g><path d="M 1.625 0 L 2.25 -48.65625 L 16.078125 -49.359375 L 23.484375 -23.625 L 23.484375 -48.65625 L 37.796875 -49.359375 L 36.3125 0 L 23.6875 0 L 16.078125 -22.28125 L 16.078125 0 Z M 1.625 0 "/></g></g></g><g fill="#ffef00" fill-opacity="1"><g transform="translate(236.203346, 73.086367)"><g><path d="M 1.40625 0 L 1.40625 -48.65625 L 34.265625 -49.359375 L 34.265625 -35.546875 L 14.171875 -34.828125 L 14.171875 -28.765625 L 30.109375 -30.1875 L 30.109375 -17.140625 L 14.109375 -16.4375 L 14.109375 -10.296875 L 34.265625 -11.703125 L 34.265625 0 Z M 1.40625 0 "/></g></g></g><g fill="#ffef00" fill-opacity="1"><g transform="translate(273.151669, 73.086367)"><g><path d="M 20.375 -4.859375 C 21.414062 -4.859375 22.3125 -4.929688 23.0625 -5.078125 C 23.757812 -5.210938 24.347656 -5.632812 24.828125 -6.34375 C 25.296875 -7 25.625 -8.007812 25.8125 -9.375 C 25.945312 -10.738281 25.945312 -12.617188 25.8125 -15.015625 L 19.53125 -15.015625 C 18.03125 -15.015625 16.710938 -15.039062 15.578125 -15.09375 C 14.453125 -15.09375 13.421875 -15.160156 12.484375 -15.296875 C 11.492188 -15.390625 10.597656 -15.554688 9.796875 -15.796875 C 8.953125 -15.984375 8.0625 -16.265625 7.125 -16.640625 C 4.820312 -17.484375 3.195312 -18.914062 2.25 -20.9375 C 1.269531 -22.957031 0.78125 -25.847656 0.78125 -29.609375 C 0.78125 -30.503906 0.753906 -31.613281 0.703125 -32.9375 C 0.660156 -34.25 0.753906 -35.632812 0.984375 -37.09375 C 1.171875 -38.550781 1.570312 -40.03125 2.1875 -41.53125 C 2.800781 -42.988281 3.765625 -44.351562 5.078125 -45.625 C 6.578125 -47.082031 8.550781 -48.28125 11 -49.21875 C 13.445312 -50.113281 16.785156 -50.5625 21.015625 -50.5625 C 23.265625 -50.5625 25.257812 -50.347656 27 -49.921875 C 28.695312 -49.453125 30.203125 -48.84375 31.515625 -48.09375 C 32.835938 -47.289062 33.96875 -46.394531 34.90625 -45.40625 C 35.800781 -44.375 36.550781 -43.269531 37.15625 -42.09375 C 38.144531 -40.21875 38.804688 -38.269531 39.140625 -36.25 C 39.421875 -34.226562 39.5625 -32.367188 39.5625 -30.671875 C 39.507812 -28.703125 39.320312 -26.773438 39 -24.890625 L 25.109375 -24.890625 L 25.109375 -31.09375 C 25.109375 -32.976562 24.894531 -34.4375 24.46875 -35.46875 C 24 -36.5 22.941406 -37.015625 21.296875 -37.015625 C 20.921875 -37.015625 20.519531 -36.992188 20.09375 -36.953125 C 19.675781 -36.859375 19.207031 -36.765625 18.6875 -36.671875 C 17.507812 -36.390625 16.6875 -35.894531 16.21875 -35.1875 C 15.695312 -34.476562 15.390625 -33.632812 15.296875 -32.65625 C 15.160156 -31.664062 15.140625 -30.601562 15.234375 -29.46875 C 15.328125 -28.300781 15.375 -27.175781 15.375 -26.09375 C 15.375 -24.675781 15.773438 -23.59375 16.578125 -22.84375 C 17.328125 -22.039062 18.382812 -21.640625 19.75 -21.640625 C 20.820312 -21.640625 21.851562 -21.664062 22.84375 -21.71875 C 23.78125 -21.71875 24.722656 -21.71875 25.671875 -21.71875 C 27.785156 -21.71875 29.710938 -21.625 31.453125 -21.4375 C 33.191406 -21.195312 34.695312 -20.726562 35.96875 -20.03125 C 37.226562 -19.269531 38.210938 -18.164062 38.921875 -16.71875 C 39.578125 -15.257812 39.90625 -13.257812 39.90625 -10.71875 C 39.90625 -8.738281 39.554688 -7.070312 38.859375 -5.71875 C 38.097656 -4.351562 37.132812 -3.222656 35.96875 -2.328125 C 34.738281 -1.390625 33.375 -0.660156 31.875 -0.140625 C 30.363281 0.378906 28.859375 0.753906 27.359375 0.984375 C 25.804688 1.222656 24.328125 1.363281 22.921875 1.40625 C 21.460938 1.5 20.238281 1.546875 19.25 1.546875 C 16.851562 1.546875 14.785156 1.335938 13.046875 0.921875 C 11.253906 0.492188 9.726562 -0.046875 8.46875 -0.703125 C 7.195312 -1.359375 6.160156 -2.132812 5.359375 -3.03125 C 4.515625 -3.875 3.859375 -4.742188 3.390625 -5.640625 C 2.210938 -7.753906 1.691406 -10.148438 1.828125 -12.828125 L 16.140625 -11.703125 C 16.140625 -10.617188 16.191406 -9.65625 16.296875 -8.8125 C 16.335938 -7.96875 16.5 -7.265625 16.78125 -6.703125 C 17.0625 -6.085938 17.484375 -5.640625 18.046875 -5.359375 C 18.566406 -5.023438 19.296875 -4.859375 20.234375 -4.859375 Z M 20.375 -4.859375 "/></g></g></g><g fill="#ffef00" fill-opacity="1"><g transform="translate(315.035805, 73.086367)"><g><path d="M 20.375 -4.859375 C 21.414062 -4.859375 22.3125 -4.929688 23.0625 -5.078125 C 23.757812 -5.210938 24.347656 -5.632812 24.828125 -6.34375 C 25.296875 -7 25.625 -8.007812 25.8125 -9.375 C 25.945312 -10.738281 25.945312 -12.617188 25.8125 -15.015625 L 19.53125 -15.015625 C 18.03125 -15.015625 16.710938 -15.039062 15.578125 -15.09375 C 14.453125 -15.09375 13.421875 -15.160156 12.484375 -15.296875 C 11.492188 -15.390625 10.597656 -15.554688 9.796875 -15.796875 C 8.953125 -15.984375 8.0625 -16.265625 7.125 -16.640625 C 4.820312 -17.484375 3.195312 -18.914062 2.25 -20.9375 C 1.269531 -22.957031 0.78125 -25.847656 0.78125 -29.609375 C 0.78125 -30.503906 0.753906 -31.613281 0.703125 -32.9375 C 0.660156 -34.25 0.753906 -35.632812 0.984375 -37.09375 C 1.171875 -38.550781 1.570312 -40.03125 2.1875 -41.53125 C 2.800781 -42.988281 3.765625 -44.351562 5.078125 -45.625 C 6.578125 -47.082031 8.550781 -48.28125 11 -49.21875 C 13.445312 -50.113281 16.785156 -50.5625 21.015625 -50.5625 C 23.265625 -50.5625 25.257812 -50.347656 27 -49.921875 C 28.695312 -49.453125 30.203125 -48.84375 31.515625 -48.09375 C 32.835938 -47.289062 33.96875 -46.394531 34.90625 -45.40625 C 35.800781 -44.375 36.550781 -43.269531 37.15625 -42.09375 C 38.144531 -40.21875 38.804688 -38.269531 39.140625 -36.25 C 39.421875 -34.226562 39.5625 -32.367188 39.5625 -30.671875 C 39.507812 -28.703125 39.320312 -26.773438 39 -24.890625 L 25.109375 -24.890625 L 25.109375 -31.09375 C 25.109375 -32.976562 24.894531 -34.4375 24.46875 -35.46875 C 24 -36.5 22.941406 -37.015625 21.296875 -37.015625 C 20.921875 -37.015625 20.519531 -36.992188 20.09375 -36.953125 C 19.675781 -36.859375 19.207031 -36.765625 18.6875 -36.671875 C 17.507812 -36.390625 16.6875 -35.894531 16.21875 -35.1875 C 15.695312 -34.476562 15.390625 -33.632812 15.296875 -32.65625 C 15.160156 -31.664062 15.140625 -30.601562 15.234375 -29.46875 C 15.328125 -28.300781 15.375 -27.175781 15.375 -26.09375 C 15.375 -24.675781 15.773438 -23.59375 16.578125 -22.84375 C 17.328125 -22.039062 18.382812 -21.640625 19.75 -21.640625 C 20.820312 -21.640625 21.851562 -21.664062 22.84375 -21.71875 C 23.78125 -21.71875 24.722656 -21.71875 25.671875 -21.71875 C 27.785156 -21.71875 29.710938 -21.625 31.453125 -21.4375 C 33.191406 -21.195312 34.695312 -20.726562 35.96875 -20.03125 C 37.226562 -19.269531 38.210938 -18.164062 38.921875 -16.71875 C 39.578125 -15.257812 39.90625 -13.257812 39.90625 -10.71875 C 39.90625 -8.738281 39.554688 -7.070312 38.859375 -5.71875 C 38.097656 -4.351562 37.132812 -3.222656 35.96875 -2.328125 C 34.738281 -1.390625 33.375 -0.660156 31.875 -0.140625 C 30.363281 0.378906 28.859375 0.753906 27.359375 0.984375 C 25.804688 1.222656 24.328125 1.363281 22.921875 1.40625 C 21.460938 1.5 20.238281 1.546875 19.25 1.546875 C 16.851562 1.546875 14.785156 1.335938 13.046875 0.921875 C 11.253906 0.492188 9.726562 -0.046875 8.46875 -0.703125 C 7.195312 -1.359375 6.160156 -2.132812 5.359375 -3.03125 C 4.515625 -3.875 3.859375 -4.742188 3.390625 -5.640625 C 2.210938 -7.753906 1.691406 -10.148438 1.828125 -12.828125 L 16.140625 -11.703125 C 16.140625 -10.617188 16.191406 -9.65625 16.296875 -8.8125 C 16.335938 -7.96875 16.5 -7.265625 16.78125 -6.703125 C 17.0625 -6.085938 17.484375 -5.640625 18.046875 -5.359375 C 18.566406 -5.023438 19.296875 -4.859375 20.234375 -4.859375 Z M 20.375 -4.859375 "/></g></g></g><g fill="#597cff" fill-opacity="1"><g transform="translate(22.820688, 135.625702)"><g><path d="M 1.40625 0 L 1.40625 -48.65625 L 34.265625 -49.359375 L 34.265625 -35.546875 L 14.171875 -34.828125 L 14.171875 -28.765625 L 30.109375 -30.1875 L 30.109375 -17.140625 L 14.109375 -16.4375 L 14.109375 -10.296875 L 34.265625 -11.703125 L 34.265625 0 Z M 1.40625 0 "/></g></g></g><g fill="#597cff" fill-opacity="1"><g transform="translate(59.769006, 135.625702)"><g><path d="M 20.875 -24.328125 C 20.875 -24.847656 20.660156 -25.390625 20.234375 -25.953125 C 19.816406 -26.515625 19.179688 -26.796875 18.328125 -26.796875 C 18.140625 -26.796875 17.953125 -26.769531 17.765625 -26.71875 C 17.535156 -26.675781 17.300781 -26.609375 17.0625 -26.515625 C 16.445312 -26.273438 16.023438 -25.945312 15.796875 -25.53125 C 15.515625 -25.101562 15.328125 -24.582031 15.234375 -23.96875 C 15.140625 -23.3125 15.113281 -22.5625 15.15625 -21.71875 C 15.15625 -20.875 15.15625 -19.957031 15.15625 -18.96875 C 15.15625 -18.257812 15.25 -17.71875 15.4375 -17.34375 C 15.582031 -16.925781 15.769531 -16.597656 16 -16.359375 C 16.238281 -16.117188 16.5 -15.976562 16.78125 -15.9375 C 17.019531 -15.84375 17.234375 -15.796875 17.421875 -15.796875 C 17.609375 -15.796875 17.722656 -15.816406 17.765625 -15.859375 L 22.640625 -15.859375 C 24.472656 -15.859375 26.140625 -15.789062 27.640625 -15.65625 C 29.148438 -15.507812 30.46875 -15.203125 31.59375 -14.734375 C 32.675781 -14.222656 33.519531 -13.472656 34.125 -12.484375 C 34.6875 -11.453125 34.96875 -10.066406 34.96875 -8.328125 C 34.96875 -6.253906 34.359375 -4.609375 33.140625 -3.390625 C 31.867188 -2.160156 30.34375 -1.21875 28.5625 -0.5625 C 26.769531 0.09375 24.890625 0.515625 22.921875 0.703125 C 20.898438 0.890625 19.113281 0.984375 17.5625 0.984375 C 15.726562 0.984375 14.101562 0.820312 12.6875 0.5 C 11.28125 0.21875 10.0625 -0.179688 9.03125 -0.703125 C 7.945312 -1.222656 7.050781 -1.8125 6.34375 -2.46875 C 5.59375 -3.082031 4.957031 -3.738281 4.4375 -4.4375 C 3.257812 -5.988281 2.554688 -7.773438 2.328125 -9.796875 L 15.796875 -9.09375 C 15.796875 -8.382812 15.796875 -7.75 15.796875 -7.1875 C 15.742188 -6.625 15.765625 -6.132812 15.859375 -5.71875 C 15.953125 -5.289062 16.164062 -4.984375 16.5 -4.796875 C 16.78125 -4.554688 17.25 -4.4375 17.90625 -4.4375 L 18.46875 -4.4375 C 19.363281 -4.53125 20.046875 -4.625 20.515625 -4.71875 C 20.984375 -4.8125 21.335938 -5.070312 21.578125 -5.5 C 21.765625 -5.925781 21.859375 -6.609375 21.859375 -7.546875 C 21.859375 -8.441406 21.8125 -9.710938 21.71875 -11.359375 L 17.90625 -11.359375 C 16.726562 -11.359375 15.695312 -11.378906 14.8125 -11.421875 C 13.914062 -11.421875 13.066406 -11.46875 12.265625 -11.5625 C 11.421875 -11.613281 10.578125 -11.707031 9.734375 -11.84375 C 8.835938 -11.988281 7.847656 -12.175781 6.765625 -12.40625 C 4.835938 -12.832031 3.472656 -13.773438 2.671875 -15.234375 C 1.828125 -16.691406 1.40625 -18.710938 1.40625 -21.296875 C 1.40625 -21.953125 1.453125 -22.773438 1.546875 -23.765625 C 1.597656 -24.703125 1.785156 -25.710938 2.109375 -26.796875 C 2.441406 -27.828125 2.960938 -28.882812 3.671875 -29.96875 C 4.367188 -31 5.378906 -31.941406 6.703125 -32.796875 C 8.015625 -33.640625 9.679688 -34.316406 11.703125 -34.828125 C 13.722656 -35.347656 16.191406 -35.609375 19.109375 -35.609375 C 21.316406 -35.609375 23.242188 -35.375 24.890625 -34.90625 C 26.492188 -34.382812 27.859375 -33.726562 28.984375 -32.9375 C 30.109375 -32.082031 31.023438 -31.140625 31.734375 -30.109375 C 32.390625 -29.023438 32.929688 -27.941406 33.359375 -26.859375 C 34.242188 -24.273438 34.546875 -21.363281 34.265625 -18.125 L 21.015625 -18.125 Z M 20.875 -24.328125 "/></g></g></g><g fill="#597cff" fill-opacity="1"><g transform="translate(96.858343, 135.625702)"><g><path d="M 20.875 -24.328125 C 20.875 -24.847656 20.660156 -25.390625 20.234375 -25.953125 C 19.816406 -26.515625 19.179688 -26.796875 18.328125 -26.796875 C 18.140625 -26.796875 17.953125 -26.769531 17.765625 -26.71875 C 17.535156 -26.675781 17.300781 -26.609375 17.0625 -26.515625 C 16.445312 -26.273438 16.023438 -25.945312 15.796875 -25.53125 C 15.515625 -25.101562 15.328125 -24.582031 15.234375 -23.96875 C 15.140625 -23.3125 15.113281 -22.5625 15.15625 -21.71875 C 15.15625 -20.875 15.15625 -19.957031 15.15625 -18.96875 C 15.15625 -18.257812 15.25 -17.71875 15.4375 -17.34375 C 15.582031 -16.925781 15.769531 -16.597656 16 -16.359375 C 16.238281 -16.117188 16.5 -15.976562 16.78125 -15.9375 C 17.019531 -15.84375 17.234375 -15.796875 17.421875 -15.796875 C 17.609375 -15.796875 17.722656 -15.816406 17.765625 -15.859375 L 22.640625 -15.859375 C 24.472656 -15.859375 26.140625 -15.789062 27.640625 -15.65625 C 29.148438 -15.507812 30.46875 -15.203125 31.59375 -14.734375 C 32.675781 -14.222656 33.519531 -13.472656 34.125 -12.484375 C 34.6875 -11.453125 34.96875 -10.066406 34.96875 -8.328125 C 34.96875 -6.253906 34.359375 -4.609375 33.140625 -3.390625 C 31.867188 -2.160156 30.34375 -1.21875 28.5625 -0.5625 C 26.769531 0.09375 24.890625 0.515625 22.921875 0.703125 C 20.898438 0.890625 19.113281 0.984375 17.5625 0.984375 C 15.726562 0.984375 14.101562 0.820312 12.6875 0.5 C 11.28125 0.21875 10.0625 -0.179688 9.03125 -0.703125 C 7.945312 -1.222656 7.050781 -1.8125 6.34375 -2.46875 C 5.59375 -3.082031 4.957031 -3.738281 4.4375 -4.4375 C 3.257812 -5.988281 2.554688 -7.773438 2.328125 -9.796875 L 15.796875 -9.09375 C 15.796875 -8.382812 15.796875 -7.75 15.796875 -7.1875 C 15.742188 -6.625 15.765625 -6.132812 15.859375 -5.71875 C 15.953125 -5.289062 16.164062 -4.984375 16.5 -4.796875 C 16.78125 -4.554688 17.25 -4.4375 17.90625 -4.4375 L 18.46875 -4.4375 C 19.363281 -4.53125 20.046875 -4.625 20.515625 -4.71875 C 20.984375 -4.8125 21.335938 -5.070312 21.578125 -5.5 C 21.765625 -5.925781 21.859375 -6.609375 21.859375 -7.546875 C 21.859375 -8.441406 21.8125 -9.710938 21.71875 -11.359375 L 17.90625 -11.359375 C 16.726562 -11.359375 15.695312 -11.378906 14.8125 -11.421875 C 13.914062 -11.421875 13.066406 -11.46875 12.265625 -11.5625 C 11.421875 -11.613281 10.578125 -11.707031 9.734375 -11.84375 C 8.835938 -11.988281 7.847656 -12.175781 6.765625 -12.40625 C 4.835938 -12.832031 3.472656 -13.773438 2.671875 -15.234375 C 1.828125 -16.691406 1.40625 -18.710938 1.40625 -21.296875 C 1.40625 -21.953125 1.453125 -22.773438 1.546875 -23.765625 C 1.597656 -24.703125 1.785156 -25.710938 2.109375 -26.796875 C 2.441406 -27.828125 2.960938 -28.882812 3.671875 -29.96875 C 4.367188 -31 5.378906 -31.941406 6.703125 -32.796875 C 8.015625 -33.640625 9.679688 -34.316406 11.703125 -34.828125 C 13.722656 -35.347656 16.191406 -35.609375 19.109375 -35.609375 C 21.316406 -35.609375 23.242188 -35.375 24.890625 -34.90625 C 26.492188 -34.382812 27.859375 -33.726562 28.984375 -32.9375 C 30.109375 -32.082031 31.023438 -31.140625 31.734375 -30.109375 C 32.390625 -29.023438 32.929688 -27.941406 33.359375 -26.859375 C 34.242188 -24.273438 34.546875 -21.363281 34.265625 -18.125 L 21.015625 -18.125 Z M 20.875 -24.328125 "/></g></g></g><g fill="#597cff" fill-opacity="1"><g transform="translate(133.947675, 135.625702)"><g><path d="M 35.1875 -14.875 C 35.132812 -12.757812 34.921875 -10.738281 34.546875 -8.8125 C 34.128906 -6.84375 33.332031 -5.101562 32.15625 -3.59375 C 30.9375 -2.09375 29.21875 -0.894531 27 0 C 24.75 0.9375 21.742188 1.40625 17.984375 1.40625 C 14.265625 1.40625 11.328125 0.863281 9.171875 -0.21875 C 6.960938 -1.289062 5.289062 -2.695312 4.15625 -4.4375 C 2.976562 -6.132812 2.226562 -8.085938 1.90625 -10.296875 C 1.570312 -12.453125 1.40625 -14.640625 1.40625 -16.859375 C 1.40625 -19.066406 1.5 -21.273438 1.6875 -23.484375 C 1.875 -25.640625 2.488281 -27.632812 3.53125 -29.46875 C 4.5625 -31.257812 6.207031 -32.742188 8.46875 -33.921875 C 10.675781 -35.097656 13.820312 -35.78125 17.90625 -35.96875 L 19.109375 -35.96875 C 22.734375 -35.96875 25.601562 -35.351562 27.71875 -34.125 C 29.78125 -32.851562 31.375 -31.28125 32.5 -29.40625 C 33.582031 -27.519531 34.289062 -25.5 34.625 -23.34375 C 34.945312 -21.132812 35.132812 -19.066406 35.1875 -17.140625 L 13.75 -15.234375 C 13.75 -13.628906 13.773438 -12.265625 13.828125 -11.140625 C 13.867188 -9.960938 14.03125 -9 14.3125 -8.25 C 14.550781 -7.5 14.972656 -6.957031 15.578125 -6.625 C 16.148438 -6.25 17 -6.0625 18.125 -6.0625 C 19.25 -6.0625 20.117188 -6.226562 20.734375 -6.5625 C 21.335938 -6.84375 21.785156 -7.3125 22.078125 -7.96875 C 22.359375 -8.582031 22.519531 -9.359375 22.5625 -10.296875 C 22.613281 -11.234375 22.640625 -12.335938 22.640625 -13.609375 Z M 22.5 -19.953125 L 22.421875 -19.953125 L 21.859375 -25.171875 C 21.710938 -25.878906 21.335938 -26.488281 20.734375 -27 C 20.117188 -27.519531 19.390625 -27.78125 18.546875 -27.78125 C 18.023438 -27.78125 17.484375 -27.710938 16.921875 -27.578125 C 16.359375 -27.429688 15.863281 -27.21875 15.4375 -26.9375 C 14.96875 -26.65625 14.59375 -26.300781 14.3125 -25.875 C 13.988281 -25.457031 13.828125 -24.941406 13.828125 -24.328125 L 13.75 -19.109375 L 13.75 -19.046875 L 22.421875 -19.953125 L 22.421875 -19.890625 Z M 22.5 -19.953125 "/></g></g></g><g fill="#597cff" fill-opacity="1"><g transform="translate(171.812643, 135.625702)"><g><path d="M 15.015625 -35.265625 L 14.53125 -25.25 C 15 -26.5625 15.609375 -27.828125 16.359375 -29.046875 C 17.066406 -30.273438 17.890625 -31.378906 18.828125 -32.359375 C 19.722656 -33.304688 20.710938 -34.0625 21.796875 -34.625 C 22.828125 -35.1875 23.90625 -35.46875 25.03125 -35.46875 C 28.414062 -35.46875 30.976562 -34.878906 32.71875 -33.703125 C 34.414062 -32.484375 35.59375 -30.488281 36.25 -27.71875 C 36.851562 -24.9375 37.109375 -21.289062 37.015625 -16.78125 C 36.878906 -12.21875 36.671875 -6.625 36.390625 0 L 22.359375 0 C 22.492188 -0.988281 22.65625 -2.28125 22.84375 -3.875 C 22.988281 -5.425781 23.128906 -7.097656 23.265625 -8.890625 C 23.359375 -10.671875 23.429688 -12.476562 23.484375 -14.3125 C 23.523438 -16.144531 23.5 -17.816406 23.40625 -19.328125 C 23.269531 -20.773438 23.035156 -21.972656 22.703125 -22.921875 C 22.378906 -23.859375 21.882812 -24.328125 21.21875 -24.328125 C 19.71875 -24.328125 18.359375 -23.953125 17.140625 -23.203125 C 15.867188 -22.398438 14.90625 -21.457031 14.25 -20.375 L 13.1875 0 L 1.625 0 C 1.625 -4 1.625 -8.039062 1.625 -12.125 C 1.570312 -16.164062 1.546875 -19.832031 1.546875 -23.125 C 1.503906 -27.03125 1.457031 -30.789062 1.40625 -34.40625 Z M 15.015625 -35.265625 "/></g></g></g><g fill="#597cff" fill-opacity="1"><g transform="translate(211.440411, 135.625702)"><g><path d="M 0.703125 -33.984375 L 7.328125 -34.125 L 7.046875 -47.734375 L 20.875 -49.4375 L 20.171875 -34.6875 L 29.546875 -35.265625 L 28.984375 -21.71875 L 20.3125 -21.640625 L 20.3125 0 L 6.90625 0 L 7.546875 -21.359375 L 1.0625 -20.9375 Z M 0.703125 -33.984375 "/></g></g></g><g fill="#597cff" fill-opacity="1"><g transform="translate(242.959314, 135.625702)"><g><path d="M 1.546875 -22.5625 L 15.15625 -23.40625 L 14.734375 0 L 1.765625 0 Z M 1.125 -34.265625 C 1.125 -37.046875 1.664062 -38.972656 2.75 -40.046875 C 3.78125 -41.128906 5.753906 -41.671875 8.671875 -41.671875 C 10.273438 -41.671875 11.519531 -41.460938 12.40625 -41.046875 C 13.300781 -40.566406 13.960938 -39.976562 14.390625 -39.28125 C 14.804688 -38.570312 15.0625 -37.796875 15.15625 -36.953125 C 15.207031 -36.054688 15.234375 -35.1875 15.234375 -34.34375 C 15.234375 -33.40625 15.1875 -32.488281 15.09375 -31.59375 C 14.945312 -30.65625 14.640625 -29.832031 14.171875 -29.125 C 13.648438 -28.375 12.921875 -27.785156 11.984375 -27.359375 C 11.046875 -26.890625 9.726562 -26.65625 8.03125 -26.65625 C 6.488281 -26.65625 5.269531 -26.890625 4.375 -27.359375 C 3.4375 -27.785156 2.726562 -28.347656 2.25 -29.046875 C 1.78125 -29.753906 1.476562 -30.578125 1.34375 -31.515625 C 1.195312 -32.410156 1.125 -33.328125 1.125 -34.265625 Z M 1.125 -34.265625 "/></g></g></g><g fill="#597cff" fill-opacity="1"><g transform="translate(260.93995, 135.625702)"><g><path d="M 1.40625 -8.1875 C 1.40625 -9.59375 1.664062 -10.765625 2.1875 -11.703125 C 2.707031 -12.640625 3.390625 -13.394531 4.234375 -13.96875 C 5.078125 -14.53125 6.0625 -14.925781 7.1875 -15.15625 C 8.320312 -15.394531 9.519531 -15.515625 10.78125 -15.515625 C 13.039062 -15.515625 15.300781 -15.253906 17.5625 -14.734375 C 19.769531 -14.171875 21.625 -13.582031 23.125 -12.96875 L 23.125 -22.078125 L 2.828125 -20.3125 L 2.828125 -35.265625 C 7.148438 -35.210938 11.238281 -35.140625 15.09375 -35.046875 C 18.894531 -34.953125 22.253906 -34.832031 25.171875 -34.6875 C 28.554688 -34.550781 31.679688 -34.410156 34.546875 -34.265625 L 34.203125 0 L 23.40625 0 L 23.203125 -4.859375 C 21.554688 -3.359375 19.648438 -2.1875 17.484375 -1.34375 C 15.273438 -0.445312 13.113281 0 11 0 C 9.40625 0 7.992188 -0.234375 6.765625 -0.703125 C 5.546875 -1.128906 4.5625 -1.71875 3.8125 -2.46875 C 3.007812 -3.21875 2.421875 -4.085938 2.046875 -5.078125 C 1.617188 -6.066406 1.40625 -7.101562 1.40625 -8.1875 Z M 10.5 -7.828125 C 10.5 -6.984375 10.832031 -6.375 11.5 -6 C 12.15625 -5.570312 13.023438 -5.359375 14.109375 -5.359375 C 14.671875 -5.359375 15.234375 -5.5 15.796875 -5.78125 C 16.316406 -6.019531 16.8125 -6.300781 17.28125 -6.625 C 17.75 -6.957031 18.21875 -7.359375 18.6875 -7.828125 C 18.21875 -8.296875 17.75 -8.71875 17.28125 -9.09375 C 16.8125 -9.425781 16.316406 -9.734375 15.796875 -10.015625 C 15.234375 -10.242188 14.671875 -10.359375 14.109375 -10.359375 C 13.023438 -10.359375 12.15625 -10.148438 11.5 -9.734375 C 10.832031 -9.265625 10.5 -8.628906 10.5 -7.828125 Z M 10.5 -7.828125 "/></g></g></g><g fill="#597cff" fill-opacity="1"><g transform="translate(298.170311, 135.625702)"><g><path d="M 16.4375 -49.359375 L 14.59375 0 L 1.625 0 L 1.40625 -48.515625 Z M 16.4375 -49.359375 "/></g></g></g><g fill="#597cff" fill-opacity="1"><g transform="translate(317.279141, 135.625702)"><g><path d="M 20.875 -24.328125 C 20.875 -24.847656 20.660156 -25.390625 20.234375 -25.953125 C 19.816406 -26.515625 19.179688 -26.796875 18.328125 -26.796875 C 18.140625 -26.796875 17.953125 -26.769531 17.765625 -26.71875 C 17.535156 -26.675781 17.300781 -26.609375 17.0625 -26.515625 C 16.445312 -26.273438 16.023438 -25.945312 15.796875 -25.53125 C 15.515625 -25.101562 15.328125 -24.582031 15.234375 -23.96875 C 15.140625 -23.3125 15.113281 -22.5625 15.15625 -21.71875 C 15.15625 -20.875 15.15625 -19.957031 15.15625 -18.96875 C 15.15625 -18.257812 15.25 -17.71875 15.4375 -17.34375 C 15.582031 -16.925781 15.769531 -16.597656 16 -16.359375 C 16.238281 -16.117188 16.5 -15.976562 16.78125 -15.9375 C 17.019531 -15.84375 17.234375 -15.796875 17.421875 -15.796875 C 17.609375 -15.796875 17.722656 -15.816406 17.765625 -15.859375 L 22.640625 -15.859375 C 24.472656 -15.859375 26.140625 -15.789062 27.640625 -15.65625 C 29.148438 -15.507812 30.46875 -15.203125 31.59375 -14.734375 C 32.675781 -14.222656 33.519531 -13.472656 34.125 -12.484375 C 34.6875 -11.453125 34.96875 -10.066406 34.96875 -8.328125 C 34.96875 -6.253906 34.359375 -4.609375 33.140625 -3.390625 C 31.867188 -2.160156 30.34375 -1.21875 28.5625 -0.5625 C 26.769531 0.09375 24.890625 0.515625 22.921875 0.703125 C 20.898438 0.890625 19.113281 0.984375 17.5625 0.984375 C 15.726562 0.984375 14.101562 0.820312 12.6875 0.5 C 11.28125 0.21875 10.0625 -0.179688 9.03125 -0.703125 C 7.945312 -1.222656 7.050781 -1.8125 6.34375 -2.46875 C 5.59375 -3.082031 4.957031 -3.738281 4.4375 -4.4375 C 3.257812 -5.988281 2.554688 -7.773438 2.328125 -9.796875 L 15.796875 -9.09375 C 15.796875 -8.382812 15.796875 -7.75 15.796875 -7.1875 C 15.742188 -6.625 15.765625 -6.132812 15.859375 -5.71875 C 15.953125 -5.289062 16.164062 -4.984375 16.5 -4.796875 C 16.78125 -4.554688 17.25 -4.4375 17.90625 -4.4375 L 18.46875 -4.4375 C 19.363281 -4.53125 20.046875 -4.625 20.515625 -4.71875 C 20.984375 -4.8125 21.335938 -5.070312 21.578125 -5.5 C 21.765625 -5.925781 21.859375 -6.609375 21.859375 -7.546875 C 21.859375 -8.441406 21.8125 -9.710938 21.71875 -11.359375 L 17.90625 -11.359375 C 16.726562 -11.359375 15.695312 -11.378906 14.8125 -11.421875 C 13.914062 -11.421875 13.066406 -11.46875 12.265625 -11.5625 C 11.421875 -11.613281 10.578125 -11.707031 9.734375 -11.84375 C 8.835938 -11.988281 7.847656 -12.175781 6.765625 -12.40625 C 4.835938 -12.832031 3.472656 -13.773438 2.671875 -15.234375 C 1.828125 -16.691406 1.40625 -18.710938 1.40625 -21.296875 C 1.40625 -21.953125 1.453125 -22.773438 1.546875 -23.765625 C 1.597656 -24.703125 1.785156 -25.710938 2.109375 -26.796875 C 2.441406 -27.828125 2.960938 -28.882812 3.671875 -29.96875 C 4.367188 -31 5.378906 -31.941406 6.703125 -32.796875 C 8.015625 -33.640625 9.679688 -34.316406 11.703125 -34.828125 C 13.722656 -35.347656 16.191406 -35.609375 19.109375 -35.609375 C 21.316406 -35.609375 23.242188 -35.375 24.890625 -34.90625 C 26.492188 -34.382812 27.859375 -33.726562 28.984375 -32.9375 C 30.109375 -32.082031 31.023438 -31.140625 31.734375 -30.109375 C 32.390625 -29.023438 32.929688 -27.941406 33.359375 -26.859375 C 34.242188 -24.273438 34.546875 -21.363281 34.265625 -18.125 L 21.015625 -18.125 Z M 20.875 -24.328125 "/></g></g></g><g fill="#597cff" fill-opacity="1"><g transform="translate(354.368483, 135.625702)"><g><path d="M 2.109375 -48.65625 L 14.953125 -49.359375 L 13.53125 -13.96875 L 3.53125 -13.1875 Z M 2.671875 -4.71875 C 2.671875 -7.070312 3.191406 -8.671875 4.234375 -9.515625 C 5.222656 -10.359375 6.914062 -10.78125 9.3125 -10.78125 C 10.8125 -10.78125 11.984375 -10.617188 12.828125 -10.296875 C 13.628906 -9.921875 14.21875 -9.453125 14.59375 -8.890625 C 14.96875 -8.316406 15.203125 -7.679688 15.296875 -6.984375 C 15.390625 -6.273438 15.4375 -5.566406 15.4375 -4.859375 C 15.4375 -4.066406 15.390625 -3.289062 15.296875 -2.53125 C 15.160156 -1.78125 14.878906 -1.125 14.453125 -0.5625 C 14.035156 0.0507812 13.398438 0.519531 12.546875 0.84375 C 11.660156 1.21875 10.441406 1.40625 8.890625 1.40625 C 7.523438 1.40625 6.441406 1.21875 5.640625 0.84375 C 4.796875 0.519531 4.160156 0.0507812 3.734375 -0.5625 C 3.316406 -1.125 3.035156 -1.78125 2.890625 -2.53125 C 2.742188 -3.238281 2.671875 -3.96875 2.671875 -4.71875 Z M 2.671875 -4.71875 "/></g></g></g><g fill="#feb600" fill-opacity="1"><g transform="translate(19.766492, 132.571505)"><g><path d="M 1.40625 0 L 1.40625 -48.65625 L 34.265625 -49.359375 L 34.265625 -35.546875 L 14.171875 -34.828125 L 14.171875 -28.765625 L 30.109375 -30.1875 L 30.109375 -17.140625 L 14.109375 -16.4375 L 14.109375 -10.296875 L 34.265625 -11.703125 L 34.265625 0 Z M 1.40625 0 "/></g></g></g><g fill="#feb600" fill-opacity="1"><g transform="translate(56.71481, 132.571505)"><g><path d="M 20.875 -24.328125 C 20.875 -24.847656 20.660156 -25.390625 20.234375 -25.953125 C 19.816406 -26.515625 19.179688 -26.796875 18.328125 -26.796875 C 18.140625 -26.796875 17.953125 -26.769531 17.765625 -26.71875 C 17.535156 -26.675781 17.300781 -26.609375 17.0625 -26.515625 C 16.445312 -26.273438 16.023438 -25.945312 15.796875 -25.53125 C 15.515625 -25.101562 15.328125 -24.582031 15.234375 -23.96875 C 15.140625 -23.3125 15.113281 -22.5625 15.15625 -21.71875 C 15.15625 -20.875 15.15625 -19.957031 15.15625 -18.96875 C 15.15625 -18.257812 15.25 -17.71875 15.4375 -17.34375 C 15.582031 -16.925781 15.769531 -16.597656 16 -16.359375 C 16.238281 -16.117188 16.5 -15.976562 16.78125 -15.9375 C 17.019531 -15.84375 17.234375 -15.796875 17.421875 -15.796875 C 17.609375 -15.796875 17.722656 -15.816406 17.765625 -15.859375 L 22.640625 -15.859375 C 24.472656 -15.859375 26.140625 -15.789062 27.640625 -15.65625 C 29.148438 -15.507812 30.46875 -15.203125 31.59375 -14.734375 C 32.675781 -14.222656 33.519531 -13.472656 34.125 -12.484375 C 34.6875 -11.453125 34.96875 -10.066406 34.96875 -8.328125 C 34.96875 -6.253906 34.359375 -4.609375 33.140625 -3.390625 C 31.867188 -2.160156 30.34375 -1.21875 28.5625 -0.5625 C 26.769531 0.09375 24.890625 0.515625 22.921875 0.703125 C 20.898438 0.890625 19.113281 0.984375 17.5625 0.984375 C 15.726562 0.984375 14.101562 0.820312 12.6875 0.5 C 11.28125 0.21875 10.0625 -0.179688 9.03125 -0.703125 C 7.945312 -1.222656 7.050781 -1.8125 6.34375 -2.46875 C 5.59375 -3.082031 4.957031 -3.738281 4.4375 -4.4375 C 3.257812 -5.988281 2.554688 -7.773438 2.328125 -9.796875 L 15.796875 -9.09375 C 15.796875 -8.382812 15.796875 -7.75 15.796875 -7.1875 C 15.742188 -6.625 15.765625 -6.132812 15.859375 -5.71875 C 15.953125 -5.289062 16.164062 -4.984375 16.5 -4.796875 C 16.78125 -4.554688 17.25 -4.4375 17.90625 -4.4375 L 18.46875 -4.4375 C 19.363281 -4.53125 20.046875 -4.625 20.515625 -4.71875 C 20.984375 -4.8125 21.335938 -5.070312 21.578125 -5.5 C 21.765625 -5.925781 21.859375 -6.609375 21.859375 -7.546875 C 21.859375 -8.441406 21.8125 -9.710938 21.71875 -11.359375 L 17.90625 -11.359375 C 16.726562 -11.359375 15.695312 -11.378906 14.8125 -11.421875 C 13.914062 -11.421875 13.066406 -11.46875 12.265625 -11.5625 C 11.421875 -11.613281 10.578125 -11.707031 9.734375 -11.84375 C 8.835938 -11.988281 7.847656 -12.175781 6.765625 -12.40625 C 4.835938 -12.832031 3.472656 -13.773438 2.671875 -15.234375 C 1.828125 -16.691406 1.40625 -18.710938 1.40625 -21.296875 C 1.40625 -21.953125 1.453125 -22.773438 1.546875 -23.765625 C 1.597656 -24.703125 1.785156 -25.710938 2.109375 -26.796875 C 2.441406 -27.828125 2.960938 -28.882812 3.671875 -29.96875 C 4.367188 -31 5.378906 -31.941406 6.703125 -32.796875 C 8.015625 -33.640625 9.679688 -34.316406 11.703125 -34.828125 C 13.722656 -35.347656 16.191406 -35.609375 19.109375 -35.609375 C 21.316406 -35.609375 23.242188 -35.375 24.890625 -34.90625 C 26.492188 -34.382812 27.859375 -33.726562 28.984375 -32.9375 C 30.109375 -32.082031 31.023438 -31.140625 31.734375 -30.109375 C 32.390625 -29.023438 32.929688 -27.941406 33.359375 -26.859375 C 34.242188 -24.273438 34.546875 -21.363281 34.265625 -18.125 L 21.015625 -18.125 Z M 20.875 -24.328125 "/></g></g></g><g fill="#feb600" fill-opacity="1"><g transform="translate(93.804147, 132.571505)"><g><path d="M 20.875 -24.328125 C 20.875 -24.847656 20.660156 -25.390625 20.234375 -25.953125 C 19.816406 -26.515625 19.179688 -26.796875 18.328125 -26.796875 C 18.140625 -26.796875 17.953125 -26.769531 17.765625 -26.71875 C 17.535156 -26.675781 17.300781 -26.609375 17.0625 -26.515625 C 16.445312 -26.273438 16.023438 -25.945312 15.796875 -25.53125 C 15.515625 -25.101562 15.328125 -24.582031 15.234375 -23.96875 C 15.140625 -23.3125 15.113281 -22.5625 15.15625 -21.71875 C 15.15625 -20.875 15.15625 -19.957031 15.15625 -18.96875 C 15.15625 -18.257812 15.25 -17.71875 15.4375 -17.34375 C 15.582031 -16.925781 15.769531 -16.597656 16 -16.359375 C 16.238281 -16.117188 16.5 -15.976562 16.78125 -15.9375 C 17.019531 -15.84375 17.234375 -15.796875 17.421875 -15.796875 C 17.609375 -15.796875 17.722656 -15.816406 17.765625 -15.859375 L 22.640625 -15.859375 C 24.472656 -15.859375 26.140625 -15.789062 27.640625 -15.65625 C 29.148438 -15.507812 30.46875 -15.203125 31.59375 -14.734375 C 32.675781 -14.222656 33.519531 -13.472656 34.125 -12.484375 C 34.6875 -11.453125 34.96875 -10.066406 34.96875 -8.328125 C 34.96875 -6.253906 34.359375 -4.609375 33.140625 -3.390625 C 31.867188 -2.160156 30.34375 -1.21875 28.5625 -0.5625 C 26.769531 0.09375 24.890625 0.515625 22.921875 0.703125 C 20.898438 0.890625 19.113281 0.984375 17.5625 0.984375 C 15.726562 0.984375 14.101562 0.820312 12.6875 0.5 C 11.28125 0.21875 10.0625 -0.179688 9.03125 -0.703125 C 7.945312 -1.222656 7.050781 -1.8125 6.34375 -2.46875 C 5.59375 -3.082031 4.957031 -3.738281 4.4375 -4.4375 C 3.257812 -5.988281 2.554688 -7.773438 2.328125 -9.796875 L 15.796875 -9.09375 C 15.796875 -8.382812 15.796875 -7.75 15.796875 -7.1875 C 15.742188 -6.625 15.765625 -6.132812 15.859375 -5.71875 C 15.953125 -5.289062 16.164062 -4.984375 16.5 -4.796875 C 16.78125 -4.554688 17.25 -4.4375 17.90625 -4.4375 L 18.46875 -4.4375 C 19.363281 -4.53125 20.046875 -4.625 20.515625 -4.71875 C 20.984375 -4.8125 21.335938 -5.070312 21.578125 -5.5 C 21.765625 -5.925781 21.859375 -6.609375 21.859375 -7.546875 C 21.859375 -8.441406 21.8125 -9.710938 21.71875 -11.359375 L 17.90625 -11.359375 C 16.726562 -11.359375 15.695312 -11.378906 14.8125 -11.421875 C 13.914062 -11.421875 13.066406 -11.46875 12.265625 -11.5625 C 11.421875 -11.613281 10.578125 -11.707031 9.734375 -11.84375 C 8.835938 -11.988281 7.847656 -12.175781 6.765625 -12.40625 C 4.835938 -12.832031 3.472656 -13.773438 2.671875 -15.234375 C 1.828125 -16.691406 1.40625 -18.710938 1.40625 -21.296875 C 1.40625 -21.953125 1.453125 -22.773438 1.546875 -23.765625 C 1.597656 -24.703125 1.785156 -25.710938 2.109375 -26.796875 C 2.441406 -27.828125 2.960938 -28.882812 3.671875 -29.96875 C 4.367188 -31 5.378906 -31.941406 6.703125 -32.796875 C 8.015625 -33.640625 9.679688 -34.316406 11.703125 -34.828125 C 13.722656 -35.347656 16.191406 -35.609375 19.109375 -35.609375 C 21.316406 -35.609375 23.242188 -35.375 24.890625 -34.90625 C 26.492188 -34.382812 27.859375 -33.726562 28.984375 -32.9375 C 30.109375 -32.082031 31.023438 -31.140625 31.734375 -30.109375 C 32.390625 -29.023438 32.929688 -27.941406 33.359375 -26.859375 C 34.242188 -24.273438 34.546875 -21.363281 34.265625 -18.125 L 21.015625 -18.125 Z M 20.875 -24.328125 "/></g></g></g><g fill="#feb600" fill-opacity="1"><g transform="translate(130.893479, 132.571505)"><g><path d="M 35.1875 -14.875 C 35.132812 -12.757812 34.921875 -10.738281 34.546875 -8.8125 C 34.128906 -6.84375 33.332031 -5.101562 32.15625 -3.59375 C 30.9375 -2.09375 29.21875 -0.894531 27 0 C 24.75 0.9375 21.742188 1.40625 17.984375 1.40625 C 14.265625 1.40625 11.328125 0.863281 9.171875 -0.21875 C 6.960938 -1.289062 5.289062 -2.695312 4.15625 -4.4375 C 2.976562 -6.132812 2.226562 -8.085938 1.90625 -10.296875 C 1.570312 -12.453125 1.40625 -14.640625 1.40625 -16.859375 C 1.40625 -19.066406 1.5 -21.273438 1.6875 -23.484375 C 1.875 -25.640625 2.488281 -27.632812 3.53125 -29.46875 C 4.5625 -31.257812 6.207031 -32.742188 8.46875 -33.921875 C 10.675781 -35.097656 13.820312 -35.78125 17.90625 -35.96875 L 19.109375 -35.96875 C 22.734375 -35.96875 25.601562 -35.351562 27.71875 -34.125 C 29.78125 -32.851562 31.375 -31.28125 32.5 -29.40625 C 33.582031 -27.519531 34.289062 -25.5 34.625 -23.34375 C 34.945312 -21.132812 35.132812 -19.066406 35.1875 -17.140625 L 13.75 -15.234375 C 13.75 -13.628906 13.773438 -12.265625 13.828125 -11.140625 C 13.867188 -9.960938 14.03125 -9 14.3125 -8.25 C 14.550781 -7.5 14.972656 -6.957031 15.578125 -6.625 C 16.148438 -6.25 17 -6.0625 18.125 -6.0625 C 19.25 -6.0625 20.117188 -6.226562 20.734375 -6.5625 C 21.335938 -6.84375 21.785156 -7.3125 22.078125 -7.96875 C 22.359375 -8.582031 22.519531 -9.359375 22.5625 -10.296875 C 22.613281 -11.234375 22.640625 -12.335938 22.640625 -13.609375 Z M 22.5 -19.953125 L 22.421875 -19.953125 L 21.859375 -25.171875 C 21.710938 -25.878906 21.335938 -26.488281 20.734375 -27 C 20.117188 -27.519531 19.390625 -27.78125 18.546875 -27.78125 C 18.023438 -27.78125 17.484375 -27.710938 16.921875 -27.578125 C 16.359375 -27.429688 15.863281 -27.21875 15.4375 -26.9375 C 14.96875 -26.65625 14.59375 -26.300781 14.3125 -25.875 C 13.988281 -25.457031 13.828125 -24.941406 13.828125 -24.328125 L 13.75 -19.109375 L 13.75 -19.046875 L 22.421875 -19.953125 L 22.421875 -19.890625 Z M 22.5 -19.953125 "/></g></g></g><g fill="#feb600" fill-opacity="1"><g transform="translate(168.758447, 132.571505)"><g><path d="M 15.015625 -35.265625 L 14.53125 -25.25 C 15 -26.5625 15.609375 -27.828125 16.359375 -29.046875 C 17.066406 -30.273438 17.890625 -31.378906 18.828125 -32.359375 C 19.722656 -33.304688 20.710938 -34.0625 21.796875 -34.625 C 22.828125 -35.1875 23.90625 -35.46875 25.03125 -35.46875 C 28.414062 -35.46875 30.976562 -34.878906 32.71875 -33.703125 C 34.414062 -32.484375 35.59375 -30.488281 36.25 -27.71875 C 36.851562 -24.9375 37.109375 -21.289062 37.015625 -16.78125 C 36.878906 -12.21875 36.671875 -6.625 36.390625 0 L 22.359375 0 C 22.492188 -0.988281 22.65625 -2.28125 22.84375 -3.875 C 22.988281 -5.425781 23.128906 -7.097656 23.265625 -8.890625 C 23.359375 -10.671875 23.429688 -12.476562 23.484375 -14.3125 C 23.523438 -16.144531 23.5 -17.816406 23.40625 -19.328125 C 23.269531 -20.773438 23.035156 -21.972656 22.703125 -22.921875 C 22.378906 -23.859375 21.882812 -24.328125 21.21875 -24.328125 C 19.71875 -24.328125 18.359375 -23.953125 17.140625 -23.203125 C 15.867188 -22.398438 14.90625 -21.457031 14.25 -20.375 L 13.1875 0 L 1.625 0 C 1.625 -4 1.625 -8.039062 1.625 -12.125 C 1.570312 -16.164062 1.546875 -19.832031 1.546875 -23.125 C 1.503906 -27.03125 1.457031 -30.789062 1.40625 -34.40625 Z M 15.015625 -35.265625 "/></g></g></g><g fill="#feb600" fill-opacity="1"><g transform="translate(208.386215, 132.571505)"><g><path d="M 0.703125 -33.984375 L 7.328125 -34.125 L 7.046875 -47.734375 L 20.875 -49.4375 L 20.171875 -34.6875 L 29.546875 -35.265625 L 28.984375 -21.71875 L 20.3125 -21.640625 L 20.3125 0 L 6.90625 0 L 7.546875 -21.359375 L 1.0625 -20.9375 Z M 0.703125 -33.984375 "/></g></g></g><g fill="#feb600" fill-opacity="1"><g transform="translate(239.905117, 132.571505)"><g><path d="M 1.546875 -22.5625 L 15.15625 -23.40625 L 14.734375 0 L 1.765625 0 Z M 1.125 -34.265625 C 1.125 -37.046875 1.664062 -38.972656 2.75 -40.046875 C 3.78125 -41.128906 5.753906 -41.671875 8.671875 -41.671875 C 10.273438 -41.671875 11.519531 -41.460938 12.40625 -41.046875 C 13.300781 -40.566406 13.960938 -39.976562 14.390625 -39.28125 C 14.804688 -38.570312 15.0625 -37.796875 15.15625 -36.953125 C 15.207031 -36.054688 15.234375 -35.1875 15.234375 -34.34375 C 15.234375 -33.40625 15.1875 -32.488281 15.09375 -31.59375 C 14.945312 -30.65625 14.640625 -29.832031 14.171875 -29.125 C 13.648438 -28.375 12.921875 -27.785156 11.984375 -27.359375 C 11.046875 -26.890625 9.726562 -26.65625 8.03125 -26.65625 C 6.488281 -26.65625 5.269531 -26.890625 4.375 -27.359375 C 3.4375 -27.785156 2.726562 -28.347656 2.25 -29.046875 C 1.78125 -29.753906 1.476562 -30.578125 1.34375 -31.515625 C 1.195312 -32.410156 1.125 -33.328125 1.125 -34.265625 Z M 1.125 -34.265625 "/></g></g></g><g fill="#feb600" fill-opacity="1"><g transform="translate(257.885754, 132.571505)"><g><path d="M 1.40625 -8.1875 C 1.40625 -9.59375 1.664062 -10.765625 2.1875 -11.703125 C 2.707031 -12.640625 3.390625 -13.394531 4.234375 -13.96875 C 5.078125 -14.53125 6.0625 -14.925781 7.1875 -15.15625 C 8.320312 -15.394531 9.519531 -15.515625 10.78125 -15.515625 C 13.039062 -15.515625 15.300781 -15.253906 17.5625 -14.734375 C 19.769531 -14.171875 21.625 -13.582031 23.125 -12.96875 L 23.125 -22.078125 L 2.828125 -20.3125 L 2.828125 -35.265625 C 7.148438 -35.210938 11.238281 -35.140625 15.09375 -35.046875 C 18.894531 -34.953125 22.253906 -34.832031 25.171875 -34.6875 C 28.554688 -34.550781 31.679688 -34.410156 34.546875 -34.265625 L 34.203125 0 L 23.40625 0 L 23.203125 -4.859375 C 21.554688 -3.359375 19.648438 -2.1875 17.484375 -1.34375 C 15.273438 -0.445312 13.113281 0 11 0 C 9.40625 0 7.992188 -0.234375 6.765625 -0.703125 C 5.546875 -1.128906 4.5625 -1.71875 3.8125 -2.46875 C 3.007812 -3.21875 2.421875 -4.085938 2.046875 -5.078125 C 1.617188 -6.066406 1.40625 -7.101562 1.40625 -8.1875 Z M 10.5 -7.828125 C 10.5 -6.984375 10.832031 -6.375 11.5 -6 C 12.15625 -5.570312 13.023438 -5.359375 14.109375 -5.359375 C 14.671875 -5.359375 15.234375 -5.5 15.796875 -5.78125 C 16.316406 -6.019531 16.8125 -6.300781 17.28125 -6.625 C 17.75 -6.957031 18.21875 -7.359375 18.6875 -7.828125 C 18.21875 -8.296875 17.75 -8.71875 17.28125 -9.09375 C 16.8125 -9.425781 16.316406 -9.734375 15.796875 -10.015625 C 15.234375 -10.242188 14.671875 -10.359375 14.109375 -10.359375 C 13.023438 -10.359375 12.15625 -10.148438 11.5 -9.734375 C 10.832031 -9.265625 10.5 -8.628906 10.5 -7.828125 Z M 10.5 -7.828125 "/></g></g></g><g fill="#feb600" fill-opacity="1"><g transform="translate(295.116115, 132.571505)"><g><path d="M 16.4375 -49.359375 L 14.59375 0 L 1.625 0 L 1.40625 -48.515625 Z M 16.4375 -49.359375 "/></g></g></g><g fill="#feb600" fill-opacity="1"><g transform="translate(314.224945, 132.571505)"><g><path d="M 20.875 -24.328125 C 20.875 -24.847656 20.660156 -25.390625 20.234375 -25.953125 C 19.816406 -26.515625 19.179688 -26.796875 18.328125 -26.796875 C 18.140625 -26.796875 17.953125 -26.769531 17.765625 -26.71875 C 17.535156 -26.675781 17.300781 -26.609375 17.0625 -26.515625 C 16.445312 -26.273438 16.023438 -25.945312 15.796875 -25.53125 C 15.515625 -25.101562 15.328125 -24.582031 15.234375 -23.96875 C 15.140625 -23.3125 15.113281 -22.5625 15.15625 -21.71875 C 15.15625 -20.875 15.15625 -19.957031 15.15625 -18.96875 C 15.15625 -18.257812 15.25 -17.71875 15.4375 -17.34375 C 15.582031 -16.925781 15.769531 -16.597656 16 -16.359375 C 16.238281 -16.117188 16.5 -15.976562 16.78125 -15.9375 C 17.019531 -15.84375 17.234375 -15.796875 17.421875 -15.796875 C 17.609375 -15.796875 17.722656 -15.816406 17.765625 -15.859375 L 22.640625 -15.859375 C 24.472656 -15.859375 26.140625 -15.789062 27.640625 -15.65625 C 29.148438 -15.507812 30.46875 -15.203125 31.59375 -14.734375 C 32.675781 -14.222656 33.519531 -13.472656 34.125 -12.484375 C 34.6875 -11.453125 34.96875 -10.066406 34.96875 -8.328125 C 34.96875 -6.253906 34.359375 -4.609375 33.140625 -3.390625 C 31.867188 -2.160156 30.34375 -1.21875 28.5625 -0.5625 C 26.769531 0.09375 24.890625 0.515625 22.921875 0.703125 C 20.898438 0.890625 19.113281 0.984375 17.5625 0.984375 C 15.726562 0.984375 14.101562 0.820312 12.6875 0.5 C 11.28125 0.21875 10.0625 -0.179688 9.03125 -0.703125 C 7.945312 -1.222656 7.050781 -1.8125 6.34375 -2.46875 C 5.59375 -3.082031 4.957031 -3.738281 4.4375 -4.4375 C 3.257812 -5.988281 2.554688 -7.773438 2.328125 -9.796875 L 15.796875 -9.09375 C 15.796875 -8.382812 15.796875 -7.75 15.796875 -7.1875 C 15.742188 -6.625 15.765625 -6.132812 15.859375 -5.71875 C 15.953125 -5.289062 16.164062 -4.984375 16.5 -4.796875 C 16.78125 -4.554688 17.25 -4.4375 17.90625 -4.4375 L 18.46875 -4.4375 C 19.363281 -4.53125 20.046875 -4.625 20.515625 -4.71875 C 20.984375 -4.8125 21.335938 -5.070312 21.578125 -5.5 C 21.765625 -5.925781 21.859375 -6.609375 21.859375 -7.546875 C 21.859375 -8.441406 21.8125 -9.710938 21.71875 -11.359375 L 17.90625 -11.359375 C 16.726562 -11.359375 15.695312 -11.378906 14.8125 -11.421875 C 13.914062 -11.421875 13.066406 -11.46875 12.265625 -11.5625 C 11.421875 -11.613281 10.578125 -11.707031 9.734375 -11.84375 C 8.835938 -11.988281 7.847656 -12.175781 6.765625 -12.40625 C 4.835938 -12.832031 3.472656 -13.773438 2.671875 -15.234375 C 1.828125 -16.691406 1.40625 -18.710938 1.40625 -21.296875 C 1.40625 -21.953125 1.453125 -22.773438 1.546875 -23.765625 C 1.597656 -24.703125 1.785156 -25.710938 2.109375 -26.796875 C 2.441406 -27.828125 2.960938 -28.882812 3.671875 -29.96875 C 4.367188 -31 5.378906 -31.941406 6.703125 -32.796875 C 8.015625 -33.640625 9.679688 -34.316406 11.703125 -34.828125 C 13.722656 -35.347656 16.191406 -35.609375 19.109375 -35.609375 C 21.316406 -35.609375 23.242188 -35.375 24.890625 -34.90625 C 26.492188 -34.382812 27.859375 -33.726562 28.984375 -32.9375 C 30.109375 -32.082031 31.023438 -31.140625 31.734375 -30.109375 C 32.390625 -29.023438 32.929688 -27.941406 33.359375 -26.859375 C 34.242188 -24.273438 34.546875 -21.363281 34.265625 -18.125 L 21.015625 -18.125 Z M 20.875 -24.328125 "/></g></g></g><g fill="#feb600" fill-opacity="1"><g transform="translate(351.314287, 132.571505)"><g><path d="M 2.109375 -48.65625 L 14.953125 -49.359375 L 13.53125 -13.96875 L 3.53125 -13.1875 Z M 2.671875 -4.71875 C 2.671875 -7.070312 3.191406 -8.671875 4.234375 -9.515625 C 5.222656 -10.359375 6.914062 -10.78125 9.3125 -10.78125 C 10.8125 -10.78125 11.984375 -10.617188 12.828125 -10.296875 C 13.628906 -9.921875 14.21875 -9.453125 14.59375 -8.890625 C 14.96875 -8.316406 15.203125 -7.679688 15.296875 -6.984375 C 15.390625 -6.273438 15.4375 -5.566406 15.4375 -4.859375 C 15.4375 -4.066406 15.390625 -3.289062 15.296875 -2.53125 C 15.160156 -1.78125 14.878906 -1.125 14.453125 -0.5625 C 14.035156 0.0507812 13.398438 0.519531 12.546875 0.84375 C 11.660156 1.21875 10.441406 1.40625 8.890625 1.40625 C 7.523438 1.40625 6.441406 1.21875 5.640625 0.84375 C 4.796875 0.519531 4.160156 0.0507812 3.734375 -0.5625 C 3.316406 -1.125 3.035156 -1.78125 2.890625 -2.53125 C 2.742188 -3.238281 2.671875 -3.96875 2.671875 -4.71875 Z M 2.671875 -4.71875 "/></g></g></g></svg>