<?xml version="1.0" encoding="utf-8"?>
<svg xmlns="http://www.w3.org/2000/svg" width="136" height="132" fill="none" id="invoice-and-billing-icon-image" class="Invoice billing payment finance tools icon symbol document">
  <desc>The invoice and billing icon represents financial documentation, perfect for showcasing payment and billing services.</desc>
  <title>Invoice and Billing Icon - Document with Dollar Sign</title>
  <path fill="#000" d="M134.641 132h-97.49V1.032h66.737v4.187H41.391v122.594h89.01v-96.23h4.24z"/>
  <path fill="#000" d="m114.091 9.995 11.549 11.477h-11.549zM109.916 0v25.593h25.751zM88.982 28.283H48.98v-13.9h40.002zM53.22 24.096h31.524v-5.525H53.219zm68.756 74.103H48.98V43.135h72.996zm-68.757-4.187h64.517v-46.69H53.219z"/>
  <path fill="#000" d="M120.104 55.487H50.749v4.186h69.355z"/>
  <path fill="#000" d="M106.488 45.052h-4.24v51.761h4.24zm-28.078 0h-4.24v51.761h4.24zm42.708 62.783H92.694v4.187h28.424zm-93.101 9.116h-4.24V5.864h-8.143V116.95h-4.24V1.677h16.623z"/>
  <path fill="#000" d="M26.354 69.447H14.313v4.187h12.041zm0-8.24H14.313v4.187h12.041zM4.24 53.225H0V10.998h27.72v4.187H4.24zm20.532 78.351H14.64l-3.245-11.473v-5.087h16.622v5.087zm-6.914-4.187h3.696l2.223-7.861v-.326h-8.143v.326z"/>
</svg>