<?xml version="1.0" encoding="utf-8"?>
<svg xmlns="http://www.w3.org/2000/svg" width="137" height="132" fill="none" id="certificate-icon-image" class="Certificate achievement award document symbol icon">
  <desc>The certificate icon represents official documents for achievements or qualifications, ideal for education, awards, or certifications.
</desc>
  <title>Certificate Icon - Ribbon and Document Design</title>
  <path fill="#000" d="M28.657 83.238c0 .362.133.709.37.965s.558.4.893.4h64.895c.335 0 .656-.144.893-.4s.37-.603.37-.965-.133-.709-.37-.965a1.22 1.22 0 0 0-.893-.4H29.92c-.335 0-.656.144-.893.4s-.37.603-.37.965m66.124 8.96c.335 0 .656-.144.893-.4a1.42 1.42 0 0 0 .37-.964c0-.362-.133-.71-.37-.965a1.22 1.22 0 0 0-.893-.4H83.777c-.334 0-.656.144-.892.4-.237.256-.37.603-.37.965 0 .361.133.709.37.965.236.255.558.4.892.4zm-15.953-1.364c0-.362-.133-.71-.37-.965a1.22 1.22 0 0 0-.893-.4H29.92c-.335 0-.656.144-.893.4s-.37.603-.37.965c0 .361.133.709.37.965.237.255.558.4.893.4h47.645c.335 0 .656-.145.893-.4.237-.256.37-.604.37-.965m8.038 13.797-3.291-.015c-.944.002-1.848.407-2.516 1.127-2.171 2.371-3.55 3.064-3.97 3.048.116-.486.287-.955.51-1.395.433-.96.882-1.954.365-2.91a1.86 1.86 0 0 0-.658-.682 1.7 1.7 0 0 0-.883-.241c-1.42-.089-2.978 1.21-4.624 2.586-.344.287-.77.644-1.164.949.044-.152.09-.3.13-.431.502-1.658 1.344-4.432-.885-5.699-1.449-.824-3.468.012-6.355 2.631a43 43 0 0 0-3.424 3.527 1.43 1.43 0 0 0-.324.978c.015.359.161.697.406.941.245.243.57.372.902.359s.647-.168.875-.431c2.652-3.113 5.863-5.751 6.76-5.58.31.227-.105 1.599-.356 2.424-.427 1.408-.87 2.864-.058 3.96.37.5 1.237 1.189 2.88.187q1.13-.75 2.159-1.657a34 34 0 0 1 1.644-1.314c-.472 1.219-.854 2.943.644 4.055a2.32 2.32 0 0 0 1.418.468c1.511 0 3.455-1.289 5.804-3.854a.98.98 0 0 1 .71-.317l3.29.014h.006c.335.001.657-.142.894-.397a1.43 1.43 0 0 0 .372-.964 1.43 1.43 0 0 0-.368-.966 1.22 1.22 0 0 0-.893-.401m8.06.096h-3.701c-.335 0-.656.144-.893.4s-.37.603-.37.965.133.709.37.965c.237.255.558.399.893.399h3.7c.336 0 .657-.144.894-.399.236-.256.37-.603.37-.965s-.133-.709-.37-.965a1.22 1.22 0 0 0-.893-.4M43.363 72.054H67.34c.335 0 .656-.144.893-.4.237-.255.37-.602.37-.964s-.133-.71-.37-.965a1.22 1.22 0 0 0-.893-.4H43.363a1.23 1.23 0 0 1-.902-.404 1.44 1.44 0 0 1-.374-.974V52.9c0-.366.135-.716.374-.974a1.23 1.23 0 0 1 .902-.404h35.22c.339 0 .663.145.902.404.24.258.374.608.374.974v15.048c0 .366-.135.716-.374.974a1.23 1.23 0 0 1-.901.404h-4.695c-.335 0-.656.144-.893.4s-.37.603-.37.965.133.709.37.965c.237.255.558.4.893.4h4.695c1.008-.002 1.974-.435 2.686-1.205a4.28 4.28 0 0 0 1.115-2.903V52.9a4.28 4.28 0 0 0-1.115-2.903c-.712-.77-1.678-1.203-2.686-1.204H43.363c-1.008.001-1.974.434-2.687 1.204a4.3 4.3 0 0 0-1.114 2.903v15.048a4.3 4.3 0 0 0 1.114 2.903c.713.77 1.679 1.203 2.687 1.204"/>
  <path fill="#000" d="M133.828 29.465c1.099-1.328 2.345-2.834 2.345-4.805s-1.246-3.476-2.345-4.805c-.634-.766-1.289-1.558-1.484-2.205-.212-.705-.113-1.801-.018-2.861.157-1.74.334-3.712-.699-5.245-1.042-1.548-2.842-1.974-4.431-2.35-.954-.225-1.941-.459-2.483-.884-.528-.416-1.031-1.348-1.518-2.25-.824-1.529-1.759-3.261-3.466-3.86-1.642-.576-3.308.208-4.777.9-.918.432-1.867.88-2.578.88-.712 0-1.661-.448-2.579-.88-1.468-.692-3.133-1.476-4.777-.9-1.706.599-2.641 2.331-3.466 3.86-.486.901-.99 1.834-1.518 2.25-.54.425-1.528.658-2.482.884-1.589.376-3.39.802-4.432 2.35-1.033 1.533-.855 3.505-.699 5.245.096 1.06.194 2.155-.018 2.86-.194.648-.85 1.44-1.483 2.206-1.1 1.328-2.345 2.834-2.345 4.805a4.8 4.8 0 0 0 .263 1.546H3.042a2.93 2.93 0 0 0-2.15.963A3.43 3.43 0 0 0 0 29.492v99.221c0 .872.321 1.707.892 2.324.57.616 1.343.962 2.15.963h117.084a2.94 2.94 0 0 0 2.151-.963c.57-.617.891-1.452.891-2.324v-63.81h6.174c.485.001.957-.169 1.345-.484a2.43 2.43 0 0 0 .804-1.26 2.6 2.6 0 0 0-.061-1.53 2.38 2.38 0 0 0-.901-1.182c-4.832-3.226-6.954-9.8-7.863-14.229.185-.32.36-.643.53-.958.486-.901.989-1.834 1.517-2.25.541-.425 1.528-.658 2.483-.884 1.589-.376 3.389-.802 4.431-2.35 1.033-1.533.856-3.505.699-5.244-.095-1.06-.194-2.156.018-2.861.195-.648.85-1.44 1.484-2.206M94.173 60.447a2.34 2.34 0 0 0-.906 1.17 2.55 2.55 0 0 0-.06 1.525c.13.509.411.957.8 1.275.39.319.865.49 1.353.487h10.156c.181 0 .359-.042.523-.123s.31-.198.429-.344c.153-.192 2.505-3.17 4.504-9.066v54.313c-2.134.332-4.111 1.401-5.636 3.048-1.524 1.647-2.515 3.782-2.822 6.088h-81.86c-.307-2.305-1.297-4.441-2.821-6.087-1.524-1.647-3.5-2.716-5.634-3.049V48.522c2.133-.333 4.11-1.402 5.634-3.05 1.524-1.646 2.514-3.781 2.822-6.086H92.89q.105.202.229.39c1.042 1.548 2.843 1.974 4.432 2.35.954.226 1.941.46 2.482.885.528.415 1.031 1.348 1.518 2.25.161.297.326.603.5.906-.901 4.427-3.018 11.033-7.879 14.28m9.539-10.397q.208-.72.379-1.41.435.306.927.48c1.643.577 3.309-.208 4.777-.9l.471-.22c-1.533 8.03-4.393 12.746-5.367 14.175h-8.576c3.26-2.526 5.803-6.695 7.389-12.125m16.65 78.663a.27.27 0 0 1-.069.18.23.23 0 0 1-.167.075H3.042a.23.23 0 0 1-.166-.075.27.27 0 0 1-.07-.18v-99.22c0-.068.026-.133.07-.18a.23.23 0 0 1 .166-.075h87.69l.188.227c.633.766 1.289 1.558 1.483 2.206.212.705.114 1.8.018 2.86-.053.59-.107 1.206-.117 1.823H19.35c-.372 0-.73.16-.992.444a1.58 1.58 0 0 0-.411 1.072c-.002 2.048-.756 4.012-2.097 5.46s-3.158 2.263-5.054 2.266c-.372 0-.729.16-.992.444a1.58 1.58 0 0 0-.411 1.072v63.982c0 .402.148.788.411 1.072s.62.444.992.444c1.896.002 3.713.817 5.054 2.265 1.34 1.449 2.095 3.412 2.097 5.461 0 .402.148.787.41 1.071.264.285.62.445.993.445h84.468c.373 0 .729-.16.993-.445.263-.284.411-.669.411-1.071.002-2.049.756-4.013 2.098-5.462s3.159-2.262 5.055-2.264c.372 0 .729-.16.992-.444a1.58 1.58 0 0 0 .411-1.072v-55.59c1.988 5.808 4.306 8.742 4.46 8.933.118.147.264.264.428.345s.343.122.523.122h1.173zm8.021-66.538h-8.58c-.977-1.433-3.841-6.156-5.371-14.197l.52.242c1.111.524 2.335 1.1 3.576 1.1a3.6 3.6 0 0 0 1.201-.2c.313-.11.613-.262.891-.453q.17.676.373 1.383c1.583 5.43 4.126 9.6 7.39 12.125m3.352-34.73c-.827 1-1.683 2.034-2.06 3.29-.393 1.305-.265 2.72-.142 4.09.113 1.261.231 2.565-.175 3.167-.415.616-1.608.899-2.763 1.172-1.237.293-2.516.595-3.533 1.395-1.004.79-1.658 2.002-2.291 3.175-.6 1.111-1.22 2.261-1.908 2.502-.633.222-1.728-.295-2.789-.795-1.181-.556-2.403-1.132-3.7-1.132s-2.519.576-3.7 1.132c-1.061.5-2.158 1.017-2.789.795-.688-.24-1.308-1.39-1.909-2.502-.632-1.173-1.286-2.385-2.291-3.175-1.017-.8-2.296-1.102-3.533-1.395-1.154-.273-2.348-.556-2.763-1.172-.405-.602-.288-1.906-.174-3.167.123-1.37.25-2.785-.142-4.09-.378-1.256-1.233-2.29-2.06-3.29-.802-.97-1.632-1.972-1.632-2.785s.83-1.815 1.631-2.784c.828-1 1.683-2.035 2.06-3.29.393-1.306.266-2.722.143-4.09-.114-1.262-.231-2.566.174-3.168.415-.616 1.61-.899 2.763-1.172 1.237-.292 2.517-.595 3.534-1.395 1.004-.79 1.658-2.002 2.291-3.174.6-1.112 1.22-2.262 1.908-2.503q.169-.056.345-.053c.644 0 1.557.43 2.444.848 1.181.557 2.403 1.133 3.7 1.133s2.519-.576 3.7-1.133c1.061-.5 2.158-1.017 2.789-.795.688.241 1.308 1.391 1.908 2.503.633 1.172 1.287 2.385 2.291 3.175 1.017.8 2.297 1.102 3.534 1.395 1.154.273 2.348.555 2.763 1.171.405.602.288 1.906.174 3.168-.123 1.369-.25 2.784.142 4.09.378 1.256 1.233 2.29 2.061 3.29.801.97 1.63 1.971 1.63 2.784s-.829 1.815-1.631 2.785"/>
  <path fill="#000" d="M112.621 9.373c-2.798-.056-5.55.786-7.906 2.42s-4.21 3.984-5.33 6.757a16.4 16.4 0 0 0-.956 8.817c.496 2.977 1.797 5.728 3.739 7.906a14.2 14.2 0 0 0 4.659 3.46 13.3 13.3 0 0 0 5.875 1.216c.372-.01.725-.178.982-.47.257-.29.396-.68.387-1.082a1.57 1.57 0 0 0-.434-1.061 1.35 1.35 0 0 0-1.002-.418c-2.285.06-4.533-.627-6.451-1.971s-3.414-3.282-4.295-5.561a13.2 13.2 0 0 1-.641-7.21c.464-2.418 1.592-4.628 3.238-6.342 1.895-1.972 4.366-3.172 6.989-3.393 2.624-.222 5.237.549 7.393 2.179s3.72 4.02 4.425 6.759a13.17 13.17 0 0 1-.559 8.257c-.15.367-.16.784-.026 1.16s.4.677.741.84.726.173 1.073.029a1.46 1.46 0 0 0 .778-.8 16.4 16.4 0 0 0 1.175-7.347 16.14 16.14 0 0 0-2.179-7.073c-1.255-2.128-2.978-3.887-5.015-5.121a13.36 13.36 0 0 0-6.66-1.951"/>
  <path fill="#000" d="M120.217 33.488A11.3 11.3 0 0 1 116.663 36a1.4 1.4 0 0 0-.462.325 1.5 1.5 0 0 0-.311.492 1.63 1.63 0 0 0-.005 1.168q.107.281.305.496c.132.142.288.254.459.33a1.32 1.32 0 0 0 1.081-.007 14 14 0 0 0 4.434-3.133c.268-.279.423-.662.429-1.064a1.6 1.6 0 0 0-.392-1.08 1.36 1.36 0 0 0-.985-.464 1.35 1.35 0 0 0-.999.425m-2.573-4.817-.693-2.304 1.814-1.424c.384-.302.67-.727.816-1.214a2.6 2.6 0 0 0 0-1.5 2.4 2.4 0 0 0-.816-1.214 2.14 2.14 0 0 0-1.32-.463h-2.243l-.693-2.305a2.43 2.43 0 0 0-.816-1.213 2.14 2.14 0 0 0-1.32-.464c-.475 0-.937.163-1.321.464a2.43 2.43 0 0 0-.816 1.213l-.693 2.305H107.3c-.474 0-.936.162-1.32.463s-.67.726-.816 1.214a2.6 2.6 0 0 0 0 1.5c.146.487.432.912.816 1.214l1.814 1.424-.693 2.304a2.6 2.6 0 0 0-.001 1.501c.146.488.432.913.816 1.215a2.14 2.14 0 0 0 1.321.463c.475 0 .937-.163 1.321-.465l1.814-1.425 1.815 1.425c.384.301.846.463 1.32.463s.937-.162 1.321-.463.669-.726.816-1.214a2.6 2.6 0 0 0 0-1.5m-2.342-4.383c-.384.3-.671.725-.817 1.213a2.6 2.6 0 0 0 .001 1.5l.49 1.63-1.283-1.007a2.13 2.13 0 0 0-1.32-.465c-.475 0-.937.163-1.321.465l-1.283 1.007.49-1.63a2.6 2.6 0 0 0 .001-1.5 2.4 2.4 0 0 0-.817-1.213l-1.283-1.007h1.586a2.13 2.13 0 0 0 1.321-.463c.384-.3.67-.726.816-1.214l.49-1.63.49 1.63c.146.488.431.913.815 1.215.384.3.847.463 1.321.462h1.586z"/>
</svg>