<?xml version="1.0" encoding="utf-8"?>
<svg xmlns="http://www.w3.org/2000/svg" width="133" height="132" fill="none" id="contract-icon-image" class="Contract legal business agreement symbol contract icon">
  <desc>The contract icon represents legally binding documents, ideal for showcasing agreements, terms, and official paperwork.
</desc>
  <title>Contract Icon - Pen and Signed Document</title>
  <mask id="a" width="117" height="132" x="0" y="0" maskUnits="userSpaceOnUse" style="mask-type:luminance">
    <path fill="#fff" d="M0 0h116.881v132H0z"/>
  </mask>
  <g mask="url(#a)">
    <path fill="#231F20" d="m10.013 73.881 2.684-12.79V48.018l-2.684 12.795L.338 106.87q-.004.018-.01.035a6.9 6.9 0 0 0 .028 2.656q.271 1.324 1.013 2.456a6.6 6.6 0 0 0 4.341 2.895l4.303.893 2.687.553v-2.736l-2.687-.557-3.774-.778q-.017-.003-.034-.007a3.9 3.9 0 0 1-1.474-.602 3.8 3.8 0 0 1-1.114-1.134 4.16 4.16 0 0 1-.646-3.144zm97.031-9-1.532 1.228-.858 4.12-.294 1.421v13.199l2.684-12.922.903-4.33.857-4.124zm-10.601 44.841-3.37 16.201c-.65 2.307-2.708 3.694-4.907 3.3l-23.572-4.871-12.964-2.68H38.39l12.963 2.68 36.283 7.499.032.007q.629.114 1.269.114c3.12 0 5.842-2.11 6.738-5.382l.02-.079 4.19-20.148v-.003l.978-4.701-3.442 3.359zM65.282 7.662 29.694.161l-.038-.006c-3.753-.682-7.354 1.726-8.028 5.36l-.45 2.145-.564 2.681h2.747l.56-2.68.339-1.609q.006-.02.007-.035c.401-2.189 2.594-3.635 4.89-3.227L52.28 7.66l12.722 2.681h13.001zm46.068 9.708-4.306-.906-2.684-.567v2.74l2.684.566 3.77.793.038.007a3.93 3.93 0 0 1 2.587 1.736q.955 1.447.644 3.144l-4.41 21.203-.855 4.123 3.293-2.636.854-4.12 3.753-18.044c.004-.007.004-.021.007-.031.685-3.75-1.729-7.337-5.375-8.008"/>
  </g>
  <path fill="#231F20" d="M100.31 7.661H16.748A6.73 6.73 0 0 0 13.006 8.8a6.7 6.7 0 0 0-2.864 4.272 6.7 6.7 0 0 0-.128 1.31v103.251a6.66 6.66 0 0 0 1.134 3.732 6.7 6.7 0 0 0 3.023 2.473q.613.255 1.263.384.649.131 1.314.132h64.155q.546 0 .94-.384l14.6-14.247 3.442-3.359v-.003l6.755-6.593q.405-.392.405-.955v-33.93l-1.533 1.227-1.151.924V98.25l-3.497 3.41-3.442 3.359-17.07 16.654H16.749q-.399-.001-.792-.08a4 4 0 0 1-.758-.228 4.4 4.4 0 0 1-.698-.373 4.1 4.1 0 0 1-1.117-1.114 4 4 0 0 1-.374-.699 4 4 0 0 1-.311-1.546V14.382a4 4 0 0 1 .311-1.546 4.1 4.1 0 0 1 .875-1.307 4.1 4.1 0 0 1 1.315-.876q.368-.155.757-.232a4 4 0 0 1 .792-.079h83.562a4 4 0 0 1 1.55.311q.367.151.699.37c.221.15.425.315.612.505q.283.28.505.613a4.1 4.1 0 0 1 .605 1.452 4 4 0 0 1 .076.789v39.396l2.688-2.151V14.382q.001-.664-.132-1.311a6.7 6.7 0 0 0-4.026-4.894 6.7 6.7 0 0 0-2.577-.516"/>
  <path fill="#231F20" d="M93.842 45.03H23.216a1.34 1.34 0 0 1-.948-.394 1.3 1.3 0 0 1-.294-.435 1.4 1.4 0 0 1-.1-.512v-5.645c0-.176.035-.35.1-.512q.104-.249.294-.436a1.34 1.34 0 0 1 .948-.39h70.626a1.34 1.34 0 0 1 .948.39q.191.187.294.436.1.246.1.512v5.645a1.34 1.34 0 0 1-.83 1.238q-.245.104-.512.104m-69.28-2.68h67.935v-2.964H24.562zm69.28 11.562H23.216a1.34 1.34 0 0 0-.948.39q-.19.188-.294.437-.099.245-.1.512V60.9q.001.264.1.512.105.243.29.436.193.186.437.29.25.1.515.1h70.57l1.377-1.1q.021-.118.021-.238v-5.648q0-.267-.103-.512a1.34 1.34 0 0 0-1.238-.827m-69.28 5.645v-2.964h67.935v2.964zm54.773 14.244 3.352-2.681H23.216c-.176 0-.35.034-.512.104q-.249.104-.436.29-.19.187-.294.436a1.4 1.4 0 0 0-.1.512v5.645q.001.263.1.512a1.37 1.37 0 0 0 .73.726q.246.1.512.1h49.368a75 75 0 0 1 2.435-2.19l.616-.49H24.56V73.8zm13.16 2.722v.242h-.3l-3.352 2.68h4.296l2.044-1.636v-3.438zm-35.854 20.4H23.216a1.34 1.34 0 0 1-.948-.39 1.4 1.4 0 0 1-.294-.437 1.4 1.4 0 0 1-.1-.512v-5.648a1.33 1.33 0 0 1 .394-.948 1.34 1.34 0 0 1 .948-.39h33.426q.269 0 .516.1.244.104.435.29a1.37 1.37 0 0 1 .395.948v5.648q0 .267-.104.512-.104.244-.29.436a1.4 1.4 0 0 1-.436.29q-.247.1-.516.1m-32.08-2.68H55.3v-2.965H24.562zm56.34 30.11q-.269 0-.515-.104a1.35 1.35 0 0 1-.83-1.238V98.809q0-.263.103-.512.105-.244.29-.436a1.34 1.34 0 0 1 .952-.39h24.8q.409 0 .751.228a1.33 1.33 0 0 1 .563 1.383 1.3 1.3 0 0 1-.377.685l-24.8 24.202a1.3 1.3 0 0 1-.937.384m1.342-24.202v19.674l20.162-19.674zM27.799 27.827c1.079 0 1.618-.27 2.424-1.076l1.35 1.345c-1.08 1.076-2.156 1.612-3.505 1.612q-.45-.002-.896-.086a4.4 4.4 0 0 1-.857-.263 4.56 4.56 0 0 1-2.058-1.681 4.7 4.7 0 0 1-.685-1.65 4.5 4.5 0 0 1-.087-.892 4.53 4.53 0 0 1 .772-2.54q.255-.373.57-.691a4.6 4.6 0 0 1 1.488-.99 4.4 4.4 0 0 1 .857-.262q.446-.088.896-.087c1.35 0 2.695.537 3.504 1.612l-1.079 1.346c-.54-.806-1.345-1.076-2.155-1.076s-1.349.27-1.888.806c-.81.54-1.08 1.076-1.08 1.885 0 .806.27 1.342.81 1.878q.81.81 1.619.81m12.13.535q-.375.37-.82.64a4.5 4.5 0 0 1-.94.443q-.5.162-1.018.215-.524.046-1.04-.021a4.8 4.8 0 0 1-1.007-.256 4.7 4.7 0 0 1-.924-.477 4.5 4.5 0 0 1-1.408-1.512 4.55 4.55 0 0 1-.595-1.972q-.031-.524.056-1.037.084-.515.287-.996a4.6 4.6 0 0 1 1.207-1.674 4.6 4.6 0 0 1 1.823-.968 4.7 4.7 0 0 1 1.03-.15q.526-.016 1.035.087a4.55 4.55 0 0 1 2.628 1.574q.332.405.564.871a4.5 4.5 0 0 1 .467 2.01c.004 1.342-.27 2.418-1.345 3.223m-.54-3.223c0-.81-.27-1.346-.81-1.885-.539-.54-1.078-.806-1.884-.806s-1.35.27-1.889.806c-.536.536-.81 1.075-.81 1.885 0 .806.27 1.342.81 1.881.543.537 1.08.806 1.889.806s1.345-.27 1.885-.806c.54-.27.81-1.075.81-1.881m9.705-4.036h1.885v8.605h-1.885l-4.043-5.378v5.378h-1.889v-8.605h1.619l4.313 5.648zm7.547 1.615v6.99h-1.888v-6.99h-2.425v-1.616h6.738v1.616zm10.781 1.076c0 1.345-.54 2.15-1.618 2.687l2.158 2.957h-2.425l-1.888-2.687H62.3v2.687h-1.888v-8.332h3.238c1.345 0 2.428.266 2.964.802.54.27.81.81.81 1.886m-2.155 1.075c.27-.27.27-.536.27-1.075 0-.537 0-.81-.27-1.076-.27-.27-.54-.27-1.349-.27h-1.345v2.421h1.345c.54.27 1.076.27 1.35 0m10.24 4.839-.81-1.881h-3.504l-.806 1.881h-2.162l3.778-8.605h1.888l3.774 8.605zm-2.425-6.184-1.08 2.42h2.155zm9.433 4.303c1.08 0 1.619-.27 2.428-1.076l1.346 1.345c-1.076 1.076-2.155 1.612-3.504 1.612a5 5 0 0 1-.892-.086 4.7 4.7 0 0 1-1.653-.685 4.5 4.5 0 0 1-1.262-1.259 4.7 4.7 0 0 1-.427-.792 4.6 4.6 0 0 1-.349-1.75q0-.447.09-.89.088-.44.26-.857a4.6 4.6 0 0 1 1.687-2.051 4.7 4.7 0 0 1 1.654-.685q.44-.088.892-.087c1.349 0 2.698.537 3.504 1.612l-1.076 1.346c-.54-.806-1.349-1.076-2.158-1.076-.81 0-1.35.27-1.889.806-.536.536-.806 1.076-.806 1.885 0 .806.27 1.342.806 1.878 0 .54.81.81 1.35.81m8.895-5.109v6.99h-1.889v-6.99h-2.424v-1.616h6.74v1.616zM22.68 114.945a.6.6 0 0 1-.374-.166.57.57 0 0 1-.166-.371c0-.269 0-.805.266-.805 1.889-.81 3.237-2.425 3.777-3.767l-2.158-1.612c-.54-.536-1.08-.806-1.619-1.615-.806-1.346-.536-3.494.81-4.303 1.348-1.072 3.507-.806 4.582.54 1.08 1.075 1.35 2.687.54 5.108-.27.536-.27 1.076-.54 1.612.54.27 1.35.54 1.619.54.266-.27.81-.54 1.076-1.076.54-.54 1.079-1.342 1.888-1.342.27 0 .54 0 .54.266q.239.22.27.536v.54l.54.536c.535 0 1.078 0 1.618-.536.266-.27.536-.27.536 0 .27 0 .27.27.54.536.27.54 1.079 1.076 1.885.809.81 0 1.888-.809 2.428-1.345q.405-.405.81 0 .637.65 1.476 1.003a4.5 4.5 0 0 0 1.757.342c.27 0 .81.267.81.537 0 .269-.274.805-.54.805-1.349 0-2.698-.269-3.774-1.342-.809.537-1.618 1.073-2.697 1.073-1.076.269-2.155-.27-2.965-1.073-.806.267-1.349.537-2.155.267-.54 0-1.079-.536-1.618-1.076v-.266l-.54.536c-.536.539-.81 1.076-1.619 1.342-1.075.27-1.885 0-2.694-.536-.806 2.151-2.425 3.766-4.31 4.303m2.694-12.099c-.54 0-.81 0-1.08.269-.809.536-1.079 1.882-.54 2.688.27.539.81.806 1.346 1.076l1.889 1.345c.273-.536.273-.806.273-1.076.536-1.885.267-2.957-.273-3.766-.54-.267-1.08-.536-1.615-.536"/>
  <mask id="b" width="72" height="61" x="61" y="36" maskUnits="userSpaceOnUse" style="mask-type:luminance">
    <path fill="#fff" d="M61.982 36.304h70.571v60.212h-70.57z"/>
  </mask>
  <g mask="url(#b)">
    <path fill="#231F20" d="m75.044 73.802-1.723 1.38-.031.024a68 68 0 0 0-1.76 1.56h4.105l3.701-2.964zm55.698-34.444c-1.249-1.556-3.169-2.594-5.268-2.846-2.117-.253-4.227.318-5.787 1.563l-2.75 2.2-3.971 3.179-1.864 1.494-1.425 1.138-2.632 2.106-2.684 2.148-9.177 7.343-5.69 4.556-11.102 8.882-3.348 2.68-1.723 1.38-.031.025a68 68 0 0 0-1.76 1.56 93 93 0 0 0-2.806 2.68c-2.168 2.155-4.268 4.41-6.326 6.624a1.33 1.33 0 0 0-.36.872 1.36 1.36 0 0 0 .305.889l6.198 7.53q.314.379.792.466.482.09.906-.148c4.732-2.657 9.042-5.403 12.805-8.156q.023-.014.045-.035l10.048-8.042 2.047-1.64 9.173-7.339.298-.238 2.39-1.913.903-.72 12.791-10.238.605-.487 2.096-1.675.581-.466 2.096-1.678.605-.48 2.729-2.19c1.564-1.245 2.601-3.162 2.857-5.254.253-2.114-.318-4.213-1.566-5.77m-1.104 5.448c-.169 1.404-.847 2.674-1.864 3.487l-2.504 1.999-.82.66-1.273 1.017-2.217 1.775-1.294 1.034-.802.643-10.059 8.053-1.76 1.407-1.532 1.228-1.152.924-9.177 7.343-2.687 2.148-.3.242-3.353 2.68-7.412 5.936A123 123 0 0 1 69.9 92.787l-4.735-5.752c2.408-2.58 4.874-5.198 7.423-7.589a68 68 0 0 1 2.435-2.189l.612-.491 3.701-2.964 3.352-2.681 11.1-8.882 1.376-1.1 9.197-7.36 2.684-2.152 1.774-1.418 3.293-2.636.374-.3 2.099-1.678 2.093-1.678 2.096-1.674 2.594-2.075c1-.8 2.38-1.162 3.784-.996 1.408.17 2.677.847 3.49 1.86.802 1 1.166 2.373.996 3.774M75.044 73.802l-1.723 1.38-.031.024a68 68 0 0 0-1.76 1.56h4.105l3.701-2.964z"/>
  </g>
  <path fill="#231F20" d="M52.858 103.451a1.66 1.66 0 0 1-.903-.253 1.68 1.68 0 0 1-.799-1.612q.045-.483.346-.868c3.403-5.645 7.253-10.757 11.438-15.195q.197-.208.467-.318a1.3 1.3 0 0 1 .554-.1q.29.01.55.135.26.127.442.35l6.472 7.795q.188.229.263.516a1.32 1.32 0 0 1-.201 1.114 1.34 1.34 0 0 1-.432.39c-5.116 2.916-10.65 5.42-17.405 7.873a1.9 1.9 0 0 1-.792.173m11.006-14.974a86.4 86.4 0 0 0-8.65 11.356c4.918-1.882 9.165-3.819 13.112-5.977z"/>
  <path fill="#231F20" d="M52.858 103.451a1.66 1.66 0 0 1-.903-.253 1.68 1.68 0 0 1-.799-1.612q.045-.483.346-.868c3.403-5.645 7.253-10.757 11.438-15.195q.197-.208.467-.318a1.3 1.3 0 0 1 .554-.1q.29.01.55.135.26.127.442.35l6.472 7.795q.188.229.263.516a1.32 1.32 0 0 1-.201 1.114 1.34 1.34 0 0 1-.432.39c-5.116 2.916-10.65 5.42-17.405 7.873a1.9 1.9 0 0 1-.792.173m11.006-14.974a86.4 86.4 0 0 0-8.65 11.356c4.918-1.882 9.165-3.819 13.112-5.977zM87.1 84.019q-.052.001-.11-.004a1.32 1.32 0 0 1-.93-.487L77.703 73.31a1.3 1.3 0 0 1-.246-.47 1.3 1.3 0 0 1-.048-.53q.031-.265.162-.504.134-.234.35-.401l2.424-1.886q.208-.162.468-.231.254-.074.518-.038.266.03.498.159.231.13.395.339l8.087 10.217a1.336 1.336 0 0 1-.17 1.84l-2.155 1.882a1.3 1.3 0 0 1-.885.332m39.323-32.295-1.155-1.429-6.496-8.052-1.245-1.546a1.34 1.34 0 0 0-.592-.422l-3.97 3.179-1.865 1.494q-.036.508.281.913l1.103 1.411 6.378 8.15 1.145 1.462q.282.364.73.474l.605-.484 2.096-1.678.581-.463 2.096-1.678.606-.484q.002-.478-.298-.847m-5.143 2.435-.322-.415-6.375-8.15-.3-.38 2.026-1.753.367.456 6.499 8.052.318.395z"/>
  <path fill="#231F20" d="M128.112 55.584a.5.5 0 0 0-.062-.087l-1.934-2.442-1.667-2.103-4.783 3.826 1.681 2.096.256.318-16.16 12.846a2.7 2.7 0 0 0-.83.907 2.7 2.7 0 0 0-.36 1.414c.007.699.207 1.342.598 1.92.114.176.242.335.395.48q.223.219.494.374.275.157.574.246a2.6 2.6 0 0 0 1.232.055q.306-.061.591-.19.285-.134.529-.325.244-.198.436-.443l18.426-14.648c1.31-.92 1.57-2.767.584-4.244m-2.131 2.05a1 1 0 0 0-.09.067L107.29 72.487a1.3 1.3 0 0 0-.239.246.73.73 0 0 1-.111-.405c.004-.07.021-.08.045-.097q.048-.031.094-.069l17.249-13.71a1.35 1.35 0 0 0 .498-.9 1.3 1.3 0 0 0-.045-.522 1.3 1.3 0 0 0-.242-.464l-1.096-1.37-1.297-1.618.591-.47 1.283 1.622 1.882 2.376c.135.228.159.474.079.529"/>
</svg>