<?xml version="1.0" encoding="utf-8"?>
<svg xmlns="http://www.w3.org/2000/svg" width="108" height="132" fill="none" id="letterhead-icon-image" class="Letterhead official document business stationery symbol design icon">
  <desc>The letterhead icon represents official business documents featuring headers and logos, ideal for corporate branding.
</desc>
  <title>Letterhead Icon - Document with Header Design</title>
  <path fill="#000" d="M107.978 6.908a6.83 6.83 0 0 0-2.047-4.876A7.1 7.1 0 0 0 100.97 0H7.04a7.1 7.1 0 0 0-4.978 2.023A6.84 6.84 0 0 0 0 6.908v118.184a6.8 6.8 0 0 0 .533 2.645 6.9 6.9 0 0 0 1.526 2.243 7 7 0 0 0 2.286 1.497A7.2 7.2 0 0 0 7.04 132h60.444L108 93.784V6.887zm-92.976 6.167h18.286a2.1 2.1 0 0 1 1.46.598c.388.38.607.895.61 1.433v16.406a2.03 2.03 0 0 1-.613 1.43c-.387.38-.91.595-1.457.6H15.002a2.1 2.1 0 0 1-1.458-.6 2.03 2.03 0 0 1-.612-1.43V15.106a2 2 0 0 1 .606-1.436 2.08 2.08 0 0 1 1.463-.595m78.314.44c1.763 0 1.796 2.956 0 2.956H43.012c-1.807 0-1.763-2.955 0-2.955zM74.143 33.103c1.763 0 1.806-2.954 0-2.954H43.012c-1.807 0-1.763 2.954 0 2.954zm-31.131-11.27c-1.763 0-1.796 2.954 0 2.954H84.83c1.806 0 1.774-2.954 0-2.954zm60.4-17.33v87.09H69.938a4 4 0 0 0-2.795 1.136 3.84 3.84 0 0 0-1.158 2.743v31.683H4.588V4.502z"/>
</svg>