<?xml version="1.0" encoding="utf-8"?>
<svg xmlns="http://www.w3.org/2000/svg" width="113" height="132" fill="none" id="reports-icon-image" class="Reports analytics data insights symbol reports icon">
  <desc>The reports icon represents data analytics and insights in a visual format, ideal for dashboards and reporting tools.</desc>
  <title>Reports Icon - Document with Bar Graph Design</title>
  <path fill="#000" fill-rule="evenodd" d="M63.3 123.604v5.389H6.766c-3.687 0-6.767-3.228-6.767-7.108V7.111C0 3.22 3.065 0 6.767 0h87.311c3.688 0 6.768 3.228 6.768 7.11v64.553h-5.135V49.859H5.453l-.225-.01v72.853c0 .546.434 1 .953 1zm-2.159-10.749v3.231c0 .175-.11.291-.272.291H12.453c-.164 0-.274-.116-.274-.291v-3.231c0-.172.11-.288.274-.288H60.87c.164 0 .272.116.272.288m-4.668-9.504v3.229c0 .177-.11.293-.275.293H12.453c-.164 0-.274-.116-.274-.293v-3.229c0-.175.11-.291.274-.291h43.745c.167 0 .275.119.275.291m-4.669-9.506v3.23c0 .176-.11.292-.272.292H12.453c-.164 0-.274-.116-.274-.291v-3.231c0-.175.11-.289.274-.289h39.08c.163 0 .271.116.271.289m25.599-14.216h31.98c1.601 0 2.916 1.37 2.916 3.053v46.255c0 1.682-1.315 3.063-2.916 3.063h-31.98c-1.602 0-2.916-1.373-2.916-3.055V82.692c0-1.682 1.315-3.063 2.916-3.063m25.23 8.924h.937v5.307h-.937zm-21.275 12.469h4.59c.394 0 .718.343.718.755v4.231c0 .2-.076.391-.211.533a.7.7 0 0 1-.507.221h-4.59c-.393 0-.716-.34-.716-.754v-4.231c0-.412.323-.755.716-.755m0 19.683h4.59c.394 0 .718.343.718.753v4.235c0 .412-.324.752-.718.752h-4.59c-.393 0-.716-.34-.716-.752v-4.235c0-.41.323-.753.716-.753m0-9.841h4.59c.394 0 .718.343.718.755v4.233c0 .412-.324.752-.718.752h-4.59c-.393 0-.716-.34-.716-.752v-4.233c0-.412.323-.755.716-.755m19.485-9.842h4.593c.392 0 .708.343.708.755v4.231c0 .414-.323.754-.708.754h-4.593c-.392 0-.716-.34-.716-.754v-4.231c0-.412.316-.755.716-.755m0 19.683h4.593c.392 0 .708.343.708.753v4.235c0 .412-.323.752-.708.752h-4.593c-.392 0-.716-.34-.716-.752v-4.235c0-.41.316-.753.716-.753m0-9.841h4.593c.392 0 .708.343.708.755v4.233c0 .412-.323.752-.708.752h-4.593c-.392 0-.716-.34-.716-.752v-4.233c0-.412.316-.755.716-.755m-9.746-9.842h4.59c.394 0 .718.343.718.755v4.231c0 .2-.076.391-.211.533a.7.7 0 0 1-.507.221h-4.59c-.393 0-.716-.34-.716-.754v-4.231c0-.412.323-.755.716-.755m0 19.683h4.59c.394 0 .718.343.718.753v4.235c0 .412-.324.752-.718.752h-4.59c-.393 0-.716-.34-.716-.752v-4.235c0-.41.323-.753.716-.753m0-9.841h4.59c.394 0 .718.343.718.755v4.233c0 .412-.324.752-.718.752h-4.59c-.393 0-.716-.34-.716-.752v-4.233c0-.412.323-.755.716-.755m-10.343-25.46h25.277c.785 0 1.435.684 1.435 1.508v8.584c0 .825-.65 1.507-1.435 1.507H80.754c-.784 0-1.434-.685-1.434-1.507v-8.584c0-.825.65-1.507 1.434-1.507m25.089 1.706h-24.9v8.188h24.9zm3.54-5.338h-31.98c-.486 0-.886.407-.886.92v46.253c0 .507.393.919.878.919h31.981c.483 0 .875-.412.875-.919V82.692c0-.505-.385-.92-.868-.92m-26.65-20.987v3.198c0 .175-.108.288-.27.288h-31.6c-.164 0-.272-.113-.272-.288v-3.197c0-.176.108-.289.272-.289h31.6c.162 0 .27.113.27.288m-14.295 9.002v3.203c0 .17-.108.283-.274.283H50.919c-.164 0-.274-.113-.274-.283v-3.203c0-.172.11-.286.274-.286h17.245c.11 0 .274.114.274.286m-40.58 2.388 10.618.201c0 4.123-1.874 7.907-4.997 10.205zm-.71-16.9v-.879l.814.07c.998.064 1.996.268 2.935.54.936.269 1.812.676 2.685 1.147 5.12 2.894 7.199 7.742 7.62 13.72l-13.966-.405zm1.625 12.572 10.806.338c-.439-4.596-3.062-8.582-6.686-10.68a13 13 0 0 0-3.597-1.318 7 7 0 0 0-.648-.1zm1.582 14.487c-1.873 1.146-3.935 1.76-6.059 1.76-6.684 0-12.117-5.882-12.117-13.12 0-7.027 5.122-12.84 11.617-13.11l.5 13.11zM95.71 44.735V6.492c0-.543-.429-1.002-.949-1.002H6.182c-.54 0-.954.443-.954 1.002v38.253l.225-.01zM32.66 16.331h6.08c.231 0 .383.16.383.402v22.309c0 .242-.152.401-.383.401h-6.08c-.23 0-.383-.16-.383-.401v-22.31c0-.242.152-.402.383-.402m15.41 8.479h6.08c.231 0 .383.16.383.402v13.75c0 .242-.152.401-.382.401h-6.08c-.231 0-.383-.16-.383-.401v-13.75c0-.16.152-.402.382-.402m30.823 0h6.081c.23 0 .383.16.383.402v13.75c0 .242-.152.401-.383.401h-6.08c-.231 0-.383-.16-.383-.401v-13.75c0-.16.152-.402.382-.402M63.48 16.33h6.079c.233 0 .385.16.385.402v22.309c0 .242-.152.401-.385.401H63.48c-.233 0-.385-.16-.385-.401V16.732c0-.242.152-.402.385-.402m-46.23 3.066h6.078c.23 0 .382.16.382.407v19.238c0 .242-.152.401-.382.401h-6.079c-.23 0-.382-.16-.382-.401V19.804c-.079-.247.152-.407.382-.407" clip-rule="evenodd"/>
</svg>