<?xml version="1.0" encoding="utf-8"?>
<svg xmlns="http://www.w3.org/2000/svg" width="112" height="132" fill="none" id="agreement-icon-image" class="Agreement legal handshake symbol document icon">
  <desc>The agreement icon signifies legal or business agreements, perfect for contract-based services and legal branding.</desc>
  <title>Agreement Icon - Handshake and Document Design</title>
  <path fill="#100F0D" d="M77.58 92.114c-.82.375-1.579.365-2.422.072-3.144-1.092-6.305-2.135-9.46-3.19a4.2 4.2 0 0 0-1.526-.234c-.353.014-.604.266-.692.569a368 368 0 0 0 7.906 6.003c1.442 1.072 2.23 2.484 2.22 3.975-.013 1.485-.818 2.869-2.262 3.903-.912.654-1.981 1.023-3.272 1.129l-.2.018-.192-.031c-.095-.018-.19-.031-.282-.049-.62-.096-1.32-.206-2.052-.533a919 919 0 0 0-4.21-1.871 554 554 0 0 1-7.453-3.334c-.225-.103-.326-.114-.352-.114-.05 0-.18.066-.396.245-5.897 4.956-11.914 9.968-17.732 14.821l-4.148 3.455c-.363.3-.716.596-1.108.803-.451.967-.33 2.056.386 3.017.993 1.336 2.621 1.591 3.935.52 3.311-2.69 6.596-5.428 9.89-8.15 2.763-2.28 5.518-4.57 8.287-6.844.379-.306.817-.912 1.3-.265.52.693-.156 1.009-.562 1.35-5.014 4.151-10.034 8.291-15.042 12.442-1.513 1.253-1.755 3.044-.624 4.429 1.043 1.271 2.618 1.436 3.971.338 2.576-2.088 5.122-4.213 7.685-6.328l7.37-6.096c.23-.183.458-.379.71-.524.314-.186.618-.162.853.172.245.348.134.644-.147.886a258 258 0 0 1-2.785 2.359 5833 5833 0 0 1-9.94 8.253c-.935.778-1.402 1.767-1.147 3.031.235 1.164.945 1.905 2 2.27.902.317 1.733.089 2.455-.5.693-.571 5.449-4.97 5.77-5.242a4 4 0 0 1-.007-.496c.039-2.256 1.542-4.154 3.673-4.616a4 4 0 0 1 .857-.093c.565 0 1.114.121 1.624.341.337-1.887 1.723-3.416 3.53-3.771a4.28 4.28 0 0 1 3.664.94 4.66 4.66 0 0 1 2.753-2.294 4.2 4.2 0 0 1 1.212-.182 4.4 4.4 0 0 1 2.766 1.009 4.8 4.8 0 0 1 2.248-2.05 4.5 4.5 0 0 1 1.83-.385c1.93 0 3.658 1.212 4.397 3.086l.101.258c2.684-1.612 8.574-5.239 8.574-5.239l-9.98-18.84s-2.918 1.08-3.974 1.577"/>
  <path fill="#100F0D" d="M51.903 97.304c.81-.682 1.484-.809 2.448-.365 3.864 1.774 7.763 3.458 11.646 5.194.634.286 1.3.355 1.942.462.902-.072 1.732-.3 2.47-.83 2.047-1.467 2.034-3.503.02-5.001-2.736-2.033-5.465-4.079-8.145-6.19-1.102-.864-2.246-1.543-3.556-1.974-2.828-.916-5.639-1.89-8.45-2.869-.846-.29-1.611-.227-2.412.186-3.961 2.043-7.946 4.034-11.9 6.08-.815.423-1.475.354-2.377.113-1.229-.327-3.638-1.498-3.638-1.498l-10.142 19.034s5.291 4.05 7.798 5.959c1.213.919 1.275.923 2.416-.028 7.299-6.086 14.604-12.162 21.88-18.273"/>
  <mask id="a" width="10" height="14" x="55" y="118" maskUnits="userSpaceOnUse" style="mask-type:luminance">
    <path fill="#fff" d="M55.701 118.928h8.368V132H55.7z"/>
  </mask>
  <g mask="url(#a)">
    <path fill="#100F0D" d="M61.505 121.484c-.52-1.481-1.886-2.297-3.187-2.015-1.37.3-2.346 1.516-2.353 2.98-.03.368.072.761.2 1.147.607 1.853 1.202 3.713 1.83 5.555.634 1.871 2.196 2.711 3.791 2.077 1.556-.613 2.18-2.232 1.576-4.092-.615-1.884-1.196-3.785-1.857-5.652"/>
  </g>
  <path fill="#100F0D" d="M67.526 117.895c-.507-1.453-1.84-2.222-3.23-1.946-1.287.258-2.238 1.478-2.255 2.907-.006.486.102.937.252 1.392.601 1.822 1.183 3.651 1.794 5.469.579 1.733 2.105 2.546 3.684 1.998 1.478-.506 2.236-2.194 1.706-3.875a237 237 0 0 0-1.951-5.945m6.641-1.698c-.53-1.347-2.03-2.032-3.285-1.64-1.425.448-2.324 1.833-2.026 3.369.31 1.591.843 3.134 1.507 4.602.467 1.026 1.34 1.522 2.441 1.522 1.857.004 3.242-1.746 2.762-3.641-.37-1.432-.86-2.838-1.399-4.212"/>
  <mask id="b" width="7" height="9" x="51" y="123" maskUnits="userSpaceOnUse" style="mask-type:luminance">
    <path fill="#fff" d="M51.518 123.337h5.857V132h-5.857z"/>
  </mask>
  <g mask="url(#b)">
    <path fill="#100F0D" d="M55.376 124.212c-1.059.906-2.023 1.64-2.886 2.491-1.056 1.04-1.101 2.679-.212 3.871.78 1.058 2.562 1.406 3.674.72 1.412-.864 1.467-1.006.934-2.614-.474-1.43-.964-2.849-1.51-4.468"/>
  </g>
  <path fill="#100F0D" d="M81.326 115.029c-.657-1.663-2.474-2.452-4.056-1.756-1.579.692-2.327 2.604-1.67 4.271l.617 1.56c.657 1.667 2.471 2.456 4.053 1.76 1.582-.699 2.33-2.611 1.674-4.274zm-73.71-14.146c-1.83 0-3.317-1.567-3.317-3.503 0-1.932 1.487-3.5 3.317-3.5 1.834 0 3.321 1.568 3.321 3.5 0 1.936-1.487 3.503-3.32 3.503m19.148-16.67-12.058-7.041c-1.648-.961-3.72-.334-4.632 1.402L.425 96.922c-.908 1.736-.313 3.92 1.33 4.877l12.062 7.044c1.644.961 3.72.331 4.631-1.402l9.646-18.348c.909-1.736.314-3.92-1.33-4.88m77.161 16.67c-1.83 0-3.318-1.567-3.318-3.503 0-1.932 1.488-3.5 3.318-3.5 1.837 0 3.324 1.568 3.324 3.5 0 1.936-1.487 3.503-3.324 3.503m7.191-3.96-9.642-18.35c-.916-1.735-2.988-2.362-4.632-1.401l-12.058 7.04c-1.647.961-2.242 3.145-1.33 4.881l9.645 18.348c.91 1.733 2.985 2.363 4.629 1.402l12.061-7.044c1.647-.957 2.242-3.14 1.327-4.877M36.987 17.928h37.658c.408 0 .735-.344.735-.775v-4.16c0-.424-.327-.772-.735-.772H36.987c-.405 0-.735.348-.735.771v4.161c0 .43.33.775.735.775m-.735 11.277c0 .427.33.775.735.775h37.658c.408 0 .735-.348.735-.775v-4.157c0-.43-.327-.775-.735-.775H36.987c-.405 0-.735.344-.735.775zm38.393 12.831c.409 0 .736-.348.736-.776V37.1c0-.427-.327-.775-.736-.775H36.991c-.405 0-.735.348-.735.775v3.386l.951 1.55zm.735 11.277v-4.158c0-.43-.326-.778-.735-.778H41.073l3.458 5.71h30.114c.409 0 .735-.347.735-.775m-43.678 4.854 7.96-5.398-22.717-37.213-7.963 5.4z"/>
  <mask id="c" width="63" height="79" x="24" y="0" maskUnits="userSpaceOnUse" style="mask-type:luminance">
    <path fill="#fff" d="M24.741 0h61.92v78.367h-61.92z"/>
  </mask>
  <g mask="url(#c)">
    <path fill="#100F0D" d="M30.644 5.353h50.342v67.655H30.644v-9.872l-.919-1.502-1.912-3.127-2.246-3.686v19.775c0 2.076 1.599 3.764 3.566 3.764h53.363c1.968 0 3.573-1.687 3.573-3.764V3.764C86.069 1.688 84.464 0 82.496 0H29.133c-1.967 0-3.566 1.688-3.566 3.765v19.213l5.076 8.311z"/>
  </g>
  <path fill="#100F0D" d="M43.33 68.985c.424.378 1.013-.014.862-.583L40.424 54.27l-7.74 5.25zM13.732 36.93c.258.421.761.562 1.13.31.363-.247.455-.788.197-1.208L3.67 17.38c-.111-.186-.072-.42.088-.53l1.922-1.299L8 19.344l7.959-5.394-5.116-8.384c-.245-.403-.732-.537-1.088-.3l-6.678 4.53c-.356.24-.441.765-.193 1.17l1.87 3.063-2.563 1.736c-.539.369-.67 1.164-.294 1.78zm47.986 27.804c-.088.744-.232 1.99-.477 2.198-.157-.028-.713-.53-1.04-.83-.94-.855-2.226-2.019-4.013-1.847-1.21.12-1.916.786-2.485 1.323-.431.406-.774.727-1.317.864-1.65.428-3.742-1.274-5.207-2.776l-1.438 1.557c2.71 2.783 5.044 3.875 7.136 3.338 1.045-.272 1.686-.875 2.2-1.36.506-.476.797-.727 1.303-.78.919-.078 1.67.6 2.471 1.33.703.638 1.485 1.35 2.416 1.35q.305.001.618-.106c1.474-.493 1.683-2.273 1.883-4 .156-1.325.326-2.83 1.03-3.302.45-.307 1.963-.669 6.31 2.535l1.19-1.781c-4.066-2.997-6.805-3.816-8.619-2.59-1.516 1.03-1.765 3.162-1.96 4.877"/>
</svg>