<?xml version="1.0" encoding="utf-8"?>
<svg width="40" height="40" viewBox="0 0 40 40" fill="none" xmlns="http://www.w3.org/2000/svg" id="call-icon-image" class="Call phone communication symbol icon logo">
  <desc>A call icon representing direct communication through phone calls.</desc>
  <title>Call Icon - Phone Handset Design</title>
  <path d="M20 0C8.97167 0 0 8.97167 0 20C0 31.0283 8.97167 40 20 40C31.0283 40 40 31.0283 40 20C40 8.97167 31.0283 0 20 0ZM29.4417 27.645L28.5717 28.645C27.6533 29.565 26.4433 30 25.2383 30C19.0483 30 10 21.4283 10 14.7617C10 13.5567 10.435 12.3467 11.355 11.4283L12.355 10.5583C13.0983 9.815 14.305 9.815 15.0483 10.5583L16.715 12.7283C17.4583 13.4717 17.4583 14.6783 16.715 15.4217L15.2967 17.2033C16.7983 20.9433 19.345 23.3867 22.7967 24.7033L24.5783 23.285C25.3217 22.5417 26.5283 22.5417 27.2717 23.285L29.4417 24.9517C30.185 25.695 30.185 26.9017 29.4417 27.645Z" fill="#D8A25E"/>
</svg>