<?xml version="1.0" encoding="utf-8"?>
<svg width="40" height="40" viewBox="0 0 40 40" fill="none" xmlns="http://www.w3.org/2000/svg" id="mail-icon-image" class="Mail email message symbol icon logo">
  <desc>A mail icon highlighting email tools, messaging, and correspondence.
</desc>
  <title>Envelope Design</title>
  <path d="M18.3683 17.6517L14.05 13.3333L25.99 13.3233L21.6617 17.6517C20.7833 18.53 19.2483 18.53 18.3683 17.6517ZM40 20C40 31.0283 31.0283 40 20 40C8.97167 40 0 31.0283 0 20C0 8.97167 8.97167 0 20 0C31.0283 0 40 8.97167 40 20ZM31.655 14.9883C31.655 14.225 31.47 13.51 31.1633 12.8617L31.1783 12.8467L31.125 12.7933C30.6367 11.805 29.8383 11.005 28.85 10.5183L28.8217 10.49L28.8133 10.4983C28.1567 10.1817 27.43 9.98833 26.6533 9.98833L13.3333 10C12.57 10 11.855 10.185 11.2083 10.4917L11.2 10.4967C9.51167 11.3 8.33333 13.01 8.33333 15V28.3333L31.655 28.32V14.9867V14.9883ZM20.015 21.6667C18.5033 21.6667 17.08 21.0767 16.0117 20.0083L11.6683 15.6633V24.9983L28.3233 24.9883V15.7017L24.0183 20.0067C22.95 21.0767 21.5283 21.665 20.0167 21.665L20.015 21.6667Z" fill="#D8A25E"/>
</svg>