<?xml version="1.0" encoding="utf-8"?>
<svg width="129" height="135" viewBox="0 0 129 135" fill="none" xmlns="http://www.w3.org/2000/svg" id="brochure-digital-design" role="contentinfo" class="brochure professional digital marketing brand creative collateral design brochures materials identity">
  <desc> Custom-designed brochure showcasing Maroon Digital Rise's branding services        Enhance your brand's presence with custom brochure design services by Maroon Digital Rise. Our team specializes in creating visually captivating and strategically designed brochures tailored to your business needs.</desc>
  <title>Professional Brochure Design Services by Maroon Digital Rise</title>
  <mask id="mask0_297_1020" style="mask-type:luminance" maskUnits="userSpaceOnUse" x="0" y="0" width="129" height="135">
    <path d="M0 0H128.239V135H0V0Z" fill="white"/>
  </mask>
  <g mask="url(#mask0_297_1020)">
    <path d="M127.815 0.323849C127.552 0.105732 127.209 0.0494439 126.903 0.16202L89.3615 14.1496L51.8204 0.16202C51.7143 0.12684 51.6081 0.105732 51.5019 0.105732H1.01817C0.45599 0.105732 0 0.612326 0 1.24557V119.711C0 120.344 0.45599 120.858 1.01817 120.858H51.3332L89.043 134.902C89.1429 134.937 89.2554 134.958 89.3615 134.958C89.4677 134.958 89.5739 134.937 89.6801 134.902L127.54 120.794C127.958 120.64 128.239 120.203 128.239 119.711V1.24557C128.239 0.879693 128.083 0.534929 127.815 0.323849ZM50.4837 91.0814C46.5734 96.2177 42.6757 98.828 38.8778 98.828C34.1493 98.828 30.6638 94.8808 26.9784 90.7014C23.1618 86.3743 19.214 81.8994 13.636 81.8994C9.75069 81.8994 5.85291 84.1298 2.03634 88.5343V2.39244H50.4837V91.0814ZM59.3661 21.5726C59.5473 20.9745 60.122 20.6509 60.6529 20.8479L80.8476 28.3694C81.3786 28.5664 81.6659 29.2137 81.491 29.8118C81.3536 30.2902 80.9538 30.5928 80.5291 30.5928C80.4166 30.5928 80.3105 30.5787 80.2043 30.5365L60.0158 23.015C59.4786 22.818 59.1912 22.1707 59.3661 21.5726ZM59.3661 32.8584C59.5473 32.2533 60.122 31.9296 60.6529 32.1266L80.8476 39.6552C81.3786 39.8522 81.6659 40.4995 81.491 41.0975C81.3536 41.576 80.9538 41.8785 80.5291 41.8785C80.4166 41.8785 80.3105 41.8574 80.2043 41.8223L60.0158 34.3008C59.4786 34.1038 59.1912 33.4494 59.3661 32.8584ZM88.3434 132.235L52.5201 118.888V68.6576C57.8732 68.334 61.5462 64.0631 65.0941 59.9259C68.6234 55.8239 71.9527 51.9471 76.7812 51.7501C81.7097 51.546 84.9578 55.3666 88.3434 59.5108V132.235ZM118.707 101.051L98.5126 108.573C98.4064 108.615 98.3002 108.636 98.194 108.636C97.7692 108.636 97.3695 108.334 97.2258 107.848C97.0509 107.25 97.3382 106.603 97.8754 106.406L118.064 98.8843C118.601 98.6873 119.176 99.011 119.357 99.609C119.532 100.207 119.245 100.854 118.707 101.051ZM118.707 89.7727L98.5126 97.2942C98.4064 97.3294 98.3002 97.3505 98.194 97.3505C97.7692 97.3505 97.3695 97.0479 97.2258 96.5695C97.0509 95.9714 97.3382 95.3241 97.8754 95.1201L118.064 87.6056C118.601 87.4016 119.176 87.7252 119.357 88.3233C119.532 88.9284 119.245 89.5686 118.707 89.7727ZM118.707 78.4869L98.5126 86.0084C98.4064 86.0506 98.3002 86.0717 98.194 86.0717C97.7692 86.0717 97.3695 85.7622 97.2258 85.2837C97.0509 84.6856 97.3382 84.0383 97.8754 83.8413L118.064 76.3198C118.601 76.1228 119.176 76.4465 119.357 77.0445C119.532 77.6426 119.245 78.2899 118.707 78.4869ZM126.203 49.4774C120.844 49.8081 117.177 54.072 113.623 58.2091C110.1 62.3182 106.764 66.195 101.942 66.392C97.0072 66.589 93.7653 62.7685 90.3797 58.6172V16.176L126.203 2.82867V49.4774Z" fill="black"/>
  </g>
  <path d="M98.1952 30.5926C98.3013 30.5926 98.4075 30.5785 98.5137 30.5363L118.708 23.0148C119.246 22.8178 119.533 22.1705 119.358 21.5724C119.177 20.9744 118.602 20.6507 118.065 20.8477L97.8766 28.3692C97.3394 28.5662 97.0521 29.2136 97.227 29.8116C97.3706 30.2901 97.7704 30.5926 98.1952 30.5926Z" fill="black"/>
  <path d="M98.1952 41.879C98.3013 41.879 98.4075 41.8578 98.5137 41.8227L118.708 34.3012C119.246 34.1042 119.533 33.4498 119.358 32.8517C119.177 32.2537 118.602 31.93 118.065 32.127L97.8766 39.6556C97.3394 39.8526 97.0521 40.4999 97.227 41.098C97.3706 41.5764 97.7704 41.879 98.1952 41.879Z" fill="black"/>
  <path d="M80.8471 83.8414L60.6524 76.3199C60.1214 76.1229 59.5468 76.4466 59.3656 77.0446C59.1907 77.6427 59.4781 78.29 60.0153 78.487L80.2037 86.0085C80.3099 86.0507 80.4161 86.0718 80.5286 86.0718C80.9533 86.0718 81.3531 85.7693 81.4905 85.2838C81.6654 84.6857 81.3781 84.0384 80.8471 83.8414Z" fill="black"/>
  <path d="M80.8471 95.1196L60.6524 87.6051C60.1214 87.401 59.5468 87.7247 59.3656 88.3228C59.1907 88.9279 59.4781 89.5681 60.0153 89.7722L80.2037 97.2937C80.3099 97.3289 80.4161 97.35 80.5286 97.35C80.9533 97.35 81.3531 97.0474 81.4905 96.569C81.6654 95.9709 81.3781 95.3236 80.8471 95.1196Z" fill="black"/>
  <path d="M80.8471 106.406L60.6524 98.8844C60.1214 98.6874 59.5468 99.011 59.3656 99.6091C59.1907 100.207 59.4781 100.854 60.0153 101.051L80.2037 108.573C80.3099 108.615 80.4161 108.636 80.5286 108.636C80.9533 108.636 81.3531 108.334 81.4905 107.848C81.6654 107.25 81.3781 106.603 80.8471 106.406Z" fill="black"/>
  <path d="M25.2422 36.5026C25.2422 37.1359 25.6982 37.6495 26.2604 37.6495H38.8782C39.4403 37.6495 39.8963 37.1359 39.8963 36.5026C39.8963 35.8764 39.4403 35.3628 38.8782 35.3628H26.2604C25.6982 35.3628 25.2422 35.8764 25.2422 36.5026Z" fill="black"/>
  <path d="M38.8782 52.2847H26.2604C25.6982 52.2847 25.2422 52.7983 25.2422 53.4315C25.2422 54.0577 25.6982 54.5714 26.2604 54.5714H38.8782C39.4403 54.5714 39.8963 54.0577 39.8963 53.4315C39.8963 52.7983 39.4403 52.2847 38.8782 52.2847Z" fill="black"/>
  <path d="M38.8782 69.2061H26.2604C25.6982 69.2061 25.2422 69.7197 25.2422 70.3529C25.2422 70.9791 25.6982 71.4928 26.2604 71.4928H38.8782C39.4403 71.4928 39.8963 70.9791 39.8963 70.3529C39.8963 69.7197 39.4403 69.2061 38.8782 69.2061Z" fill="black"/>
  <path d="M14.8981 24.9567H37.6163C38.1785 24.9567 38.6345 24.4431 38.6345 23.8099V12.5311C38.6345 11.8979 38.1785 11.3843 37.6163 11.3843H14.8981C14.3359 11.3843 13.8799 11.8979 13.8799 12.5311V23.8099C13.8799 24.4431 14.3359 24.9567 14.8981 24.9567Z" fill="black"/>
  <path d="M17.4207 41.8783C20.0754 41.8783 22.2305 39.472 22.2305 36.5028C22.2305 33.5406 20.0754 31.1343 17.4207 31.1343C14.7722 31.1343 12.6172 33.5406 12.6172 36.5028C12.6172 39.472 14.7722 41.8783 17.4207 41.8783Z" fill="black"/>
  <path d="M22.2305 53.4312C22.2305 54.1418 22.1055 54.8243 21.8619 55.4857C21.6183 56.1471 21.2685 56.724 20.8188 57.2306C20.369 57.7302 19.8506 58.1242 19.2634 58.3916C18.6762 58.666 18.0578 58.7997 17.4207 58.7997C16.7836 58.7997 16.1714 58.666 15.5842 58.3916C14.9971 58.1242 14.4786 57.7302 14.0289 57.2306C13.5791 56.724 13.2293 56.1471 12.9857 55.4857C12.7421 54.8243 12.6172 54.1418 12.6172 53.4312C12.6172 52.7135 12.7421 52.031 12.9857 51.3696C13.2293 50.7153 13.5791 50.1313 14.0289 49.6317C14.4786 49.1251 14.9971 48.7382 15.5842 48.4638C16.1714 48.1893 16.7836 48.0557 17.4207 48.0557C18.0578 48.0557 18.6762 48.1893 19.2634 48.4638C19.8506 48.7382 20.369 49.1251 20.8188 49.6317C21.2685 50.1313 21.6183 50.7153 21.8619 51.3696C22.1055 52.031 22.2305 52.7135 22.2305 53.4312Z" fill="black"/>
  <path d="M22.2305 70.3531C22.2305 71.0637 22.1055 71.7462 21.8619 72.4076C21.6183 73.069 21.2685 73.6459 20.8188 74.1525C20.369 74.6521 19.8506 75.0461 19.2634 75.3134C18.6762 75.5878 18.0578 75.7286 17.4207 75.7286C16.7836 75.7286 16.1714 75.5878 15.5842 75.3134C14.9971 75.0461 14.4786 74.6521 14.0289 74.1525C13.5791 73.6459 13.2293 73.069 12.9857 72.4076C12.7421 71.7462 12.6172 71.0637 12.6172 70.3531C12.6172 69.6354 12.7421 68.9529 12.9857 68.2915C13.2293 67.6372 13.5791 67.0532 14.0289 66.5536C14.4786 66.047 14.9971 65.66 15.5842 65.3856C16.1714 65.1112 16.7836 64.9775 17.4207 64.9775C18.0578 64.9775 18.6762 65.1112 19.2634 65.3856C19.8506 65.66 20.369 66.047 20.8188 66.5536C21.2685 67.0532 21.6183 67.6372 21.8619 68.2915C22.1055 68.9529 22.2305 69.6354 22.2305 70.3531Z" fill="black"/>
</svg>