<?xml version="1.0" encoding="utf-8"?>
<svg width="130" height="125" viewBox="0 0 130 125" fill="none" xmlns="http://www.w3.org/2000/svg" id="menu-card-design-maroon" class="menu card restaurant custom cafe food industry creative cards design branding" role="contentinfo">
  <desc>Elegant menu card designed by Maroon Digital Rise for restaurants and cafes      Showcase your offerings with stylish menu card designs from Maroon Digital Rise. We craft eye-catching and functional menus that enhance your brand identity.</desc>
  <title>Stylish Menu Card Design Services by Maroon Digital Rise</title>
  <path d="M21.3115 21.4509C21.3115 23.4442 21.9835 25.3112 23.2006 26.7212C23.4288 26.9837 23.7246 27.1101 24.0204 27.1101C24.3162 27.1101 24.6121 26.9837 24.8403 26.7212C25.2924 26.201 25.2924 25.355 24.8403 24.8348C24.0542 23.9304 23.6274 22.7295 23.6274 21.4509C23.6274 20.177 24.0542 18.9761 24.8403 18.0718C27.3547 15.1693 27.3547 10.4386 24.8403 7.53604C24.3881 7.01581 23.6527 7.01095 23.2006 7.53604C22.7526 8.05626 22.7526 8.90224 23.2006 9.42246C23.9824 10.3268 24.4177 11.5277 24.4177 12.8015C24.4177 14.0802 23.9824 15.2811 23.2006 16.1854C21.9835 17.5905 21.3115 19.4623 21.3115 21.4509Z" fill="black"/>
  <path d="M30.3604 21.4509C30.3604 23.4442 31.0281 25.3112 32.2494 26.7212C32.4776 26.9837 32.7692 27.1101 33.0692 27.1101C33.3651 27.1101 33.6609 26.9837 33.8849 26.7212C34.337 26.201 34.337 25.355 33.8849 24.8348C33.103 23.9304 32.672 22.7295 32.672 21.4509C32.672 20.177 33.103 18.9761 33.8849 18.0718C36.4036 15.1693 36.4036 10.4386 33.8849 7.53604C33.4327 7.01581 32.7016 7.01095 32.2494 7.53604C31.7972 8.05626 31.7972 8.90224 32.2494 9.42246C33.0312 10.3268 33.4623 11.5277 33.4623 12.8015C33.4623 14.0802 33.0312 15.2811 32.2494 16.1854C31.0281 17.5905 30.3604 19.4623 30.3604 21.4509Z" fill="black"/>
  <path d="M41.2963 26.7213C41.5202 26.9839 41.8161 27.1103 42.1119 27.1103C42.4077 27.1103 42.7078 26.9839 42.9317 26.7213C43.3839 26.2011 43.3839 25.3551 42.9317 24.8349C42.1499 23.9306 41.7189 22.7297 41.7189 21.451C41.7189 20.1772 42.1499 18.9763 42.9317 18.0719C45.4504 15.1694 45.4504 10.4387 42.9317 7.53617C42.4796 7.01594 41.7484 7.01594 41.2963 7.53617C40.8441 8.05639 40.8441 8.90237 41.2963 9.42259C42.9106 11.2896 42.9106 14.3185 41.2963 16.1855C38.7775 19.0881 38.7775 23.8139 41.2963 26.7213Z" fill="black"/>
  <mask id="mask0_297_1022" style="mask-type:luminance" maskUnits="userSpaceOnUse" x="0" y="0" width="130" height="125">
    <path d="M0 0H129.735V125H0V0Z" fill="white"/>
  </mask>
  <g mask="url(#mask0_297_1022)">
    <path d="M127.298 122.287H66.0201V112.729H70.1617C70.804 112.729 71.3196 112.131 71.3196 111.392C71.3196 110.653 70.804 110.055 70.1617 110.055H66.0201V100.496H70.1617C70.804 100.496 71.3196 99.8983 71.3196 99.1593C71.3196 98.4251 70.804 97.8271 70.1617 97.8271H66.0201V88.2637H70.1617C70.804 88.2637 71.3196 87.6657 71.3196 86.9315C71.3196 86.1925 70.804 85.5945 70.1617 85.5945H66.0201V76.036H70.1617C70.804 76.036 71.3196 75.438 71.3196 74.6989C71.3196 73.9648 70.804 73.3619 70.1617 73.3619H66.0201V63.8034H70.1617C70.804 63.8034 71.3196 63.2054 71.3196 62.4712C71.3196 61.7322 70.804 61.1342 70.1617 61.1342H66.0201V51.5756H70.1617C70.804 51.5756 71.3196 50.9776 71.3196 50.2386C71.3196 49.4996 70.804 48.9016 70.1617 48.9016H66.0201V39.343H70.1617C70.804 39.343 71.3196 38.745 71.3196 38.006C71.3196 37.2719 70.804 36.669 70.1617 36.669H66.0201V27.1105H70.1617C70.804 27.1105 71.3196 26.5173 71.3196 25.7783C71.3196 25.0393 70.804 24.4413 70.1617 24.4413H66.0201V14.8827H70.1617C70.804 14.8827 71.3196 14.2847 71.3196 13.5457C71.3196 12.8067 70.804 12.2087 70.1617 12.2087H66.0201V2.65013H127.298V122.287ZM2.4311 2.65013H63.7085V12.2087H59.5628C58.9246 12.2087 58.4091 12.8067 58.4091 13.5457C58.4091 14.2847 58.9246 14.8827 59.5628 14.8827H63.7085V24.4413H59.5628C58.9246 24.4413 58.4091 25.0393 58.4091 25.7783C58.4091 26.5173 58.9246 27.1105 59.5628 27.1105H63.7085V36.669H59.5628C58.9246 36.669 58.4091 37.2719 58.4091 38.006C58.4091 38.745 58.9246 39.343 59.5628 39.343H63.7085V48.9016H59.5628C58.9246 48.9016 58.4091 49.4996 58.4091 50.2386C58.4091 50.9776 58.9246 51.5756 59.5628 51.5756H63.7085V61.1342H59.5628C58.9246 61.1342 58.4091 61.7322 58.4091 62.4712C58.4091 63.2054 58.9246 63.8034 59.5628 63.8034H63.7085V73.3619H59.5628C58.9246 73.3619 58.4091 73.9648 58.4091 74.6989C58.4091 75.438 58.9246 76.036 59.5628 76.036H63.7085V85.5945H59.5628C58.9246 85.5945 58.4091 86.1925 58.4091 86.9315C58.4091 87.6657 58.9246 88.2637 59.5628 88.2637H63.7085V97.8271H59.5628C58.9246 97.8271 58.4091 98.4251 58.4091 99.1593C58.4091 99.8983 58.9246 100.496 59.5628 100.496H63.7085V110.055H59.5628C58.9246 110.055 58.4091 110.653 58.4091 111.392C58.4091 112.131 58.9246 112.729 59.5628 112.729H63.7085V122.287H2.4311V2.65013ZM128.455 -0.0239258H1.27317C0.635035 -0.0239258 0.115234 0.578952 0.115234 1.3131V123.624C0.115234 124.359 0.635035 124.957 1.27317 124.957H128.455C129.094 124.957 129.613 124.359 129.613 123.624V1.3131C129.613 0.578952 129.094 -0.0239258 128.455 -0.0239258Z" fill="black"/>
  </g>
  <path d="M109.762 20.994L96.6574 36.1194L83.5567 20.994H109.762ZM112.556 14.8826C114.838 14.8826 116.697 17.0267 116.697 19.6618C116.697 22.297 114.838 24.4411 112.556 24.4411C111.85 24.4411 111.165 24.232 110.561 23.8479L113.376 20.605C113.705 20.2209 113.807 19.6472 113.625 19.1465C113.447 18.6505 113.025 18.3248 112.556 18.3248H108.583C109.082 16.3363 110.675 14.8826 112.556 14.8826ZM95.5037 38.5601V48.9014H91.3579C90.7198 48.9014 90.2 49.4994 90.2 50.2384C90.2 50.9775 90.7198 51.5755 91.3579 51.5755H101.957C102.599 51.5755 103.115 50.9775 103.115 50.2384C103.115 49.4994 102.599 48.9014 101.957 48.9014H97.8153V38.5601L108.883 25.783C109.957 26.6435 111.225 27.1103 112.556 27.1103C116.118 27.1103 119.013 23.7701 119.013 19.6618C119.013 15.5535 116.118 12.2085 112.556 12.2085C109.39 12.2085 106.758 14.8534 106.212 18.3248H80.7633C80.2942 18.3248 79.8716 18.6505 79.6899 19.1465C79.5124 19.6472 79.6096 20.2209 79.9434 20.605L95.5037 38.5601Z" fill="black"/>
  <path d="M48.9673 42.7853C48.4348 42.7853 47.9277 42.6687 47.4501 42.4547C48.9166 39.8001 49.8463 36.7177 50.066 33.4018C51.8156 33.961 53.1088 35.8134 53.1088 38.0061C53.1088 40.6412 51.2493 42.7853 48.9673 42.7853ZM33.0689 48.9016C25.3269 48.9016 18.9625 41.988 18.3708 33.2268H47.7628C47.5515 36.3433 46.6091 39.2216 45.1343 41.6428C45.0033 41.7255 44.8807 41.8421 44.7793 41.988C44.6694 42.1484 44.6018 42.3332 44.568 42.5179C41.8591 46.4075 37.7134 48.9016 33.0689 48.9016ZM48.9673 30.5576H17.1706C16.5325 30.5576 16.0127 31.1556 16.0127 31.8946C16.0127 39.1438 19.4316 45.4886 24.507 48.9016H17.1706C16.5325 48.9016 16.0127 49.4997 16.0127 50.2387C16.0127 50.9777 16.5325 51.5757 17.1706 51.5757H48.9673C49.6054 51.5757 50.121 50.9777 50.121 50.2387C50.121 49.4997 49.6054 48.9016 48.9673 48.9016H41.6309C43.3002 47.7785 44.792 46.3346 46.0429 44.6475C46.9388 45.1774 47.9319 45.4594 48.9673 45.4594C52.5256 45.4594 55.4246 42.1144 55.4246 38.0061C55.4246 33.8978 52.5256 30.5576 48.9673 30.5576Z" fill="black"/>
  <path d="M48.9673 61.1289H17.1706C16.5325 61.1289 16.0127 61.7318 16.0127 62.4659C16.0127 63.2049 16.5325 63.803 17.1706 63.803H48.9673C49.6054 63.803 50.121 63.2049 50.121 62.4659C50.121 61.7318 49.6054 61.1289 48.9673 61.1289Z" fill="black"/>
  <path d="M48.9673 67.2456H17.1706C16.5325 67.2456 16.0127 67.8485 16.0127 68.5826C16.0127 69.3216 16.5325 69.9197 17.1706 69.9197H48.9673C49.6054 69.9197 50.121 69.3216 50.121 68.5826C50.121 67.8485 49.6054 67.2456 48.9673 67.2456Z" fill="black"/>
  <path d="M48.9673 73.3613H17.1706C16.5325 73.3613 16.0127 73.9642 16.0127 74.6984C16.0127 75.4374 16.5325 76.0354 17.1706 76.0354H48.9673C49.6054 76.0354 50.121 75.4374 50.121 74.6984C50.121 73.9642 49.6054 73.3613 48.9673 73.3613Z" fill="black"/>
  <path d="M48.9673 85.5942H17.1706C16.5325 85.5942 16.0127 86.1923 16.0127 86.9313C16.0127 87.6654 16.5325 88.2634 17.1706 88.2634H48.9673C49.6054 88.2634 50.121 87.6654 50.121 86.9313C50.121 86.1923 49.6054 85.5942 48.9673 85.5942Z" fill="black"/>
  <path d="M48.9673 91.7104H17.1706C16.5325 91.7104 16.0127 92.3085 16.0127 93.0475C16.0127 93.7816 16.5325 94.3796 17.1706 94.3796H48.9673C49.6054 94.3796 50.121 93.7816 50.121 93.0475C50.121 92.3085 49.6054 91.7104 48.9673 91.7104Z" fill="black"/>
  <path d="M48.9673 97.8267H17.1706C16.5325 97.8267 16.0127 98.4247 16.0127 99.1588C16.0127 99.8978 16.5325 100.496 17.1706 100.496H48.9673C49.6054 100.496 50.121 99.8978 50.121 99.1588C50.121 98.4247 49.6054 97.8267 48.9673 97.8267Z" fill="black"/>
  <path d="M80.7634 63.803H112.556C113.194 63.803 113.714 63.2049 113.714 62.4659C113.714 61.7318 113.194 61.1289 112.556 61.1289H80.7634C80.121 61.1289 79.6055 61.7318 79.6055 62.4659C79.6055 63.2049 80.121 63.803 80.7634 63.803Z" fill="black"/>
  <path d="M80.7634 69.9197H112.556C113.194 69.9197 113.714 69.3216 113.714 68.5826C113.714 67.8485 113.194 67.2456 112.556 67.2456H80.7634C80.121 67.2456 79.6055 67.8485 79.6055 68.5826C79.6055 69.3216 80.121 69.9197 80.7634 69.9197Z" fill="black"/>
  <path d="M80.7634 76.0354H112.556C113.194 76.0354 113.714 75.4374 113.714 74.6984C113.714 73.9642 113.194 73.3613 112.556 73.3613H80.7634C80.121 73.3613 79.6055 73.9642 79.6055 74.6984C79.6055 75.4374 80.121 76.0354 80.7634 76.0354Z" fill="black"/>
  <path d="M80.7634 88.2634H112.556C113.194 88.2634 113.714 87.6654 113.714 86.9313C113.714 86.1923 113.194 85.5942 112.556 85.5942H80.7634C80.121 85.5942 79.6055 86.1923 79.6055 86.9313C79.6055 87.6654 80.121 88.2634 80.7634 88.2634Z" fill="black"/>
  <path d="M80.7634 94.3796H112.556C113.194 94.3796 113.714 93.7816 113.714 93.0475C113.714 92.3085 113.194 91.7104 112.556 91.7104H80.7634C80.121 91.7104 79.6055 92.3085 79.6055 93.0475C79.6055 93.7816 80.121 94.3796 80.7634 94.3796Z" fill="black"/>
  <path d="M80.7634 100.496H112.556C113.194 100.496 113.714 99.8978 113.714 99.1588C113.714 98.4247 113.194 97.8267 112.556 97.8267H80.7634C80.121 97.8267 79.6055 98.4247 79.6055 99.1588C79.6055 99.8978 80.121 100.496 80.7634 100.496Z" fill="black"/>
</svg>