<?xml version="1.0" encoding="utf-8"?>
<svg width="137" height="132" viewBox="0 0 137 132" fill="none" xmlns="http://www.w3.org/2000/svg" id="presentation-slides-design-maroon" class="presentation slides business creative corporate pitch professional branding design decks" role="contentinfo">
  <desc>Professionally designed presentation slide by Maroon Digital Rise for impactful business pitches        Impress your audience with engaging and professional presentation slides designed by Maroon Digital Rise. We specialize in creating impactful visuals for corporate and marketing needs.</desc>
  <title>Engaging Presentation Slides Design by Maroon Digital Rise</title>
  <mask id="mask0_297_1021" style="mask-type:luminance" maskUnits="userSpaceOnUse" x="0" y="0" width="121" height="95">
    <path d="M0 0H120.549V94.151H0V0Z" fill="white"/>
  </mask>
  <g mask="url(#mask0_297_1021)">
    <path d="M2.3689 93.7624H49.1392C49.4499 93.7624 49.744 93.7013 50.0325 93.5848C50.3154 93.4683 50.5651 93.2963 50.7815 93.0799C50.9979 92.8636 51.1698 92.6084 51.2864 92.3254C51.4029 92.0425 51.4639 91.7429 51.4639 91.4322C51.4639 91.127 51.4029 90.8274 51.2864 90.5445C51.1698 90.2615 50.9979 90.0063 50.7815 89.7899C50.5651 89.5736 50.3154 89.4016 50.0325 89.2851C49.744 89.1686 49.4499 89.1075 49.1392 89.1075H4.69355V4.61022H115.1V53.217C115.1 53.5277 115.156 53.8217 115.272 54.1102C115.394 54.3932 115.561 54.6428 115.777 54.8648C115.994 55.0811 116.249 55.2476 116.532 55.3641C116.815 55.4861 117.109 55.5416 117.42 55.5416C117.725 55.5416 118.024 55.4861 118.307 55.3641C118.59 55.2476 118.84 55.0811 119.062 54.8648C119.278 54.6428 119.445 54.3932 119.561 54.1102C119.683 53.8217 119.739 53.5277 119.739 53.217V2.28002C119.739 1.81953 119.611 1.39788 119.361 1.00951C119.112 0.626693 118.779 0.338193 118.357 0.155106C118.024 0.00530835 117.675 -0.0557223 117.314 -0.0446255H2.3689C2.06376 -0.0446255 1.76416 0.0164024 1.48121 0.132913C1.19826 0.25497 0.948594 0.421413 0.726671 0.637789C0.510295 0.859712 0.343854 1.10938 0.227343 1.39233C0.105286 1.68083 0.0498047 1.97488 0.0498047 2.28557V91.4322C0.0498047 91.7429 0.110834 92.0425 0.227343 92.3254C0.343854 92.6084 0.510295 92.8636 0.726671 93.0799C0.948594 93.2963 1.19826 93.4683 1.48121 93.5848C1.76416 93.7013 2.06376 93.7624 2.3689 93.7624Z" fill="black"/>
  </g>
  <path d="M106.185 16.7109C106.185 16.4057 106.129 16.1061 106.007 15.8232C105.891 15.5347 105.724 15.285 105.508 15.0686C105.292 14.8467 105.036 14.6803 104.753 14.5638C104.471 14.4473 104.171 14.3862 103.866 14.3862H18.3865C18.0813 14.3862 17.7817 14.4473 17.4988 14.5638C17.2158 14.6803 16.9662 14.8467 16.7442 15.0686C16.5279 15.285 16.3614 15.5347 16.2449 15.8232C16.1229 16.1061 16.0674 16.4057 16.0674 16.7109C16.0674 17.0216 16.1229 17.3156 16.2449 17.6041C16.3614 17.8871 16.5279 18.1367 16.7442 18.3587C16.9662 18.575 17.2158 18.7415 17.4988 18.8635C17.7817 18.98 18.0813 19.0411 18.3865 19.0411H103.866C104.171 19.0411 104.471 18.98 104.753 18.8635C105.036 18.7415 105.292 18.575 105.508 18.3587C105.724 18.1367 105.891 17.8871 106.007 17.6041C106.129 17.3156 106.185 17.0216 106.185 16.7109Z" fill="black"/>
  <path d="M103.865 29.105H63.2143C62.9036 29.105 62.6096 29.1605 62.3266 29.2825C62.0381 29.399 61.7884 29.5655 61.5721 29.7874C61.3557 30.0038 61.1892 30.2534 61.0672 30.5419C60.9507 30.8249 60.8896 31.1245 60.8896 31.4296C60.8896 31.7403 60.9507 32.0344 61.0672 32.3229C61.1892 32.6058 61.3557 32.8555 61.5721 33.0774C61.7884 33.2938 62.0381 33.4602 62.3266 33.5823C62.6096 33.6988 62.9036 33.7543 63.2143 33.7543H103.865C104.17 33.7543 104.47 33.6988 104.753 33.5823C105.036 33.4602 105.291 33.2938 105.507 33.0774C105.724 32.8555 105.89 32.6058 106.007 32.3229C106.129 32.0344 106.184 31.7403 106.184 31.4296C106.184 31.1245 106.129 30.8249 106.007 30.5419C105.89 30.2534 105.724 30.0038 105.507 29.7874C105.291 29.5655 105.036 29.399 104.753 29.2825C104.47 29.1605 104.17 29.105 103.865 29.105Z" fill="black"/>
  <path d="M103.866 46.2098C104.171 46.2098 104.471 46.1543 104.753 46.0378C105.036 45.9213 105.292 45.7493 105.508 45.5329C105.724 45.3165 105.896 45.0669 106.013 44.7839C106.135 44.4954 106.19 44.2014 106.19 43.8907C106.196 43.5855 106.135 43.2859 106.018 43.003C105.902 42.7145 105.735 42.4648 105.519 42.2429C105.303 42.0265 105.053 41.8545 104.77 41.738C104.487 41.6215 104.188 41.5605 103.882 41.5549L63.2316 41.272H63.215C62.9043 41.272 62.6102 41.333 62.3273 41.4495C62.0388 41.566 61.7891 41.7325 61.5727 41.9488C61.3508 42.1652 61.1844 42.4149 61.0623 42.7034C60.9458 42.9863 60.8848 43.2859 60.8848 43.5911C60.8848 43.9018 60.9402 44.1958 61.0568 44.4843C61.1733 44.7673 61.3397 45.0225 61.5561 45.2389C61.7725 45.4608 62.0277 45.6272 62.3106 45.7493C62.5936 45.8658 62.8876 45.9268 63.1983 45.9268L103.855 46.2098H103.866Z" fill="black"/>
  <path d="M63.2143 54.2876C62.9036 54.2876 62.6096 54.3486 62.3266 54.4651C62.0381 54.5816 61.7884 54.7481 61.5721 54.97C61.3557 55.1864 61.1892 55.4361 61.0672 55.7246C60.9507 56.0075 60.8896 56.3071 60.8896 56.6122C60.8896 56.9229 60.9507 57.217 61.0672 57.5055C61.1892 57.7884 61.3557 58.0381 61.5721 58.26C61.7884 58.4764 62.0381 58.6428 62.3266 58.7649C62.6096 58.8814 62.9036 58.9424 63.2143 58.9424H77.0457C77.3564 58.9424 77.6504 58.8814 77.9334 58.7649C78.2219 58.6428 78.4715 58.4764 78.6879 58.26C78.9043 58.0381 79.0763 57.7884 79.1928 57.5055C79.3093 57.217 79.3703 56.9229 79.3703 56.6122C79.3703 56.3071 79.3093 56.0075 79.1928 55.7246C79.0763 55.4361 78.9043 55.1864 78.6879 54.97C78.4715 54.7481 78.2219 54.5816 77.9334 54.4651C77.6504 54.3486 77.3564 54.2876 77.0457 54.2876H63.2143Z" fill="black"/>
  <path d="M16.0674 44.8898C16.0674 48.5127 17.0272 51.8582 18.9524 54.9263C18.9857 54.9929 19.0134 55.065 19.0523 55.1316C19.0744 55.1648 19.1077 55.1926 19.1299 55.2259C19.5405 55.8584 19.9899 56.4631 20.467 57.0401C20.9497 57.6171 21.4657 58.1664 22.0149 58.6879C22.5586 59.2038 23.1356 59.6865 23.7404 60.1359C24.3451 60.5853 24.9721 60.9959 25.6267 61.3676C26.2814 61.7393 26.9527 62.0778 27.6462 62.3663C28.3397 62.6603 29.0443 62.91 29.7711 63.1208C30.4924 63.3316 31.2247 63.4981 31.9682 63.6146C32.7061 63.7366 33.4551 63.8143 34.2041 63.8476C34.9586 63.8809 35.7076 63.8642 36.4566 63.8088C37.2111 63.7533 37.9546 63.6479 38.6925 63.5036C39.4304 63.3594 40.1572 63.1707 40.8729 62.9377C41.583 62.7047 42.2821 62.4273 42.9645 62.111C43.6525 61.7948 44.3127 61.4397 44.9507 61.0458C45.5943 60.6519 46.2046 60.2192 46.7982 59.7476C47.3863 59.2815 47.9467 58.7766 48.4737 58.244C49.0064 57.7059 49.5001 57.1455 49.9606 56.5463C50.4267 55.9527 50.8483 55.3313 51.2422 54.6877C51.6306 54.0441 51.9801 53.3784 52.2853 52.6904C52.596 52.0024 52.8678 51.2978 53.0897 50.5821C53.3172 49.8609 53.5003 49.1341 53.639 48.3906C53.7777 47.6472 53.8776 46.9038 53.9275 46.1492C53.9774 45.4002 53.983 44.6457 53.9441 43.8911C53.9053 43.1422 53.8221 42.3932 53.6945 41.6497C53.5669 40.9063 53.3949 40.1739 53.1841 39.4527C52.9677 38.7259 52.7125 38.0213 52.4129 37.3278C52.1133 36.6342 51.7748 35.9629 51.3976 35.3138C51.0203 34.6591 50.6042 34.0322 50.1548 33.433C49.6999 32.8283 49.2116 32.2568 48.6957 31.7131C48.1741 31.1694 47.6193 30.659 47.0423 30.1763C46.4598 29.6991 45.8495 29.2553 45.217 28.8503C44.5845 28.4453 43.9299 28.0791 43.2474 27.7518C42.5706 27.4244 41.8771 27.1359 41.1669 26.8918C40.4568 26.6477 39.73 26.448 38.9976 26.2871C38.2597 26.1317 37.5218 26.0152 36.7728 25.9486C36.0238 25.8765 35.2693 25.8543 34.5203 25.871C33.7658 25.8932 33.0223 25.9542 32.2733 26.0652C31.5299 26.1761 30.7975 26.3259 30.0707 26.5256C29.3439 26.7198 28.6338 26.9584 27.9347 27.2413C27.2357 27.5243 26.5588 27.8461 25.8986 28.2067C25.2384 28.5729 24.6059 28.9723 23.9956 29.4106C23.3798 29.8489 22.7972 30.3261 22.2424 30.831C21.6876 31.3414 21.1605 31.8795 20.6723 32.451C20.1785 33.0224 19.7236 33.6216 19.3019 34.243C18.8858 34.87 18.503 35.5191 18.159 36.1904C17.815 36.8562 17.5099 37.5497 17.2491 38.2543C16.9884 38.9589 16.772 39.6801 16.5945 40.4125C16.4169 41.1448 16.2838 41.8883 16.195 42.6373C16.1062 43.3863 16.0674 44.1353 16.0674 44.8898ZM24.3895 54.4769L34.0043 48.3185L38.5593 58.8099C37.2943 59.1373 36.0072 59.2871 34.7034 59.2593C33.394 59.2316 32.118 59.0263 30.8641 58.6435C29.6158 58.2607 28.4396 57.717 27.3411 57.0068C26.2426 56.3022 25.255 55.4589 24.3895 54.4769ZM49.3781 44.8898C49.3781 46.0937 49.2283 47.2755 48.9342 48.435C48.6402 49.6001 48.2019 50.7042 47.6304 51.7583C47.0534 52.8125 46.3599 53.7778 45.5443 54.66C44.7343 55.5366 43.8189 56.3022 42.8147 56.9513L37.1723 43.9633C37.1446 43.9022 37.1113 43.8579 37.078 43.7968C37.0502 43.7413 37.0336 43.6914 37.0003 43.6415C36.9892 43.6304 36.9781 43.6193 36.967 43.6026C36.9226 43.5361 36.8671 43.4695 36.8117 43.4029C36.7673 43.3474 36.7229 43.292 36.673 43.2476C36.623 43.1976 36.562 43.1532 36.5065 43.1089C36.4455 43.0534 36.3845 43.009 36.3179 42.9591C36.2624 42.9258 36.2069 42.898 36.1459 42.8647C36.0738 42.8259 36.0016 42.7871 35.924 42.7538C35.7853 42.7039 35.6466 42.665 35.5023 42.6262C35.4357 42.6095 35.3636 42.604 35.2915 42.5984C35.2194 42.5929 35.1361 42.5818 35.0585 42.5762C34.9863 42.5762 34.9198 42.5873 34.8476 42.5929C34.7755 42.5984 34.6923 42.604 34.6091 42.6206C34.5259 42.6317 34.4815 42.6539 34.4204 42.6706C34.3317 42.6983 34.2485 42.726 34.1652 42.7593C34.1486 42.7593 34.1375 42.7649 34.1208 42.7704C34.0709 42.7926 34.0265 42.8259 33.9766 42.8481C33.9322 42.8758 33.8545 42.9036 33.7991 42.9424L21.8873 50.5766C21.6765 50.0884 21.4934 49.589 21.3381 49.0786C21.1827 48.5682 21.0607 48.0522 20.9608 47.5307C20.8665 47.0092 20.7999 46.4821 20.7611 45.955C20.7222 45.4224 20.7111 44.8898 20.7278 44.3627C20.75 43.8301 20.7999 43.303 20.8776 42.776C20.9552 42.2489 21.0607 41.7274 21.1994 41.217C21.3325 40.701 21.499 40.1961 21.6931 39.7023C21.8818 39.203 22.1037 38.7203 22.3478 38.2487C22.5919 37.7772 22.8638 37.3222 23.1578 36.8839C23.4519 36.4401 23.7737 36.0184 24.1177 35.6134C24.4561 35.2084 24.8223 34.82 25.2106 34.4539C25.5934 34.0877 25.9985 33.7492 26.4201 33.4275C26.8473 33.1057 27.2856 32.8116 27.7406 32.5398C28.1955 32.2679 28.6671 32.0238 29.1498 31.8074C29.6324 31.5855 30.1262 31.3969 30.6311 31.2304C31.136 31.064 31.6464 30.9308 32.1679 30.8254C32.6839 30.7144 33.211 30.6368 33.738 30.5868C34.2651 30.5425 34.7922 30.5203 35.3248 30.5314C35.8574 30.5425 36.3845 30.5813 36.9115 30.6479C37.4331 30.72 37.9546 30.8143 38.4705 30.9419C38.9865 31.0695 39.4914 31.2249 39.9907 31.408C40.49 31.591 40.9727 31.8019 41.4499 32.0349C41.9214 32.2735 42.3819 32.5398 42.8313 32.8227C43.2752 33.1112 43.7024 33.4275 44.1129 33.7603C44.5235 34.0988 44.9174 34.4539 45.2891 34.8367C45.6609 35.2139 46.0048 35.6134 46.3322 36.0295C46.6595 36.4512 46.9647 36.8839 47.2421 37.3389C47.525 37.7883 47.7747 38.2543 48.0021 38.737C48.2296 39.2141 48.4294 39.7079 48.6069 40.2072C48.7789 40.7121 48.9231 41.2225 49.0396 41.744C49.1562 42.26 49.2449 42.7815 49.3004 43.3141C49.3614 43.8412 49.3892 44.3683 49.3892 44.9009L49.3781 44.8898Z" fill="black"/>
  <mask id="mask1_297_1021" style="mask-type:luminance" maskUnits="userSpaceOnUse" x="43" y="65" width="94" height="67">
    <path d="M43.8516 65.7446H136.255V132H43.8516V65.7446Z" fill="white"/>
  </mask>
  <g mask="url(#mask1_297_1021)">
    <path d="M121.979 85.058H117.002C116.902 85.0635 116.802 85.0746 116.703 85.0912C116.653 85.0912 116.597 85.1023 116.547 85.1134C116.453 85.1356 116.359 85.1689 116.264 85.2022C116.22 85.2188 116.17 85.2355 116.12 85.2521C116.031 85.2965 115.948 85.3409 115.865 85.3964C115.82 85.4241 115.77 85.4463 115.732 85.4741C115.659 85.5295 115.587 85.585 115.521 85.646C115.476 85.6904 115.426 85.7293 115.382 85.7792C115.36 85.7958 115.338 85.8125 115.321 85.8291L105.34 97.0418L95.3535 85.8291C95.3368 85.8069 95.3091 85.7958 95.2869 85.7681C95.2647 85.7459 95.2148 85.7071 95.1815 85.6738C95.1038 85.6017 95.0262 85.5351 94.9374 85.4741C94.9096 85.4519 94.8764 85.4352 94.8486 85.4186C94.7488 85.352 94.6433 85.2965 94.5379 85.2521C94.5157 85.241 94.488 85.2355 94.4603 85.2244C94.3437 85.1745 94.2272 85.1412 94.1052 85.1134L94.033 85.1023C93.9054 85.0746 93.7723 85.0635 93.6391 85.0635H71.7963C71.58 85.0635 71.3969 84.9803 71.2526 84.8194L55.5682 68.1474C54.6417 67.1709 53.4988 66.7104 52.1506 66.7715C50.7968 66.8325 49.7094 67.404 48.8772 68.4747L45.676 72.6302C45.1322 73.3404 44.8271 74.1449 44.7661 75.0381C44.7106 75.9369 44.9048 76.7691 45.3542 77.5458L60.5559 103.833C60.7612 104.193 61.0441 104.476 61.4048 104.682C61.7654 104.892 62.1538 104.992 62.5643 104.992H80.2849V129.565C80.2849 129.875 80.3459 130.169 80.4624 130.452C80.5789 130.741 80.7509 130.991 80.9673 131.207C81.1837 131.429 81.4334 131.595 81.7219 131.712C82.0048 131.834 82.2989 131.889 82.6095 131.889H133.879C134.19 131.889 134.484 131.834 134.767 131.712C135.05 131.595 135.305 131.429 135.522 131.207C135.738 130.991 135.904 130.741 136.026 130.452C136.143 130.169 136.198 129.875 136.198 129.565V99.3165C136.198 98.3789 136.11 97.4524 135.927 96.5369C135.744 95.616 135.472 94.7283 135.117 93.8628C134.756 92.9973 134.318 92.1761 133.802 91.3994C133.28 90.6227 132.692 89.9014 132.032 89.2412C131.372 88.5754 130.656 87.9873 129.879 87.4658C129.102 86.9443 128.281 86.506 127.421 86.1509C126.556 85.7903 125.668 85.5184 124.753 85.3354C123.837 85.1523 122.916 85.0635 121.979 85.058ZM131.56 99.3165V127.234H107.659V101.43L118.101 89.7128H121.99C122.617 89.7128 123.238 89.7794 123.854 89.9014C124.47 90.0235 125.069 90.2066 125.652 90.4507C126.229 90.6948 126.783 90.9889 127.305 91.3384C127.826 91.6879 128.309 92.0874 128.753 92.5312C129.197 92.9806 129.591 93.4633 129.94 93.9848C130.29 94.5119 130.584 95.0611 130.828 95.6437C131.066 96.2262 131.25 96.8254 131.372 97.4468C131.494 98.0627 131.56 98.684 131.56 99.3165ZM63.9014 100.348L49.4487 75.3544L52.3891 71.5428L67.8627 87.9984C68.9224 89.1413 70.2373 89.7128 71.7963 89.7128H92.585L103.015 101.43V127.24H84.9286V104.177C84.9286 103.666 84.8288 103.178 84.6346 102.712C84.4404 102.24 84.1686 101.83 83.8079 101.469C83.4529 101.109 83.0367 100.831 82.5707 100.637C82.1047 100.443 81.6164 100.348 81.1116 100.348H63.9014Z" fill="black"/>
  </g>
  <path d="M112.332 105.924C112.332 106.235 112.393 106.529 112.51 106.812C112.626 107.1 112.798 107.35 113.014 107.566C113.231 107.788 113.48 107.955 113.769 108.071C114.052 108.193 114.346 108.249 114.657 108.249H125.387C125.692 108.249 125.986 108.193 126.274 108.071C126.557 107.955 126.807 107.788 127.023 107.566C127.245 107.35 127.412 107.1 127.528 106.812C127.645 106.529 127.706 106.235 127.706 105.924C127.706 105.614 127.645 105.32 127.528 105.031C127.412 104.748 127.245 104.498 127.023 104.276C126.807 104.06 126.557 103.894 126.274 103.777C125.986 103.655 125.692 103.6 125.387 103.6H114.657C114.346 103.6 114.052 103.655 113.769 103.777C113.48 103.894 113.231 104.06 113.014 104.276C112.798 104.498 112.626 104.748 112.51 105.031C112.393 105.32 112.332 105.614 112.332 105.924Z" fill="black"/>
  <path d="M105.257 87.4436C106.378 87.4436 107.493 87.3326 108.592 87.1162C109.696 86.8943 110.767 86.567 111.804 86.1398C112.842 85.707 113.829 85.18 114.761 84.553C115.693 83.9316 116.559 83.2215 117.352 82.4226C118.146 81.6292 118.856 80.7637 119.483 79.8261C120.104 78.8884 120.631 77.9009 121.064 76.8634C121.491 75.8203 121.818 74.7496 122.035 73.6455C122.257 72.5414 122.362 71.4263 122.362 70.3C122.368 69.1737 122.257 68.0586 122.035 66.9545C121.818 65.8504 121.491 64.7797 121.064 63.7366C120.637 62.6991 120.11 61.7116 119.483 60.7739C118.861 59.8363 118.151 58.9708 117.358 58.1719C116.564 57.3785 115.699 56.6684 114.767 56.0414C113.829 55.4145 112.847 54.8874 111.81 54.4547C110.772 54.0275 109.701 53.7001 108.603 53.4782C107.499 53.2618 106.389 53.1509 105.263 53.1509C104.142 53.1509 103.027 53.2618 101.929 53.4782C100.824 53.7001 99.7537 54.0275 98.7162 54.4547C97.6787 54.8874 96.6967 55.4145 95.7591 56.0414C94.827 56.6628 93.9615 57.3785 93.1681 58.1719C92.3747 58.9708 91.6646 59.8363 91.0432 60.7684C90.4163 61.706 89.8892 62.6936 89.462 63.7366C89.0293 64.7741 88.7075 65.8449 88.4855 66.949C88.2692 68.0586 88.1582 69.1682 88.1582 70.2945C88.1582 71.4207 88.2692 72.5359 88.4911 73.64C88.713 74.744 89.0348 75.8148 89.4676 76.8523C89.8948 77.8953 90.4218 78.8829 91.0488 79.815C91.6701 80.7526 92.3803 81.6181 93.1737 82.4115C93.967 83.2104 94.827 83.9206 95.7646 84.5475C96.6967 85.1689 97.6787 85.7015 98.7162 86.1287C99.7537 86.5614 100.824 86.8888 101.923 87.1107C103.022 87.3271 104.137 87.4436 105.257 87.4436ZM105.257 57.8057C106.073 57.8057 106.889 57.8834 107.687 58.0443C108.492 58.2052 109.269 58.4438 110.029 58.7544C110.783 59.0707 111.499 59.4535 112.181 59.9084C112.858 60.3689 113.491 60.8849 114.068 61.4675C114.645 62.0445 115.166 62.6769 115.621 63.3594C116.071 64.0418 116.459 64.7575 116.77 65.5176C117.086 66.2776 117.319 67.0544 117.48 67.8588C117.641 68.6689 117.718 69.4789 117.718 70.3C117.718 71.1211 117.641 71.9311 117.48 72.7356C117.319 73.5401 117.08 74.3224 116.77 75.0769C116.459 75.837 116.071 76.5582 115.616 77.2407C115.161 77.9231 114.645 78.55 114.068 79.1326C113.491 79.7151 112.858 80.2311 112.181 80.686C111.499 81.141 110.783 81.5238 110.023 81.84C109.269 82.1563 108.492 82.3893 107.687 82.5502C106.883 82.7111 106.073 82.7887 105.257 82.7887C104.436 82.7887 103.626 82.7111 102.827 82.5502C102.023 82.3893 101.246 82.1563 100.486 81.84C99.7315 81.5238 99.0158 81.141 98.3334 80.686C97.651 80.2311 97.024 79.7096 96.447 79.1326C95.8645 78.55 95.3485 77.9175 94.8936 77.2351C94.4386 76.5582 94.0558 75.837 93.7451 75.0769C93.4289 74.3224 93.1959 73.5401 93.035 72.7356C92.8741 71.9311 92.7964 71.1156 92.7964 70.2945C92.7964 69.4789 92.8796 68.6633 93.0405 67.8588C93.2014 67.0544 93.4344 66.2776 93.7507 65.5176C94.0614 64.763 94.4442 64.0418 94.8991 63.3594C95.3541 62.6769 95.87 62.05 96.4526 61.4675C97.0296 60.8905 97.6565 60.3689 98.3389 59.914C99.0158 59.4591 99.7371 59.0762 100.492 58.76C101.246 58.4438 102.023 58.2107 102.827 58.0498C103.632 57.8889 104.442 57.8057 105.257 57.8057Z" fill="black"/>
</svg>