<?xml version="1.0" encoding="utf-8"?>
<svg width="139" height="132" viewBox="0 0 139 132" fill="none" xmlns="http://www.w3.org/2000/svg" id="envelope-design-maroon" class="envelope custom branding, professional branded business correspondence design corporate envelopes stationery" role="contentinfo">
  <desc> Custom-designed envelope by Maroon Digital Rise showcasing professional branding         Enhance your brand's professionalism with custom envelope design services by Maroon Digital Rise. We create visually appealing and functional envelopes for your business correspondence.</desc>
  <title>Premium Envelope Design Services by Maroon Digital Rise</title>
  <path fill-rule="evenodd" clip-rule="evenodd" d="M37.6773 22.0202H100.469C102.203 22.0202 103.611 20.6123 103.611 18.879C103.611 17.1457 102.203 15.7378 100.469 15.7378H37.6773C35.9441 15.7378 34.5361 17.1457 34.5361 18.879C34.5361 20.6123 35.9441 22.0202 37.6773 22.0202Z" fill="black"/>
  <path fill-rule="evenodd" clip-rule="evenodd" d="M37.6773 69.1384H100.469C102.203 69.1384 103.611 67.7304 103.611 65.9972C103.611 64.2639 102.203 62.856 100.469 62.856H37.6773C35.9441 62.856 34.5361 64.2639 34.5361 65.9972C34.5361 67.7304 35.9441 69.1384 37.6773 69.1384Z" fill="black"/>
  <path fill-rule="evenodd" clip-rule="evenodd" d="M37.6676 37.7263H69.5223C71.2556 37.7263 72.6635 36.3183 72.6635 34.5851C72.6635 32.8518 71.2556 31.4438 69.5223 31.4438H37.6676C35.9343 31.4438 34.5264 32.8518 34.5264 34.5851C34.5264 36.3183 35.9343 37.7263 37.6676 37.7263Z" fill="black"/>
  <path fill-rule="evenodd" clip-rule="evenodd" d="M37.6671 53.4323H61.1062C62.8394 53.4323 64.2474 52.0244 64.2474 50.2911C64.2474 48.5578 62.8394 47.1499 61.1062 47.1499H37.6671C35.9339 47.1499 34.5312 48.5578 34.5312 50.2911C34.5312 52.0244 35.9339 53.4323 37.6671 53.4323Z" fill="black"/>
  <mask id="mask0_297_1018" style="mask-type:luminance" maskUnits="userSpaceOnUse" x="0" y="0" width="139" height="132">
    <path d="M0 0H138.138V132H0V0Z" fill="white"/>
  </mask>
  <g mask="url(#mask0_297_1018)">
    <path fill-rule="evenodd" clip-rule="evenodd" d="M25.119 75.8798V7.88258C25.119 7.46659 25.2843 7.06661 25.5776 6.77329C25.871 6.47997 26.2709 6.31464 26.6869 6.31464H97.3241C99.0573 6.31464 100.465 4.9067 100.465 3.17343C100.465 1.44017 99.0573 0.0322266 97.3241 0.0322266C75.0583 0.0322266 39.4171 0.0322266 26.6869 0.0322266C24.607 0.0322266 22.6071 0.858861 21.1351 2.3308C19.6632 3.80274 18.8366 5.80266 18.8366 7.88258V35.3748L4.20783 43.0438C1.62127 44.4038 0 47.081 0 50.0035C0 58.0032 0 81.3356 0 100.551C0 102.284 1.40794 103.692 3.14121 103.692C4.87447 103.692 6.27708 102.284 6.27708 100.551V74.2852L65.848 101.116C67.8959 102.044 70.2425 102.044 72.2904 101.116L131.861 74.2852V124.113C131.861 124.529 131.696 124.929 131.403 125.222C131.109 125.515 130.709 125.68 130.293 125.68H7.85035C7.43437 125.68 7.03438 125.515 6.73573 125.222C6.44774 124.929 6.27708 124.529 6.27708 124.113V119.398C6.27708 117.665 4.87447 116.257 3.14121 116.257C1.40794 116.257 0 117.665 0 119.398V124.113C0 126.192 0.826635 128.192 2.29857 129.664C3.77052 131.142 5.77043 131.963 7.85035 131.963H130.293C132.373 131.963 134.368 131.142 135.845 129.664C137.317 128.192 138.138 126.192 138.138 124.113C138.138 109.004 138.138 62.0671 138.138 50.0035C138.138 47.081 136.522 44.4038 133.936 43.0438L119.302 35.3748V7.88258C119.302 5.80266 118.475 3.80274 117.003 2.3308C115.531 0.858861 113.537 0.0322266 111.457 0.0322266C110.118 0.0322266 108.54 0.0322266 106.748 0.0322266C105.014 0.0322266 103.606 1.44017 103.606 3.17343C103.606 4.9067 105.014 6.31464 106.748 6.31464H111.457C111.873 6.31464 112.273 6.47997 112.561 6.77329C112.859 7.06661 113.025 7.46659 113.025 7.88258V75.8798L69.7145 95.3884C69.3039 95.575 68.8345 95.575 68.4292 95.3884L25.119 75.8798ZM18.8366 42.4678L7.11971 48.6116C6.6024 48.8836 6.27708 49.4169 6.27708 50.0035V67.3948L18.8366 73.0479V42.4678ZM119.302 73.0479L131.861 67.3948V50.0035C131.861 49.4169 131.536 48.8836 131.019 48.6116L119.302 42.4678V73.0479Z" fill="black"/>
  </g>
  <mask id="mask1_297_1018" style="mask-type:luminance" maskUnits="userSpaceOnUse" x="0" y="106" width="7" height="8">
    <path d="M0 106.38H6.29841V113.206H0V106.38Z" fill="white"/>
  </mask>
  <g mask="url(#mask1_297_1018)">
    <path d="M6.27708 109.974C6.27708 110.39 6.19708 110.796 6.04242 111.179C5.88243 111.563 5.65311 111.905 5.35978 112.198C5.06646 112.491 4.72514 112.721 4.34116 112.875C3.95717 113.035 3.55719 113.115 3.14121 113.115C2.72522 113.115 2.32524 113.035 1.93592 112.875C1.55194 112.721 1.21595 112.491 0.917296 112.198C0.623974 111.905 0.399985 111.563 0.23999 111.179C0.0799961 110.796 0 110.39 0 109.974C0 109.558 0.0799961 109.158 0.23999 108.774C0.399985 108.39 0.623974 108.049 0.917296 107.756C1.21595 107.462 1.55194 107.233 1.93592 107.073C2.32524 106.913 2.72522 106.833 3.14121 106.833C3.55719 106.833 3.95717 106.913 4.34116 107.073C4.72514 107.233 5.06646 107.462 5.35978 107.756C5.65311 108.049 5.88243 108.39 6.04242 108.774C6.19708 109.158 6.27708 109.558 6.27708 109.974Z" fill="black"/>
  </g>
</svg>