<?xml version="1.0" encoding="utf-8"?>
<svg width="142" height="115" viewBox="0 0 142 115" fill="none" xmlns="http://www.w3.org/2000/svg" id="visiting-card-design-maroon" class="visiting card business professional custom corporate creative designs design identity branding" role="contentinfo">
  <desc>Sleek visiting card designed by Maroon Digital Rise showcasing professional branding        Elevate your professional image with custom visiting card design services from Maroon Digital Rise. Our designs combine creativity and corporate identity to leave a lasting impression.</desc>
  <title>Premium Visiting Card Design Services by Maroon Digital Rise</title>
  <mask id="mask0_297_1019" style="mask-type:luminance" maskUnits="userSpaceOnUse" x="10" y="0" width="110" height="23">
    <path d="M10.4502 0H119.318V22.1183H10.4502V0Z" fill="white"/>
  </mask>
  <g mask="url(#mask0_297_1019)">
    <path d="M17.9827 8.55786C18.4191 6.42556 20.2527 4.87532 22.3348 4.87532C22.6441 4.87532 22.9534 4.9099 23.2571 4.97906L98.0486 21.7435H119.273L24.185 0.426314C23.5664 0.288003 22.9479 0.224609 22.3348 0.224609C18.2423 0.224609 14.5309 3.22712 13.6417 7.57816L10.7422 21.7435H15.282L17.9827 8.55786Z" fill="black"/>
  </g>
  <mask id="mask1_297_1019" style="mask-type:luminance" maskUnits="userSpaceOnUse" x="0" y="25" width="142" height="91">
    <path d="M0 25.0693H142V115H0V25.0693Z" fill="white"/>
  </mask>
  <g mask="url(#mask1_297_1019)">
    <path d="M133.125 26.394H8.87535C3.99308 26.394 0 30.578 0 35.6955V105.468C0 110.585 3.99308 114.775 8.87535 114.775H133.125C138.007 114.775 142 110.585 142 105.468V35.6955C142 30.578 138.007 26.394 133.125 26.394ZM137.56 105.468C137.56 108.032 135.571 110.124 133.125 110.124H8.87535C6.42869 110.124 4.44043 108.032 4.44043 105.468V35.6955C4.44043 33.131 6.42869 31.0448 8.87535 31.0448H133.125C135.571 31.0448 137.56 33.131 137.56 35.6955V105.468Z" fill="black"/>
  </g>
  <path d="M123.139 82.2144H83.2026C81.9765 82.2144 80.9824 83.2517 80.9824 84.5368C80.9824 85.822 81.9765 86.8651 83.2026 86.8651H123.139C124.365 86.8651 125.359 85.822 125.359 84.5368C125.359 83.2517 124.365 82.2144 123.139 82.2144Z" fill="black"/>
  <path d="M123.139 91.5161H83.2026C81.9765 91.5161 80.9824 92.5592 80.9824 93.8386C80.9824 95.1237 81.9765 96.1668 83.2026 96.1668H123.139C124.365 96.1668 125.359 95.1237 125.359 93.8386C125.359 92.5592 124.365 91.5161 123.139 91.5161Z" fill="black"/>
  <path d="M123.139 100.818H83.2026C81.9765 100.818 80.9824 101.861 80.9824 103.146C80.9824 104.431 81.9765 105.469 83.2026 105.469H123.139C124.365 105.469 125.359 104.431 125.359 103.146C125.359 101.861 124.365 100.818 123.139 100.818Z" fill="black"/>
  <path d="M123.14 35.6963H92.0786C90.8525 35.6963 89.8584 36.7394 89.8584 38.0245C89.8584 39.3039 90.8525 40.347 92.0786 40.347H123.14C124.366 40.347 125.36 39.3039 125.36 38.0245C125.36 36.7394 124.366 35.6963 123.14 35.6963Z" fill="black"/>
  <path d="M123.14 44.9976H109.83C108.604 44.9976 107.609 46.0407 107.609 47.3258C107.609 48.6109 108.604 49.6483 109.83 49.6483H123.14C124.366 49.6483 125.36 48.6109 125.36 47.3258C125.36 46.0407 124.366 44.9976 123.14 44.9976Z" fill="black"/>
  <path d="M33.2818 46.1616C22.2525 46.1616 13.3164 55.5322 13.3164 67.0927C13.3164 78.6532 22.2525 88.0296 33.2818 88.0296C44.3111 88.0296 53.2527 78.6532 53.2527 67.0927C53.2527 55.5322 44.3111 46.1616 33.2818 46.1616ZM33.2818 83.3731C28.035 83.3731 23.3958 80.6242 20.5791 76.4345L25.1355 70.5447L29.366 74.8842L29.228 75.0917C28.5431 76.1579 28.8027 77.6044 29.8189 78.3247C30.2 78.5956 30.6363 78.7224 31.0616 78.7224C31.774 78.7224 32.4699 78.3651 32.9007 77.7023L40.4064 66.1072L47.2272 73.4435C47.3045 73.5299 47.3929 73.5991 47.4812 73.6683C45.0622 79.3794 39.6166 83.3731 33.2818 83.3731ZM48.7515 68.4182L41.6822 60.8168C41.2182 60.3212 40.5721 60.0677 39.8983 60.1253C39.2355 60.1887 38.6335 60.5575 38.2579 61.1396L31.8955 70.9712L26.4996 65.433C26.0523 64.9719 25.4448 64.7299 24.8207 64.7702C24.1966 64.8106 23.6167 65.1218 23.2245 65.6289L18.4251 71.8299C17.9943 70.3315 17.7513 68.7409 17.7513 67.0927C17.7513 58.1198 24.7213 50.8123 33.2818 50.8123C41.8478 50.8123 48.8123 58.1198 48.8123 67.0927C48.8123 67.5422 48.7846 67.9802 48.7515 68.4182Z" fill="black"/>
  <path d="M48.2599 92.6802H18.3091C17.083 92.6802 16.0889 93.7175 16.0889 95.0027C16.0889 96.2878 17.083 97.3309 18.3091 97.3309H48.2599C49.486 97.3309 50.4801 96.2878 50.4801 95.0027C50.4801 93.7175 49.486 92.6802 48.2599 92.6802Z" fill="black"/>
  <path d="M32.265 59.8254C32.265 60.1366 32.2098 60.4305 32.0993 60.7187C31.9833 61.0011 31.8232 61.2546 31.6188 61.4736C31.4089 61.6868 31.1714 61.8597 30.8953 61.975C30.6247 62.0903 30.343 62.1536 30.0503 62.1536C29.7521 62.1536 29.4704 62.0903 29.1998 61.975C28.9291 61.8597 28.6861 61.6868 28.4818 61.4736C28.2719 61.2546 28.1117 61.0011 27.9958 60.7187C27.8853 60.4305 27.8301 60.1366 27.8301 59.8254C27.8301 59.52 27.8853 59.2203 27.9958 58.9379C28.1117 58.6498 28.2719 58.402 28.4818 58.183C28.6861 57.964 28.9291 57.7968 29.1998 57.6758C29.4704 57.5606 29.7521 57.5029 30.0503 57.5029C30.343 57.5029 30.6247 57.5606 30.8953 57.6758C31.1714 57.7968 31.4089 57.964 31.6188 58.183C31.8232 58.402 31.9833 58.6498 32.0993 58.9379C32.2098 59.2203 32.265 59.52 32.265 59.8254Z" fill="black"/>
</svg>