<?xml version="1.0" encoding="utf-8"?>
<svg width="92" height="132" viewBox="0 0 92 132" fill="none" xmlns="http://www.w3.org/2000/svg" id="id-card-design-maroon" class="ID card employee professional corporate identity custom office essentials design cards branding designs" role="contentinfo">
  <desc>Custom ID card designed by Maroon Digital Rise featuring professional branding     Create a professional and cohesive identity for your team with custom ID card design services from Maroon Digital Rise. Our designs ensure functionality and aesthetic appeal.</desc>
  <title>Professional ID Card Design Services by Maroon Digital Rise</title>
  <mask id="mask0_297_954" style="mask-type:luminance" maskUnits="userSpaceOnUse" x="0" y="0" width="92" height="132">
    <path d="M0 0H91.0306V132H0V0Z" fill="white"/>
  </mask>
  <g mask="url(#mask0_297_954)">
    <path d="M73.1311 33.17H17.8035C15.0338 33.17 12.7861 30.9282 12.7861 28.1645C12.7861 25.4067 15.0338 23.1708 17.8035 23.1708H73.1311C75.9067 23.1708 78.1545 25.4067 78.1545 28.1645C78.1545 30.9282 75.9067 33.17 73.1311 33.17ZM31.8771 53.9275C31.8771 46.4608 37.962 40.4055 45.4703 40.4055C52.9786 40.4055 59.0635 46.4608 59.0635 53.9275C59.0635 61.4002 52.9786 67.4555 45.4703 67.4555C37.962 67.4555 31.8771 61.4002 31.8771 53.9275ZM45.4703 71.1563C58.3399 71.1563 69.1279 80.0286 71.9924 91.9612C72.4372 93.7998 71.0198 95.5612 69.1161 95.5612H21.8186C19.9207 95.5612 18.5033 93.7998 18.9481 91.9612C21.8126 80.0286 32.6006 71.1563 45.4703 71.1563ZM78.1545 107.974H12.7861V103.259H78.1545V107.974ZM78.1545 118.43H12.7861V113.715H78.1545V118.43ZM35.7439 8.91339C35.7439 6.79612 37.4757 5.07028 39.6048 5.07028H51.3298C53.4649 5.07028 55.1967 6.79612 55.1967 8.91339V9.03793H35.7439V8.91339ZM80.2599 9.03793H60.048V8.91339C60.048 4.13323 56.1396 0.242676 51.3298 0.242676H39.6048C34.8009 0.242676 30.8926 4.13323 30.8926 8.91339V9.03793H10.6807C4.76182 9.03793 -0.0361328 13.8122 -0.0361328 19.6954V121.099C-0.0361328 126.982 4.76182 131.756 10.6807 131.756H80.2599C86.1787 131.756 90.9767 126.982 90.9767 121.099V19.6954C90.9767 13.8122 86.1787 9.03793 80.2599 9.03793Z" fill="#100F0D"/>
  </g>
</svg>