<?xml version="1.0" encoding="utf-8"?>
<svg width="112" height="132" viewBox="0 0 112 132" fill="none" xmlns="http://www.w3.org/2000/svg" id="stationery-design-maroon" class="stationery corporate custom business professional office branding design essentials" role="contentinfo">
  <desc>Professionally crafted stationery set designed by Maroon Digital Rise for branding needs          Elevate your corporate image with custom stationery design services by Maroon Digital Rise. From letterheads to notepads, we deliver cohesive and</desc>
  <title>Custom Stationery Design Services by Maroon Digital Rise</title>
  <mask id="mask0_297_998" style="mask-type:luminance" maskUnits="userSpaceOnUse" x="0" y="0" width="112" height="132">
    <path d="M0 0H111.817V132H0V0Z" fill="white"/>
  </mask>
  <g mask="url(#mask0_297_998)">
    <path fill-rule="evenodd" clip-rule="evenodd" d="M5.92876 11.5376C3.72029 12.3921 2.26112 13.5971 1.41542 14.8591C-0.00431523 16.9756 0.0964687 19.3505 1.26205 21.1909C2.18663 22.6501 3.80793 23.7938 5.92876 24.1224V28.2677C3.72029 29.1222 2.26112 30.3228 1.41542 31.5848C-0.00431523 33.7012 0.0964687 36.0806 1.26205 37.921C2.18663 39.3802 3.80793 40.5194 5.92876 40.8568V44.9977C3.72029 45.8478 2.26112 47.0528 1.41542 48.3192C-0.00431523 50.4313 0.0964687 52.8063 1.26205 54.651C2.18663 56.1102 3.80793 57.2539 5.92876 57.5825V61.4386C3.72029 62.293 2.26112 63.4937 1.41542 64.76C-0.00431523 66.8721 0.0964687 69.2471 1.26205 71.0919C2.18663 72.551 3.80793 73.6947 5.92876 74.0234V78.1642C3.72029 79.0231 2.26112 80.2237 1.41542 81.4857C-0.00431523 83.6022 0.0964687 85.9815 1.26205 87.8219C2.18663 89.2811 3.80793 90.4204 5.92876 90.7534V94.8987C3.72029 95.7488 2.26112 96.9538 1.41542 98.2158C-0.00431523 100.332 0.0964687 102.707 1.26205 104.552C2.18663 106.011 3.80793 107.15 5.92876 107.483V111.624C3.72029 112.479 2.26112 113.684 1.41542 114.946C-0.00431523 117.062 0.0964687 119.437 1.26205 121.282C2.18663 122.741 3.80793 123.88 5.92876 124.214V129.169C5.92876 130.707 7.1776 131.956 8.72002 131.956H97.5015C99.0439 131.956 100.297 130.707 100.297 129.169V53.4942L111.142 41.409C111.817 40.6553 111.756 39.4941 110.998 38.8193L100.297 29.2624V2.83083C100.297 1.29278 99.0439 0.0439453 97.5015 0.0439453H8.72002C7.1776 0.0439453 5.92876 1.29278 5.92876 2.83083V11.5376ZM97.5979 26.8523V2.83083C97.5979 2.77824 97.554 2.73442 97.5015 2.73442H8.72002C8.66744 2.73442 8.628 2.77824 8.628 2.83083V10.7577C9.81988 10.5167 11.1607 10.3545 12.6637 10.3019C13.2115 8.77705 14.6706 7.68596 16.3883 7.68596C18.5661 7.68596 20.3408 9.45186 20.3408 11.6253C20.3408 13.8031 18.5661 15.569 16.3883 15.569C14.6882 15.569 13.2334 14.4954 12.6769 12.9968C11.1257 13.0494 9.78044 13.2247 8.628 13.492V27.4877C9.81988 27.2423 11.1607 27.0846 12.6637 27.032C13.2115 25.5071 14.6706 24.416 16.3883 24.416C18.5661 24.416 20.3408 26.1819 20.3408 28.3597C20.3408 30.5331 18.5661 32.299 16.3883 32.299C14.6882 32.299 13.2334 31.2298 12.6769 29.7225C11.1257 29.7794 9.78044 29.9503 8.628 30.2176V44.2178C9.81988 43.9724 11.1607 43.8146 12.6637 43.762C13.2115 42.2371 14.6706 41.1461 16.3883 41.1461C18.5661 41.1461 20.3408 42.912 20.3408 45.0854C20.3408 47.2632 18.5661 49.0291 16.3883 49.0291C14.6882 49.0291 13.2334 47.9555 12.6769 46.4525C11.1257 46.5095 9.78044 46.6804 8.628 46.9521V60.6586C9.81988 60.4176 11.1607 60.2555 12.6637 60.2029C13.2115 58.678 14.6706 57.5869 16.3883 57.5869C18.5661 57.5869 20.3408 59.3528 20.3408 61.5262C20.3408 63.704 18.5661 65.4699 16.3883 65.4699C14.6882 65.4699 13.2334 64.3964 12.6769 62.8977C11.1257 62.9503 9.78044 63.1212 8.628 63.3929V77.3886C9.81988 77.1433 11.1607 76.9855 12.6637 76.9329C13.2115 75.408 14.6706 74.3169 16.3883 74.3169C18.5661 74.3169 20.3408 76.0828 20.3408 78.2563C20.3408 80.4341 18.5661 82.2 16.3883 82.2C14.6882 82.2 13.2334 81.1264 12.6769 79.6234C11.1257 79.676 9.78044 79.8513 8.628 80.1186V94.1187C9.81988 93.8733 11.1607 93.7156 12.6637 93.663C13.2115 92.1381 14.6706 91.0426 16.3883 91.0426C18.5661 91.0426 20.3408 92.8129 20.3408 94.9863C20.3408 97.1641 18.5661 98.93 16.3883 98.93C14.6882 98.93 13.2334 97.8565 12.6769 96.3535C11.1257 96.4104 9.78044 96.5813 8.628 96.8486V110.849C9.81988 110.603 11.1607 110.446 12.6637 110.389C13.2115 108.864 14.6706 107.777 16.3883 107.777C18.5661 107.777 20.3408 109.543 20.3408 111.716C20.3408 113.894 18.5661 115.66 16.3883 115.66C14.6882 115.66 13.2334 114.587 12.6769 113.084C11.1257 113.14 9.78044 113.311 8.628 113.579V129.169C8.628 129.222 8.66744 129.266 8.72002 129.266H97.5015C97.554 129.266 97.5979 129.222 97.5979 129.169V56.5002L86.871 68.4496C86.1962 69.2077 85.0262 69.269 84.2682 68.5942L83.8869 68.248L80.2368 72.3188C77.8706 74.9523 73.8042 75.1758 71.1619 72.8183L61.215 63.9363C58.5771 61.5744 58.3493 57.5212 60.7155 54.8877L64.3656 50.8169L63.98 50.4751C63.2219 49.8003 63.1562 48.6391 63.8398 47.881L88.1067 20.8404C88.7859 20.0867 89.9515 20.0254 90.7052 20.7002L97.5979 26.8523ZM59.9925 108.171C60.01 108.224 60.0319 108.272 60.0538 108.32L60.0582 108.329C60.0845 108.386 60.1152 108.439 60.1502 108.487L69.545 123.008C69.8912 123.539 70.5528 123.758 71.1444 123.543C71.736 123.328 72.0996 122.732 72.0208 122.106L69.786 104.964C69.7816 104.907 69.7729 104.846 69.7553 104.789L69.751 104.78V104.775C69.7378 104.727 69.7203 104.675 69.7028 104.622L38.5519 19.8019C37.9341 18.1192 36.0586 17.2516 34.3716 17.8695L30.7828 19.1797C29.0914 19.7975 28.2238 21.6642 28.8417 23.3512L59.9925 108.171ZM5.92876 114.534C4.89025 115.064 4.14095 115.721 3.65456 116.44C2.89649 117.579 2.9184 118.854 3.54501 119.845C4.03579 120.616 4.86396 121.203 5.92876 121.466V114.534ZM67.3278 106.953L63.3183 108.421L68.5722 116.536L67.3278 106.953ZM16.3883 110.468C17.0763 110.468 17.6415 111.028 17.6415 111.716C17.6415 112.404 17.0763 112.965 16.3883 112.965C15.6916 112.965 15.1307 112.404 15.1307 111.716C15.1307 111.028 15.6916 110.468 16.3883 110.468ZM65.6232 101.34L66.7143 104.311L62.0695 106.007L60.9784 103.04L65.6232 101.34ZM5.92876 97.7995C4.89025 98.3385 4.14095 98.9914 3.65456 99.7144C2.89649 100.849 2.9184 102.124 3.54501 103.115C4.03579 103.89 4.86396 104.473 5.92876 104.74V97.7995ZM34.5951 31.1948L60.0538 100.512L64.6986 98.8117L39.2399 29.499L34.5951 31.1948ZM16.3883 93.7375C17.0763 93.7375 17.6415 94.2984 17.6415 94.9863C17.6415 95.6786 17.0763 96.2352 16.3883 96.2352C15.6916 96.2352 15.1307 95.6786 15.1307 94.9863C15.1307 94.2984 15.6916 93.7375 16.3883 93.7375ZM5.92876 81.0738C4.89025 81.6084 4.14095 82.2613 3.65456 82.9843C2.89649 84.1192 2.9184 85.3944 3.54501 86.3847C4.03579 87.1603 4.86396 87.7474 5.92876 88.0103V81.0738ZM16.3883 77.0074C17.0763 77.0074 17.6415 77.5683 17.6415 78.2563C17.6415 78.9486 17.0763 79.5095 16.3883 79.5095C15.6916 79.5095 15.1307 78.9486 15.1307 78.2563C15.1307 77.5683 15.6916 77.0074 16.3883 77.0074ZM66.3769 52.6135L62.7268 56.6842C61.3553 58.2091 61.4867 60.5622 63.016 61.9294L72.9629 70.8114C74.4966 72.1786 76.854 72.0471 78.2255 70.5222L81.8756 66.4558L66.3769 52.6135ZM5.92876 64.3438C4.89025 64.8784 4.14095 65.5313 3.65456 66.2543C2.89649 67.3892 2.9184 68.6643 3.54501 69.6546C4.03579 70.4302 4.86396 71.0174 5.92876 71.2803V64.3438ZM66.4207 49.0378L85.4337 66.0177L91.2748 59.5062L72.2662 42.5307L66.4207 49.0378ZM16.3883 60.2774C17.0763 60.2774 17.6415 60.8383 17.6415 61.5262C17.6415 62.2186 17.0763 62.7751 16.3883 62.7751C15.6916 62.7751 15.1307 62.2186 15.1307 61.5262C15.1307 60.8383 15.6916 60.2774 16.3883 60.2774ZM83.8387 29.6348L98.6276 42.8418C99.1841 43.337 99.2323 44.1871 98.7328 44.7436C98.2376 45.2957 97.3831 45.3439 96.8267 44.8488L82.0378 31.6417L74.0671 40.5238L93.0758 57.4993L101.051 48.6172L99.7362 47.4472C99.1841 46.9521 99.1359 46.0976 99.6311 45.5455C100.131 44.9934 100.985 44.9452 101.537 45.4403L102.852 46.6103L108.557 40.2522L89.5483 23.2767L83.8387 29.6348ZM5.92876 47.9029C4.89025 48.4375 4.14095 49.0904 3.65456 49.8134C2.89649 50.9483 2.9184 52.2235 3.54501 53.2138C4.03579 53.9894 4.86396 54.5722 5.92876 54.8395V47.9029ZM16.3883 43.8365C17.0763 43.8365 17.6415 44.3974 17.6415 45.0854C17.6415 45.7777 17.0763 46.3386 16.3883 46.3386C15.6916 46.3386 15.1307 45.7777 15.1307 45.0854C15.1307 44.3974 15.6916 43.8365 16.3883 43.8365ZM5.92876 31.1729C4.89025 31.7075 4.14095 32.3604 3.65456 33.0834C2.89649 34.2183 2.9184 35.4934 3.54501 36.4881C4.03579 37.2593 4.86396 37.8465 5.92876 38.1094V31.1729ZM16.3883 27.1065C17.0763 27.1065 17.6415 27.6674 17.6415 28.3597C17.6415 29.0477 17.0763 29.6085 16.3883 29.6085C15.6916 29.6085 15.1307 29.0477 15.1307 28.3597C15.1307 27.6674 15.6916 27.1065 16.3883 27.1065ZM38.3109 26.9706L33.6661 28.6664L31.3744 22.4266C31.2692 22.133 31.4182 21.8132 31.7074 21.708L35.2962 20.3934C35.5898 20.2883 35.914 20.4373 36.0192 20.7308L38.3109 26.9706ZM5.92876 14.4428C4.89025 14.9774 4.14095 15.6303 3.65456 16.3533C2.89649 17.4926 2.9184 18.7678 3.54501 19.7537C4.03579 20.5293 4.86396 21.1164 5.92876 21.3794V14.4428ZM16.3883 10.3764C17.0763 10.3764 17.6415 10.9373 17.6415 11.6253C17.6415 12.3176 17.0763 12.8785 16.3883 12.8785C15.6916 12.8785 15.1307 12.3176 15.1307 11.6253C15.1307 10.9373 15.6916 10.3764 16.3883 10.3764Z" fill="black"/>
  </g>
</svg>