<?xml version="1.0" encoding="utf-8"?>
<svg width="126" height="132" viewBox="0 0 126 132" fill="none" xmlns="http://www.w3.org/2000/svg" id="email-signature-design-maroon" class="email signature professional branded corporate digital custom designs design branding communication" role="contentinfo">
  <desc>Custom-designed email signature by Maroon Digital Rise showcasing professional branding and contact details     Enhance your email communication with professional email signature design services by Maroon Digital Rise. We craft sleek and branded signatures to leave a lasting impression in every interaction.</desc>
  <title>Professional Email Signature Design Services by Maroon Digital Rise</title>
  <mask id="mask0_297_1017" style="mask-type:luminance" maskUnits="userSpaceOnUse" x="0" y="0" width="126" height="132">
    <path d="M0 0H125.284V132H0V0Z" fill="white"/>
  </mask>
  <g mask="url(#mask0_297_1017)">
    <path d="M124.164 21.758L121.162 17.1114C120.328 15.8346 119.022 14.9368 117.53 14.6103C116.031 14.2897 114.469 14.5695 113.18 15.3915L107.059 19.3152C106.522 18.4349 105.776 17.7119 104.878 17.2105C103.98 16.7033 102.966 16.441 101.94 16.4351H80.5083C80.4792 16.406 80.45 16.3768 80.415 16.3477L61.6478 0.478071C61.2864 0.169074 60.82 0 60.3419 0C59.8638 0 59.3974 0.169074 59.0359 0.478071L40.327 16.4351H18.1492C16.5576 16.441 15.0359 17.0706 13.9107 18.1842C12.7855 19.3036 12.1559 20.8194 12.1559 22.3994V40.4611L0.711305 50.2207C0.48976 50.4073 0.314856 50.6405 0.192424 50.9029C0.0699912 51.1652 0.00585938 51.4451 0.00585938 51.7366C0.00585938 51.7832 0.00585938 51.8299 0.00585938 51.8707V126.566C0.0116891 128.006 0.583043 129.388 1.60915 130.408C2.63525 131.423 4.02282 131.994 5.47452 132H115.215C116.661 131.994 118.054 131.423 119.075 130.408C120.101 129.388 120.678 128.006 120.678 126.566V51.7424C120.678 51.4334 120.608 51.1302 120.474 50.8562C120.334 50.5822 120.136 50.3374 119.891 50.1566L107.916 39.9422V38.9803L122.421 29.6929C123.71 28.8708 124.619 27.5707 124.946 26.084C125.272 24.5973 124.992 23.0407 124.164 21.758ZM89.4634 46.0347L84.5661 38.4672L108.866 22.9182L113.763 30.4858L89.4634 46.0347ZM81.9425 41.802L85.3298 47.0317L78.87 47.4631L81.9425 41.802ZM60.3477 4.63495L74.3051 16.4351H46.507L60.3477 4.63495ZM18.1492 20.4404H101.934C102.29 20.4404 102.639 20.5337 102.948 20.7203C103.252 20.901 103.502 21.1692 103.671 21.484L80.7007 36.1876C80.415 36.3684 80.1818 36.6191 80.0186 36.9164L73.6113 48.7516C73.4422 49.0547 73.3606 49.3929 73.3664 49.7427C73.3781 50.0867 73.4713 50.4248 73.6521 50.7221C73.8328 51.0195 74.0835 51.2643 74.3867 51.4392C74.6898 51.6083 75.0338 51.6958 75.3778 51.6958H75.5177L89.0028 50.7921L89.1136 50.7804L89.1777 50.7746C89.2593 50.763 89.3468 50.7455 89.4284 50.7221L89.4576 50.7105C89.5334 50.6872 89.6033 50.6638 89.6791 50.6289L89.7258 50.6055C89.8015 50.5706 89.8832 50.5297 89.9531 50.4831L103.905 41.5513V61.7003L60.3477 98.844L16.1728 61.1872V22.3994C16.1728 21.8805 16.3827 21.3791 16.7558 21.0118C17.1231 20.6445 17.6245 20.4404 18.1492 20.4404ZM12.1559 45.7315V57.7416L5.11305 51.7424L12.1559 45.7315ZM115.227 128.001H5.48035C5.09556 128.001 4.72827 127.849 4.46008 127.581C4.19189 127.313 4.03448 126.945 4.03448 126.566V56.0917L12.6514 63.4377C12.7797 63.5834 12.9254 63.7058 13.0887 63.8108L43.9359 90.1222L16.7675 113.291C16.3652 113.635 16.1145 114.125 16.0737 114.655C16.0329 115.186 16.202 115.705 16.5518 116.107C16.8958 116.509 17.3913 116.76 17.9219 116.801C18.4524 116.842 18.9829 116.673 19.3852 116.329L47.0259 92.7574L59.0359 102.995C59.3974 103.304 59.8638 103.479 60.3477 103.479C60.8258 103.479 61.2922 103.304 61.6537 102.995L73.6637 92.7574L101.304 116.329C101.503 116.498 101.736 116.626 101.987 116.708C102.237 116.789 102.505 116.824 102.768 116.801C103.03 116.783 103.287 116.708 103.526 116.591C103.759 116.474 103.969 116.311 104.138 116.107C104.313 115.909 104.441 115.681 104.523 115.431C104.61 115.18 104.639 114.918 104.622 114.655C104.598 114.393 104.528 114.136 104.406 113.903C104.289 113.67 104.12 113.46 103.922 113.291L76.7537 90.1222L116.667 56.0859V126.566C116.667 126.945 116.515 127.313 116.247 127.581C115.973 127.849 115.612 128.001 115.227 128.001ZM115.582 51.7424L107.927 58.2663V45.2127L115.582 51.7424ZM120.252 26.3289L117.145 28.3169L112.242 20.7494L115.355 18.7555C115.746 18.5107 116.218 18.4232 116.673 18.5223C117.127 18.6156 117.518 18.8896 117.775 19.2802L120.777 23.921C121.028 24.3058 121.115 24.7781 121.016 25.2328C120.917 25.6817 120.643 26.0782 120.252 26.3289ZM25.6643 35.9136C25.6643 35.3831 25.8742 34.8758 26.2531 34.5027C26.6262 34.1296 27.1393 33.9139 27.6698 33.9139H68.5507C69.0754 33.9255 69.571 34.1471 69.9383 34.5202C70.3056 34.8933 70.5096 35.3947 70.5096 35.9136C70.5096 36.4383 70.3056 36.9397 69.9383 37.3128C69.571 37.686 69.0754 37.9017 68.5507 37.9133H27.6698C27.1393 37.9133 26.6262 37.7035 26.2531 37.3303C25.8742 36.9514 25.6643 36.4441 25.6643 35.9136ZM68.0202 60.4176C72.3286 60.7033 79.628 60.5867 83.1377 60.5342L86.764 60.4759C87.3004 60.4643 87.8135 60.6683 88.1983 61.0356C88.5772 61.4088 88.7988 61.9102 88.8104 62.4407C88.8163 62.9712 88.6122 63.4843 88.2449 63.8633C87.8718 64.248 87.3645 64.4638 86.8282 64.4754L83.2018 64.5337C79.6396 64.5862 72.2295 64.7086 67.7578 64.4113C63.2803 64.114 60.8141 63.9507 58.8844 62.1084C57.112 60.4176 55.5787 59.5781 54.4651 59.6889C53.5731 59.9046 52.7627 60.3827 52.1506 61.0648C51.2411 61.8752 49.7136 63.2336 47.8712 62.2483C42.9623 59.6189 39.849 60.8316 38.5139 61.3505C38.0475 61.6245 37.5053 61.7353 36.9689 61.6711C36.4267 61.607 35.9253 61.368 35.5347 60.9948C34.4969 59.823 35.1091 58.7094 36.1119 56.8613C36.3859 56.3599 36.724 55.7361 37.1321 54.9665C40.0181 49.5036 39.575 47.2007 39.1902 46.8276C38.9803 46.6177 38.1407 46.6061 36.9572 47.2474C33.7215 48.9789 29.5296 54.64 31.2495 63.117C31.302 63.3735 31.302 63.6417 31.2495 63.8982C31.2029 64.1548 31.0979 64.3996 30.9522 64.6212C30.8064 64.8369 30.6199 65.0293 30.3983 65.175C30.1826 65.3208 29.9319 65.4199 29.6754 65.4724C29.5413 65.5015 29.4072 65.5132 29.2731 65.5132C28.8125 65.5132 28.3636 65.3499 28.0022 65.0584C27.6465 64.7669 27.3958 64.3588 27.3084 63.9099C26.3522 59.5839 26.7953 55.0714 28.5793 51.0195C29.9028 47.9645 32.1649 45.4109 35.0449 43.726C37.7676 42.2626 40.3737 42.3559 42.0178 43.9767C43.6677 45.5975 44.7463 49.078 40.7701 56.6689C43.6619 56.4298 46.5595 57.0303 49.1189 58.3888C49.2355 58.2896 49.3638 58.1789 49.4687 58.0856C51.1769 56.5698 55.1706 53.0192 61.6712 59.2283C62.4699 59.9862 63.9624 60.1495 68.0202 60.4176Z" fill="black"/>
  </g>
</svg>