<?xml version="1.0" encoding="utf-8"?>
<svg width="64" height="64" viewBox="0 0 64 64" fill="none" xmlns="http://www.w3.org/2000/svg" class="Multilingual Services Translation Icon Global Communication Language Support translate service, global communication, language tools" role="button" id="GoogleTranslate_icon_maroon">
  <title>Google Translate Icon</title>
  <desc>Scalable vector graphic (SVG) icon for Google Translate, representing multilingual translation services and tools for global communication. Google Translate icon, multilingual tool, language translation, translate logo</desc>
  <path d="M32 64C49.6731 64 64 49.6731 64 32C64 14.3269 49.6731 0 32 0C14.3269 0 0 14.3269 0 32C0 49.6731 14.3269 64 32 64Z" fill="#FFC61B"/>
  <path d="M63.4809 37.7672L47.9842 22.2706L42.0617 26.6517L30.3129 14.9028L15.625 41.3186L37.7836 63.4773C50.8254 61.0966 61.1066 50.8111 63.4809 37.7672Z" fill="#FFC61B"/>
  <path d="M27.1611 21.6382H46.2609C47.7338 21.6382 48.928 22.8322 48.928 24.3053V46.4302C48.928 47.9031 47.734 49.0973 46.2609 49.0973H33.6879L27.1611 21.6382Z" fill="#E6E6E6"/>
  <path d="M39.2491 42.3619L33.6879 49.0971L31.1562 41.3188L39.2491 42.3619Z" fill="#4254B7"/>
  <path d="M44.0009 31.0431H46.7999V29.6161H40.496V27.8247H38.3485V29.6161H34.8848V31.0431H42.356C42.1351 31.8623 41.437 34.0528 40.0458 35.1466C40.0458 35.1466 38.8681 33.8758 38.3486 32.7673H36.8395C36.8395 32.7673 37.6558 35.0187 39.0066 36.335L37.2748 38.136L38.0714 39.5907C38.0714 39.5907 39.4568 38.3438 40.0804 37.4432C40.0804 37.4432 43.2324 40.7337 44.0981 41.461L45.0334 40.318C45.0334 40.318 41.9021 37.4313 41.1886 36.0922C41.1885 36.0926 43.6835 33.6613 44.0009 31.0431Z" fill="#627D88"/>
  <path d="M39.2485 42.3617H17.7394C16.2665 42.3617 15.0723 41.1677 15.0723 39.6946V17.57C15.0723 16.0971 16.2663 14.9028 17.7394 14.9028H30.3125L39.2485 42.3617Z" fill="#4F8FF5"/>
  <path d="M24.7053 27.8935V29.7671H27.6356C27.2201 31.1083 25.9698 32.0827 24.4921 32.0827C22.6748 32.0827 21.2016 30.6095 21.2016 28.7922C21.2016 26.975 22.6747 25.5017 24.4918 25.5017C25.3411 25.5017 26.1127 25.8262 26.6964 26.3543L28.0714 24.8823C27.1282 24.0182 25.8717 23.4907 24.4917 23.4907C21.5638 23.4907 19.1904 25.8641 19.1904 28.792C19.1904 31.7198 21.5638 34.0932 24.4917 34.0932C27.4196 34.0932 29.7929 31.7198 29.7929 28.792C29.7929 28.4853 29.7647 28.1856 29.7143 27.8932H24.7053V27.8935Z" fill="#EEEEEE"/>
</svg>