<?xml version="1.0" encoding="utf-8"?>
<svg width="120" height="132" viewBox="0 0 120 132" fill="none" xmlns="http://www.w3.org/2000/svg" id="maroon-web-design" role="contentinfo" class="web UI/UX Maroon Digital creative website user-friendly websites Rise development design">
  <title>Innovative Web Design Solutions - Maroon Digital Rise</title>
  <desc>A visually stunning and user-friendly website design crafted by the experts at Maroon Digital Rise.       Explore Maroon Digital Rise’s web design expertise, offering tailored UI/UX solutions and visually captivating websites that enhance your brand’s online presence.</desc>
  <path fill-rule="evenodd" clip-rule="evenodd" d="M93.9406 83.4666C93.5411 83.4666 93.1572 83.3491 92.8125 83.1297C89.9138 81.2573 87.8377 77.2854 86.8584 75.0839C85.3229 71.629 84.3984 67.9469 84.3984 65.2284C84.3984 61.1467 85.5736 59.0158 87.3676 56.2268C87.7437 55.6314 88.4018 55.271 89.099 55.271H96.8941C97.5444 55.271 98.1633 55.5844 98.5472 56.1093C100.161 58.295 101.172 60.4886 101.54 62.6274C101.751 63.8025 101.751 64.9072 101.563 65.9178C101.352 68.3856 100.067 70.3128 98.931 72.0207C98.649 72.4359 98.3905 72.8276 98.1398 73.235C96.4476 75.9614 96.3222 77.6457 96.1812 79.5965C96.1342 80.2624 96.0872 80.9518 95.9775 81.6961C95.8757 82.3933 95.4291 82.9887 94.7867 83.2786C94.5203 83.4039 94.2226 83.4666 93.9406 83.4666ZM90.2428 59.3997C89.1147 61.2407 88.5271 62.6196 88.5271 65.2284C88.5271 67.3593 89.334 70.493 90.6267 73.4074C91.1673 74.6139 91.7548 75.7107 92.3659 76.6586C92.6558 75.0918 93.2434 73.2899 94.6379 71.0571C94.9199 70.5949 95.2098 70.1561 95.4996 69.7331C96.4946 68.2367 97.3564 66.9441 97.4504 65.5104C97.466 65.3694 97.4817 65.2597 97.4974 65.1814C97.6227 64.5781 97.8186 62.4942 95.813 59.3997H90.2428Z" fill="#212121"/>
  <path fill-rule="evenodd" clip-rule="evenodd" d="M96.8944 59.3995C96.7534 59.3995 96.6124 59.3838 96.4714 59.3603C95.3511 59.1253 94.6381 58.0285 94.8732 56.916L95.8368 52.2703H90.1491L91.1205 56.916C91.3556 58.0285 90.6348 59.1253 89.5223 59.3603C88.4099 59.5875 87.3131 58.8746 87.078 57.7621L85.5974 50.6329C85.4642 50.0218 85.6209 49.3872 86.0126 48.9093C86.4043 48.4236 86.9919 48.1494 87.6108 48.1494H98.3751C99.0018 48.1494 99.5894 48.4314 99.9811 48.9093C100.373 49.3951 100.522 50.0218 100.396 50.6329L98.9078 57.7621C98.7041 58.7335 97.8502 59.3995 96.8944 59.3995Z" fill="#212121"/>
  <path fill-rule="evenodd" clip-rule="evenodd" d="M98.3748 52.2704C97.2702 52.2704 96.3536 51.393 96.3144 50.2805L94.8259 6.02457C94.8259 6.00107 94.8259 5.97756 94.8259 5.95406C94.8259 4.94344 94.0033 4.12867 92.9926 4.12867C91.9899 4.12867 91.1673 4.94344 91.1673 5.95406C91.1673 5.97756 91.1673 6.00107 91.1673 6.02457L89.6787 50.2805C89.6396 51.4165 88.6838 52.3096 87.5478 52.2704C86.404 52.2312 85.5109 51.2833 85.5501 50.1395L87.0386 5.91489C87.0621 2.64799 89.7257 0 92.9926 0C96.2674 0 98.931 2.64799 98.9545 5.91489L100.443 50.1395C100.482 51.2833 99.5891 52.2312 98.4453 52.2704C98.4218 52.2704 98.3983 52.2704 98.3748 52.2704Z" fill="#212121"/>
  <mask id="mask0_291_426" style="mask-type:luminance" maskUnits="userSpaceOnUse" x="0" y="16" width="121" height="89">
    <path d="M0 16.0366H120.006V104.282H0V16.0366Z" fill="white"/>
  </mask>
  <g mask="url(#mask0_291_426)">
    <path fill-rule="evenodd" clip-rule="evenodd" d="M113.817 103.984H6.19686C2.78894 103.984 0.0234375 101.211 0.0234375 97.811V22.8995C0.0234375 19.4994 2.78894 16.7261 6.19686 16.7261H88.6684C89.8123 16.7261 90.7367 17.6505 90.7367 18.7943C90.7367 19.9303 89.8123 20.8547 88.6684 20.8547H6.19686C5.06872 20.8547 4.14427 21.7714 4.14427 22.8995V97.811C4.14427 98.9391 5.06872 99.8557 6.19686 99.8557H113.817C114.945 99.8557 115.861 98.9391 115.861 97.811V22.8995C115.861 21.7714 114.945 20.8547 113.817 20.8547H97.3253C96.1815 20.8547 95.2571 19.9303 95.2571 18.7943C95.2571 17.6505 96.1815 16.7261 97.3253 16.7261H113.817C117.217 16.7261 119.99 19.4994 119.99 22.8995V97.811C119.99 101.211 117.217 103.984 113.817 103.984Z" fill="#212121"/>
  </g>
  <path fill-rule="evenodd" clip-rule="evenodd" d="M48.7521 122.262C48.5719 122.262 48.3917 122.239 48.2115 122.191C47.1069 121.894 46.4645 120.758 46.7622 119.661L51.7526 101.376C52.0503 100.279 53.1863 99.6287 54.2831 99.9264C55.3877 100.232 56.0301 101.36 55.7324 102.465L50.742 120.742C50.4913 121.659 49.6609 122.262 48.7521 122.262Z" fill="#212121"/>
  <path fill-rule="evenodd" clip-rule="evenodd" d="M71.253 122.262C70.3442 122.262 69.5138 121.659 69.2631 120.742L64.2962 102.52C64.2335 102.332 64.2021 102.128 64.2021 101.916C64.2021 100.78 65.1266 99.856 66.2704 99.856C67.1948 99.856 68.0175 100.475 68.2603 101.376L73.2508 119.661C73.5485 120.758 72.8982 121.894 71.8014 122.192C71.6212 122.239 71.4332 122.262 71.253 122.262Z" fill="#212121"/>
  <mask id="mask1_291_426" style="mask-type:luminance" maskUnits="userSpaceOnUse" x="35" y="116" width="51" height="16">
    <path d="M35.0664 116.316H85.2059V132H35.0664V116.316Z" fill="white"/>
  </mask>
  <g mask="url(#mask1_291_426)">
    <path fill-rule="evenodd" clip-rule="evenodd" d="M82.8477 132.015H37.1581C36.0221 132.015 35.0977 131.091 35.0977 129.955V124.863C35.0977 121.157 38.1139 118.141 41.8273 118.141H78.1863C81.8919 118.141 84.9159 121.157 84.9159 124.863V129.955C84.9159 131.091 83.9915 132.015 82.8477 132.015ZM39.2263 127.895H80.7872V124.863C80.7872 123.429 79.6199 122.262 78.1863 122.262H41.8273C40.3936 122.262 39.2263 123.429 39.2263 124.863V127.895Z" fill="#212121"/>
  </g>
  <mask id="mask2_291_426" style="mask-type:luminance" maskUnits="userSpaceOnUse" x="0" y="88" width="121" height="7">
    <path d="M0 88.2375H120.006V94.2543H0V88.2375Z" fill="white"/>
  </mask>
  <g mask="url(#mask2_291_426)">
    <path fill-rule="evenodd" clip-rule="evenodd" d="M117.922 92.4368H2.08386C0.947883 92.4368 0.0234375 91.5123 0.0234375 90.3764C0.0234375 89.2326 0.947883 88.3081 2.08386 88.3081H117.922C119.066 88.3081 119.99 89.2326 119.99 90.3764C119.99 91.5123 119.066 92.4368 117.922 92.4368Z" fill="#212121"/>
  </g>
  <path fill-rule="evenodd" clip-rule="evenodd" d="M108.16 92.4369C107.016 92.4369 106.092 91.5125 106.092 90.3765V30.0759H97.6307C96.4948 30.0759 95.5703 29.1515 95.5703 28.0077C95.5703 26.8717 96.4948 25.9473 97.6307 25.9473H108.16C109.296 25.9473 110.22 26.8717 110.22 28.0077V90.3765C110.22 91.5125 109.296 92.4369 108.16 92.4369Z" fill="#212121"/>
  <path fill-rule="evenodd" clip-rule="evenodd" d="M11.8524 92.4369C10.7086 92.4369 9.78418 91.5125 9.78418 90.3765V28.0077C9.78418 26.8717 10.7086 25.9473 11.8524 25.9473H88.3621C89.4981 25.9473 90.4225 26.8717 90.4225 28.0077C90.4225 29.1515 89.4981 30.0759 88.3621 30.0759H13.9129V90.3765C13.9129 91.5125 12.9884 92.4369 11.8524 92.4369Z" fill="#212121"/>
  <path fill-rule="evenodd" clip-rule="evenodd" d="M77.5056 48.7293H21.0204C19.8844 48.7293 18.96 47.8049 18.96 46.6689V36.9857C18.96 35.8419 19.8844 34.9175 21.0204 34.9175H77.5056C78.6494 34.9175 79.5739 35.8419 79.5739 36.9857V46.6689C79.5739 47.8049 78.6494 48.7293 77.5056 48.7293ZM23.0886 44.6007H75.4452V39.0462H23.0886V44.6007Z" fill="#212121"/>
  <path fill-rule="evenodd" clip-rule="evenodd" d="M77.5038 83.4666H56.7821C55.6461 83.4666 54.7217 82.5422 54.7217 81.3984V54.4249C54.7217 53.2889 55.6461 52.3645 56.7821 52.3645H77.5038C78.6476 52.3645 79.5721 53.2889 79.5721 54.4249V81.3984C79.5721 82.5422 78.6476 83.4666 77.5038 83.4666ZM58.8504 79.338H75.4434V56.4853H58.8504V79.338Z" fill="#212121"/>
  <path fill-rule="evenodd" clip-rule="evenodd" d="M46.7247 64.4058H21.0204C19.8844 64.4058 18.96 63.4814 18.96 62.3376V54.4249C18.96 53.2889 19.8844 52.3645 21.0204 52.3645H46.7247C47.8607 52.3645 48.7851 53.2889 48.7851 54.4249V62.3376C48.7851 63.4814 47.8607 64.4058 46.7247 64.4058ZM23.0886 60.2771H44.6564V56.4853H23.0886V60.2771Z" fill="#212121"/>
  <path fill-rule="evenodd" clip-rule="evenodd" d="M46.7247 83.4664H21.0204C19.8844 83.4664 18.96 82.542 18.96 81.3982V69.9523C18.96 68.8163 19.8844 67.8918 21.0204 67.8918H46.7247C47.8607 67.8918 48.7851 68.8163 48.7851 69.9523V81.3982C48.7851 82.542 47.8607 83.4664 46.7247 83.4664ZM23.0886 79.3377H44.6564V72.0127H23.0886V79.3377Z" fill="#212121"/>
</svg>