<?xml version="1.0" encoding="utf-8"?>
<svg width="132" height="132" viewBox="0 0 132 132" fill="none" xmlns="http://www.w3.org/2000/svg" id="maroon-digital-banner" class="digital banner online Maroon Digital creative branding solutions design advertising Rise visuals" role="contentinfo">
  <desc>A vibrant and attention-grabbing digital banner designed for online advertising by Maroon Digital Rise.    Enhance your online presence with custom digital banners by Maroon Digital Rise, tailored to boost engagement and brand visibility  </desc>
  <title>Eye-Catching Digital Banners - Maroon Digital Rise</title>
  <mask id="mask0_291_427" style="mask-type:luminance" maskUnits="userSpaceOnUse" x="0" y="21" width="132" height="111">
    <path d="M0 21.2402H132V132H0V21.2402Z" fill="white"/>
  </mask>
  <g mask="url(#mask0_291_427)">
    <path d="M129.801 21.998H74.8026V26.4022H127.601V127.601H4.39848V26.4022H57.203V21.998H2.19924C0.883114 21.998 0 22.8812 0 24.203V129.801C0 131.122 0.883114 132 2.19924 132H129.801C131.122 132 132 131.122 132 129.801V24.203C132 22.8812 131.122 21.998 129.801 21.998Z" fill="black"/>
  </g>
  <mask id="mask1_291_427" style="mask-type:luminance" maskUnits="userSpaceOnUse" x="0" y="0" width="132" height="80">
    <path d="M0 0H132V79.5828H0V0Z" fill="white"/>
  </mask>
  <g mask="url(#mask1_291_427)">
    <path d="M0 0V4.39848H63.8007V35.1992H15.4004C14.0785 35.1992 13.2011 36.0823 13.2011 37.3985V77.0019C13.2011 78.318 14.0785 79.2011 15.4004 79.2011H116.6C117.921 79.2011 118.799 78.318 118.799 77.0019V37.3985C118.799 36.0823 117.921 35.1992 116.6 35.1992H68.1992V4.39848H132V0H0ZM114.4 74.8026H17.5996V39.5977H114.4V74.8026Z" fill="black"/>
  </g>
  <path d="M85.7989 68.1993H90.203C92.841 68.1993 94.6015 66.4387 94.6015 63.8008V59.4023C94.6015 56.7587 92.841 54.9981 90.203 54.9981H85.7989V50.5996H90.203V52.7989H94.6015V50.5996C94.6015 47.9617 92.841 46.2012 90.203 46.2012H85.7989C83.1609 46.2012 81.4004 47.9617 81.4004 50.5996V54.9981C81.4004 57.6418 83.1609 59.4023 85.7989 59.4023H90.203V63.8008H85.7989V61.6015H81.4004V63.8008C81.4004 66.4387 83.1609 68.1993 85.7989 68.1993Z" fill="black"/>
  <path d="M61.6016 68.1993H70.3985C73.0422 68.1993 74.8027 66.4387 74.8027 63.8008V50.5996C74.8027 47.9617 73.0422 46.2012 70.3985 46.2012H61.6016C60.2798 46.2012 59.4023 47.0786 59.4023 48.4004V66C59.4023 67.3218 60.2798 68.1993 61.6016 68.1993ZM63.8008 50.5996H70.3985L70.6207 63.8008H63.8008V50.5996Z" fill="black"/>
  <path d="M41.8026 61.6015H48.4003V68.1993H52.7988V48.4004C52.7988 47.0786 51.9214 46.2012 50.5996 46.2012H39.6034C38.2816 46.2012 37.3984 47.0786 37.3984 48.4004V68.1993H41.8026V61.6015ZM48.4003 50.5996V57.2031H41.8026V50.5996H48.4003Z" fill="black"/>
  <path d="M118.799 87.9981C118.799 86.6819 117.921 85.7988 116.6 85.7988H15.4004C14.0786 85.7988 13.2012 86.6819 13.2012 87.9981V105.603C13.2012 106.919 14.0786 107.803 15.4004 107.803H116.6C117.921 107.803 118.799 106.919 118.799 105.603V87.9981ZM114.4 103.398H17.5996V90.203H114.4V103.398Z" fill="black"/>
  <path d="M13.2012 116.6H35.1993V121.004H13.2012V116.6Z" fill="black"/>
  <path d="M96.8008 116.6H118.799V121.004H96.8008V116.6Z" fill="black"/>
  <path d="M39.6035 116.6H92.4023V121.004H39.6035V116.6Z" fill="black"/>
</svg>