<?xml version="1.0" encoding="utf-8"?>
<svg width="110" height="132" viewBox="0 0 110 132" fill="none" xmlns="http://www.w3.org/2000/svg" id="maroon-graphic-posters" role="contentinfo" class="graphic creative branding Maroon Digital impactful visuals design Rise posters solutions">
  <desc>A vibrant and eye-catching graphic poster designed to communicate impactful messages by Maroon Digital Rise.            Elevate your brand’s visibility with Maroon Digital Rise’s graphic posters, designed to captivate and engage your audience through innovative visuals.</desc>
  <title>Stunning Graphic Posters - Maroon Digital Rise</title>
  <mask id="mask0_291_429" style="mask-type:luminance" maskUnits="userSpaceOnUse" x="0" y="0" width="110" height="132">
    <path d="M0 0H109.839V132H0V0Z" fill="white"/>
  </mask>
  <g mask="url(#mask0_291_429)">
    <path fill-rule="evenodd" clip-rule="evenodd" d="M107.376 131.968H2.46296C1.07886 131.968 0 130.811 0 129.416V2.49985C0 1.11049 1.07886 0.0263672 2.46296 0.0263672H107.376C108.76 0.0263672 109.839 1.11049 109.839 2.49985V129.416C109.839 130.811 108.76 131.968 107.376 131.968ZM3.68918 128.258H106.223V3.81028H3.68918V128.258Z" fill="black"/>
  </g>
  <path fill-rule="evenodd" clip-rule="evenodd" d="M100.308 124.243H9.45703C8.45711 124.243 7.53613 123.39 7.53613 122.311V9.60452C7.53613 8.52566 8.45711 7.6731 9.45703 7.6731H100.308C101.381 7.6731 102.229 8.52566 102.229 9.60452V122.311C102.15 123.39 101.381 124.243 100.308 124.243ZM11.3779 120.533H98.5394V11.5359H11.3779V120.533Z" fill="black"/>
  <path fill-rule="evenodd" clip-rule="evenodd" d="M92.2344 68.0842H17.6035C16.5247 68.0842 15.6826 67.2316 15.6826 66.1528V18.646C15.6826 17.5619 16.5247 16.7146 17.6035 16.7146H92.2344C93.3133 16.7146 94.1553 17.5619 94.1553 18.646V66.2264C94.1553 67.3106 93.3133 68.0842 92.2344 68.0842ZM19.5244 64.295H90.3924V20.4196H19.5244V64.295Z" fill="black"/>
  <path fill-rule="evenodd" clip-rule="evenodd" d="M17.6033 68.0841C17.2928 68.0841 16.8349 67.9262 16.5244 67.7736C15.6824 67.2315 15.4508 65.9948 15.9876 65.1475L36.2018 34.9446C36.5123 34.4025 37.128 34.092 37.6648 34.092C38.2806 34.092 38.8174 34.4025 39.2752 34.7867L60.7998 65.0685C61.4892 65.9211 61.2577 67.0789 60.4156 67.6209C59.5683 68.2367 58.3369 68.0841 57.879 67.2315L37.8964 39.1916L19.2189 67.2315C18.9084 67.8525 18.219 68.0841 17.6033 68.0841Z" fill="black"/>
  <path fill-rule="evenodd" clip-rule="evenodd" d="M78.8624 68.084C78.3256 68.084 77.7099 67.7735 77.4046 67.3103L57.1852 39.1126L50.191 51.8589C49.6542 52.7115 48.5806 53.0168 47.5807 52.6326C46.7334 52.0905 46.4282 51.0116 46.8123 50.0065L55.4222 34.7129C55.7274 34.1709 56.2642 33.7078 56.88 33.7078C57.4957 33.7078 58.1851 33.9393 58.4956 34.4814L80.3991 65.1474C81.0149 65.9947 80.7833 67.2314 79.936 67.7735C79.6308 67.9261 79.3255 68.084 78.8624 68.084Z" fill="black"/>
  <path fill-rule="evenodd" clip-rule="evenodd" d="M77.9406 38.6495C74.2514 38.6495 71.4043 35.6392 71.4043 32.1605C71.4043 28.6082 74.4041 25.5979 77.9406 25.5979C81.3982 25.5979 84.398 28.4556 84.398 32.1605C84.3191 35.7918 81.3982 38.6495 77.9406 38.6495ZM77.9406 29.3029C76.325 29.3029 75.0935 30.6186 75.0935 32.1605C75.0935 33.7078 76.4039 34.9445 77.9406 34.9445C79.3984 34.9445 80.7088 33.6288 80.7088 32.1605C80.5509 30.6186 79.3984 29.3029 77.9406 29.3029Z" fill="black"/>
  <path fill-rule="evenodd" clip-rule="evenodd" d="M78.0939 79.8255H31.6713C30.5924 79.8255 29.7451 78.9729 29.7451 77.894C29.7451 76.8889 30.745 76.1152 31.6713 76.1152H78.0939C79.1675 76.1152 80.0148 76.9678 80.0148 78.0467C80.0148 79.1308 79.1675 79.8255 78.0939 79.8255Z" fill="black"/>
  <path fill-rule="evenodd" clip-rule="evenodd" d="M89.7772 88.2457H20.1406C19.0618 88.2457 18.2197 87.3931 18.2197 86.3142C18.2197 85.2301 19.0618 84.3828 20.1406 84.3828H89.7772C90.8508 84.3828 91.6981 85.2301 91.6981 86.3142C91.6981 87.3931 90.6982 88.2457 89.7772 88.2457Z" fill="black"/>
  <path fill-rule="evenodd" clip-rule="evenodd" d="M92.2344 115.28H17.6035C16.5247 115.28 15.6826 114.433 15.6826 113.349V96.3553C15.6826 95.2711 16.5247 94.4238 17.6035 94.4238H92.2344C93.3133 94.4238 94.1553 95.2711 94.1553 96.3553V113.428C94.1553 114.433 93.3133 115.28 92.2344 115.28ZM19.5244 111.496H90.3924V98.2077H19.5244V111.496Z" fill="black"/>
</svg>