<?xml version="1.0" encoding="utf-8"?>
<svg width="90" height="132" viewBox="0 0 90 132" fill="none" xmlns="http://www.w3.org/2000/svg" id="maroon-invitation-card" class="invitation card creative Maroon Digital event personalized designs design branding Rise invitations" role="contentinfo">
  <desc> A beautifully designed invitation card showcasing creative elements and personalized branding by Maroon Digital Rise.             Maroon Digital Rise creates elegant and personalized invitation cards, blending creativity and branding to leave a lasting impression for your events.
Category: Design &amp; Editing Services</desc>
  <title>Elegant Invitation Card Designs - Maroon Digital Rise</title>
  <mask id="mask0_291_428" style="mask-type:luminance" maskUnits="userSpaceOnUse" x="0" y="0" width="90" height="132">
    <path d="M0 0H89.4917V132H0V0Z" fill="white"/>
  </mask>
  <g mask="url(#mask0_291_428)">
    <path d="M88.8656 11.2695C88.4508 10.8546 87.9484 10.6443 87.3583 10.6443H78.8345V2.13216C78.8345 1.82252 78.7702 1.52456 78.6417 1.24413C78.5132 0.963705 78.3321 0.724173 78.1042 0.519693C77.8705 0.315214 77.6018 0.175001 77.3038 0.0873664C77.0117 -0.000266397 76.7079 -0.0236366 76.4041 0.0231015L1.83351 10.6677V10.7028C1.31355 10.7729 0.875379 11.0065 0.530687 11.398C0.180151 11.7894 0.00488281 12.2509 0.00488281 12.7768V129.867C0.00488281 130.154 0.0574642 130.422 0.162624 130.685C0.273627 130.948 0.425525 131.176 0.624163 131.375C0.828641 131.573 1.05649 131.731 1.31939 131.836C1.57645 131.947 1.85104 132 2.13147 132H87.3583C87.6388 132 87.9134 131.947 88.1763 131.836C88.4333 131.731 88.667 131.573 88.8656 131.375C89.0643 131.176 89.222 130.948 89.3272 130.685C89.4382 130.422 89.4908 130.154 89.4908 129.867V12.7768C89.4908 12.1867 89.2804 11.6843 88.8656 11.2695ZM74.5755 10.6443H32.1139L74.5755 4.58591V10.6443ZM85.2259 127.741H4.26389V14.9033H85.2259V127.741Z" fill="black"/>
  </g>
  <path d="M14.9207 53.2229C15.207 53.2287 15.4874 53.1703 15.7562 53.0535L24.6481 49.2443C22.4222 57.0145 21.3121 64.9425 21.3121 73.0281V74.5179C21.3121 74.921 21.4173 75.2949 21.6276 75.6338C21.8379 75.9785 22.1242 76.2414 22.4864 76.4225C22.8487 76.5978 23.2284 76.6737 23.6315 76.6387C24.0346 76.5978 24.3969 76.4634 24.7182 76.218L31.7639 70.9366L36.8467 76.0194C37.2615 76.4342 37.7639 76.6445 38.354 76.6445C38.6403 76.6445 38.909 76.5919 39.1719 76.4809C39.5692 76.3173 39.8847 76.0544 40.1242 75.6981C40.3638 75.3417 40.4864 74.9444 40.4864 74.5179V67.3086C40.4981 60.3621 41.4387 53.5325 43.3082 46.8373H46.1885C48.0522 53.5325 48.9928 60.3621 49.0103 67.3086V74.5179C49.0103 74.9444 49.1271 75.3417 49.3667 75.6981C49.6062 76.0544 49.9217 76.3173 50.3248 76.4809C50.5819 76.5919 50.8564 76.6445 51.1369 76.6445C51.7269 76.6445 52.2294 76.4342 52.6442 76.0194L57.7328 70.9366L64.7727 76.218C65.0999 76.4634 65.4621 76.5978 65.8594 76.6387C66.2625 76.6737 66.6422 76.5978 67.0045 76.4225C67.3667 76.2414 67.6529 75.9785 67.8633 75.6338C68.0794 75.2949 68.1846 74.921 68.1846 74.5179V73.0281C68.1846 64.9425 67.0687 57.0145 64.8428 49.2443L73.7347 53.0535C74.0035 53.1703 74.2839 53.2287 74.576 53.2229C74.9967 53.2229 75.4115 53.182 75.8204 53.1002C76.2352 53.0184 76.6325 52.9016 77.0239 52.738C77.4095 52.5802 77.7776 52.3816 78.1281 52.1479C78.4728 51.9142 78.8 51.6513 79.0979 51.3534C79.39 51.0612 79.6588 50.7341 79.8925 50.3894C80.1262 50.0388 80.319 49.6708 80.4825 49.2852C80.6403 48.8938 80.763 48.4965 80.8448 48.0875C80.9266 47.6727 80.9675 47.2579 80.9675 46.8373V25.5481C80.9675 25.1275 80.9266 24.7127 80.8448 24.3037C80.763 23.8889 80.6403 23.4916 80.4825 23.106C80.319 22.7146 80.1262 22.3465 79.8925 22.0018C79.6588 21.6513 79.39 21.33 79.0979 21.032C78.8 20.7341 78.4728 20.4712 78.1281 20.2375C77.7776 20.0038 77.4095 19.811 77.0239 19.6474C76.6325 19.4897 76.2352 19.367 75.8204 19.2852C75.4115 19.2034 74.9967 19.1625 74.576 19.1625C74.2839 19.1625 74.0035 19.2209 73.7347 19.3319L53.8711 27.8499C53.2751 27.1255 52.5449 26.5588 51.6977 26.1615C50.8448 25.7584 49.9509 25.5539 49.0103 25.5481H40.4864C39.5458 25.5539 38.652 25.7526 37.799 26.1557C36.946 26.5588 36.2216 27.1197 35.6198 27.8441L15.7562 19.3261C15.4874 19.2151 15.207 19.1567 14.9207 19.1625C14.5001 19.1625 14.0853 19.2034 13.6705 19.2852C13.2615 19.367 12.8584 19.4897 12.4728 19.6474C12.0814 19.811 11.7133 20.0038 11.3686 20.2375C11.0181 20.4712 10.6968 20.7341 10.3988 21.032C10.1008 21.33 9.83795 21.6513 9.60425 22.0018C9.37056 22.3465 9.17193 22.7146 9.01419 23.106C8.8506 23.4916 8.72792 23.8889 8.64612 24.3037C8.56433 24.7127 8.52344 25.1275 8.52344 25.5481V46.8373C8.52344 47.2579 8.56433 47.6727 8.64612 48.0875C8.72792 48.4965 8.8506 48.8938 9.01419 49.2852C9.17193 49.6708 9.37056 50.0388 9.60425 50.3894C9.83795 50.7341 10.1008 51.0612 10.3988 51.3534C10.6968 51.6513 11.0181 51.9142 11.3686 52.1479C11.7133 52.3816 12.0814 52.5802 12.4728 52.738C12.8584 52.9016 13.2615 53.0184 13.6705 53.1002C14.0853 53.182 14.5001 53.2229 14.9207 53.2229ZM36.2216 67.3086V69.3767L33.4699 66.625C33.096 66.2511 32.6403 66.0408 32.1145 66.0057C31.5828 65.9648 31.1096 66.1051 30.6831 66.4264L25.6179 70.2239C25.8925 62.2901 27.2888 54.5666 29.8009 47.0359L35.6198 44.5471C36.5079 45.6046 37.6179 46.2998 38.9616 46.6328C37.1505 53.4098 36.2391 60.2979 36.2216 67.3086ZM63.873 70.2239L58.8078 66.4264C58.3871 66.1051 57.9081 65.9648 57.3823 66.0057C56.8506 66.0408 56.4008 66.2511 56.0268 66.625L53.2693 69.3767V67.3086C53.2518 60.2979 52.3404 53.404 50.5351 46.627C51.873 46.294 52.9889 45.5929 53.8711 44.5354L59.6899 47.0301C62.208 54.5608 63.5984 62.2901 63.873 70.2239ZM74.9382 23.4507C75.4524 23.5384 75.873 23.7837 76.206 24.181C76.539 24.5724 76.7084 25.0281 76.7084 25.5481V46.8373C76.7084 47.3573 76.539 47.8129 76.206 48.2102C75.873 48.6075 75.4524 48.847 74.9382 48.9347L55.39 40.5627C55.39 40.5277 55.4017 40.4926 55.4017 40.4517V31.9337C55.4017 31.8986 55.39 31.8636 55.39 31.8227L74.9382 23.4507ZM38.354 31.9337C38.354 31.6533 38.4066 31.3845 38.5176 31.1216C38.6228 30.8587 38.7805 30.6309 38.9791 30.4322C39.1778 30.2277 39.4115 30.0758 39.6685 29.9707C39.9314 29.8597 40.2002 29.8071 40.4864 29.8071H49.0103C49.2907 29.8071 49.5595 29.8597 49.8224 29.9707C50.0853 30.0758 50.3131 30.2277 50.5118 30.4322C50.7162 30.6309 50.8681 30.8587 50.9791 31.1216C51.0843 31.3845 51.1369 31.6533 51.1369 31.9337V40.4517C51.1369 40.7321 51.0843 41.0067 50.9791 41.2638C50.8681 41.5267 50.7162 41.7545 50.5118 41.959C50.3131 42.1576 50.0853 42.3095 49.8224 42.4205C49.5595 42.5257 49.2907 42.5783 49.0103 42.5783H40.4864C40.2002 42.5783 39.9314 42.5257 39.6685 42.4205C39.4115 42.3095 39.1778 42.1576 38.9791 41.959C38.7805 41.7545 38.6228 41.5267 38.5176 41.2638C38.4066 41.0067 38.354 40.7321 38.354 40.4517V31.9337ZM12.7883 25.5481C12.7883 25.0281 12.9519 24.5724 13.2849 24.181C13.6237 23.7837 14.0444 23.5384 14.5526 23.4507L34.1067 31.8227C34.1067 31.8636 34.1067 31.8986 34.1067 31.9337V40.4517C34.1067 40.4926 34.1067 40.5277 34.1067 40.5627L14.5526 48.9347C14.0444 48.847 13.6237 48.6075 13.2849 48.2102C12.9519 47.8129 12.7883 47.3573 12.7883 46.8373V25.5481Z" fill="black"/>
  <path d="M10.6559 123.482H78.835C79.1213 123.482 79.39 123.43 79.6529 123.319C79.9158 123.213 80.1437 123.062 80.3423 122.857C80.541 122.658 80.6987 122.431 80.8039 122.168C80.9149 121.911 80.9675 121.636 80.9675 121.356V83.0304C80.9675 82.75 80.9149 82.4754 80.8039 82.2183C80.6987 81.9554 80.541 81.7276 80.3423 81.5289C80.1437 81.3245 79.9158 81.1726 79.6529 81.0674C79.39 80.9564 79.1213 80.9038 78.835 80.9038H10.6559C10.3754 80.9038 10.1008 80.9564 9.84379 81.0674C9.58089 81.1726 9.3472 81.3245 9.14856 81.5289C8.94992 81.7276 8.79802 81.9554 8.68702 82.2183C8.58186 82.4754 8.52344 82.75 8.52344 83.0304V121.356C8.52344 121.636 8.58186 121.911 8.68702 122.168C8.79802 122.431 8.94992 122.658 9.14856 122.857C9.3472 123.062 9.58089 123.213 9.84379 123.319C10.1008 123.43 10.3754 123.482 10.6559 123.482ZM12.7883 85.1628H76.7084V119.223H12.7883V85.1628Z" fill="black"/>
  <path d="M68.1846 91.5483H72.4436V95.8073H68.1846V91.5483Z" fill="black"/>
  <path d="M17.0469 91.5483H63.9193V95.8073H17.0469V91.5483Z" fill="black"/>
  <path d="M17.0469 100.066H25.5707V104.32H17.0469V100.066Z" fill="black"/>
  <path d="M29.8311 100.066H72.4445V104.32H29.8311V100.066Z" fill="black"/>
  <path d="M17.0469 108.579H51.1365V112.838H17.0469V108.579Z" fill="black"/>
  <path d="M55.4023 108.579H59.6614V112.838H55.4023V108.579Z" fill="black"/>
  <path d="M63.9199 108.579H72.4438V112.838H63.9199V108.579Z" fill="black"/>
</svg>