<?xml version="1.0" encoding="utf-8"?>
<svg width="108" height="132" viewBox="0 0 108 132" fill="none" xmlns="http://www.w3.org/2000/svg" role="contentinfo" id="maroon-ebook-design" class="e-book digital Maroon Digital creative professional layout design content Rise branding">
  <title>Professional E-Book Designs - Maroon Digital Rise</title>
  <desc>A sleek and modern e-book layout designed for impactful storytelling and branding by Maroon Digital Rise.  A sleek and modern e-book layout designed for impactful storytelling and branding by Maroon Digital Rise.     </desc>
  <mask id="mask0_291_423" style="mask-type:luminance" maskUnits="userSpaceOnUse" x="0" y="0" width="108" height="132">
    <path d="M0 0H107.316V132H0V0Z" fill="white"/>
  </mask>
  <g mask="url(#mask0_291_423)">
    <path d="M7.00582 131.669H100.31C104.183 131.669 107.322 128.53 107.322 124.663V7.33664C107.327 3.46929 104.183 0.330566 100.31 0.330566H7.00582C3.13286 0.330566 -0.00585938 3.46929 -0.00585938 7.33664V124.663C-0.00585938 128.53 3.13286 131.669 7.00582 131.669ZM38.4883 127.976C36.067 127.976 34.1053 126.02 34.1053 123.598C34.1053 121.183 36.067 119.221 38.4883 119.221C40.904 119.221 42.8657 121.183 42.8657 123.598C42.8657 126.02 40.904 127.976 38.4883 127.976ZM58.0493 126.905C58.0493 127.505 57.5504 127.976 56.9507 127.976H50.365C49.7653 127.976 49.2664 127.505 49.2664 126.905V120.325C49.2664 119.72 49.7653 119.221 50.365 119.221H56.9507C57.5504 119.221 58.0493 119.72 58.0493 120.325V126.905ZM68.833 127.976C66.4117 127.976 64.45 126.02 64.45 123.598C64.45 121.183 66.4117 119.221 68.833 119.221C71.2487 119.221 73.2104 121.183 73.2104 123.598C73.2104 126.02 71.2487 127.976 68.833 127.976ZM9.81946 8.11011H97.4962V115.454H9.81946V8.11011Z" fill="black"/>
  </g>
  <path d="M67.9195 121.312C67.5944 121.11 67.1797 121.351 67.1797 121.732V125.465C67.1797 125.852 67.5944 126.087 67.9195 125.891L71.1479 124.019C71.473 123.834 71.473 123.358 71.1479 123.173L67.9195 121.312Z" fill="black"/>
  <path d="M39.3572 121.312L36.1344 123.173C35.8094 123.358 35.8094 123.834 36.1344 124.019L39.3572 125.891C39.6823 126.087 40.0971 125.852 40.0971 125.471V121.732C40.0971 121.351 39.6823 121.11 39.3572 121.312Z" fill="black"/>
  <path d="M24.6949 65.5882V27.3631L23.5963 27.1445H19.4375V71.5014H47.6075C34.7388 65.4537 25.558 65.734 24.6949 65.5882Z" fill="black"/>
  <path d="M87.8783 71.5014V27.1445H83.7475L82.649 27.3631V65.5882C81.5785 65.7732 72.8237 65.3753 59.7363 71.5014H87.8783Z" fill="black"/>
  <path d="M -25.558 74.217 C -17.173 74.8 -7.667 78.18 -0.375 82.109 L -0.375 37.718 L -25.558 29.681 L -25.558 74.217 Z" fill="black"/>
  <path d="M79.9248 18.4907L54.7422 26.5001V70.8961C62.0846 66.9615 71.5624 63.6098 79.9248 63.0269V18.4907Z" fill="black"/>
  <path d="M53.8004 71.4229C53.7724 71.4397 53.7387 71.4565 53.7275 71.4677C53.778 71.4341 53.7444 71.4565 53.806 71.4229H53.8004Z" fill="black"/>
  <path d="M53.7281 71.4678C53.7113 71.4734 53.6945 71.479 53.6777 71.4846L53.6553 71.5014L53.6609 71.507C53.6609 71.507 53.7169 71.4734 53.7281 71.4678Z" fill="black"/>
  <path d="M52.876 71.0698C53.0778 71.1763 53.2179 71.2548 53.6214 71.479C53.5373 71.4341 53.2515 71.2716 52.876 71.0698Z" fill="black"/>
  <path d="M52.8538 71.053C52.7641 71.0081 52.7024 70.9745 52.6016 70.9185C52.7024 70.9745 52.7809 71.0137 52.8538 71.053Z" fill="black"/>
  <path d="M54.7427 70.9072V70.896C54.171 71.2043 53.7898 71.4172 53.6777 71.4789C53.7058 71.4789 53.7618 71.4565 53.7898 71.4285C54.2494 71.1762 54.1373 71.2323 54.7427 70.9072Z" fill="black"/>
  <path d="M72.7783 81.3604H87.889V84.0955H72.7783V81.3604Z" fill="black"/>
  <path d="M53.8955 81.3604H67.1118V84.0955H53.8955V81.3604Z" fill="black"/>
  <path d="M33.125 81.3604H48.2301V84.0955H33.125V81.3604Z" fill="black"/>
  <path d="M19.4434 81.3604H29.4312V84.0955H19.4434V81.3604Z" fill="black"/>
  <path d="M78.333 91.8579H87.8837V94.5931H78.333V91.8579Z" fill="black"/>
  <path d="M63.0596 91.8579H72.6102V94.5931H63.0596V91.8579Z" fill="black"/>
  <path d="M42.2432 91.8579H59.3436V94.5931H42.2432V91.8579Z" fill="black"/>
  <path d="M19.4434 91.8579H36.5438V94.5931H19.4434V91.8579Z" fill="black"/>
  <path d="M72.6777 102.356H87.8893V105.091H72.6777V102.356Z" fill="black"/>
  <path d="M53.666 102.356H66.9719V105.091H53.666V102.356Z" fill="black"/>
  <path d="M38.46 102.356H49.8715V105.091H38.46V102.356Z" fill="black"/>
  <path d="M19.4434 102.356H32.7549V105.091H19.4434V102.356Z" fill="black"/>
</svg>