<?xml version="1.0" encoding="utf-8"?>
<svg width="148" height="132" viewBox="0 0 148 132" fill="none" xmlns="http://www.w3.org/2000/svg" class="UI/UX user interface experience Maroon Digital creative web design Rise mockups" role="contentinfo" id="maroon-ui-ux-mockups">
  <desc>A detailed UI/UX mockup showcasing intuitive design and user-focused elements by Maroon Digital Rise.    Discover Maroon Digital Rise’s expertise in creating seamless UI/UX mockups that prioritize user experience and brand consistency</desc>
  <title>Seamless UI/UX Mockups - Maroon Digital Rise</title>
  <mask id="mask0_291_425" style="mask-type:luminance" maskUnits="userSpaceOnUse" x="25" y="0" width="96" height="132">
    <path d="M25.0898 0H120.121V132H25.0898V0Z" fill="white"/>
  </mask>
  <g mask="url(#mask0_291_425)">
    <path d="M108.733 132.053H37.2347C36.5055 132.053 35.783 131.98 35.0671 131.841C34.3512 131.695 33.6551 131.483 32.9856 131.204C32.3095 130.926 31.6665 130.581 31.0633 130.177C30.4534 129.773 29.8966 129.315 29.3796 128.798C28.8625 128.281 28.4051 127.724 27.9941 127.115C27.5898 126.511 27.2451 125.868 26.9667 125.199C26.6882 124.523 26.4761 123.827 26.3369 123.117C26.1911 122.401 26.1182 121.679 26.1182 120.95V11.2027C26.1182 10.4735 26.1911 9.75099 26.3369 9.03507C26.4761 8.31916 26.6882 7.62313 26.9667 6.95362C27.2451 6.27748 27.5898 5.64111 27.9941 5.03126C28.4051 4.42803 28.8625 3.86458 29.3796 3.34753C29.8966 2.83711 30.4534 2.37309 31.0633 1.96873C31.6665 1.56437 32.3095 1.21968 32.9856 0.941265C33.6551 0.662853 34.3512 0.450731 35.0671 0.311525C35.783 0.165691 36.5055 0.0927734 37.2347 0.0927734H108.733C109.463 0.0927734 110.185 0.165691 110.901 0.311525C111.617 0.450731 112.313 0.662853 112.989 0.941265C113.659 1.21968 114.302 1.56437 114.905 1.96873C115.515 2.37309 116.078 2.83711 116.589 3.34753C117.106 3.86458 117.57 4.42803 117.974 5.03126C118.378 5.64111 118.723 6.27748 119.001 6.95362C119.28 7.62313 119.492 8.31916 119.638 9.03507C119.777 9.75099 119.85 10.4735 119.85 11.2027V120.95C119.85 121.679 119.777 122.401 119.638 123.117C119.492 123.833 119.28 124.523 119.001 125.199C118.723 125.875 118.378 126.511 117.974 127.115C117.57 127.724 117.106 128.281 116.589 128.798C116.071 129.315 115.515 129.773 114.905 130.177C114.302 130.588 113.659 130.926 112.982 131.204C112.313 131.483 111.617 131.695 110.901 131.841C110.185 131.98 109.463 132.053 108.733 132.053ZM37.2347 3.09564C36.7044 3.09564 36.1741 3.14867 35.6571 3.25473C35.1334 3.36079 34.623 3.51325 34.1324 3.71212C33.6419 3.91761 33.1712 4.16951 32.7271 4.46118C32.2896 4.75947 31.8786 5.09754 31.5008 5.46876C31.1229 5.8466 30.7849 6.25759 30.4932 6.70172C30.1949 7.13922 29.943 7.60987 29.7441 8.10041C29.5386 8.59094 29.3862 9.10136 29.2801 9.61841C29.1741 10.1421 29.121 10.6724 29.121 11.2027V120.956C29.121 121.487 29.1741 122.017 29.2801 122.534C29.3862 123.058 29.5386 123.561 29.7441 124.059C29.943 124.549 30.1949 125.013 30.4932 125.457C30.7849 125.901 31.1229 126.306 31.5008 126.684C31.8786 127.061 32.2896 127.4 32.7271 127.691C33.1712 127.99 33.6419 128.241 34.1324 128.44C34.623 128.646 35.1334 128.798 35.6571 128.904C36.1741 129.004 36.7044 129.057 37.2347 129.057H108.733C109.264 129.057 109.794 129.004 110.318 128.904C110.841 128.798 111.345 128.646 111.836 128.44C112.333 128.241 112.797 127.99 113.241 127.691C113.685 127.4 114.096 127.061 114.467 126.684C114.845 126.306 115.183 125.901 115.481 125.457C115.773 125.013 116.025 124.549 116.231 124.059C116.429 123.561 116.589 123.058 116.688 122.534C116.794 122.017 116.847 121.487 116.847 120.956V11.2027C116.847 10.6658 116.794 10.1421 116.688 9.61841C116.589 9.09473 116.429 8.59094 116.231 8.10041C116.025 7.60324 115.773 7.13922 115.481 6.69509C115.183 6.25759 114.845 5.8466 114.467 5.46876C114.096 5.09092 113.685 4.75947 113.241 4.46118C112.797 4.16288 112.333 3.91761 111.836 3.71212C111.345 3.50662 110.841 3.35416 110.318 3.2481C109.794 3.14867 109.264 3.09564 108.733 3.09564H37.2347Z" fill="black"/>
  </g>
  <path d="M111.206 114.221H34.7684C34.3508 114.221 33.9995 114.076 33.7078 113.784C33.4095 113.486 33.2637 113.134 33.2637 112.717V19.429C33.2637 19.018 33.4095 18.6601 33.7078 18.3684C33.9995 18.0767 34.3508 17.9309 34.7684 17.9309H111.206C111.623 17.9309 111.974 18.0767 112.273 18.3684C112.564 18.6601 112.71 19.018 112.71 19.429V112.717C112.71 113.134 112.564 113.486 112.273 113.784C111.974 114.076 111.623 114.221 111.206 114.221ZM36.2732 111.219H109.707V20.9338H36.2732V111.219Z" fill="black"/>
  <path d="M84.1996 12.2433H61.7676C61.3567 12.2433 60.9987 12.0975 60.707 11.8058C60.4154 11.5075 60.2695 11.1562 60.2695 10.7386C60.2695 10.3276 60.4154 9.97628 60.707 9.67798C60.9987 9.38631 61.3567 9.24048 61.7676 9.24048H84.1996C84.6172 9.24048 84.9686 9.38631 85.2602 9.67798C85.5585 9.97628 85.7044 10.3276 85.7044 10.7386C85.7044 11.1562 85.5585 11.5075 85.2602 11.8058C84.9686 12.0975 84.6172 12.2433 84.1996 12.2433Z" fill="black"/>
  <path d="M56.2457 12.2433H53.6737C53.2561 12.2433 52.9047 12.0975 52.6131 11.8058C52.3148 11.5075 52.1689 11.1562 52.1689 10.7386C52.1689 10.3276 52.3148 9.97628 52.6131 9.67798C52.9047 9.38631 53.2561 9.24048 53.6737 9.24048H56.2457C56.6633 9.24048 57.0146 9.38631 57.3063 9.67798C57.6046 9.97628 57.7504 10.3276 57.7504 10.7386C57.7504 11.1562 57.6046 11.5075 57.3063 11.8058C57.0146 12.0975 56.6633 12.2433 56.2457 12.2433Z" fill="black"/>
  <path d="M72.9828 127.32C72.2139 127.32 71.4715 127.174 70.7622 126.876C70.0529 126.584 69.4232 126.167 68.8796 125.623C68.336 125.08 67.9184 124.456 67.6267 123.747C67.3285 123.031 67.1826 122.295 67.1826 121.527C67.1826 120.758 67.3285 120.022 67.6267 119.312C67.9184 118.603 68.336 117.973 68.8796 117.43C69.4232 116.886 70.0529 116.469 70.7622 116.177C71.4715 115.879 72.2139 115.733 72.9828 115.733C73.7518 115.733 74.4942 115.879 75.2035 116.177C75.9128 116.469 76.5359 116.886 77.0861 117.43C77.6297 117.973 78.0473 118.603 78.3389 119.312C78.6372 120.022 78.7831 120.758 78.7831 121.527C78.7831 122.295 78.6306 123.031 78.3389 123.741C78.0407 124.45 77.623 125.08 77.0795 125.623C76.5359 126.167 75.9128 126.584 75.2035 126.876C74.4942 127.174 73.7518 127.32 72.9828 127.32ZM72.9828 118.736C72.6116 118.736 72.2537 118.809 71.9156 118.948C71.5709 119.087 71.266 119.293 71.0075 119.551C70.7423 119.816 70.5434 120.115 70.3976 120.459C70.2584 120.797 70.1855 121.155 70.1855 121.527C70.1855 121.898 70.2584 122.249 70.3976 122.594C70.5434 122.938 70.7423 123.237 71.0075 123.502C71.266 123.76 71.5709 123.966 71.909 124.105C72.2537 124.244 72.6116 124.317 72.9828 124.317C73.3474 124.317 73.7054 124.244 74.0501 124.105C74.3948 123.966 74.6931 123.76 74.9582 123.502C75.2168 123.237 75.4223 122.938 75.5615 122.594C75.7073 122.256 75.7736 121.898 75.7736 121.527C75.7736 121.155 75.7073 120.804 75.5615 120.459C75.4223 120.121 75.2168 119.816 74.9582 119.558C74.6931 119.293 74.3948 119.094 74.0501 118.948C73.712 118.809 73.3541 118.736 72.9828 118.736Z" fill="black"/>
  <path d="M62.6288 41.4635C61.5881 40.9995 60.7727 40.2835 60.1695 39.3224C59.5729 38.3545 59.2945 37.3072 59.3409 36.1737V27.523C59.3343 27.2446 59.4337 27.0126 59.626 26.8137C59.8182 26.6083 60.0502 26.5088 60.3286 26.5154C60.607 26.5154 60.8457 26.6149 61.0379 26.8071C61.2368 27.006 61.3362 27.238 61.3362 27.5164V36.2333C61.3097 37.0354 61.5085 37.7845 61.9394 38.4672C62.3305 39.0771 62.8608 39.5345 63.5237 39.846C64.929 40.489 66.3277 40.489 67.733 39.846C68.3959 39.5345 68.9196 39.0771 69.3173 38.4672C69.7416 37.7845 69.947 37.0354 69.9205 36.2333V27.523C69.9139 27.2446 70.0067 27.0126 70.2056 26.8137C70.3912 26.6083 70.6298 26.5088 70.9082 26.5154C71.1866 26.5154 71.4186 26.6149 71.6175 26.8071C71.8164 27.006 71.9158 27.238 71.9158 27.5164V36.167C71.9556 37.3668 71.6507 38.4672 70.9944 39.4682C70.3978 40.3565 69.609 41.0193 68.6345 41.4635C67.68 41.901 66.679 42.1197 65.625 42.1197C64.5777 42.1197 63.5767 41.901 62.6222 41.4635H62.6288Z" fill="black"/>
  <path d="M65.6319 42.4246C64.5381 42.4246 63.4974 42.1993 62.5031 41.7419C61.9728 41.5032 61.4822 41.1917 61.0447 40.8072C60.6006 40.4227 60.2294 39.9852 59.9178 39.4881C59.6129 38.9909 59.3809 38.4606 59.2284 37.8971C59.0826 37.3271 59.0163 36.757 59.0428 36.1736V27.523C59.0362 26.9463 59.3014 26.5419 59.8383 26.3166C60.3752 26.0978 60.8459 26.1906 61.2502 26.6016C61.5154 26.8535 61.6413 27.1651 61.6347 27.523V36.2399C61.6148 36.989 61.8004 37.6784 62.1982 38.3081C62.5627 38.8782 63.0533 39.3025 63.6631 39.5809C64.9823 40.1841 66.2948 40.1841 67.6139 39.5809C68.2238 39.3025 68.7143 38.8782 69.0789 38.3148C69.47 37.6784 69.6556 36.989 69.6291 36.2466V27.523C69.6291 26.9463 69.8876 26.5419 70.4245 26.3166C70.9615 26.0978 71.4321 26.1906 71.8431 26.6016C72.1016 26.8535 72.2342 27.1651 72.2276 27.523V36.1736C72.2475 36.757 72.1878 37.3271 72.0353 37.8905C71.8895 38.4606 71.6575 38.9909 71.3526 39.4881C71.0476 39.9786 70.6698 40.4227 70.2323 40.8072C69.7882 41.1917 69.3043 41.5032 68.774 41.7419C67.773 42.1993 66.7256 42.4246 65.6319 42.4246ZM60.3288 26.8137C60.1366 26.8071 59.9709 26.88 59.8449 27.0192C59.7057 27.1584 59.6394 27.3242 59.6394 27.523V36.167C59.6063 37.3005 59.8913 38.3413 60.5078 39.2958C61.0779 40.1377 61.8269 40.7741 62.755 41.1917C63.6631 41.6093 64.6243 41.8214 65.6319 41.8214C66.6328 41.8214 67.594 41.6093 68.5088 41.1917C69.4368 40.7741 70.1793 40.1377 70.7494 39.2958C71.3658 38.3413 71.6509 37.3005 71.6177 36.167V27.523C71.6177 27.2115 71.4719 26.9993 71.1869 26.88C70.9018 26.7607 70.6499 26.8071 70.4245 27.0192C70.2853 27.1584 70.219 27.3308 70.2257 27.523V36.2399C70.2456 37.1017 70.0334 37.8971 69.5694 38.6329C69.1452 39.2958 68.5751 39.7864 67.8592 40.1244C66.3743 40.8006 64.8828 40.8006 63.398 40.1244C62.6821 39.7864 62.112 39.2892 61.6877 38.6329C61.2237 37.8971 61.005 37.1017 61.0315 36.2399V27.523C61.0381 27.3308 60.9652 27.1651 60.826 27.0259C60.6868 26.88 60.5211 26.8137 60.3288 26.8204V26.8137Z" fill="black"/>
  <path d="M75.1707 41.7417C74.9851 41.5693 74.8923 41.3506 74.8989 41.0921C74.8923 40.8667 74.9585 40.6612 75.0978 40.4822L80.1556 34.2577L75.1375 28.0863C75.0049 27.9073 74.9387 27.7018 74.9453 27.4764C74.932 27.2046 75.0248 26.9726 75.2171 26.787C75.4093 26.5948 75.6347 26.502 75.9065 26.5086C76.0656 26.5086 76.2247 26.5484 76.3639 26.6213C76.5031 26.6876 76.6224 26.7804 76.7152 26.9063L81.3421 32.7729L85.9624 26.8599C86.1414 26.608 86.38 26.4954 86.685 26.5086C86.9501 26.5086 87.1821 26.6014 87.3677 26.787C87.56 26.966 87.6594 27.1848 87.6528 27.4499C87.6528 27.6554 87.5997 27.841 87.4738 28.0001L82.416 34.2378L87.4738 40.4557C87.6196 40.6214 87.6859 40.807 87.6727 41.0258C87.6793 41.2975 87.5931 41.5296 87.4009 41.7284C87.1821 41.9405 86.9236 42.0333 86.6187 42.0068C86.3137 41.9803 86.0751 41.8411 85.8961 41.5958L81.2095 35.7028L76.5826 41.6157C76.3904 41.8743 76.1385 42.0002 75.8137 42.0068C75.5618 42.0135 75.3497 41.9273 75.1707 41.7417Z" fill="black"/>
  <path d="M86.6857 42.3119C86.2482 42.3185 85.9035 42.1395 85.6583 41.7749L81.2103 36.1935L76.822 41.8081C76.716 41.9539 76.5834 42.0732 76.4309 42.1594C76.2718 42.2456 76.1061 42.2986 75.9271 42.3119C75.7481 42.3251 75.5758 42.3053 75.4034 42.239C75.2377 42.1793 75.0853 42.0865 74.9593 41.9606C74.714 41.7219 74.5947 41.4369 74.5947 41.0988C74.5947 40.8071 74.6809 40.542 74.8533 40.3033L79.7718 34.2578L74.9063 28.2786C74.7273 28.04 74.6411 27.7682 74.6478 27.4765C74.6345 27.1186 74.7604 26.8203 75.0123 26.575C75.2112 26.3828 75.4498 26.2635 75.7283 26.2237C76 26.1839 76.2652 26.2237 76.5105 26.3563C76.6894 26.4424 76.8419 26.5684 76.9612 26.7275L81.3429 32.2891L85.7312 26.6745C85.9632 26.396 86.2615 26.2436 86.6327 26.2171C86.9973 26.1972 87.3155 26.3165 87.5806 26.5684C87.8325 26.807 87.9651 27.1053 87.9585 27.4567C87.9585 27.7218 87.8789 27.9605 87.7264 28.1792L82.8079 34.238L87.7132 40.2702C87.8988 40.4823 87.985 40.7342 87.9783 41.0193C87.985 41.3706 87.8657 41.6755 87.6204 41.9274C87.3685 42.1926 87.0569 42.3251 86.6857 42.3119ZM81.2037 35.2257L86.1289 41.4104C86.3145 41.702 86.573 41.8015 86.8978 41.6954C87.2293 41.596 87.3817 41.3706 87.3685 41.0325C87.3817 40.8933 87.342 40.7674 87.2492 40.6613L82.0257 34.2446L87.2425 27.8146C87.3221 27.7086 87.3552 27.5892 87.3552 27.4567C87.3552 27.2777 87.2956 27.1318 87.163 27.0059C87.0304 26.88 86.8713 26.8137 86.6857 26.8203C86.4869 26.8004 86.3278 26.8733 86.2151 27.039L81.3429 33.2701L76.4839 27.0987C76.4177 27.0125 76.3315 26.9462 76.232 26.8932C75.9404 26.7407 75.6752 26.7805 75.43 27.0059C75.2974 27.1385 75.2377 27.2976 75.2444 27.4832C75.2377 27.6423 75.2841 27.7881 75.3836 27.9141L80.5474 34.2578L75.3305 40.6679C75.2377 40.7939 75.198 40.9331 75.198 41.0922C75.198 41.2645 75.2576 41.4037 75.3836 41.5231C75.5228 41.6689 75.6951 41.7285 75.894 41.7087C76.0928 41.6888 76.2453 41.596 76.3514 41.4236L81.2037 35.2257Z" fill="black"/>
  <path d="M64.87 70.0003C63.8293 69.5363 63.0139 68.827 62.4107 67.8592C61.8141 66.8914 61.5357 65.8441 61.5821 64.7039V56.0599C61.5755 55.7815 61.6683 55.5429 61.8672 55.344C62.0528 55.1451 62.2914 55.0457 62.5698 55.0457C62.8482 55.0457 63.0802 55.1451 63.2791 55.344C63.478 55.5362 63.5774 55.7749 63.5774 56.0533V64.7569C63.5509 65.5657 63.7498 66.3081 64.174 66.9909C64.5717 67.6073 65.102 68.0647 65.7649 68.3697C67.1636 69.0126 68.5689 69.0126 69.9676 68.3697C70.6305 68.0647 71.1608 67.6073 71.5585 66.9909C71.9828 66.3081 72.1816 65.5657 72.1617 64.7569V56.0533C72.1551 55.7749 72.2479 55.5362 72.4468 55.344C72.6324 55.1385 72.8644 55.0391 73.1428 55.0391C73.4212 55.0391 73.6599 55.1385 73.8587 55.3374C74.0576 55.5362 74.1504 55.7749 74.1504 56.0533V64.6973C74.1902 65.8905 73.8852 66.9909 73.2356 67.9984C72.6324 68.8867 71.8436 69.5562 70.8691 70.0003C69.9146 70.4378 68.9136 70.6566 67.8596 70.6566C66.8123 70.6566 65.8113 70.4378 64.8568 70.0003H64.87Z" fill="black"/>
  <path d="M67.8726 70.9618C66.7789 70.9552 65.7448 70.7298 64.7504 70.279C63.723 69.815 62.8944 69.1123 62.258 68.1777C61.5752 67.1237 61.2504 65.9703 61.2836 64.7108V56.0602C61.2769 55.4768 61.5421 55.0725 62.079 54.8471C62.6159 54.6217 63.0866 54.7211 63.4976 55.1321C63.7627 55.384 63.8887 55.6956 63.8821 56.0602V64.7638C63.8622 65.5063 64.0411 66.2023 64.4322 66.832C64.8035 67.3955 65.2874 67.8197 65.8972 68.1048C67.2164 68.708 68.5355 68.708 69.8546 68.1048C70.4645 67.8197 70.955 67.3955 71.3196 66.832C71.7107 66.1957 71.8963 65.5063 71.8698 64.7638V56.0602C71.8632 55.4768 72.1283 55.0725 72.6653 54.8471C73.2022 54.6217 73.6728 54.7211 74.0838 55.1321C74.3424 55.384 74.4683 55.6956 74.4683 56.0602V64.7042C74.5014 65.957 74.1766 67.1171 73.4939 68.1644C72.8641 69.1057 72.0355 69.8017 71.0014 70.2658C70.0071 70.7232 68.9664 70.9552 67.8726 70.9618ZM62.5695 55.3509C62.3707 55.3443 62.2116 55.4172 62.079 55.5564C61.9464 55.6956 61.8735 55.8613 61.8801 56.0602V64.7042C61.847 65.8377 62.132 66.8784 62.7485 67.833C63.3186 68.6748 64.0677 69.3112 64.9957 69.7288C65.9038 70.1464 66.865 70.3586 67.8726 70.3586C68.8736 70.3586 69.8347 70.1464 70.7495 69.7288C71.6776 69.3112 72.42 68.6748 72.9901 67.833C73.6066 66.8784 73.8916 65.8377 73.8585 64.7042V56.0602C73.8651 55.8613 73.7922 55.6956 73.6463 55.5564C73.5138 55.4172 73.348 55.3509 73.1558 55.3509C72.9636 55.3509 72.7978 55.4172 72.6653 55.5564C72.5261 55.7022 72.4598 55.8679 72.4664 56.0602V64.7638C72.4863 65.6322 72.2742 66.4343 71.8101 67.1701C71.3859 67.8264 70.8158 68.3235 70.0999 68.655C68.615 69.3377 67.1236 69.3377 65.6387 68.655C64.9228 68.3235 64.3527 67.833 63.9285 67.1701C63.4644 66.4343 63.2457 65.6322 63.2722 64.7705V56.0668C63.2788 55.8679 63.2059 55.7022 63.0667 55.563C62.9275 55.4172 62.7618 55.3509 62.5695 55.3509Z" fill="black"/>
  <path d="M78.5852 70.2658C78.3929 70.0735 78.2935 69.8415 78.3001 69.5697V56.0602C78.2935 55.7817 78.3929 55.5431 78.5852 55.3442C78.7774 55.1454 79.0094 55.0393 79.2878 55.0459C79.5662 55.0459 79.8049 55.1454 79.9971 55.3442C80.196 55.5365 80.2954 55.7751 80.2954 56.0535V69.5631C80.302 69.8415 80.196 70.0735 79.9971 70.2591C79.7982 70.458 79.5596 70.5508 79.2812 70.5442C79.0094 70.5508 78.7774 70.458 78.5852 70.2658Z" fill="black"/>
  <path d="M79.2872 70.849C78.9293 70.8556 78.6243 70.7363 78.3724 70.4777C78.1205 70.2259 77.9946 69.9209 78.0012 69.5696V56.06C77.9946 55.7021 78.1205 55.3905 78.3724 55.1386C78.6243 54.8867 78.9359 54.7542 79.2938 54.7542C79.6518 54.7542 79.9567 54.8867 80.2153 55.1386C80.4738 55.3905 80.5997 55.6954 80.5931 56.06V69.5696C80.5997 69.9342 80.4738 70.2391 80.2086 70.4844C79.9501 70.7363 79.6452 70.8556 79.2872 70.849ZM78.7967 70.0535C78.9359 70.1861 79.1016 70.2524 79.2938 70.2524C79.4861 70.2524 79.6518 70.1861 79.791 70.0535C79.9302 69.9209 79.9965 69.7618 79.9965 69.5696V56.0667C79.9965 55.8678 79.9302 55.7021 79.7844 55.5629C79.5656 55.3375 79.3137 55.2911 79.0221 55.4104C78.7304 55.5297 78.5912 55.7485 78.5978 56.0667V69.5696C78.5978 69.7618 78.6641 69.9209 78.7967 70.0535Z" fill="black"/>
  <path d="M102.31 49.4445H43.6514C43.2404 49.4445 42.8825 49.2987 42.5908 49.0004C42.2992 48.7087 42.1533 48.3574 42.1533 47.9398C42.1533 47.5288 42.2992 47.1708 42.5908 46.8792C42.8825 46.5875 43.2404 46.4417 43.6514 46.4417H102.31C102.728 46.4417 103.079 46.5875 103.371 46.8792C103.669 47.1708 103.815 47.5288 103.815 47.9398C103.815 48.3574 103.669 48.7087 103.371 49.0004C103.079 49.2987 102.728 49.4445 102.31 49.4445Z" fill="black"/>
  <path d="M101.057 105.233H44.9171C44.5061 105.233 44.1481 105.087 43.8564 104.788C43.5648 104.497 43.4189 104.145 43.4189 103.728C43.4189 103.317 43.5648 102.959 43.8564 102.667C44.1481 102.376 44.5061 102.23 44.9171 102.23H101.057C101.468 102.23 101.826 102.376 102.117 102.667C102.409 102.959 102.555 103.317 102.555 103.728C102.555 104.145 102.409 104.497 102.117 104.788C101.826 105.087 101.468 105.233 101.057 105.233Z" fill="black"/>
  <path d="M91.8355 97.7155H54.1307C53.7131 97.7155 53.3618 97.5697 53.0635 97.278C52.7718 96.9797 52.626 96.6284 52.626 96.2108C52.626 95.7998 52.7718 95.4484 53.0635 95.1501C53.3618 94.8585 53.7131 94.7126 54.1307 94.7126H91.8355C92.2532 94.7126 92.6045 94.8585 92.9028 95.1501C93.1944 95.4484 93.3403 95.7998 93.3403 96.2108C93.3403 96.6284 93.1944 96.9797 92.9028 97.278C92.6045 97.5697 92.2532 97.7155 91.8355 97.7155Z" fill="black"/>
  <path d="M83.8549 91.087H62.1123C61.5555 91.087 61.0251 90.9743 60.5081 90.7621C59.9977 90.55 59.5469 90.2517 59.1492 89.854C58.7581 89.4629 58.4532 89.0121 58.241 88.5017C58.0289 87.9847 57.9229 87.4544 57.9229 86.8975V79.8445C57.9229 79.2876 58.0289 78.7573 58.241 78.2403C58.4532 77.7299 58.7581 77.2791 59.1492 76.888C59.5469 76.4903 59.9977 76.192 60.5081 75.9798C61.0251 75.7611 61.5555 75.655 62.1123 75.655H83.8549C84.4117 75.655 84.942 75.7611 85.459 75.9798C85.9695 76.192 86.4202 76.4903 86.8179 76.8814C87.209 77.2791 87.514 77.7299 87.7261 78.2403C87.9382 78.7573 88.0443 79.2876 88.0443 79.8445V86.8975C88.0443 87.4544 87.9382 87.9847 87.7261 88.5017C87.514 89.0121 87.209 89.4629 86.8179 89.854C86.4202 90.2517 85.9695 90.55 85.459 90.7621C84.942 90.9743 84.4117 91.087 83.8549 91.087ZM62.1123 78.6579C61.7875 78.6579 61.5091 78.7772 61.277 79.0092C61.045 79.2346 60.9257 79.5196 60.9257 79.8445V86.8975C60.9257 87.2223 61.045 87.5008 61.277 87.7328C61.5091 87.9648 61.7875 88.0841 62.1123 88.0841H83.8549C84.1797 88.0841 84.4581 87.9648 84.6901 87.7328C84.9221 87.5008 85.0414 87.2223 85.0414 86.8975V79.8445C85.0414 79.5196 84.9221 79.2346 84.6901 79.0092C84.4581 78.7772 84.1797 78.6579 83.8549 78.6579H62.1123Z" fill="black"/>
  <path d="M127.4 35.2521H102.309C101.892 35.2521 101.54 35.1063 101.249 34.8146C100.957 34.523 100.805 34.165 100.805 33.754C100.805 33.3364 100.957 32.9851 101.249 32.6934C101.54 32.4017 101.892 32.2493 102.309 32.2493H127.4C127.817 32.2493 128.169 32.4017 128.46 32.6934C128.752 32.9851 128.904 33.3364 128.904 33.754C128.904 34.165 128.752 34.523 128.46 34.8146C128.169 35.1063 127.817 35.2521 127.4 35.2521Z" fill="black"/>
  <mask id="mask1_291_425" style="mask-type:luminance" maskUnits="userSpaceOnUse" x="125" y="22" width="23" height="24">
    <path d="M125.211 22.0608H147.232V45.8185H125.211V22.0608Z" fill="white"/>
  </mask>
  <g mask="url(#mask1_291_425)">
    <path d="M145.727 44.4133H127.398C126.981 44.4133 126.629 44.2674 126.338 43.9691C126.039 43.6775 125.894 43.3261 125.894 42.9085V24.5997C125.894 24.1887 126.039 23.8307 126.338 23.5391C126.629 23.2474 126.981 23.1016 127.398 23.1016H145.727C146.145 23.1016 146.496 23.2474 146.788 23.5391C147.086 23.8307 147.232 24.1887 147.232 24.5997V42.9085C147.232 43.3261 147.086 43.6775 146.788 43.9691C146.496 44.2674 146.145 44.4133 145.727 44.4133ZM128.903 41.4104H144.222V26.1044H128.903V41.4104Z" fill="black"/>
  </g>
  <path d="M140.392 32.5807H132.729C132.318 32.5807 131.96 32.4349 131.669 32.1432C131.377 31.8449 131.225 31.4936 131.225 31.076C131.225 30.665 131.377 30.3137 131.669 30.0154C131.96 29.7237 132.318 29.5779 132.729 29.5779H140.392C140.81 29.5779 141.161 29.7237 141.453 30.0154C141.745 30.3137 141.897 30.665 141.897 31.076C141.897 31.4936 141.745 31.8449 141.453 32.1432C141.161 32.4349 140.81 32.5807 140.392 32.5807Z" fill="black"/>
  <path d="M140.392 37.9304H132.729C132.318 37.9304 131.96 37.7845 131.669 37.4928C131.377 37.1946 131.225 36.8432 131.225 36.4322C131.225 36.0146 131.377 35.6633 131.669 35.365C131.96 35.0733 132.318 34.9275 132.729 34.9275H140.392C140.81 34.9275 141.161 35.0733 141.453 35.365C141.745 35.6633 141.897 36.0146 141.897 36.4322C141.897 36.8432 141.745 37.1946 141.453 37.4928C141.161 37.7845 140.81 37.9304 140.392 37.9304Z" fill="black"/>
  <path d="M44.9174 63.955H19.8272C19.4162 63.955 19.0583 63.8092 18.7666 63.5175C18.4749 63.2258 18.3291 62.8679 18.3291 62.4569C18.3291 62.0393 18.4749 61.6879 18.7666 61.3963C19.0583 61.1046 19.4162 60.9521 19.8272 60.9521H44.9174C45.335 60.9521 45.6863 61.1046 45.9846 61.3963C46.2763 61.6879 46.4221 62.0393 46.4221 62.4569C46.4221 62.8679 46.2763 63.2258 45.9846 63.5175C45.6863 63.8092 45.335 63.955 44.9174 63.955Z" fill="black"/>
  <mask id="mask2_291_425" style="mask-type:luminance" maskUnits="userSpaceOnUse" x="0" y="50" width="22" height="25">
    <path d="M0 50.9094H21.6962V74.6672H0V50.9094Z" fill="white"/>
  </mask>
  <g mask="url(#mask2_291_425)">
    <path d="M19.8268 73.1161H1.49812C1.08713 73.1161 0.729172 72.9703 0.437503 72.672C0.145834 72.3803 0 72.029 0 71.6114V53.3026C0 52.8916 0.145834 52.5336 0.437503 52.2419C0.729172 51.9503 1.08713 51.8044 1.49812 51.8044H19.8268C20.2445 51.8044 20.5958 51.9503 20.8941 52.2419C21.1858 52.5336 21.3316 52.8916 21.3316 53.3026V71.6114C21.3316 72.029 21.1858 72.3803 20.8941 72.672C20.5958 72.9703 20.2445 73.1161 19.8268 73.1161ZM3.00286 70.1133H18.3287V54.8073H3.00286V70.1133Z" fill="black"/>
  </g>
  <path d="M15.0678 61.2836H6.26472C5.85373 61.2836 5.49577 61.1312 5.2041 60.8395C4.91244 60.5478 4.7666 60.1965 4.7666 59.7789C4.7666 59.3679 4.91244 59.0099 5.2041 58.7183C5.49577 58.4266 5.85373 58.2808 6.26472 58.2808H15.0678C15.4854 58.2808 15.8368 58.4266 16.1351 58.7183C16.4267 59.0099 16.5726 59.3679 16.5726 59.7789C16.5726 60.1965 16.4267 60.5478 16.1351 60.8395C15.8368 61.1312 15.4854 61.2836 15.0678 61.2836Z" fill="black"/>
  <path d="M15.0678 66.633H6.26472C5.85373 66.633 5.49577 66.4872 5.2041 66.1955C4.91244 65.8972 4.7666 65.5459 4.7666 65.1282C4.7666 64.7173 4.91244 64.3659 5.2041 64.0676C5.49577 63.776 5.85373 63.6301 6.26472 63.6301H15.0678C15.4854 63.6301 15.8368 63.776 16.1351 64.0676C16.4267 64.3659 16.5726 64.7173 16.5726 65.1282C16.5726 65.5459 16.4267 65.8972 16.1351 66.1955C15.8368 66.4872 15.4854 66.633 15.0678 66.633Z" fill="black"/>
</svg>