<?xml version="1.0" encoding="utf-8"?>
<svg width="138" height="132" viewBox="0 0 138 132" fill="none" xmlns="http://www.w3.org/2000/svg" id="maroon-social-content" class="social media creative Maroon Digital audience digital marketing solutions content branding Rise engagement" role="contentinfo">
  <desc>A visually striking and engaging social media post designed to boost online engagement, created by Maroon Digital Rise.     Maroon Digital Rise specializes in crafting impactful social media content that resonates with your audience and enhances your brand’s online presence.</desc>
  <title>Engaging Social Media Content - Maroon Digital Rise</title>
  <path d="M129.832 48.8992C129.832 46.9248 128.547 45.2448 126.773 44.6558V36.9321C126.773 36.3832 126.445 35.8813 125.943 35.6537C125.448 35.4328 124.859 35.5265 124.451 35.9013L122.871 37.3336C119.919 40.0175 116.292 41.8447 112.376 42.6144C112.276 42.6345 112.182 42.668 112.095 42.7081H103.093C99.8202 42.7081 97.1631 45.372 97.1631 48.6516V49.1669C97.1631 52.3528 99.6797 54.9631 102.825 55.1036V63.0884C102.825 64.9558 104.338 66.4751 106.205 66.4751H106.426C108.294 66.4751 109.806 64.9558 109.806 63.0884V55.1103H112.222C112.276 55.1237 112.323 55.1371 112.376 55.1505C116.285 55.9202 119.913 57.7474 122.871 60.4313L124.444 61.8636C124.705 62.1046 125.04 62.2317 125.381 62.2317C125.568 62.2317 125.762 62.1916 125.943 62.1112C126.445 61.8837 126.766 61.3884 126.766 60.8329L126.773 53.1493C128.547 52.5469 129.832 50.867 129.832 48.8992ZM99.9407 49.1602V48.6449C99.9407 46.898 101.353 45.4858 103.093 45.4858H111.259V48.5311C111.259 48.5779 111.265 48.6181 111.265 48.6582V49.0866C111.265 49.1268 111.259 49.1669 111.259 49.2138V52.3126H103.093C101.353 52.3193 99.9407 50.9004 99.9407 49.1602ZM107.035 63.075C107.035 63.4097 106.761 63.6841 106.433 63.6841H106.205C105.877 63.6841 105.603 63.4097 105.603 63.075V55.117H107.035V63.075ZM114.043 52.6607V45.0976C117.697 44.194 121.104 42.4672 123.995 40.0443L124.002 45.6665C123.995 45.72 123.989 45.7736 123.989 45.8204V51.9713C123.989 52.0248 123.995 52.0784 124.002 52.1252L123.995 57.7072C121.104 55.2844 117.697 53.5576 114.043 52.6607ZM126.773 49.8228V49.2138C126.773 49.1602 126.773 49.1067 126.766 49.0464V48.6984C126.773 48.6449 126.773 48.5846 126.773 48.5311V47.9622C126.954 48.2299 127.054 48.5512 127.054 48.8925C127.054 49.2405 126.954 49.5618 126.773 49.8228Z" fill="black"/>
  <mask id="mask0_291_422" style="mask-type:luminance" maskUnits="userSpaceOnUse" x="129" y="46" width="9" height="6">
    <path d="M129.383 46.2622H137.066V51.4025H129.383V46.2622Z" fill="white"/>
  </mask>
  <g mask="url(#mask0_291_422)">
    <path d="M135.714 47.1323H131.236C130.473 47.1323 129.851 47.7548 129.851 48.5245C129.851 49.2942 130.473 49.9166 131.236 49.9166H135.714C136.477 49.9166 137.099 49.2942 137.099 48.5245C137.099 47.7548 136.477 47.1323 135.714 47.1323Z" fill="black"/>
  </g>
  <path d="M130.795 46.8112C131.083 46.8112 131.384 46.7175 131.632 46.5301L135.193 43.8195C135.802 43.3576 135.929 42.4809 135.46 41.8718C134.998 41.256 134.128 41.1356 133.519 41.6041L129.952 44.3147C129.343 44.7766 129.222 45.6467 129.684 46.2624C129.959 46.6171 130.374 46.8112 130.795 46.8112Z" fill="black"/>
  <path d="M135.199 53.2298L131.632 50.5191C131.023 50.0573 130.153 50.1778 129.691 50.7868C129.229 51.4026 129.35 52.2727 129.959 52.7412L133.519 55.4452C133.774 55.6393 134.062 55.7263 134.356 55.7263C134.778 55.7263 135.193 55.5389 135.467 55.1775C135.922 54.5684 135.808 53.6916 135.199 53.2298Z" fill="black"/>
  <mask id="mask1_291_422" style="mask-type:luminance" maskUnits="userSpaceOnUse" x="48" y="113" width="27" height="19">
    <path d="M48.8525 113.085H74.5538V132H48.8525V113.085Z" fill="white"/>
  </mask>
  <g mask="url(#mask1_291_422)">
    <path d="M71.9768 113.741H50.9607C50.191 113.741 49.5752 114.364 49.5752 115.133V130.614C49.5752 130.641 49.5752 130.668 49.5752 130.695C49.5752 130.701 49.5752 130.708 49.5752 130.715C49.5752 130.742 49.5819 130.762 49.5819 130.788C49.5819 130.795 49.5819 130.795 49.5886 130.802C49.5953 130.869 49.6087 130.922 49.622 130.982C49.6488 131.076 49.6823 131.163 49.7291 131.25C49.7291 131.25 49.7291 131.25 49.7291 131.257C49.7559 131.31 49.7894 131.364 49.8228 131.411C49.8228 131.418 49.8295 131.424 49.8295 131.424C49.8496 131.451 49.863 131.464 49.8764 131.484C49.8831 131.491 49.8831 131.498 49.8898 131.498C49.9032 131.518 49.9232 131.538 49.9433 131.558C49.95 131.565 49.95 131.565 49.9567 131.571C49.9701 131.592 49.9902 131.605 50.0035 131.618C50.0102 131.625 50.0169 131.632 50.0169 131.638C50.0437 131.652 50.0571 131.672 50.0839 131.692L50.0906 131.699C50.1106 131.712 50.1307 131.725 50.1508 131.739C50.1508 131.745 50.1642 131.745 50.1642 131.752C50.211 131.786 50.2646 131.819 50.3181 131.846C50.3181 131.846 50.3181 131.846 50.3181 131.853C50.3984 131.893 50.4854 131.926 50.5725 131.953C50.5791 131.953 50.5791 131.953 50.5858 131.953C50.6394 131.966 50.6996 131.98 50.7599 131.986H50.7732C50.8 131.993 50.8201 131.993 50.8469 131.993C50.8536 131.993 50.8603 131.993 50.867 131.993C50.8937 132 50.9272 132 50.954 132H71.9701C72.7331 132 73.3555 131.377 73.3555 130.608V115.133C73.3622 114.364 72.7398 113.741 71.9768 113.741ZM70.5846 116.526V123.921L67.2582 121.512C66.696 121.104 65.9196 121.177 65.4444 121.679L62.8542 124.397L59.588 119.31C59.3403 118.915 58.912 118.681 58.4502 118.667C57.9883 118.654 57.5533 118.875 57.2856 119.25L52.3528 126.237V116.519H70.5846V116.526ZM58.3631 122.549L61.4286 127.328C61.4419 127.348 61.4553 127.375 61.4687 127.395L62.6467 129.222H53.6513L58.3631 122.549ZM70.5846 129.222H65.9464L64.4003 126.806L66.6157 124.477L70.5846 127.355V129.222Z" fill="black"/>
  </g>
  <path d="M65.5237 119.377C65.5237 119.698 65.4099 119.973 65.1823 120.2C64.9547 120.428 64.687 120.542 64.3658 120.542C64.0445 120.542 63.7701 120.428 63.5425 120.2C63.315 119.973 63.2012 119.698 63.2012 119.377C63.2012 119.056 63.315 118.781 63.5425 118.554C63.7701 118.326 64.0445 118.212 64.3658 118.212C64.687 118.212 64.9547 118.326 65.1823 118.554C65.4099 118.781 65.5237 119.056 65.5237 119.377Z" fill="black"/>
  <mask id="mask2_291_422" style="mask-type:luminance" maskUnits="userSpaceOnUse" x="0" y="35" width="27" height="29">
    <path d="M0 35.9817H26.578V63.3964H0V35.9817Z" fill="white"/>
  </mask>
  <g mask="url(#mask2_291_422)">
    <path d="M3.78785 58.7247C4.96583 59.9093 6.34459 60.8464 7.87729 61.4889C9.46354 62.1649 11.1502 62.5062 12.8904 62.5062C14.6239 62.5062 16.3105 62.1649 17.8968 61.4889C19.4295 60.8397 20.8082 59.9093 21.9862 58.7247C23.1709 57.5467 24.1012 56.1612 24.7437 54.6285C25.413 53.0356 25.7544 51.3489 25.7544 49.6021C25.7544 47.8619 25.413 46.1685 24.7437 44.5823C24.2953 43.5181 23.713 42.5342 23.0102 41.6307C23.1709 41.7444 23.3449 41.8047 23.5323 41.8047C23.8 41.8047 24.061 41.6842 24.2418 41.4566C24.6567 40.9279 25.0918 40.3991 25.5402 39.8838C25.8615 39.5023 25.8213 38.9401 25.4465 38.6054C25.065 38.2841 24.4961 38.3243 24.1681 38.6991C23.713 39.2346 23.2646 39.7834 22.8228 40.3322C22.6087 40.6066 22.5752 40.9681 22.7091 41.2625C22.4815 40.9881 22.2405 40.7338 21.9862 40.4795C20.8082 39.2948 19.4295 38.3645 17.8968 37.7152C16.3105 37.0392 14.6239 36.7046 12.8904 36.7046C11.1502 36.7046 9.46354 37.0392 7.87729 37.7152C6.34459 38.3645 4.97252 39.2948 3.78785 40.4795C2.60318 41.6574 1.67955 43.0429 1.03032 44.5823C0.361019 46.1685 0.0263672 47.8619 0.0263672 49.6021C0.0263672 51.3423 0.361019 53.0356 1.03032 54.6285C1.67955 56.1612 2.60318 57.5467 3.78785 58.7247ZM5.74891 42.4539C7.65642 40.5397 10.1931 39.4889 12.8837 39.4889C15.581 39.4889 18.1176 40.5397 20.0185 42.4539C21.926 44.3614 22.9701 46.9048 22.9701 49.6088C22.9701 52.306 21.926 54.8494 20.0185 56.7569C18.1176 58.6711 15.581 59.7219 12.8837 59.7219C10.1931 59.7219 7.65642 58.6711 5.74891 56.7569C3.84809 54.8494 2.79728 52.306 2.79728 49.6088C2.79728 46.9048 3.84809 44.3681 5.74891 42.4539Z" fill="black"/>
  </g>
  <path d="M7.86404 56.9912C8.07822 57.1117 8.31248 57.1786 8.55343 57.1786C8.79438 57.1786 9.03533 57.1117 9.24281 56.9912L19.9115 50.8136C20.3465 50.5592 20.6076 50.1041 20.6076 49.6088C20.6076 49.1135 20.3465 48.645 19.9115 48.4041L9.24281 42.2264C8.81445 41.9721 8.28571 41.9721 7.85735 42.2264C7.429 42.474 7.16797 42.9359 7.16797 43.4311V55.7865C7.16797 56.2818 7.429 56.7369 7.86404 56.9912ZM9.94558 45.8406L16.4512 49.6088L9.94558 53.3703V45.8406Z" fill="black"/>
  <path d="M54.3412 23.9141C55.0172 24.8177 55.5459 25.8149 55.9007 26.8658C56.2621 27.9299 56.4428 29.0343 56.4428 30.1453V30.2859C56.4428 31.0556 57.0586 31.678 57.8283 31.678H64.9965C65.7662 31.678 66.3887 31.0556 66.3887 30.2859V30.1453C66.3887 29.0343 66.5694 27.9299 66.9308 26.8724C67.2855 25.8149 67.8076 24.8244 68.4836 23.9275C69.6415 22.3814 70.2572 20.5408 70.2572 18.5999C70.2572 16.2372 69.3403 14.0084 67.6737 12.3419C66.0071 10.6686 63.7918 9.74497 61.4358 9.73828C61.4291 9.73828 61.4224 9.73828 61.4157 9.73828C59.0799 9.73828 56.8712 10.6418 55.2113 12.2816C53.5447 13.9214 52.6077 16.1234 52.5809 18.4794C52.5542 20.4538 53.1632 22.3346 54.3412 23.9141ZM55.3518 18.5195C55.3786 16.8998 56.0145 15.3872 57.159 14.2628C58.2968 13.1383 59.8094 12.5226 61.4157 12.5226C61.4224 12.5226 61.4224 12.5226 61.4291 12.5226C63.0488 12.5226 64.5681 13.1584 65.7127 14.3029C66.8505 15.4474 67.4796 16.9734 67.4796 18.5999C67.4796 19.9251 67.0646 21.1834 66.2682 22.2476C65.4182 23.3787 64.7556 24.637 64.3004 25.9756C63.9792 26.926 63.7717 27.9032 63.678 28.8937H59.1602C59.0598 27.9032 58.8523 26.926 58.531 25.9689C58.0759 24.637 57.4133 23.3787 56.5633 22.2409C55.7534 21.1633 55.3385 19.8715 55.3518 18.5195Z" fill="black"/>
  <path d="M66.4147 34.1946C66.4147 33.4249 65.7923 32.8025 65.0226 32.8025H57.8142C57.0445 32.8025 56.4287 33.4249 56.4287 34.1946C56.4287 34.9643 57.0445 35.5868 57.8142 35.5868H65.0226C65.7856 35.5868 66.4147 34.9643 66.4147 34.1946Z" fill="black"/>
  <path d="M58.6306 36.5974C57.8676 36.5974 57.2451 37.2199 57.2451 37.9896C57.2451 38.7593 57.8676 39.3817 58.6306 39.3817H59.1259C59.2129 40.0109 60.1901 40.4995 61.3814 40.4995C62.5795 40.4995 63.5566 40.0109 63.6437 39.3817H64.159C64.9287 39.3817 65.5445 38.7593 65.5445 37.9896C65.5445 37.2199 64.9287 36.5974 64.159 36.5974H58.6306Z" fill="black"/>
  <path d="M72.8936 18.0911C72.8936 18.8675 73.516 19.4833 74.2857 19.4833H78.1208C78.8905 19.4833 79.513 18.8675 79.513 18.0911C79.513 17.3214 78.8905 16.699 78.1208 16.699H74.2857C73.516 16.699 72.8936 17.3214 72.8936 18.0911Z" fill="black"/>
  <path d="M44.816 19.4833H48.6578C49.4275 19.4833 50.0432 18.8675 50.0432 18.0911C50.0432 17.3214 49.4275 16.699 48.6578 16.699H44.816C44.0463 16.699 43.4238 17.3214 43.4238 18.0911C43.4238 18.8608 44.053 19.4833 44.816 19.4833Z" fill="black"/>
  <path d="M69.5541 26.1965C69.0119 26.7387 69.0119 27.6222 69.5541 28.1643L72.2647 30.8884C72.5392 31.1561 72.8939 31.2966 73.2486 31.2966C73.6033 31.2966 73.9581 31.1561 74.2258 30.8884C74.7679 30.3462 74.7679 29.4627 74.2258 28.9206L71.5151 26.1965C70.973 25.6477 70.0895 25.6477 69.5541 26.1965Z" fill="black"/>
  <path d="M51.4296 9.9927C51.6974 10.2671 52.0521 10.401 52.4068 10.401C52.7616 10.401 53.1163 10.2671 53.3907 9.9927C53.9328 9.45057 53.9328 8.56709 53.3907 8.02495L50.6733 5.30089C50.1312 4.75875 49.2544 4.75875 48.7123 5.30089C48.1701 5.84302 48.1701 6.7265 48.7123 7.26864L51.4296 9.9927Z" fill="black"/>
  <path d="M61.4685 6.63949C62.2382 6.63949 62.8606 6.01704 62.8606 5.24734V1.39215C62.8606 0.622452 62.2382 0 61.4685 0C60.7055 0 60.083 0.622452 60.083 1.39215V5.24734C60.083 6.01704 60.7055 6.63949 61.4685 6.63949Z" fill="black"/>
  <path d="M70.5312 10.401C70.886 10.401 71.2407 10.2671 71.5151 9.9927L74.2258 7.26864C74.7679 6.7265 74.7679 5.84302 74.2258 5.30089C73.6904 4.75875 72.8069 4.75875 72.2647 5.30089L69.5541 8.02495C69.0119 8.56709 69.0119 9.45057 69.5541 9.9927C69.8218 10.2671 70.1765 10.401 70.5312 10.401Z" fill="black"/>
  <path d="M49.696 31.2965C50.0507 31.2965 50.4055 31.1559 50.6799 30.8882L53.3906 28.1641C53.9327 27.622 53.9327 26.7385 53.3906 26.1964C52.8551 25.6543 51.9716 25.6543 51.4295 26.1964L48.7121 28.9205C48.1767 29.4626 48.1767 30.3461 48.7121 30.8882C48.9865 31.1559 49.3413 31.2965 49.696 31.2965Z" fill="black"/>
  <path d="M57.8677 20.9089L58.972 21.6318C59.4338 21.933 60.0295 21.933 60.4913 21.6318L60.8394 21.4042L61.1807 21.6318C61.6425 21.933 62.2382 21.933 62.7 21.6318L63.0481 21.4042L63.3961 21.6318C63.6304 21.7857 63.8914 21.8593 64.1524 21.8593C64.6075 21.8593 65.0493 21.6318 65.317 21.2235C65.732 20.581 65.5513 19.7176 64.9154 19.2959L63.8111 18.5731C63.3493 18.2719 62.7536 18.2719 62.2918 18.5731L61.9437 18.8006L61.5957 18.5731C61.1339 18.2719 60.5382 18.2719 60.0764 18.5731L59.735 18.8006L59.387 18.5731C58.7445 18.1581 57.881 18.3388 57.4661 18.9813C57.0444 19.6306 57.2251 20.4873 57.8677 20.9089Z" fill="black"/>
  <path d="M114.036 91.9355H100.784C100.014 91.9355 99.3914 92.5513 99.3914 93.3277V103.488C98.7422 103.227 98.0193 103.093 97.2764 103.093C96.0382 103.093 94.8535 103.474 93.9433 104.177C92.9527 104.953 92.3838 106.051 92.3838 107.202C92.3838 108.354 92.9527 109.458 93.9433 110.228C94.8535 110.93 96.0315 111.319 97.2764 111.319C98.5213 111.319 99.6993 110.93 100.603 110.228C101.6 109.458 102.169 108.354 102.169 107.202V99.0302H112.65V103.488C111.994 103.227 111.272 103.093 110.529 103.093C109.29 103.093 108.106 103.474 107.202 104.177C106.205 104.953 105.636 106.051 105.636 107.202C105.636 108.354 106.205 109.458 107.202 110.228C108.106 110.93 109.284 111.319 110.529 111.319C111.774 111.319 112.951 110.93 113.862 110.228C114.852 109.458 115.428 108.354 115.428 107.202V93.3277C115.428 92.5513 114.805 91.9355 114.036 91.9355ZM97.2764 108.534C96.0248 108.534 95.1614 107.832 95.1614 107.202C95.1614 106.573 96.0248 105.87 97.2764 105.87C98.5213 105.87 99.3914 106.573 99.3914 107.202C99.3914 107.832 98.5213 108.534 97.2764 108.534ZM102.169 96.2526V94.7132H112.65V96.2526H102.169ZM110.529 108.534C109.284 108.534 108.414 107.832 108.414 107.202C108.414 106.573 109.284 105.87 110.529 105.87C111.78 105.87 112.65 106.573 112.65 107.202C112.65 107.832 111.78 108.534 110.529 108.534Z" fill="black"/>
  <path d="M53.4898 68.3961H74.9276C75.6973 68.3961 76.313 67.7737 76.313 67.004C76.313 66.2343 75.6973 65.6118 74.9276 65.6118H53.4898C52.7201 65.6118 52.0977 66.2343 52.0977 67.004C52.0977 67.7737 52.7268 68.3961 53.4898 68.3961Z" fill="black"/>
  <path d="M53.4898 76.0197H74.9276C75.6973 76.0197 76.313 75.4039 76.313 74.6275C76.313 73.8578 75.6973 73.2354 74.9276 73.2354H53.4898C52.7201 73.2354 52.0977 73.8578 52.0977 74.6275C52.0977 75.4039 52.7268 76.0197 53.4898 76.0197Z" fill="black"/>
  <path d="M38.1368 68.9719C35.3525 67.8675 32.1867 69.2396 31.089 72.0306C30.5536 73.3893 30.5803 74.8684 31.1559 76.2003C31.7315 77.5389 32.7957 78.5697 34.141 79.1051C34.7902 79.3594 35.4662 79.4866 36.1422 79.4866C36.8718 79.4866 37.608 79.3327 38.2974 79.0382C39.6293 78.4559 40.66 77.3917 41.1888 76.0397C42.2931 73.242 40.9211 70.0762 38.1368 68.9719ZM38.6053 75.0157C38.3442 75.6783 37.8423 76.1936 37.193 76.4814C36.5438 76.7625 35.821 76.7692 35.1584 76.5082C34.5024 76.2472 33.9804 75.7452 33.6993 75.096C33.4182 74.4401 33.4048 73.7172 33.6658 73.0546C34.0808 72.0105 35.078 71.3747 36.1355 71.3747C36.4635 71.3747 36.7915 71.4349 37.1127 71.5621C38.4781 72.0975 39.1407 73.6436 38.6053 75.0157Z" fill="black"/>
  <path d="M96.5126 68.0147C96.5728 67.921 96.6263 67.8206 96.6665 67.7202L99.8457 63.1288C100.281 62.4929 100.127 61.6229 99.4976 61.1878L94.6385 57.8078C94.3373 57.6003 93.9692 57.5133 93.6011 57.5803C93.2397 57.6472 92.9184 57.8547 92.7109 58.1559L89.3376 63.0217L83.9631 70.7856V63.5103C83.9631 63.1422 83.8159 62.7874 83.5615 62.5264L73.2275 52.1656C73.2074 52.1455 73.1873 52.1254 73.1606 52.1054C73.1539 52.0987 73.1539 52.092 73.1472 52.092C73.1271 52.0719 73.1003 52.0518 73.0802 52.0384C73.0802 52.0384 73.0736 52.0384 73.0736 52.0317C73.0468 52.0184 73.0267 51.9983 72.9999 51.9849C72.9932 51.9782 72.9865 51.9715 72.9798 51.9648C72.9598 51.9514 72.933 51.938 72.9129 51.9313C72.9062 51.9247 72.9062 51.9247 72.8995 51.918C72.8728 51.9046 72.8527 51.8979 72.8192 51.8845C72.8125 51.8778 72.8058 51.8711 72.7991 51.8711C72.7724 51.8577 72.7456 51.851 72.7188 51.8443L72.7121 51.8376C72.6854 51.8243 72.6586 51.8176 72.6318 51.8109C72.6251 51.8109 72.6184 51.8109 72.605 51.8042C72.5783 51.7975 72.5515 51.7908 72.5247 51.7841C72.5247 51.7841 72.518 51.7841 72.5113 51.7841C72.4846 51.7774 72.4578 51.7707 72.431 51.7707C72.4176 51.7707 72.4109 51.764 72.4042 51.764C72.3775 51.764 72.3507 51.764 72.3239 51.7573C72.3239 51.7573 72.3172 51.7573 72.3105 51.7573C72.2905 51.7573 72.2637 51.7573 72.2436 51.7573H45.8329C45.0632 51.7573 44.4408 52.3798 44.4408 53.1495V62.9748C44.0459 62.7406 43.5439 62.7071 43.1222 62.9213L40.5119 64.2198L39.6352 63.8717L38.6178 61.1343C38.4103 60.5921 37.895 60.2307 37.3127 60.2307C37.306 60.2307 37.2993 60.2307 37.2926 60.2307L34.5284 60.2776C33.9394 60.2842 33.424 60.6657 33.2366 61.2213L32.3063 63.9922L31.4362 64.367L28.7858 63.1556C28.2503 62.9079 27.6212 63.0284 27.2129 63.4567L25.292 65.4446C24.8837 65.8662 24.7833 66.5021 25.0443 67.0308L26.3361 69.6478L25.9881 70.5246L23.264 71.5486C22.7152 71.7561 22.3538 72.2849 22.3604 72.8738L22.4073 75.6448C22.414 76.2337 22.7888 76.7558 23.351 76.9432L26.1085 77.8802L26.4834 78.7436L25.2786 81.4075C25.031 81.9362 25.1514 82.572 25.5798 82.9803L27.5609 84.9079C27.9826 85.3162 28.6184 85.4166 29.1405 85.1556L31.7508 83.8571L32.6276 84.2051L33.6516 86.9426C33.8524 87.4847 34.3677 87.8462 34.95 87.8462C34.9567 87.8462 34.9634 87.8462 34.9701 87.8462L37.7343 87.7993C38.3233 87.7926 38.8387 87.4178 39.0328 86.8556L39.9631 84.0847L40.8265 83.7099L43.477 84.9213C43.7915 85.0619 44.1329 85.0886 44.4475 84.9949V99.3582C44.4475 100.128 45.0699 100.75 45.8329 100.75H82.571C83.3407 100.75 83.9631 100.128 83.9631 99.3582V86.1327L96.5126 68.0147ZM78.1469 86.2197L78.7559 86.6481L78.1335 86.889L78.1469 86.2197ZM81.3328 85.0485L78.7292 83.2347L90.8302 65.7525L93.4338 67.573L81.3328 85.0485ZM94.1968 60.8933L96.7669 62.6804L94.9865 65.2572L92.4097 63.4701L94.1968 60.8933ZM78.7024 61.6697H73.6358V56.5361L78.7024 61.6697ZM43.1691 79.1117L44.3002 81.4075L43.738 81.9831L41.4222 80.9256C41.0608 80.7582 40.6525 80.7582 40.2911 80.9122L38.2966 81.7823C37.9351 81.9362 37.654 82.2374 37.5269 82.6122L36.717 85.0351L35.9071 85.0485L35.017 82.6524C34.8831 82.2842 34.5953 81.9964 34.2272 81.8492L32.2059 81.046C31.8445 80.8988 31.4295 80.9189 31.0815 81.0929L28.7991 82.2307L28.2235 81.6685L29.2743 79.346C29.4417 78.9846 29.4417 78.5696 29.2877 78.2082L28.4243 76.207C28.2704 75.8455 27.9625 75.5644 27.5944 75.4373L25.1782 74.6207L25.1648 73.8176L27.5475 72.9207C27.9157 72.7868 28.2102 72.499 28.3507 72.1309L29.1539 70.1029C29.3011 69.7348 29.281 69.3265 29.107 68.9718L27.9759 66.6828L28.5314 66.1072L30.8539 67.1647C31.2086 67.3253 31.6236 67.332 31.985 67.1781L33.9795 66.308C34.341 66.154 34.6154 65.8462 34.7426 65.478L35.5591 63.0552L36.3623 63.0418L37.2524 65.4312C37.393 65.7993 37.6808 66.0938 38.0422 66.241L40.0702 67.0442C40.0836 67.0509 40.1037 67.0509 40.1171 67.0576C40.1438 67.071 40.1706 67.0777 40.1974 67.0844C40.2175 67.0911 40.2375 67.0978 40.2576 67.0978C40.2643 67.0978 40.2643 67.0978 40.2643 67.0978C40.2844 67.1044 40.3045 67.1044 40.3179 67.1111C40.3245 67.1111 40.3245 67.1111 40.3312 67.1111C40.3446 67.1178 40.3647 67.1178 40.3848 67.1245C40.3915 67.1245 40.3915 67.1245 40.3982 67.1245C40.4116 67.1245 40.4316 67.1245 40.4517 67.1312C40.4517 67.1312 40.4584 67.1312 40.4651 67.1312C40.4852 67.1312 40.4986 67.1312 40.5186 67.1312C40.5253 67.1312 40.532 67.1312 40.532 67.1312C40.5454 67.1312 40.5655 67.1312 40.5789 67.1312C40.5856 67.1312 40.5923 67.1312 40.599 67.1312C40.6123 67.1312 40.6257 67.1312 40.6391 67.1312C40.6458 67.1312 40.6592 67.1312 40.6726 67.1312C40.6793 67.1312 40.686 67.1312 40.6994 67.1312C40.7127 67.1312 40.7261 67.1245 40.7395 67.1245C40.7462 67.1245 40.7529 67.1245 40.7596 67.1245C40.773 67.1178 40.7931 67.1178 40.8064 67.1178C40.8131 67.1178 40.8198 67.1111 40.8198 67.1111C40.8399 67.1044 40.86 67.1044 40.8734 67.0978C40.8734 67.0978 40.8801 67.0978 40.8868 67.0978C40.9001 67.0911 40.9202 67.0911 40.9403 67.0844L40.947 67.0777C40.9671 67.0777 40.9872 67.071 41.0005 67.0576C41.0072 67.0576 41.0072 67.0576 41.0139 67.0576C41.034 67.0509 41.0474 67.0442 41.0675 67.0375C41.0742 67.0375 41.0809 67.0308 41.0875 67.0308C41.1009 67.0241 41.121 67.0174 41.1344 67.0107C41.1545 67.0041 41.1746 66.9974 41.1946 66.9907L43.477 65.8528L44.0526 66.4151L42.9951 68.7375C42.8344 69.099 42.8344 69.5072 42.9884 69.8687L43.8518 71.8766C43.9789 72.1644 44.1931 72.3919 44.4475 72.5392V75.2967C44.2132 75.4507 44.0258 75.6782 43.9187 75.9526L43.1155 77.9806C42.975 78.3487 42.9951 78.7637 43.1691 79.1117ZM47.2251 97.966V82.2709C47.4058 81.896 47.4125 81.4543 47.2251 81.0661V54.5483H70.8582V63.0619C70.8582 63.8316 71.4806 64.454 72.2503 64.454H81.1855V74.6542C81.1855 74.701 81.1922 74.7479 81.1989 74.7947L76.2728 81.9027C76.1189 81.3004 75.5767 80.8519 74.9275 80.8519H53.4897C52.72 80.8519 52.0976 81.4744 52.0976 82.2441C52.0976 83.0205 52.72 83.6362 53.4897 83.6362H74.9275C75.0948 83.6362 75.2555 83.6095 75.4094 83.5492C75.4094 83.5626 75.4094 83.5626 75.4094 83.5693L75.3291 88.5355C75.2019 88.4954 75.0614 88.4753 74.9275 88.4753H53.4897C52.72 88.4753 52.0976 89.0978 52.0976 89.8675C52.0976 90.6371 52.72 91.2596 53.4897 91.2596H74.9275C75.5634 91.2596 76.0988 90.8312 76.2594 90.2556C76.4067 90.3025 76.5606 90.3293 76.7146 90.3293C76.8819 90.3293 77.0559 90.2958 77.2165 90.2356L81.1855 88.6761V97.966H47.2251Z" fill="black"/>
  <path d="M75.8041 24.269C76.2056 24.269 76.5671 23.9945 76.6742 23.593C76.8013 23.1044 76.5135 22.6158 76.0316 22.4886C75.3556 22.3146 74.6596 22.1473 73.9769 21.9933C73.495 21.8929 73.0131 22.2008 72.906 22.6894C72.8056 23.178 73.1068 23.6599 73.5954 23.7603C74.258 23.9075 74.9206 24.0682 75.5765 24.2355C75.6501 24.2556 75.7304 24.269 75.8041 24.269Z" fill="black"/>
  <path d="M86.721 28.6662C87.8655 29.2886 89.0033 29.978 90.101 30.6942C90.2549 30.7946 90.4289 30.8414 90.5896 30.8414C90.8907 30.8414 91.1785 30.6942 91.3459 30.4331C91.6203 30.0115 91.5065 29.4493 91.0848 29.1816C89.947 28.4319 88.7757 27.7292 87.5844 27.0799C87.1493 26.839 86.6005 26.9996 86.3596 27.4414C86.1253 27.8764 86.2859 28.4252 86.721 28.6662Z" fill="black"/>
  <path d="M93.3941 33.0435C94.4248 33.8466 95.4355 34.7033 96.3993 35.5868C96.5733 35.7408 96.7942 35.8211 97.0083 35.8211C97.256 35.8211 97.4969 35.7207 97.6777 35.5199C98.0123 35.1518 97.9855 34.5829 97.6174 34.2482C96.6135 33.3313 95.5627 32.4478 94.4985 31.6112C94.1036 31.3033 93.5414 31.3769 93.2335 31.7718C92.9256 32.1667 92.9992 32.7356 93.3941 33.0435Z" fill="black"/>
  <path d="M78.8902 24.2689C78.7229 24.7374 78.9705 25.2528 79.439 25.4201C80.6706 25.8552 81.9021 26.3437 83.1001 26.8725C83.2206 26.9327 83.3411 26.9528 83.4682 26.9528C83.8096 26.9528 84.1375 26.7587 84.2915 26.4174C84.4923 25.9622 84.2848 25.4268 83.8297 25.226C82.5915 24.6705 81.3198 24.1685 80.0414 23.7134C79.5662 23.5461 79.0508 23.7937 78.8902 24.2689Z" fill="black"/>
  <path d="M100.636 39.9506C100.81 40.1647 101.064 40.2651 101.319 40.2651C101.526 40.2651 101.734 40.1982 101.908 40.051C102.282 39.723 102.329 39.1541 102.001 38.7726C101.546 38.2438 101.071 37.7084 100.596 37.1997C100.261 36.8316 99.6855 36.8115 99.3241 37.1529C98.9627 37.4942 98.9426 38.0631 99.2773 38.4313C99.7391 38.9265 100.194 39.4419 100.636 39.9506Z" fill="black"/>
  <path d="M27.7217 37.1263C27.9492 37.1263 28.1768 37.0393 28.3508 36.8652C29.3012 35.9349 30.3052 35.018 31.3292 34.1613C31.7107 33.84 31.7643 33.2711 31.443 32.8896C31.1217 32.5081 30.5595 32.4545 30.178 32.7758C29.1138 33.666 28.0764 34.6097 27.0858 35.5802C26.7311 35.9282 26.7244 36.4971 27.0791 36.8586C27.2531 37.0393 27.4874 37.1263 27.7217 37.1263Z" fill="black"/>
  <path d="M34.0813 31.812C34.262 31.812 34.4427 31.7584 34.6033 31.6447C35.6943 30.875 36.8321 30.1387 37.9833 29.4627C38.4117 29.2084 38.5522 28.6529 38.3046 28.2245C38.0502 27.7962 37.4947 27.6489 37.0664 27.9033C35.8817 28.606 34.697 29.369 33.5659 30.1655C33.1576 30.4466 33.0639 31.0155 33.345 31.4238C33.5191 31.6781 33.8002 31.812 34.0813 31.812Z" fill="black"/>
  <path d="M41.229 27.6089C41.3562 27.6089 41.49 27.5821 41.6172 27.5219C42.8153 26.9396 44.0602 26.4041 45.3051 25.9222C45.7736 25.7415 46.0012 25.2195 45.8271 24.751C45.6464 24.2891 45.1244 24.0549 44.6625 24.2289C43.3708 24.7242 42.079 25.2864 40.8408 25.8888C40.3924 26.103 40.1983 26.6451 40.4125 27.0935C40.5664 27.4215 40.8944 27.6089 41.229 27.6089Z" fill="black"/>
  <path d="M49.2141 24.6035C49.8633 24.4094 50.5192 24.2354 51.1751 24.0747C51.6637 23.9543 51.9582 23.4657 51.8378 22.9771C51.7173 22.4952 51.2354 22.2007 50.7468 22.3212C50.0641 22.4818 49.3814 22.6692 48.7121 22.87C48.2302 23.0105 47.9558 23.5058 48.0964 23.9877C48.2168 24.3826 48.5716 24.6436 48.9664 24.6436C49.0401 24.637 49.1271 24.6236 49.2141 24.6035Z" fill="black"/>
  <path d="M13.9276 87.2502C14.0481 87.6451 14.4095 87.8927 14.791 87.8927C14.878 87.8927 14.9651 87.886 15.0588 87.8593C15.534 87.712 15.8017 87.2033 15.6611 86.7281C15.4603 86.0789 15.2729 85.4163 15.1056 84.7604C14.9784 84.2785 14.4898 83.984 14.0079 84.1112C13.526 84.2383 13.2316 84.7336 13.3587 85.2155C13.5394 85.8915 13.7268 86.5809 13.9276 87.2502Z" fill="black"/>
  <path d="M11.786 69.835C11.7458 70.6516 11.7324 71.4748 11.7324 72.2913C11.7324 72.7465 11.7391 73.215 11.7458 73.6634C11.7659 74.1587 12.1608 74.5402 12.6494 74.5402C12.6561 74.5402 12.6628 74.5402 12.6761 74.5402C13.1714 74.5268 13.5663 74.1185 13.5529 73.6166C13.5395 73.1815 13.5328 72.7331 13.5328 72.2913C13.5328 71.5083 13.5529 70.7118 13.5864 69.922C13.6132 69.4267 13.225 69.0051 12.7297 68.9783C12.2344 68.9582 11.8127 69.3397 11.786 69.835Z" fill="black"/>
  <path d="M12.5289 81.3739C12.6092 81.8157 12.9841 82.1235 13.4124 82.1235C13.466 82.1235 13.5195 82.1169 13.573 82.1035C14.0616 82.0165 14.3896 81.5479 14.3026 81.0594C14.0884 79.8546 13.9144 78.6164 13.7939 77.3983C13.7404 76.903 13.2986 76.5416 12.8033 76.5951C12.3148 76.642 11.9533 77.0904 12.0002 77.5857C12.1273 78.8507 12.3014 80.129 12.5289 81.3739Z" fill="black"/>
  <path d="M13.0179 66.9438C13.4596 66.9438 13.8545 66.6024 13.9081 66.1473C13.9951 65.478 14.0888 64.7953 14.2026 64.126C14.2829 63.6374 13.9482 63.1689 13.4596 63.0886C12.971 63.0083 12.5025 63.3429 12.4222 63.8315C12.3084 64.5276 12.208 65.2303 12.121 65.9264C12.0608 66.4217 12.4088 66.8768 12.9041 66.9371C12.9443 66.9371 12.9777 66.9438 13.0179 66.9438Z" fill="black"/>
  <path d="M48.3303 119.718C47.6811 119.518 47.0319 119.297 46.3961 119.069C45.9275 118.909 45.4122 119.15 45.2382 119.618C45.0775 120.087 45.3185 120.609 45.787 120.776C46.4429 121.01 47.1189 121.238 47.7882 121.445C47.8752 121.472 47.9689 121.485 48.0559 121.485C48.4374 121.485 48.7922 121.238 48.9193 120.85C49.0733 120.374 48.8055 119.866 48.3303 119.718Z" fill="black"/>
  <path d="M35.1658 113.333C34.0347 112.557 32.9169 111.72 31.8527 110.857C31.4645 110.542 30.8956 110.596 30.5811 110.984C30.2665 111.372 30.3267 111.941 30.7082 112.255C31.8193 113.159 32.9705 114.022 34.1485 114.832C34.3091 114.933 34.4831 114.986 34.6571 114.986C34.9516 114.986 35.2327 114.852 35.4067 114.591C35.6812 114.176 35.5808 113.614 35.1658 113.333Z" fill="black"/>
  <path d="M42.4679 117.462C41.2163 116.894 39.9781 116.258 38.7801 115.582C38.345 115.334 37.7962 115.488 37.5486 115.923C37.3009 116.358 37.4616 116.914 37.8899 117.161C39.1348 117.857 40.4199 118.52 41.7116 119.109C41.8388 119.162 41.966 119.196 42.0864 119.196C42.4345 119.196 42.7557 119.002 42.9097 118.667C43.1172 118.212 42.9164 117.677 42.4679 117.462Z" fill="black"/>
  <mask id="mask3_291_422" style="mask-type:luminance" maskUnits="userSpaceOnUse" x="0" y="87" width="31" height="32">
    <path d="M0 87.3843H30.0049V118.226H0V87.3843Z" fill="white"/>
  </mask>
  <g mask="url(#mask3_291_422)">
    <path d="M27.2337 106.58C26.9593 106.292 26.5376 106.225 26.1963 106.386V89.8873C26.1963 89.1176 25.5738 88.4951 24.8041 88.4951H1.46554C0.695837 88.4951 0.0800781 89.1176 0.0800781 89.8873V107.858C0.0800781 108.628 0.695837 109.25 1.46554 109.25H6.7865V115.307C6.7865 115.883 7.14123 116.398 7.67667 116.606C7.8373 116.673 8.01132 116.7 8.17865 116.7C8.56015 116.7 8.93496 116.539 9.19599 116.251L15.6213 109.257H24.8041C25.4935 109.257 26.0691 108.755 26.1762 108.092C26.5845 108.514 26.9995 108.929 27.4144 109.337C27.5951 109.505 27.816 109.592 28.0436 109.592C28.2778 109.592 28.5188 109.498 28.6928 109.317C29.0408 108.956 29.0274 108.38 28.6727 108.032C28.1841 107.557 27.7022 107.068 27.2337 106.58ZM23.4187 106.466H15.0122C14.6173 106.466 14.2492 106.627 13.9882 106.914L9.56411 111.733V107.858C9.56411 107.088 8.94835 106.466 8.17865 106.466H2.85769V91.2794H23.4187V106.466Z" fill="black"/>
  </g>
  <path d="M93.2198 111.673C92.6844 112.088 92.1355 112.496 91.58 112.884C91.1717 113.179 91.078 113.741 91.3658 114.143C91.5399 114.397 91.821 114.531 92.1021 114.531C92.2828 114.531 92.4568 114.477 92.6174 114.364C93.193 113.955 93.7619 113.534 94.3175 113.105C94.7124 112.804 94.786 112.235 94.4848 111.84C94.1836 111.439 93.6147 111.372 93.2198 111.673Z" fill="black"/>
  <path d="M88.6687 114.799C87.6982 115.388 86.701 115.95 85.7037 116.465C85.2553 116.693 85.0812 117.235 85.3088 117.683C85.4694 117.991 85.7907 118.172 86.112 118.172C86.2525 118.172 86.3931 118.145 86.5202 118.072C87.5644 117.536 88.5951 116.954 89.599 116.351C90.0207 116.09 90.1613 115.535 89.9002 115.113C89.6459 114.678 89.0971 114.544 88.6687 114.799Z" fill="black"/>
  <path d="M82.5513 117.951C81.5206 118.4 80.4497 118.815 79.3922 119.19C78.9237 119.357 78.6694 119.866 78.8367 120.341C78.9639 120.709 79.3119 120.943 79.6867 120.943C79.7804 120.943 79.8808 120.93 79.9812 120.896C81.0856 120.508 82.1899 120.08 83.2608 119.618C83.7226 119.424 83.9368 118.888 83.736 118.433C83.5419 117.971 83.0132 117.757 82.5513 117.951Z" fill="black"/>
  <path d="M76.0602 120.22C75.411 120.401 74.7417 120.569 74.0858 120.716C73.5972 120.83 73.296 121.311 73.4098 121.8C73.5035 122.222 73.8716 122.503 74.2866 122.503C74.3535 122.503 74.4204 122.496 74.4873 122.483C75.1767 122.329 75.8661 122.155 76.5354 121.967C77.0173 121.84 77.3051 121.338 77.1712 120.856C77.0374 120.374 76.5421 120.093 76.0602 120.22Z" fill="black"/>
  <path d="M113.66 63.6708C113.58 63.1755 113.112 62.8408 112.623 62.9278C112.134 63.0081 111.8 63.4767 111.88 63.9652C111.994 64.6346 112.094 65.3172 112.181 65.9865C112.235 66.4484 112.623 66.783 113.071 66.783C113.112 66.783 113.145 66.7763 113.185 66.7763C113.68 66.7161 114.035 66.261 113.968 65.7657C113.881 65.0696 113.774 64.3601 113.66 63.6708Z" fill="black"/>
  <path d="M112.121 84.0241C112.188 84.0375 112.249 84.0509 112.315 84.0509C112.73 84.0509 113.099 83.7564 113.192 83.3347C113.5 81.9225 113.754 80.4768 113.942 79.0378C114.009 78.5425 113.654 78.0941 113.165 78.0272C112.67 77.9602 112.222 78.315 112.155 78.8036C111.974 80.189 111.733 81.5879 111.439 82.9465C111.325 83.4351 111.633 83.917 112.121 84.0241Z" fill="black"/>
  <path d="M113.392 75.4506C113.406 75.4506 113.413 75.4506 113.433 75.4506C113.908 75.4506 114.309 75.0691 114.33 74.5805C114.363 73.8242 114.383 73.0545 114.383 72.2915C114.383 71.6088 114.37 70.9061 114.343 70.2234C114.323 69.7214 113.901 69.3332 113.406 69.3533C112.904 69.3734 112.522 69.795 112.536 70.297C112.563 70.9529 112.576 71.6289 112.576 72.2915C112.576 73.0278 112.563 73.7707 112.529 74.5069C112.509 75.0022 112.891 75.4239 113.392 75.4506Z" fill="black"/>
  <path d="M110.334 87.1234C110.126 87.7726 109.912 88.4219 109.685 89.0577C109.511 89.5262 109.758 90.0416 110.227 90.2156C110.327 90.2491 110.428 90.2691 110.528 90.2691C110.903 90.2691 111.244 90.0349 111.378 89.6668C111.612 89.0042 111.84 88.3282 112.047 87.6589C112.195 87.1837 111.934 86.675 111.458 86.5277C110.983 86.3805 110.481 86.6482 110.334 87.1234Z" fill="black"/>
  <path d="M5.50852 105.308C6.23137 105.569 7.02784 105.194 7.28887 104.478L7.831 102.972H10.9566L11.4988 104.478C11.7063 105.04 12.2417 105.395 12.8039 105.395C12.9646 105.395 13.1252 105.368 13.2791 105.308C13.9083 105.08 14.2697 104.445 14.1827 103.802C14.8587 104.833 16.0233 105.515 17.3418 105.515C17.9509 105.515 18.5198 105.368 19.0284 105.114C19.256 105.288 19.5438 105.388 19.8584 105.388C20.6281 105.388 21.2438 104.766 21.2438 103.996V94.579C21.2438 93.8026 20.6281 93.1802 19.8584 93.1802C19.0887 93.1802 18.4662 93.8026 18.4662 94.579V98.0795C18.1115 97.9657 17.73 97.9055 17.3418 97.9055C15.2536 97.9055 13.5535 99.6122 13.5535 101.707C13.5535 101.814 13.5535 101.915 13.5669 102.022L10.7023 94.1038C10.5015 93.555 9.97947 93.1802 9.39717 93.1802C8.80819 93.1802 8.28613 93.5483 8.08534 94.1038L4.67858 103.521C4.41756 104.244 4.78567 105.047 5.50852 105.308ZM17.3485 100.69C17.904 100.69 18.3591 101.145 18.3591 101.707C18.3591 102.269 17.904 102.724 17.3485 102.724C16.7863 102.724 16.3312 102.269 16.3312 101.707C16.3312 101.145 16.7863 100.69 17.3485 100.69ZM9.95269 100.188H8.84834L9.39717 98.6618L9.95269 100.188Z" fill="black"/>
</svg>