<?xml version="1.0" encoding="utf-8"?>
<svg width="135" height="100" viewBox="0 0 135 100" fill="none" xmlns="http://www.w3.org/2000/svg" id="maroon-youtube-thumbnails" class="YouTube media Maroon Digital video creative visuals thumbnails design, Rise marketing" role="contentinfo">
  <desc>A dynamic and visually appealing YouTube thumbnail designed to attract viewers, created by Maroon Digital Rise.      Boost your video engagement with custom YouTube thumbnails designed by Maroon Digital Rise, tailored to captivate and convert viewers.
Category: Design &amp; Editing Services</desc>
  <title>Captivating YouTube Media Thumbnails - Maroon Digital Rise</title>
  <mask id="mask0_291_337" style="mask-type:luminance" maskUnits="userSpaceOnUse" x="0" y="0" width="135" height="100">
    <path d="M0 0H134.091V100H0V0Z" fill="white"/>
  </mask>
  <g mask="url(#mask0_291_337)">
    <path d="M129.132 47.3549H127.53C127.766 43.9318 125.538 40.881 122.597 40.912H99.9499V15.2333C99.9499 10.3158 96.7503 6.27215 92.6578 5.86882C91.4497 2.41466 88.6177 0.0463867 85.335 0.0463867H7.8962C3.54103 0.0463867 0 4.28135 0 9.41605V62.3247C0 67.2422 3.19962 71.322 7.29216 71.6943C8.50023 75.1795 11.3891 77.5168 14.615 77.5168H60.5127V87.6311C60.5127 90.837 62.7144 93.4845 65.4456 93.4845H67.0433C66.8113 96.9076 69.0392 99.9585 71.9806 99.9274H129.158C131.863 99.9274 134.091 97.311 134.091 94.074V53.1774C134.065 49.9714 131.837 47.3549 129.132 47.3549ZM97.7483 15.2023V40.881H93.2618C93.2618 40.7879 93.2618 9.38503 93.2618 9.29195C93.2618 9.07477 93.2618 8.82657 93.2355 8.60422C95.8311 9.29195 97.7483 11.9963 97.7483 15.2023ZM122.597 43.5285C123.332 43.5285 124.015 43.9008 124.514 44.4592C125.486 45.4262 125.302 47.2929 125.302 48.6632V62.7952L122.229 59.7134C121.84 59.31 121.262 59.279 120.815 59.6513L109.269 70.0759L92.9466 58.5603C92.6052 58.281 92.1588 58.219 91.7648 58.4672L62.7144 77.3927C62.7144 72.5682 62.7144 51.9001 62.7144 46.7344C62.7144 44.9918 63.9224 43.5285 65.4194 43.5285C81.4525 43.5285 106.984 43.5285 122.597 43.5285ZM125.302 66.2494V81.4053L111.339 71.5392L121.472 62.3867L125.302 66.2494ZM60.5127 74.8693H14.5887C12.5928 74.8693 10.8113 73.6541 9.76082 71.6943H60.4864V74.8693H60.5127ZM60.5127 46.7344V69.083H7.8962C4.77536 69.083 2.20166 66.0322 2.20166 62.3247V9.41605C2.20166 7.54936 2.83195 5.86882 3.88244 4.65366C4.90667 3.4385 6.32484 2.66286 7.8962 2.66286H85.3612C88.4602 2.66286 91.0295 5.68266 91.0558 9.32298C91.0558 9.38503 91.0558 40.7879 91.0558 40.881H65.4456C62.7144 40.881 60.5127 43.5285 60.5127 46.7344ZM68.1463 90.837H65.4194C63.9487 90.837 62.7144 89.4047 62.7144 87.6311V80.4125L92.2901 61.1457L125.302 84.4561V87.6311C125.302 89.3736 124.094 90.837 122.597 90.837H68.1463ZM131.837 94.074C131.837 95.8166 130.629 97.2799 129.132 97.2799H71.9543C70.221 97.311 69.0655 95.4133 69.2493 93.4845H122.597C125.302 93.4845 127.53 90.868 127.53 87.6311V49.9714H129.132C130.602 49.9714 131.837 51.4037 131.837 53.1774V94.074ZM68.514 31.5785L36.0012 11.0656C35.4497 10.7243 34.7932 10.9725 34.5043 11.624C34.4255 11.8102 34.373 12.0325 34.373 12.2497V56.1661C34.3467 57.221 35.4497 57.8777 36.1588 57.221L68.5927 33.8796C69.3018 33.3832 69.2756 32.0129 68.514 31.5785ZM36.6053 53.8289V14.4267L65.7608 32.7885L36.6053 53.8289ZM111.05 59.8685C114.569 55.9128 111.996 48.415 107.089 48.5391C104.021 48.5391 101.499 51.4968 101.499 55.1682C101.394 60.9906 107.719 64.0362 111.05 59.8685ZM109.479 52.3345C112.547 56.1661 107.929 61.6111 104.703 58.0018C101.657 54.1702 106.275 48.7252 109.479 52.3345Z" fill="black"/>
  </g>
</svg>