<?xml version="1.0" encoding="utf-8"?>
<svg width="132" height="132" viewBox="0 0 132 132" fill="none" xmlns="http://www.w3.org/2000/svg" id="maroon-infographics" class="infographic data Maroon Digital creative visual storytelling design visualization Rise branding" role="contentinfo">
  <desc>A detailed and visually engaging infographic designed to present data and insights creatively by Maroon Digital Rise.    Simplify complex information with Maroon Digital Rise’s custom infographic designs, merging creativity and clarity for impactful communication.
Category: Design &amp; Editing Services</desc>
  <title>Engaging Infographic Designs - Maroon Digital Rise</title>
  <mask id="mask0_291_424" style="mask-type:luminance" maskUnits="userSpaceOnUse" x="0" y="0" width="132" height="132">
    <path d="M0 0H131.994V132H0V0Z" fill="white"/>
  </mask>
  <g mask="url(#mask0_291_424)">
    <path d="M131.994 6.80251C131.994 6.36952 131.949 5.94222 131.869 5.51493C131.783 5.09333 131.658 4.68313 131.493 4.28432C131.328 3.88551 131.122 3.50379 130.883 3.14487C130.644 2.78594 130.37 2.4555 130.068 2.14784C129.761 1.84589 129.43 1.57242 129.071 1.33314C128.712 1.08815 128.331 0.888748 127.932 0.723528C127.533 0.558306 127.123 0.432967 126.701 0.347508C126.274 0.262048 125.847 0.222168 125.414 0.222168H7.01317C6.23834 0.222168 5.4863 0.353204 4.75705 0.615279C4.0335 0.88305 3.37261 1.26477 2.7801 1.76043C2.18758 2.26179 1.69762 2.84861 1.3102 3.52089C0.922788 4.19316 0.666412 4.91102 0.535374 5.67445C0.404338 6.43789 0.404337 7.20132 0.546769 7.95906C0.683503 8.72249 0.951275 9.44035 1.34439 10.1069C1.7375 10.7735 2.23316 11.3546 2.83137 11.8503C3.42389 12.3403 4.09047 12.7163 4.81972 12.9727V116.429C4.81972 116.72 4.87669 116.999 4.99064 117.267C5.09889 117.54 5.25841 117.774 5.46351 117.979C5.66861 118.184 5.9079 118.344 6.17567 118.458C6.44344 118.566 6.72261 118.623 7.01317 118.623H64.02V120.816C63.2395 120.816 62.6299 121.141 62.1969 121.79L57.8157 128.371C57.5878 128.707 57.4682 129.077 57.4454 129.482C57.4283 129.886 57.5137 130.262 57.7018 130.621C57.8955 130.974 58.1632 131.259 58.5108 131.464C58.8583 131.675 59.2343 131.778 59.6388 131.778H72.7938C73.1983 131.778 73.5743 131.675 73.9219 131.464C74.2694 131.259 74.5372 130.974 74.7252 130.621C74.9189 130.262 75.0044 129.886 74.9816 129.482C74.9645 129.077 74.8391 128.707 74.6169 128.371L70.23 121.79C69.7971 121.141 69.1874 120.816 68.4069 120.816V118.623H125.414C125.704 118.623 125.984 118.566 126.257 118.458C126.525 118.344 126.758 118.184 126.963 117.979C127.174 117.774 127.328 117.54 127.442 117.267C127.55 116.999 127.607 116.72 127.607 116.429V12.9727C128.245 12.7505 128.838 12.4314 129.379 12.0212C129.92 11.6167 130.387 11.1324 130.781 10.5798C131.174 10.0272 131.47 9.42895 131.681 8.78516C131.886 8.14137 131.988 7.48049 131.994 6.80251ZM68.6975 127.391H63.7352L65.1937 125.203H67.2333L68.6975 127.391ZM123.22 114.236H9.20662V13.3772H123.22V114.236ZM125.414 8.99026H7.01317C6.72261 8.99026 6.44344 8.93899 6.17567 8.82504C5.9079 8.71679 5.66861 8.55727 5.46351 8.35217C5.25841 8.14707 5.09889 7.90778 4.99064 7.64001C4.87669 7.37224 4.81972 7.09307 4.81972 6.80251C4.81972 6.51195 4.87669 6.22709 4.99064 5.95932C5.09889 5.69155 5.25841 5.45226 5.46351 5.24716C5.66861 5.04206 5.9079 4.88823 6.17567 4.77429C6.44344 4.66034 6.72261 4.60906 7.01317 4.60906H125.414C125.704 4.60906 125.984 4.66034 126.257 4.77429C126.525 4.88823 126.758 5.04206 126.963 5.24716C127.174 5.45226 127.328 5.69155 127.442 5.95932C127.55 6.22709 127.607 6.51195 127.607 6.80251C127.607 7.09307 127.55 7.37224 127.442 7.64001C127.328 7.90778 127.174 8.14707 126.963 8.35217C126.758 8.55727 126.525 8.71679 126.257 8.82504C125.984 8.93899 125.704 8.99026 125.414 8.99026Z" fill="black"/>
  </g>
  <path d="M15.7882 112.048H24.5563C24.8468 112.048 25.126 111.991 25.3938 111.877C25.6615 111.769 25.9008 111.609 26.1059 111.404C26.311 111.199 26.4706 110.96 26.5845 110.692C26.6927 110.424 26.7497 110.145 26.7497 109.854V63.8092C26.7497 63.5186 26.6927 63.2394 26.5845 62.966C26.4706 62.6982 26.311 62.4646 26.1059 62.2595C25.9008 62.0544 25.6615 61.8949 25.3938 61.7809C25.126 61.6727 24.8468 61.6157 24.5563 61.6157H15.7882C15.4976 61.6157 15.2184 61.6727 14.945 61.7809C14.6772 61.8949 14.4436 62.0544 14.2385 62.2595C14.0277 62.4646 13.8739 62.6982 13.7599 62.966C13.6517 63.2394 13.5947 63.5186 13.5947 63.8092V109.854C13.5947 110.145 13.6517 110.424 13.7599 110.692C13.8739 110.96 14.0277 111.199 14.2385 111.404C14.4436 111.609 14.6772 111.769 14.945 111.877C15.2184 111.991 15.4976 112.048 15.7882 112.048ZM17.9816 66.0026H22.3628V107.661H17.9816V66.0026Z" fill="black"/>
  <path d="M42.0973 52.8423H33.3235C33.0329 52.8423 32.7538 52.8993 32.486 53.0132C32.2182 53.1215 31.9789 53.281 31.7738 53.4861C31.5687 53.6912 31.4092 53.9305 31.301 54.1982C31.187 54.466 31.1357 54.7452 31.1357 55.0357V109.855C31.1357 110.145 31.187 110.425 31.301 110.692C31.4092 110.96 31.5687 111.199 31.7738 111.405C31.9789 111.61 32.2182 111.769 32.486 111.877C32.7538 111.991 33.0329 112.048 33.3235 112.048H42.0973C42.3878 112.048 42.667 111.991 42.9348 111.877C43.2026 111.769 43.4418 111.61 43.6469 111.405C43.852 111.199 44.0116 110.96 44.1198 110.692C44.2338 110.425 44.2907 110.145 44.2907 109.855V55.0357C44.2907 54.7452 44.2338 54.466 44.1198 54.1982C44.0116 53.9305 43.852 53.6912 43.6469 53.4861C43.4418 53.281 43.2026 53.1215 42.9348 53.0132C42.667 52.8993 42.3878 52.8423 42.0973 52.8423ZM39.9038 107.661H35.5169V57.2292H39.9038V107.661Z" fill="black"/>
  <path d="M50.8653 112.048H59.6391C59.9297 112.048 60.2088 111.991 60.4766 111.877C60.7444 111.769 60.9837 111.609 61.1888 111.404C61.3939 111.199 61.5534 110.96 61.6616 110.692C61.7756 110.424 61.8326 110.145 61.8326 109.855V41.8805C61.8326 41.5899 61.7756 41.3107 61.6616 41.043C61.5534 40.7752 61.3939 40.5359 61.1888 40.3308C60.9837 40.1257 60.7444 39.9662 60.4766 39.8579C60.2088 39.744 59.9297 39.687 59.6391 39.687H50.8653C50.5748 39.687 50.2956 39.744 50.0278 39.8579C49.7601 39.9662 49.5208 40.1257 49.3157 40.3308C49.1106 40.5359 48.951 40.7752 48.8428 41.043C48.7288 41.3107 48.6719 41.5899 48.6719 41.8805V109.855C48.6719 110.145 48.7288 110.424 48.8428 110.692C48.951 110.96 49.1106 111.199 49.3157 111.404C49.5208 111.609 49.7601 111.769 50.0278 111.877C50.2956 111.991 50.5748 112.048 50.8653 112.048ZM53.0588 44.0739H57.4457V107.661H53.0588V44.0739Z" fill="black"/>
  <path d="M19.5298 52.204L42.0967 29.6314V37.4936H46.4836V24.3386H44.2901V22.1509H31.1351V26.5321H38.9974L16.4248 49.1047L19.5298 52.204Z" fill="black"/>
  <path d="M79.1011 47.6576C77.4147 49.0876 75.9505 50.7227 74.7085 52.5573C73.4722 54.3975 72.5093 56.363 71.8143 58.471C71.1192 60.5733 70.7204 62.7326 70.6236 64.9431C70.5267 67.1537 70.7318 69.3414 71.2332 71.495C71.7402 73.6542 72.5264 75.6996 73.5975 77.6423C74.6686 79.5794 75.979 81.3399 77.5343 82.9123C79.0897 84.4904 80.8274 85.8293 82.753 86.9232C84.6787 88.0228 86.7183 88.8375 88.8662 89.373L83.9552 100.175C83.8754 100.34 83.8241 100.517 83.7899 100.693C83.7615 100.876 83.7501 101.058 83.7615 101.24C83.7785 101.423 83.8127 101.605 83.8697 101.776C83.9267 101.953 84.0064 102.112 84.1033 102.272C84.2058 102.425 84.3198 102.562 84.4565 102.688C84.5933 102.813 84.7357 102.921 84.9009 103.007C85.0604 103.092 85.2313 103.16 85.408 103.206C85.5846 103.252 85.7669 103.274 85.9492 103.274H101.298V98.8874H89.3562L93.3727 90.051C93.8228 90.0738 94.2672 90.1193 94.7173 90.1193C95.9764 90.1193 97.2241 90.0225 98.4604 89.8345C99.7024 89.6408 100.922 89.3502 102.112 88.9685C103.309 88.5811 104.465 88.1082 105.588 87.5442C106.71 86.9802 107.781 86.3307 108.801 85.6014C109.821 84.8665 110.778 84.0631 111.667 83.1801C112.561 82.297 113.382 81.3513 114.128 80.3428C114.874 79.3344 115.535 78.2747 116.116 77.1581C116.697 76.0471 117.187 74.8962 117.586 73.7055C117.985 72.5148 118.287 71.3013 118.498 70.065C118.708 68.8287 118.822 67.581 118.84 66.3276C118.851 65.0685 118.771 63.8208 118.589 62.5788C118.412 61.3367 118.139 60.1175 117.768 58.9211C117.398 57.719 116.937 56.5567 116.384 55.4287C115.831 54.3006 115.193 53.2238 114.47 52.1983C113.752 51.1728 112.954 50.2043 112.083 49.3041C111.211 48.3983 110.277 47.5721 109.274 46.8144L111.65 39.6871H118.84V35.3059H110.066C109.593 35.3059 109.166 35.4427 108.784 35.7161C108.402 35.9953 108.134 36.3542 107.986 36.8043L105.445 44.4273C103.69 43.5499 101.862 42.8947 99.9474 42.4617C98.0331 42.0344 96.0903 41.8407 94.1305 41.8863C92.1706 41.9376 90.2449 42.2224 88.3534 42.7409C86.462 43.2593 84.6616 44.0057 82.9524 44.9685L79.3062 30.3835C79.1808 29.8992 78.9245 29.5004 78.5257 29.1928C78.1326 28.8794 77.6825 28.7256 77.1811 28.7256H66.2139V33.1125H75.4662L79.1011 47.6576ZM95.3497 85.6983L98.9048 77.8702L94.9167 76.0585L90.7064 85.3222C87.6299 84.6785 84.8667 83.3738 82.4169 81.4025L95.6289 68.1906H114.322C114.191 69.3642 113.957 70.5093 113.621 71.6374C113.285 72.7598 112.846 73.8479 112.316 74.8962C111.786 75.9445 111.165 76.9416 110.459 77.8759C109.747 78.816 108.96 79.6819 108.094 80.4796C107.234 81.2772 106.306 81.995 105.314 82.6217C104.323 83.2541 103.28 83.7954 102.192 84.2398C101.104 84.6842 99.9873 85.0317 98.8364 85.2767C97.6856 85.5216 96.5233 85.6641 95.3497 85.6983ZM105.571 57.9241L107.793 51.2583C109.621 52.8706 111.097 54.7621 112.225 56.9271C113.347 59.092 114.048 61.3823 114.322 63.8094H96.9107V46.3985C99.4346 46.6777 101.816 47.4183 104.049 48.6204L101.417 56.5396L105.571 57.9241ZM92.5295 46.3985V65.0912L79.3176 78.3032C78.5826 77.386 77.9331 76.4117 77.3691 75.3805C76.8108 74.3493 76.3436 73.2782 75.9733 72.1616C75.6087 71.0449 75.3409 69.9054 75.1757 68.7432C75.0161 67.581 74.9535 66.4073 74.9991 65.2337C75.0446 64.06 75.1985 62.9035 75.4491 61.7526C75.7055 60.6075 76.0587 59.4908 76.5145 58.4084C76.9703 57.3259 77.5172 56.2947 78.1553 55.309C78.7991 54.3234 79.517 53.4005 80.326 52.5459L81.6307 57.7646L85.8808 56.6992L84.0634 49.4181C86.6443 47.7431 89.4701 46.7403 92.5295 46.3985Z" fill="black"/>
  <path d="M66.2139 22.1509H88.1426V26.5321H66.2139V22.1509Z" fill="black"/>
  <path d="M66.2139 15.5708H81.5623V19.9577H66.2139V15.5708Z" fill="black"/>
  <path d="M99.1045 28.7256H118.84V33.1125H99.1045V28.7256Z" fill="black"/>
  <path d="M99.1045 22.1509H118.84V26.5321H99.1045V22.1509Z" fill="black"/>
  <path d="M99.1045 15.5708H118.84V19.9577H99.1045V15.5708Z" fill="black"/>
  <path d="M83.7559 15.5708H88.1428V19.9577H83.7559V15.5708Z" fill="black"/>
  <path d="M103.491 92.313H116.646V96.6999H103.491V92.313Z" fill="black"/>
  <path d="M103.491 98.8872H116.646V103.274H103.491V98.8872Z" fill="black"/>
  <path d="M103.491 105.468H116.646V109.855H103.491V105.468Z" fill="black"/>
  <path d="M66.2139 87.9258H79.3689V92.3127H66.2139V87.9258Z" fill="black"/>
  <path d="M66.2139 94.5063H79.3689V98.8875H66.2139V94.5063Z" fill="black"/>
  <path d="M66.2139 101.081H79.3689V105.468H66.2139V101.081Z" fill="black"/>
  <path d="M66.2139 107.661H79.3689V112.048H66.2139V107.661Z" fill="black"/>
</svg>