<?xml version="1.0" encoding="utf-8"?>
<svg width="132" height="132" viewBox="0 0 132 132" fill="none" xmlns="http://www.w3.org/2000/svg" id="ecommerce_listing_maroon_digital_rise" class="ecommerce product online sales, Maroon Digital digital strategies branding listing optimization" role="contentinfo">
  <desc> A professional ecommerce listing by Maroon Digital Rise, designed to enhance product visibility and drive online sales.     A demonstration of Maroon Digital Rise's expertise in creating optimized ecommerce listings with compelling product descriptions, high-quality visuals, and SEO strategies to maximize online visibility and sales.</desc>
  <title>Optimized Ecommerce Listings by Maroon Digital Rise</title>
  <mask id="mask0_304_801" style="mask-type:luminance" maskUnits="userSpaceOnUse" x="0" y="0" width="132" height="132">
    <path d="M0 0H132V132H0V0Z" fill="white"/>
  </mask>
  <g mask="url(#mask0_304_801)">
    <path d="M127.741 96.6487C127.741 100.537 125.886 104.155 122.778 106.454H102.903C99.7902 104.155 97.9352 100.537 97.9352 96.6487V80.9028C100.282 80.9028 102.194 82.8156 102.194 85.1621V89.4214H106.454V66C106.454 64.8292 107.408 63.8703 108.583 63.8703C109.754 63.8703 110.708 64.8292 110.708 66V89.4214H114.968V78.7731C114.968 77.6023 115.926 76.6434 117.097 76.6434C118.268 76.6434 119.227 77.6023 119.227 78.7731V89.4214H123.486V83.0324C123.486 81.8616 124.44 80.9028 125.616 80.9028C126.787 80.9028 127.741 81.8616 127.741 83.0324V96.6487ZM102.421 127.741L104.122 110.708H121.554L123.26 127.741H102.421ZM102.194 66V68.1297H91.8305L93.4301 55.3565H106.834L107.707 59.7026C104.599 60.1266 102.194 62.7718 102.194 66ZM102.194 51.0972H97.9352V48.9676C97.9352 47.7968 98.894 46.8379 100.065 46.8379C101.236 46.8379 102.194 47.7968 102.194 48.9676V51.0972ZM80.9028 76.6434C78.5611 76.6434 76.6483 78.5563 76.6483 80.9028V85.1621C76.6483 87.5085 78.5611 89.4214 80.9028 89.4214H93.6759V96.6487C93.6759 98.5664 94.0276 100.441 94.6588 102.194H72.389V38.3241H114.968V66C114.968 63.8559 113.898 61.9575 112.265 60.8011L110.328 51.0972H106.454V48.9676C106.454 45.4406 103.592 42.5834 100.065 42.5834C96.5379 42.5834 93.6759 45.4406 93.6759 48.9676V51.0972H89.6719L87.0074 72.389H102.194V77.8239C100.937 77.0964 99.4915 76.6434 97.9352 76.6434H80.9028ZM93.6759 85.1621H80.9028V80.9028H93.6759V85.1621ZM66 119.227C64.8292 119.227 63.8703 118.268 63.8703 117.097V31.9352C63.8703 30.7643 64.8292 29.8055 66 29.8055H121.357C122.527 29.8055 123.486 30.7643 123.486 31.9352V77.0385C123.399 77.0675 123.318 77.0867 123.236 77.1108C122.686 75.092 121.183 73.4779 119.227 72.7792V34.0648H68.1297V106.454H96.9378C97.7954 107.605 98.8073 108.636 99.9588 109.552L99.8384 110.708H85.1621V114.968H99.4144L98.9904 119.227H66ZM35.3802 68.0863L37.7989 59.611H38.8493L41.1621 67.696C39.5191 67.9562 37.8664 68.1297 36.1945 68.1297C35.9198 68.1297 35.6548 68.0959 35.3802 68.0863ZM48.8375 47.4402C50.5335 46.1056 51.9645 44.4625 53.0534 42.5834H57.4862C58.233 42.5834 58.9413 42.4244 59.6159 42.1883V57.8572C59.4376 58.0499 59.2545 58.2138 59.081 58.3968C56.7442 53.8822 53.1787 50.0806 48.8375 47.4402ZM37.9435 55.3565L37.0762 51.0298C37.4906 51.0635 37.9001 51.0972 38.3241 51.0972C38.7481 51.0972 39.1577 51.0635 39.5721 51.0298L38.7048 55.3565H37.9435ZM25.551 26.0473C25.551 23.4262 27.6855 21.2917 30.3066 21.2917C31.0486 21.2917 31.781 21.4652 32.4363 21.788C37.3509 24.2501 42.8581 25.551 48.346 25.551H48.9676C50.1432 25.551 51.0972 26.505 51.0972 27.6759V34.0648C51.0972 41.1091 45.3684 46.8379 38.3241 46.8379C31.2799 46.8379 25.551 41.1091 25.551 34.0648V26.0473ZM55.3565 34.0648H57.4862C58.657 34.0648 59.6159 35.0237 59.6159 36.1945C59.6159 37.3653 58.657 38.3241 57.4862 38.3241H54.7976C55.1494 36.9606 55.3565 35.5392 55.3565 34.0648ZM21.2917 26.0473V25.551C21.2917 18.5068 27.0206 12.7731 34.0648 12.7731H42.5834C49.6277 12.7731 55.3565 18.5068 55.3565 25.551V27.6759C55.3565 24.1537 52.4945 21.2917 48.9676 21.2917H48.346C43.5134 21.2917 38.6662 20.1498 34.3395 17.9912C33.0915 17.3649 31.7039 17.0324 30.3066 17.0324C25.3438 17.0324 21.2917 21.0845 21.2917 26.0473ZM19.1621 34.0648H21.2917C21.2917 35.5392 21.4989 36.9606 21.8506 38.3241H19.1621C17.9912 38.3241 17.0324 37.3653 17.0324 36.1945C17.0324 35.0237 17.9912 34.0648 19.1621 34.0648ZM27.0543 55.9781L24.0429 58.9895C25.0018 59.9435 25.551 61.2685 25.551 62.6224V66.265C23.5948 65.5664 21.7302 64.7039 19.9763 63.6535C22.0048 57.5826 26.3653 52.6583 32.1616 49.9264C32.2869 49.9746 32.4122 50.018 32.5374 50.0661L34.007 57.3947L31.0727 67.6816C30.6487 67.6141 30.2247 67.5707 29.8055 67.4888V62.6224C29.8055 60.1121 28.8274 57.7512 27.0543 55.9781ZM49.594 55.9781C47.8209 57.7512 46.8379 60.1121 46.8379 62.6224V66.2746C46.3417 66.4481 45.8357 66.6071 45.3202 66.7565L42.6413 57.3947L44.1108 50.0661C44.2361 50.018 44.3614 49.9746 44.4866 49.9264C49.4783 52.2777 53.4919 56.3636 55.7806 61.3745C54.3062 62.5261 52.7354 63.5234 51.0972 64.3859V62.6224C51.0972 61.2685 51.6465 59.9435 52.6053 58.9895L49.594 55.9781ZM4.25931 36.1945C4.25931 18.5887 18.5887 4.25931 36.1945 4.25931C49.8445 4.25931 61.8515 12.8839 66.318 25.551H66C63.0561 25.551 60.594 27.5602 59.8616 30.2729C59.7797 30.2488 59.6978 30.2295 59.6159 30.1958V25.551C59.6159 16.1603 51.9693 8.51862 42.5834 8.51862H34.0648C24.6741 8.51862 17.0324 16.1603 17.0324 25.551V30.1958C14.5655 31.0775 12.7779 33.424 12.7779 36.1945C12.7779 39.7214 15.6351 42.5834 19.1621 42.5834H23.5948C24.6838 44.4529 26.1148 46.1007 27.8011 47.4402C22.5637 50.6058 18.5405 55.4047 16.3434 61.1577C8.9908 55.3035 4.25931 46.2983 4.25931 36.1945ZM132 96.6487V83.0324C132 80.2619 130.212 77.9155 127.741 77.0385V31.9352C127.741 28.4082 124.883 25.551 121.357 25.551H70.7652C66.1253 10.4314 52.1524 0 36.1945 0C16.2374 0 0 16.2326 0 36.1945C0 56.1516 16.2374 72.389 36.1945 72.389C44.8335 72.389 53.1113 69.2523 59.6159 63.7306V117.097C59.6159 120.624 62.4731 123.481 66 123.481H98.5615L97.7135 132H127.967L125.722 109.552C129.663 106.435 132 101.717 132 96.6487Z" fill="black"/>
  </g>
  <path d="M76.6484 55.357H85.1622V51.0977H76.6484V55.357Z" fill="black"/>
  <path d="M76.6484 63.8706H85.1622V59.6113H76.6484V63.8706Z" fill="black"/>
  <path d="M76.6484 97.9341H80.9029V93.6748H76.6484V97.9341Z" fill="black"/>
  <path d="M89.4214 93.6748H85.1621V97.9341H89.4214V93.6748Z" fill="black"/>
  <path d="M17.0332 76.6436V106.454C17.0332 111.152 20.8541 114.968 25.5518 114.968H44.7139V110.708H25.5518C23.2053 110.708 21.2925 108.796 21.2925 106.454V76.6436H17.0332Z" fill="black"/>
  <path d="M44.714 119.226H25.5519C18.5077 119.226 12.7788 113.493 12.7788 106.453V70.2588H8.51953V106.453C8.51953 115.839 16.1612 123.481 25.5519 123.481H44.714V119.226Z" fill="black"/>
  <mask id="mask1_304_801" style="mask-type:luminance" maskUnits="userSpaceOnUse" x="40" y="101" width="20" height="31">
    <path d="M40.7432 101.765H59.2451V131.999H40.7432V101.765Z" fill="white"/>
  </mask>
  <g mask="url(#mask1_304_801)">
    <path d="M41.0762 105.827L52.346 117.097L41.0762 128.366L44.0876 131.373L58.3688 117.097L44.0876 102.815L41.0762 105.827Z" fill="black"/>
  </g>
  <path d="M31.9353 34.065C33.111 34.065 34.065 33.111 34.065 31.9353C34.065 30.7645 33.111 29.8057 31.9353 29.8057C30.7645 29.8057 29.8057 30.7645 29.8057 31.9353C29.8057 33.111 30.7645 34.065 31.9353 34.065Z" fill="black"/>
  <path d="M44.7127 34.065C45.8835 34.065 46.8375 33.111 46.8375 31.9353C46.8375 30.7645 45.8835 29.8057 44.7127 29.8057C43.537 29.8057 42.583 30.7645 42.583 31.9353C42.583 33.111 43.537 34.065 44.7127 34.065Z" fill="black"/>
  <path d="M33.1831 40.4542C34.5563 41.8225 36.3872 42.5838 38.3241 42.5838C40.261 42.5838 42.092 41.8225 43.4652 40.4542L44.0867 39.8278L41.0753 36.8164L40.4538 37.4428C39.3311 38.5654 37.3171 38.5654 36.1945 37.4428L35.5729 36.8164L32.5615 39.8278L33.1831 40.4542Z" fill="black"/>
</svg>