<?xml version="1.0" encoding="utf-8"?>
<svg width="132" height="132" viewBox="0 0 132 132" fill="none" xmlns="http://www.w3.org/2000/svg" id="social_commerce_integration_maroon_digital_rise" class="social commerce media ecommerce Maroon Digital digital selling strategies integration solutions Rise marketing shopping" role="contentinfo">
  <desc>A dynamic example of social commerce integration by Maroon Digital Rise, enhancing online shopping experiences via social media.  A visual representation of Maroon Digital Rise's expertise in social commerce integration, enabling businesses to leverage social media platforms for seamless shopping experiences and increased sales. </desc>
  <title>Seamless Social Commerce Integration by Maroon Digital Rise</title>
  <mask id="mask0_304_762" style="mask-type:luminance" maskUnits="userSpaceOnUse" x="0" y="0" width="132" height="132">
    <path d="M0 0H131.075V132H0V0Z" fill="white"/>
  </mask>
  <g mask="url(#mask0_304_762)">
    <path d="M31.525 19.7933C31.525 20.8871 30.6336 21.7688 29.5447 21.7688C28.451 21.7688 27.5693 20.8871 27.5693 19.7933V16.3868H22.2018V19.7933C22.2018 20.8871 21.32 21.7688 20.2263 21.7688C19.1374 21.7688 18.246 20.8871 18.246 19.7933V16.3868H16.7331L12.5412 41.4849H37.225L33.0379 16.3868H31.5202V19.7933H31.525ZM27.5644 12.4407V7.72367C27.5644 5.32901 25.2806 4.65928 23.7147 5.29047C22.8667 5.63738 22.2018 6.43239 22.2018 7.72367V12.4407H27.5644ZM18.246 12.4407V7.72367C18.246 2.38026 23.4497 0.00969601 27.5259 1.63825C29.7712 2.53926 31.5202 4.57255 31.5202 7.72367V12.4407H34.387C34.4786 12.3973 36.9118 9.59314 41.2771 9.59314H92.914C97.8719 9.59314 102.035 13.3176 102.647 18.1648H104.878V13.2935C104.878 7.87303 110.173 5.46392 114.307 7.12139C116.581 8.03204 118.359 10.0942 118.359 13.2935V18.1648H121.659C122.681 18.1648 123.529 18.9501 123.625 19.9379L128.559 49.4976C128.762 50.6974 127.812 51.7911 126.613 51.7911V51.8008H102.714V71.9795C107.952 68.3032 116.576 71.0206 116.576 78.937V86.5305H121.982C123.009 86.5305 123.847 87.3062 123.953 88.3084L130.853 129.707C131.055 130.897 130.106 131.995 128.906 132H86.9731C85.7445 132 84.776 130.916 85.0506 129.581L86.3178 121.954H41.2771C35.8807 121.954 31.472 117.555 31.472 112.163V111.142H2.2495C1.02567 111.142 0.0523915 110.053 0.32703 108.709L6.65336 70.746C6.81717 69.7775 7.65555 69.0982 8.59992 69.0982V69.0885H13.3989V62.29C13.3989 55.7469 19.7734 52.8945 24.7217 54.8844C27.4488 55.9782 29.5785 58.4499 29.5785 62.29V69.0885H31.4768V45.4263H10.214C8.98537 45.4263 8.01691 44.3373 8.29155 43.0027L13.1098 14.0837C13.2736 13.1249 14.112 12.4407 15.0563 12.4407H18.246ZM36.8973 15.5244L41.5036 43.1328C41.7059 44.3229 40.7567 45.4263 39.557 45.4263H35.4326V69.3969C35.9385 69.7149 36.2806 70.2497 36.3432 70.8713L41.4313 101.38H89.7484L91.9552 88.1735C92.1142 87.2147 92.9429 86.5257 93.9017 86.5257H98.7633V51.8008H96.6336C95.405 51.8008 94.4365 50.7118 94.7015 49.3676L98.7633 25.0355V19.3789C98.7633 16.1748 96.1277 13.5441 92.914 13.5441H86.6214L81.8417 24.9199C81.5189 25.6715 80.7913 26.1293 80.0156 26.1293H54.1851C53.3419 26.1293 52.624 25.5993 52.3349 24.8669L47.5745 13.5441H41.2819C39.5714 13.5393 37.9959 14.2861 36.8973 15.5244ZM116.581 96.2055C116.581 97.2896 115.695 98.1761 114.606 98.1761C113.517 98.1761 112.625 97.2896 112.625 96.2055V90.4766H103.254V96.2055C103.254 97.2896 102.372 98.1761 101.278 98.1761C100.189 98.1761 99.3078 97.2896 99.3078 96.2055V90.4766H95.5688L93.3862 103.558C93.3813 103.645 93.3621 103.727 93.3476 103.813L90.6157 120.171C90.606 120.258 90.5916 120.35 90.5771 120.432L89.3003 128.049H126.584L120.31 90.4766H116.581V96.2055ZM112.625 86.5305V78.9322C112.625 74.8993 108.737 73.5598 105.952 74.6825C104.439 75.2896 103.254 76.7013 103.254 78.9322V86.5305H112.625ZM86.9731 117.998L89.0835 105.336H42.0962L42.6792 108.844C42.8816 110.034 41.9324 111.132 40.7326 111.137H35.4278V112.163C35.4278 115.368 38.0633 117.998 41.2771 117.998H86.9731ZM118.359 25.6378C118.359 26.7316 117.477 27.6133 116.384 27.6133C115.295 27.6133 114.403 26.7316 114.403 25.6378V22.1109H108.838V25.6378C108.838 26.7316 107.947 27.6133 106.858 27.6133C105.769 27.6133 104.882 26.7316 104.882 25.6378V22.1109H103.259L98.9657 47.8498H124.29L119.992 22.1109H118.359V25.6378ZM114.403 18.1648V13.2935C114.403 10.8314 112.038 10.128 110.404 10.7736C109.522 11.135 108.833 11.9637 108.833 13.2935V18.1648H114.403ZM29.5785 78.1323C29.5785 79.2213 28.6967 80.1078 27.5982 80.1078C26.5092 80.1078 25.6227 79.2213 25.6227 78.1323V73.0395H17.3546V78.1323C17.3546 79.2213 16.4729 80.1078 15.3792 80.1078C14.2854 80.1078 13.3989 79.2213 13.3989 78.1323V73.0395H10.2718L4.58152 107.186C15.8465 107.186 27.126 107.186 38.4054 107.186L32.7007 73.0395H29.5785V78.1323ZM25.6179 69.0885V62.29C25.6179 58.6956 22.1728 57.5537 19.7252 58.5415C18.3954 59.0763 17.3546 60.3242 17.3546 62.29V69.0885H25.6179ZM67.098 47.1319C69.8732 42.781 73.2797 40.4153 78.8111 40.4153C86.3612 40.4153 92.4948 46.5393 92.4948 54.075C92.4948 66.5879 80.4974 78.566 68.4952 90.5537C67.7243 91.3198 66.4668 91.3198 65.7007 90.5537C53.6937 78.566 41.6963 66.5927 41.6963 54.075C41.6963 46.5393 47.8299 40.4153 55.3849 40.4153C58.7865 40.4153 61.3739 41.297 63.5662 43.046C64.9008 44.1061 66.0331 45.4648 67.098 47.1319ZM73.0822 46.1153C71.5114 47.368 70.2009 49.3531 68.8614 52.032C68.1435 53.4727 66.0668 53.4871 65.3393 52.0417C62.9302 47.2283 60.6945 44.3662 55.3849 44.3662C50.0125 44.3662 45.6569 48.7171 45.6569 54.0798C45.6569 64.5112 56.1606 75.4293 67.1028 86.3619C78.0353 75.4245 88.5439 64.5112 88.5439 54.0798C88.5439 48.7171 84.1834 44.3662 78.8111 44.3662C76.3489 44.3614 74.5469 44.9492 73.0822 46.1153ZM51.8675 13.5393L55.4957 22.1735H78.7002L82.3332 13.5393H51.8675Z" fill="black"/>
  </g>
</svg>