<?xml version="1.0" encoding="utf-8"?>
<svg width="140" height="132" viewBox="0 0 140 132" fill="none" xmlns="http://www.w3.org/2000/svg" id="product_insert_description_maroon_digital_rise" class="product insert customer Maroon Digital marketing, loyalty strategies description branding engagement Rise" role="contentinfo">
  <desc>A creatively crafted product insert description by Maroon Digital Rise, designed to engage customers and enhance brand loyalty.       A demonstration of Maroon Digital Rise's expertise in creating professional product insert descriptions that highlight product features, reinforce brand identity, and foster customer loyalty.</desc>
  <title>Professional Product Insert Descriptions by Maroon Digital Rise</title>
  <mask id="mask0_304_800" style="mask-type:luminance" maskUnits="userSpaceOnUse" x="0" y="0" width="140" height="132">
    <path d="M0 0H139.235V132H0V0Z" fill="white"/>
  </mask>
  <g mask="url(#mask0_304_800)">
    <path d="M129.824 0.117188H9.45735C4.26608 0.117188 0.0422673 4.341 0.0422673 9.53699C-0.000207728 11.5333 0.0705827 15.9836 0.0422673 17.9091V122.485C0.0422673 127.681 4.26608 131.905 9.45735 131.905H129.824C135.015 131.905 139.235 127.681 139.235 122.485V9.53699C139.235 4.341 135.015 0.117188 129.824 0.117188ZM136.242 122.49C136.242 126.029 133.364 128.913 129.824 128.913H9.45735C5.91785 128.913 3.03433 126.029 3.03433 122.49V17.9091H136.247V122.49H136.242ZM136.242 14.917H3.03433V9.53699C3.03433 5.99277 5.91313 3.11397 9.45264 3.11397H129.819C133.359 3.11397 136.238 5.99277 136.238 9.53699V14.917H136.242ZM127.262 9.10281C127.191 13.0387 121.344 13.0387 121.277 9.10281C121.348 5.16688 127.196 5.16688 127.262 9.10281ZM118.281 9.10281C118.21 13.0387 112.363 13.0387 112.297 9.10281C112.367 5.16688 118.215 5.16688 118.281 9.10281ZM109.3 9.10281C109.229 13.0387 103.382 13.0387 103.316 9.10281C103.386 5.16688 109.234 5.16688 109.3 9.10281ZM20.6469 82.4886H61.4315C65.4052 82.4886 68.6379 79.2511 68.6379 75.2774V34.4646C68.6379 30.4909 65.4052 27.2581 61.4315 27.2581H51.4501C44.7628 27.2581 27.0983 27.2581 20.6516 27.2581C16.6732 27.2581 13.4405 30.4909 13.4405 34.4646V75.2774C13.4358 79.2511 16.6685 82.4886 20.6469 82.4886ZM32.1338 30.2502H49.954V50.8407C49.954 50.8832 49.954 50.9445 49.8549 50.9823C49.7653 51.0247 49.7181 50.9775 49.685 50.9492C49.4207 50.751 42.6485 43.587 42.5211 43.8938L42.4456 36.5033C42.4361 35.6821 41.7707 35.0214 40.9495 35.0214C40.1189 35.0214 39.4441 35.701 39.4535 36.5364L39.529 43.9127C39.2647 44.0495 39.0099 44.2194 38.7975 44.4365L32.3886 50.9539C32.332 51.0483 32.1008 50.9728 32.1338 50.8454C32.1338 50.836 32.1338 30.2502 32.1338 30.2502ZM16.4325 34.4646C16.4325 32.1426 18.3203 30.2502 20.6469 30.2502H29.137V50.8407C29.0426 53.5732 32.6812 55.0692 34.5265 53.0493L40.9306 46.5319C40.9778 46.5319 41.143 46.5319 41.1477 46.5319L47.5519 53.0493C49.4113 55.0692 53.0358 53.5732 52.9461 50.8407V30.2549H61.4315C63.7487 30.2549 65.6411 32.1426 65.6411 34.4693V75.2822C65.6411 77.6041 63.7487 79.4965 61.4315 79.4965H20.6469C18.3203 79.4965 16.4325 77.6041 16.4325 75.2822V34.4646ZM21.1094 66.1644C21.1094 65.3385 21.7796 64.6684 22.6054 64.6684H34.602C35.4279 64.6684 36.098 65.3385 36.098 66.1644C36.098 66.995 35.4279 67.6604 34.602 67.6604H22.6102C21.7843 67.6604 21.1094 66.995 21.1094 66.1644ZM21.1094 72.5166C21.1094 71.6907 21.7796 71.0206 22.6054 71.0206H40.9495C41.7754 71.0206 42.4456 71.6907 42.4456 72.5166C42.4456 73.3472 41.7754 74.0126 40.9495 74.0126H22.6054C21.7843 74.0126 21.1094 73.3472 21.1094 72.5166ZM15.7341 101.956H22.5488C23.9127 101.956 25.017 100.847 25.017 99.4877V92.6682C25.017 91.3043 23.9127 90.1953 22.5488 90.1953H15.7341C14.3702 90.1953 13.2659 91.3043 13.2659 92.6682V99.4877C13.2659 100.847 14.3702 101.956 15.7341 101.956ZM16.2626 93.1921H22.025V98.9591H16.2626V93.1921ZM37.1457 101.956C38.5049 101.956 39.6139 100.847 39.6139 99.4877V92.6682C39.6139 91.3043 38.5049 90.1953 37.1457 90.1953H30.331C28.9671 90.1953 27.8628 91.3043 27.8628 92.6682V99.4877C27.8628 100.847 28.9671 101.956 30.331 101.956H37.1457ZM30.8549 93.1921H36.6172V98.9591H30.8549V93.1921ZM51.7379 101.956C53.1018 101.956 54.2062 100.847 54.2062 99.4877V92.6682C54.2062 91.3043 53.0971 90.1953 51.7379 90.1953H44.9232C43.564 90.1953 42.455 91.3043 42.455 92.6682V99.4877C42.455 100.847 43.564 101.956 44.9232 101.956H51.7379ZM45.4518 93.1921H51.2141V98.9591H45.4518V93.1921ZM66.3396 90.1953H59.5201C58.161 90.1953 57.0566 91.3043 57.0566 92.6682V99.4877C57.0566 100.847 58.161 101.956 59.5201 101.956H66.3396C67.6988 101.956 68.8031 100.847 68.8031 99.4877V92.6682C68.8031 91.3043 67.6988 90.1953 66.3396 90.1953ZM65.8157 98.9591H60.0487V93.1921H65.8157V98.9591ZM76.3729 40.5525H124.27C125.095 40.5525 125.766 39.8824 125.766 39.0565V30.0709C125.766 29.2402 125.095 28.5748 124.27 28.5748H76.3729C75.547 28.5748 74.8769 29.2402 74.8769 30.0709V39.0565C74.8769 39.8824 75.547 40.5525 76.3729 40.5525ZM77.8689 31.5669H122.773V37.5557H77.8689V31.5669ZM74.8769 51.0389C74.8769 50.2083 75.547 49.5429 76.3729 49.5429H104.812C105.638 49.5429 106.308 50.2083 106.308 51.0389C106.308 51.8648 105.638 52.5349 104.812 52.5349H76.3729C75.547 52.5349 74.8769 51.8648 74.8769 51.0389ZM74.8769 67.5094C74.8769 66.6835 75.547 66.0134 76.3729 66.0134H124.27C125.095 66.0134 125.766 66.6835 125.766 67.5094C125.766 68.3353 125.095 69.0054 124.27 69.0054H76.3729C75.547 69.0101 74.8769 68.3353 74.8769 67.5094ZM74.8769 83.9846C74.8769 83.154 75.547 82.4886 76.3729 82.4886H124.27C125.095 82.4886 125.766 83.154 125.766 83.9846C125.766 84.8105 125.095 85.4806 124.27 85.4806H76.3729C75.547 85.4806 74.8769 84.8105 74.8769 83.9846ZM74.8769 100.46C74.8769 99.6292 75.547 98.9591 76.3729 98.9591H124.27C125.095 98.9591 125.766 99.6292 125.766 100.46C125.766 101.286 125.095 101.956 124.27 101.956H76.3729C75.547 101.956 74.8769 101.286 74.8769 100.46ZM125.766 116.93C125.766 117.756 125.095 118.426 124.27 118.426H15.0073C13.0865 118.407 13.0063 115.467 15.0073 115.43H124.27C125.095 115.434 125.766 116.1 125.766 116.93Z" fill="black"/>
  </g>
</svg>