<?xml version="1.0" encoding="utf-8"?>
<svg width="151" height="127" viewBox="0 0 151 127" fill="none" xmlns="http://www.w3.org/2000/svg" id="ecommerce_website_development_maroon_digital_rise" class="ecommerce website online store Maroon Digital custom web digital branding development Rise solutions design" role="contentinfo">
  <desc>A sleek and user-friendly ecommerce website developed by Maroon Digital Rise, tailored for seamless shopping experiences.     A showcase of Maroon Digital Rise's comprehensive ecommerce website development services, creating responsive and visually appealing online stores optimized for user experience and conversions.</desc>
  <title>Custom Ecommerce Website Development by Maroon Digital Rise</title>
  <path d="M60.5723 12.7744H89.8725V20.6033H60.5723V12.7744Z" fill="black"/>
  <path d="M126.455 84.0243H23.994V47.2969H16.4678V103.087C16.4678 107.42 19.8285 110.916 23.994 110.916H126.455C130.62 110.916 133.981 107.42 133.981 103.087V47.2969H126.455V84.0243ZM75.2244 107.906C71.771 107.906 68.9419 104.993 68.9419 101.369C68.9419 97.7768 71.771 94.8682 75.2244 94.8682C78.6778 94.8682 81.5069 97.7768 81.5069 101.369C81.5069 104.993 78.6778 107.906 75.2244 107.906Z" fill="black"/>
  <path d="M61.0108 114.154L49.9043 122.89V127H100.544V122.89L89.438 114.154H61.0108Z" fill="black"/>
  <path d="M62.8738 65.16C61.1032 66.1329 59.4838 67.3288 57.9619 68.7223C54.4744 64.7394 52.2355 59.5962 51.8941 53.9006C49.0358 51.7065 48.5041 51.3011 48.8163 51.5393C48.787 51.7977 48.787 52.0561 48.787 52.345C48.787 67.491 60.6691 79.8196 75.2241 79.8196C89.7791 79.8196 101.661 67.491 101.661 52.345C101.661 52.0561 101.661 51.7622 101.632 51.5038C101.315 51.7521 96.7883 55.2738 98.5492 53.9006C98.2077 59.5607 96.003 64.7394 92.5155 68.6868C90.9936 67.3288 89.345 66.0975 87.6037 65.1296C88.4719 61.765 89.0035 57.9443 89.1255 53.9006H92.5789C91.3985 53.2216 90.5254 52.122 90.1205 50.7589H89.1255C89.0035 46.6849 88.4719 42.8642 87.6037 39.4995C88.3792 39.0789 89.1255 38.5925 89.8718 38.0756V34.1586C88.8767 35.0049 87.789 35.7802 86.672 36.4288C85.6721 33.6418 84.4283 31.2146 82.9698 29.3397C85.4575 30.2467 87.8183 31.6047 89.8718 33.3833V29.4056C85.5794 26.426 80.5115 24.8096 75.2241 24.8096C69.9025 24.8096 64.8639 26.426 60.5715 29.436V33.3833C62.6592 31.6047 64.9907 30.2467 67.5076 29.3397C66.0492 31.2146 64.8053 33.6418 63.8103 36.4288C62.6592 35.7802 61.5666 35.0049 60.5715 34.1282V38.0452C61.3178 38.5925 62.0641 39.0789 62.8738 39.4995C61.9714 42.8642 61.4446 46.6849 61.3519 50.7589H60.3227C59.9179 52.122 59.0497 53.2216 57.8693 53.9006H61.3519C61.4446 57.9443 61.9714 61.765 62.8738 65.16ZM90.34 70.8911C88.1939 72.7964 85.7062 74.2861 82.9698 75.2894C84.4283 73.4146 85.6721 70.9874 86.672 68.2054C87.9744 68.9453 89.1889 69.8523 90.34 70.8911ZM76.7459 28.2401C79.6384 29.1775 82.1894 32.7398 83.9308 37.8172C81.6626 38.7546 79.2335 39.307 76.7459 39.4691V28.2401ZM76.7459 42.6057C79.5457 42.4436 82.2528 41.8608 84.8039 40.7967C85.5501 43.8067 86.0184 47.2017 86.1111 50.764H76.7459V42.6057ZM76.7459 53.9006H86.1111C86.0184 57.4274 85.5501 60.8275 84.8039 63.802C82.2528 62.7683 79.5457 62.1856 76.7459 62.0234V53.9006ZM76.7459 65.16C79.2335 65.3222 81.6626 65.8745 83.9308 66.812C82.2236 71.8944 79.6384 75.482 76.7459 76.4245V65.16ZM73.7315 76.4245C70.839 75.482 68.2587 71.8944 66.5467 66.812C68.8148 65.8745 71.2439 65.3222 73.7315 65.16V76.4245ZM73.7315 28.2401V39.4691C71.2439 39.307 68.8148 38.7546 66.5467 37.8172C68.2539 32.7398 70.839 29.1775 73.7315 28.2401ZM65.6443 40.8271C68.1953 41.8608 70.9317 42.4436 73.7315 42.6057V50.764H64.3371C64.459 47.2017 64.898 43.8371 65.6443 40.8271ZM73.7315 53.9006V62.0234C70.9317 62.1856 68.2246 62.7987 65.6443 63.8324C64.898 60.8275 64.459 57.4274 64.3371 53.9006H73.7315ZM63.8103 68.2054C64.8053 71.0178 66.0491 73.4146 67.4783 75.2894C64.7712 74.2861 62.2836 72.7964 60.1081 70.9215C61.2593 69.8878 62.5031 68.9807 63.8103 68.2054Z" fill="black"/>
  <path d="M129.811 30.1247H134.21L135.869 22.7266H129.811V30.1247Z" fill="black"/>
  <mask id="mask0_304_802" style="mask-type:luminance" maskUnits="userSpaceOnUse" x="92" y="0" width="59" height="52">
    <path d="M92.2227 0H150.448V51.8024H92.2227V0Z" fill="white"/>
  </mask>
  <g mask="url(#mask0_304_802)">
    <path d="M145.56 -0.15625H97.2855C94.9003 -0.15625 92.9736 1.85545 92.9736 4.33333V49.143C92.9736 50.876 94.7784 51.9553 96.2173 51.0837L107.768 44.0757H145.56C147.94 44.0757 149.872 42.064 149.872 39.5861V4.33333C149.872 1.85545 147.94 -0.15625 145.56 -0.15625ZM117.118 38.142C115.348 38.142 113.884 36.6218 113.884 34.7773C113.884 33.8399 114.26 32.9987 114.85 32.3805H119.42C120.016 32.9987 120.386 33.8399 120.386 34.7773C120.386 36.6218 118.923 38.142 117.118 38.142ZM131.024 38.142C129.249 38.142 127.791 36.6218 127.791 34.7773C127.791 33.8399 128.161 32.9987 128.751 32.3805H133.327C133.917 32.9987 134.288 33.8399 134.288 34.7773C134.288 36.6218 132.829 38.142 131.024 38.142ZM140.443 12.2028L136.122 31.5039C136.005 32.0157 135.57 32.3755 135.068 32.3755H112.938C112.811 32.3755 112.694 32.3552 112.582 32.3146C112.519 32.2893 112.465 32.2488 112.406 32.2133C112.362 32.188 112.309 32.1677 112.27 32.1322C112.211 32.0866 112.172 32.0309 112.128 31.9751C112.094 31.9346 112.055 31.9042 112.026 31.8586C111.982 31.7826 111.953 31.6964 111.923 31.6103C111.914 31.5748 111.894 31.5444 111.884 31.509L106.792 8.89892C106.68 8.38712 106.246 8.03242 105.743 8.03242H103.456C102.856 8.03242 102.373 7.52569 102.373 6.90749C102.373 6.28422 102.856 5.78256 103.456 5.78256H105.743C107.26 5.78256 108.558 6.85175 108.904 8.38712L109.45 10.8245H139.39C139.721 10.8245 140.034 10.9816 140.238 11.2501C140.443 11.5187 140.516 11.8683 140.443 12.2028Z" fill="black"/>
  </g>
  <path d="M129.811 20.4765H136.371L138.029 13.0732H129.811V20.4765Z" fill="black"/>
  <path d="M111.631 20.4765H118.196V13.0732H109.973L111.631 20.4765Z" fill="black"/>
  <path d="M120.357 13.0732H127.65V20.4765H120.357V13.0732Z" fill="black"/>
  <path d="M113.636 29.4103L113.797 30.1247H118.197V22.7266H112.139L113.636 29.4103Z" fill="black"/>
  <path d="M120.357 22.7207H127.65V30.1239H120.357V22.7207Z" fill="black"/>
  <mask id="mask1_304_802" style="mask-type:luminance" maskUnits="userSpaceOnUse" x="0" y="0" width="59" height="52">
    <path d="M0 0H58.5079V51.8024H0V0Z" fill="white"/>
  </mask>
  <g mask="url(#mask1_304_802)">
    <path d="M54.2307 51.0832C55.6599 51.9598 57.4646 50.8906 57.4646 49.1424V4.32771C57.4646 1.86503 55.5331 -0.141602 53.1723 -0.141602H4.8978C2.50285 -0.141602 0.571289 1.86503 0.571289 4.32771V39.5957C0.571289 42.0584 2.50285 44.065 4.8978 44.065H42.6901L54.2307 51.0832ZM4.15151 34.6805V9.24293C4.15151 6.43061 6.3611 4.16556 9.03408 4.16556H49.0019C51.6797 4.16556 53.8844 6.43061 53.8844 9.24293V34.6805C53.8844 37.4624 51.6797 39.7579 49.0019 39.7579H9.03408C6.3611 39.7579 4.15151 37.4624 4.15151 34.6805Z" fill="black"/>
  </g>
  <path d="M50.7775 9.24194C50.7775 8.20822 49.9678 7.39746 49.002 7.39746H9.03427C8.06849 7.39746 7.26367 8.20822 7.26367 9.24194V11.0864H50.7775V9.24194Z" fill="black"/>
  <path d="M7.26758 14.3242H50.7766V18.4033H7.26758V14.3242Z" fill="black"/>
  <path d="M50.7775 34.6798V21.6367H7.26367V34.6798C7.26367 35.6831 8.06849 36.5243 9.03427 36.5243H49.002C49.9678 36.5243 50.7775 35.6831 50.7775 34.6798ZM22.9015 30.327H15.6728V27.5502H22.9015V30.327ZM32.6374 30.327H25.4087V27.5502H32.6374V30.327ZM42.3684 30.327H35.1445V27.5502H42.3684V30.327Z" fill="black"/>
</svg>