<?xml version="1.0" encoding="utf-8"?>
<svg width="94" height="132" viewBox="0 0 94 132" fill="none" xmlns="http://www.w3.org/2000/svg" id="product_marketing_maroon_digital_rise" class="roduct digital brand promotion, Maroon Digital product launch campaigns strategies Rise" role="contentinfo">
  <desc>A creative product marketing campaign designed by Maroon Digital Rise, showcasing innovative strategies for market success.      A demonstration of Maroon Digital Rise's innovative product marketing services, combining creative strategies and data-driven insights to boost product visibility, engagement, and sales.</desc>
  <title>Effective Product Marketing by Maroon Digital Rise</title>
  <mask id="mask0_304_803" style="mask-type:luminance" maskUnits="userSpaceOnUse" x="0" y="77" width="68" height="55">
    <path d="M0 77.3047H67.9567V131.999H0V77.3047Z" fill="white"/>
  </mask>
  <g mask="url(#mask0_304_803)">
    <path fill-rule="evenodd" clip-rule="evenodd" d="M65.318 132H1.57344C0.801365 132 0.0292969 131.227 0.0292969 130.455V80.0217C0.0292969 79.2496 0.801365 78.4824 1.57344 78.4824H25.4734V91.0896C25.4734 92.1158 26.2454 92.6338 27.0175 92.6338H39.869C40.6411 92.6338 41.4132 92.1158 41.4132 91.0896V78.4824H65.318C66.0852 78.4824 66.8573 79.2496 66.8573 80.0217V130.455C66.8573 131.227 66.0852 132 65.318 132ZM28.5616 78.4824H38.3298V89.7996H28.5616V78.4824Z" fill="black"/>
  </g>
  <path fill-rule="evenodd" clip-rule="evenodd" d="M3.37207 75.3945L6.19648 72.0473C6.45546 71.7883 6.96854 71.5342 7.22753 71.5342H59.6598C59.9188 71.5342 60.4319 71.7883 60.6909 72.0473L63.5153 75.3945H3.37207Z" fill="black"/>
  <path fill-rule="evenodd" clip-rule="evenodd" d="M23.6756 63.554C22.3905 63.554 21.1053 62.7819 20.5922 61.4968L9.02584 41.4279C7.99967 39.6248 8.51275 37.3134 10.311 36.2824L27.018 26.7635L42.9529 53.0089L25.4738 63.0409C24.9608 63.2999 24.4477 63.554 23.6756 63.554ZM19.566 42.972C19.0481 42.972 18.535 42.713 18.2809 42.2C17.7629 41.4279 18.0219 40.3968 18.794 40.1427L25.7328 36.0234C26.5049 35.5103 27.5311 35.7693 28.049 36.5414C28.3031 37.3134 28.049 38.0806 27.277 38.5986L20.3332 42.713C20.0791 42.713 19.8201 42.972 19.566 42.972ZM22.6494 48.3765C22.1364 48.3765 21.6184 48.1175 21.3643 47.6044C21.1053 46.8324 21.1053 46.0603 21.8774 45.5472L29.0752 41.4279C29.8473 41.1689 30.6193 41.4279 31.1324 41.941C31.6455 42.713 31.3865 43.7441 30.6193 44.0031L23.4215 48.1175C23.1625 48.3765 22.9035 48.3765 22.6494 48.3765ZM25.9918 54.0351C25.4738 54.0351 24.9608 53.781 24.7067 53.263C24.1887 52.491 24.4477 51.4648 25.2197 51.2058L32.1586 47.0865C32.9307 46.5734 33.9568 46.8324 34.2158 47.6044C34.7289 48.3765 34.4748 49.1486 33.7027 49.6617L26.759 53.781C26.5049 53.781 26.2459 54.0351 25.9918 54.0351ZM29.8473 25.2193L30.1014 24.9603C33.1896 23.1572 38.5844 16.4676 42.1857 11.84L42.4398 11.5811L63.2612 47.6044H62.4892C56.8355 48.3765 49.1246 49.6617 45.5232 51.4648L29.8473 25.2193Z" fill="black"/>
  <path fill-rule="evenodd" clip-rule="evenodd" d="M70.7128 49.6624C68.9146 49.6624 67.3704 48.8904 66.6032 47.3462L44.2377 8.75253C43.7246 7.46249 43.4705 6.17734 43.7246 5.14628C44.2377 3.86113 45.0097 2.83496 46.0408 2.31699C46.808 1.80391 47.58 1.54492 48.3521 1.54492C49.8963 1.54492 51.6945 2.57598 52.4666 3.86113L74.8272 42.7138C76.1124 44.7759 75.3403 47.8593 73.029 49.1493C72.2569 49.4034 71.4849 49.6624 70.7128 49.6624Z" fill="black"/>
  <path fill-rule="evenodd" clip-rule="evenodd" d="M16.9952 64.3261C16.2232 64.3261 15.7101 64.072 15.4511 63.5541L5.42884 46.3144C5.16986 45.5473 5.42884 44.5162 5.94193 44.0031L6.714 43.7441L17.7624 63.041C18.0214 63.3 18.0214 63.5541 18.2804 63.8131L17.5083 64.072C17.5083 64.3261 17.2493 64.3261 16.9952 64.3261Z" fill="black"/>
  <path fill-rule="evenodd" clip-rule="evenodd" d="M29.074 68.4459L28.0479 65.0986L39.0963 58.668L41.9256 68.4459H29.074Z" fill="black"/>
  <path fill-rule="evenodd" clip-rule="evenodd" d="M41.9268 57.1234L42.6988 56.6104L46.2953 58.6676C46.5543 58.9266 46.8084 59.4396 46.8084 59.9527C47.0674 60.2117 46.8084 60.7248 46.5543 60.9838L43.725 63.8131L41.9268 57.1234Z" fill="black"/>
  <path fill-rule="evenodd" clip-rule="evenodd" d="M62.7471 15.6953C65.8305 15.6953 68.6549 17.4984 70.199 20.3277C71.9972 23.157 71.9972 26.7633 70.7121 29.3336L62.7471 15.6953Z" fill="black"/>
  <path fill-rule="evenodd" clip-rule="evenodd" d="M76.1122 21.1007C75.0812 21.1007 74.055 20.5876 73.5419 19.5566C72.7698 18.0124 73.2829 16.2142 74.5681 15.4421L87.9327 7.72144C89.4768 6.94937 91.2751 7.46246 92.0471 8.75249C92.8192 10.2966 92.3061 12.0949 91.021 12.8669L77.6515 20.5876C77.1384 20.8466 76.6253 21.1007 76.1122 21.1007Z" fill="#373435"/>
  <mask id="mask1_304_803" style="mask-type:luminance" maskUnits="userSpaceOnUse" x="76" y="21" width="18" height="8">
    <path d="M76.7139 21.0127H93.6163V28.5184H76.7139V21.0127Z" fill="white"/>
  </mask>
  <g mask="url(#mask1_304_803)">
    <path fill-rule="evenodd" clip-rule="evenodd" d="M90.5027 27.2771H80.9935C79.1953 27.2771 77.9102 25.992 77.9102 24.1889C77.9102 22.6447 79.1953 21.1006 80.9935 21.1006H90.5027C92.0468 21.1006 93.591 22.6447 93.591 24.1889C93.591 25.992 92.0468 27.2771 90.5027 27.2771Z" fill="#373435"/>
  </g>
  <mask id="mask2_304_803" style="mask-type:luminance" maskUnits="userSpaceOnUse" x="71" y="0" width="15" height="14">
    <path d="M71.709 0H85.4694V13.5063H71.709V0Z" fill="white"/>
  </mask>
  <g mask="url(#mask2_304_803)">
    <path fill-rule="evenodd" clip-rule="evenodd" d="M83.8228 5.40356L77.1381 12.0932C75.8529 13.3783 74.0547 13.3783 72.7695 12.0932C71.4844 11.067 71.4844 9.00492 72.7695 7.97875L79.4543 1.03013C80.7394 -0.000927716 82.5377 -0.000927716 83.8228 1.03013C85.108 2.31528 85.108 4.37739 83.8228 5.40356Z" fill="#373435"/>
  </g>
</svg>