<?xml version="1.0" encoding="utf-8"?>
<svg width="138" height="132" viewBox="0 0 138 132" fill="none" xmlns="http://www.w3.org/2000/svg" id="ecommerce_ads_management_maroon_digital_rise" class="ecommerce ads digital Maroon Digital online targeted marketing, ad campaign optimization management advertising Rise sales" role="contentinfo">
  <desc> A high-performing ecommerce ad campaign managed by Maroon Digital Rise, driving online sales and visibility.  A visual representation of Maroon Digital Rise's ecommerce ads management services, focusing on creating and optimizing ad campaigns to maximize online visibility, traffic, and conversions.    </desc>
  <title>Expert Ecommerce Ads Management by Maroon Digital Rise</title>
  <mask id="mask0_304_804" style="mask-type:luminance" maskUnits="userSpaceOnUse" x="0" y="0" width="138" height="132">
    <path d="M0 0H137.23V132H0V0Z" fill="white"/>
  </mask>
  <g mask="url(#mask0_304_804)">
    <path d="M102.826 83.4431C99.0013 83.4431 95.2863 84.4512 91.9902 86.3013C92.2026 88.0558 92.3787 89.7975 92.4879 91.5073C93.2406 102.583 91.7898 112.427 86.3873 116.765C85.3129 117.627 84.0867 118.271 82.6905 118.667C82.557 118.705 82.4174 118.743 82.2838 118.769C83.6254 121.537 85.4768 124.032 87.7471 126.099C91.9295 129.908 97.2834 132.007 102.826 132.007C115.543 132.007 125.893 121.116 125.893 107.725C125.893 94.34 115.543 83.4431 102.826 83.4431ZM106.146 105.358C109.715 105.358 112.623 108.414 112.623 112.172C112.623 115.93 109.715 118.986 106.146 118.986H105.084V121.059C105.084 122.373 104.07 123.432 102.826 123.432C101.581 123.432 100.574 122.373 100.574 121.059V118.986H95.2742C94.0298 118.986 93.0221 117.926 93.0221 116.619C93.0221 115.304 94.0298 114.245 95.2742 114.245H100.574V110.098H99.4991C95.9298 110.098 93.0221 107.036 93.0221 103.278C93.0221 99.5205 95.9298 96.4645 99.4991 96.4645H100.574V94.391C100.574 93.0832 101.581 92.0177 102.826 92.0177C104.07 92.0177 105.084 93.0832 105.084 94.391V96.4645H110.371C111.615 96.4645 112.623 97.5236 112.623 98.8378C112.623 100.146 111.615 101.205 110.371 101.205H105.084V105.358H106.146ZM130.263 -0.00585938H68.4254C64.589 -0.00585938 61.4689 3.27978 61.4689 7.31826V32.3466C62.1184 32.2062 62.7801 32.1424 63.4539 32.1424C64.2977 32.1424 65.1354 32.2445 65.9731 32.455C70.3254 33.5269 74.5382 37.4122 78.5263 44.0282C81.1001 48.2899 83.51 53.5661 85.5982 59.4292C86.1506 60.9732 86.6787 62.5554 87.1825 64.1759H93.3317V77.7523C93.3317 78.6965 93.8659 79.5578 94.6975 79.9342C94.9828 80.0618 95.2863 80.1192 95.5898 80.1192C96.1544 80.1192 96.7128 79.8959 97.1438 79.4685L112.386 64.1759H130.263C134.1 64.1759 137.22 60.8902 137.22 56.8518V7.31826C137.22 3.27978 134.1 -0.00585938 130.263 -0.00585938ZM99.3473 12.8241L103.888 15.5802L90.2966 23.8422L85.756 21.0733L99.3473 12.8241ZM97.0892 49.9742L83.504 41.7123V25.182L88.0445 27.9445V36.5126C88.0445 37.8269 89.0522 38.886 90.2966 38.886C91.541 38.886 92.5486 37.8269 92.5486 36.5126V30.6814L97.0892 33.4503V49.9742ZM94.8007 26.5792L108.392 18.3172L112.933 21.0733L99.3473 29.3417L94.8007 26.5792ZM115.185 41.7123L101.599 49.9742V33.4503L115.185 25.182V41.7123ZM99.4991 101.205H100.574V105.358H99.4991C98.4307 105.358 97.5262 104.401 97.5262 103.278C97.5262 102.155 98.4307 101.205 99.4991 101.205ZM105.084 110.098H106.146C107.214 110.098 108.113 111.043 108.113 112.172C108.113 113.314 107.233 114.245 106.146 114.245H105.084V110.098ZM84.6755 71.9338C82.1564 62.0386 78.6235 53.0302 74.7264 46.5674C69.1539 37.3229 64.6862 36.3149 61.9242 37.0932C60.4795 37.5015 59.2472 38.4521 58.2517 39.9323L24.7864 70.4983L13.0404 73.8095C5.9261 75.8383 2.08363 85.1466 4.48138 94.5505C6.3753 102.021 11.6564 107.368 17.32 108.267L26.2675 126.412C27.4876 128.906 29.4483 130.303 31.579 130.303C32.0282 130.303 32.4895 130.246 32.9569 130.112L38.9847 128.409C41.4856 127.707 43.0336 125.997 43.2521 123.719C43.5495 120.568 41.1275 117.084 37.2365 115.062C36.071 114.449 35.3365 113.505 34.9965 112.185L33.1269 104.809L33.4851 104.707L77.0088 113.563C77.9982 114.048 78.9938 114.303 79.9771 114.303C80.4931 114.303 81.0091 114.233 81.525 114.086C90.0234 111.687 89.5439 91.0607 84.6755 71.9338ZM83.6071 98.9463C83.3401 105.683 81.78 109.103 80.3535 109.505C78.927 109.913 75.9526 107.77 72.5229 102.072C70.465 98.6656 68.5104 94.474 66.7683 89.7848L69.0385 89.1468C72.0555 88.2919 74.5867 86.2439 76.1589 83.3793C77.7251 80.5084 78.1439 77.1845 77.3305 74.0073C76.5232 70.8301 74.5807 68.1633 71.8612 66.5109C69.1357 64.8585 65.9791 64.4119 62.9501 65.2605L60.698 65.8984C59.1258 54.8931 59.7693 46.5482 61.651 43.1286C62.1002 42.3056 62.5859 41.8207 63.0897 41.674C63.199 41.6421 63.3204 41.6293 63.4539 41.6293C64.9775 41.6293 67.7577 43.8623 70.9203 49.1066C72.7535 52.1434 74.5018 55.7927 76.0922 59.8694C77.6826 63.9462 79.1212 68.444 80.3231 73.1588C82.727 82.6074 83.8924 91.7625 83.6071 98.9463ZM14.4002 45.2403L24.0701 56.5519C24.5071 57.0623 25.1142 57.343 25.7455 57.343C26.0126 57.343 26.2857 57.2856 26.5528 57.1835C27.4209 56.8262 27.9975 55.9458 27.9975 54.9633V45.2403H45.5406C48.4725 45.2403 50.8642 42.733 50.8642 39.6516V7.4331C50.8642 4.35161 48.4725 1.84431 45.5406 1.84431H5.32514C2.39321 1.84431 0.0136719 4.35161 0.0136719 7.4331V39.6516C0.0136719 42.733 2.39321 45.2403 5.32514 45.2403H14.4002ZM36.5566 25.0799C37.7221 25.788 38.5598 26.93 38.9058 28.2953C39.2518 29.6606 39.0758 31.0897 38.3959 32.3211C37.7342 33.546 36.6477 34.42 35.3486 34.7837C34.9176 34.9113 34.4745 34.9687 34.0374 34.9687C33.1633 34.9687 32.3014 34.7263 31.5244 34.2542C30.3649 33.5524 29.5273 32.4104 29.1812 31.0451C28.8292 29.6734 29.0113 28.2443 29.6851 27.0194C30.3528 25.7944 31.4394 24.914 32.7323 24.5504C34.0374 24.1803 35.3911 24.3717 36.5566 25.0799ZM32.9266 10.7634C34.001 11.4205 34.3713 12.8688 33.7521 14.0044L21.0168 37.24C20.604 37.9992 19.8452 38.4266 19.0621 38.4266C18.6858 38.4266 18.2973 38.3245 17.9391 38.1076C16.8647 37.4505 16.4944 36.0023 17.1136 34.8666L29.849 11.6311C30.4681 10.5018 31.8461 10.1127 32.9266 10.7634ZM12.4698 16.5563C13.1315 15.3314 14.2181 14.451 15.5171 14.0873C16.8161 13.7173 18.1698 13.9023 19.3414 14.6169C20.5069 15.3186 21.3385 16.4606 21.6845 17.8259C22.0366 19.1976 21.8544 20.6267 21.1806 21.858C20.5129 23.0766 19.4263 23.957 18.1334 24.3271C17.6963 24.4483 17.2532 24.5057 16.8161 24.5057C15.9481 24.5057 15.0861 24.2633 14.3031 23.7911C13.1436 23.0894 12.312 21.9474 11.9599 20.5757C11.6139 19.2104 11.79 17.7813 12.4698 16.5563Z" fill="black"/>
  </g>
</svg>