<?xml version="1.0" encoding="utf-8"?>
<svg width="117" height="132" viewBox="0 0 117 132" fill="none" xmlns="http://www.w3.org/2000/svg" id="instagram-management-icon-image" class="Instagram management social media content symbol icon logo">
  <desc>The Instagram management icon represents tools and strategies for account and content management on the platform.</desc>
  <title>Instagram Management Icon - Gradient Camera Design</title>
  <mask id="mask0_73_297" style="mask-type:luminance" maskUnits="userSpaceOnUse" x="0" y="0" width="117" height="132">
    <path d="M0 0H116.297V132H0V0Z" fill="white"/>
  </mask>
  <g mask="url(#mask0_73_297)">
    <path d="M113.116 5.21803C113.106 4.8716 113.067 4.5313 112.993 4.19713C112.919 3.85989 112.815 3.53185 112.677 3.21608C112.542 2.9003 112.374 2.59986 112.181 2.31781C111.984 2.03269 111.764 1.7721 111.518 1.5299C111.273 1.28771 111.006 1.0731 110.718 0.886089C110.43 0.696011 110.127 0.536591 109.808 0.404762C109.489 0.275999 109.161 0.177895 108.824 0.110448C108.486 0.0430013 108.146 0.00927734 107.8 0.00927734H5.34451C4.99501 0.00927734 4.65164 0.046067 4.30828 0.113514C3.96491 0.180961 3.63381 0.282131 3.3119 0.417025C2.99 0.548854 2.68342 0.714405 2.39217 0.907549C2.10092 1.10069 1.8342 1.32143 1.58587 1.56976C1.34061 1.81502 1.11987 2.08481 0.923663 2.37299C0.730519 2.66424 0.568034 2.97082 0.433139 3.29272C0.298245 3.61463 0.197074 3.9488 0.129627 4.2891C0.0621795 4.63247 0.0253906 4.9789 0.0253906 5.3284V122.879C0.0253906 123.48 0.126561 124.063 0.322771 124.63C0.522046 125.194 0.807163 125.712 1.18119 126.184C1.55215 126.653 1.99362 127.049 2.49947 127.371C3.00532 127.69 3.55103 127.92 4.13659 128.057C4.2255 128.631 4.40945 129.17 4.6915 129.676C4.97355 130.185 5.33531 130.627 5.77678 131.004C6.21826 131.384 6.70878 131.672 7.25449 131.874C7.79713 132.074 8.36123 132.175 8.94066 132.175H111.396C111.715 132.175 112.03 132.144 112.343 132.083C112.656 132.018 112.962 131.927 113.257 131.804C113.551 131.684 113.83 131.534 114.097 131.356C114.36 131.178 114.609 130.976 114.833 130.752C115.059 130.525 115.259 130.28 115.436 130.017C115.614 129.75 115.765 129.471 115.887 129.173C116.01 128.879 116.102 128.576 116.163 128.263C116.224 127.95 116.258 127.634 116.258 127.316V9.76151C116.255 9.26792 116.181 8.78659 116.034 8.31446C115.887 7.84233 115.676 7.40393 115.394 6.99924C115.115 6.59456 114.777 6.23893 114.391 5.93542C114.002 5.63191 113.576 5.38971 113.116 5.21803ZM0.945123 122.879V5.3284C0.945123 5.03715 0.972715 4.75203 1.03096 4.46998C1.08615 4.18486 1.16892 3.90894 1.27929 3.64222C1.38966 3.3755 1.52762 3.1241 1.68704 2.88191C1.84646 2.64278 2.03041 2.41898 2.23581 2.21664C2.43815 2.01123 2.66196 1.83035 2.90109 1.66786C3.14022 1.50844 3.39468 1.37355 3.6614 1.26318C3.92812 1.14975 4.20404 1.06697 4.48609 1.01179C4.77121 0.953537 5.05633 0.925944 5.34451 0.925944H107.8C108.088 0.925944 108.376 0.953537 108.658 1.01179C108.943 1.06697 109.216 1.14975 109.483 1.26318C109.753 1.37355 110.004 1.50844 110.246 1.66786C110.485 1.83035 110.706 2.01123 110.911 2.21664C111.117 2.41898 111.298 2.64278 111.46 2.88191C111.62 3.1241 111.754 3.3755 111.865 3.64222C111.975 3.90894 112.061 4.18486 112.116 4.46998C112.174 4.75203 112.202 5.03715 112.202 5.3284V122.879C112.202 123.168 112.174 123.456 112.116 123.738C112.061 124.023 111.975 124.296 111.865 124.563C111.754 124.829 111.62 125.084 111.46 125.326C111.298 125.565 111.117 125.786 110.911 125.991C110.706 126.197 110.485 126.377 110.246 126.54C110.004 126.699 109.753 126.834 109.483 126.945C109.216 127.055 108.943 127.141 108.658 127.196C108.376 127.251 108.088 127.282 107.8 127.282H5.34451C5.05633 127.282 4.77121 127.251 4.48609 127.196C4.20404 127.141 3.92812 127.055 3.6614 126.945C3.39468 126.834 3.14022 126.699 2.90109 126.54C2.66196 126.377 2.43815 126.197 2.23581 125.991C2.03041 125.786 1.84646 125.565 1.68704 125.326C1.52762 125.084 1.38966 124.829 1.27929 124.563C1.16892 124.296 1.08615 124.023 1.03096 123.738C0.972715 123.456 0.945123 123.168 0.945123 122.879Z" fill="black"/>
  </g>
  <path d="M6.0585 108.145H107.085C107.214 108.145 107.321 108.099 107.41 108.01C107.502 107.921 107.545 107.814 107.545 107.685V18.8024C107.545 18.6767 107.502 18.5663 107.41 18.4774C107.321 18.3885 107.214 18.3425 107.085 18.3425H6.0585C5.9328 18.3425 5.82243 18.3885 5.73353 18.4774C5.64462 18.5663 5.59863 18.6767 5.59863 18.8024V107.685C5.59863 107.814 5.64462 107.921 5.73353 108.01C5.82243 108.099 5.9328 108.145 6.0585 108.145ZM6.51837 19.2623H106.628V107.225H6.51837V19.2623Z" fill="black"/>
  <path d="M10.3472 122.775C10.4362 122.864 10.5435 122.91 10.6722 122.91C10.7979 122.91 10.9052 122.864 10.9972 122.775L15.4671 118.314C15.6265 118.155 15.7675 117.983 15.8902 117.796C16.0159 117.609 16.1201 117.413 16.2059 117.208C16.2918 116.999 16.3562 116.788 16.3991 116.567C16.442 116.346 16.4635 116.125 16.4635 115.902C16.4635 115.678 16.442 115.457 16.3991 115.236C16.3562 115.016 16.2918 114.804 16.2059 114.596C16.1201 114.39 16.0159 114.194 15.8902 114.007C15.7675 113.82 15.6265 113.648 15.4671 113.489L15.1605 113.182C14.8662 112.891 14.532 112.658 14.1549 112.486C13.7748 112.318 13.3793 112.217 12.9654 112.192C12.5515 112.164 12.1469 112.214 11.7483 112.333C11.3528 112.456 10.9911 112.643 10.663 112.894C10.3319 112.643 9.97016 112.456 9.57467 112.333C9.17612 112.214 8.77144 112.168 8.35756 112.192C7.94368 112.22 7.5482 112.318 7.17111 112.489C6.79095 112.658 6.45678 112.891 6.16247 113.182L5.85589 113.489C5.69953 113.648 5.55544 113.82 5.43281 114.007C5.30711 114.194 5.20288 114.39 5.11704 114.596C5.0312 114.804 4.96681 115.016 4.92389 115.236C4.88097 115.457 4.85645 115.678 4.85645 115.902C4.85645 116.125 4.88097 116.346 4.92389 116.567C4.96681 116.788 5.0312 116.999 5.11704 117.208C5.20288 117.413 5.30711 117.609 5.43281 117.796C5.55544 117.983 5.69953 118.155 5.85589 118.314L10.3472 122.775ZM6.52729 114.133L6.83387 113.826C7.06687 113.593 7.33666 113.412 7.64323 113.287C7.94675 113.161 8.26559 113.096 8.59669 113.096C8.92779 113.096 9.24357 113.161 9.55015 113.287C9.85366 113.412 10.1234 113.593 10.3595 113.826C10.4484 113.918 10.5557 113.961 10.6845 113.961C10.8102 113.961 10.9175 113.918 11.0095 113.826C11.2425 113.593 11.5122 113.412 11.8158 113.287C12.1223 113.161 12.4412 113.096 12.7692 113.096C13.1003 113.096 13.4192 113.161 13.7257 113.287C14.0292 113.412 14.299 113.593 14.532 113.826L14.8386 114.133C15.0716 114.366 15.2525 114.635 15.3782 114.942C15.5039 115.246 15.5683 115.564 15.5683 115.892C15.5683 116.224 15.5039 116.542 15.3782 116.846C15.2525 117.152 15.0716 117.422 14.8386 117.655L10.6937 121.803L6.52729 117.655C6.29429 117.422 6.11341 117.152 5.98465 116.849C5.85895 116.542 5.79457 116.224 5.79457 115.892C5.79457 115.564 5.85895 115.246 5.98465 114.939C6.11341 114.635 6.29429 114.366 6.52729 114.133Z" fill="black"/>
  <path d="M29.0999 120.074C29.7744 119.234 30.1147 118.275 30.1208 117.195C30.1208 114.439 27.5977 112.189 24.492 112.189C21.3864 112.189 18.8633 114.433 18.8633 117.195C18.8633 119.958 21.3895 122.205 24.492 122.205C25.5068 122.211 26.4664 121.978 27.3647 121.506L29.7039 122.849C29.7774 122.892 29.8541 122.91 29.9338 122.91C30.1116 122.91 30.2434 122.833 30.3323 122.68C30.4213 122.527 30.4213 122.373 30.3323 122.22L29.0999 120.074ZM27.5977 120.58C27.4444 120.488 27.2911 120.488 27.1347 120.58C26.3192 121.055 25.4363 121.288 24.492 121.285C21.8953 121.285 19.783 119.446 19.783 117.192C19.783 114.939 21.8953 113.106 24.492 113.106C27.0888 113.106 29.2041 114.945 29.2041 117.195C29.198 118.167 28.8638 119.007 28.2016 119.715C28.0483 119.881 28.0299 120.062 28.1434 120.255L28.6891 121.208L27.5977 120.58Z" fill="black"/>
  <path d="M43.9082 112.618C43.9051 112.578 43.899 112.542 43.8867 112.508C43.8836 112.489 43.8775 112.474 43.8714 112.459C43.8499 112.407 43.8193 112.361 43.7794 112.324C43.7396 112.284 43.6966 112.253 43.6445 112.232L43.5955 112.217C43.5587 112.204 43.5219 112.195 43.4851 112.195H43.433C43.3901 112.198 43.3502 112.207 43.3103 112.22H43.2766L33.4753 116.555C33.3037 116.631 33.2148 116.763 33.2025 116.95C33.1964 117.137 33.273 117.278 33.4355 117.373L36.8201 119.283L38.7331 122.668C38.819 122.821 38.9539 122.901 39.1286 122.901H39.1532C39.3432 122.892 39.4751 122.8 39.5517 122.628L43.8898 112.827C43.8898 112.817 43.8898 112.805 43.8898 112.796C43.902 112.756 43.9112 112.713 43.9143 112.673C43.9143 112.652 43.9112 112.633 43.9082 112.618ZM41.3912 114.062L37.0684 118.385L34.6741 117.033L41.3912 114.062ZM39.0673 121.429L37.7184 119.032L42.0381 114.712L39.0673 121.429Z" fill="black"/>
  <path d="M107.084 112.189H97.286C97.1573 112.189 97.05 112.232 96.9611 112.324C96.8691 112.413 96.8262 112.52 96.8262 112.649V122.447C96.8262 122.628 96.9028 122.763 97.0622 122.852C97.2186 122.937 97.3749 122.934 97.5282 122.839L102.188 119.951L106.851 122.839C106.922 122.885 107.001 122.907 107.087 122.907C107.17 122.91 107.244 122.888 107.311 122.849C107.471 122.763 107.55 122.628 107.547 122.447V112.649C107.547 112.52 107.504 112.413 107.412 112.321C107.323 112.232 107.213 112.186 107.084 112.189ZM106.627 121.628L102.427 119.026C102.354 118.98 102.274 118.958 102.185 118.955C102.099 118.958 102.017 118.98 101.943 119.026L97.7398 121.628V113.106H106.624L106.627 121.628Z" fill="black"/>
  <path d="M11.5493 15.9175C11.9417 15.9175 12.328 15.8807 12.7143 15.8041C13.0975 15.7274 13.4685 15.6171 13.8302 15.4668C14.192 15.3166 14.5354 15.1327 14.8603 14.9181C15.1884 14.7004 15.4888 14.4521 15.7647 14.1761C16.0407 13.9002 16.289 13.5998 16.5067 13.2748C16.7243 12.9498 16.9083 12.6065 17.0585 12.2447C17.2087 11.8829 17.3222 11.512 17.3988 11.1288C17.4754 10.7425 17.5122 10.3562 17.5122 9.96377C17.5122 9.57442 17.4754 9.18507 17.3988 8.80184C17.3252 8.41862 17.2118 8.0446 17.0616 7.6859C16.9113 7.32414 16.7274 6.98077 16.5128 6.65274C16.2951 6.32776 16.0468 6.02732 15.7709 5.7514C15.495 5.47548 15.1945 5.22715 14.8695 5.00948C14.5446 4.79181 14.2012 4.60786 13.8394 4.45764C13.4777 4.30742 13.1037 4.19398 12.7204 4.11734C12.3372 4.04376 11.9509 4.00391 11.5585 4.00391C11.1661 4.00391 10.7798 4.0407 10.3966 4.11734C10.0133 4.19398 9.63932 4.30742 9.27756 4.45764C8.9158 4.60786 8.57243 4.78874 8.24746 5.00641C7.92249 5.22408 7.62204 5.47241 7.34612 5.74833C7.06714 6.02425 6.82188 6.3247 6.60421 6.64967C6.38654 6.97464 6.20259 7.31801 6.05237 7.67977C5.90214 8.04153 5.79178 8.41556 5.71513 8.79878C5.63849 9.182 5.59863 9.56829 5.59863 9.96071C5.59863 10.3531 5.63849 10.7394 5.71513 11.1226C5.79178 11.5059 5.90521 11.8768 6.05543 12.2386C6.20259 12.6003 6.38654 12.9406 6.60421 13.2656C6.82188 13.5906 7.06714 13.8941 7.34306 14.17C7.61898 14.4459 7.91942 14.6912 8.2444 14.9089C8.56937 15.1265 8.91273 15.3105 9.2745 15.4607C9.63319 15.6109 10.0072 15.7244 10.3904 15.801C10.7737 15.8777 11.1599 15.9175 11.5493 15.9175ZM11.5493 4.92364C11.8804 4.92364 12.2084 4.9543 12.5334 5.01868C12.8584 5.08306 13.1742 5.1781 13.4807 5.30379C13.7843 5.42949 14.0755 5.58585 14.3514 5.76979C14.6273 5.95374 14.8818 6.16221 15.1148 6.39521C15.3509 6.62821 15.5593 6.88267 15.7433 7.15859C15.9272 7.43144 16.0836 7.72269 16.2093 8.02927C16.335 8.33278 16.4331 8.64855 16.4975 8.97353C16.5618 9.2985 16.5956 9.62654 16.5956 9.95764C16.5956 10.2887 16.5618 10.6168 16.4975 10.9387C16.4331 11.2637 16.338 11.5794 16.2123 11.886C16.0866 12.1926 15.9303 12.4808 15.7463 12.7567C15.5624 13.0326 15.3539 13.2871 15.1209 13.5201C14.8879 13.7561 14.6335 13.9646 14.3576 14.1486C14.0816 14.3325 13.7934 14.4889 13.4869 14.6146C13.1803 14.7402 12.8676 14.8384 12.5426 14.9027C12.2176 14.9671 11.8896 14.9978 11.5585 14.9978C11.2274 14.9978 10.8994 14.9671 10.5744 14.9027C10.2494 14.8384 9.93671 14.7433 9.63013 14.6146C9.32355 14.4889 9.0323 14.3356 8.75945 14.1516C8.48353 13.9677 8.22907 13.7592 7.99607 13.5231C7.76 13.2901 7.55153 13.0357 7.36758 12.7598C7.18364 12.4869 7.02728 12.1957 6.90159 11.8891C6.77589 11.5825 6.68085 11.2698 6.61647 10.9448C6.54902 10.6198 6.51837 10.2918 6.51837 9.96071C6.51837 9.6296 6.55209 9.30463 6.61647 8.97966C6.68085 8.65469 6.77589 8.33891 6.90159 8.0354C7.03035 7.72882 7.18364 7.44064 7.36758 7.16472C7.55153 6.89187 7.76 6.63741 7.993 6.40134C8.226 6.16834 8.48046 5.95987 8.75638 5.77592C9.02924 5.59198 9.32048 5.43562 9.624 5.30993C9.93057 5.18116 10.2433 5.08612 10.5683 5.02174C10.8932 4.95736 11.2213 4.92364 11.5493 4.92364Z" fill="black"/>
  <path d="M90.5503 8.13968C90.7925 8.38188 90.9796 8.66086 91.1083 8.97357C91.2401 9.28934 91.3045 9.61738 91.3045 9.95768C91.3045 10.301 91.2401 10.6291 91.1083 10.9449C90.9796 11.2576 90.7925 11.5366 90.5503 11.7788C90.3112 12.0209 90.0322 12.2049 89.7165 12.3367C89.4007 12.4655 89.0726 12.5329 88.7323 12.5329C88.392 12.5329 88.0609 12.4655 87.7482 12.3367C87.4325 12.2049 87.1535 12.0209 86.9113 11.7788C86.6721 11.5366 86.4851 11.2576 86.3564 10.9449C86.2245 10.6291 86.1602 10.301 86.1602 9.95768C86.1602 9.61738 86.2245 9.28934 86.3564 8.97357C86.4851 8.66086 86.6721 8.38188 86.9113 8.13968C87.1535 7.89748 87.4325 7.71354 87.7482 7.58171C88.064 7.45295 88.392 7.3855 88.7323 7.3855C89.0726 7.3855 89.4007 7.45295 89.7165 7.58171C90.0322 7.71354 90.3112 7.89748 90.5503 8.13968Z" fill="black"/>
  <path d="M99.1259 9.37505C99.2056 9.70616 99.2179 10.0403 99.1627 10.3776C99.1075 10.7148 98.991 11.0275 98.8101 11.3188C98.6323 11.6069 98.4024 11.8522 98.1264 12.0515C97.8505 12.2508 97.547 12.3918 97.2128 12.4684C96.8817 12.5481 96.5476 12.5604 96.2103 12.5052C95.8731 12.45 95.5604 12.3335 95.2691 12.1526C94.981 11.9748 94.7357 11.748 94.5364 11.469C94.3372 11.1931 94.1961 10.8895 94.1195 10.5554C94.0398 10.2243 94.0275 9.8901 94.0827 9.55287C94.1379 9.21563 94.2544 8.90292 94.4353 8.61168C94.6131 8.32349 94.843 8.07823 95.1189 7.87896C95.3948 7.67968 95.6984 7.53865 96.0325 7.46201C96.3636 7.3823 96.6978 7.37004 97.035 7.42522C97.3723 7.4804 97.685 7.5969 97.9762 7.77778C98.2644 7.9556 98.5097 8.18553 98.7089 8.46145C98.9082 8.73737 99.0492 9.04395 99.1259 9.37505Z" fill="black"/>
  <path d="M107.02 9.37511C107.096 9.70622 107.109 10.0404 107.053 10.3776C107.001 10.7149 106.882 11.0276 106.704 11.3188C106.523 11.607 106.296 11.8523 106.02 12.0515C105.741 12.2508 105.438 12.3918 105.107 12.4685C104.776 12.5482 104.441 12.5605 104.104 12.5053C103.767 12.4501 103.454 12.3336 103.163 12.1527C102.872 11.9749 102.626 11.748 102.427 11.469C102.228 11.1931 102.09 10.8896 102.01 10.5554C101.934 10.2243 101.921 9.89016 101.976 9.55293C102.032 9.21569 102.148 8.90299 102.326 8.61174C102.507 8.32355 102.734 8.07829 103.01 7.87902C103.289 7.67974 103.592 7.53872 103.923 7.46207C104.257 7.38236 104.592 7.3701 104.929 7.42528C105.263 7.48046 105.579 7.59697 105.867 7.77785C106.158 7.95566 106.403 8.18559 106.603 8.46151C106.802 8.73743 106.94 9.04401 107.02 9.37511Z" fill="black"/>
  <path d="M58 38.405C66.01 38.405 66.96 38.435 70.1225 38.58C73.3925 38.73 76.76 39.475 79.1425 41.8575C81.5475 44.2625 82.27 47.5975 82.42 50.8775C82.565 54.04 82.595 54.99 82.595 63C82.595 71.01 82.565 71.96 82.42 75.1225C82.2725 78.375 81.51 81.775 79.1425 84.1425C76.7375 86.5475 73.405 87.27 70.1225 87.42C66.96 87.565 66.01 87.595 58 87.595C49.99 87.595 49.04 87.565 45.8775 87.42C42.65 87.2725 39.205 86.4925 36.8575 84.1425C34.465 81.75 33.73 78.3825 33.58 75.1225C33.435 71.96 33.405 71.01 33.405 63C33.405 54.99 33.435 54.04 33.58 50.8775C33.7275 47.6375 34.4975 44.2175 36.8575 41.8575C39.2575 39.4575 42.605 38.73 45.8775 38.58C49.04 38.435 49.99 38.405 58 38.405ZM58 33C49.8525 33 48.83 33.035 45.63 33.18C40.9925 33.3925 36.3875 34.6825 33.035 38.035C29.67 41.4 28.3925 45.995 28.18 50.63C28.035 53.83 28 54.8525 28 63C28 71.1475 28.035 72.17 28.18 75.37C28.3925 80.0025 29.6875 84.62 33.035 87.965C36.3975 91.3275 41 92.6075 45.63 92.82C48.83 92.965 49.8525 93 58 93C66.1475 93 67.17 92.965 70.37 92.82C75.005 92.6075 79.615 91.315 82.965 87.965C86.3325 84.5975 87.6075 80.005 87.82 75.37C87.965 72.17 88 71.1475 88 63C88 54.8525 87.965 53.83 87.82 50.63C87.6075 45.9925 86.315 41.385 82.965 38.035C79.6075 34.6775 74.9925 33.39 70.37 33.18C67.17 33.035 66.1475 33 58 33Z" fill="black"/>
  <path d="M57.9997 47.595C49.4922 47.595 42.5947 54.4925 42.5947 63C42.5947 71.5075 49.4922 78.405 57.9997 78.405C66.5072 78.405 73.4047 71.5075 73.4047 63C73.4047 54.4925 66.5072 47.595 57.9997 47.595ZM57.9997 73C52.4772 73 47.9997 68.5225 47.9997 63C47.9997 57.4775 52.4772 53 57.9997 53C63.5222 53 67.9997 57.4775 67.9997 63C67.9997 68.5225 63.5222 73 57.9997 73Z" fill="black"/>
  <path d="M74.015 50.585C76.0033 50.585 77.615 48.9732 77.615 46.985C77.615 44.9968 76.0033 43.385 74.015 43.385C72.0268 43.385 70.415 44.9968 70.415 46.985C70.415 48.9732 72.0268 50.585 74.015 50.585Z" fill="black"/>
</svg>