<svg xmlns="http://www.w3.org/2000/svg" width="116" height="132" fill="none"><path fill="#fff" d="M5.799 129.484h103.918c2.126 0 3.85-2.037 3.85-4.55V6.674c0-2.51-1.724-4.546-3.85-4.546H5.799c-2.126 0-3.85 2.037-3.85 4.546v118.26c0 2.513 1.724 4.55 3.85 4.55"/><path fill="#fff" d="M113.567 6.674V20.32H1.949V6.674c0-2.513 1.724-4.546 3.85-4.546h103.918c2.126 0 3.85 2.033 3.85 4.546"/><path fill="#C3C5C4" d="M75.077 79.598H13.495V34.113h61.582zm26.943-27.29H82.777V34.113h19.243z"/><path fill="#fff" d="M40.439 63.68V50.034l11.546 6.823z"/><path fill="#C3C5C4" d="M102.02 79.598H82.777V61.403h19.243zm0 27.29H82.777V88.694h19.243z"/><mask id="a" width="116" height="132" x="0" y="0" maskUnits="userSpaceOnUse" style="mask-type:luminance"><path fill="#fff" d="M0 0h115.536v132H0z"/></mask><g mask="url(#a)"><path fill="#100F0D" d="M109.717 127.356H5.799c-1.06 0-1.924-1.02-1.924-2.273V22.741h107.768v102.342c0 1.253-.863 2.273-1.926 2.273M5.799 4.55h103.918c1.063 0 1.926 1.02 1.926 2.273v11.372H3.875V6.823c0-1.253.863-2.273 1.924-2.273M109.717 0H5.799C2.615 0 .025 3.06.025 6.823v118.26c0 3.762 2.59 6.822 5.774 6.822h103.918c3.184 0 5.773-3.06 5.773-6.822V6.823c0-3.763-2.589-6.823-5.773-6.823"/></g><path fill="#100F0D" d="M73.154 77.325H15.422V36.386h57.732zm1.924-45.485H13.496c-1.06 0-1.924 1.016-1.924 2.273v45.485c0 1.256.863 2.273 1.924 2.273h61.582c1.063 0 1.926-1.017 1.926-2.273V34.113c0-1.257-.863-2.273-1.926-2.273M25.043 13.645c1.063 0 1.926-1.016 1.926-2.273 0-1.256-.863-2.276-1.926-2.276-1.06 0-1.924 1.02-1.924 2.276 0 1.257.863 2.273 1.924 2.273m-7.697 0c1.064 0 1.924-1.016 1.924-2.273 0-1.256-.86-2.276-1.924-2.276-1.063 0-1.923 1.02-1.923 2.276 0 1.257.86 2.273 1.923 2.273m-7.697 0c1.063 0 1.923-1.016 1.923-2.273 0-1.256-.86-2.276-1.923-2.276s-1.926 1.02-1.926 2.276c0 1.257.863 2.273 1.926 2.273m90.449 36.39H84.701V36.386h15.397zm1.923-18.195H82.778c-1.063 0-1.926 1.016-1.926 2.273v18.195c0 1.256.863 2.273 1.926 2.273h19.243c1.063 0 1.923-1.017 1.923-2.273V34.113c0-1.257-.86-2.273-1.923-2.273"/><path fill="#100F0D" d="m42.362 53.713 5.318 3.144-5.318 3.141zm-2.936 11.899c.309.226.66.34 1.012.34a1.7 1.7 0 0 0 .86-.239l11.547-6.822c.651-.386 1.066-1.172 1.066-2.034 0-.864-.415-1.651-1.066-2.036l-11.547-6.823a1.67 1.67 0 0 0-1.872.101c-.566.412-.911 1.145-.911 1.936V63.68c0 .787.346 1.52.911 1.932M28.892 86.42H13.496c-1.06 0-1.924 1.017-1.924 2.273s.863 2.277 1.924 2.277h15.396c1.063 0 1.923-1.02 1.923-2.276 0-1.257-.86-2.274-1.923-2.274m21.17 11.373c0-1.257-.863-2.277-1.926-2.277h-26.94c-1.063 0-1.927 1.02-1.927 2.277 0 1.253.864 2.273 1.927 2.273h26.94c1.063 0 1.926-1.02 1.926-2.273m-28.866 6.822c-1.063 0-1.927 1.017-1.927 2.273s.864 2.273 1.927 2.273h21.166c1.064 0 1.927-1.016 1.927-2.273 0-1.256-.863-2.273-1.927-2.273zm-7.7-9.099c-1.06 0-1.924 1.02-1.924 2.277 0 1.253.863 2.273 1.924 2.273 1.063 0 1.926-1.02 1.926-2.273 0-1.257-.863-2.277-1.926-2.277m0 9.099c-1.06 0-1.924 1.017-1.924 2.273s.863 2.273 1.924 2.273c1.063 0 1.926-1.016 1.926-2.273 0-1.256-.863-2.273-1.926-2.273m46.189 9.096h-38.49c-1.062 0-1.925 1.016-1.925 2.273 0 1.256.863 2.276 1.926 2.276h38.489c1.06 0 1.923-1.02 1.923-2.276 0-1.257-.863-2.273-1.923-2.273m-46.189 0c-1.06 0-1.924 1.016-1.924 2.273 0 1.256.863 2.276 1.924 2.276 1.063 0 1.926-1.02 1.926-2.276 0-1.257-.863-2.273-1.926-2.273m76.979-72.775v4.55l3.85-2.274zm9.623 36.389H84.701V63.68h15.397zm1.923-18.195H82.778c-1.063 0-1.926 1.017-1.926 2.273v18.195c0 1.256.863 2.273 1.926 2.273h19.243c1.063 0 1.923-1.017 1.923-2.273V61.403c0-1.256-.86-2.273-1.923-2.273"/><path fill="#100F0D" d="M90.475 68.226v4.55l3.85-2.274zm9.623 36.389H84.701V90.97h15.397zm1.923-18.195H82.778c-1.063 0-1.926 1.017-1.926 2.273v18.195c0 1.257.863 2.273 1.926 2.273h19.243c1.063 0 1.923-1.016 1.923-2.273V88.693c0-1.256-.86-2.273-1.923-2.273"/><path fill="#100F0D" d="M90.475 95.516v4.55l3.85-2.273zM84.7 113.711c-1.062 0-1.923 1.016-1.923 2.273 0 1.256.86 2.276 1.924 2.276 1.063 0 1.923-1.02 1.923-2.276 0-1.257-.86-2.273-1.923-2.273m7.697 0c-1.063 0-1.923 1.016-1.923 2.273 0 1.256.86 2.276 1.923 2.276s1.926-1.02 1.926-2.276c0-1.257-.863-2.273-1.926-2.273m7.699 0c-1.063 0-1.926 1.016-1.926 2.273 0 1.256.863 2.276 1.926 2.276 1.061 0 1.924-1.02 1.924-2.276 0-1.257-.863-2.273-1.924-2.273"/></svg>