<svg xmlns="http://www.w3.org/2000/svg" width="124" height="124" fill="none"><path fill="#000" fill-rule="evenodd" d="M105.431 18.021C93.827 6.407 78.399.005 61.964 0 28.096 0 .532 27.559.517 61.442A61.33 61.33 0 0 0 8.72 92.163L0 124l32.57-8.546a61.4 61.4 0 0 0 29.363 7.482h.026c33.862 0 61.431-27.565 61.447-61.448.01-16.414-6.376-31.857-17.975-43.467m-43.467 94.535h-.02a50.94 50.94 0 0 1-25.994-7.12l-1.866-1.106-19.328 5.069 5.162-18.848-1.215-1.932a50.9 50.9 0 0 1-7.806-27.177c.01-28.158 22.924-51.067 51.093-51.067 13.64 0 26.463 5.321 36.104 14.973 9.641 9.656 14.948 22.485 14.942 36.13-.015 28.169-22.924 51.078-51.072 51.078m28.014-38.249c-1.535-.77-9.083-4.485-10.494-4.996-1.405-.512-2.428-.77-3.456.764s-3.963 4.997-4.862 6.025c-.894 1.023-1.793 1.152-3.328.382s-6.484-2.387-12.348-7.62c-4.562-4.072-7.647-9.1-8.54-10.639-.894-1.54-.094-2.366.671-3.13.692-.688 1.535-1.794 2.304-2.693.776-.888 1.029-1.529 1.545-2.557.512-1.023.259-1.922-.129-2.692-.387-.765-3.456-8.324-4.733-11.398-1.245-2.996-2.51-2.588-3.456-2.635a59 59 0 0 0-2.945-.051c-1.023 0-2.687.382-4.092 1.922s-5.373 5.254-5.373 12.808c0 7.559 5.502 14.86 6.267 15.882.764 1.023 10.824 16.534 26.226 23.183 3.663 1.581 6.525 2.526 8.752 3.234 3.679 1.168 7.027 1.003 9.672.61 2.95-.44 9.083-3.715 10.364-7.3s1.282-6.666.894-7.301c-.382-.646-1.405-1.028-2.94-1.798" clip-rule="evenodd"/></svg>