<?xml version="1.0" encoding="utf-8"?>
<svg width="156" height="132" viewBox="0 0 156 132" fill="none" xmlns="http://www.w3.org/2000/svg" id="linkedin-management-icon-image" class="LinkedIn management business symbol logio icon">
  <desc>The official LinkedIn management icon symbolizes professional networking and career opportunities with a clean design of a white "in" on a blue square. Ideal for business-related websites, social media links, and branding.</desc>
  <title>Professional Blue and White Logo</title>
  <path d="M148.572 127.904H150.038L147.228 123.654C148.946 123.654 149.857 122.562 149.87 121.225C149.87 121.174 149.87 121.116 149.863 121.064C149.863 119.242 148.765 118.371 146.511 118.371H142.868V127.904H144.237V123.751H145.923L148.572 127.904ZM145.826 122.672H144.237V119.449H146.253C147.293 119.449 148.481 119.617 148.481 120.98C148.481 122.543 147.286 122.672 145.826 122.672Z" fill="black"/>
  <path d="M111.685 111.686H92.2621V81.2695C92.2621 74.016 92.1329 64.6825 82.16 64.6825C72.045 64.6825 70.4949 72.582 70.4949 80.7464V111.686H51.0787V49.1354H69.7262V57.6808H69.9846C73.789 51.183 80.8553 47.301 88.3802 47.5788C108.068 47.5788 111.691 60.5293 111.691 77.3682L111.685 111.686ZM29.1629 40.5835C22.9363 40.5835 17.8918 35.539 17.8918 29.3124C17.8918 23.0858 22.9363 18.0412 29.1629 18.0412C35.3895 18.0412 40.4341 23.0858 40.4341 29.3124C40.4341 35.539 35.3895 40.5835 29.1629 40.5835ZM38.871 111.686H19.429V49.1354H38.871V111.686ZM121.367 0.00734139H9.6693C4.3922 -0.0507907 0.0645912 4.17993 0 9.45704V121.613C0.0645912 126.897 4.3922 131.127 9.6693 131.069H121.367C126.657 131.134 131.004 126.903 131.075 121.613V9.45058C130.997 4.16056 126.65 -0.0701684 121.367 0.000881963" fill="black"/>
  <path d="M145.995 114.127C141.06 114.173 137.094 118.216 137.146 123.151C137.191 128.086 141.235 132.052 146.169 132C151.104 131.955 155.07 127.911 155.018 122.976C154.973 118.106 151.033 114.173 146.169 114.127H145.995ZM146.202 130.973C141.874 131.044 138.102 127.601 138.031 123.274C137.96 118.946 141.409 115.381 145.737 115.309C150.064 115.238 153.63 118.688 153.701 123.015C153.701 123.06 153.701 123.099 153.701 123.144C153.791 127.375 150.432 130.882 146.202 130.973H146.001H146.202Z" fill="black"/>
</svg>