<svg xmlns="http://www.w3.org/2000/svg" width="146" height="132" fill="none"><path fill="#000" d="M76.284 123.614h-8.14c-.92 0-1.666-.746-1.666-1.669v-14.817h-3.355c-.92 0-1.666-.745-1.666-1.669V97.48c0-.924.746-1.67 1.666-1.67h2.972a30 30 0 0 1 .085-4.39 12.08 12.08 0 0 1 6.033-9.283 12.07 12.07 0 0 1 6-1.597h4.131c.92 0 1.666.749 1.666 1.669v8.762c0 .924-.746 1.67-1.666 1.67H79.79a2.28 2.28 0 0 0-2.274 2.277v.893h4.83c.92 0 1.665.745 1.665 1.669v7.979c0 .924-.746 1.669-1.666 1.669H77.95v14.817c0 .923-.745 1.669-1.665 1.669m-6.475-3.339h4.809v-14.816c0-.92.746-1.669 1.666-1.669h4.394v-4.641H75.85c-.92 0-1.666-.749-1.666-1.669v-2.562c0-3.095 2.514-5.616 5.606-5.616h.89v-5.424h-2.466c-1.522 0-3.027.4-4.347 1.156-2.463 1.409-4.098 3.92-4.371 6.71-.161 1.656-.148 3.533.047 5.579.045.465-.11.93-.427 1.279a1.66 1.66 0 0 1-1.231.547h-3.096v4.645h3.356c.92 0 1.665.745 1.665 1.669z"/><mask id="a" width="62" height="61" x="42" y="71" maskUnits="userSpaceOnUse" style="mask-type:luminance"><path fill="#fff" d="M42.023 71.654h61.29V132h-61.29z"/></mask><g mask="url(#a)"><path fill="#000" d="M72.735 131.98c-16.455 0-29.841-13.414-29.841-29.903 0-4.922 1.22-9.802 3.53-14.112a29.8 29.8 0 0 1 6.138-7.918 29.7 29.7 0 0 1 20.173-7.87 29.7 29.7 0 0 1 20.172 7.87 29.7 29.7 0 0 1 6.14 7.922 29.95 29.95 0 0 1 3.525 14.108c0 16.489-13.383 29.903-29.837 29.903m0-56.468a26.4 26.4 0 0 0-17.922 6.995 26.4 26.4 0 0 0-5.452 7.035 26.6 26.6 0 0 0-3.136 12.535c0 14.649 11.892 26.568 26.51 26.568s26.506-11.919 26.506-26.568c0-4.371-1.08-8.708-3.13-12.532a26.3 26.3 0 0 0-5.455-7.035 26.4 26.4 0 0 0-17.921-6.998"/></g><path fill="#000" d="M72.72 61.766c-4.668 0-8.762-2.438-10.95-6.525a1.673 1.673 0 0 1 .68-2.261c.81-.434 1.82-.13 2.254.68 1.597 2.986 4.596 4.768 8.017 4.768h.007c3.427-.003 6.423-1.789 8.02-4.774a1.66 1.66 0 0 1 2.254-.684 1.67 1.67 0 0 1 .68 2.257c-2.182 4.09-6.28 6.536-10.951 6.54zm11.96-24.095a1.7 1.7 0 0 1-.797-.202 1.67 1.67 0 0 1-.773-2.014c.017-.058 2.34-7.456-1.953-9.843-5.462 2.681-11.385 2.681-16.847 0-4.293 2.387-1.974 9.785-1.946 9.863a1.66 1.66 0 0 1-.387 1.704 1.67 1.67 0 0 1-1.706.41c-1.923-.619-5.387-6.084-5.712-11.143-.195-2.986.598-6.998 5.294-9.545.876-2.607 3.492-4.474 7.33-5.182 7.336-1.354 17.853 1.59 21.81 8.137 2.073 3.426 3.236 9.19-3 17.176a1.66 1.66 0 0 1-1.313.64M70.941 14.73a17.3 17.3 0 0 0-3.156.273c-1.649.305-4.47 1.143-4.87 3.345-.1.53-.445.982-.931 1.211-2.534 1.2-3.875 2.962-4.09 5.387-.13 1.447.157 2.962.625 4.354.455-3.51 2.247-5.951 5.233-7.1a1.65 1.65 0 0 1 1.385.088c4.898 2.644 10.292 2.644 15.19 0a1.66 1.66 0 0 1 1.388-.089c3.218 1.242 4.634 3.841 5.13 6.55.814-2.647.582-5.041-.7-7.162-2.682-4.436-9.475-6.857-15.204-6.857"/><path fill="#000" d="M72.936 51.759h-.407c-2.603 0-5.127-.88-7.306-2.545C61.4 46.29 59.115 41.348 59.118 36a1.665 1.665 0 1 1 3.331.003c-.003 4.313 1.79 8.26 4.796 10.558 1.59 1.218 3.416 1.86 5.284 1.86h.407c1.867 0 3.693-.642 5.284-1.86 3.003-2.298 4.795-6.245 4.798-10.558 0-.92.746-1.669 1.666-1.669.92.004 1.666.75 1.666 1.673-.004 5.342-2.288 10.28-6.109 13.205-2.175 1.669-4.703 2.548-7.305 2.548"/><path fill="#000" d="M47.89 90.424h-6.533c-.92 0-1.666-.749-1.666-1.669V73.771c0-6.04 1.779-10.472 5.435-13.557 3.116-2.627 7.104-3.828 10.623-4.884 2.346-.708 4.566-1.375 6.174-2.357l.071-.044c1.899-1.174 2.668-2.661 2.576-4.977a1.67 1.67 0 0 1 1.6-1.734 1.66 1.66 0 0 1 1.728 1.604c.14 3.5-1.194 6.085-4.077 7.897l-.075.052c-1.988 1.234-4.44 1.973-7.04 2.757-6.727 2.024-13.683 4.117-13.683 15.247v13.311h4.867c.92 0 1.665.746 1.665 1.669 0 .92-.745 1.67-1.665 1.67m56.22-.001h-6.532a1.669 1.669 0 0 1-.001-3.338h4.867V73.771c0-11.126-6.956-13.219-13.68-15.247-2.603-.783-5.059-1.522-7.046-2.757-2.931-1.816-4.289-4.415-4.152-7.945a1.667 1.667 0 0 1 1.73-1.604c.92.038 1.635.814 1.598 1.734-.09 2.312.68 3.803 2.579 4.977 1.614 1.005 3.865 1.682 6.248 2.4 3.516 1.057 7.504 2.258 10.62 4.888 3.656 3.082 5.435 7.518 5.435 13.554v14.984c0 .92-.746 1.67-1.666 1.67M33.042 50.37c-4.672 0-8.766-2.438-10.951-6.526a1.664 1.664 0 0 1 .677-2.257 1.66 1.66 0 0 1 2.257.68c1.598 2.983 4.594 4.765 8.017 4.765h.007c3.424-.003 6.42-1.785 8.017-4.774a1.663 1.663 0 0 1 2.254-.684 1.673 1.673 0 0 1 .684 2.257c-2.185 4.094-6.28 6.536-10.955 6.54zm11.961-24.091a1.672 1.672 0 0 1-1.573-2.22c.017-.058 2.34-7.453-1.95-9.84-5.465 2.678-11.389 2.678-16.85-.003-4.293 2.387-1.97 9.785-1.947 9.863a1.662 1.662 0 0 1-2.09 2.117c-1.922-.622-5.39-6.087-5.715-11.146-.191-2.982.599-6.994 5.298-9.546.876-2.606 3.492-4.47 7.326-5.181 7.34-1.355 17.857 1.59 21.814 8.136 2.07 3.427 3.232 9.19-3 17.177a1.67 1.67 0 0 1-1.313.643M31.261 3.336a17.5 17.5 0 0 0-3.153.27c-1.649.305-4.474 1.146-4.874 3.349a1.67 1.67 0 0 1-.927 1.21c-2.538 1.197-3.875 2.959-4.094 5.384-.13 1.446.16 2.965.63 4.357.454-3.513 2.243-5.951 5.229-7.104a1.66 1.66 0 0 1 1.388.09c4.898 2.646 10.292 2.646 15.19 0a1.67 1.67 0 0 1 1.388-.086c3.215 1.241 4.63 3.84 5.127 6.553.814-2.65.581-5.049-.701-7.169-2.678-4.433-9.47-6.854-15.203-6.854"/><path fill="#000" d="M33.255 40.363h-.407c-7.394 0-13.41-7.07-13.41-15.757 0-.92.745-1.669 1.665-1.669s1.666.75 1.666 1.67c0 6.846 4.521 12.418 10.079 12.418h.407c5.558 0 10.083-5.568 10.083-12.415a1.666 1.666 0 1 1 3.331 0c0 8.687-6.02 15.753-13.414 15.753"/><mask id="b" width="44" height="46" x="0" y="34" maskUnits="userSpaceOnUse" style="mask-type:luminance"><path fill="#fff" d="M0 34.005h43.775v45.53H0z"/></mask><g mask="url(#b)"><path fill="#000" d="M41.356 79.032H1.672a1.665 1.665 0 0 1-1.662-1.67V62.38c0-6.04 1.775-10.476 5.434-13.558 3.116-2.627 7.104-3.827 10.624-4.887 5.916-1.779 8.995-2.918 8.824-7.374v-.065a1.666 1.666 0 0 1 3.331-.044c.267 7.23-5.825 9.063-11.198 10.68C10.298 49.157 3.338 51.25 3.338 62.38v13.314h38.018a1.67 1.67 0 0 1 1.666 1.67c0 .923-.746 1.668-1.666 1.668"/></g><path fill="#000" d="M62.87 56.017c-.69 0-1.279-.414-1.532-1.012-2.353-4.895-7.388-6.41-12.254-7.873-5.38-1.618-11.475-3.455-11.195-10.702a1.667 1.667 0 0 1 1.727-1.604c.92.034 1.635.81 1.601 1.73-.174 4.46 2.907 5.596 8.824 7.378 5.059 1.522 11.359 3.416 14.334 9.7a1.667 1.667 0 0 1-1.505 2.383M14.006 79.032a1.67 1.67 0 0 1-1.666-1.67v-16.72a1.666 1.666 0 1 1 3.331 0v16.72c0 .92-.745 1.67-1.665 1.67m98.395-28.662c-4.672 0-8.762-2.438-10.951-6.525a1.67 1.67 0 0 1 .68-2.258 1.66 1.66 0 0 1 2.254.68c1.598 2.983 4.594 4.765 8.017 4.765h.007c3.424-.003 6.423-1.785 8.017-4.774a1.663 1.663 0 0 1 2.254-.684 1.67 1.67 0 0 1 .684 2.257c-2.186 4.094-6.279 6.536-10.955 6.54zm11.961-24.091a1.673 1.673 0 0 1-1.574-2.22c.021-.058 2.34-7.453-1.949-9.84-5.466 2.678-11.386 2.678-16.851-.003-4.293 2.387-1.97 9.785-1.946 9.863a1.65 1.65 0 0 1-.383 1.704 1.67 1.67 0 0 1-1.707.413c-1.922-.622-5.39-6.088-5.715-11.146-.192-2.982.598-6.994 5.298-9.546.875-2.606 3.492-4.47 7.326-5.178 7.339-1.358 17.856 1.59 21.814 8.133 2.072 3.43 3.232 9.19-3 17.18a1.67 1.67 0 0 1-1.313.64M110.619 3.335c-1.101 0-2.165.089-3.153.27-1.649.305-4.474 1.146-4.874 3.348-.096.53-.441.979-.927 1.211-2.537 1.197-3.875 2.959-4.09 5.384-.13 1.446.157 2.965.626 4.357.455-3.513 2.243-5.951 5.229-7.104a1.66 1.66 0 0 1 1.389.09c4.897 2.646 10.291 2.646 15.189 0 .427-.23.934-.264 1.388-.086 3.215 1.241 4.635 3.84 5.131 6.546.814-2.647.581-5.042-.701-7.162-2.682-4.433-9.474-6.854-15.207-6.854"/><path fill="#000" d="M112.617 40.363h-.411c-7.394 0-13.41-7.07-13.41-15.757 0-.92.745-1.669 1.666-1.669s1.665.75 1.665 1.67c0 6.846 4.522 12.418 10.079 12.418h.407c5.562 0 10.083-5.568 10.083-12.415a1.667 1.667 0 1 1 3.331 0c0 8.687-6.016 15.753-13.41 15.753"/><mask id="c" width="44" height="46" x="102" y="34" maskUnits="userSpaceOnUse" style="mask-type:luminance"><path fill="#fff" d="M102.438 34.005h43.029v45.53h-43.029z"/></mask><g mask="url(#c)"><path fill="#000" d="M143.792 79.032h-39.681c-.92 0-1.666-.746-1.666-1.67 0-.92.746-1.668 1.666-1.668h38.015V62.379c0-11.13-6.956-13.223-13.684-15.247-5.38-1.622-11.478-3.455-11.198-10.706a1.67 1.67 0 0 1 1.731-1.6c.917.034 1.635.81 1.597 1.73-.171 4.46 2.911 5.596 8.828 7.378 3.519 1.06 7.504 2.257 10.623 4.887 3.656 3.082 5.435 7.518 5.435 13.558v14.984c0 .923-.746 1.669-1.666 1.669"/></g><path fill="#000" d="M82.597 56.017a1.67 1.67 0 0 1-1.505-2.384c2.976-6.283 9.273-8.177 14.335-9.7 5.916-1.781 8.995-2.917 8.824-7.377a1.664 1.664 0 0 1 1.6-1.73 1.66 1.66 0 0 1 1.727 1.6c.281 7.251-5.814 9.084-11.194 10.702-4.887 1.474-9.942 2.993-12.282 7.935a1.66 1.66 0 0 1-1.505.954m48.865 23.015a1.67 1.67 0 0 1-1.666-1.67v-16.72c0-.92.745-1.67 1.666-1.67a1.67 1.67 0 0 1 1.665 1.67v16.72c0 .92-.745 1.67-1.665 1.67"/></svg>