<svg xmlns="http://www.w3.org/2000/svg" width="132" height="132" fill="none"><mask id="a" width="132" height="132" x="0" y="0" maskUnits="userSpaceOnUse" style="mask-type:luminance"><path fill="#fff" d="M0 0h132v132H0z"/></mask><g mask="url(#a)"><path fill="#000" d="M22.346 0h87.304c6.15 0 11.737 2.515 15.786 6.564 4.049 4.05 6.561 9.636 6.561 15.782v87.304c0 6.147-2.512 11.737-6.561 15.786-4.049 4.046-9.639 6.561-15.786 6.561H22.346c-6.146 0-11.733-2.515-15.782-6.561C2.515 121.384 0 115.797 0 109.65V22.346C0 16.2 2.515 10.613 6.564 6.564 10.614 2.515 16.2 0 22.346 0m87.304 3.611H22.346c-5.148 0-9.836 2.108-13.23 5.505-3.397 3.394-5.505 8.078-5.505 13.23v87.304c0 5.153 2.108 9.836 5.505 13.234 3.394 3.394 8.082 5.505 13.23 5.505h87.304c5.153 0 9.836-2.108 13.234-5.505 3.397-3.398 5.505-8.081 5.505-13.234V22.346c0-5.152-2.108-9.836-5.505-13.23-3.398-3.397-8.081-5.505-13.234-5.505"/></g><path fill="#000" d="M26.375 8.122h79.25c5.02 0 9.585 2.053 12.89 5.362 3.306 3.306 5.359 7.868 5.359 12.887v79.254c0 5.02-2.053 9.581-5.359 12.887-3.309 3.309-7.87 5.363-12.89 5.363h-79.25c-5.023 0-9.585-2.054-12.89-5.363-3.307-3.306-5.36-7.867-5.36-12.887V26.371c0-5.02 2.05-9.58 5.36-12.887 3.305-3.309 7.867-5.362 12.89-5.362m79.25 3.611h-79.25c-4.026 0-7.684 1.646-10.339 4.3-2.654 2.654-4.303 6.316-4.303 10.338v79.254c0 4.022 1.65 7.684 4.303 10.338a14.6 14.6 0 0 0 10.339 4.3h79.25c4.025 0 7.684-1.646 10.338-4.3s4.3-6.316 4.3-10.338V26.371c0-4.021-1.646-7.684-4.3-10.338-2.654-2.65-6.313-4.3-10.338-4.3"/><path fill="#000" d="M29.053 29.867h23.439c.641 0 1.205.333 1.524.838l50.38 68.556a1.8 1.8 0 0 1-1.449 2.865v.007H79.505a1.8 1.8 0 0 1-1.524-.839L27.6 32.735a1.804 1.804 0 0 1 .386-2.518 1.8 1.8 0 0 1 1.066-.346zm22.533 3.608H32.613l47.798 65.046h18.976z"/><path fill="#000" d="M85.632 29.864h12.235a1.805 1.805 0 0 1 1.32 3.034L75.901 62.704a1.798 1.798 0 0 1-2.865-.044L67.1 54.59a1.806 1.806 0 0 1 .099-2.25l17.014-21.777a1.79 1.79 0 0 1 1.419-.692zm8.546 3.611h-7.674l-15.69 20.083 3.716 5.06zM63.76 78.245l-18.118 23.189a1.8 1.8 0 0 1-1.418.692v.007h-12.24a1.806 1.806 0 0 1-1.32-3.035L55.059 67.88a1.795 1.795 0 0 1 2.865.044l5.936 8.068a1.81 1.81 0 0 1-.098 2.254m-20.41 20.277L60.15 77.027l-3.72-5.06-20.75 26.555z"/></svg>